<?xml version="1.0" encoding="UTF-8" standalone="no"?>
<!DOCTYPE svg PUBLIC "-//W3C//DTD SVG 1.1//EN" "http://www.w3.org/Graphics/SVG/1.1/DTD/svg11.dtd">
<!-- Created with Vectornator (http://vectornator.io/) -->
<svg height="100%" stroke-miterlimit="10" style="fill-rule:nonzero;clip-rule:evenodd;stroke-linecap:round;stroke-linejoin:round;" version="1.1" viewBox="0 0 472.413 472.413" width="100%" xml:space="preserve" xmlns="http://www.w3.org/2000/svg" xmlns:vectornator="http://vectornator.io" xmlns:xlink="http://www.w3.org/1999/xlink">
<defs/>
<g id="Capa-1" vectornator:layerName="Capa 1">
<path d="M81.4976 240.071C81.4976 144.57 158.916 67.1513 254.417 67.1513C349.918 67.1513 427.336 144.57 427.336 240.071C427.336 335.571 349.918 412.99 254.417 412.99C158.916 412.99 81.4976 335.571 81.4976 240.071Z" fill="none" opacity="1" stroke="#ffffff" stroke-linecap="butt" stroke-linejoin="round" stroke-width="9" vectornator:layerName="Óvalo 1"/>
<g opacity="1" vectornator:layerName="Curva 1">
<path d="M301.594 119.125C249.787 119.155 197.963 119.174 146.156 119.188C137.326 119.19 128.487 119.216 119.656 119.219C116.713 119.22 113.787 119.218 110.844 119.219C108.77 119.219 106.715 119.221 104.656 119.5C97.6315 120.451 91.0097 123.739 86 128.75C81.2511 133.5 78.0653 139.689 76.9375 146.312C76.3812 149.58 76.4685 152.887 76.4688 156.188C76.469 160.547 76.4685 164.89 76.4688 169.25C76.4705 194.44 76.467 219.654 76.4688 244.844C76.4688 247.62 78.7236 249.875 81.5 249.875C84.2764 249.875 86.5312 247.62 86.5312 244.844C86.5329 220.138 86.5296 195.424 86.5312 170.719C86.5315 166.359 86.5309 161.985 86.5312 157.625C86.5315 154.679 86.3548 151.679 86.75 148.75C87.3398 144.38 89.2466 140.247 92.1562 136.938C95.7059 132.901 100.669 130.217 106 129.5C108.187 129.206 110.393 129.281 112.594 129.281C114.949 129.282 117.301 129.281 119.656 129.281C130.253 129.284 140.872 129.31 151.469 129.312C199.743 129.325 248.007 129.347 296.281 129.375C306.289 129.381 316.304 129.369 326.312 129.375C328.667 129.376 331.02 129.374 333.375 129.375C334.992 129.376 336.582 129.376 338.188 129.594C343.014 130.248 347.561 132.525 351 135.969C354.263 139.237 356.476 143.477 357.25 148.031C357.663 150.464 357.564 152.949 357.562 155.406C357.561 157.784 357.564 160.153 357.562 162.531C357.554 176.801 357.54 191.074 357.531 205.344C357.518 227.144 357.512 248.95 357.5 270.75C357.496 278.281 357.472 285.781 357.469 293.312C357.468 295.691 357.47 298.091 357.469 300.469C357.469 300.949 357.469 301.426 357.469 301.906C357.241 302.14 357.009 302.36 356.781 302.594C356.419 302.966 356.049 303.347 355.688 303.719C353.878 305.578 352.091 307.453 350.281 309.312C345.215 314.519 340.129 319.7 335.062 324.906C324.93 335.319 314.819 345.742 304.688 356.156C301.431 359.504 298.162 362.84 294.906 366.188C293.616 367.514 292.307 368.842 291.031 370.188C289.785 370.177 288.52 370.188 287.281 370.188C284.792 370.187 282.302 370.188 279.812 370.188C267.864 370.186 255.918 370.189 243.969 370.188C196.672 370.181 149.391 370.163 102.094 370.156C99.1613 370.156 96.7813 372.536 96.7812 375.469C96.7812 378.401 99.1613 380.781 102.094 380.781C144.91 380.775 187.715 380.756 230.531 380.75C244.471 380.748 258.403 380.752 272.344 380.75C276.825 380.749 281.332 380.751 285.812 380.75C288.154 380.75 290.534 380.903 292.875 380.75C295.839 380.557 297.347 378.832 299.219 376.906C300.304 375.79 301.384 374.679 302.469 373.562C303.554 372.446 304.665 371.335 305.75 370.219C314.429 361.288 323.104 352.339 331.781 343.406C340.097 334.846 348.403 326.311 356.719 317.75C359.25 315.145 361.782 312.512 364.312 309.906C365.488 308.696 366.82 307.532 367.469 305.938C368.154 304.253 367.97 302.249 367.969 300.469C367.968 298.883 367.969 297.304 367.969 295.719C367.966 288.584 367.941 281.447 367.938 274.312C367.927 249.738 367.921 225.137 367.906 200.562C367.899 187.879 367.882 175.215 367.875 162.531C367.873 159.757 367.877 156.962 367.875 154.188C367.874 151.907 367.901 149.672 367.594 147.406C366.969 142.802 365.323 138.336 362.844 134.406C357.92 126.603 349.758 121.108 340.656 119.562C337.652 119.052 334.631 119.123 331.594 119.125C329.239 119.126 326.886 119.124 324.531 119.125C316.878 119.129 309.247 119.12 301.594 119.125Z" fill="#ffffff" stroke="none"/>
</g>
<g opacity="1" vectornator:layerName="Línea 1">
<path d="M65.7188 193.562C62.9424 193.557 60.6619 195.786 60.6562 198.562C60.6506 201.339 62.9111 203.588 65.6875 203.594C164.695 203.814 263.711 204.26 362.719 204.5C365.651 204.506 368.025 202.12 368.031 199.188C368.037 196.255 365.651 193.881 362.719 193.875C263.711 193.714 164.727 193.744 65.7188 193.562Z" fill="#ffffff" stroke="none"/>
</g>
<g opacity="1" vectornator:layerName="Línea 2">
<path d="M270.219 194.156C267.442 194.156 265.188 196.411 265.188 199.188C265.168 257.954 264.946 316.703 264.906 375.469C264.906 378.401 267.286 380.781 270.219 380.781C273.151 380.781 275.531 378.401 275.531 375.469C275.492 316.703 275.269 257.954 275.25 199.188C275.25 196.411 272.995 194.156 270.219 194.156Z" fill="#ffffff" stroke="none"/>
</g>
<g opacity="1" vectornator:layerName="Línea 3">
<path d="M171.031 194.156C168.255 194.156 166 196.411 166 199.188C165.981 257.966 165.758 316.753 165.719 375.531C165.719 378.464 168.099 380.844 171.031 380.844C173.964 380.844 176.344 378.464 176.344 375.531C176.304 316.753 176.082 257.966 176.062 199.188C176.062 196.411 173.808 194.156 171.031 194.156Z" fill="#ffffff" stroke="none"/>
</g>
<g opacity="1" vectornator:layerName="Línea 4">
<path d="M284.25 282.031C237.17 282.071 190.08 282.293 143 282.312C140.224 282.312 138 284.567 138 287.344C138 290.12 140.224 292.375 143 292.375C190.08 292.394 237.17 292.617 284.25 292.656C287.182 292.656 289.563 290.276 289.562 287.344C289.562 284.411 287.182 282.031 284.25 282.031Z" fill="#ffffff" stroke="none"/>
</g>
<g opacity="1" vectornator:layerName="Línea 5">
<path d="M128.031 282.031C124.686 282.071 121.377 282.293 118.031 282.312C115.255 282.312 113 284.567 113 287.344C113 290.12 115.255 292.375 118.031 292.375C121.377 292.395 124.686 292.617 128.031 292.656C130.964 292.656 133.344 290.276 133.344 287.344C133.344 284.411 130.964 282.031 128.031 282.031Z" fill="#ffffff" stroke="none"/>
</g>
<g opacity="1" vectornator:layerName="Línea 6">
<path d="M86.5 370.219C83.1545 370.258 79.8143 370.48 76.4688 370.5C73.6924 370.5 71.4687 372.755 71.4688 375.531C71.4688 378.308 73.6924 380.531 76.4688 380.531C79.8143 380.551 83.1545 380.804 86.5 380.844C89.4325 380.844 91.8125 378.464 91.8125 375.531C91.8125 372.599 89.4325 370.219 86.5 370.219Z" fill="#ffffff" stroke="none"/>
</g>
<g opacity="1" vectornator:layerName="Línea 7">
<path d="M50.3438 193.562C46.9982 193.602 43.658 193.824 40.3125 193.844C37.5361 193.844 35.3125 196.099 35.3125 198.875C35.3125 201.651 37.5361 203.906 40.3125 203.906C43.658 203.926 46.9982 204.148 50.3438 204.188C53.2762 204.188 55.6563 201.807 55.6562 198.875C55.6562 195.943 53.2762 193.562 50.3438 193.562Z" fill="#ffffff" stroke="none"/>
</g>
<g opacity="1" vectornator:layerName="Curva 2">
<path d="M390.312 188.312C387.532 188.275 384.744 189.313 382.594 191.406C368.46 205.218 354.328 219.037 340.281 232.938C335.771 237.401 331.26 241.849 326.75 246.312C326.207 245.803 325.668 245.291 325.125 244.781C319.429 239.438 313.744 234.078 308.062 228.719C303.933 224.816 297.403 224.996 293.5 229.125C289.597 233.254 289.808 239.785 293.938 243.688C300.418 249.825 306.88 255.97 313.344 262.125C314.421 263.151 315.516 264.162 316.594 265.188C319.095 267.569 321.173 269.972 324.812 270.688C326.097 270.94 327.396 270.962 328.688 270.75C332.734 270.087 335.365 267.017 338.156 264.344C339.484 263.072 340.797 261.803 342.125 260.531C343.785 258.942 345.465 257.339 347.125 255.75C364.054 239.54 380.923 223.285 397.75 206.969C402.05 202.783 402.123 195.894 397.938 191.594C395.844 189.444 393.093 188.35 390.312 188.312Z" fill="#ffffff" stroke="none"/>
</g>
<path d="M123.369 108.333C123.369 104.186 126.732 100.823 130.879 100.823L130.879 100.823C135.027 100.823 138.39 104.186 138.39 108.333L138.39 140.161C138.39 144.309 135.027 147.672 130.879 147.672L130.879 147.672C126.732 147.672 123.369 144.309 123.369 140.161L123.369 108.333Z" fill="#55da90" fill-rule="nonzero" opacity="1" stroke="#ffffff" stroke-linecap="butt" stroke-linejoin="round" stroke-width="10" vectornator:layerName="Rectángulo 1"/>
<path d="M214.205 108.333C214.205 104.186 217.567 100.823 221.715 100.823L221.715 100.823C225.863 100.823 229.226 104.186 229.226 108.333L229.226 140.161C229.226 144.309 225.863 147.672 221.715 147.672L221.715 147.672C217.567 147.672 214.205 144.309 214.205 140.161L214.205 108.333Z" fill="#55da90" fill-rule="nonzero" opacity="1" stroke="#ffffff" stroke-linecap="butt" stroke-linejoin="round" stroke-width="10" vectornator:layerName="Rectángulo 2"/>
<path d="M303.825 108.333C303.825 104.186 307.188 100.823 311.335 100.823L311.335 100.823C315.483 100.823 318.846 104.186 318.846 108.333L318.846 140.161C318.846 144.309 315.483 147.672 311.335 147.672L311.335 147.672C307.188 147.672 303.825 144.309 303.825 140.161L303.825 108.333Z" fill="#55da90" fill-rule="nonzero" opacity="1" stroke="#ffffff" stroke-linecap="butt" stroke-linejoin="round" stroke-width="10" vectornator:layerName="Rectángulo 3"/>
<g opacity="1" vectornator:layerName="Línea 8">
<path d="M52.9062 93.5938C51.6216 93.6638 50.3642 94.2476 49.4375 95.2812C47.5842 97.3485 47.7765 100.522 49.8438 102.375C55.8445 107.781 61.7002 113.329 67.6875 118.75C69.871 120.708 73.23 120.527 75.1875 118.344C77.145 116.16 76.9647 112.801 74.7812 110.844C68.7412 105.482 62.5579 100.252 56.5312 94.875C55.4976 93.9483 54.1909 93.5237 52.9062 93.5938Z" fill="#ffffff" stroke="none"/>
</g>
<g opacity="1" vectornator:layerName="Línea 9">
<path d="M84.3438 87.4062C81.5674 87.4062 79.3125 89.6611 79.3125 92.4375C79.2926 97.1954 79.0708 101.961 79.0312 106.719C79.0312 109.651 81.4113 112.031 84.3438 112.031C87.2762 112.031 89.6563 109.651 89.6562 106.719C89.6167 101.961 89.3949 97.1954 89.375 92.4375C89.375 89.6611 87.1201 87.4062 84.3438 87.4062Z" fill="#ffffff" stroke="none"/>
</g>
<g opacity="1" vectornator:layerName="Línea 10">
<path d="M62.2188 123.188C57.5382 123.227 52.868 123.449 48.1875 123.469C45.4111 123.469 43.1562 125.724 43.1562 128.5C43.1562 131.276 45.4111 133.531 48.1875 133.531C52.868 133.551 57.5382 133.773 62.2188 133.812C65.1512 133.812 67.5312 131.432 67.5312 128.5C67.5312 125.568 65.1512 123.187 62.2188 123.188Z" fill="#ffffff" stroke="none"/>
</g>
<path d="M290.438 327.934C290.438 314.128 301.63 302.936 315.436 302.936L362.717 302.936L290.438 375.463L290.438 327.934Z" fill="none" opacity="1" stroke="#ffffff" stroke-linecap="butt" stroke-linejoin="round" stroke-width="10" vectornator:layerName="Rectángulo 4"/>
</g>
</svg>
