<?xml version="1.0" encoding="UTF-8" standalone="no"?>
<!DOCTYPE svg PUBLIC "-//W3C//DTD SVG 1.1//EN" "http://www.w3.org/Graphics/SVG/1.1/DTD/svg11.dtd">
<!-- Created with Vectornator (http://vectornator.io/) -->
<svg height="100%" stroke-miterlimit="10" style="fill-rule:nonzero;clip-rule:evenodd;stroke-linecap:round;stroke-linejoin:round;" version="1.1" viewBox="0 0 1300 1024" width="100%" xml:space="preserve" xmlns="http://www.w3.org/2000/svg" xmlns:vectornator="http://vectornator.io" xmlns:xlink="http://www.w3.org/1999/xlink">
<defs/>
<g id="Capa-4" opacity="0.5" vectornator:layerName="Capa 4"/>
<g id="Capa-1" vectornator:layerName="Capa 1">
<path d="M136.856 313.951L136.856 896.731L1151.63 896.731L1151.63 313.951" fill="#faefe8" fill-rule="nonzero" opacity="1" stroke="none" vectornator:layerName="Curva 1"/>
<g opacity="1" vectornator:layerName="Curva 8">
<path d="M1151.62 534.25C1144.74 534.25 1139.16 539.835 1139.16 546.719C1139.14 632.252 1139.14 717.779 1139.12 803.312C1139.12 824.353 1139.1 845.397 1139.09 866.438C1139.09 872.777 1139.09 879.098 1139.09 885.438C1138.65 885.437 1138.2 885.438 1137.75 885.438C1129.16 885.436 1120.59 885.439 1112 885.438C1086.89 885.432 1061.79 885.443 1036.69 885.438C962.033 885.422 887.374 885.391 812.719 885.375C587.433 885.328 362.13 885.297 136.844 885.25C129.804 885.25 124.094 890.96 124.094 898C124.094 905.04 129.804 910.75 136.844 910.75C392.52 910.697 648.198 910.616 903.875 910.562C967.299 910.549 1030.73 910.544 1094.16 910.531C1109.35 910.528 1124.55 910.534 1139.75 910.531C1141.73 910.531 1143.71 910.532 1145.69 910.531C1149.89 910.53 1154.14 910.857 1157.91 908.531C1158.82 907.965 1159.62 907.332 1160.38 906.562C1161.2 905.724 1161.89 904.835 1162.47 903.812C1164.49 900.255 1164.16 896.395 1164.16 892.5C1164.16 890.213 1164.16 887.912 1164.16 885.625C1164.16 883.338 1164.16 881.068 1164.16 878.781C1164.15 857.283 1164.16 835.779 1164.16 814.281C1164.14 725.088 1164.11 635.912 1164.09 546.719C1164.09 539.835 1158.51 534.25 1151.62 534.25Z" fill="#828282" stroke="none"/>
</g>
<path d="M256.955 894.195L256.955 480.168C256.955 465.813 268.592 454.177 282.946 454.177L518.463 454.177C530.027 454.177 539.474 463.551 539.562 475.115L542.784 894.195L256.955 894.195Z" fill="#ffffff" fill-rule="nonzero" opacity="1" stroke="#828282" stroke-linecap="butt" stroke-linejoin="round" stroke-width="25.1791" vectornator:layerName="Curva 2"/>
<g opacity="1" vectornator:layerName="Curva 10">
<path d="M137.094 353.062C130.054 353.061 124.345 358.741 124.344 365.781C124.399 521.689 124.476 677.624 124.531 833.531C124.53 840.415 130.116 845.967 137 845.969C143.883 845.97 149.436 840.415 149.438 833.531C149.571 677.624 149.71 521.72 149.844 365.812C149.846 358.773 144.134 353.064 137.094 353.062Z" fill="#828282" stroke="none"/>
</g>
<path d="M700.934 484.434C700.934 467.556 714.617 453.873 731.496 453.873L1008.63 453.873C1025.51 453.873 1039.19 467.556 1039.19 484.434L1039.19 697.912C1039.19 714.791 1025.51 728.473 1008.63 728.473L731.496 728.473C714.617 728.473 700.934 714.791 700.934 697.912L700.934 484.434Z" fill="#ffffff" fill-rule="nonzero" opacity="1" stroke="#828282" stroke-linecap="butt" stroke-linejoin="round" stroke-width="25.1791" vectornator:layerName="Rectángulo 1"/>
<path d="M77.9843 898.562L1222.02 898.562L1222.02 963.496L77.9843 963.496L77.9843 898.562Z" fill="#ffa361" fill-rule="nonzero" opacity="1" stroke="#828282" stroke-linecap="butt" stroke-linejoin="round" stroke-width="25.1791" vectornator:layerName="Rectángulo 2"/>
<path d="M137.447 65.6473L1152.84 65.6473L1152.84 110.505L137.447 110.505L137.447 65.6473Z" fill="#afafaf" fill-rule="nonzero" opacity="1" stroke="#828282" stroke-linecap="butt" stroke-linejoin="round" stroke-width="25.1791" vectornator:layerName="Rectángulo 3"/>
<path d="M1152.3 115.083L1209.93 277.202L975.929 275.737L974.652 115.91L1152.3 115.083Z" fill="#ffb580" fill-rule="nonzero" opacity="1" stroke="#828282" stroke-linecap="butt" stroke-linejoin="round" stroke-width="25.1791" vectornator:layerName="Curva 6"/>
<path d="M756.087 113.507L975.738 113.507L975.738 273.389L756.087 273.389L756.087 113.507Z" fill="#fff7f2" fill-rule="nonzero" opacity="1" stroke="#828282" stroke-linecap="butt" stroke-linejoin="round" stroke-width="25.1791" vectornator:layerName="Rectángulo 4"/>
<path d="M975.761 275.492L1209.28 275.492C1209.28 327.466 1157 369.599 1092.52 369.599C1028.04 369.599 975.761 327.466 975.761 275.492Z" fill="#ffa361" fill-rule="nonzero" opacity="1" stroke="#828282" stroke-linecap="butt" stroke-linejoin="round" stroke-width="25.1791" vectornator:layerName="Óvalo 6"/>
<path d="M139.758 112.074L82.3236 274.192L315.517 272.728L316.789 112.901L139.758 112.074Z" fill="#ffb580" fill-rule="nonzero" opacity="1" stroke="#828282" stroke-linecap="butt" stroke-linejoin="round" stroke-width="25.1791" vectornator:layerName="Curva 7"/>
<path d="M315.684 272.483L82.9771 272.483C82.9771 324.457 135.07 366.59 199.33 366.59C263.591 366.59 315.684 324.457 315.684 272.483Z" fill="#ffa361" fill-rule="nonzero" opacity="1" stroke="#828282" stroke-linecap="butt" stroke-linejoin="round" stroke-width="25.1791" vectornator:layerName="Óvalo 9"/>
<path d="M755.687 273.36L977.486 273.36C977.486 325.334 927.834 367.467 866.586 367.467C805.338 367.467 755.687 325.334 755.687 273.36Z" fill="#faefe8" fill-rule="nonzero" opacity="1" stroke="#828282" stroke-linecap="butt" stroke-linejoin="round" stroke-width="25.1791" vectornator:layerName="Óvalo 5"/>
<path d="M535.848 112.939L755.499 112.939L755.499 272.82L535.848 272.82L535.848 112.939Z" fill="#ffb580" fill-rule="nonzero" opacity="1" stroke="#828282" stroke-linecap="butt" stroke-linejoin="round" stroke-width="25.1791" vectornator:layerName="Rectángulo 5"/>
<path d="M535.448 272.792L757.247 272.792C757.247 324.766 707.595 366.899 646.347 366.899C585.099 366.899 535.448 324.766 535.448 272.792Z" fill="#ffa361" fill-rule="nonzero" opacity="1" stroke="#828282" stroke-linecap="butt" stroke-linejoin="round" stroke-width="25.1791" vectornator:layerName="Óvalo 7"/>
<path d="M315.089 114.343L534.739 114.343L534.739 274.224L315.089 274.224L315.089 114.343Z" fill="#fff7f2" fill-rule="nonzero" opacity="1" stroke="#828282" stroke-linecap="butt" stroke-linejoin="round" stroke-width="25.1791" vectornator:layerName="Rectángulo 6"/>
<path d="M314.688 274.196L536.487 274.196C536.487 326.17 486.836 368.303 425.588 368.303C364.34 368.303 314.688 326.17 314.688 274.196Z" fill="#faefe8" fill-rule="nonzero" opacity="1" stroke="#828282" stroke-linecap="butt" stroke-linejoin="round" stroke-width="25.1791" vectornator:layerName="Óvalo 8"/>
<g opacity="1" vectornator:layerName="Curva 9">
<path d="M1151.81 349.25C1145.39 349.226 1140.18 354.419 1140.16 360.844C1139.94 395.17 1139.72 429.486 1139.5 463.812C1139.48 470.383 1144.77 475.757 1151.34 475.781C1157.91 475.806 1163.26 470.477 1163.28 463.906C1163.32 429.579 1163.37 395.265 1163.41 360.938C1163.43 354.513 1158.24 349.274 1151.81 349.25Z" fill="#828282" stroke="none"/>
</g>
</g>
</svg>
