<?xml version="1.0" encoding="UTF-8" standalone="no"?>
<!DOCTYPE svg PUBLIC "-//W3C//DTD SVG 1.1//EN" "http://www.w3.org/Graphics/SVG/1.1/DTD/svg11.dtd">
<!-- Created with Vectornator (http://vectornator.io/) -->
<svg height="100%" stroke-miterlimit="10" style="fill-rule:nonzero;clip-rule:evenodd;stroke-linecap:round;stroke-linejoin:round;" version="1.1" viewBox="0 0 1272.55 1024" width="100%" xml:space="preserve" xmlns="http://www.w3.org/2000/svg" xmlns:vectornator="http://vectornator.io" xmlns:xlink="http://www.w3.org/1999/xlink">
<defs/>
<g id="Capa-2" vectornator:layerName="Capa 2">
<path d="M73.9918 243.704C73.9918 190.841 116.846 147.987 169.709 147.987L1009.7 147.987C1062.57 147.987 1105.42 190.841 1105.42 243.704L1105.42 773.524C1105.42 826.387 1062.57 869.241 1009.7 869.241L169.709 869.241C116.846 869.241 73.9918 826.387 73.9918 773.524L73.9918 243.704Z" fill="none" opacity="1" stroke="#8d8d8d" stroke-linecap="butt" stroke-linejoin="round" stroke-width="44" vectornator:layerName="Rectángulo 1"/>
<path d="M881.528 822.131C881.528 720.391 964.004 637.915 1065.74 637.915C1167.48 637.915 1249.96 720.391 1249.96 822.131C1249.96 923.871 1167.48 1006.35 1065.74 1006.35C964.004 1006.35 881.528 923.871 881.528 822.131Z" fill="#35db7c" fill-rule="nonzero" opacity="1" stroke="#1faf5c" stroke-linecap="butt" stroke-linejoin="round" stroke-width="34.3067" vectornator:layerName="path"/>
<path d="M977.822 842.032L1044.24 890.16L1156.42 756.167" fill="none" opacity="1" stroke="#ffffff" stroke-linecap="round" stroke-linejoin="round" stroke-width="45.0244" vectornator:layerName="Curva 3"/>
<g opacity="1" vectornator:layerName="Curva 6">
<path d="M980.188 310.281C953.687 310.322 927.188 310.29 900.688 310.406C856.387 310.6 812.082 310.988 767.781 311.219C737.325 311.377 706.894 311.352 676.438 311.375C665.61 311.375 656.813 320.172 656.812 331C656.812 341.828 665.61 350.594 676.438 350.594C706.894 350.617 737.325 350.622 767.781 350.781C812.082 351.012 856.387 351.369 900.688 351.562C927.188 351.679 953.687 351.647 980.188 351.688C991.624 351.688 1000.91 342.437 1000.91 331C1000.91 319.563 991.624 310.281 980.188 310.281Z" fill="#8d8d8d" stroke="none"/>
</g>
<g opacity="1" vectornator:layerName="Curva 7">
<path d="M870.438 406.906C853.765 406.946 837.078 406.929 820.406 407.031C791.607 407.208 762.83 407.618 734.031 407.812C714.833 407.943 695.636 407.978 676.438 408C665.61 408 656.813 416.766 656.812 427.594C656.812 438.422 665.61 447.219 676.438 447.219C695.636 447.241 714.833 447.245 734.031 447.375C762.83 447.57 791.607 448.011 820.406 448.188C837.078 448.29 853.765 448.273 870.438 448.312C881.874 448.312 891.125 439.03 891.125 427.594C891.125 416.157 881.874 406.906 870.438 406.906Z" fill="#8d8d8d" stroke="none"/>
</g>
<g opacity="1" vectornator:layerName="Curva 8">
<path d="M914.406 502.531C893.954 502.571 873.515 502.554 853.062 502.656C817.734 502.833 782.422 503.274 747.094 503.469C723.542 503.599 699.989 503.602 676.438 503.625C665.61 503.625 656.813 512.422 656.812 523.25C656.812 534.078 665.61 542.844 676.438 542.844C699.989 542.866 723.542 542.901 747.094 543.031C782.422 543.226 817.734 543.636 853.062 543.812C873.515 543.915 893.954 543.898 914.406 543.938C925.843 543.938 935.125 534.687 935.125 523.25C935.125 511.813 925.843 502.531 914.406 502.531Z" fill="#8d8d8d" stroke="none"/>
</g>
<g opacity="1" vectornator:layerName="Óvalo 5">
<path d="M392.031 258.625C379.51 259.152 367.066 261.411 355.156 265.344C315.305 278.504 283.305 310.018 269.531 349.656C266.334 358.858 264.142 368.42 263 378.094C262.67 380.893 262.469 383.717 262.312 386.531C261.409 388.985 260.853 391.606 260.875 394.375C260.894 396.54 260.994 395.734 260.906 396.531C260.821 397.31 260.942 398.092 260.969 398.875C260.996 399.65 261.023 400.444 261.062 401.219C261.181 403.535 261.358 405.849 261.594 408.156C262.518 417.207 264.356 426.158 267.062 434.844C279.657 475.254 310.872 508.003 350.625 522.531C363.442 527.216 376.964 529.951 390.594 530.625C405.16 531.346 419.818 529.734 433.875 525.844C473.877 514.772 507.085 485.508 523.156 447.25C529.289 432.652 532.831 417.002 533.594 401.188C534.33 385.921 532.524 370.534 528.188 355.875C516.247 315.512 485.669 282.485 446.344 267.469C432.987 262.369 418.842 259.395 404.562 258.688C400.388 258.481 396.205 258.449 392.031 258.625ZM395.5 301.031C406.089 300.812 416.698 302.38 426.75 305.719C444.777 311.706 460.748 323.382 472.062 338.625C479.235 348.288 484.512 359.333 487.469 371C489.65 379.607 490.585 388.503 490.25 397.375C489.862 407.652 487.757 417.85 484.031 427.438C476.112 447.815 460.857 465.057 441.625 475.438C433.22 479.974 424.111 483.17 414.719 484.906C403.451 486.989 391.76 486.967 380.5 484.844C349.307 478.963 322.928 456.919 311.562 427.281C308.839 420.179 307.011 412.742 306.125 405.188C305.882 403.114 305.698 401.022 305.594 398.938C305.567 398.41 305.549 397.903 305.531 397.375C305.514 396.85 305.519 397.352 305.469 394C305.452 391.886 305.065 389.902 304.5 387.969C304.538 387.391 304.574 386.819 304.625 386.219C304.98 382.063 305.627 377.915 306.531 373.844C310.571 355.658 320.189 338.885 333.781 326.156C341.442 318.982 350.329 313.103 359.938 308.875C367.894 305.374 376.323 303.001 384.938 301.844C388.435 301.374 391.97 301.104 395.5 301.031Z" fill="#8d8d8d" stroke="none"/>
</g>
<g opacity="1" vectornator:layerName="Curva 4">
<path d="M394.312 486.906C372.27 487.086 350.189 489.653 328.906 495.5C307.887 501.275 287.751 510.31 269.781 522.688C252.721 534.438 237.748 549.046 225.344 565.625C213.066 582.035 203.33 600.276 195.875 619.344C187.677 640.311 182.15 662.319 178.969 684.594C177.927 691.885 177.141 699.213 176.656 706.562C176.372 710.866 176.145 715.185 176.188 719.5C176.309 731.16 185.84 740.527 197.5 740.406C209.16 740.285 218.527 730.723 218.406 719.062C218.407 719.09 218.406 719.028 218.406 719C218.406 718.872 218.405 718.722 218.406 718.594C218.408 718.279 218.401 717.971 218.406 717.656C218.42 716.889 218.442 716.111 218.469 715.344C218.556 712.843 218.723 710.37 218.906 707.875C219.446 700.534 220.328 693.204 221.5 685.938C225.088 663.684 231.377 641.778 241.094 621.406C247.163 608.683 254.63 596.582 263.594 585.688C270.36 577.464 278.007 569.927 286.406 563.375C299.937 552.818 315.354 544.868 331.656 539.562C351.439 533.125 372.34 530.495 393.094 530.344C415.117 530.184 437.319 532.652 458.406 539.188C475.5 544.486 491.726 552.538 505.969 563.406C513.929 569.48 521.242 576.385 527.812 583.938C536.611 594.051 544.051 605.28 550.25 617.156C560.78 637.332 567.789 659.276 571.906 681.625C573.274 689.05 574.296 696.542 574.969 704.062C575.185 706.477 575.379 708.891 575.5 711.312C575.542 712.14 575.569 712.984 575.594 713.812C575.601 714.073 575.62 714.333 575.625 714.594C575.625 714.619 575.625 714.928 575.625 714.875C575.687 727.191 585.715 737.125 598.031 737.062C610.347 737 620.281 726.941 620.219 714.625C620.176 707.463 619.479 700.293 618.656 693.188C617.386 682.215 615.457 671.292 612.969 660.531C606.777 633.756 596.901 607.662 582.625 584.125C568.312 560.527 549.516 539.738 526.844 523.938C506.001 509.412 482.352 499.339 457.656 493.531C436.933 488.657 415.577 486.733 394.312 486.906Z" fill="#8d8d8d" stroke="none"/>
</g>
</g>
</svg>
