<?xml version="1.0" encoding="UTF-8" standalone="no"?>
<!DOCTYPE svg PUBLIC "-//W3C//DTD SVG 1.1//EN" "http://www.w3.org/Graphics/SVG/1.1/DTD/svg11.dtd">
<!-- Created with Vectornator (http://vectornator.io/) -->
<svg height="100%" stroke-miterlimit="10" style="fill-rule:nonzero;clip-rule:evenodd;stroke-linecap:round;stroke-linejoin:round;" version="1.1" viewBox="0 0 1183.54 1024" width="100%" xml:space="preserve" xmlns="http://www.w3.org/2000/svg" xmlns:vectornator="http://vectornator.io" xmlns:xlink="http://www.w3.org/1999/xlink">
<defs/>
<clipPath id="ArtboardFrame">
<rect height="1024" width="1183.54" x="0" y="0"/>
</clipPath>
<g clip-path="url(#ArtboardFrame)" id="Capa-2" vectornator:layerName="Capa 2">
<path d="M65.6244 226.747C65.6244 175.646 107.05 134.22 158.151 134.22L892.114 134.22C943.214 134.22 984.64 175.646 984.64 226.747L984.64 797.416C984.64 848.517 943.214 889.942 892.114 889.942L158.151 889.942C107.05 889.942 65.6244 848.517 65.6244 797.416L65.6244 226.747Z" fill="none" opacity="1" stroke="#8d8d8d" stroke-linecap="butt" stroke-linejoin="round" stroke-width="44" vectornator:layerName="Rectángulo 1"/>
<path d="M794.424 823.784C794.424 722.044 876.9 639.568 978.64 639.568C1080.38 639.568 1162.86 722.044 1162.86 823.784C1162.86 925.524 1080.38 1008 978.64 1008C876.9 1008 794.424 925.524 794.424 823.784Z" fill="#efefef" fill-rule="nonzero" opacity="1" stroke="#929292" stroke-linecap="butt" stroke-linejoin="round" stroke-width="34.3067" vectornator:layerName="path"/>
<path d="M898.156 872.341C890.37 880.126 889.949 895.278 898.577 903.8C907.205 912.428 922.251 912.112 930.037 904.221L978.541 855.716L1026.94 904.116C1035.36 912.428 1049.88 912.322 1058.5 903.696C1067.13 895.067 1067.24 880.548 1058.93 872.236L1010.53 823.837L1058.93 775.438C1067.24 767.02 1067.13 752.5 1058.5 743.872C1049.88 735.245 1035.36 735.139 1026.94 743.452L978.541 791.851L930.037 743.346C922.251 735.561 907.205 735.139 898.577 743.768C889.949 752.395 890.37 767.442 898.156 775.332L946.661 823.837L898.156 872.341Z" fill="#929292" fill-rule="nonzero" opacity="1" stroke="none" vectornator:layerName="Text 1"/>
<g opacity="1" vectornator:layerName="Línea 1">
<path d="M798.812 309.25C794.313 309.19 789.764 310.407 785.719 313.062C761.893 328.758 738.029 344.421 714.25 360.188C674.499 386.545 634.852 413.046 595.125 439.438C567.813 457.581 540.396 475.578 513 493.594C502.788 500.298 499.952 514.007 506.656 524.219C513.36 534.431 527.069 537.266 537.281 530.562C564.706 512.589 592.116 494.595 619.625 476.75C659.638 450.794 699.728 424.96 739.719 398.969C763.641 383.421 787.468 367.744 811.344 352.125C822.13 345.044 825.143 330.568 818.062 319.781C813.637 313.04 806.312 309.349 798.812 309.25Z" fill="#8d8d8d" stroke="none"/>
</g>
<g opacity="1" vectornator:layerName="Línea 2">
<path d="M233.094 308.719C225.43 309.038 218.048 313.042 213.719 320.062C206.793 331.295 210.299 346.011 221.531 352.938C246.949 368.555 272.318 384.238 297.781 399.781C340.347 425.765 383.006 451.584 425.594 477.531C454.873 495.37 484.053 513.372 513.25 531.344C523.885 537.901 537.818 534.603 544.375 523.969C550.932 513.334 547.634 499.37 537 492.812C507.831 474.796 478.649 456.807 449.562 438.656C407.254 412.255 365.019 385.74 322.688 359.375C297.365 343.604 271.962 327.947 246.594 312.25C242.382 309.653 237.692 308.527 233.094 308.719Z" fill="#8d8d8d" stroke="none"/>
</g>
</g>
</svg>
