<?xml version="1.0" encoding="UTF-8" standalone="no"?>
<!DOCTYPE svg PUBLIC "-//W3C//DTD SVG 1.1//EN" "http://www.w3.org/Graphics/SVG/1.1/DTD/svg11.dtd">
<!-- Created with Vectornator (http://vectornator.io/) -->
<svg height="100%" stroke-miterlimit="10" style="fill-rule:nonzero;clip-rule:evenodd;stroke-linecap:round;stroke-linejoin:round;" version="1.1" viewBox="0 0 1024 1024" width="100%" xml:space="preserve" xmlns="http://www.w3.org/2000/svg" xmlns:vectornator="http://vectornator.io" xmlns:xlink="http://www.w3.org/1999/xlink">
<defs/>
<clipPath id="ArtboardFrame">
<rect height="1024" width="1024" x="0" y="0"/>
</clipPath>
<g clip-path="url(#ArtboardFrame)" id="Capa-2" vectornator:layerName="Capa 2">
<path d="M513.298 202.35C534.488 202.487 554.746 204.488 574.072 208.353C594.106 212.359 614.807 219.037 636.177 228.387C657.546 237.736 676.579 248.421 693.274 260.441C709.968 272.461 721.655 278.805 728.333 279.473C735.011 280.141 740.687 279.473 745.362 277.47C750.036 275.466 769.402 257.436 803.46 223.378C837.518 189.32 855.548 169.954 857.552 165.28C859.555 160.605 859.555 153.593 857.552 144.244C855.548 134.895 850.874 126.881 843.528 120.203C836.182 113.525 822.826 103.509 803.46 90.1526C784.094 76.7967 763.726 64.7763 742.357 54.0916C720.987 43.4068 701.955 35.0593 685.26 29.0492C668.565 23.039 650.534 17.6966 631.168 13.022C611.802 8.34746 594.106 5.00848 578.079 3.00509C562.337 1.03736 540.797 0.0359855 513.459 0.00095254C512.963 0.000317513 512.522 202.345 513.298 202.35ZM242.117 357.673C246.462 350.42 251.268 343.051 256.534 335.568C269.222 317.537 282.912 301.51 297.604 287.487C312.295 273.463 327.989 261.109 344.683 250.424C361.378 239.739 379.075 230.724 397.773 223.378C416.472 216.032 434.502 210.69 451.865 207.351C469.228 204.012 488.928 202.343 510.965 202.343C511.744 202.343 512.522 202.345 513.298 202.35L513.97 0C485.923 0 452.199 3.33899 416.806 10.017C381.412 16.6949 347.021 27.0458 313.631 41.0695C280.241 55.0933 251.526 70.1187 227.485 86.1458C203.444 102.173 179.738 121.539 156.365 144.244C132.992 166.949 112.29 190.99 94.2596 216.366C83.9016 230.944 67.4832 256.794 67.4832 256.794L242.117 357.673Z" fill="#ff4b26" fill-rule="nonzero" opacity="1" stroke="none" vectornator:layerName="Curva 10"/>
<path d="M242.655 668.834C231.548 648.815 223.486 631.491 217.468 614.039C210.79 594.673 206.116 575.307 203.444 555.941C200.773 536.575 199.771 518.211 200.439 500.848C201.107 483.485 203.778 464.453 208.453 443.751C213.127 423.049 219.138 404.351 226.483 387.656C230.78 377.89 235.991 367.896 242.117 357.673L67.4832 256.794C61.9328 265.96 57.1684 274.521 53.19 282.478C43.8409 301.176 35.4934 320.876 28.1476 341.578C20.8019 362.28 14.4578 386.321 9.11543 413.7C3.77305 441.08 0.767967 470.463 0.10017 501.849C-0.567627 533.236 2.10356 566.292 8.11373 601.017C14.1239 635.743 22.8053 667.797 34.1578 697.18C43.727 721.948 55.4314 746.24 69.2709 770.059" fill="#ffd500" fill-rule="nonzero" opacity="1" stroke="none" vectornator:layerName="Curva 4"/>
<path d="M511.606 823.393C511.393 823.394 511.179 823.394 510.965 823.394" fill="#000000" fill-rule="nonzero" opacity="1" stroke="none" vectornator:layerName="Curva 6"/>
<path d="M768.82 957.319C779.375 950.95 790.588 943.705 802.458 935.584C827.835 918.221 850.874 899.523 871.575 879.489C892.277 859.455 909.306 840.756 922.662 823.394C936.018 806.031 946.702 790.672 954.716 777.316C962.73 763.96 973.414 740.921 986.77 708.199C1000.13 675.477 1009.48 645.76 1014.82 619.048C1020.16 592.336 1023.17 562.285 1023.83 528.895C1024.5 495.505 1023.17 471.799 1019.83 457.775C1016.49 443.751 1011.14 434.402 1003.8 429.727C996.453 425.053 919.657 423.049 773.409 423.717C627.162 424.385 552.034 426.055 548.028 428.726C544.021 431.397 540.682 435.07 538.011 439.744C535.34 444.419 534.004 472.466 534.004 523.887C534.004 575.307 535.34 603.355 538.011 608.029C540.682 612.704 545.023 616.711 551.033 620.05C557.043 623.389 600.45 625.058 681.253 625.058C721.655 625.058 760.053 625.058 800.455 625.058C798.195 632.321 795.78 639.75 792.441 647.095C785.763 661.787 778.084 675.477 769.402 688.165C760.721 700.853 750.036 713.875 737.348 727.231C724.66 740.587 709.301 753.609 691.27 766.297C683.194 771.98 675.118 777.194 667.042 781.94" fill="#167ee6" fill-rule="nonzero" opacity="1" stroke="none" vectornator:layerName="Curva 8"/>
<path d="M667.042 781.94C657.088 787.789 647.133 792.925 637.179 797.35C619.148 805.363 599.114 811.707 577.077 816.382C555.253 821.011 531.427 823.348 509.603 823.393C509.389 823.394 508.434 1024.83 511.667 1024.83C543.035 1024.87 573.853 1022.17 604.123 1016.72C637.512 1010.71 662.889 1004.7 680.251 998.69C697.614 992.68 715.979 985.001 735.345 975.651C745.652 970.676 756.81 964.565 768.82 957.319M510.111 823.393C488.418 823.35 469.003 821.681 451.865 818.385C434.502 815.046 414.134 808.368 390.761 798.351C367.389 788.334 347.689 777.65 331.661 766.297C315.634 754.945 300.738 742.448 287.587 728.233C267.471 706.49 243.911 670.927 242.655 668.834L69.2709 770.059C71.85 774.498 74.5033 778.92 77.2307 783.326C94.5935 811.373 115.963 838.753 141.339 865.465C166.716 892.177 193.427 915.216 221.475 934.582C249.522 953.948 280.241 970.643 313.631 984.667C347.021 998.69 378.073 1008.71 406.789 1014.72C435.504 1020.73 467.224 1024.07 501.95 1024.73C505.195 1024.8 508.434 1024.83 511.667 1024.83" fill="#12b347" fill-rule="nonzero" opacity="1" stroke="none" vectornator:layerName="Curva 9"/>
<path d="M510.965 823.394C510.68 823.394 510.395 823.393 510.111 823.393" fill="#000000" fill-rule="nonzero" opacity="1" stroke="none" vectornator:layerName="Curva 2"/>
</g>
</svg>
