<?xml version="1.0" encoding="UTF-8" standalone="no"?>
<!DOCTYPE svg PUBLIC "-//W3C//DTD SVG 1.1//EN" "http://www.w3.org/Graphics/SVG/1.1/DTD/svg11.dtd">
<!-- Created with Vectornator (http://vectornator.io/) -->
<svg height="100%" stroke-miterlimit="10" style="fill-rule:nonzero;clip-rule:evenodd;stroke-linecap:round;stroke-linejoin:round;" version="1.1" viewBox="0 0 1024.42 1024" width="100%" xml:space="preserve" xmlns="http://www.w3.org/2000/svg" xmlns:vectornator="http://vectornator.io" xmlns:xlink="http://www.w3.org/1999/xlink">
<defs/>
<clipPath id="ArtboardFrame">
<rect height="1024" width="1024.42" x="0" y="0"/>
</clipPath>
<g clip-path="url(#ArtboardFrame)" id="Capa-2" vectornator:layerName="Capa 2">
<g opacity="1" vectornator:layerName="Óvalo 5">
<path d="M437.938 53.4688C415.855 53.9248 393.821 57.2697 372.625 63.5C349.322 70.3496 327.049 80.6154 306.719 93.9062C260.62 124.043 225.281 169.087 207.188 221.125C201.07 238.718 196.963 256.986 194.938 275.5C194.247 281.813 193.777 288.153 193.562 294.5C193.551 294.834 193.541 295.166 193.531 295.5C192.688 297.945 192.166 300.517 192.188 303.25C192.204 305.209 192.288 304.485 192.188 305.219C192.09 305.933 192.207 306.654 192.219 307.375C192.243 308.811 192.263 310.252 192.312 311.688C192.435 315.243 192.635 318.797 192.906 322.344C194.077 337.666 196.675 352.869 200.625 367.719C209.5 401.083 225.407 432.509 246.969 459.469C269.152 487.206 297.193 510.13 328.812 526.312C351.371 537.857 375.669 545.955 400.656 550.188C425.811 554.448 451.659 554.868 476.938 551.406C501.454 548.048 525.453 541.032 547.906 530.625C600.461 506.265 643.49 463.848 668.562 411.625C681.987 383.663 690.096 353.24 692.406 322.312C694.555 293.547 691.776 264.434 684.094 236.625C672.974 196.375 651.535 159.158 622.438 129.219C598.168 104.247 568.715 84.4098 536.406 71.4062C512.07 61.6114 486.174 55.7146 460 53.9688C452.654 53.4788 445.298 53.3167 437.938 53.4688ZM436.656 98.0312C454.885 97.4954 473.213 99.3559 490.938 103.625C539.435 115.306 582.479 144.924 610.969 185.844C625.859 207.23 636.619 231.409 642.438 256.812C647.982 281.018 649.074 306.274 645.688 330.875C642.936 350.862 637.216 370.418 628.719 388.719C608.369 432.545 572.388 468.436 528.5 488.656C510.201 497.087 490.653 502.75 470.688 505.438C446.696 508.667 422.101 507.626 398.469 502.375C377.926 497.81 358.088 490.023 339.938 479.375C299.75 455.799 268.187 418.467 251.844 374.812C245.925 359.002 241.956 342.471 240.125 325.688C239.56 320.506 239.175 315.303 239 310.094C238.961 308.929 238.956 307.759 238.938 306.594C238.928 306.009 238.933 306.621 238.906 302.906C238.888 300.602 238.42 298.411 237.781 296.312C237.842 294.457 237.922 292.604 238.031 290.75C238.605 280.992 239.882 271.264 241.844 261.688C250.413 219.847 272.328 181.191 303.719 152.25C321.121 136.206 341.252 123.205 363.062 114C380.722 106.547 399.463 101.581 418.5 99.3438C424.534 98.6346 430.58 98.2099 436.656 98.0312Z" fill="#8d8d8d" stroke="none"/>
</g>
<g opacity="1" vectornator:layerName="Curva 1">
<path d="M438.125 507.719C399.136 507.882 360.025 511.926 322.125 521.25C278.741 531.923 237.099 549.703 200.219 575.031C168.083 597.101 139.876 624.581 116.531 655.781C93.5632 686.479 75.2763 720.541 61.1875 756.156C45.2237 796.512 34.4441 838.886 28.2188 881.812C26.2103 895.661 24.6881 909.571 23.7188 923.531C23.1215 932.133 22.6324 940.81 22.7188 949.438C22.8457 961.653 32.8471 971.439 45.0625 971.312C57.2779 971.186 67.0644 961.184 66.9375 948.969C66.9382 949.082 66.9377 948.739 66.9375 948.625C66.9372 948.433 66.9367 948.257 66.9375 948.062C66.9399 947.446 66.9598 946.835 66.9688 946.219C66.9957 944.375 67.0296 942.53 67.0938 940.688C67.2756 935.464 67.5863 930.244 67.9688 925.031C69.0807 909.876 70.8962 894.783 73.3125 879.781C80.733 833.711 93.8052 788.274 113.906 746.094C126.656 719.339 142.321 693.911 161.156 671C175.528 653.518 191.732 637.512 209.562 623.562C243.214 597.235 282.343 578.572 323.531 567.469C359.43 557.792 396.652 553.626 433.781 553.281C471.738 552.929 509.889 556.34 546.844 565.219C591.611 575.975 634.126 594.87 670.844 622.812C687.805 635.72 703.402 650.406 717.406 666.469C735.991 687.786 751.785 711.48 764.875 736.531C786.782 778.455 801.344 824.079 809.906 870.531C812.745 885.93 814.94 901.466 816.344 917.062C816.828 922.444 817.213 927.853 817.469 933.25C817.547 934.906 817.611 936.561 817.656 938.219C817.67 938.734 817.679 939.235 817.688 939.75C817.69 939.887 817.686 940.02 817.688 940.156C817.688 940.205 817.688 940.33 817.688 940.281C817.753 953.184 828.285 963.597 841.188 963.531C854.09 963.466 864.503 952.965 864.438 940.062C864.409 935.062 864.131 930.051 863.812 925.062C863.314 917.255 862.596 909.461 861.719 901.688C859.326 880.475 855.689 859.404 850.938 838.594C839.738 789.54 822.127 741.663 796.812 698.094C784.694 677.237 770.811 657.397 755.125 639.062C735.388 615.992 712.803 595.357 687.906 577.969C648.644 550.547 604.031 531.574 557.5 520.562C518.446 511.321 478.213 507.55 438.125 507.719Z" fill="#8d8d8d" stroke="none"/>
</g>
<path d="M638.529 823.324C638.529 721.584 721.005 639.108 822.745 639.108C924.485 639.108 1006.96 721.584 1006.96 823.324C1006.96 925.064 924.485 1007.54 822.745 1007.54C721.005 1007.54 638.529 925.064 638.529 823.324Z" fill="#35db7c" fill-rule="nonzero" opacity="1" stroke="#1faf5c" stroke-linecap="butt" stroke-linejoin="round" stroke-width="34.3067" vectornator:layerName="path"/>
<g opacity="1" vectornator:layerName="path"/>
<path d="M734.823 843.225L801.238 891.353L913.421 757.36" fill="none" opacity="1" stroke="#ffffff" stroke-linecap="round" stroke-linejoin="round" stroke-width="45.0244" vectornator:layerName="Curva 3"/>
</g>
</svg>
