<?xml version="1.0" encoding="UTF-8" standalone="no"?>
<!DOCTYPE svg PUBLIC "-//W3C//DTD SVG 1.1//EN" "http://www.w3.org/Graphics/SVG/1.1/DTD/svg11.dtd">
<!-- Created with Vectornator (http://vectornator.io/) -->
<svg height="100%" stroke-miterlimit="10" style="fill-rule:nonzero;clip-rule:evenodd;stroke-linecap:round;stroke-linejoin:round;" version="1.1" viewBox="0 0 1024.42 1024" width="100%" xml:space="preserve" xmlns="http://www.w3.org/2000/svg" xmlns:vectornator="http://vectornator.io" xmlns:xlink="http://www.w3.org/1999/xlink">
<defs/>
<clipPath id="ArtboardFrame">
<rect height="1024" width="1024.42" x="0" y="0"/>
</clipPath>
<g clip-path="url(#ArtboardFrame)" id="Capa-2" vectornator:layerName="Capa 2">
<g opacity="1" vectornator:layerName="Óvalo 5">
<path d="M437.906 52.5938C415.748 53.0519 393.675 56.4041 372.406 62.6562C349.022 69.53 326.651 79.8503 306.25 93.1875C259.994 123.428 224.53 168.627 206.375 220.844C200.237 238.498 196.095 256.828 194.062 275.406C193.37 281.74 192.903 288.1 192.688 294.469C192.679 294.718 192.664 294.969 192.656 295.219C191.784 297.753 191.259 300.449 191.281 303.281C191.297 305.24 191.386 304.481 191.281 305.219C191.18 305.935 191.3 306.683 191.312 307.406C191.337 308.848 191.357 310.278 191.406 311.719C191.529 315.286 191.728 318.847 192 322.406C193.175 337.783 195.786 353.034 199.75 367.938C207.619 397.518 220.986 425.615 238.938 450.406C261.814 481.998 292.018 508.127 326.594 526.188C349.734 538.274 374.791 546.703 400.531 551.062C425.776 555.338 451.694 555.757 477.062 552.281C501.667 548.91 525.748 541.883 548.281 531.438C601.022 506.989 644.216 464.409 669.375 412C682.846 383.939 690.965 353.413 693.281 322.375C695.436 293.509 692.648 264.28 684.938 236.375C673.777 195.984 652.263 158.667 623.062 128.625C598.707 103.568 569.171 83.672 536.75 70.625C512.329 60.7973 486.328 54.8451 460.062 53.0938C452.691 52.6022 445.292 52.441 437.906 52.5938ZM449.75 98.9062C462.432 99.3337 475.056 100.929 487.438 103.688C535.976 114.502 579.319 143.383 608.375 183.688C623.532 204.713 634.594 228.59 640.812 253.75C646.742 277.74 648.196 302.844 645.25 327.375C642.849 347.363 637.422 366.977 629.25 385.375C610.186 428.296 576.067 463.997 534.062 485C515.172 494.446 494.82 500.9 473.938 504.062C450.095 507.673 425.593 507.063 401.969 502.219C381.398 498.001 361.503 490.541 343.219 480.219C302.359 457.152 270.078 419.844 253.25 376.031C247.234 360.368 243.183 343.945 241.219 327.281C240.545 321.563 240.1 315.817 239.906 310.062C239.867 308.903 239.831 307.754 239.812 306.594C239.803 306.011 239.839 306.582 239.812 302.875C239.793 300.47 239.294 298.22 238.625 296.031C238.626 296.01 238.624 295.99 238.625 295.969C238.685 294.237 238.773 292.511 238.875 290.781C239.413 281.633 240.575 272.524 242.344 263.531C250.459 222.28 271.506 184.12 301.938 155.125C318.189 139.641 336.959 126.841 357.344 117.438C374.604 109.475 393.021 103.981 411.812 101.125C424.352 99.2194 437.068 98.4788 449.75 98.9062Z" fill="#8d8d8d" stroke="none"/>
</g>
<g opacity="1" vectornator:layerName="Curva 1">
<path d="M438.125 506.844C399.066 507.01 359.873 511.063 321.906 520.406C278.421 531.107 236.684 548.923 199.719 574.312C167.506 596.437 139.244 624.005 115.844 655.281C92.8309 686.04 74.5221 720.157 60.4062 755.844C44.419 796.262 33.6097 838.695 27.375 881.688C25.3636 895.557 23.8457 909.487 22.875 923.469C22.2762 932.093 21.7884 940.787 21.875 949.438C22.0068 962.125 32.3748 972.288 45.0625 972.156C57.7502 972.024 67.9443 961.657 67.8125 948.969C67.8133 949.08 67.8126 948.736 67.8125 948.625C67.8122 948.434 67.8118 948.256 67.8125 948.062C67.8149 947.449 67.8036 946.863 67.8125 946.25C67.8394 944.412 67.9048 942.556 67.9688 940.719C68.1503 935.506 68.4308 930.296 68.8125 925.094C69.9227 909.963 71.7438 894.883 74.1562 879.906C81.5642 833.916 94.62 788.575 114.688 746.469C127.408 719.778 143.021 694.388 161.812 671.531C176.145 654.099 192.312 638.128 210.094 624.219C243.656 597.965 282.673 579.382 323.75 568.312C359.578 558.658 396.726 554.497 433.781 554.156C471.666 553.808 509.773 557.228 546.656 566.094C591.302 576.825 633.695 595.661 670.312 623.531C687.225 636.403 702.755 651.045 716.719 667.062C735.257 688.328 751.005 711.948 764.062 736.938C785.927 778.782 800.486 824.354 809.031 870.719C811.864 886.09 814.036 901.588 815.438 917.156C815.893 922.216 816.274 927.27 816.531 932.344C816.621 934.126 816.697 935.904 816.75 937.688C816.768 938.279 816.77 938.877 816.781 939.469C816.785 939.654 816.779 939.817 816.781 940C816.783 940.102 816.782 940.414 816.781 940.312C816.849 953.714 827.786 964.505 841.188 964.438C854.589 964.37 865.38 953.464 865.312 940.062C865.284 935.045 865.008 930.006 864.688 925C864.188 917.178 863.504 909.382 862.625 901.594C860.228 880.348 856.572 859.249 851.812 838.406C840.592 789.265 822.955 741.303 797.594 697.656C785.448 676.752 771.534 656.844 755.812 638.469C736.026 615.341 713.397 594.649 688.438 577.219C649.082 549.735 604.328 530.753 557.688 519.719C518.566 510.463 478.283 506.673 438.125 506.844Z" fill="#8d8d8d" stroke="none"/>
</g>
<path d="M638.529 823.324C638.529 721.584 721.005 639.108 822.745 639.108C924.485 639.108 1006.96 721.584 1006.96 823.324C1006.96 925.064 924.485 1007.54 822.745 1007.54C721.005 1007.54 638.529 925.064 638.529 823.324Z" fill="#efefef" fill-rule="nonzero" opacity="1" stroke="#929292" stroke-linecap="butt" stroke-linejoin="round" stroke-width="34.3067" vectornator:layerName="path"/>
<path d="M742.26 871.88C734.474 879.666 734.053 894.817 742.681 903.34C751.309 911.968 766.355 911.652 774.141 903.761L822.645 855.256L871.044 903.656C879.461 911.968 893.981 911.862 902.609 903.236C911.236 894.607 911.342 880.087 903.03 871.775L854.63 823.376L903.03 774.977C911.342 766.56 911.236 752.04 902.609 743.412C893.981 734.785 879.461 734.679 871.044 742.991L822.645 791.391L774.141 742.886C766.355 735.101 751.309 734.679 742.681 743.308C734.053 751.935 734.474 766.981 742.26 774.872L790.765 823.376L742.26 871.88Z" fill="#929292" fill-rule="nonzero" opacity="1" stroke="none" vectornator:layerName="Text 1"/>
<g opacity="1" vectornator:layerName="path"/>
</g>
</svg>
