<?xml version="1.0" encoding="UTF-8" standalone="no"?>
<!DOCTYPE svg PUBLIC "-//W3C//DTD SVG 1.1//EN" "http://www.w3.org/Graphics/SVG/1.1/DTD/svg11.dtd">
<!-- Created with Vectornator (http://vectornator.io/) -->
<svg height="100%" stroke-miterlimit="10" style="fill-rule:nonzero;clip-rule:evenodd;stroke-linecap:round;stroke-linejoin:round;" version="1.1" viewBox="0 0 1172.56 1204.08" width="100%" xml:space="preserve" xmlns="http://www.w3.org/2000/svg" xmlns:vectornator="http://vectornator.io" xmlns:xlink="http://www.w3.org/1999/xlink">
<defs/>
<g id="Capa-3" vectornator:layerName="Capa 3"/>
<g id="Capa-2" opacity="0.8" vectornator:layerName="Capa 2">
<g opacity="1" vectornator:layerName="Óvalo 1">
<path d="M424.312 115.219C409.393 115.354 394.499 116.586 379.781 118.906C366.885 120.94 354.123 123.647 341.562 127.219C316.839 134.249 292.998 144.381 270.75 157.25C242.43 173.631 216.657 194.513 194.719 218.781C173.195 242.59 155.374 269.718 142.094 298.938C112.838 363.306 106.244 436.773 123.438 505.344C129.633 530.055 138.879 554.011 150.906 576.469C156.283 586.508 162.258 596.187 168.625 605.625C171.823 610.366 178.259 611.636 183 608.438C187.741 605.239 189.011 598.773 185.812 594.031C179.84 585.175 174.231 576.108 169.188 566.688C157.269 544.426 148.272 520.612 142.5 496.031C127.055 430.256 134.992 360.164 164.812 299.531C177.4 273.937 193.804 250.21 213.281 229.375C234.214 206.984 258.643 187.83 285.438 172.938C314.608 156.724 346.601 145.629 379.531 140.219C405.731 135.914 432.511 135.184 458.906 138.062C470.96 139.377 482.908 141.489 494.719 144.219C532.01 152.838 567.611 169.292 598.594 191.719C625.311 211.057 648.704 235.021 667.531 262.094C683.162 284.57 695.606 309.24 704.344 335.188C726.944 402.299 724.299 476.463 696.938 541.781C686.468 566.775 672.488 590.3 655.531 611.438C633.708 638.64 606.934 661.926 577 679.812C545.54 698.611 510.583 711.336 474.406 717.188C445.066 721.933 415.01 722.181 385.594 717.938C375.133 716.429 364.778 714.298 354.531 711.719C348.673 710.245 342.724 713.798 341.25 719.656C339.776 725.515 343.329 731.464 349.188 732.938C362.163 736.2 375.314 738.724 388.594 740.375C418.756 744.126 449.428 743.501 479.406 738.5C518.282 732.015 555.873 718.094 589.594 697.688C621.181 678.572 649.434 653.871 672.531 625.062C691.807 601.02 707.495 574.095 718.906 545.469C745.132 479.675 748.39 405.809 727.875 338C718.887 308.29 705.423 279.941 688.094 254.188C667.361 223.375 641.179 196.181 611.062 174.438C577.353 150.101 538.798 132.631 498.281 123.312C474.1 117.751 449.179 114.993 424.312 115.219Z" fill="#a5a5a5" stroke="none"/>
</g>
<path d="M55.914 399.815C72.0165 194.602 251.428 41.298 456.641 57.4004C661.854 73.5029 815.158 252.914 799.055 458.127C782.953 663.34 603.541 816.644 398.329 800.542C193.116 784.439 39.8116 605.028 55.914 399.815Z" fill="none" opacity="1" stroke="#929292" stroke-linecap="butt" stroke-linejoin="round" stroke-width="20.6" vectornator:layerName="Óvalo 2"/>
<path d="M661.226 719.325L698.609 684.465L821.809 816.584L784.426 851.443L661.226 719.325Z" fill="#b9b9b9" fill-rule="nonzero" opacity="1" stroke="#929292" stroke-linecap="butt" stroke-linejoin="round" stroke-width="20.6" vectornator:layerName="Rectángulo 1"/>
<path d="M774.537 880.571C769.053 874.69 769.018 865.811 774.458 860.738L831.776 807.289C837.216 802.216 846.072 802.871 851.555 808.751L1094.24 1069.01C1099.73 1074.89 1099.76 1083.77 1094.32 1088.84L1037 1142.29C1031.56 1147.36 1022.71 1146.71 1017.23 1140.83L774.537 880.571Z" fill="none" opacity="1" stroke="#929292" stroke-linecap="butt" stroke-linejoin="round" stroke-width="20.6" vectornator:layerName="Rectángulo 2"/>
<path d="M420.367 493.688C432.082 493.688 437.437 485.655 437.437 474.944L437.437 469.254C437.772 447.162 445.637 437.958 472.418 419.549C501.202 400.136 519.443 377.71 519.443 345.41C519.443 295.204 478.603 266.419 427.731 266.419C389.908 266.419 356.772 284.326 342.547 316.625C339.032 324.491 337.526 332.19 337.526 338.548C337.526 348.088 343.049 354.782 353.257 354.782C361.793 354.782 367.482 349.762 369.993 341.561C378.528 309.763 399.615 297.714 426.56 297.714C459.197 297.714 484.799 316.123 484.799 345.243C484.799 369.176 469.909 382.564 448.483 397.626C422.208 415.868 402.962 435.448 402.962 464.902L402.962 475.446C402.962 486.157 408.82 493.688 420.367 493.688ZM421.798 589.524C435.186 589.524 445.73 578.812 445.73 565.759C445.73 552.538 435.186 541.995 421.798 541.995C408.745 541.995 398.033 552.538 398.033 565.759C398.033 578.812 408.745 589.524 421.798 589.524Z" fill="#bfbfbf" fill-rule="nonzero" opacity="1" stroke="#bfbfbf" stroke-linecap="round" stroke-linejoin="round" stroke-width="15.8112" vectornator:layerName="Curva 9"/>
<g opacity="1" vectornator:layerName="Línea 1">
<path d="M841.469 841.844C839.376 841.771 837.246 842.49 835.594 844.031C832.289 847.113 832.106 852.289 835.188 855.594C887.462 911.699 939.5 968.029 991.75 1024.16C995.005 1027.65 1000.48 1027.85 1003.97 1024.59C1007.46 1021.34 1007.63 1015.87 1004.38 1012.38C952.03 956.335 899.477 900.499 847.156 844.438C845.615 842.785 843.561 841.917 841.469 841.844Z" fill="#a5a5a5" stroke="none"/>
</g>
<g opacity="1" vectornator:layerName="Línea 2">
<path d="M1028.75 1042.69C1026.66 1042.61 1024.53 1043.33 1022.88 1044.88C1019.57 1047.96 1019.39 1053.13 1022.47 1056.44C1031.25 1065.9 1039.78 1075.58 1048.53 1085.06C1051.79 1088.55 1057.26 1088.75 1060.75 1085.5C1064.24 1082.25 1064.44 1076.77 1061.19 1073.28C1052.34 1063.88 1043.26 1054.7 1034.44 1045.28C1032.9 1043.63 1030.84 1042.76 1028.75 1042.69Z" fill="#a5a5a5" stroke="none"/>
</g>
</g>
</svg>
