<?xml version="1.0" encoding="UTF-8" standalone="no"?>
<!DOCTYPE svg PUBLIC "-//W3C//DTD SVG 1.1//EN" "http://www.w3.org/Graphics/SVG/1.1/DTD/svg11.dtd">
<!-- Created with Vectornator (http://vectornator.io/) -->
<svg height="100%" stroke-miterlimit="10" style="fill-rule:nonzero;clip-rule:evenodd;stroke-linecap:round;stroke-linejoin:round;" version="1.1" viewBox="0 0 1778.47 955.584" width="100%" xml:space="preserve" xmlns="http://www.w3.org/2000/svg" xmlns:vectornator="http://vectornator.io" xmlns:xlink="http://www.w3.org/1999/xlink">
<defs/>
<g id="Capa-4" opacity="0.5" vectornator:layerName="Capa 4"/>
<g id="Capa-1" vectornator:layerName="Capa 1">
<g opacity="1" vectornator:layerName="Línea 23">
<path d="M1017.34 744.938C1014.73 744.938 1012.62 747.047 1012.62 749.656C1012.62 752.266 1014.73 754.375 1017.34 754.375C1026.71 754.34 1036.07 754.316 1045.44 754.281C1047.99 754.281 1050.06 752.208 1050.06 749.656C1050.06 747.105 1047.99 745.031 1045.44 745.031C1036.07 744.996 1026.71 744.973 1017.34 744.938Z" fill="#a9a9a9" stroke="none"/>
</g>
<g opacity="1" vectornator:layerName="Línea 31">
<path d="M1200.53 497.875C1191.17 497.938 1181.8 498 1172.44 498.062C1169.89 498.07 1167.8 500.167 1167.81 502.719C1167.82 505.27 1169.92 507.32 1172.47 507.312C1181.83 507.32 1191.2 507.336 1200.56 507.344C1203.17 507.336 1205.29 505.203 1205.28 502.594C1205.27 499.984 1203.14 497.867 1200.53 497.875Z" fill="#a9a9a9" stroke="none"/>
</g>
<g opacity="1" vectornator:layerName="Línea 11">
<path d="M875.188 213.531C872.578 213.531 870.437 215.64 870.438 218.25C870.438 220.86 872.578 222.969 875.188 222.969C897.134 222.934 919.053 222.91 941 222.875C943.552 222.875 945.625 220.802 945.625 218.25C945.625 215.698 943.552 213.625 941 213.625C919.053 213.59 897.134 213.566 875.188 213.531Z" fill="#a9a9a9" stroke="none"/>
</g>
<path d="M1336.67 562.823L1448.48 562.823L1448.48 628.93L1336.67 628.93L1336.67 562.823Z" fill="#dbdbdb" fill-rule="nonzero" opacity="1" stroke="#929292" stroke-linecap="butt" stroke-linejoin="round" stroke-width="9" vectornator:layerName="Rectángulo 9"/>
<path d="M1440.39 526.462L1579.88 526.462L1579.88 605.203L1440.39 605.203L1440.39 526.462Z" fill="#e1e1e1" fill-rule="nonzero" opacity="1" stroke="#929292" stroke-linecap="butt" stroke-linejoin="round" stroke-width="9" vectornator:layerName="Rectángulo 10"/>
<g opacity="1" vectornator:layerName="Línea 20">
<path d="M75.6875 334.594C71.3502 334.609 66.9936 334.641 62.6562 334.656C60.0469 334.687 57.9698 336.828 58 339.438C58.0303 342.047 60.1719 344.124 62.7812 344.094C67.1178 344.008 71.4447 343.929 75.7812 343.844C78.3326 343.814 80.3733 341.739 80.3438 339.188C80.3142 336.636 78.2389 334.564 75.6875 334.594Z" fill="#a9a9a9" stroke="none"/>
</g>
<g opacity="1" vectornator:layerName="Línea 19">
<path d="M409.625 292.656C407.388 292.656 405.594 294.451 405.594 296.688C405.594 298.924 407.388 300.75 409.625 300.75C427.974 300.72 446.339 300.686 464.688 300.656C466.875 300.656 468.625 298.875 468.625 296.688C468.625 294.5 466.875 292.719 464.688 292.719C446.339 292.689 427.974 292.686 409.625 292.656Z" fill="#a9a9a9" stroke="none"/>
</g>
<g opacity="1" vectornator:layerName="Línea 21">
<path d="M144.719 356.844C126.744 356.888 108.756 356.955 90.7812 357C88.1717 357.012 86.0822 359.141 86.0938 361.75C86.1053 364.36 88.2342 366.449 90.8438 366.438C108.818 366.323 126.776 366.208 144.75 366.094C147.302 366.082 149.355 364.02 149.344 361.469C149.332 358.917 147.27 356.832 144.719 356.844Z" fill="#a9a9a9" stroke="none"/>
</g>
<g opacity="1" vectornator:layerName="Óvalo 12">
<path d="M1114.92 363.721C1106.93 368.923 1098.42 372.929 1089.64 375.758C1076.45 380.007 1062.65 381.6 1049.04 380.597C1035.43 379.594 1022.01 375.995 1009.59 369.86C997.168 363.724 985.745 355.052 976.126 343.902C966.507 332.753 959.602 320.182 955.354 306.995C951.105 293.809 949.512 280.007 950.515 266.397C951.518 252.787 955.117 239.368 961.252 226.947C967.388 214.525 976.06 203.102 987.209 193.483C998.359 183.864 1010.93 176.959 1024.12 172.711C1037.3 168.462 1051.1 166.869 1064.71 167.872C1078.33 168.875 1091.74 172.474 1104.17 178.609C1116.59 184.745 1128.01 193.417 1137.63 204.567C1147.25 215.716 1154.15 228.287 1158.4 241.474C1162.65 254.66 1164.24 268.462 1163.24 282.072C1162.24 295.682 1158.64 309.101 1152.5 321.522" fill="#f8f7f5" fill-rule="nonzero" stroke="none"/>
<path d="M1057.06 161.594C1053.76 161.586 1050.45 161.718 1047.16 162C1033.2 163.193 1019.46 167.032 1006.91 173.25C993.83 179.726 982.041 188.757 972.375 199.688C962.186 211.209 954.426 224.805 949.688 239.438C945.239 253.176 943.466 267.75 944.469 282.156C945.398 295.503 948.716 308.661 954.25 320.844C959.22 331.785 965.973 341.923 974.125 350.75C981.78 359.039 990.67 366.163 1000.44 371.812C1025.13 386.095 1054.95 390.469 1082.72 383.969C1095.37 381.007 1107.24 375.799 1118.19 368.844C1121.02 367.044 1121.86 363.3 1120.06 360.469C1118.26 357.637 1114.49 356.794 1111.66 358.594C1100.93 365.412 1089.26 370.332 1076.78 372.844C1052.91 377.648 1027.59 373.527 1006.5 361.344C997.283 356.018 988.931 349.191 981.844 341.25C974.712 333.26 968.838 324.166 964.562 314.344C959.8 303.402 957.053 291.633 956.406 279.719C955.706 266.833 957.492 253.839 961.656 241.625C965.912 229.142 972.643 217.539 981.375 207.656C990.378 197.466 1001.47 189.09 1013.75 183.25C1025.04 177.882 1037.31 174.686 1049.78 173.812C1061.58 172.986 1073.51 174.258 1084.88 177.531C1094.81 180.392 1104.32 184.804 1112.91 190.562C1132.06 203.402 1146.49 222.815 1153.22 244.875C1157.15 257.771 1158.45 271.439 1157.03 284.844C1155.77 296.722 1152.36 308.199 1147.16 318.938C1145.73 321.89 1146.95 325.445 1149.91 326.875C1152.86 328.305 1156.41 327.077 1157.84 324.125C1163.64 312.154 1167.44 299.335 1168.84 286.094C1170.24 272.92 1169.33 259.504 1166.09 246.656C1159.34 219.841 1142.52 196.03 1119.56 180.625C1109.45 173.837 1098.19 168.722 1086.44 165.531C1076.86 162.933 1066.98 161.618 1057.06 161.594Z" fill="#929292" stroke="none"/>
</g>
<g opacity="1" vectornator:layerName="Curva 18">
<path d="M1150.67 326.686L1144.68 297.573L1171.37 309.478L1150.67 326.686Z" fill="#919191" fill-rule="nonzero" stroke="none"/>
<path d="M1144.41 293.438C1143.79 293.515 1143.16 293.714 1142.53 294.125C1142.22 294.33 1141.95 294.572 1141.69 294.844C1140.9 295.665 1140.45 296.753 1140.38 297.875C1140.29 299.146 1140.81 300.872 1141.06 302.094C1141.19 302.7 1141.31 303.331 1141.44 303.938C1141.56 304.544 1141.69 305.143 1141.81 305.75C1141.94 306.357 1142.06 306.956 1142.19 307.562C1142.44 308.776 1142.69 310.005 1142.94 311.219C1143.19 312.432 1143.44 313.63 1143.69 314.844C1144.31 317.877 1144.91 320.904 1145.53 323.938C1145.66 324.544 1145.54 323.954 1146.28 327.594C1146.78 330.017 1149.14 331.561 1151.56 331.062C1152.81 330.806 1153.81 330.061 1154.44 329.062C1154.55 329.038 1154.42 329.018 1154.75 328.969C1155.3 328.887 1155.63 328.264 1156.06 327.906C1156.49 327.548 1156.91 327.202 1157.34 326.844C1159.07 325.412 1160.8 323.963 1162.53 322.531C1163.83 321.457 1165.11 320.386 1166.41 319.312C1167.27 318.597 1168.14 317.872 1169 317.156C1169.86 316.44 1170.73 315.747 1171.59 315.031C1173.5 313.45 1175.71 312.008 1175.41 309.094C1175.27 307.8 1174.59 306.658 1173.59 305.844C1172.62 305.048 1170.97 304.473 1169.84 303.969C1169.29 303.72 1168.71 303.467 1168.16 303.219C1167.6 302.97 1167.06 302.717 1166.5 302.469C1165.39 301.971 1164.27 301.466 1163.16 300.969C1161.49 300.223 1159.82 299.496 1158.16 298.75C1156.49 298.004 1154.82 297.246 1153.16 296.5C1152.04 296.003 1150.92 295.497 1149.81 295C1148.07 294.22 1146.26 293.206 1144.41 293.438ZM1150.78 305.156C1153.15 306.2 1155.51 307.261 1157.88 308.312C1159.61 309.084 1161.36 309.845 1163.09 310.625C1160.6 312.703 1158.12 314.766 1155.62 316.844C1154.94 317.415 1154.25 317.991 1153.56 318.562C1153.43 317.938 1153.29 317.312 1153.16 316.688C1152.36 312.843 1151.57 309.004 1150.78 305.156Z" fill="#929292" stroke="none"/>
</g>
<g opacity="1" vectornator:layerName="Curva 26">
<path d="M1056.34 341.906C1053.71 341.878 1051.56 343.992 1051.53 346.625C1051.51 351.632 1051.49 356.618 1051.47 361.625C1051.44 364.199 1053.49 366.316 1056.06 366.344C1058.64 366.372 1060.75 364.324 1060.78 361.75C1060.87 356.744 1060.97 351.725 1061.06 346.719C1061.09 344.086 1058.98 341.935 1056.34 341.906Z" fill="#929292" stroke="none"/>
</g>
<g opacity="1" vectornator:layerName="Curva 27">
<path d="M1057.62 223.094C1054.37 223.058 1051.72 225.686 1051.69 228.938C1051.61 236.736 1051.54 244.514 1051.47 252.312C1051.43 256.471 1051.38 260.622 1051.34 264.781C1051.33 266.341 1051.3 267.909 1051.28 269.469C1051.27 270.508 1051.29 271.554 1051.28 272.594C1051.27 273.633 1051.26 274.679 1051.25 275.719C1051.24 276.981 1051.09 278.453 1051.38 279.688C1051.69 281.073 1052.46 282.342 1053.56 283.25C1054.33 283.881 1055.22 284.336 1056.19 284.562C1057.25 284.811 1058.51 284.74 1059.59 284.75C1060.92 284.763 1062.24 284.769 1063.56 284.781C1064.44 284.79 1065.34 284.804 1066.22 284.812C1067.54 284.825 1068.86 284.831 1070.19 284.844C1073.71 284.877 1077.25 284.904 1080.78 284.938C1086.95 284.996 1093.11 285.067 1099.28 285.125C1102.46 285.16 1105.06 282.585 1105.09 279.406C1105.13 276.227 1102.59 273.628 1099.41 273.594C1093.68 273.523 1087.95 273.446 1082.22 273.375C1076.49 273.305 1070.76 273.258 1065.03 273.188C1064.33 273.179 1063.61 273.165 1062.91 273.156C1062.91 272.491 1062.93 271.822 1062.94 271.156C1062.96 269.597 1062.98 268.028 1063 266.469C1063.03 264.389 1063.04 262.329 1063.06 260.25C1063.11 256.091 1063.17 251.94 1063.22 247.781C1063.3 241.543 1063.36 235.301 1063.44 229.062C1063.47 225.811 1060.88 223.129 1057.62 223.094Z" fill="#929292" stroke="none"/>
</g>
<g opacity="1" vectornator:layerName="Línea 14">
<path d="M1058.06 182.031C1055.43 182.003 1053.28 184.117 1053.25 186.75C1053.22 192.628 1053.22 198.497 1053.19 204.375C1053.16 206.949 1055.21 209.066 1057.78 209.094C1060.36 209.122 1062.47 207.043 1062.5 204.469C1062.6 198.591 1062.68 192.721 1062.78 186.844C1062.81 184.211 1060.7 182.06 1058.06 182.031Z" fill="#929292" stroke="none"/>
</g>
<g opacity="1" vectornator:layerName="Curva 20">
<path d="M1129.34 271.25C1126.71 271.221 1124.56 273.336 1124.53 275.969C1124.5 278.601 1126.59 280.753 1129.22 280.781C1133.88 280.797 1138.55 280.828 1143.22 280.844C1145.79 280.872 1147.91 278.793 1147.94 276.219C1147.97 273.645 1145.89 271.528 1143.31 271.5C1138.65 271.414 1134.01 271.336 1129.34 271.25Z" fill="#929292" stroke="none"/>
</g>
<g opacity="1" vectornator:layerName="Línea 15">
<path d="M969.844 269.531C967.211 269.503 965.06 271.617 965.031 274.25C965.003 276.883 967.118 279.034 969.75 279.062C975.12 279.086 980.474 279.102 985.844 279.125C988.418 279.153 990.535 277.074 990.562 274.5C990.59 271.926 988.543 269.84 985.969 269.812C980.6 269.719 975.213 269.625 969.844 269.531Z" fill="#929292" stroke="none"/>
</g>
<g opacity="1" vectornator:layerName="Curva 22">
<path d="M1114.62 208.062C1113.43 208.113 1112.25 208.646 1111.38 209.594C1110.58 210.437 1110.94 210.072 1110.59 210.438C1110.86 210.155 1110.08 210.999 1109.81 211.281C1109.58 211.524 1109.61 211.501 1109.41 211.719C1109.39 211.733 1109.29 211.829 1109.28 211.844C1109.19 211.94 1109.09 212.029 1109 212.125C1108.89 212.244 1108.55 212.618 1108.22 212.969C1107.69 213.535 1107.16 214.09 1106.62 214.656C1106.36 214.938 1105.55 215.782 1105.81 215.5C1107.67 213.524 1105.83 215.497 1105.03 216.344C1103.25 218.283 1103.37 221.313 1105.31 223.094C1107.25 224.875 1110.25 224.752 1112.03 222.812C1112.81 221.944 1112.48 222.311 1112.81 221.938C1113.07 221.647 1113.16 221.546 1113.59 221.062C1113.72 220.919 1113.87 220.8 1114 220.656C1114.07 220.582 1114.06 220.568 1114.12 220.5C1114.15 220.469 1114.34 220.258 1114.38 220.219C1115.15 219.354 1115.91 218.49 1116.69 217.625C1116.95 217.337 1117.73 216.462 1117.47 216.75C1115.66 218.767 1117.47 216.74 1118.25 215.875C1119.99 213.979 1119.86 211.054 1117.97 209.312C1117.02 208.442 1115.82 208.012 1114.62 208.062Z" fill="#929292" stroke="none"/>
</g>
<g opacity="1" vectornator:layerName="Línea 16">
<path d="M1007.72 324.469C1006.53 324.519 1005.37 325.021 1004.5 325.969C1003.73 326.79 1004.05 326.426 1003.72 326.781C1003.98 326.507 1003.2 327.351 1002.94 327.625C1002.74 327.831 1002.77 327.812 1002.59 328C1002.45 328.15 1002.3 328.287 1002.16 328.438C1002.05 328.553 1001.72 328.914 1001.41 329.25C1000.89 329.803 1000.36 330.353 999.844 330.906C999.586 331.18 998.805 331.993 999.062 331.719C1000.87 329.801 999.085 331.741 998.312 332.562C996.532 334.502 996.655 337.5 998.594 339.281C1000.53 341.062 1003.53 340.939 1005.31 339C1006.08 338.149 1005.77 338.519 1006.09 338.156C1006.34 337.876 1006.43 337.779 1006.84 337.312C1007.09 337.033 1007.34 336.749 1007.59 336.469C1008.35 335.629 1009.09 334.808 1009.84 333.969C1010.09 333.689 1010.84 332.845 1010.59 333.125C1008.84 335.084 1010.59 333.121 1011.34 332.281C1013.09 330.385 1012.96 327.429 1011.06 325.688C1010.11 324.817 1008.91 324.418 1007.72 324.469Z" fill="#929292" stroke="none"/>
</g>
<g opacity="1" vectornator:layerName="Curva 24">
<path d="M1111.38 327.531C1110.16 327.482 1108.94 327.889 1107.97 328.781C1106.03 330.566 1105.9 333.595 1107.69 335.531C1108.5 336.39 1108.15 336.004 1108.5 336.375C1108.23 336.089 1109.04 336.933 1109.31 337.219C1109.58 337.505 1109.86 337.808 1110.12 338.094C1110.38 338.368 1111.17 339.218 1110.91 338.938C1111.45 339.515 1111.99 340.079 1112.53 340.656C1112.8 340.942 1113.61 341.817 1113.34 341.531C1111.46 339.528 1113.35 341.516 1114.16 342.375C1115.9 344.268 1118.86 344.401 1120.75 342.656C1122.64 340.912 1122.74 337.955 1121 336.062C1120.21 335.19 1120.56 335.566 1120.22 335.188C1119.96 334.897 1119.87 334.797 1119.44 334.312C1119.17 334.02 1118.92 333.73 1118.66 333.438C1117.87 332.561 1117.07 331.689 1116.28 330.812C1116.02 330.52 1115.21 329.645 1115.47 329.938C1117.31 331.983 1115.48 329.939 1114.69 329.062C1113.8 328.095 1112.59 327.581 1111.38 327.531Z" fill="#929292" stroke="none"/>
</g>
<g opacity="1" vectornator:layerName="Línea 17">
<path d="M995.281 206.656C994.061 206.652 992.841 207.135 991.906 208.062C990.038 209.917 990.02 212.913 991.875 214.781C992.661 215.554 992.323 215.235 992.656 215.562C992.4 215.31 993.149 216.06 993.406 216.312C993.663 216.565 993.931 216.81 994.188 217.062C994.448 217.319 995.227 218.067 994.969 217.812C995.482 218.317 995.987 218.839 996.5 219.344C996.757 219.596 997.538 220.346 997.281 220.094C995.485 218.327 997.261 220.087 998.031 220.844C999.845 222.671 1002.8 222.688 1004.62 220.875C1006.45 219.062 1006.47 216.108 1004.66 214.281C1003.9 213.502 1004.23 213.835 1003.91 213.5C1003.65 213.24 1003.58 213.153 1003.16 212.719C1002.91 212.46 1002.66 212.196 1002.41 211.938C1001.66 211.162 1000.91 210.401 1000.16 209.625C999.906 209.366 999.156 208.585 999.406 208.844C1001.16 210.654 999.408 208.838 998.656 208.062C997.729 207.128 996.501 206.661 995.281 206.656Z" fill="#929292" stroke="none"/>
</g>
<path d="M174.891 251.957C174.981 240.795 183.389 231.814 193.67 231.896L410.617 233.643C420.899 233.725 429.16 242.841 429.071 254.003L428.183 360.709C428.093 371.871 419.685 380.852 409.404 380.77L192.457 379.023C182.175 378.941 173.913 369.825 174.003 358.663L174.891 251.957Z" fill="#f0f0f0" fill-rule="nonzero" opacity="1" stroke="#929292" stroke-linecap="butt" stroke-linejoin="round" stroke-width="10.4642" vectornator:layerName="Rectángulo 7"/>
<path d="M174.844 257.812L429.024 259.858L428.847 281.757L174.668 279.711L174.844 257.812Z" fill="#a1a1a1" fill-rule="nonzero" opacity="1" stroke="#929292" stroke-linecap="butt" stroke-linejoin="round" stroke-width="9.46415" vectornator:layerName="Rectángulo 8"/>
<g opacity="1" vectornator:layerName="Línea 6">
<path d="M194.156 298.969C191.37 298.946 189.116 301.183 189.094 303.969C189.071 306.755 191.308 309.04 194.094 309.062C207.135 309.13 220.178 309.182 233.219 309.25C235.943 309.272 238.166 307.068 238.188 304.344C238.209 301.62 236.005 299.397 233.281 299.375C220.241 299.233 207.197 299.111 194.156 298.969Z" fill="#929292" stroke="none"/>
</g>
<g opacity="1" vectornator:layerName="Línea 8">
<path d="M256.75 300.406C253.964 300.384 251.679 302.62 251.656 305.406C251.634 308.192 253.87 310.478 256.656 310.5C286.361 310.702 316.077 310.892 345.781 311.094C348.505 311.116 350.728 308.912 350.75 306.188C350.772 303.463 348.568 301.241 345.844 301.219C316.14 300.942 286.454 300.683 256.75 300.406Z" fill="#929292" stroke="none"/>
</g>
<g opacity="1" vectornator:layerName="Línea 7">
<path d="M193.844 324.156C191.058 324.134 188.772 326.37 188.75 329.156C188.728 331.942 190.995 334.228 193.781 334.25C232.967 334.528 272.126 334.784 311.312 335.062C314.037 335.084 316.259 332.912 316.281 330.188C316.303 327.463 314.13 325.241 311.406 325.219C272.221 324.866 233.029 324.509 193.844 324.156Z" fill="#929292" stroke="none"/>
</g>
<path d="M390.469 499.302L390.469 859.396L1017.49 859.396L1017.49 499.302" fill="#f0f0f0" fill-rule="nonzero" opacity="1" stroke="none" vectornator:layerName="Curva 1"/>
<g opacity="1" vectornator:layerName="Curva 2">
<path d="M390.469 860.174L1017.49 860.174L1017.49 643.12" fill="#f0f0f0" fill-rule="nonzero" stroke="none"/>
<path d="M1017.5 637.844C1014.58 637.844 1012.22 640.209 1012.22 643.125C1012.21 697.389 1012.2 751.643 1012.19 805.906C1012.19 817.776 1012.19 829.661 1012.19 841.531C1012.19 845.978 1012.17 850.426 1012.19 854.875C1011.1 854.875 1010 854.875 1008.91 854.875C1003.6 854.874 998.307 854.876 993 854.875C977.488 854.873 961.981 854.846 946.469 854.844C900.34 854.837 854.191 854.85 808.062 854.844C668.86 854.824 529.671 854.801 390.469 854.781C387.486 854.781 385.062 857.205 385.062 860.188C385.062 863.17 387.486 865.563 390.469 865.562C548.857 865.54 707.237 865.522 865.625 865.5C904.406 865.494 943.188 865.505 981.969 865.5C991.358 865.499 1000.77 865.501 1010.16 865.5C1011.38 865.5 1012.59 865.5 1013.81 865.5C1016.61 865.5 1019.39 865.827 1021.44 863.344C1023.26 861.133 1022.81 857.758 1022.81 855.094C1022.81 854.529 1022.81 853.972 1022.81 853.406C1022.81 852.276 1022.81 851.13 1022.81 850C1022.81 848.87 1022.81 847.724 1022.81 846.594C1022.81 833.028 1022.78 819.472 1022.78 805.906C1022.77 751.643 1022.79 697.389 1022.78 643.125C1022.78 640.209 1020.42 637.844 1017.5 637.844Z" fill="#929292" stroke="none"/>
</g>
<path d="M464.677 859.829L464.677 604.006C464.677 595.136 471.867 587.946 480.737 587.946L626.26 587.946C633.406 587.946 639.243 593.738 639.297 600.883L641.288 859.829L464.677 859.829Z" fill="#f8f7f5" fill-rule="nonzero" opacity="1" stroke="#929292" stroke-linecap="butt" stroke-linejoin="round" stroke-width="11" vectornator:layerName="Curva 3"/>
<g opacity="1" vectornator:layerName="Curva 4">
<path d="M390.625 523.938C387.643 523.937 385.22 526.361 385.219 529.344C385.235 625.678 385.265 722.01 385.281 818.344C385.281 821.26 387.646 823.624 390.562 823.625C393.479 823.626 395.843 821.26 395.844 818.344C395.908 722.01 395.967 625.677 396.031 529.344C396.032 526.361 393.607 523.938 390.625 523.938Z" fill="#929292" stroke="none"/>
</g>
<path d="M739.007 602.642C739.007 592.213 747.462 583.758 757.891 583.758L929.131 583.758C939.56 583.758 948.015 592.213 948.015 602.642L948.015 734.548C948.015 744.977 939.56 753.431 929.131 753.431L757.891 753.431C747.462 753.431 739.007 744.977 739.007 734.548L739.007 602.642Z" fill="#f8f7f5" fill-rule="nonzero" opacity="1" stroke="#929292" stroke-linecap="butt" stroke-linejoin="round" stroke-width="11" vectornator:layerName="Rectángulo 1"/>
<path d="M354.093 858.528L1060.98 858.528L1060.98 898.649L354.093 898.649L354.093 858.528Z" fill="#d5d5d5" fill-rule="nonzero" opacity="1" stroke="#929292" stroke-linecap="butt" stroke-linejoin="round" stroke-width="9.5" vectornator:layerName="Rectángulo 2"/>
<path d="M1017.9 374.423L1053.51 474.595L908.924 473.69L908.135 374.934L1017.9 374.423Z" fill="#d5d5d5" fill-rule="nonzero" opacity="1" stroke="#929292" stroke-linecap="butt" stroke-linejoin="round" stroke-width="11" vectornator:layerName="Curva 5"/>
<path d="M773.086 373.45L908.806 373.45L908.806 472.239L773.086 472.239L773.086 373.45Z" fill="#efeeed" fill-rule="nonzero" opacity="1" stroke="#929292" stroke-linecap="butt" stroke-linejoin="round" stroke-width="11" vectornator:layerName="Rectángulo 3"/>
<path d="M908.82 473.538L1053.11 473.538C1053.11 505.652 1020.81 531.686 980.964 531.686C941.12 531.686 908.82 505.652 908.82 473.538Z" fill="#d5d5d5" fill-rule="nonzero" opacity="1" stroke="#929292" stroke-linecap="butt" stroke-linejoin="round" stroke-width="11" vectornator:layerName="Óvalo 6"/>
<path d="M392.262 372.564L356.774 472.736L500.862 471.831L501.648 373.075L392.262 372.564Z" fill="#d9d9d9" fill-rule="nonzero" opacity="1" stroke="#929292" stroke-linecap="butt" stroke-linejoin="round" stroke-width="11" vectornator:layerName="Curva 6"/>
<path d="M500.965 471.679L357.178 471.679C357.178 503.793 389.366 529.827 429.071 529.827C468.777 529.827 500.965 503.793 500.965 471.679Z" fill="#d9d9d9" fill-rule="nonzero" opacity="1" stroke="#929292" stroke-linecap="butt" stroke-linejoin="round" stroke-width="11" vectornator:layerName="Óvalo 7"/>
<path d="M772.839 472.221L909.886 472.221C909.886 504.335 879.207 530.369 841.362 530.369C803.518 530.369 772.839 504.335 772.839 472.221Z" fill="#efeeed" fill-rule="nonzero" opacity="1" stroke="#929292" stroke-linecap="butt" stroke-linejoin="round" stroke-width="11" vectornator:layerName="Óvalo 8"/>
<path d="M637.002 373.099L772.722 373.099L772.722 471.888L637.002 471.888L637.002 373.099Z" fill="#d9d9d9" fill-rule="nonzero" opacity="1" stroke="#929292" stroke-linecap="butt" stroke-linejoin="round" stroke-width="11" vectornator:layerName="Rectángulo 4"/>
<path d="M636.755 471.87L773.802 471.87C773.802 503.984 743.123 530.018 705.279 530.018C667.434 530.018 636.755 503.984 636.755 471.87Z" fill="#d9d9d9" fill-rule="nonzero" opacity="1" stroke="#929292" stroke-linecap="butt" stroke-linejoin="round" stroke-width="11" vectornator:layerName="Óvalo 9"/>
<path d="M500.597 373.966L636.317 373.966L636.317 472.755L500.597 472.755L500.597 373.966Z" fill="#efeeed" fill-rule="nonzero" opacity="1" stroke="#929292" stroke-linecap="butt" stroke-linejoin="round" stroke-width="11" vectornator:layerName="Rectángulo 5"/>
<path d="M500.35 472.738L637.397 472.738C637.397 504.852 606.718 530.886 568.874 530.886C531.029 530.886 500.35 504.852 500.35 472.738Z" fill="#efeeed" fill-rule="nonzero" opacity="1" stroke="#929292" stroke-linecap="butt" stroke-linejoin="round" stroke-width="11" vectornator:layerName="Óvalo 10"/>
<g opacity="1" vectornator:layerName="Curva 7">
<path d="M1017.59 521.031C1014.68 521.02 1012.32 523.365 1012.31 526.281C1012.19 547.491 1012.06 568.696 1011.94 589.906C1011.93 592.889 1014.33 595.333 1017.31 595.344C1020.29 595.355 1022.74 592.951 1022.75 589.969C1022.79 568.758 1022.84 547.523 1022.88 526.312C1022.89 523.396 1020.51 521.042 1017.59 521.031Z" fill="#929292" stroke="none"/>
</g>
<path d="M390.834 345.133L1018.24 345.133L1018.24 372.85L390.834 372.85L390.834 345.133Z" fill="#d5d5d5" fill-rule="nonzero" opacity="1" stroke="#919191" stroke-linecap="butt" stroke-linejoin="round" stroke-width="11" vectornator:layerName="Rectángulo 6"/>
<g opacity="1" vectornator:layerName="Línea 1">
<path d="M221.469 892.562C218.114 892.562 215.406 895.301 215.406 898.656C215.406 902.011 218.114 904.719 221.469 904.719C524.072 904.674 826.678 904.639 1129.28 904.594C1132.56 904.594 1135.22 901.937 1135.22 898.656C1135.22 895.376 1132.56 892.719 1129.28 892.719C826.678 892.674 524.072 892.607 221.469 892.562Z" fill="#929292" stroke="none"/>
</g>
<g opacity="1" vectornator:layerName="Línea 2">
<path d="M1158.31 892.562C1154.96 892.562 1152.25 895.301 1152.25 898.656C1152.25 902.011 1154.96 904.719 1158.31 904.719C1186.45 904.674 1214.61 904.639 1242.75 904.594C1246.03 904.594 1248.69 901.937 1248.69 898.656C1248.69 895.376 1246.03 892.719 1242.75 892.719C1214.61 892.674 1186.45 892.607 1158.31 892.562Z" fill="#929292" stroke="none"/>
</g>
<g opacity="1" vectornator:layerName="Curva 17">
<path d="M1272.12 892.562C1268.77 892.562 1266.06 895.301 1266.06 898.656C1266.06 902.011 1268.77 904.719 1272.12 904.719C1418.78 904.674 1565.43 904.639 1712.09 904.594C1715.37 904.594 1718.06 901.937 1718.06 898.656C1718.06 895.376 1715.37 892.719 1712.09 892.719C1565.43 892.674 1418.78 892.607 1272.12 892.562Z" fill="#929292" stroke="none"/>
</g>
<g opacity="1" vectornator:layerName="Línea 5">
<path d="M96.9062 892.562C93.5511 892.562 90.8125 895.301 90.8125 898.656C90.8125 902.011 93.5511 904.719 96.9062 904.719C128.798 904.674 160.67 904.639 192.562 904.594C195.843 904.594 198.531 901.937 198.531 898.656C198.531 895.376 195.843 892.719 192.562 892.719C160.67 892.674 128.798 892.607 96.9062 892.562Z" fill="#929292" stroke="none"/>
</g>
<g opacity="1" vectornator:layerName="Línea 10">
<path d="M825.094 194.781C822.484 194.781 820.344 196.89 820.344 199.5C820.344 202.11 822.484 204.219 825.094 204.219C834.459 204.184 843.822 204.16 853.188 204.125C855.739 204.125 857.781 202.052 857.781 199.5C857.781 196.948 855.739 194.875 853.188 194.875C843.823 194.84 834.459 194.816 825.094 194.781Z" fill="#b7b7b7" stroke="none"/>
</g>
<g opacity="1" vectornator:layerName="Línea 22">
<path d="M1074.44 763.688C1071.83 763.688 1069.72 765.797 1069.72 768.406C1069.72 771.016 1071.83 773.125 1074.44 773.125C1096.38 773.09 1118.33 773.066 1140.28 773.031C1142.83 773.031 1144.91 770.958 1144.91 768.406C1144.91 765.855 1142.83 763.781 1140.28 763.781C1118.33 763.746 1096.38 763.723 1074.44 763.688Z" fill="#a9a9a9" stroke="none"/>
</g>
<g opacity="1" vectornator:layerName="Línea 24">
<path d="M1572.34 417.781C1569.73 417.781 1567.62 419.89 1567.62 422.5C1567.62 425.11 1569.73 427.219 1572.34 427.219C1594.29 427.184 1616.24 427.16 1638.19 427.125C1640.74 427.125 1642.81 425.052 1642.81 422.5C1642.81 419.948 1640.74 417.875 1638.19 417.875C1616.24 417.84 1594.29 417.816 1572.34 417.781Z" fill="#b5b5b5" stroke="none"/>
</g>
<g opacity="1" vectornator:layerName="Línea 25">
<path d="M1516 419.781C1513.39 419.781 1511.28 421.891 1511.28 424.5C1511.28 427.11 1513.39 429.219 1516 429.219C1525.36 429.184 1534.73 429.16 1544.09 429.125C1546.65 429.125 1548.72 427.052 1548.72 424.5C1548.72 421.948 1546.65 419.875 1544.09 419.875C1534.73 419.84 1525.36 419.816 1516 419.781Z" fill="#b5b5b5" stroke="none"/>
</g>
<g opacity="1" vectornator:layerName="Línea 26">
<path d="M1572.34 417.781C1569.73 417.781 1567.62 419.89 1567.62 422.5C1567.62 425.11 1569.73 427.219 1572.34 427.219C1594.29 427.184 1616.24 427.16 1638.19 427.125C1640.74 427.125 1642.81 425.052 1642.81 422.5C1642.81 419.948 1640.74 417.875 1638.19 417.875C1616.24 417.84 1594.29 417.816 1572.34 417.781Z" fill="#b5b5b5" stroke="none"/>
</g>
<g opacity="1" vectornator:layerName="Línea 28">
<path d="M1627.53 672.094C1624.92 672.094 1622.78 674.234 1622.78 676.844C1622.78 679.453 1624.92 681.563 1627.53 681.562C1649.66 681.528 1671.78 681.473 1693.91 681.438C1696.46 681.438 1698.5 679.395 1698.5 676.844C1698.5 674.292 1696.46 672.219 1693.91 672.219C1671.78 672.184 1649.66 672.129 1627.53 672.094Z" fill="#a9a9a9" stroke="none"/>
</g>
<g opacity="1" vectornator:layerName="Línea 27">
<path d="M1516 419.781C1513.39 419.781 1511.28 421.891 1511.28 424.5C1511.28 427.11 1513.39 429.219 1516 429.219C1525.36 429.184 1534.73 429.16 1544.09 429.125C1546.65 429.125 1548.72 427.052 1548.72 424.5C1548.72 421.948 1546.65 419.875 1544.09 419.875C1534.73 419.84 1525.36 419.816 1516 419.781Z" fill="#b5b5b5" stroke="none"/>
</g>
<g opacity="1" vectornator:layerName="Línea 29">
<path d="M1701.97 694.062C1699.36 694.062 1697.22 696.172 1697.22 698.781C1697.22 701.391 1699.36 703.5 1701.97 703.5C1711.41 703.465 1720.84 703.441 1730.28 703.406C1732.83 703.406 1734.91 701.333 1734.91 698.781C1734.91 696.23 1732.83 694.156 1730.28 694.156C1720.84 694.121 1711.41 694.098 1701.97 694.062Z" fill="#b3b3b3" stroke="none"/>
</g>
<g opacity="1" vectornator:layerName="Línea 12">
<path d="M195.219 640.312C185.854 640.33 176.49 640.357 167.125 640.375C164.573 640.37 162.474 642.417 162.469 644.969C162.464 647.52 164.542 649.589 167.094 649.594C176.459 649.646 185.823 649.697 195.188 649.75C197.797 649.755 199.933 647.641 199.938 645.031C199.942 642.422 197.828 640.317 195.219 640.312Z" fill="#a9a9a9" stroke="none"/>
</g>
<g opacity="1" vectornator:layerName="Línea 13">
<path d="M193.406 665.625C190.855 665.62 188.786 667.698 188.781 670.25C188.776 672.802 190.855 674.87 193.406 674.875C225.298 674.97 257.17 675.062 289.062 675.156C291.672 675.161 293.808 673.047 293.812 670.438C293.817 667.828 291.703 665.724 289.094 665.719C257.202 665.694 225.298 665.65 193.406 665.625Z" fill="#a9a9a9" stroke="none"/>
</g>
<path d="M1288.63 595.877L1599.54 595.877C1617.26 595.877 1625.79 609.643 1618.59 626.626L1563.02 757.781L1340.08 757.781" fill="#f8f7f5" fill-rule="nonzero" opacity="1" stroke="none" vectornator:layerName="Curva 8"/>
<g opacity="1" vectornator:layerName="Curva 9">
<path d="M1324.67 596.288L1599.54 595.877C1617.26 595.877 1625.79 609.643 1618.59 626.626L1578.03 722.434" fill="#f8f7f5" fill-rule="nonzero" stroke="none"/>
<path d="M1594.16 590.906C1579.12 590.925 1564.09 590.919 1549.06 590.938C1474.26 591.03 1399.46 591.127 1324.66 591.219C1321.86 591.223 1319.59 593.485 1319.59 596.281C1319.6 599.077 1321.89 601.348 1324.69 601.344C1397.7 601.215 1470.71 601.097 1543.72 600.969C1560.54 600.939 1577.37 600.905 1594.19 600.875C1600.87 600.863 1608.4 600.436 1613.16 606.094C1613.78 606.832 1614.32 607.666 1614.75 608.531C1616.81 612.714 1616.37 617.644 1615 621.969C1614.22 624.434 1613.1 626.809 1612.09 629.188C1610.4 633.18 1608.72 637.164 1607.03 641.156C1595.84 667.606 1584.66 694.05 1573.47 720.5C1572.4 723.017 1573.58 725.934 1576.09 727C1578.61 728.066 1581.53 726.892 1582.59 724.375C1594.22 696.933 1605.84 669.473 1617.47 642.031C1618.95 638.539 1620.43 635.055 1621.91 631.562C1622.83 629.393 1623.78 627.249 1624.5 625C1626.23 619.561 1626.75 613.638 1625.19 608.094C1624.8 606.726 1624.32 605.399 1623.69 604.125C1620.21 597.077 1613.23 592.742 1605.62 591.406C1601.84 590.74 1597.99 590.902 1594.16 590.906Z" fill="#929292" stroke="none"/>
</g>
<g opacity="1" vectornator:layerName="Curva 10">
<path d="M1291.21 595.877L1299.98 595.877" fill="#f8f7f5" fill-rule="nonzero" stroke="none"/>
<path d="M1291.22 590.469C1288.24 590.469 1285.81 592.893 1285.81 595.875C1285.81 598.857 1288.24 601.281 1291.22 601.281C1292.32 601.266 1291.84 601.256 1292.31 601.25C1292.68 601.245 1292.8 601.258 1293.41 601.25C1293.77 601.245 1294.13 601.224 1294.5 601.219C1295.6 601.204 1296.68 601.202 1297.78 601.188C1298.15 601.182 1299.24 601.151 1298.88 601.156C1296.32 601.191 1298.87 601.171 1299.97 601.156C1302.88 601.156 1305.25 598.791 1305.25 595.875C1305.25 592.959 1302.88 590.594 1299.97 590.594C1298.87 590.579 1299.35 590.6 1298.88 590.594C1298.14 590.584 1297.42 590.572 1296.69 590.562C1295.59 590.548 1294.5 590.515 1293.41 590.5C1293.04 590.495 1291.95 590.495 1292.31 590.5C1294.87 590.535 1292.32 590.484 1291.22 590.469Z" fill="#929292" stroke="none"/>
</g>
<g opacity="1" vectornator:layerName="Curva 11">
<path d="M1548.53 793.771L1317.25 793.76C1310.92 793.76 1309.41 789.951 1313.89 785.253L1340.49 757.781L1288.63 595.877L1271.49 559.898L1231.24 559.898C1225.05 559.898 1220.04 565.158 1220.04 571.647L1220.04 584.127C1220.04 590.616 1225.05 595.877 1231.24 595.877L1243.14 595.877C1249.32 595.877 1255.92 600.867 1257.88 607.023L1305.78 757.781L1279.41 785.451C1275.03 790.04 1271.49 799.02 1271.49 805.509L1271.49 815.795C1271.49 822.284 1276.5 827.544 1282.69 827.544L1568.97 827.544C1575.16 827.544 1580.17 822.284 1580.17 815.795L1580.17 805.509C1580.17 799.02 1575.16 793.76 1568.97 793.76L1544.09 793.76" fill="#d5d5d5" fill-rule="nonzero" stroke="none"/>
<path d="M1233.75 555.219C1231.82 555.219 1229.9 555.155 1228 555.562C1224.24 556.369 1220.87 558.596 1218.59 561.688C1216.92 563.957 1215.86 566.644 1215.5 569.438C1215.14 572.207 1215.37 575.088 1215.38 577.875C1215.38 580.662 1215.14 583.543 1215.5 586.312C1215.95 589.796 1217.51 593.112 1219.94 595.656C1222.61 598.464 1226.28 600.223 1230.16 600.5C1231.5 600.596 1232.87 600.563 1234.22 600.562C1236.2 600.562 1238.17 600.563 1240.16 600.562C1241.8 600.562 1243.48 600.409 1245.09 600.812C1247.59 601.437 1249.88 603.026 1251.5 605C1252.93 606.738 1253.52 608.667 1254.19 610.781C1254.81 612.744 1255.41 614.725 1256.03 616.688C1258.53 624.539 1261.04 632.398 1263.53 640.25C1272.02 666.946 1280.51 693.617 1289 720.312C1290.62 725.416 1292.22 730.521 1293.84 735.625C1294.84 738.766 1295.85 741.922 1296.84 745.062C1297.84 748.203 1298.85 751.328 1299.84 754.469C1300.06 755.149 1300.29 755.839 1300.5 756.531C1300.03 757.022 1299.59 757.54 1299.12 758.031C1297.2 760.049 1295.27 762.076 1293.34 764.094C1291.7 765.823 1290.05 767.552 1288.41 769.281C1285.66 772.164 1282.9 775.024 1280.16 777.906C1278.32 779.831 1276.35 781.702 1274.69 783.781C1272.47 786.559 1270.77 789.763 1269.47 793.062C1268.16 796.381 1267.2 799.875 1266.91 803.438C1266.71 805.824 1266.84 808.264 1266.84 810.656C1266.84 813.437 1266.62 816.317 1267.16 819.062C1268.16 824.214 1271.62 828.739 1276.44 830.875C1279.88 832.4 1283.48 832.188 1287.16 832.188C1290.88 832.187 1294.62 832.188 1298.34 832.188C1313.63 832.186 1328.9 832.189 1344.19 832.188C1397.87 832.183 1451.54 832.192 1505.22 832.188C1521.99 832.186 1538.79 832.158 1555.56 832.156C1558.92 832.156 1562.27 832.157 1565.62 832.156C1567.1 832.156 1568.59 832.231 1570.06 832.125C1572.53 831.947 1574.95 831.173 1577.06 829.875C1581.24 827.303 1584.03 822.854 1584.66 818C1585.02 815.174 1584.81 812.219 1584.81 809.375C1584.81 807.368 1584.92 805.308 1584.66 803.312C1584.12 799.153 1581.99 795.269 1578.72 792.625C1576.55 790.865 1573.93 789.676 1571.16 789.281C1568.91 788.961 1566.58 789.125 1564.31 789.125C1561.72 789.125 1559.12 789.125 1556.53 789.125C1554.02 789.125 1551.51 789.125 1549 789.125C1548.84 789.108 1548.7 789.031 1548.53 789.031C1546.31 789.078 1547.57 789.094 1546.31 789.094C1546.17 789.094 1546.86 789.036 1546.72 789.031C1546.12 789.011 1545.51 789.031 1544.91 789.031C1544.3 789.031 1543.7 789.031 1543.09 789.031C1541.89 789.031 1540.7 789.031 1539.5 789.031C1535.89 789.031 1532.27 789.063 1528.66 789.062C1516.61 789.063 1504.58 789.062 1492.53 789.062C1452.78 789.064 1413 789.061 1373.25 789.062C1360 789.063 1346.75 789.062 1333.5 789.062C1329.28 789.063 1325.09 789.062 1320.88 789.062C1319.59 789.063 1318.28 789.078 1317 789.031C1317.38 788.581 1317.68 788.081 1318.09 787.656C1318.93 786.798 1319.76 785.952 1320.59 785.094C1323.09 782.518 1325.57 779.951 1328.06 777.375C1329.72 775.658 1331.4 773.936 1333.06 772.219C1334.45 770.788 1335.83 769.337 1337.22 767.906C1338.33 766.761 1339.42 765.645 1340.53 764.5C1342.98 761.972 1346.02 759.729 1344.75 755.688C1341.1 744.087 1337.34 732.518 1333.62 720.938C1326.47 698.592 1319.32 676.252 1312.16 653.906C1307.83 640.415 1303.51 626.898 1299.19 613.406C1297.84 609.19 1296.48 604.997 1295.12 600.781C1294.42 598.592 1293.84 596.295 1293 594.156C1292.06 591.779 1290.76 589.439 1289.66 587.125C1287.33 582.253 1285.01 577.372 1282.69 572.5C1281.62 570.251 1280.54 567.999 1279.47 565.75C1278.93 564.626 1278.38 563.499 1277.84 562.375C1276.96 560.532 1275.88 557.427 1274.06 556.188C1272.22 554.93 1269.83 555.218 1267.72 555.219C1266.88 555.219 1266.03 555.219 1265.19 555.219C1264.35 555.219 1263.53 555.219 1262.69 555.219C1260.17 555.219 1257.64 555.219 1255.12 555.219C1251.35 555.219 1247.59 555.218 1243.81 555.219C1240.46 555.219 1237.1 555.218 1233.75 555.219ZM1233.75 564.562C1235.43 564.563 1237.1 564.562 1238.78 564.562C1245.91 564.563 1253.03 564.593 1260.16 564.594C1262.67 564.594 1265.2 564.594 1267.72 564.594C1267.99 564.594 1268.28 564.585 1268.56 564.594C1268.85 565.196 1269.12 565.804 1269.41 566.406C1270.48 568.655 1271.55 570.907 1272.62 573.156C1275.3 578.778 1277.98 584.409 1280.66 590.031C1281.55 591.905 1282.45 593.782 1283.34 595.656C1283.65 596.308 1284.02 596.922 1284.28 597.594C1284.73 598.723 1285.01 599.938 1285.38 601.094C1286.05 603.202 1286.73 605.329 1287.41 607.438C1302.26 653.818 1317.12 700.182 1331.97 746.562C1333.03 749.88 1334.04 753.225 1335.16 756.531C1334.43 757.284 1333.7 758.059 1332.97 758.812C1330.47 761.388 1327.96 763.956 1325.47 766.531C1321.59 770.537 1317.72 774.556 1313.84 778.562C1311.83 780.64 1309.56 782.632 1308.09 785.156C1306.09 788.595 1305.94 792.767 1308.97 795.688C1312.57 799.158 1318.15 798.468 1322.69 798.469C1332.32 798.47 1341.96 798.467 1351.59 798.469C1391.34 798.474 1431.09 798.495 1470.84 798.5C1487.71 798.502 1504.57 798.498 1521.44 798.5C1527.46 798.501 1533.48 798.499 1539.5 798.5C1541.31 798.5 1543.1 798.5 1544.91 798.5C1545.51 798.5 1547.32 798.584 1546.72 798.5C1545.85 798.377 1546.72 798.5 1548.53 798.5C1548.75 798.5 1548.94 798.404 1549.16 798.375C1551.09 798.375 1553.03 798.375 1554.97 798.375C1558.6 798.375 1562.25 798.375 1565.88 798.375C1567.9 798.375 1569.99 798.121 1571.84 799.094C1576.3 801.431 1575.56 806.428 1575.56 810.656C1575.56 811.942 1575.56 813.214 1575.56 814.5C1575.56 815.431 1575.58 816.364 1575.41 817.281C1574.98 819.484 1573.54 821.487 1571.47 822.406C1570.3 822.927 1569.11 822.907 1567.84 822.906C1566.73 822.906 1565.62 822.906 1564.5 822.906C1560.4 822.906 1556.29 822.907 1552.19 822.906C1537.28 822.905 1522.38 822.908 1507.47 822.906C1454.91 822.902 1402.34 822.911 1349.78 822.906C1333.01 822.905 1316.24 822.908 1299.47 822.906C1295 822.906 1290.5 822.907 1286.03 822.906C1283.95 822.906 1281.76 823.19 1279.84 822.188C1277.83 821.129 1276.48 819.015 1276.19 816.781C1275.98 815.193 1276.12 813.535 1276.12 811.938C1276.13 809.807 1276.11 807.661 1276.12 805.531C1276.16 800.307 1278.48 794.301 1281.56 790.125C1282.65 788.653 1283.99 787.384 1285.25 786.062C1286.62 784.621 1288 783.191 1289.38 781.75C1293.77 777.139 1298.17 772.518 1302.56 767.906C1304.21 766.177 1305.85 764.448 1307.5 762.719C1308.27 761.906 1309.2 761.101 1309.72 760.094C1310.78 758.018 1310.11 756.028 1309.47 754C1309.09 752.822 1308.72 751.647 1308.34 750.469C1308.09 749.684 1307.84 748.91 1307.59 748.125C1307.22 746.947 1306.84 745.772 1306.47 744.594C1302.85 733.208 1299.24 721.823 1295.62 710.438C1287.89 686.096 1280.17 661.748 1272.44 637.406C1269.94 629.554 1267.43 621.696 1264.94 613.844C1264.31 611.881 1263.72 609.932 1263.09 607.969C1262.4 605.792 1261.73 603.665 1260.56 601.688C1256.99 595.665 1250.27 591.282 1243.19 591.188C1240.2 591.148 1237.21 591.188 1234.22 591.188C1232.96 591.187 1231.63 591.338 1230.38 591.156C1228.51 590.887 1226.89 589.725 1225.88 588.156C1224.47 585.968 1224.72 583.501 1224.72 581C1224.72 579.44 1224.72 577.872 1224.72 576.312C1224.72 573.234 1224.19 569.889 1226.12 567.25C1227.14 565.871 1228.67 564.871 1230.38 564.625C1231.48 564.465 1232.64 564.562 1233.75 564.562Z" fill="#929292" stroke="none"/>
</g>
<path d="M1303.77 864.076L1303.77 864.135C1303.77 880.435 1316.37 893.649 1331.91 893.649L1331.97 893.649C1347.51 893.649 1360.1 880.435 1360.1 864.135L1360.1 864.076C1360.1 847.775 1347.51 834.561 1331.97 834.561L1331.91 834.561C1316.37 834.561 1303.77 847.775 1303.77 864.076Z" fill="#f8f7f5" fill-rule="nonzero" opacity="1" stroke="#929292" stroke-linecap="butt" stroke-linejoin="round" stroke-width="9.76628" vectornator:layerName="Curva 13"/>
<path d="M1495.25 864.076L1495.25 864.135C1495.25 880.435 1507.84 893.649 1523.38 893.649L1523.44 893.649C1538.98 893.649 1551.58 880.435 1551.58 864.135L1551.58 864.076C1551.58 847.775 1538.98 834.561 1523.44 834.561L1523.38 834.561C1507.84 834.561 1495.25 847.775 1495.25 864.076Z" fill="#f8f7f5" fill-rule="nonzero" opacity="1" stroke="#929292" stroke-linecap="butt" stroke-linejoin="round" stroke-width="9.76628" vectornator:layerName="Curva 14"/>
<g opacity="1" vectornator:layerName="Curva 15">
<path d="M1578.84 715.562C1576.91 715.56 1575.08 716.675 1574.28 718.562C1570.82 726.708 1567.34 734.855 1563.88 743C1562.72 745.715 1561.56 748.441 1560.41 751.156C1560.18 751.697 1559.95 752.24 1559.72 752.781C1559.66 752.781 1559.59 752.781 1559.53 752.781C1557.79 752.778 1556.05 752.784 1554.31 752.781C1549.68 752.773 1545.04 752.759 1540.41 752.75C1523.02 752.718 1505.64 752.688 1488.25 752.656C1438.99 752.565 1389.73 752.466 1340.47 752.375C1337.67 752.371 1335.41 754.641 1335.41 757.438C1335.4 760.233 1337.67 762.496 1340.47 762.5C1395.52 762.555 1450.57 762.601 1505.62 762.656C1520.11 762.671 1534.61 762.704 1549.09 762.719C1550.83 762.72 1552.57 762.717 1554.31 762.719C1555.47 762.72 1556.62 762.718 1557.78 762.719C1560.28 762.721 1563.6 763.138 1565.78 761.625C1567.74 760.268 1568.69 757.09 1569.56 755.031C1569.89 754.255 1570.2 753.495 1570.53 752.719C1571.03 751.555 1571.54 750.383 1572.03 749.219C1575.82 740.295 1579.59 731.362 1583.38 722.438C1584.44 719.921 1583.27 717.037 1580.75 715.969C1580.12 715.702 1579.49 715.563 1578.84 715.562Z" fill="#929292" stroke="none"/>
</g>
<path d="M1494.19 639.978L1521.83 605.642C1525.6 600.97 1532.53 600.097 1537.33 603.692L1571.84 629.558C1576.01 632.685 1579.95 639.419 1580.63 644.598L1589.97 715.263C1591.06 723.461 1585.31 730.987 1577.13 732.074L1515.6 740.255C1507.43 741.342 1499.92 735.577 1498.84 727.38L1489.5 656.715C1488.82 651.536 1490.91 644.043 1494.19 639.978Z" fill="#ececec" fill-rule="nonzero" opacity="1" stroke="#929292" stroke-linecap="butt" stroke-linejoin="round" stroke-width="7.61984" vectornator:layerName="Rectángulo 11"/>
<path d="M1525.34 624.56C1524.87 621.018 1527.35 617.765 1530.88 617.296C1534.42 616.826 1537.66 619.317 1538.13 622.859C1538.59 626.402 1536.11 629.654 1532.58 630.124C1529.05 630.593 1525.8 628.102 1525.34 624.56Z" fill="none" opacity="1" stroke="#929292" stroke-linecap="butt" stroke-linejoin="round" stroke-width="5.85549" vectornator:layerName="Óvalo 13"/>
<path d="M1514.97 675.842C1514.1 670.858 1516.79 666.225 1520.98 665.492C1525.17 664.76 1529.27 668.206 1530.14 673.19C1531 678.173 1528.31 682.807 1524.12 683.539C1519.93 684.271 1515.83 680.825 1514.97 675.842Z" fill="none" opacity="1" stroke="#929292" stroke-linecap="butt" stroke-linejoin="round" stroke-width="6.2" vectornator:layerName="Óvalo 14"/>
<path d="M1550.41 692.222C1549.62 687.078 1552.4 682.385 1556.6 681.741C1560.8 681.097 1564.85 684.745 1565.63 689.889C1566.41 695.034 1563.64 699.727 1559.44 700.371C1555.23 701.015 1551.19 697.367 1550.41 692.222Z" fill="none" opacity="1" stroke="#929292" stroke-linecap="butt" stroke-linejoin="round" stroke-width="6.2" vectornator:layerName="Óvalo 15"/>
<g opacity="1" vectornator:layerName="Línea 32">
<path d="M1548.47 654.125C1546.98 654.22 1545.62 655.191 1545.09 656.688C1538.73 674.811 1532.37 692.939 1526 711.062C1525.29 713.104 1526.37 715.318 1528.41 716.031C1530.45 716.745 1532.69 715.666 1533.41 713.625C1539.72 695.483 1546.03 677.361 1552.34 659.219C1553.04 657.223 1552 655.042 1550 654.344C1549.5 654.169 1548.96 654.093 1548.47 654.125Z" fill="#929292" stroke="none"/>
</g>
<g opacity="1" vectornator:layerName="Línea 33">
<path d="M1509.38 522.5C1508.4 522.327 1507.38 522.514 1506.5 523.125C1504.75 524.347 1504.31 526.781 1505.53 528.531C1509.37 534.038 1512.65 539.996 1515.62 546C1519.76 554.346 1523.3 563.126 1525.41 572.219C1527.73 582.252 1528.51 592.593 1528.44 602.875C1528.39 608.908 1528.16 615.014 1527.34 621C1527.05 623.164 1528.59 625.148 1530.75 625.438C1532.91 625.728 1534.9 624.195 1535.19 622.031C1536.09 615.284 1536.32 608.424 1536.31 601.625C1536.29 591.159 1535.42 580.643 1533.03 570.438C1530.67 560.338 1526.69 550.606 1522 541.375C1518.99 535.441 1515.69 529.557 1511.88 524.094C1511.26 523.219 1510.35 522.673 1509.38 522.5Z" fill="#929292" stroke="none"/>
</g>
<g opacity="1" vectornator:layerName="Línea 34">
<path d="M1509.09 522.469C1506.97 522.252 1505.06 523.783 1504.84 525.906C1504.17 532.517 1504.11 539.239 1504.28 545.875C1504.53 555.6 1505.48 565.363 1507.72 574.844C1510.01 584.548 1513.54 593.965 1517.59 603.062C1520.7 610.046 1524.1 616.984 1528 623.562C1529.12 625.439 1531.56 626.053 1533.44 624.938C1535.31 623.822 1535.93 621.376 1534.81 619.5C1531.05 613.195 1527.78 606.54 1524.78 599.844C1520.92 591.2 1517.54 582.255 1515.34 573.031C1513.12 563.681 1512.2 554.032 1512 544.438C1511.88 538.536 1511.93 532.566 1512.53 526.688C1512.75 524.564 1511.22 522.686 1509.09 522.469Z" fill="#929292" stroke="none"/>
</g>
<path d="M1355.63 640.46L1384.9 623.416C1388.88 621.097 1394.1 622.382 1396.56 626.286L1414.26 654.373C1416.4 657.769 1417.38 663.691 1416.46 667.599L1403.81 720.928C1402.34 727.114 1396.15 730.936 1389.98 729.465L1343.55 718.385C1337.38 716.914 1333.57 710.705 1335.03 704.519L1347.68 651.19C1348.61 647.282 1352.17 642.478 1355.63 640.46Z" fill="#ececec" fill-rule="nonzero" opacity="1" stroke="#929292" stroke-linecap="butt" stroke-linejoin="round" stroke-width="8.16671" vectornator:layerName="Rectángulo 12"/>
<path d="M1382.23 637.97C1382.86 635.296 1385.54 633.645 1388.2 634.281C1390.87 634.917 1392.52 637.599 1391.88 640.272C1391.25 642.946 1388.57 644.597 1385.91 643.961C1383.24 643.326 1381.6 640.643 1382.23 637.97Z" fill="none" opacity="1" stroke="#929292" stroke-linecap="butt" stroke-linejoin="round" stroke-width="4.5029" vectornator:layerName="Óvalo 16"/>
<path d="M1359.69 671.162C1360.49 667.1 1363.89 664.349 1367.31 665.017C1370.72 665.686 1372.85 669.521 1372.06 673.584C1371.27 677.646 1367.86 680.397 1364.45 679.729C1361.03 679.06 1358.9 675.225 1359.69 671.162Z" fill="none" opacity="1" stroke="#929292" stroke-linecap="butt" stroke-linejoin="round" stroke-width="5.2" vectornator:layerName="Óvalo 17"/>
<path d="M1381.78 694.657C1382.68 690.496 1386.17 687.722 1389.57 688.463C1392.97 689.203 1395 693.176 1394.1 697.338C1393.2 701.499 1389.71 704.272 1386.31 703.532C1382.91 702.792 1380.88 698.819 1381.78 694.657Z" fill="none" opacity="1" stroke="#929292" stroke-linecap="butt" stroke-linejoin="round" stroke-width="5.2" vectornator:layerName="Óvalo 18"/>
<g opacity="1" vectornator:layerName="Línea 35">
<path d="M1389.59 664.969C1388.72 665.043 1387.86 665.463 1387.25 666.188C1377.71 677.447 1368.17 688.709 1358.62 699.969C1357.37 701.45 1357.58 703.656 1359.06 704.906C1360.54 706.157 1362.75 705.981 1364 704.5C1373.5 693.207 1383 681.887 1392.5 670.594C1393.72 669.145 1393.54 667.004 1392.09 665.781C1391.37 665.17 1390.47 664.895 1389.59 664.969Z" fill="#929292" stroke="none"/>
</g>
<g opacity="1" vectornator:layerName="Línea 36">
<path d="M1396.47 559.938C1394.88 560.335 1393.91 561.939 1394.31 563.531C1395.56 568.545 1396.28 573.743 1396.78 578.875C1397.48 586.015 1397.57 593.285 1396.62 600.406C1395.62 607.928 1393.45 615.298 1390.75 622.375C1388.98 627.003 1387.03 631.615 1384.66 635.969C1383.85 637.444 1384.4 639.292 1385.88 640.094C1387.35 640.895 1389.2 640.35 1390 638.875C1392.65 633.979 1394.85 628.777 1396.78 623.562C1399.46 616.34 1401.59 608.838 1402.59 601.188C1403.68 592.949 1403.43 584.554 1402.5 576.312C1401.96 571.548 1401.26 566.752 1400.09 562.094C1399.7 560.501 1398.06 559.54 1396.47 559.938Z" fill="#929292" stroke="none"/>
</g>
<g opacity="1" vectornator:layerName="Línea 37">
<path d="M1396.25 560C1395.53 560.239 1394.9 560.736 1394.53 561.469C1392.38 565.741 1390.59 570.222 1388.97 574.719C1386.46 581.688 1384.46 588.883 1383.38 596.219C1382.3 603.502 1382.16 610.936 1382.47 618.281C1382.75 624.861 1383.32 631.504 1384.44 638C1384.72 639.654 1386.28 640.756 1387.94 640.469C1389.59 640.181 1390.69 638.591 1390.41 636.938C1389.31 630.702 1388.78 624.349 1388.5 618.031C1388.19 611.066 1388.31 604.003 1389.31 597.094C1390.41 589.545 1392.58 582.175 1395.22 575.031C1396.58 571.34 1398.08 567.675 1399.84 564.156C1400.58 562.69 1400 560.894 1398.53 560.156C1397.8 559.787 1396.97 559.761 1396.25 560Z" fill="#929292" stroke="none"/>
</g>
</g>
</svg>
