<?xml version="1.0" encoding="UTF-8" standalone="no"?>
<!DOCTYPE svg PUBLIC "-//W3C//DTD SVG 1.1//EN" "http://www.w3.org/Graphics/SVG/1.1/DTD/svg11.dtd">
<!-- Created with Vectornator (http://vectornator.io/) -->
<svg height="100%" stroke-miterlimit="10" style="fill-rule:nonzero;clip-rule:evenodd;stroke-linecap:round;stroke-linejoin:round;" version="1.1" viewBox="0 0 1679.5 1210.52" width="100%" xml:space="preserve" xmlns="http://www.w3.org/2000/svg" xmlns:vectornator="http://vectornator.io" xmlns:xlink="http://www.w3.org/1999/xlink">
<defs/>
<g id="Capa-1" vectornator:layerName="Capa 1">
<g opacity="1" vectornator:layerName="Línea 9">
<path d="M329.156 504.094C302.661 504.108 276.151 504.111 249.656 504.125C246.747 504.125 244.406 506.497 244.406 509.406C244.406 512.315 246.747 514.656 249.656 514.656C276.151 514.671 302.661 514.704 329.156 514.719C332.089 514.719 334.469 512.339 334.469 509.406C334.469 506.473 332.089 504.094 329.156 504.094Z" fill="#b1b1b1" stroke="none"/>
</g>
<g opacity="1" vectornator:layerName="Línea 10">
<path d="M1306.72 903.312C1303.79 903.312 1301.41 905.692 1301.41 908.625C1301.41 911.558 1303.79 913.937 1306.72 913.938C1323.68 913.923 1340.63 913.921 1357.59 913.906C1360.5 913.906 1362.87 911.534 1362.88 908.625C1362.88 905.716 1360.5 903.375 1357.59 903.375C1340.63 903.361 1323.68 903.327 1306.72 903.312Z" fill="#bebebe" stroke="none"/>
</g>
<g opacity="1" vectornator:layerName="Línea 11">
<path d="M1432.53 876.156C1429.6 876.156 1427.22 878.536 1427.22 881.469C1427.22 884.402 1429.6 886.781 1432.53 886.781C1468.6 886.767 1504.68 886.733 1540.75 886.719C1543.66 886.719 1546 884.378 1546 881.469C1546 878.56 1543.66 876.188 1540.75 876.188C1504.68 876.173 1468.6 876.171 1432.53 876.156Z" fill="#b1b1b1" stroke="none"/>
</g>
<g opacity="1" vectornator:layerName="Línea 14">
<path d="M1269.25 670.719C1266.32 670.719 1263.94 673.098 1263.94 676.031C1263.94 678.964 1266.32 681.344 1269.25 681.344C1305.32 681.329 1341.4 681.296 1377.47 681.281C1380.38 681.281 1382.72 678.94 1382.72 676.031C1382.72 673.122 1380.38 670.75 1377.47 670.75C1341.4 670.736 1305.32 670.733 1269.25 670.719Z" fill="#c7c7c7" stroke="none"/>
</g>
<g opacity="1" vectornator:layerName="Línea 5">
<path d="M6.59375 906.312C3.66084 906.312 1.28125 908.692 1.28125 911.625C1.28125 914.558 3.66084 916.937 6.59375 916.938C23.555 916.923 40.5075 916.921 57.4688 916.906C60.3778 916.906 62.7188 914.534 62.7188 911.625C62.7188 908.716 60.3778 906.375 57.4688 906.375C40.5075 906.361 23.555 906.327 6.59375 906.312Z" fill="#b1b1b1" stroke="none"/>
</g>
<g opacity="1" vectornator:layerName="Línea 6">
<path d="M147.75 853.375C144.817 853.375 142.437 855.755 142.438 858.688C142.438 861.62 144.817 864 147.75 864C174.595 863.986 201.436 863.983 228.281 863.969C231.19 863.969 233.531 861.596 233.531 858.688C233.531 855.778 231.19 853.438 228.281 853.438C201.436 853.423 174.595 853.389 147.75 853.375Z" fill="#bfbfbf" stroke="none"/>
</g>
<g opacity="1" vectornator:layerName="Línea 7">
<path d="M1337.91 106.25C1334.97 106.25 1332.59 108.63 1332.59 111.562C1332.59 114.495 1334.97 116.875 1337.91 116.875C1354.87 116.861 1371.85 116.827 1388.81 116.812C1391.72 116.812 1394.06 114.472 1394.06 111.562C1394.06 108.653 1391.72 106.281 1388.81 106.281C1371.85 106.267 1354.87 106.264 1337.91 106.25Z" fill="#c5c5c5" stroke="none"/>
</g>
<g opacity="1" vectornator:layerName="Línea 8">
<path d="M1443.72 59.0625C1440.79 59.0625 1438.41 61.4421 1438.41 64.375C1438.41 67.3079 1440.79 69.6875 1443.72 69.6875C1479.79 69.6731 1515.87 69.6706 1551.94 69.6562C1554.85 69.6562 1557.19 67.2841 1557.19 64.375C1557.19 61.4659 1554.85 59.125 1551.94 59.125C1515.87 59.1106 1479.79 59.0769 1443.72 59.0625Z" fill="#c7c7c7" stroke="none"/>
</g>
<g opacity="1" vectornator:layerName="Línea 18">
<path d="M479.125 58.9688C462.164 59.0193 445.18 59.0745 428.219 59.125C425.31 59.1312 422.962 61.4972 422.969 64.4062C422.975 67.3153 425.341 69.6625 428.25 69.6562C445.211 69.6345 462.164 69.6155 479.125 69.5938C482.058 69.5875 484.444 67.1829 484.438 64.25C484.431 61.3171 482.058 58.9625 479.125 58.9688Z" fill="#c5c5c5" stroke="none"/>
</g>
<g opacity="1" vectornator:layerName="Línea 19">
<path d="M199.656 106C163.588 106.091 127.537 106.19 91.4688 106.281C88.5597 106.287 86.1813 108.653 86.1875 111.562C86.1937 114.472 88.5597 116.819 91.4688 116.812C127.537 116.75 163.62 116.687 199.688 116.625C202.62 116.619 204.975 114.245 204.969 111.312C204.963 108.38 202.589 105.994 199.656 106Z" fill="#d8d8d8" stroke="none"/>
</g>
<g opacity="1" vectornator:layerName="Línea 15">
<path d="M1395.06 304.812C1392.13 304.812 1389.75 307.192 1389.75 310.125C1389.75 313.058 1392.13 315.438 1395.06 315.438C1412.02 315.423 1428.98 315.389 1445.94 315.375C1448.85 315.375 1451.22 313.034 1451.22 310.125C1451.22 307.216 1448.85 304.844 1445.94 304.844C1428.98 304.829 1412.02 304.827 1395.06 304.812Z" fill="#bcbcbc" stroke="none"/>
</g>
<g opacity="1" vectornator:layerName="Línea 17">
<path d="M1620.62 534.219C1617.97 534.219 1615.81 536.376 1615.81 539.031C1615.81 541.687 1617.97 543.844 1620.62 543.844C1637.59 543.831 1654.54 543.826 1671.5 543.812C1674.13 543.812 1676.28 541.665 1676.28 539.031C1676.28 536.398 1674.13 534.25 1671.5 534.25C1654.54 534.237 1637.59 534.232 1620.62 534.219Z" fill="#cccccc" stroke="none"/>
</g>
<g opacity="1" vectornator:layerName="Línea 16">
<path d="M1489.84 363.781C1486.91 363.781 1484.53 366.161 1484.53 369.094C1484.53 372.027 1486.91 374.406 1489.84 374.406C1525.91 374.392 1561.96 374.358 1598.03 374.344C1600.94 374.344 1603.31 372.003 1603.31 369.094C1603.31 366.185 1600.94 363.812 1598.03 363.812C1561.96 363.798 1525.91 363.796 1489.84 363.781Z" fill="#b4b4b4" stroke="none"/>
</g>
<g opacity="1" vectornator:layerName="Línea 12">
<path d="M270.594 225.969C253.633 226.115 236.679 226.26 219.719 226.406C216.81 226.429 214.477 228.81 214.5 231.719C214.523 234.628 216.904 236.96 219.812 236.938C236.773 236.82 253.727 236.712 270.688 236.594C273.62 236.571 275.992 234.152 275.969 231.219C275.946 228.286 273.527 225.946 270.594 225.969Z" fill="#c1c1c1" stroke="none"/>
</g>
<g opacity="1" vectornator:layerName="Línea 13">
<path d="M120.094 303.969C84.027 304.264 47.9418 304.548 11.875 304.844C8.96601 304.866 6.63359 307.247 6.65625 310.156C6.67892 313.065 9.05976 315.398 11.9688 315.375C48.0358 315.108 84.0892 314.86 120.156 314.594C123.089 314.571 125.46 312.183 125.438 309.25C125.415 306.317 123.027 303.946 120.094 303.969Z" fill="#c2c2c2" stroke="none"/>
</g>
<g opacity="1" vectornator:layerName="Línea 20">
<path d="M120.094 303.969C84.027 304.264 47.9418 304.548 11.875 304.844C8.96601 304.866 6.63359 307.247 6.65625 310.156C6.67892 313.065 9.05976 315.398 11.9688 315.375C48.0358 315.108 84.0892 314.86 120.156 314.594C123.089 314.571 125.46 312.183 125.438 309.25C125.415 306.317 123.027 303.946 120.094 303.969Z" fill="#c2c2c2" stroke="none"/>
</g>
<g opacity="1" vectornator:layerName="Línea 21">
<path d="M154.188 554.594C139.685 554.722 125.19 554.84 110.688 554.969C108.249 554.988 106.293 556.967 106.312 559.406C106.332 561.845 108.311 563.832 110.75 563.812C125.253 563.708 139.747 563.604 154.25 563.5C156.709 563.48 158.707 561.459 158.688 559C158.668 556.541 156.646 554.574 154.188 554.594Z" fill="#c2c2c2" stroke="none"/>
</g>
<path d="M324.451 388.539L324.451 963.505L1325.62 963.505L1325.62 388.539" fill="#faefe8" fill-rule="nonzero" opacity="1" stroke="none" vectornator:layerName="Curva 1"/>
<path d="M1325.67 603.762C1321.55 603.762 1318.22 607.101 1318.22 611.219C1318.2 687.841 1318.19 814.449 1318.18 891.069C1318.18 907.83 1318.18 924.612 1318.18 941.372C1318.18 947.652 1318.15 953.932 1318.18 960.214C1316.64 960.214 1333.17 964.285 1333.17 960.524C1333.17 959.726 1333.17 958.939 1333.17 958.14C1333.17 956.545 1333.17 954.926 1333.17 953.331C1333.17 951.735 1333.17 950.117 1333.17 948.522C1333.17 929.366 1333.13 910.225 1333.13 891.069C1333.11 814.449 1333.14 687.841 1333.13 611.219C1333.13 607.101 1329.8 603.762 1325.67 603.762Z" fill="#6d6d6d" fill-rule="nonzero" opacity="1" stroke="none" vectornator:layerName="path"/>
<path d="M442.94 964.196L442.94 555.721C442.94 541.558 454.42 530.078 468.583 530.078L700.941 530.078C712.352 530.078 721.672 539.326 721.758 550.734L724.937 964.196L442.94 964.196Z" fill="#fffaf7" fill-rule="nonzero" opacity="1" stroke="#6d6d6d" stroke-linecap="butt" stroke-linejoin="round" stroke-width="14.5638" vectornator:layerName="Curva 3"/>
<path d="M324.7 422.804C320.634 422.803 317.33 426.108 317.329 430.176C317.351 561.538 317.391 762.897 317.413 894.259C317.413 898.235 320.638 901.459 324.614 901.46C328.592 901.461 331.816 898.235 331.817 894.259C331.904 762.897 331.985 561.536 332.072 430.176C332.073 426.108 328.767 422.804 324.7 422.804Z" fill="#6d6d6d" fill-rule="nonzero" opacity="1" stroke="none" vectornator:layerName="path"/>
<path d="M880.966 553.543C880.966 536.891 894.466 523.391 911.118 523.391L1184.54 523.391C1201.19 523.391 1214.69 536.891 1214.69 553.543L1214.69 764.159C1214.69 780.811 1201.19 794.309 1184.54 794.309L911.118 794.309C894.466 794.309 880.966 780.811 880.966 764.159L880.966 553.543Z" fill="#fffaf7" fill-rule="nonzero" opacity="1" stroke="#6d6d6d" stroke-linecap="butt" stroke-linejoin="round" stroke-width="14.5638" vectornator:layerName="Rectángulo 1"/>
<path d="M266.369 962.119L1395.06 962.119L1395.06 1026.18L266.369 1026.18L266.369 962.119Z" fill="#b3b0ae" fill-rule="nonzero" opacity="1" stroke="#6d6d6d" stroke-linecap="butt" stroke-linejoin="round" stroke-width="12.5638" vectornator:layerName="Rectángulo 2"/>
<path d="M1326.28 189.143L1383.14 349.089L1152.27 347.644L1151.01 189.959L1326.28 189.143Z" fill="#ffb580" fill-rule="nonzero" opacity="1" stroke="#6d6d6d" stroke-linecap="butt" stroke-linejoin="round" stroke-width="14.5638" vectornator:layerName="Curva 5"/>
<path d="M935.38 187.589L1152.09 187.589L1152.09 345.327L935.38 345.327L935.38 187.589Z" fill="#fff7f2" fill-rule="nonzero" opacity="1" stroke="#6d6d6d" stroke-linecap="butt" stroke-linejoin="round" stroke-width="14.5638" vectornator:layerName="Rectángulo 3"/>
<path d="M1152.11 347.401L1382.5 347.401C1382.5 398.678 1330.92 440.247 1267.3 440.247C1203.68 440.247 1152.11 398.678 1152.11 347.401Z" fill="#ffa361" fill-rule="nonzero" opacity="1" stroke="#6d6d6d" stroke-linecap="butt" stroke-linejoin="round" stroke-width="14.5638" vectornator:layerName="Óvalo 6"/>
<path d="M327.314 186.175L270.65 346.121L500.717 344.675L501.972 186.991L327.314 186.175Z" fill="#ffb580" fill-rule="nonzero" opacity="1" stroke="#6d6d6d" stroke-linecap="butt" stroke-linejoin="round" stroke-width="14.5638" vectornator:layerName="Curva 6"/>
<path d="M500.882 344.433L271.295 344.433C271.295 395.71 322.69 437.278 386.088 437.278C449.487 437.278 500.882 395.71 500.882 344.433Z" fill="#ffa361" fill-rule="nonzero" opacity="1" stroke="#6d6d6d" stroke-linecap="butt" stroke-linejoin="round" stroke-width="14.5638" vectornator:layerName="Óvalo 7"/>
<path d="M934.986 345.298L1153.81 345.298C1153.81 396.575 1104.82 438.144 1044.4 438.144C983.971 438.144 934.986 396.575 934.986 345.298Z" fill="#faefe8" fill-rule="nonzero" opacity="1" stroke="#6d6d6d" stroke-linecap="butt" stroke-linejoin="round" stroke-width="14.5638" vectornator:layerName="Óvalo 8"/>
<path d="M718.093 187.029L934.799 187.029L934.799 344.767L718.093 344.767L718.093 187.029Z" fill="#ffb580" fill-rule="nonzero" opacity="1" stroke="#6d6d6d" stroke-linecap="butt" stroke-linejoin="round" stroke-width="14.5638" vectornator:layerName="Rectángulo 4"/>
<path d="M717.699 344.738L936.523 344.738C936.523 396.015 887.538 437.583 827.112 437.583C766.684 437.583 717.699 396.015 717.699 344.738Z" fill="#ffa361" fill-rule="nonzero" opacity="1" stroke="#6d6d6d" stroke-linecap="butt" stroke-linejoin="round" stroke-width="14.5638" vectornator:layerName="Óvalo 9"/>
<path d="M500.294 188.413L717 188.413L717 346.151L500.294 346.151L500.294 188.413Z" fill="#fff7f2" fill-rule="nonzero" opacity="1" stroke="#6d6d6d" stroke-linecap="butt" stroke-linejoin="round" stroke-width="14.5638" vectornator:layerName="Rectángulo 5"/>
<path d="M499.9 346.124L718.724 346.124C718.724 397.4 669.739 438.969 609.313 438.969C548.885 438.969 499.9 397.4 499.9 346.124Z" fill="#faefe8" fill-rule="nonzero" opacity="1" stroke="#6d6d6d" stroke-linecap="butt" stroke-linejoin="round" stroke-width="14.5638" vectornator:layerName="Óvalo 10"/>
<path d="M1325.74 426.09C1321.71 426.074 1318.44 429.323 1318.43 433.362C1318.26 462.744 1318.08 502.119 1317.92 531.501C1317.9 535.633 1321.23 539.019 1325.36 539.034C1329.48 539.049 1332.88 535.719 1332.89 531.588C1332.95 502.205 1333.02 462.789 1333.07 433.405C1333.09 429.366 1329.79 426.105 1325.74 426.09Z" fill="#6d6d6d" fill-rule="nonzero" opacity="1" stroke="none" vectornator:layerName="path"/>
<path d="M325.034 147.932L1326.82 147.932L1326.82 186.631L325.034 186.631L325.034 147.932Z" fill="#afaead" fill-rule="nonzero" opacity="1" stroke="#6d6d6d" stroke-linecap="butt" stroke-linejoin="round" stroke-width="13.5638" vectornator:layerName="Rectángulo 6"/>
<path d="M112.272 1019.09C108.36 1019.09 105.203 1022.29 105.203 1026.2C105.203 1030.11 108.36 1033.27 112.272 1033.27C465.106 1033.22 1189.26 1033.17 1542.09 1033.12C1545.92 1033.12 1549.02 1030.02 1549.02 1026.2C1549.02 1022.37 1545.92 1019.28 1542.09 1019.28C1189.26 1019.22 465.106 1019.15 112.272 1019.09Z" fill="#6d6d6d" fill-rule="nonzero" opacity="1" stroke="none" vectornator:layerName="path"/>
<g opacity="1" vectornator:layerName="Curva 7">
<path d="M219.711 634.59L596.042 671.689C604.612 672.533 610.875 680.166 610.03 688.736L595.648 834.635C594.803 843.206 587.171 849.468 578.6 848.624L108.747 802.305C100.177 801.46 93.9142 793.828 94.7591 785.258L109.141 639.358C109.986 630.788 117.619 624.525 126.189 625.37L160.884 628.79L219.711 634.59Z" fill="#ffa96a" fill-rule="nonzero" stroke="none"/>
<path d="M122.375 618.938C117.154 619.479 112.193 621.93 108.594 625.75C105.961 628.544 104.106 632.045 103.219 635.781C102.464 638.956 102.35 642.32 102.031 645.562C101.358 652.402 100.705 659.255 100.031 666.094C96.7015 699.909 93.361 733.716 90.0312 767.531C89.6197 771.711 89.1928 775.883 88.7812 780.062C88.4865 783.056 88.0315 786.083 88.3438 789.094C88.9344 794.789 91.813 800.097 96.2188 803.75C97.6821 804.963 99.3054 805.983 101.031 806.781C104.475 808.373 108.055 808.696 111.781 809.062C113.617 809.243 115.446 809.444 117.281 809.625C125.846 810.468 134.435 811.314 143 812.156C172.367 815.044 201.727 817.927 231.094 820.812C313.076 828.866 395.048 836.893 477.031 844.938C501.504 847.339 525.996 849.755 550.469 852.156C557.811 852.877 565.127 853.592 572.469 854.312C576.757 854.733 580.995 855.371 585.25 854.344C587.534 853.792 589.728 852.872 591.719 851.625C596.125 848.865 599.466 844.563 601 839.594C601.889 836.714 602.02 833.668 602.312 830.688C602.723 826.508 603.121 822.336 603.531 818.156C606.998 782.82 610.47 747.462 613.938 712.125C614.459 706.806 614.978 701.507 615.5 696.188C615.817 692.958 616.402 689.624 616.281 686.375C616.071 680.702 613.569 675.235 609.438 671.344C606.678 668.745 603.251 666.907 599.562 666.031C596.701 665.352 593.701 665.256 590.781 664.969C586.371 664.535 581.942 664.09 577.531 663.656C553.52 661.294 529.511 658.925 505.5 656.562C440.327 650.151 375.172 643.734 310 637.312C289.909 635.333 269.809 633.355 249.719 631.375C243.349 630.747 236.964 630.128 230.594 629.5C228.634 629.307 226.679 629.131 224.719 628.938C224.121 628.879 222.84 628.736 222.031 628.656C221.49 628.445 220.95 628.216 220.344 628.156C209.314 627.07 212.981 627.424 209.312 627.062C203.185 626.459 197.065 625.853 190.938 625.25C173.543 623.537 156.144 621.838 138.75 620.125C135.497 619.805 132.253 619.477 129 619.156C126.783 618.938 124.604 618.706 122.375 618.938ZM124.719 631.812C126.388 631.791 128.118 632.042 129.906 632.219C135.689 632.789 141.468 633.367 147.25 633.938C163.23 635.515 179.208 637.079 195.188 638.656C200.09 639.14 204.973 639.641 209.875 640.125C211.713 640.306 213.568 640.475 215.406 640.656C216.019 640.717 215.386 640.668 219.062 641.031C219.67 641.091 220.24 640.946 220.812 640.844C222.484 641.009 223.594 641.143 225 641.281C226.96 641.475 228.915 641.65 230.875 641.844C237.245 642.472 243.599 643.09 249.969 643.719C269.569 645.652 289.181 647.598 308.781 649.531C369.053 655.476 429.323 661.421 489.594 667.375C515.074 669.892 540.551 672.42 566.031 674.938C573.381 675.664 580.744 676.399 588.094 677.125C590.054 677.319 592.009 677.494 593.969 677.688C595.754 677.864 597.402 678.067 599 678.938C601.89 680.512 603.781 683.555 603.906 686.844C603.98 688.774 603.627 690.77 603.438 692.688C602.798 699.146 602.14 705.604 601.5 712.062C598.339 743.977 595.192 775.898 592.031 807.812C591.316 815.031 590.59 822.25 589.875 829.469C589.666 831.578 589.695 833.837 589.062 835.875C588.04 839.172 585.128 841.737 581.719 842.312C579.677 842.657 577.564 842.233 575.531 842.031C573.696 841.849 571.867 841.651 570.031 841.469C562.078 840.681 554.14 839.913 546.188 839.125C521.717 836.701 497.252 834.267 472.781 831.844C392.641 823.907 312.485 815.99 232.344 808.062C202.367 805.097 172.383 802.119 142.406 799.156C133.841 798.31 125.284 797.47 116.719 796.625C114.883 796.444 113.054 796.244 111.219 796.062C109.341 795.877 107.587 795.759 105.906 794.844C103.096 793.314 101.248 790.322 101.125 787.125C101.051 785.207 101.437 783.249 101.625 781.344C102.375 773.745 103.125 766.13 103.875 758.531C106.95 727.376 110.019 696.218 113.094 665.062C113.769 658.224 114.45 651.401 115.125 644.562C115.313 642.658 115.334 640.616 115.781 638.75C116.335 636.438 117.793 634.415 119.812 633.156C121.426 632.15 123.049 631.834 124.719 631.812Z" fill="#6d6d6d" stroke="none"/>
</g>
<path d="M352.798 507.033C354.103 494.379 365.419 485.178 378.073 486.483C390.728 487.787 399.929 499.104 398.625 511.757C397.32 524.413 386.004 533.613 373.35 532.309C360.695 531.004 351.494 519.688 352.798 507.033Z" fill="none" opacity="1" stroke="#6d6d6d" stroke-linecap="butt" stroke-linejoin="round" stroke-width="18.7344" vectornator:layerName="Óvalo 11"/>
<path d="M428.242 654.321L381.256 533.123" fill="none" opacity="1" stroke="#6d6d6d" stroke-linecap="butt" stroke-linejoin="round" stroke-width="14.7344" vectornator:layerName="Línea 1"/>
<path d="M296.35 640.725L367.84 531.741" fill="none" opacity="1" stroke="#6d6d6d" stroke-linecap="butt" stroke-linejoin="round" stroke-width="14.7344" vectornator:layerName="Línea 2"/>
<g fill="#fffaf5" opacity="1" stroke="none" vectornator:layerName="Texto 1">
<path d="M208.428 752.178L205.793 742.443L175.412 739.421L170.89 748.649C169.125 752.249 167.684 754.654 166.569 755.864C165.453 757.074 163.774 757.568 161.531 757.345C159.628 757.156 158.015 756.292 156.692 754.753C155.369 753.214 154.796 751.561 154.972 749.794C155.073 748.775 155.348 747.738 155.796 746.684C156.244 745.631 156.955 744.174 157.93 742.315L181.873 695.688C182.556 694.349 183.376 692.74 184.335 690.862C185.294 688.984 186.271 687.443 187.266 686.238C188.262 685.032 189.504 684.101 190.994 683.442C192.483 682.784 194.265 682.558 196.338 682.764C198.445 682.974 200.164 683.548 201.495 684.487C202.825 685.426 203.862 686.567 204.603 687.911C205.345 689.255 205.941 690.678 206.392 692.182C206.843 693.685 207.407 695.689 208.085 698.193L222.811 748.358C223.975 752.18 224.474 754.924 224.308 756.589C224.136 758.322 223.256 759.839 221.668 761.14C220.08 762.44 218.266 762.989 216.227 762.786C215.038 762.668 214.039 762.354 213.232 761.845C212.425 761.336 211.769 760.687 211.264 759.899C210.759 759.111 210.25 757.928 209.738 756.349C209.225 754.771 208.789 753.381 208.428 752.178ZM180.519 728.449L202.846 730.67L194.649 698.709L180.519 728.449Z"/>
<path d="M256.902 696.821L254.788 718.077C257.675 715.619 260.55 713.803 263.412 712.629C266.274 711.455 269.711 711.068 273.721 711.467C278.342 711.926 282.286 713.426 285.551 715.964C288.816 718.503 291.202 721.949 292.708 726.303C294.214 730.657 294.683 735.688 294.115 741.398C293.696 745.612 292.776 749.424 291.355 752.835C289.935 756.246 288.077 759.141 285.781 761.521C283.485 763.901 280.814 765.651 277.768 766.773C274.722 767.894 271.449 768.28 267.949 767.932C265.808 767.719 263.82 767.264 261.984 766.566C260.149 765.869 258.61 765.038 257.367 764.074C256.125 763.109 255.08 762.139 254.234 761.162C253.387 760.186 252.287 758.738 250.933 756.818L250.797 758.195C250.536 760.812 249.711 762.729 248.32 763.946C246.929 765.163 245.265 765.675 243.328 765.483C241.357 765.287 239.852 764.459 238.813 763C237.774 761.541 237.385 759.503 237.645 756.886L243.69 696.124C243.971 693.303 244.752 691.227 246.034 689.896C247.316 688.565 248.977 688.001 251.016 688.204C253.157 688.417 254.737 689.269 255.755 690.76C256.774 692.252 257.156 694.272 256.902 696.821ZM253.452 738.227C252.901 743.767 253.744 748.149 255.98 751.375C258.215 754.6 261.389 756.417 265.501 756.826C269.002 757.175 272.169 755.954 275.003 753.164C277.838 750.375 279.537 746.142 280.102 740.467C280.467 736.797 280.255 733.584 279.465 730.828C278.675 728.073 277.384 725.876 275.59 724.239C273.797 722.602 271.609 721.655 269.026 721.399C266.375 721.135 263.942 721.622 261.725 722.86C259.508 724.098 257.669 726.026 256.208 728.643C254.746 731.261 253.828 734.455 253.452 738.227Z"/>
<path d="M324.564 724.401L320.563 764.621C320.286 767.408 319.413 769.449 317.946 770.744C316.479 772.039 314.726 772.586 312.686 772.383C310.647 772.18 309.063 771.285 307.934 769.697C306.805 768.108 306.376 765.955 306.647 763.236L310.607 723.425C310.881 720.672 311.725 718.662 313.138 717.396C314.551 716.129 316.277 715.597 318.316 715.8C320.355 716.003 321.968 716.867 323.154 718.392C324.341 719.918 324.811 721.921 324.564 724.401ZM319.113 709.342C317.176 709.149 315.578 708.389 314.32 707.063C313.062 705.737 312.541 703.986 312.758 701.811C312.954 699.84 313.82 698.288 315.357 697.153C316.895 696.019 318.598 695.545 320.467 695.731C322.268 695.91 323.808 696.647 325.086 697.941C326.364 699.235 326.894 700.987 326.674 703.196C326.461 705.337 325.615 706.943 324.135 708.014C322.656 709.085 320.982 709.528 319.113 709.342Z"/>
<path d="M378.811 753.839L351.59 751.131C351.31 754.295 351.67 757.145 352.67 759.681C353.67 762.218 355.138 764.2 357.072 765.628C359.006 767.056 361.214 767.893 363.695 768.14C365.36 768.305 366.9 768.261 368.315 768.007C369.73 767.753 371.125 767.274 372.499 766.57C373.874 765.866 375.152 765.093 376.334 764.249C377.516 763.406 379.055 762.255 380.95 760.796C381.725 760.255 382.775 760.051 384.1 760.183C385.527 760.325 386.644 760.83 387.45 761.7C388.256 762.57 388.587 763.718 388.445 765.145C388.32 766.403 387.681 767.823 386.528 769.408C385.376 770.992 383.728 772.458 381.586 773.806C379.445 775.155 376.819 776.189 373.71 776.91C370.601 777.63 367.093 777.796 363.185 777.407C354.247 776.518 347.551 773.277 343.096 767.686C338.642 762.095 336.849 754.933 337.718 746.199C338.127 742.087 339.118 738.333 340.692 734.938C342.265 731.542 344.349 728.703 346.944 726.422C349.539 724.14 352.62 722.499 356.186 721.498C359.751 720.498 363.624 720.205 367.804 720.621C373.242 721.162 377.792 722.773 381.455 725.454C385.118 728.135 387.737 731.39 389.312 735.219C390.887 739.048 391.487 742.848 391.112 746.62C390.764 750.121 389.536 752.289 387.428 753.126C385.319 753.963 382.447 754.201 378.811 753.839ZM352.376 743.23L377.609 745.74C377.742 740.949 376.814 737.261 374.823 734.678C372.832 732.095 370.018 730.622 366.382 730.261C362.916 729.916 359.95 730.83 357.486 733.005C355.022 735.179 353.319 738.588 352.376 743.23Z"/>
<path d="M418.739 762.651L417.583 774.273C417.302 777.094 416.429 779.143 414.963 780.422C413.498 781.7 411.745 782.238 409.706 782.035C407.701 781.836 406.124 780.958 404.975 779.402C403.825 777.846 403.389 775.675 403.667 772.889L407.521 734.147C408.143 727.894 410.714 724.993 415.234 725.442C417.545 725.672 419.137 726.569 420.011 728.131C420.885 729.694 421.231 731.908 421.049 734.773C422.999 732.084 424.921 730.096 426.816 728.808C428.712 727.521 431.121 727.023 434.044 727.314C436.966 727.605 439.731 728.617 442.338 730.353C444.946 732.088 446.129 734.162 445.889 736.575C445.72 738.274 444.995 739.617 443.712 740.605C442.43 741.593 441.109 742.019 439.75 741.884C439.24 741.833 438.039 741.396 436.148 740.573C434.256 739.75 432.563 739.264 431.068 739.115C429.029 738.913 427.31 739.282 425.912 740.224C424.515 741.166 423.354 742.655 422.431 744.691C421.507 746.727 420.765 749.184 420.204 752.063C419.643 754.941 419.155 758.471 418.739 762.651Z"/>
<path d="M459.595 731.091L461.124 731.243L461.956 722.884C462.179 720.641 462.413 718.888 462.659 717.625C462.905 716.363 463.345 715.3 463.98 714.436C464.619 713.539 465.477 712.843 466.556 712.35C467.635 711.857 468.803 711.673 470.06 711.798C471.827 711.974 473.358 712.795 474.654 714.263C475.518 715.241 476.013 716.38 476.142 717.68C476.27 718.979 476.217 720.802 475.984 723.147L475.04 732.628L480.138 733.135C482.109 733.331 483.566 733.948 484.51 734.986C485.453 736.023 485.852 737.273 485.707 738.734C485.521 740.603 484.652 741.838 483.099 742.439C481.546 743.039 479.394 743.203 476.641 742.929L474.041 742.67L471.496 768.26C471.279 770.435 471.189 772.116 471.225 773.304C471.262 774.491 471.575 775.483 472.165 776.28C472.755 777.076 473.797 777.549 475.293 777.698C476.108 777.779 477.227 777.744 478.649 777.594C480.071 777.444 481.173 777.408 481.955 777.486C483.076 777.597 484.042 778.148 484.853 779.138C485.664 780.128 486.004 781.286 485.872 782.611C485.649 784.854 484.255 786.449 481.69 787.395C479.124 788.341 475.548 788.586 470.96 788.129C466.61 787.696 463.387 786.638 461.289 784.953C459.192 783.269 457.923 781.101 457.483 778.449C457.044 775.797 457.038 772.313 457.468 767.997L460.125 741.286L458.29 741.103C456.285 740.904 454.803 740.276 453.844 739.219C452.885 738.163 452.479 736.904 452.624 735.443C452.769 733.982 453.441 732.839 454.638 732.014C455.836 731.189 457.488 730.882 459.595 731.091Z"/>
<path d="M548.588 767.281C548.176 771.427 547.15 775.186 545.51 778.557C543.87 781.929 541.702 784.751 539.005 787.022C536.308 789.294 533.194 790.931 529.662 791.936C526.13 792.94 522.24 793.231 517.992 792.808C513.778 792.389 510.056 791.332 506.827 789.638C503.598 787.944 500.878 785.709 498.666 782.932C496.454 780.155 494.882 776.978 493.951 773.402C493.02 769.826 492.762 765.948 493.178 761.768C493.597 757.554 494.627 753.761 496.266 750.389C497.906 747.018 500.055 744.211 502.715 741.971C505.375 739.73 508.487 738.109 512.053 737.108C515.619 736.107 519.475 735.813 523.621 736.226C527.835 736.645 531.591 737.705 534.888 739.406C538.185 741.106 540.932 743.336 543.128 746.094C545.325 748.852 546.888 752.028 547.818 755.621C548.747 759.214 549.004 763.101 548.588 767.281ZM534.621 765.891C535.185 760.216 534.376 755.674 532.193 752.265C530.009 748.856 526.811 746.942 522.597 746.523C519.878 746.252 517.412 746.719 515.199 747.923C512.985 749.127 511.181 751.05 509.786 753.691C508.391 756.332 507.51 759.488 507.145 763.158C506.783 766.794 507.02 770.026 507.854 772.855C508.688 775.683 510.061 777.922 511.973 779.571C513.885 781.22 516.235 782.183 519.021 782.46C523.235 782.879 526.749 781.625 529.563 778.696C532.377 775.767 534.063 771.498 534.621 765.891Z"/>
</g>
</g>
</svg>
