<?xml version="1.0" encoding="UTF-8" standalone="no"?>
<!DOCTYPE svg PUBLIC "-//W3C//DTD SVG 1.1//EN" "http://www.w3.org/Graphics/SVG/1.1/DTD/svg11.dtd">
<!-- Created with Vectornator (http://vectornator.io/) -->
<svg height="100%" stroke-miterlimit="10" style="fill-rule:nonzero;clip-rule:evenodd;stroke-linecap:round;stroke-linejoin:round;" version="1.1" viewBox="0 0 1300 1024" width="100%" xml:space="preserve" xmlns="http://www.w3.org/2000/svg" xmlns:vectornator="http://vectornator.io" xmlns:xlink="http://www.w3.org/1999/xlink">
<defs/>
<g id="Capa-4" opacity="0.5" vectornator:layerName="Capa 4"/>
<g id="Capa-1" vectornator:layerName="Capa 1">
<path d="M212.931 514.15L212.931 908.694L899.94 908.694L899.94 514.15" fill="#f0f0f0" fill-rule="nonzero" opacity="1" stroke="none" vectornator:layerName="Curva 1"/>
<g opacity="1" vectornator:layerName="Curva 14">
<path d="M899.94 689.15L899.94 909.694L212.931 909.694" fill="#f0f0f0" fill-rule="nonzero" stroke="none"/>
<path d="M899.938 679.031C894.346 679.031 889.813 683.564 889.812 689.156C889.825 737.975 889.832 786.776 889.844 835.594C889.848 852.249 889.871 868.907 889.875 885.562C889.876 890.243 889.874 894.945 889.875 899.625C884.289 899.626 878.679 899.624 873.094 899.625C856.097 899.629 839.121 899.652 822.125 899.656C771.583 899.669 721.042 899.675 670.5 899.688C517.981 899.725 365.457 899.743 212.938 899.781C207.47 899.781 203.031 904.22 203.031 909.688C203.031 915.155 207.47 919.594 212.938 919.594C386.926 919.637 560.918 919.676 734.906 919.719C777.397 919.729 819.884 919.739 862.375 919.75C872.215 919.752 882.035 919.748 891.875 919.75C893.664 919.75 895.461 919.749 897.25 919.75C898.763 919.75 900.301 919.828 901.781 919.469C903.909 918.952 905.857 917.796 907.312 916.156C908.534 914.78 909.351 913.103 909.75 911.312C910.211 909.242 910 906.603 910 904.531C910 903.383 910 902.242 910 901.094C910 899.371 910 897.629 910 895.906C910.003 882.697 910.028 869.491 910.031 856.281C910.045 800.571 910.049 744.867 910.062 689.156C910.062 683.564 905.529 679.031 899.938 679.031Z" fill="#929292" stroke="none"/>
</g>
<path d="M294.239 906.977L294.239 626.68C294.239 616.961 302.117 609.083 311.835 609.083L471.28 609.083C479.109 609.083 485.505 615.43 485.565 623.258L487.746 906.977L294.239 906.977Z" fill="#f8f7f5" fill-rule="nonzero" opacity="1" stroke="#929292" stroke-linecap="butt" stroke-linejoin="round" stroke-width="20" vectornator:layerName="Curva 2"/>
<path d="M594.814 629.568C594.814 618.141 604.077 608.878 615.504 608.878L803.127 608.878C814.554 608.878 823.817 618.141 823.817 629.568L823.817 774.093C823.817 785.52 814.554 794.783 803.127 794.783L615.504 794.783C604.077 794.783 594.814 785.52 594.814 774.093L594.814 629.568Z" fill="#f8f7f5" fill-rule="nonzero" opacity="1" stroke="#929292" stroke-linecap="butt" stroke-linejoin="round" stroke-width="20" vectornator:layerName="Rectángulo 1"/>
<path d="M173.075 909.934L947.588 909.934L947.588 953.894L173.075 953.894L173.075 909.934Z" fill="#d5d5d5" fill-rule="nonzero" opacity="1" stroke="#929292" stroke-linecap="butt" stroke-linejoin="round" stroke-width="20" vectornator:layerName="Rectángulo 2"/>
<path d="M213.332 342.566L900.757 342.566L900.757 376.416L213.332 376.416L213.332 342.566Z" fill="#d9d9d9" fill-rule="nonzero" opacity="1" stroke="#929292" stroke-linecap="butt" stroke-linejoin="round" stroke-width="20" vectornator:layerName="Rectángulo 3"/>
<path d="M900.39 379.516L939.409 489.271L780.986 488.279L780.122 380.075L900.39 379.516Z" fill="#d5d5d5" fill-rule="nonzero" opacity="1" stroke="#929292" stroke-linecap="butt" stroke-linejoin="round" stroke-width="20.168" vectornator:layerName="Curva 6"/>
<path d="M632.153 378.449L780.857 378.449L780.857 486.689L632.153 486.689L632.153 378.449Z" fill="#efeeed" fill-rule="nonzero" opacity="1" stroke="#929292" stroke-linecap="butt" stroke-linejoin="round" stroke-width="20.168" vectornator:layerName="Rectángulo 4"/>
<path d="M780.873 488.113L938.965 488.113C938.965 523.299 903.575 551.824 859.919 551.824C816.263 551.824 780.873 523.299 780.873 488.113Z" fill="#d5d5d5" fill-rule="nonzero" opacity="1" stroke="#929292" stroke-linecap="butt" stroke-linejoin="round" stroke-width="20.168" vectornator:layerName="Óvalo 6"/>
<path d="M214.896 377.478L176.013 487.233L333.885 486.242L334.747 378.038L214.896 377.478Z" fill="#d9d9d9" fill-rule="nonzero" opacity="1" stroke="#929292" stroke-linecap="butt" stroke-linejoin="round" stroke-width="20.168" vectornator:layerName="Curva 7"/>
<path d="M333.998 486.076L176.455 486.076C176.455 521.262 211.722 549.787 255.227 549.787C298.731 549.787 333.998 521.262 333.998 486.076Z" fill="#d9d9d9" fill-rule="nonzero" opacity="1" stroke="#929292" stroke-linecap="butt" stroke-linejoin="round" stroke-width="20.168" vectornator:layerName="Óvalo 9"/>
<path d="M631.882 486.67L782.04 486.67C782.04 521.856 748.426 550.381 706.961 550.381C665.496 550.381 631.882 521.856 631.882 486.67Z" fill="#efeeed" fill-rule="nonzero" opacity="1" stroke="#929292" stroke-linecap="butt" stroke-linejoin="round" stroke-width="20.168" vectornator:layerName="Óvalo 5"/>
<path d="M483.05 378.064L631.754 378.064L631.754 486.305L483.05 486.305L483.05 378.064Z" fill="#d9d9d9" fill-rule="nonzero" opacity="1" stroke="#929292" stroke-linecap="butt" stroke-linejoin="round" stroke-width="20.168" vectornator:layerName="Rectángulo 5"/>
<path d="M482.779 486.285L632.938 486.285C632.938 521.472 599.324 549.996 557.859 549.996C516.393 549.996 482.779 521.472 482.779 486.285Z" fill="#d9d9d9" fill-rule="nonzero" opacity="1" stroke="#929292" stroke-linecap="butt" stroke-linejoin="round" stroke-width="20.168" vectornator:layerName="Óvalo 7"/>
<path d="M333.596 379.015L482.3 379.015L482.3 487.255L333.596 487.255L333.596 379.015Z" fill="#efeeed" fill-rule="nonzero" opacity="1" stroke="#929292" stroke-linecap="butt" stroke-linejoin="round" stroke-width="20.168" vectornator:layerName="Rectángulo 6"/>
<path d="M333.324 487.236L483.483 487.236C483.483 522.422 449.869 550.947 408.404 550.947C366.939 550.947 333.324 522.422 333.324 487.236Z" fill="#efeeed" fill-rule="nonzero" opacity="1" stroke="#929292" stroke-linecap="butt" stroke-linejoin="round" stroke-width="20.168" vectornator:layerName="Óvalo 8"/>
<path d="M703.178 164.71C620.519 206.476 639.111 424.024 688.507 487.39C712.107 517.664 801.164 524.144 801.164 524.144C794.932 622.018 797.182 613.019 808.945 624.011C834.608 647.99 954.602 525.801 954.602 525.801C954.602 525.801 1147.35 533.206 1182.97 497.565C1262.52 417.965 1254.14 199.93 1181.36 163.962C1081.04 114.383 804.684 113.42 703.178 164.71Z" fill="#faf9f8" fill-rule="nonzero" opacity="1" stroke="#929292" stroke-linecap="butt" stroke-linejoin="round" stroke-width="20" vectornator:layerName="Curva 8"/>
<path d="M760.749 242.749L767.956 226.186C769.73 222.108 772.642 222.093 774.459 226.151L781.911 242.791L800.502 244.409C804.932 244.794 805.815 247.486 802.475 250.422L788.327 262.854L792.272 280.776C793.228 285.119 790.898 286.808 787.068 284.55L771.256 275.228L754.911 285.263C751.122 287.59 748.838 285.959 749.811 281.62L753.976 263.038L740.047 250.513C736.74 247.54 737.65 244.809 742.079 244.414L760.749 242.749Z" fill="#bfbfbf" fill-rule="nonzero" opacity="1" stroke="none" vectornator:layerName="Curva 9"/>
<path d="M846.958 242.749L854.165 226.186C855.939 222.108 858.851 222.093 860.668 226.151L868.12 242.791L886.711 244.409C891.141 244.794 892.024 247.486 888.684 250.422L874.536 262.854L878.481 280.776C879.437 285.119 877.107 286.808 873.277 284.55L857.465 275.228L841.12 285.263C837.331 287.59 835.047 285.959 836.02 281.62L840.185 263.038L826.256 250.513C822.949 247.54 823.859 244.809 828.288 244.414L846.958 242.749Z" fill="#bfbfbf" fill-rule="nonzero" opacity="1" stroke="none" vectornator:layerName="Curva 10"/>
<path d="M932.774 242.749L939.981 226.186C941.755 222.108 944.667 222.093 946.484 226.151L953.936 242.791L972.527 244.409C976.957 244.794 977.84 247.486 974.5 250.422L960.352 262.854L964.297 280.776C965.253 285.119 962.923 286.808 959.093 284.55L943.281 275.228L926.936 285.263C923.147 287.59 920.863 285.959 921.836 281.62L926.001 263.038L912.072 250.513C908.765 247.54 909.675 244.809 914.105 244.414L932.774 242.749Z" fill="#bfbfbf" fill-rule="nonzero" opacity="1" stroke="none" vectornator:layerName="Curva 11"/>
<path d="M1018.98 242.749L1026.19 226.186C1027.96 222.108 1030.88 222.093 1032.69 226.151L1040.15 242.791L1058.74 244.409C1063.17 244.794 1064.05 247.486 1060.71 250.422L1046.56 262.854L1050.51 280.776C1051.46 285.119 1049.13 286.808 1045.3 284.55L1029.49 275.228L1013.15 285.263C1009.36 287.59 1007.07 285.959 1008.04 281.62L1012.21 263.038L998.281 250.513C994.974 247.54 995.884 244.809 1000.31 244.414L1018.98 242.749Z" fill="#bfbfbf" fill-rule="nonzero" opacity="1" stroke="none" vectornator:layerName="Curva 12"/>
<path d="M1106.99 242.749L1114.19 226.186C1115.97 222.108 1118.88 222.093 1120.7 226.151L1128.15 242.791L1146.74 244.409C1151.17 244.794 1152.05 247.486 1148.71 250.422L1134.56 262.854L1138.51 280.776C1139.47 285.119 1137.14 286.808 1133.3 284.55L1117.49 275.228L1101.15 285.263C1097.36 287.59 1095.08 285.959 1096.05 281.62L1100.21 263.038L1086.28 250.513C1082.98 247.54 1083.89 244.809 1088.32 244.414L1106.99 242.749Z" fill="#bfbfbf" fill-rule="nonzero" opacity="1" stroke="none" vectornator:layerName="Curva 13"/>
<path d="M751.509 358.566L1119.52 358.566L1119.52 358.566L751.509 358.566L751.509 358.566Z" fill="#d5d5d5" fill-rule="nonzero" opacity="1" stroke="#a4a4a4" stroke-linecap="butt" stroke-linejoin="round" stroke-width="20" vectornator:layerName="Rectángulo 7"/>
<path d="M751.509 417.838L1077 417.838L1077 417.838L751.509 417.838L751.509 417.838Z" fill="#d5d5d5" fill-rule="nonzero" opacity="1" stroke="#a4a4a4" stroke-linecap="butt" stroke-linejoin="round" stroke-width="20" vectornator:layerName="Rectángulo 9"/>
<g opacity="1" vectornator:layerName="Curva 15">
<path d="M900 573.781C894.532 573.746 890.067 578.158 890.031 583.625C889.852 599.763 889.679 615.894 889.5 632.031C889.464 637.623 893.971 642.183 899.562 642.219C905.154 642.255 909.714 637.748 909.75 632.156C909.779 616.018 909.815 599.889 909.844 583.75C909.879 578.282 905.467 573.816 900 573.781Z" fill="#929292" stroke="none"/>
</g>
<g opacity="1" vectornator:layerName="Curva 16">
<path d="M213.281 535.75C207.689 535.746 203.16 540.252 203.156 545.844C203.153 652.865 203.159 759.885 203.156 866.906C203.152 872.374 207.564 876.808 213.031 876.812C218.499 876.816 222.933 872.405 222.938 866.938C223.09 759.916 223.253 652.896 223.406 545.875C223.41 540.283 218.873 535.754 213.281 535.75Z" fill="#929292" stroke="none"/>
</g>
</g>
</svg>
