<?xml version="1.0" encoding="UTF-8" standalone="no"?>
<!DOCTYPE svg PUBLIC "-//W3C//DTD SVG 1.1//EN" "http://www.w3.org/Graphics/SVG/1.1/DTD/svg11.dtd">
<!-- Created with Vectornator (http://vectornator.io/) -->
<svg height="100%" stroke-miterlimit="10" style="fill-rule:nonzero;clip-rule:evenodd;stroke-linecap:round;stroke-linejoin:round;" version="1.1" viewBox="0 0 937.954 1024" width="100%" xml:space="preserve" xmlns="http://www.w3.org/2000/svg" xmlns:vectornator="http://vectornator.io" xmlns:xlink="http://www.w3.org/1999/xlink">
<defs>
<path d="M456.113 43.4366C338.455 43.4366 243.059 130.233 243.059 237.306L243.059 390.637L669.56 388.888L669.56 237.306C669.56 130.233 574.195 43.4366 456.536 43.4366L456.113 43.4366ZM456.113 88.6952L456.536 88.6952C547.654 88.6952 621.051 155.471 621.051 237.306L621.051 358.756L291.598 358.756L291.598 237.306C291.598 155.471 364.995 88.6952 456.113 88.6952Z" id="Fill"/>
</defs>
<g id="Capa-1" vectornator:layerName="Capa 1">
<g opacity="1" vectornator:layerName="Curva 3">
<use fill="#e6e6e6" fill-rule="nonzero" stroke="none" xlink:href="#Fill"/>
<mask height="347.2" id="StrokeMask" maskUnits="userSpaceOnUse" width="426.502" x="243.059" y="43.4366">
<rect fill="#000000" height="347.2" stroke="none" width="426.502" x="243.059" y="43.4366"/>
<use fill="#ffffff" fill-rule="evenodd" stroke="none" xlink:href="#Fill"/>
</mask>
<use fill="none" mask="url(#StrokeMask)" stroke="#8c8c8c" stroke-linecap="butt" stroke-linejoin="round" stroke-width="70.723" xlink:href="#Fill"/>
</g>
</g>
<g id="Capa-2" vectornator:layerName="Capa 2">
<path d="M213 360.625C142.981 360.625 86.2188 417.388 86.2188 487.406L86.2188 791.031C86.2187 861.05 142.981 917.812 213 917.812L699.625 917.812C769.644 917.813 826.406 861.05 826.406 791.031L826.406 487.406C826.406 417.388 769.644 360.625 699.625 360.625L213 360.625ZM215.356 401.079L697.269 401.079C745.769 401.079 785.098 440.376 785.098 488.876L785.098 789.561C785.098 838.061 745.769 877.359 697.269 877.359L215.356 877.359C166.856 877.359 127.527 838.061 127.527 789.561C127.527 788.974 127.527 489.463 127.527 488.876C127.527 440.376 166.856 401.078 215.356 401.079Z" fill="#8c8c8c" fill-rule="nonzero" opacity="1" stroke="none" vectornator:layerName="Curva 3"/>
<path d="M570.723 840.387C570.723 738.981 652.929 656.775 754.335 656.775C855.742 656.775 937.948 738.981 937.948 840.387C937.948 941.794 855.742 1024 754.335 1024C652.929 1024 570.723 941.794 570.723 840.387Z" fill="#50dd9a" fill-rule="nonzero" opacity="1" stroke="none" vectornator:layerName="Óvalo 1"/>
<path d="M754.337 656.766C652.93 656.766 570.72 738.976 570.72 840.383C570.72 941.789 652.93 1024 754.337 1024C855.743 1024 937.954 941.789 937.954 840.383C937.954 738.976 855.743 656.766 754.337 656.766ZM754.337 690.105C837.344 690.105 904.647 757.375 904.647 840.383C904.647 923.39 837.344 990.693 754.337 990.693C671.329 990.693 604.026 923.39 604.026 840.383C604.026 757.375 671.329 690.106 754.337 690.105Z" fill="#42c386" fill-rule="nonzero" opacity="1" stroke="none" vectornator:layerName="Curva 4"/>
<path d="M477.628 640.26C477.628 621.015 493.316 605.414 512.669 605.414C532.022 605.414 547.711 621.015 547.711 640.26C547.711 659.505 532.022 675.106 512.669 675.106C493.316 675.106 477.628 659.505 477.628 640.26Z" fill="#9f9f9f" fill-rule="nonzero" opacity="1" stroke="none" vectornator:layerName="Óvalo 3"/>
<path d="M361.014 640.18C361.014 620.891 376.739 605.254 396.136 605.254C415.534 605.254 431.258 620.891 431.258 640.18C431.258 659.469 415.534 675.106 396.136 675.106C376.739 675.106 361.014 659.469 361.014 640.18Z" fill="#9f9f9f" fill-rule="nonzero" opacity="1" stroke="none" vectornator:layerName="Óvalo 6"/>
<path d="M249.307 640.18C249.307 620.891 265.032 605.254 284.429 605.254C303.827 605.254 319.552 620.891 319.552 640.18C319.552 659.469 303.827 675.106 284.429 675.106C265.032 675.106 249.307 659.469 249.307 640.18Z" fill="#9f9f9f" fill-rule="nonzero" opacity="1" stroke="none" vectornator:layerName="Óvalo 8"/>
<path d="M593.068 640.26C593.068 620.971 608.793 605.334 628.19 605.334C647.588 605.334 663.312 620.971 663.312 640.26C663.312 659.549 647.588 675.186 628.19 675.186C608.793 675.186 593.068 659.549 593.068 640.26Z" fill="#9f9f9f" fill-rule="nonzero" opacity="1" stroke="none" vectornator:layerName="Óvalo 9"/>
<path d="M684.084 867.804L732.774 902.077L829.455 784.387" fill="none" opacity="1" stroke="#ffffff" stroke-linecap="round" stroke-linejoin="round" stroke-width="38.1362" vectornator:layerName="Curva 2"/>
</g>
</svg>
