<?xml version="1.0" encoding="UTF-8" standalone="no"?>
<!DOCTYPE svg PUBLIC "-//W3C//DTD SVG 1.1//EN" "http://www.w3.org/Graphics/SVG/1.1/DTD/svg11.dtd">
<!-- Created with Vectornator (http://vectornator.io/) -->
<svg height="100%" stroke-miterlimit="10" style="fill-rule:nonzero;clip-rule:evenodd;stroke-linecap:round;stroke-linejoin:round;" version="1.1" viewBox="0 0 937.954 1024" width="100%" xml:space="preserve" xmlns="http://www.w3.org/2000/svg" xmlns:vectornator="http://vectornator.io" xmlns:xlink="http://www.w3.org/1999/xlink">
<defs>
<path d="M168.538 89.4802C168.538 41.4777 207.451 2.56401 255.454 2.56401L645.634 2.56401C693.636 2.56401 732.55 41.4777 732.55 89.4802L732.55 861.865C732.55 909.867 693.636 948.781 645.634 948.781L255.454 948.781C207.451 948.781 168.538 909.867 168.538 861.865L168.538 89.4802Z" id="Fill"/>
<path d="M581.789 73.3818C581.915 88.0677 570.659 100.07 556.649 100.191L345.184 102.005C331.173 102.125 319.713 90.3175 319.587 75.6316L319.299 42.041C319.173 27.3551 330.428 15.3523 344.439 15.2321L555.904 13.4177C569.915 13.2974 581.375 25.1053 581.501 39.7912L581.789 73.3818Z" id="Fill_2"/>
</defs>
<g id="Capa-1" vectornator:layerName="Capa 1"/>
<g id="Capa-2" vectornator:layerName="Capa 2">
<g opacity="1" vectornator:layerName="Rectángulo 1">
<mask height="946.217" id="StrokeMask" maskUnits="userSpaceOnUse" width="564.012" x="168.538" y="2.56401">
<rect fill="#000000" height="946.217" stroke="none" width="564.012" x="168.538" y="2.56401"/>
<use fill="#ffffff" fill-rule="evenodd" stroke="none" xlink:href="#Fill"/>
</mask>
<use fill="none" mask="url(#StrokeMask)" stroke="#8c8c8c" stroke-linecap="butt" stroke-linejoin="round" stroke-width="85.4736" xlink:href="#Fill"/>
</g>
<g opacity="1" vectornator:layerName="Rectángulo 2">
<use fill="#8c8c8c" fill-rule="nonzero" stroke="none" xlink:href="#Fill_2"/>
<mask height="88.5893" id="StrokeMask_2" maskUnits="userSpaceOnUse" width="262.492" x="319.298" y="13.4168">
<rect fill="#000000" height="88.5893" stroke="none" width="262.492" x="319.298" y="13.4168"/>
<use fill="#ffffff" fill-rule="evenodd" stroke="none" xlink:href="#Fill_2"/>
</mask>
<use fill="none" mask="url(#StrokeMask_2)" stroke="#8c8c8c" stroke-linecap="butt" stroke-linejoin="round" stroke-width="92.8353" xlink:href="#Fill_2"/>
</g>
<g opacity="1" vectornator:layerName="Línea 1">
<path d="M605.031 831.625C578.076 831.667 551.112 831.66 524.156 831.781C479.095 831.984 434.061 832.353 389 832.594C358.021 832.76 327.041 832.758 296.062 832.781C284.752 832.781 275.562 841.94 275.562 853.25C275.562 864.56 284.752 873.75 296.062 873.75C327.041 873.774 358.021 873.772 389 873.938C434.061 874.179 479.095 874.547 524.156 874.75C551.112 874.871 578.076 874.833 605.031 874.875C616.977 874.875 626.656 865.196 626.656 853.25C626.656 841.304 616.977 831.625 605.031 831.625Z" fill="#8c8c8c" stroke="none"/>
</g>
<path d="M555.176 832.614C555.176 726.915 640.863 641.229 746.562 641.229C852.261 641.229 937.948 726.915 937.948 832.614C937.948 938.314 852.261 1024 746.562 1024C640.863 1024 555.176 938.314 555.176 832.614Z" fill="#ffb077" fill-rule="nonzero" opacity="1" stroke="none" vectornator:layerName="Óvalo 7"/>
<path d="M746.564 641.219C640.864 641.219 555.173 726.91 555.173 832.61C555.173 938.309 640.864 1024 746.564 1024C852.263 1024 937.954 938.309 937.954 832.61C937.954 726.91 852.263 641.219 746.564 641.219ZM746.564 675.97C833.085 675.97 903.237 746.088 903.237 832.61C903.237 919.131 833.085 989.283 746.564 989.283C660.042 989.283 589.89 919.131 589.89 832.61C589.89 746.088 660.042 675.97 746.564 675.97Z" fill="#f49857" fill-rule="nonzero" opacity="1" stroke="none" vectornator:layerName="Curva 4"/>
<g opacity="1" vectornator:layerName="Óvalo 8">
<path d="M753.312 729.25C742.521 729.264 731.748 730.909 721.438 734.125C709.343 737.897 697.923 743.834 687.906 751.594C684.38 754.326 681.103 757.299 677.906 760.406C670.169 767.916 669.959 780.294 677.469 788.031C684.979 795.769 697.356 795.948 705.094 788.438C707.248 786.349 709.435 784.336 711.812 782.5C718.451 777.372 726.073 773.475 734.125 771.125C742.901 768.563 752.211 767.866 761.281 768.969C769.718 769.994 777.936 772.639 785.375 776.75C802.935 786.455 815.567 803.925 819.125 823.688C820.469 831.152 820.53 838.853 819.344 846.344C818.372 852.48 816.545 858.469 813.906 864.094C810.567 871.213 805.945 877.762 800.375 883.312C794.806 888.862 788.267 893.431 781.125 896.719C772.293 900.784 762.732 902.725 753.031 902.781C741.643 902.871 732.472 912.174 732.562 923.562C732.653 934.951 741.987 944.09 753.375 944C769.511 943.845 785.417 940.344 799.969 933.312C829.54 919.024 851.272 891.637 858.281 859.531C860.612 848.857 861.285 837.851 860.312 826.969C859.362 816.327 856.829 805.826 852.781 795.938C848.204 784.756 841.707 774.38 833.688 765.344C824.954 755.503 814.375 747.259 802.688 741.219C790.689 735.017 777.535 731.118 764.094 729.781C760.511 729.425 756.91 729.245 753.312 729.25Z" fill="#ffffff" stroke="none"/>
</g>
<path d="M721.093 814.95L625.465 827.078C618.538 827.957 615.589 823.676 618.878 817.517L664.322 732.43C666.437 728.471 670.215 728.258 672.761 731.954L724.574 807.17C727.141 810.897 725.583 814.38 721.093 814.95Z" fill="#ffffff" fill-rule="nonzero" opacity="1" stroke="none" vectornator:layerName="Curva 5"/>
</g>
</svg>
