<?xml version="1.0" encoding="UTF-8" standalone="no"?>
<!DOCTYPE svg PUBLIC "-//W3C//DTD SVG 1.1//EN" "http://www.w3.org/Graphics/SVG/1.1/DTD/svg11.dtd">
<!-- Created with Vectornator (http://vectornator.io/) -->
<svg height="100%" stroke-miterlimit="10" style="fill-rule:nonzero;clip-rule:evenodd;stroke-linecap:round;stroke-linejoin:round;" version="1.1" viewBox="0 0 1300 1024" width="100%" xml:space="preserve" xmlns="http://www.w3.org/2000/svg" xmlns:vectornator="http://vectornator.io" xmlns:xlink="http://www.w3.org/1999/xlink">
<defs/>
<g id="Capa-4" opacity="0.5" vectornator:layerName="Capa 4"/>
<g id="Capa-1" vectornator:layerName="Capa 1">
<path d="M310.802 443.352L310.802 906.259L1116.85 906.259L1116.85 443.352" fill="#f0f0f0" fill-rule="nonzero" opacity="1" stroke="none" vectornator:layerName="Curva 1"/>
<g opacity="1" vectornator:layerName="Curva 8">
<path d="M310.802 907.259L1116.85 907.259L1116.85 628.232" fill="#f0f0f0" fill-rule="nonzero" stroke="none"/>
<path d="M1116.84 618.344C1111.38 618.344 1106.94 622.751 1106.94 628.219C1106.92 696.159 1106.92 764.122 1106.91 832.062C1106.9 848.775 1106.91 865.475 1106.91 882.188C1106.91 887.231 1106.91 892.269 1106.91 897.312C1106.55 897.312 1106.2 897.313 1105.84 897.312C1099.02 897.311 1092.2 897.283 1085.38 897.281C1065.43 897.277 1045.47 897.285 1025.53 897.281C966.232 897.269 906.955 897.262 847.656 897.25C668.709 897.213 489.759 897.162 310.812 897.125C305.221 897.125 300.687 901.658 300.688 907.25C300.688 912.842 305.221 917.375 310.812 917.375C513.899 917.333 716.976 917.292 920.062 917.25C970.44 917.24 1020.81 917.229 1071.19 917.219C1083.26 917.216 1095.34 917.221 1107.41 917.219C1109.51 917.218 1111.59 917.219 1113.69 917.219C1115.47 917.218 1117.33 917.323 1119.06 916.844C1120.85 916.35 1122.51 915.392 1123.81 914.062C1124.47 913.397 1125.01 912.687 1125.47 911.875C1127.07 909.049 1126.81 906 1126.81 902.906C1126.81 901.09 1126.81 899.254 1126.81 897.438C1126.81 895.621 1126.81 893.817 1126.81 892C1126.81 874.924 1126.78 857.857 1126.78 840.781C1126.77 769.935 1126.76 699.065 1126.75 628.219C1126.75 622.751 1122.31 618.344 1116.84 618.344Z" fill="#929292" stroke="none"/>
</g>
<path d="M406.197 904.245L406.197 575.379C406.197 563.977 415.441 554.734 426.843 554.734L613.915 554.734C623.101 554.734 630.605 562.18 630.675 571.366L633.234 904.245L406.197 904.245Z" fill="#f8f7f5" fill-rule="nonzero" opacity="1" stroke="#929292" stroke-linecap="butt" stroke-linejoin="round" stroke-width="20" vectornator:layerName="Curva 2"/>
<g opacity="1" vectornator:layerName="Curva 10">
<path d="M311 474.406C305.408 474.405 300.876 478.939 300.875 484.531C300.919 608.37 300.956 732.224 301 856.062C300.999 861.53 305.439 865.936 310.906 865.938C316.374 865.939 320.811 861.53 320.812 856.062C320.919 732.224 321.019 608.37 321.125 484.531C321.126 478.939 316.592 474.408 311 474.406Z" fill="#929292" stroke="none"/>
</g>
<path d="M758.854 578.768C758.854 565.361 769.723 554.493 783.129 554.493L1003.26 554.493C1016.67 554.493 1027.54 565.361 1027.54 578.768L1027.54 748.335C1027.54 761.742 1016.67 772.611 1003.26 772.611L783.129 772.611C769.723 772.611 758.854 761.742 758.854 748.335L758.854 578.768Z" fill="#f8f7f5" fill-rule="nonzero" opacity="1" stroke="#929292" stroke-linecap="butt" stroke-linejoin="round" stroke-width="20" vectornator:layerName="Rectángulo 1"/>
<path d="M147.955 624.478L588.599 667.917L573.255 823.571L132.611 780.132L147.955 624.478Z" fill="#f8f7f5" fill-rule="nonzero" opacity="1" stroke="#929292" stroke-linecap="butt" stroke-linejoin="round" stroke-width="20" vectornator:layerName="Rectángulo 7"/>
<path d="M264.039 907.714L1172.75 907.714L1172.75 959.291L264.039 959.291L264.039 907.714Z" fill="#d5d5d5" fill-rule="nonzero" opacity="1" stroke="#929292" stroke-linecap="butt" stroke-linejoin="round" stroke-width="20" vectornator:layerName="Rectángulo 2"/>
<path d="M311.271 242.037L1117.81 242.037L1117.81 281.753L311.271 281.753L311.271 242.037Z" fill="#d9d9d9" fill-rule="nonzero" opacity="1" stroke="#929292" stroke-linecap="butt" stroke-linejoin="round" stroke-width="20" vectornator:layerName="Rectángulo 3"/>
<path d="M1117.38 285.389L1163.16 414.161L977.285 412.998L976.271 286.046L1117.38 285.389Z" fill="#d5d5d5" fill-rule="nonzero" opacity="1" stroke="#929292" stroke-linecap="butt" stroke-linejoin="round" stroke-width="20" vectornator:layerName="Curva 6"/>
<path d="M802.663 284.137L977.133 284.137L977.133 411.133L802.663 411.133L802.663 284.137Z" fill="#efeeed" fill-rule="nonzero" opacity="1" stroke="#929292" stroke-linecap="butt" stroke-linejoin="round" stroke-width="20" vectornator:layerName="Rectángulo 4"/>
<path d="M977.152 412.803L1162.64 412.803C1162.64 454.086 1121.11 487.553 1069.89 487.553C1018.67 487.553 977.152 454.086 977.152 412.803Z" fill="#d5d5d5" fill-rule="nonzero" opacity="1" stroke="#929292" stroke-linecap="butt" stroke-linejoin="round" stroke-width="20" vectornator:layerName="Óvalo 6"/>
<path d="M313.107 282.999L267.486 411.771L452.714 410.608L453.724 283.655L313.107 282.999Z" fill="#d9d9d9" fill-rule="nonzero" opacity="1" stroke="#929292" stroke-linecap="butt" stroke-linejoin="round" stroke-width="20" vectornator:layerName="Curva 7"/>
<path d="M452.846 410.413L268.005 410.413C268.005 451.696 309.383 485.163 360.426 485.163C411.468 485.163 452.846 451.696 452.846 410.413Z" fill="#d9d9d9" fill-rule="nonzero" opacity="1" stroke="#929292" stroke-linecap="butt" stroke-linejoin="round" stroke-width="20" vectornator:layerName="Óvalo 9"/>
<path d="M802.345 411.11L978.522 411.11C978.522 452.393 939.083 485.86 890.433 485.86C841.783 485.86 802.345 452.393 802.345 411.11Z" fill="#efeeed" fill-rule="nonzero" opacity="1" stroke="#929292" stroke-linecap="butt" stroke-linejoin="round" stroke-width="20" vectornator:layerName="Óvalo 5"/>
<path d="M627.725 283.686L802.195 283.686L802.195 410.681L627.725 410.681L627.725 283.686Z" fill="#d9d9d9" fill-rule="nonzero" opacity="1" stroke="#929292" stroke-linecap="butt" stroke-linejoin="round" stroke-width="20" vectornator:layerName="Rectángulo 5"/>
<path d="M627.407 410.659L803.584 410.659C803.584 451.942 764.145 485.409 715.495 485.409C666.845 485.409 627.407 451.942 627.407 410.659Z" fill="#d9d9d9" fill-rule="nonzero" opacity="1" stroke="#929292" stroke-linecap="butt" stroke-linejoin="round" stroke-width="20" vectornator:layerName="Óvalo 7"/>
<path d="M452.374 284.801L626.844 284.801L626.844 411.797L452.374 411.797L452.374 284.801Z" fill="#efeeed" fill-rule="nonzero" opacity="1" stroke="#929292" stroke-linecap="butt" stroke-linejoin="round" stroke-width="20" vectornator:layerName="Rectángulo 6"/>
<path d="M452.056 411.774L628.233 411.774C628.233 453.057 588.794 486.524 540.144 486.524C491.494 486.524 452.056 453.057 452.056 411.774Z" fill="#efeeed" fill-rule="nonzero" opacity="1" stroke="#929292" stroke-linecap="butt" stroke-linejoin="round" stroke-width="20" vectornator:layerName="Óvalo 8"/>
<g fill="#929292" opacity="1" stroke="#929292" stroke-linecap="butt" stroke-linejoin="round" stroke-width="2" vectornator:layerName="Text 1">
<path d="M227.408 722.71C227.19 724.838 226.43 727.086 225.128 729.456C223.825 731.825 221.927 734.088 219.433 736.243C216.94 738.398 213.869 740.041 210.221 741.172C206.574 742.303 202.425 742.63 197.775 742.154C194.249 741.792 191.077 741.129 188.258 740.165C185.439 739.2 182.925 737.891 180.714 736.236C178.503 734.581 176.529 732.498 174.79 729.985C173.242 727.708 171.978 725.206 170.999 722.479C170.019 719.753 169.369 716.884 169.048 713.872C168.727 710.86 168.736 707.698 169.076 704.385C169.627 699.005 170.904 694.268 172.905 690.174C174.906 686.079 177.521 682.669 180.749 679.944C183.976 677.219 187.631 675.268 191.714 674.089C195.797 672.911 200.057 672.549 204.494 673.004C209.904 673.558 214.611 675.131 218.614 677.722C222.617 680.313 225.581 683.311 227.504 686.718C229.428 690.124 230.245 693.241 229.955 696.067C229.796 697.618 229.109 698.929 227.893 700.002C226.678 701.075 225.295 701.533 223.745 701.374C222.012 701.196 220.755 700.653 219.973 699.743C219.191 698.834 218.371 697.322 217.513 695.207C216.089 691.713 214.269 689.024 212.051 687.138C209.834 685.252 206.977 684.13 203.482 683.772C197.92 683.202 193.274 684.86 189.544 688.747C185.813 692.633 183.549 698.467 182.751 706.247C182.219 711.444 182.505 715.843 183.61 719.442C184.715 723.041 186.518 725.828 189.018 727.804C191.518 729.781 194.562 730.952 198.148 731.32C202.038 731.719 205.427 731.091 208.315 729.437C211.202 727.783 213.521 725.156 215.272 721.558C216.03 719.855 216.892 718.492 217.857 717.47C218.821 716.448 220.246 716.033 222.13 716.226C223.741 716.391 225.066 717.095 226.106 718.338C227.145 719.581 227.58 721.039 227.408 722.71Z"/>
<path d="M275.667 727.657L251.323 725.161C251.063 727.991 251.378 730.542 252.266 732.813C253.154 735.085 254.461 736.862 256.188 738.145C257.915 739.427 259.887 740.182 262.106 740.41C263.595 740.562 264.973 740.527 266.24 740.304C267.506 740.08 268.755 739.655 269.987 739.029C271.218 738.403 272.363 737.714 273.423 736.963C274.483 736.212 275.863 735.186 277.562 733.886C278.257 733.404 279.196 733.224 280.382 733.346C281.658 733.477 282.656 733.932 283.374 734.712C284.093 735.492 284.387 736.52 284.256 737.797C284.141 738.921 283.565 740.191 282.53 741.605C281.494 743.019 280.016 744.326 278.097 745.527C276.177 746.727 273.825 747.646 271.042 748.282C268.259 748.918 265.12 749.057 261.625 748.699C253.631 747.879 247.65 744.963 243.68 739.949C239.71 734.935 238.125 728.523 238.926 720.712C239.303 717.035 240.199 713.679 241.616 710.646C243.032 707.612 244.905 705.078 247.232 703.044C249.56 701.01 252.32 699.55 255.513 698.664C258.705 697.778 262.171 697.527 265.909 697.91C270.772 698.409 274.838 699.862 278.108 702.27C281.378 704.678 283.712 707.597 285.111 711.027C286.51 714.456 287.037 717.858 286.691 721.232C286.37 724.362 285.266 726.299 283.377 727.042C281.489 727.785 278.919 727.99 275.667 727.657ZM252.047 718.095L274.613 720.408C274.746 716.122 273.925 712.821 272.15 710.505C270.376 708.188 267.863 706.863 264.611 706.53C261.511 706.212 258.856 707.023 256.645 708.961C254.435 710.9 252.902 713.945 252.047 718.095Z"/>
<path d="M310.539 735.562L309.474 745.956C309.215 748.478 308.429 750.31 307.114 751.449C305.8 752.589 304.23 753.066 302.407 752.879C300.614 752.695 299.205 751.906 298.181 750.511C297.157 749.116 296.773 747.172 297.028 744.68L300.58 710.033C301.153 704.44 303.46 701.851 307.503 702.266C309.569 702.477 310.992 703.284 311.769 704.684C312.547 706.084 312.851 708.066 312.68 710.628C314.431 708.228 316.156 706.454 317.856 705.308C319.555 704.161 321.711 703.722 324.325 703.99C326.939 704.258 329.41 705.171 331.737 706.731C334.065 708.29 335.119 710.148 334.897 712.306C334.742 713.826 334.089 715.026 332.939 715.906C331.789 716.786 330.607 717.164 329.391 717.04C328.935 716.993 327.862 716.599 326.172 715.858C324.482 715.116 322.969 714.677 321.631 714.54C319.808 714.353 318.269 714.679 317.016 715.518C315.763 716.357 314.721 717.686 313.89 719.505C313.058 721.324 312.388 723.52 311.878 726.094C311.369 728.667 310.922 731.823 310.539 735.562Z"/>
<path d="M352.416 739.854L351.35 750.248C351.092 752.771 350.305 754.602 348.99 755.742C347.676 756.882 346.107 757.358 344.283 757.171C342.49 756.987 341.081 756.198 340.057 754.803C339.033 753.408 338.649 751.465 338.904 748.973L342.456 714.325C343.029 708.733 345.337 706.144 349.379 706.558C351.446 706.77 352.868 707.576 353.646 708.976C354.424 710.377 354.727 712.358 354.557 714.92C356.308 712.52 358.033 710.747 359.732 709.6C361.431 708.454 363.588 708.014 366.201 708.282C368.815 708.55 371.286 709.464 373.614 711.023C375.942 712.582 376.995 714.441 376.774 716.599C376.618 718.118 375.965 719.318 374.815 720.199C373.666 721.079 372.483 721.457 371.267 721.332C370.811 721.285 369.738 720.891 368.048 720.15C366.358 719.408 364.845 718.969 363.508 718.832C361.684 718.645 360.146 718.971 358.893 719.81C357.64 720.649 356.597 721.978 355.766 723.797C354.935 725.616 354.264 727.812 353.755 730.386C353.245 732.96 352.799 736.116 352.416 739.854Z"/>
<path d="M411.178 756.934C407.929 758.965 404.839 760.422 401.908 761.304C398.977 762.186 395.764 762.448 392.268 762.09C389.077 761.763 386.338 760.845 384.051 759.336C381.764 757.827 380.078 755.926 378.992 753.634C377.907 751.343 377.493 748.935 377.752 746.413C378.1 743.009 379.477 740.217 381.881 738.037C384.285 735.857 387.413 734.55 391.266 734.116C392.075 734.014 394.077 733.805 397.273 733.488C400.469 733.17 403.211 732.86 405.5 732.557C407.788 732.254 410.278 731.857 412.97 731.365C413.154 728.067 412.74 725.591 411.727 723.936C410.714 722.281 408.369 721.265 404.692 720.888C401.531 720.564 399.107 720.761 397.422 721.479C395.736 722.197 394.232 723.379 392.912 725.025C391.592 726.671 390.667 727.751 390.138 728.265C389.61 728.779 388.57 728.956 387.02 728.797C385.622 728.654 384.46 728.082 383.534 727.081C382.607 726.08 382.216 724.881 382.359 723.483C382.584 721.294 383.577 719.246 385.338 717.338C387.1 715.431 389.691 713.976 393.111 712.975C396.53 711.975 400.686 711.725 405.58 712.227C411.05 712.787 415.285 713.874 418.283 715.486C421.281 717.099 423.282 719.37 424.287 722.298C425.292 725.227 425.558 729.001 425.085 733.62C424.786 736.538 424.524 739.014 424.3 741.049C424.076 743.084 423.821 745.346 423.536 747.835C423.296 750.175 423.433 752.654 423.948 755.271C424.463 757.888 424.683 759.562 424.608 760.291C424.477 761.568 423.758 762.669 422.45 763.594C421.142 764.52 419.728 764.904 418.209 764.749C416.932 764.618 415.732 763.888 414.609 762.56C413.486 761.232 412.342 759.356 411.178 756.934ZM412.203 738.842C410.311 739.323 407.587 739.758 404.031 740.146C400.474 740.534 398.01 740.834 396.637 741.047C395.264 741.259 393.917 741.812 392.597 742.706C391.277 743.599 390.523 744.958 390.336 746.781C390.143 748.666 390.693 750.342 391.986 751.811C393.279 753.279 395.08 754.132 397.39 754.369C399.852 754.621 402.179 754.314 404.372 753.449C406.564 752.583 408.234 751.349 409.381 749.747C410.699 747.978 411.579 744.935 412.021 740.62L412.203 738.842Z"/>
<path d="M471.527 763.027L471.653 761.796C469.786 763.54 467.977 764.928 466.228 765.962C464.479 766.996 462.623 767.727 460.659 768.155C458.696 768.584 456.59 768.683 454.341 768.452C451.362 768.147 448.669 767.234 446.26 765.712C443.852 764.191 441.84 762.165 440.226 759.635C438.612 757.104 437.489 754.21 436.855 750.951C436.222 747.692 436.094 744.224 436.47 740.546C437.268 732.765 439.789 726.897 444.034 722.94C448.278 718.983 453.501 717.323 459.701 717.958C463.287 718.326 466.248 719.251 468.584 720.735C470.919 722.218 473.126 724.356 475.205 727.149L477.088 708.776C477.35 706.223 478.057 704.346 479.209 703.143C480.361 701.941 481.879 701.436 483.763 701.629C485.648 701.822 487.038 702.571 487.933 703.876C488.828 705.181 489.155 707.003 488.915 709.344L483.289 764.233C483.046 766.603 482.317 768.325 481.101 769.399C479.886 770.472 478.412 770.92 476.679 770.742C474.977 770.567 473.635 769.808 472.652 768.463C471.668 767.119 471.294 765.307 471.527 763.027ZM448.92 742.237C448.574 745.61 448.804 748.536 449.609 751.014C450.415 753.492 451.668 755.425 453.369 756.813C455.069 758.2 456.998 759.004 459.156 759.225C461.344 759.45 463.401 759.085 465.326 758.13C467.252 757.176 468.874 755.576 470.195 753.332C471.515 751.087 472.356 748.201 472.717 744.676C473.057 741.363 472.809 738.459 471.975 735.962C471.141 733.466 469.869 731.493 468.159 730.043C466.45 728.593 464.501 727.756 462.313 727.532C460.033 727.298 457.931 727.735 456.005 728.843C454.08 729.951 452.499 731.662 451.264 733.977C450.028 736.292 449.247 739.045 448.92 742.237Z"/>
<path d="M546.451 752.326C546.071 756.034 545.143 759.394 543.667 762.406C542.191 765.418 540.244 767.936 537.825 769.961C535.406 771.986 532.616 773.443 529.454 774.332C526.291 775.221 522.811 775.47 519.011 775.081C515.243 774.695 511.916 773.74 509.032 772.215C506.148 770.691 503.72 768.684 501.749 766.194C499.777 763.704 498.38 760.858 497.556 757.656C496.733 754.455 496.513 750.985 496.896 747.246C497.282 743.478 498.213 740.087 499.689 737.075C501.165 734.063 503.095 731.558 505.48 729.561C507.866 727.563 510.655 726.122 513.847 725.236C517.04 724.35 520.491 724.097 524.198 724.477C527.967 724.864 531.324 725.822 534.269 727.352C537.214 728.883 539.665 730.884 541.623 733.358C543.581 735.831 544.971 738.676 545.793 741.893C546.615 745.11 546.834 748.588 546.451 752.326ZM533.96 751.045C534.48 745.97 533.768 741.904 531.824 738.849C529.88 735.793 527.023 734.072 523.254 733.686C520.823 733.437 518.616 733.848 516.633 734.919C514.649 735.991 513.03 737.706 511.775 740.065C510.519 742.424 509.724 745.244 509.387 748.527C509.054 751.779 509.256 754.671 509.995 757.204C510.733 759.736 511.956 761.743 513.662 763.223C515.369 764.703 517.468 765.571 519.96 765.826C523.729 766.213 526.876 765.1 529.401 762.487C531.926 759.874 533.446 756.06 533.96 751.045Z"/>
</g>
<path d="M360.96 521.72C362.108 510.588 372.063 502.493 383.195 503.641C394.328 504.789 402.422 514.744 401.275 525.876C400.127 537.009 390.172 545.103 379.04 543.956C367.907 542.808 359.813 532.853 360.96 521.72Z" fill="none" opacity="1" stroke="#929292" stroke-linecap="butt" stroke-linejoin="round" stroke-width="20" vectornator:layerName="Óvalo 10"/>
<path d="M427.33 651.293L385.995 544.672" fill="none" opacity="1" stroke="#929292" stroke-linecap="butt" stroke-linejoin="round" stroke-width="20" vectornator:layerName="Línea 1"/>
<path d="M311.301 639.332L374.193 543.456" fill="none" opacity="1" stroke="#929292" stroke-linecap="butt" stroke-linejoin="round" stroke-width="20" vectornator:layerName="Línea 2"/>
<g opacity="1" vectornator:layerName="Curva 9">
<path d="M1117 471.406C1111.9 471.387 1107.74 475.491 1107.72 480.594C1107.55 507.86 1107.39 535.14 1107.22 562.406C1107.2 567.625 1111.41 571.856 1116.62 571.875C1121.84 571.894 1126.11 567.688 1126.12 562.469C1126.16 535.202 1126.19 507.923 1126.22 480.656C1126.24 475.553 1122.1 471.425 1117 471.406Z" fill="#929292" stroke="none"/>
</g>
</g>
</svg>
