<?xml version="1.0" encoding="UTF-8" standalone="no"?>
<!DOCTYPE svg PUBLIC "-//W3C//DTD SVG 1.1//EN" "http://www.w3.org/Graphics/SVG/1.1/DTD/svg11.dtd">
<!-- Created with Vectornator (http://vectornator.io/) -->
<svg height="100%" stroke-miterlimit="10" style="fill-rule:nonzero;clip-rule:evenodd;stroke-linecap:round;stroke-linejoin:round;" version="1.1" viewBox="0 0 1200 1024" width="100%" xml:space="preserve" xmlns="http://www.w3.org/2000/svg" xmlns:vectornator="http://vectornator.io" xmlns:xlink="http://www.w3.org/1999/xlink">
<defs>
<path d="M2.27374e-13 155.894C2.27374e-13 70.3676 73.4299 1.03455 164.01 1.03455L1035.99 1.03455C1126.57 1.03455 1200 70.3676 1200 155.894L1200 734.49C1200 820.016 1126.57 889.349 1035.99 889.349L759.642 889.349C759.642 889.349 623.088 1024 599.894 1024C576.699 1024 441.668 889.349 441.668 889.349L164.01 889.349C73.4299 889.349 2.27374e-13 820.016 2.27374e-13 734.49L2.27374e-13 155.894Z" id="Fill"/>
<path d="M759.635 440.661C747.703 438.775 738.994 434.952 733.507 429.189C728.02 423.427 725.291 417.102 725.319 410.214C725.349 402.867 728.361 395.991 734.357 389.586C740.353 383.182 749.78 379.776 762.64 379.37L831.519 379.65L831.875 292.314C834.212 282.221 838.375 274.891 844.363 270.323C850.352 265.755 857.478 263.488 865.744 263.522C873.091 263.552 879.97 265.761 886.381 270.15C892.792 274.538 897.127 281.329 899.385 290.523L899.021 379.925L984.431 380.274C994.522 383.07 1001.97 387.348 1006.77 393.108C1011.56 398.867 1013.95 404.961 1013.92 411.39C1013.9 417.819 1011.23 423.778 1005.93 429.266C1000.63 434.755 992.688 438.856 982.115 441.568L898.771 441.228L898.414 528.811C897.906 540.748 894.198 549.343 887.288 554.595C880.379 559.848 872.791 562.458 864.526 562.424C856.26 562.39 848.923 559.835 842.515 554.757C836.107 549.68 832.236 541.858 830.901 531.291L831.269 440.953L759.635 440.661Z" id="Fill_2"/>
</defs>
<g id="Capa-1" vectornator:layerName="Capa 1"/>
<g id="Capa-3" vectornator:layerName="Capa 3">
<g opacity="1" vectornator:layerName="Rectángulo 1">
<use fill="#e5f3ff" fill-rule="nonzero" stroke="none" xlink:href="#Fill"/>
<mask height="1022.97" id="StrokeMask" maskUnits="userSpaceOnUse" width="1200" x="2.27374e-13" y="1.03455">
<rect fill="#000000" height="1022.97" stroke="none" width="1200" x="2.27374e-13" y="1.03455"/>
<use fill="#ffffff" fill-rule="evenodd" stroke="none" xlink:href="#Fill"/>
</mask>
<use fill="none" mask="url(#StrokeMask)" stroke="#4da1ed" stroke-linecap="butt" stroke-linejoin="round" stroke-width="70" xlink:href="#Fill"/>
</g>
<clipPath clip-rule="nonzero" id="ClipPath">
<use xlink:href="#Fill"/>
</clipPath>
<g clip-path="url(#ClipPath)">
<g opacity="1" vectornator:layerName="Grupo 1">
<path d="M238.585 676.563L237.687 514.644C238.292 469.509 294.5 397.716 362.607 431.688C425.332 462.974 477.703 460.889 535.319 431.957C597.256 400.856 661.907 464.421 661.609 518.761C661.401 556.528 662.993 616.897 662.993 616.897L663.223 683.269C663.255 692.746 655.599 700.459 646.122 700.497L264.14 701.997C250.104 701.986 238.663 690.599 238.585 676.563Z" fill="#4da1ed" fill-rule="nonzero" opacity="1" stroke="none" vectornator:layerName="Curva 1"/>
</g>
<path d="M315.576 278.606C315.576 205.036 375.911 145.395 450.341 145.395C524.769 145.395 585.106 205.036 585.106 278.606C585.106 352.175 524.769 411.817 450.341 411.817C375.911 411.817 315.576 352.175 315.576 278.606Z" fill="#4da1ed" fill-rule="nonzero" opacity="1" stroke="none" vectornator:layerName="Óvalo 1"/>
<g opacity="0.999523">
<use fill="#4da1ed" fill-rule="nonzero" stroke="none" xlink:href="#Fill_2"/>
<mask height="298.902" id="StrokeMask_2" maskUnits="userSpaceOnUse" width="288.605" x="725.318" y="263.522">
<rect fill="#000000" height="298.902" stroke="none" width="288.605" x="725.318" y="263.522"/>
<use fill="#ffffff" fill-rule="evenodd" stroke="none" xlink:href="#Fill_2"/>
</mask>
<use fill="none" mask="url(#StrokeMask_2)" stroke="#59abee" stroke-linecap="butt" stroke-linejoin="round" stroke-width="248.38" xlink:href="#Fill_2"/>
</g>
</g>
</g>
</svg>
