<?xml version="1.0" encoding="UTF-8" standalone="no"?>
<!DOCTYPE svg PUBLIC "-//W3C//DTD SVG 1.1//EN" "http://www.w3.org/Graphics/SVG/1.1/DTD/svg11.dtd">
<!-- Created with Vectornator (http://vectornator.io/) -->
<svg height="100%" stroke-miterlimit="10" style="fill-rule:nonzero;clip-rule:evenodd;stroke-linecap:round;stroke-linejoin:round;" version="1.1" viewBox="0 0 1600.15 1204.08" width="100%" xml:space="preserve" xmlns="http://www.w3.org/2000/svg" xmlns:vectornator="http://vectornator.io" xmlns:xlink="http://www.w3.org/1999/xlink">
<defs/>
<g id="Capa-3" vectornator:layerName="Capa 3">
<g opacity="1" vectornator:layerName="Óvalo 5">
<path d="M753.75 459.406C731.343 459.415 708.976 463.541 688.062 471.594C636.207 491.559 595.591 534.905 579.094 587.969C575.483 599.583 573.04 611.588 571.812 623.688C571.394 627.81 571.109 631.921 570.969 636.062C570.933 637.109 570.924 638.172 570.906 639.219C570.906 639.246 570.907 639.353 570.906 639.375C570.614 640.367 570.304 641.35 570.312 642.438C570.325 643.925 570.356 643.408 570.312 643.938C570.226 644.986 570.348 646.042 570.375 647.094C570.402 648.142 570.424 649.171 570.469 650.219C570.603 653.335 570.803 656.457 571.094 659.562C572.328 672.727 575.004 685.749 579.031 698.344C594.601 747.029 630.524 787.509 676.906 808.938C692.415 816.102 708.957 821.08 725.844 823.656C746.322 826.781 767.328 826.425 787.688 822.594C804.409 819.447 820.703 813.952 835.906 806.312C881.103 783.601 915.4 742.528 929.594 693.969C935.367 674.218 937.747 653.482 936.688 632.938C935.695 613.679 931.626 594.588 924.688 576.594C905.422 526.629 864.432 487.049 813.844 469.5C794.555 462.809 774.164 459.398 753.75 459.406ZM759.375 480.031C763.96 480.189 768.538 480.553 773.094 481.094C789.04 482.987 804.695 487.275 819.375 493.781C859.442 511.539 891.128 545.392 906.156 586.562C912.345 603.517 915.656 621.518 915.938 639.562C916.221 657.708 913.47 675.888 907.781 693.125C892.646 738.986 857.022 776.325 811.938 793.625C795.146 800.068 777.285 803.648 759.312 804.25C739.398 804.917 719.385 801.928 700.562 795.375C653.239 778.9 615.557 740.649 599.906 693.031C596.412 682.4 594.028 671.406 592.812 660.281C592.414 656.63 592.125 652.982 591.969 649.312C591.91 647.928 591.866 646.542 591.844 645.156C591.836 644.692 591.865 645.162 591.844 642.281C591.836 641.348 591.511 640.518 591.281 639.656C591.3 639.16 591.3 638.652 591.312 638.156C591.336 637.23 591.367 636.301 591.406 635.375C591.525 632.612 591.711 629.879 591.969 627.125C593.062 615.462 595.402 603.94 598.969 592.781C611.353 554.038 638.606 520.74 674.031 500.781C687.87 492.985 702.865 487.214 718.375 483.781C731.813 480.807 745.619 479.557 759.375 480.031Z" fill="#929292" stroke="none"/>
</g>
<g opacity="1" vectornator:layerName="Curva 1">
<path d="M758.531 804.625C706.413 803.838 653.554 812.106 606.375 835.094C595.889 840.203 585.739 846.002 576.031 852.469C557.071 865.099 539.846 880.296 524.812 897.406C500.642 924.918 482.119 957.269 469.031 991.406C457.4 1021.75 449.423 1053.41 444.969 1085.59C443.607 1095.43 442.562 1105.31 441.906 1115.22C441.513 1121.16 441.19 1127.14 441.25 1133.09C441.308 1138.72 445.934 1143.25 451.562 1143.19C457.191 1143.13 461.683 1138.5 461.625 1132.88C461.554 1127.05 461.939 1121.19 462.344 1115.38C463.015 1105.75 464.07 1096.15 465.438 1086.59C469.667 1057.04 476.91 1027.85 487.625 999.969C496.982 975.622 509.053 952.241 524.281 931.031C540.907 907.875 561.281 887.468 584.844 871.375C593.658 865.355 602.895 859.939 612.438 855.156C657.447 832.596 708.234 824.736 758.188 825.594C788.701 826.117 819.297 829.955 848.625 838.562C874.309 846.101 898.903 857.366 921.031 872.469C930.994 879.268 940.448 886.818 949.281 895.031C994.758 937.314 1022.18 995.413 1035.81 1055.31C1039.28 1070.53 1041.91 1085.98 1043.59 1101.5C1044.17 1106.78 1044.62 1112.07 1044.94 1117.38C1045.11 1120.31 1045.28 1123.25 1045.28 1126.19C1045.31 1132.13 1050.15 1136.94 1056.09 1136.91C1062.04 1136.88 1066.84 1132.04 1066.81 1126.09C1066.76 1116.12 1065.78 1106.09 1064.62 1096.19C1062.84 1080.85 1060.22 1065.59 1056.78 1050.53C1042.41 987.534 1013.45 926.451 966.125 881.531C955.83 871.76 944.768 862.828 933.031 854.844C909.584 838.893 883.596 826.904 856.438 818.812C824.702 809.357 791.591 805.124 758.531 804.625Z" fill="#929292" stroke="none"/>
</g>
<g opacity="1" vectornator:layerName="Óvalo 7">
<path d="M1175.59 464.844C1157.2 464.227 1138.67 466.974 1121.28 473.031C1077.56 488.263 1042.81 523.605 1028.34 567.594C1025.11 577.423 1022.91 587.59 1021.78 597.875C1021.41 601.237 1021.14 604.59 1021 607.969C1020.95 609.084 1020.93 610.197 1020.91 611.312C1020.6 612.331 1020.27 613.348 1020.28 614.469C1020.29 615.669 1020.36 615.252 1020.31 615.688C1020.22 616.544 1020.32 617.389 1020.34 618.25C1020.37 619.108 1020.4 619.986 1020.44 620.844C1020.55 623.394 1020.7 625.927 1020.94 628.469C1021.91 638.833 1023.97 649.091 1027.06 659.031C1031.64 673.73 1038.49 687.697 1047.31 700.312C1067.23 728.802 1097 749.919 1130.53 759.125C1145.99 763.37 1162.14 765.102 1178.16 764.281C1193.94 763.472 1209.57 760.152 1224.31 754.469C1264.46 738.991 1296.5 706.36 1311.25 665.938C1316.97 650.267 1320.02 633.647 1320.28 616.969C1320.54 600.21 1318.04 583.419 1312.78 567.5C1298.79 525.107 1265.87 490.635 1224.19 474.656C1208.67 468.709 1192.2 465.401 1175.59 464.844ZM1168.12 485.281C1179.05 485.094 1190 486.287 1200.62 488.844C1238.1 497.86 1270.01 523.771 1286.69 558.5C1293.6 572.894 1297.78 588.547 1298.97 604.469C1300.08 619.303 1298.65 634.314 1294.69 648.656C1284.07 687.093 1255.56 718.914 1218.59 733.812C1206.07 738.862 1192.73 741.886 1179.25 742.781C1164.09 743.788 1148.77 742.155 1134.19 737.875C1094.56 726.24 1062.46 695.667 1048.91 656.656C1045.76 647.601 1043.63 638.185 1042.59 628.656C1042.24 625.392 1042.02 622.094 1041.91 618.812C1041.88 618.078 1041.86 617.36 1041.84 616.625C1041.84 616.256 1041.83 616.62 1041.81 614.312C1041.81 613.393 1041.51 612.569 1041.28 611.719C1041.29 611.5 1041.28 611.281 1041.28 611.062C1041.3 610.326 1041.34 609.58 1041.38 608.844C1041.45 607.01 1041.56 605.172 1041.72 603.344C1042.42 595.116 1043.9 586.974 1046.16 579.031C1056.79 541.598 1084.31 510.542 1120.16 495.406C1131.95 490.428 1144.49 487.223 1157.22 485.938C1160.84 485.572 1164.48 485.344 1168.12 485.281Z" fill="#929292" stroke="none"/>
</g>
<g opacity="1" vectornator:layerName="Curva 3">
<path d="M1166.5 743.406C1137.56 743.599 1108.5 747.336 1080.88 756.156C1061.02 762.495 1042 771.513 1024.72 783.188C1002.21 798.395 982.934 818.046 967.562 840.406C958.959 852.921 951.669 866.204 945.281 879.969C942.911 885.075 945.144 891.161 950.25 893.531C955.356 895.902 961.411 893.668 963.781 888.562C969.693 875.835 976.382 863.54 984.344 851.969C998.28 831.713 1015.74 813.91 1036.16 800.156C1055.98 786.8 1078.26 777.403 1101.44 771.688C1123.93 766.141 1147.18 764.035 1170.31 764.188C1216.65 764.492 1263.25 774.486 1302.25 800.406C1310.31 805.763 1317.99 811.711 1325.16 818.219C1355.07 845.395 1375.53 881.35 1388.12 919.469C1394.68 939.308 1399.22 959.86 1401.78 980.594C1402.46 986.116 1402.99 991.634 1403.34 997.188C1403.45 998.933 1403.56 1000.69 1403.62 1002.44C1403.65 1003.22 1403.81 1004.16 1403.69 1004.94C1403.72 1010.88 1408.55 1015.69 1414.5 1015.66C1420.45 1015.63 1425.25 1010.76 1425.22 1004.81C1425.17 996.683 1424.38 988.535 1423.44 980.469C1421.95 967.713 1419.73 955.044 1416.84 942.531C1405.28 892.435 1382.33 843.944 1345.12 807.781C1337.52 800.389 1329.36 793.562 1320.75 787.375C1296.53 769.978 1268.78 758.013 1239.81 751.156C1215.82 745.478 1191.12 743.242 1166.5 743.406Z" fill="#929292" stroke="none"/>
</g>
<g opacity="1" vectornator:layerName="Óvalo 6">
<path d="M339.812 459.5C321.245 458.877 302.579 461.667 285.031 467.781C240.909 483.154 205.817 518.821 191.219 563.219C187.957 573.139 185.73 583.401 184.594 593.781C184.222 597.175 183.958 600.558 183.812 603.969C183.764 605.117 183.711 606.258 183.688 607.406C183.384 608.415 183.085 609.423 183.094 610.531C183.104 611.744 183.139 611.311 183.094 611.75C183.005 612.615 183.134 613.475 183.156 614.344C183.178 615.21 183.213 616.072 183.25 616.938C183.361 619.511 183.509 622.091 183.75 624.656C184.77 635.53 186.985 646.284 190.312 656.688C201.115 690.46 223.997 719.843 254 738.719C267.199 747.023 281.677 753.274 296.781 757.156C312.479 761.191 328.831 762.663 345 761.562C360.051 760.538 374.923 757.239 389 751.812C429.524 736.192 461.862 703.266 476.75 662.469C482.522 646.653 485.613 629.895 485.875 613.062C486.138 596.148 483.585 579.191 478.281 563.125C464.157 520.339 430.944 485.534 388.875 469.406C373.217 463.404 356.571 460.062 339.812 459.5ZM332.312 479.969C343.359 479.78 354.417 480.948 365.156 483.531C403.036 492.645 435.264 518.835 452.125 553.938C459.113 568.487 463.327 584.313 464.531 600.406C465.654 615.401 464.221 630.597 460.219 645.094C449.492 683.945 420.679 716.097 383.312 731.156C370.649 736.26 357.185 739.314 343.562 740.219C328.244 741.237 312.736 739.607 298 735.281C257.94 723.521 225.486 692.589 211.781 653.156C208.6 644.004 206.458 634.475 205.406 624.844C205.046 621.545 204.799 618.255 204.688 614.938C204.662 614.195 204.668 613.43 204.656 612.688C204.65 612.315 204.642 612.706 204.625 610.375C204.618 609.455 204.318 608.632 204.094 607.781C204.109 607.542 204.088 607.301 204.094 607.062C204.113 606.318 204.156 605.588 204.188 604.844C204.267 602.991 204.374 601.13 204.531 599.281C205.238 590.965 206.719 582.716 209 574.688C219.861 536.467 248.11 504.921 284.812 489.75C296.437 484.945 308.767 481.858 321.281 480.594C324.944 480.224 328.63 480.032 332.312 479.969Z" fill="#929292" stroke="none"/>
</g>
<g opacity="1" vectornator:layerName="Curva 2">
<path d="M334.656 740.656C309.791 740.564 284.833 742.929 260.656 748.875C232.397 755.825 205.405 767.726 181.812 784.844C173.812 790.648 166.235 797.041 159.125 803.906C118.902 842.741 95.5325 895.804 84.6875 950C82.1772 962.545 80.3116 975.227 79.1562 987.969C78.4786 995.442 77.9243 1002.99 78 1010.5C78.0585 1016.13 82.6836 1020.65 88.3125 1020.59C93.9414 1020.54 98.4335 1015.91 98.375 1010.28C98.2674 1003.46 98.8516 996.592 99.4688 989.812C100.562 977.796 102.316 965.861 104.688 954.031C114.722 903.977 136.105 854.548 173.406 818.75C179.841 812.575 186.703 806.841 193.938 801.625C216.234 785.55 241.882 774.648 268.625 768.531C290.224 763.591 312.431 761.665 334.562 761.812C359.009 761.975 383.538 764.71 407.156 771.156C428.671 777.029 449.343 786.054 467.938 798.406C488.738 812.223 506.643 830.101 521 850.5C529.139 862.064 535.998 874.379 542.094 887.125C544.661 892.488 551.106 894.755 556.469 892.188C561.832 889.62 564.098 883.176 561.531 877.812C554.908 863.989 547.401 850.664 538.562 838.125C522.659 815.563 502.807 795.834 479.781 780.562C462.028 768.788 442.569 759.709 422.25 753.344C393.966 744.483 364.239 740.766 334.656 740.656Z" fill="#929292" stroke="none"/>
</g>
</g>
<g id="Capa-2" vectornator:layerName="Capa 2">
<path d="M926.446 55.3407C837.007 100.533 857.124 335.925 910.572 404.489C936.108 437.246 1032.47 444.258 1032.47 444.258C1025.73 550.16 1028.16 540.423 1040.89 552.317C1068.66 578.263 1198.49 446.051 1198.49 446.051C1198.49 446.051 1407.05 454.063 1445.59 415.499C1531.67 329.369 1522.6 93.4497 1443.85 54.5314C1335.3 0.885598 1036.28-0.156394 926.446 55.3407Z" fill="#ffae73" fill-rule="nonzero" opacity="1" stroke="#ef924b" stroke-linecap="butt" stroke-linejoin="round" stroke-width="20.5585" vectornator:layerName="Curva 8"/>
<path d="M1186.99 293.657C1197.36 293.657 1202.1 286.545 1202.1 277.061L1202.1 272.023C1202.4 252.462 1209.36 244.312 1233.07 228.013C1258.56 210.823 1274.71 190.966 1274.71 162.367C1274.71 117.913 1238.55 92.4247 1193.51 92.4247C1160.02 92.4247 1130.68 108.281 1118.08 136.879C1114.97 143.845 1113.64 150.661 1113.64 156.291C1113.64 164.738 1118.53 170.666 1127.57 170.666C1135.12 170.666 1140.16 166.22 1142.38 158.959C1149.94 130.804 1168.61 120.135 1192.47 120.135C1221.37 120.135 1244.04 136.435 1244.04 162.219C1244.04 183.41 1230.85 195.264 1211.88 208.601C1188.62 224.753 1171.58 242.09 1171.58 268.17L1171.58 277.505C1171.58 286.99 1176.76 293.657 1186.99 293.657ZM1188.25 378.514C1200.11 378.514 1209.44 369.03 1209.44 357.472C1209.44 345.766 1200.11 336.43 1188.25 336.43C1176.7 336.43 1167.21 345.766 1167.21 357.472C1167.21 369.03 1176.7 378.514 1188.25 378.514Z" fill="#ffffff" fill-rule="nonzero" opacity="1" stroke="#ffffff" stroke-linecap="round" stroke-linejoin="round" stroke-width="15.3994" vectornator:layerName="Curva 9"/>
</g>
</svg>
