<?xml version="1.0" encoding="UTF-8" standalone="no"?>
<!DOCTYPE svg PUBLIC "-//W3C//DTD SVG 1.1//EN" "http://www.w3.org/Graphics/SVG/1.1/DTD/svg11.dtd">
<!-- Created with Vectornator (http://vectornator.io/) -->
<svg height="100%" stroke-miterlimit="10" style="fill-rule:nonzero;clip-rule:evenodd;stroke-linecap:round;stroke-linejoin:round;" version="1.1" viewBox="0 0 1024.42 1024" width="100%" xml:space="preserve" xmlns="http://www.w3.org/2000/svg" xmlns:vectornator="http://vectornator.io" xmlns:xlink="http://www.w3.org/1999/xlink">
<defs>
<path d="M638.529 823.324C638.529 721.584 721.005 639.108 822.745 639.108C924.485 639.108 1006.96 721.584 1006.96 823.324C1006.96 925.064 924.485 1007.54 822.745 1007.54C721.005 1007.54 638.529 925.064 638.529 823.324Z" id="Fill"/>
</defs>
<g id="Capa-3" vectornator:layerName="Capa 3">
<path d="M212.985 299.06C212.985 174.948 313.597 74.3359 437.709 74.3359C561.821 74.3359 662.433 174.948 662.433 299.06C662.433 423.172 561.821 523.784 437.709 523.784C313.597 523.784 212.985 423.172 212.985 299.06Z" fill="none" opacity="1" stroke="#828282" stroke-linecap="butt" stroke-linejoin="round" stroke-width="53.0634" vectornator:layerName="Óvalo 5"/>
<g opacity="1" vectornator:layerName="Curva 1">
<path d="M436.656 497.375C397.975 497.27 359.174 500.955 321.5 509.906C277.188 520.435 234.664 538.469 197.188 564.469C163.299 587.979 133.995 617.722 110.25 651.406C89.4657 680.89 72.8948 713.205 60.0312 746.875C43.2892 790.696 32.642 836.802 27.0625 883.344C25.2362 898.578 23.927 913.888 23.2812 929.219C22.9041 938.173 22.6506 947.195 22.9688 956.156C23.4996 970.879 35.8709 982.375 50.5938 981.844C65.3166 981.313 76.8121 968.941 76.2812 954.219C76.2847 954.326 76.2842 954.014 76.2812 953.906C76.2759 953.714 76.2544 953.539 76.25 953.344C76.2359 952.721 76.2263 952.092 76.2188 951.469C76.1961 949.592 76.2044 947.721 76.2188 945.844C76.2595 940.509 76.4152 935.173 76.6562 929.844C77.3569 914.354 78.7713 898.906 80.7812 883.531C86.8349 837.227 98.3472 791.356 116.906 748.438C128.405 721.846 142.71 696.416 160.188 673.281C173.632 655.484 188.994 639.093 206.031 624.688C239.168 596.669 278.265 576.93 319.969 565.219C355.429 555.26 392.32 550.954 429.094 550.531C469.899 550.062 510.988 554.061 550.438 564.781C590.89 575.775 629.278 594.164 662.188 620.25C678.598 633.258 693.554 648.068 706.875 664.219C724.705 685.836 739.559 709.824 751.688 735.062C772.271 777.896 785.228 824.286 792.188 871.219C794.515 886.916 796.18 902.717 797.062 918.562C797.35 923.723 797.537 928.895 797.625 934.062C797.656 935.877 797.662 937.685 797.656 939.5C797.654 940.101 797.665 940.712 797.656 941.312C797.654 941.5 797.66 941.659 797.656 941.844C797.654 941.944 797.622 942.226 797.625 942.125C797.211 956.732 808.737 968.929 823.344 969.344C837.951 969.758 850.117 958.232 850.531 943.625C850.675 938.476 850.586 933.335 850.438 928.188C850.206 920.174 849.739 912.15 849.125 904.156C847.53 883.408 844.824 862.742 841.031 842.281C824.536 753.282 787.252 666.106 721.719 602.125C710.016 590.7 697.52 580.085 684.312 570.438C645.351 541.979 600.629 522.294 553.844 510.844C515.552 501.472 476.035 497.482 436.656 497.375Z" fill="#828282" stroke="none"/>
</g>
</g>
<clipPath id="ArtboardFrame">
<rect height="1024" width="1024.42" x="0" y="0"/>
</clipPath>
<g clip-path="url(#ArtboardFrame)" id="Capa-2" vectornator:layerName="Capa 2">
<use fill="#ff8061" fill-rule="nonzero" opacity="1" stroke="#e8684a" stroke-linecap="butt" stroke-linejoin="round" stroke-width="34.3067" vectornator:layerName="Óvalo 4" xlink:href="#Fill"/>
<clipPath clip-rule="nonzero" id="ClipPath">
<use xlink:href="#Fill"/>
</clipPath>
<g clip-path="url(#ClipPath)">
<path d="M739.884 873.451C732.098 881.237 731.677 896.388 740.305 904.911C748.933 913.539 763.979 913.223 771.765 905.332L820.269 856.827L868.668 905.227C877.085 913.539 891.605 913.433 900.233 904.806C908.86 896.178 908.966 881.658 900.654 873.346L852.254 824.947L900.654 776.548C908.966 768.131 908.86 753.611 900.233 744.983C891.605 736.356 877.085 736.25 868.668 744.562L820.269 792.962L771.765 744.457C763.979 736.671 748.933 736.25 740.305 744.878C731.677 753.506 732.098 768.552 739.884 776.443L788.389 824.947L739.884 873.451Z" fill="#ffffff" opacity="1" stroke="none" vectornator:layerName="Text 1"/>
</g>
</g>
</svg>
