<?xml version="1.0" encoding="UTF-8" standalone="no"?>
<!DOCTYPE svg PUBLIC "-//W3C//DTD SVG 1.1//EN" "http://www.w3.org/Graphics/SVG/1.1/DTD/svg11.dtd">
<!-- Created with Vectornator (http://vectornator.io/) -->
<svg height="100%" stroke-miterlimit="10" style="fill-rule:nonzero;clip-rule:evenodd;stroke-linecap:round;stroke-linejoin:round;" version="1.1" viewBox="0 0 1024 1024" width="100%" xml:space="preserve" xmlns="http://www.w3.org/2000/svg" xmlns:vectornator="http://vectornator.io" xmlns:xlink="http://www.w3.org/1999/xlink">
<defs/>
<g id="Capa-1" vectornator:layerName="Capa 1"/>
<g id="Capa-3" vectornator:layerName="Capa 3">
<path d="M510.952 221.505C550.333 220.964 582.727 251.685 583.306 290.123C583.885 328.561 552.429 360.16 513.048 360.702C473.667 361.243 441.273 330.522 440.694 292.084C440.115 253.646 471.571 222.047 510.952 221.505Z" fill="#8e8e8e" fill-rule="nonzero" opacity="1" stroke="none" vectornator:layerName="Óvalo 5"/>
<path d="M511.046 442.346C550.454 441.804 582.869 472.55 583.448 511.019C584.028 549.488 552.551 581.112 513.144 581.654C473.737 582.196 441.321 551.45 440.742 512.981C440.163 474.512 471.639 442.888 511.046 442.346Z" fill="#8e8e8e" fill-rule="nonzero" opacity="1" stroke="none" vectornator:layerName="Óvalo 6"/>
<path d="M511.082 656.428C550.745 655.883 583.37 686.812 583.953 725.51C584.535 764.209 552.855 796.022 513.193 796.568C473.53 797.113 440.905 766.184 440.322 727.486C439.74 688.787 471.42 656.974 511.082 656.428Z" fill="#8e8e8e" fill-rule="nonzero" opacity="1" stroke="none" vectornator:layerName="Óvalo 7"/>
</g>
</svg>
