<?xml version="1.0" encoding="UTF-8" standalone="no"?>
<!DOCTYPE svg PUBLIC "-//W3C//DTD SVG 1.1//EN" "http://www.w3.org/Graphics/SVG/1.1/DTD/svg11.dtd">
<!-- Created with Vectornator (http://vectornator.io/) -->
<svg height="100%" stroke-miterlimit="10" style="fill-rule:nonzero;clip-rule:evenodd;stroke-linecap:round;stroke-linejoin:round;" version="1.1" viewBox="0 0 1024 1024" width="100%" xml:space="preserve" xmlns="http://www.w3.org/2000/svg" xmlns:vectornator="http://vectornator.io" xmlns:xlink="http://www.w3.org/1999/xlink">
<defs>
<path d="M0 512C0 299.923 128.942 117.961 312.706 40.2355C373.961 14.3269 441.308 0 512 0C794.77 0 1024 229.23 1024 512C1024 794.77 794.77 1024 512 1024C229.23 1024 0 794.77 0 512Z" id="Fill"/>
</defs>
<g id="Capa-1" vectornator:layerName="Capa 1">
<g opacity="1" vectornator:layerName="Óvalo 4">
<use fill="#ffffff" fill-rule="nonzero" stroke="none" xlink:href="#Fill"/>
<mask height="1024" id="StrokeMask" maskUnits="userSpaceOnUse" width="1024" x="0" y="0">
<rect fill="#000000" height="1024" stroke="none" width="1024" x="0" y="0"/>
<use fill="#ffffff" fill-rule="evenodd" stroke="none" xlink:href="#Fill"/>
</mask>
<use fill="none" mask="url(#StrokeMask)" stroke="#8e8e8e" stroke-linecap="butt" stroke-linejoin="round" stroke-width="82.4742" xlink:href="#Fill"/>
</g>
</g>
<g id="Capa-3" vectornator:layerName="Capa 3">
<path d="M510.775 209.727C556.82 209.094 594.697 245.014 595.373 289.957C596.05 334.9 559.271 371.847 513.225 372.48C467.18 373.113 429.303 337.193 428.627 292.25C427.95 247.307 464.729 210.36 510.775 209.727Z" fill="#8e8e8e" fill-rule="nonzero" opacity="1" stroke="none" vectornator:layerName="Óvalo 5"/>
<path d="M510.87 430.624C556.909 429.991 594.78 465.911 595.456 510.854C596.133 555.797 559.36 592.743 513.321 593.376C467.281 594.009 429.411 558.089 428.734 513.146C428.057 468.203 464.831 431.257 510.87 430.624Z" fill="#8e8e8e" fill-rule="nonzero" opacity="1" stroke="none" vectornator:layerName="Óvalo 6"/>
<path d="M510.912 645.122C556.974 644.488 594.864 680.408 595.541 725.351C596.218 770.294 559.425 807.241 513.363 807.874C467.3 808.508 429.411 772.588 428.734 727.645C428.057 682.702 464.85 645.755 510.912 645.122Z" fill="#8e8e8e" fill-rule="nonzero" opacity="1" stroke="none" vectornator:layerName="Óvalo 7"/>
</g>
</svg>
