<?xml version="1.0" encoding="UTF-8" standalone="no"?>
<!DOCTYPE svg PUBLIC "-//W3C//DTD SVG 1.1//EN" "http://www.w3.org/Graphics/SVG/1.1/DTD/svg11.dtd">
<!-- Created with Vectornator (http://vectornator.io/) -->
<svg height="100%" stroke-miterlimit="10" style="fill-rule:nonzero;clip-rule:evenodd;stroke-linecap:round;stroke-linejoin:round;" version="1.1" viewBox="0 0 1366.17 1210.52" width="100%" xml:space="preserve" xmlns="http://www.w3.org/2000/svg" xmlns:vectornator="http://vectornator.io" xmlns:xlink="http://www.w3.org/1999/xlink">
<defs/>
<clipPath id="ArtboardFrame">
<rect height="1210.52" width="1366.17" x="0" y="0"/>
</clipPath>
<g clip-path="url(#ArtboardFrame)" id="Capa-1" vectornator:layerName="Capa 1">
<path d="M150.583 908.241C150.583 776.691 224.585 430.02 314.348 343.811C404.111 257.602 548.313 210.903 685.287 210.903C822.261 210.903 997.231 306.336 1086.99 392.545C1176.76 478.753 1215.58 623.789 1215.58 755.34C1215.58 886.89 1217.94 923.481 1146.34 965.935C1087.88 1000.6 150.583 1039.79 150.583 908.241Z" fill="#ffe9d7" fill-rule="nonzero" opacity="1" stroke="none" vectornator:layerName="Óvalo 7"/>
<g opacity="1" vectornator:layerName="Línea 5">
<path d="M75.0312 1058.91C68.9232 1058.91 63.9688 1063.86 63.9688 1069.97C63.9688 1076.08 68.9232 1081.03 75.0312 1081.03C388.119 1081 701.194 1080.97 1014.28 1080.94C1020.34 1080.94 1025.25 1076.03 1025.25 1069.97C1025.25 1063.91 1020.34 1059 1014.28 1059C701.194 1058.97 388.119 1058.94 75.0312 1058.91Z" fill="#585858" stroke="none"/>
</g>
<g opacity="1" vectornator:layerName="Línea 6">
<path d="M421.031 498.281C414.923 498.281 409.969 503.236 409.969 509.344C409.969 515.452 414.923 520.406 421.031 520.406C734.119 520.376 1047.19 520.342 1360.28 520.312C1366.34 520.312 1371.25 515.402 1371.25 509.344C1371.25 503.285 1366.34 498.375 1360.28 498.375C1047.19 498.345 734.119 498.311 421.031 498.281Z" fill="#585858" stroke="none"/>
</g>
<path d="M689.677 466.036C688.119 484.92 674.512 499.357 658.149 499.487L610.014 499.869C593.65 499.999 579.815 485.78 577.957 466.924L562.599 311.053L702.557 309.941L689.677 466.036Z" fill="none" opacity="1" stroke="#585858" stroke-linecap="butt" stroke-linejoin="round" stroke-width="22" vectornator:layerName="Rectángulo 2"/>
<path d="M1063.93 727.721C1063.93 687.3 1092.12 653.463 1129.91 644.799L1171.06 645.538C1207.35 655.254 1234.07 688.367 1234.07 727.721C1234.07 774.705 1195.98 812.793 1149 812.793C1102.02 812.793 1063.93 774.705 1063.93 727.721Z" fill="none" opacity="1" stroke="#585858" stroke-linecap="butt" stroke-linejoin="round" stroke-width="22" vectornator:layerName="Óvalo 2"/>
<path d="M1148.85 519.265L1149 644.799" fill="none" opacity="1" stroke="#585858" stroke-linecap="butt" stroke-linejoin="round" stroke-width="22" vectornator:layerName="Línea 7"/>
<g opacity="1" vectornator:layerName="Curva 11">
<path d="M1199.22 734.281C1194.95 734.399 1190.97 737.018 1189.31 741.25C1188.32 743.765 1187.24 746.209 1185.91 748.562C1182.13 755.209 1176.76 760.875 1170.38 765.062C1167.64 766.855 1164.75 768.397 1161.72 769.625C1160.7 770.04 1159.65 770.389 1158.59 770.719C1158.29 770.813 1157.99 770.916 1157.69 771C1157.68 771.003 1157.23 771.119 1157.34 771.094C1151.39 772.442 1147.62 778.355 1148.97 784.312C1150.32 790.27 1156.26 794.004 1162.22 792.656C1167.59 791.424 1172.79 789.123 1177.59 786.469C1187.76 780.849 1196.54 772.803 1202.84 763.031C1205.65 758.684 1207.88 754.032 1209.75 749.219C1211.96 743.576 1209.14 737.237 1203.5 735.031C1202.09 734.48 1200.64 734.242 1199.22 734.281Z" fill="#585858" stroke="none"/>
</g>
<path d="M1119.48 642.333C1119.48 626.596 1132.63 613.838 1148.85 613.838C1165.06 613.838 1178.21 626.596 1178.21 642.333C1178.21 658.071 1119.48 658.071 1119.48 642.333Z" fill="#ffe9d7" fill-rule="nonzero" opacity="1" stroke="#585858" stroke-linecap="butt" stroke-linejoin="round" stroke-width="22" vectornator:layerName="Óvalo 3"/>
<path d="M283.686 975.183L333.454 975.523L333.783 1065.42L285.576 1065.74L283.686 975.183Z" fill="none" opacity="1" stroke="#585858" stroke-linecap="butt" stroke-linejoin="round" stroke-width="22" vectornator:layerName="Curva 12"/>
<path d="M162.099 958.384C157.986 964.628 162.426 972.947 169.903 973.006L447.418 975.183C454.974 975.242 459.529 966.837 455.355 960.538L393.285 866.895C391.553 864.282 388.636 862.7 385.501 862.674L231.149 861.38C227.949 861.353 224.953 862.951 223.192 865.624L162.099 958.384Z" fill="none" opacity="1" stroke="#585858" stroke-linecap="butt" stroke-linejoin="round" stroke-width="22" vectornator:layerName="Curva 13"/>
<path d="M211.707 818.08C209.392 821.509 211.813 826.137 215.95 826.193L399.703 828.655C403.953 828.712 406.474 823.925 404.023 820.453L360.038 758.143C359.097 756.81 357.586 755.996 355.955 755.943L258.696 752.811C256.909 752.754 255.217 753.618 254.216 755.1L211.707 818.08Z" fill="none" opacity="1" stroke="#585858" stroke-linecap="butt" stroke-linejoin="round" stroke-width="22" vectornator:layerName="Curva 14"/>
<path d="M252.621 705.291C248.945 710.452 252.562 717.621 258.898 717.731L358.297 719.459C364.604 719.569 368.473 712.588 365.037 707.298L317.042 633.391C314.017 628.732 307.248 628.587 304.025 633.112L252.621 705.291Z" fill="none" opacity="1" stroke="#585858" stroke-linecap="butt" stroke-linejoin="round" stroke-width="22" vectornator:layerName="Curva 15"/>
<path d="M633.966 1013.68C633.966 980.097 656.559 927.323 677.495 924.782L673.653 884.993L719.76 885.359L739.352 885.514L734.283 925.396C756.231 931.406 775.342 980.984 775.342 1013.68C775.342 1052.72 743.694 1064.37 704.654 1064.37C665.614 1064.37 633.966 1052.72 633.966 1013.68Z" fill="none" opacity="1" stroke="#585858" stroke-linecap="butt" stroke-linejoin="round" stroke-width="22" vectornator:layerName="Óvalo 5"/>
<path d="M632.578 307.226L632.578 273.245" fill="none" opacity="1" stroke="#585858" stroke-linecap="butt" stroke-linejoin="round" stroke-width="22" vectornator:layerName="Línea 8"/>
<path d="M639.275 273.207C639.275 273.207 665.331 273.074 658.983 245.511C652.636 217.948 647.686 205.173 653.607 189.362C659.528 173.55 602.432 210.259 605.28 253.794C606.668 275.014 639.275 273.207 639.275 273.207Z" fill="none" opacity="1" stroke="#585858" stroke-linecap="butt" stroke-linejoin="round" stroke-width="22" vectornator:layerName="Curva 16"/>
<path d="M908.028 465.358C908.028 459.305 912.935 454.399 918.988 454.399L1067 454.399C1073.05 454.399 1077.96 459.305 1077.96 465.358L1077.96 498.393C1077.96 504.446 1073.05 509.352 1067 509.352L918.988 509.352C912.935 509.352 908.028 504.446 908.028 498.393L908.028 465.358Z" fill="none" opacity="1" stroke="#585858" stroke-linecap="butt" stroke-linejoin="round" stroke-width="22" vectornator:layerName="Rectángulo 3"/>
<path d="M994.034 252.982L992.992 448.017" fill="none" opacity="1" stroke="#585858" stroke-linecap="butt" stroke-linejoin="round" stroke-width="22" vectornator:layerName="Línea 9"/>
<path d="M960.848 219.967C960.848 202.214 975.239 187.823 992.992 187.823C1010.74 187.823 1025.14 202.214 1025.14 219.967C1025.14 237.719 1010.74 252.111 992.992 252.111C975.239 252.111 960.848 237.719 960.848 219.967Z" fill="none" opacity="1" stroke="#585858" stroke-linecap="butt" stroke-linejoin="round" stroke-width="22" vectornator:layerName="Óvalo 6"/>
<g opacity="1" vectornator:layerName="Línea 10">
<path d="M1018.12 231.531C1015.3 231.416 1012.43 232.367 1010.19 234.438C1005.7 238.578 1005.42 245.572 1009.56 250.062C1025.43 267.228 1041.29 284.397 1057.16 301.562C1061.26 306.017 1068.2 306.294 1072.66 302.188C1077.11 298.081 1077.39 291.142 1073.28 286.688C1057.46 269.482 1041.63 252.268 1025.81 235.062C1023.74 232.817 1020.95 231.646 1018.12 231.531Z" fill="#585858" stroke="none"/>
</g>
<g opacity="1" vectornator:layerName="Línea 11">
<path d="M1027.69 208C1021.58 207.92 1016.55 212.799 1016.47 218.906C1016.39 225.014 1021.27 230.014 1027.38 230.094C1050.75 230.37 1074.13 230.661 1097.5 230.938C1103.56 231.017 1108.55 226.183 1108.62 220.125C1108.7 214.067 1103.84 209.079 1097.78 209C1074.41 208.664 1051.06 208.336 1027.69 208Z" fill="#585858" stroke="none"/>
</g>
<g opacity="1" vectornator:layerName="Línea 12">
<path d="M878.656 207.062C872.549 206.982 867.517 211.861 867.438 217.969C867.357 224.076 872.236 229.107 878.344 229.188C901.717 229.464 925.096 229.755 948.469 230.031C954.527 230.111 959.514 225.245 959.594 219.188C959.673 213.13 954.808 208.173 948.75 208.094C925.377 207.757 902.029 207.399 878.656 207.062Z" fill="#585858" stroke="none"/>
</g>
<g opacity="1" vectornator:layerName="Línea 13">
<path d="M993.344 97.75C987.236 97.7725 982.29 102.736 982.312 108.844C982.429 132.218 982.571 155.594 982.688 178.969C982.71 185.027 987.629 189.929 993.688 189.906C999.746 189.884 1004.65 184.933 1004.62 178.875C1004.57 155.5 1004.49 132.125 1004.44 108.75C1004.42 102.642 999.452 97.7275 993.344 97.75Z" fill="#585858" stroke="none"/>
</g>
<g opacity="1" vectornator:layerName="Línea 14">
<path d="M962.406 234.719C959.608 234.49 956.716 235.321 954.406 237.281C936.564 252.382 918.717 267.493 900.875 282.594C896.218 286.546 895.642 293.53 899.594 298.188C903.546 302.845 910.53 303.421 915.188 299.469C932.991 284.322 950.79 269.178 968.594 254.031C973.213 250.111 973.795 243.182 969.875 238.562C967.915 236.253 965.204 234.948 962.406 234.719Z" fill="#585858" stroke="none"/>
</g>
<g opacity="1" vectornator:layerName="Línea 15">
<path d="M1078.84 132.938C1076.05 132.708 1073.15 133.54 1070.84 135.5C1053 150.601 1035.19 165.712 1017.34 180.812C1012.69 184.764 1012.11 191.749 1016.06 196.406C1020.01 201.064 1027 201.608 1031.66 197.656C1049.46 182.51 1067.26 167.365 1085.06 152.219C1089.68 148.299 1090.23 141.401 1086.31 136.781C1084.35 134.472 1081.64 133.167 1078.84 132.938Z" fill="#585858" stroke="none"/>
</g>
<g opacity="1" vectornator:layerName="Línea 16">
<path d="M913.031 132.812C910.204 132.951 907.426 134.175 905.375 136.438C901.272 140.962 901.6 147.96 906.125 152.062C923.462 167.741 940.82 183.415 958.156 199.094C962.644 203.163 969.556 202.832 973.625 198.344C977.694 193.856 977.363 186.913 972.875 182.844C955.578 167.121 938.297 151.411 921 135.688C918.738 133.636 915.858 132.674 913.031 132.812Z" fill="#585858" stroke="none"/>
</g>
<g opacity="1" vectornator:layerName="Curva 18">
<path d="M735.812 787.531C730.329 787.655 724.857 788.688 719.812 790.875C715.149 792.897 710.964 795.876 707.469 799.562C699.734 807.72 695.507 819.139 694.594 830.25C694.379 832.859 694.554 835.511 694.594 838.125C694.649 841.711 694.726 845.289 694.781 848.875C694.946 859.633 695.116 870.398 695.281 881.156C695.379 887.263 700.393 892.129 706.5 892.031C712.607 891.934 717.472 886.888 717.375 880.781C717.188 869.511 716.999 858.27 716.812 847C716.753 843.414 716.716 839.805 716.656 836.219C716.635 834.919 716.601 833.614 716.562 832.312C716.564 832.218 716.562 832.186 716.562 832.031C716.564 832.01 716.561 831.989 716.562 831.969C716.575 831.812 716.608 831.665 716.625 831.5C716.685 830.925 716.753 830.353 716.844 829.781C717.084 828.26 717.418 826.762 717.844 825.281C719.224 820.488 721.632 815.631 725.781 812.656C727.413 811.487 729.245 810.681 731.188 810.188C733.516 809.595 735.949 809.424 738.344 809.531C742.796 809.73 747.235 811.058 750.156 814.625C752.52 817.511 753.745 821.212 754.375 824.844C754.589 826.08 754.746 827.31 754.812 828.562C754.83 828.883 754.839 829.21 754.844 829.531C754.844 829.565 754.841 830.024 754.844 829.938C754.621 835.992 759.321 841.09 765.375 841.312C771.429 841.535 776.528 836.804 776.75 830.75C776.862 827.527 776.547 824.267 776 821.094C774.432 811.998 770.463 803.172 763.531 796.906C755.953 790.056 745.86 787.305 735.812 787.531Z" fill="#585858" stroke="none"/>
</g>
<g opacity="1" vectornator:layerName="Curva 19">
<path d="M673.062 787.531C663.95 787.729 654.902 790.42 647.969 796.531C640.825 802.828 636.845 811.887 635.5 821.188C635.099 823.963 634.893 826.82 635.031 829.625C635.344 835.675 640.512 840.312 646.562 840C652.613 839.687 657.25 834.519 656.938 828.469C656.94 828.518 656.936 827.968 656.938 827.875C656.944 827.385 656.965 826.895 657 826.406C657.079 825.315 657.235 824.231 657.438 823.156C658.031 820.003 659.138 816.833 661.219 814.344C664.246 810.724 669.009 809.591 673.531 809.5C675.698 809.457 677.864 809.65 679.969 810.188C681.635 810.613 683.241 811.283 684.688 812.219C689.207 815.143 691.776 820.246 693.219 825.281C693.69 826.927 694.07 828.586 694.312 830.281C694.384 830.784 694.422 831.307 694.469 831.812C694.478 831.914 694.493 831.997 694.5 832.094C694.502 832.126 694.498 832.154 694.5 832.188C694.43 833.769 694.436 835.357 694.406 836.938C694.347 840.053 694.278 843.166 694.219 846.281C694.042 855.627 693.864 864.967 693.688 874.312C693.576 880.419 698.455 885.451 704.562 885.562C710.669 885.674 715.701 880.826 715.812 874.719C715.977 865.373 716.148 856.033 716.312 846.688C716.375 843.127 716.437 839.56 716.5 836C716.534 834.085 716.656 832.162 716.5 830.25C715.545 818.577 710.943 806.545 702.438 798.312C699.22 795.199 695.481 792.664 691.375 790.875C685.618 788.367 679.316 787.396 673.062 787.531Z" fill="#585858" stroke="none"/>
</g>
<g opacity="1" vectornator:layerName="Curva 21">
<path d="M737.125 721.625C727.059 722.443 717.275 726.042 709.719 732.875C705.935 736.297 702.807 740.412 700.406 744.906C697.215 750.881 695.157 757.642 694.594 764.406C694.403 766.69 694.559 769.024 694.594 771.312C694.658 775.546 694.717 779.767 694.781 784C694.983 797.305 695.204 810.633 695.406 823.938C695.503 830.045 700.518 834.909 706.625 834.812C712.732 834.716 717.596 829.67 717.5 823.562C717.272 809.653 717.071 795.753 716.844 781.844C716.784 778.215 716.716 774.597 716.656 770.969C716.631 769.423 716.61 767.86 716.562 766.312C716.564 766.239 716.561 766.215 716.562 766.094C716.564 766.073 716.561 766.051 716.562 766.031C716.576 765.888 716.607 765.746 716.625 765.594C716.691 765.048 716.775 764.509 716.875 763.969C717.102 762.739 717.412 761.539 717.781 760.344C718.989 756.438 720.959 752.682 723.875 749.781C727.887 745.791 733.367 743.986 738.906 743.531C743.433 743.159 747.451 743.617 751.469 745.844C754.423 747.481 757.025 749.758 759.219 752.312C760.002 753.225 760.727 754.163 761.406 755.156C761.607 755.449 761.812 755.761 762 756.062C762.015 756.086 762.24 756.469 762.188 756.375C765.119 761.677 771.792 763.619 777.094 760.688C782.396 757.756 784.307 751.083 781.375 745.781C779.838 743.015 777.93 740.43 775.875 738.031C770.183 731.387 762.885 725.992 754.5 723.312C748.869 721.514 742.991 721.149 737.125 721.625Z" fill="#585858" stroke="none"/>
</g>
<g opacity="1" vectornator:layerName="Curva 22">
<path d="M674.406 728.5C667.932 728.619 661.66 730.213 655.625 732.469C649.95 734.589 647.067 740.919 649.188 746.594C651.308 752.269 657.606 755.152 663.281 753.031C666.541 751.814 669.919 750.805 673.406 750.531C675.21 750.39 677.043 750.448 678.812 750.844C685.624 752.367 689.529 758.917 691.781 765.031C692.708 767.546 693.42 770.152 693.938 772.781C694.115 773.682 694.248 774.591 694.375 775.5C694.421 775.825 694.494 776.142 694.531 776.469C694.534 776.489 694.529 776.511 694.531 776.531C694.54 776.609 694.523 776.703 694.531 776.781C694.505 777.696 694.482 778.616 694.469 779.531C694.442 781.346 694.402 783.154 694.375 784.969C694.312 789.202 694.25 793.423 694.188 797.656C694.107 803.099 694.05 808.557 693.969 814C693.87 820.652 693.755 827.285 693.656 833.938C693.57 840.045 698.455 845.07 704.562 845.156C710.67 845.243 715.695 840.357 715.781 834.25C715.879 826.993 715.965 819.757 716.062 812.5C716.168 804.638 716.269 796.768 716.375 788.906C716.437 784.326 716.711 779.702 716.531 775.125C716.485 773.939 716.244 772.732 716.062 771.562C715.708 769.273 715.252 766.996 714.688 764.75C713.025 758.139 710.482 751.677 706.719 745.969C704.413 742.472 701.653 739.25 698.406 736.594C695.389 734.126 691.996 732.144 688.344 730.781C683.897 729.122 679.145 728.413 674.406 728.5Z" fill="#585858" stroke="none"/>
</g>
</g>
</svg>
