<?xml version="1.0" encoding="UTF-8" standalone="no"?>
<!DOCTYPE svg PUBLIC "-//W3C//DTD SVG 1.1//EN" "http://www.w3.org/Graphics/SVG/1.1/DTD/svg11.dtd">
<!-- Created with Vectornator (http://vectornator.io/) -->
<svg height="100%" stroke-miterlimit="10" style="fill-rule:nonzero;clip-rule:evenodd;stroke-linecap:round;stroke-linejoin:round;" version="1.1" viewBox="0 0 1366.17 1210.52" width="100%" xml:space="preserve" xmlns="http://www.w3.org/2000/svg" xmlns:vectornator="http://vectornator.io" xmlns:xlink="http://www.w3.org/1999/xlink">
<defs/>
<g id="Capa-1" vectornator:layerName="Capa 1">
<path d="M150.583 908.241C150.583 776.691 224.585 430.02 314.348 343.811C404.111 257.602 548.313 210.903 685.287 210.903C822.261 210.903 997.231 306.336 1086.99 392.545C1176.76 478.753 1215.58 623.789 1215.58 755.34C1215.58 886.89 1217.94 923.481 1146.34 965.935C1087.88 1000.6 150.583 1039.79 150.583 908.241Z" fill="#ffe9d7" fill-rule="nonzero" opacity="1" stroke="none" vectornator:layerName="Óvalo 4"/>
<path d="M61.1626 281.523L643.818 281.523L643.818 662.708L61.1626 662.708L61.1626 281.523Z" fill="none" opacity="1" stroke="#585858" stroke-linecap="butt" stroke-linejoin="round" stroke-width="22" vectornator:layerName="Rectángulo 1"/>
<path d="M116.079 332.966L587.658 332.966L587.658 608.978L116.079 608.978L116.079 332.966Z" fill="none" opacity="1" stroke="#585858" stroke-linecap="butt" stroke-linejoin="round" stroke-width="22" vectornator:layerName="Rectángulo 8"/>
<path d="M715.212 594.821L1318.72 594.821L1318.72 957.505L715.212 957.505L715.212 594.821Z" fill="none" opacity="1" stroke="#585858" stroke-linecap="butt" stroke-linejoin="round" stroke-width="22" vectornator:layerName="Rectángulo 5"/>
<path d="M772.577 646.906L1260.53 646.906L1260.53 904.35L772.577 904.35L772.577 646.906Z" fill="none" opacity="1" stroke="#585858" stroke-linecap="butt" stroke-linejoin="round" stroke-width="22" vectornator:layerName="Rectángulo 7"/>
<path d="M249.337 738.942L643.818 738.942L643.818 1125L249.337 1125L249.337 738.942Z" fill="none" opacity="1" stroke="#585858" stroke-linecap="butt" stroke-linejoin="round" stroke-width="22" vectornator:layerName="Rectángulo 2"/>
<path d="M309.739 796.942L583.171 796.942L583.171 1065.87L309.739 1065.87L309.739 796.942Z" fill="none" opacity="1" stroke="#585858" stroke-linecap="butt" stroke-linejoin="round" stroke-width="22" vectornator:layerName="Rectángulo 9"/>
<path d="M715.212 75.5185L1105.65 75.5185L1105.65 517.592L715.212 517.592L715.212 75.5185Z" fill="none" opacity="1" stroke="#585858" stroke-linecap="butt" stroke-linejoin="round" stroke-width="22" vectornator:layerName="Rectángulo 4"/>
<path d="M767.787 125.791L1049.85 125.791L1049.85 464.17L767.787 464.17L767.787 125.791Z" fill="none" opacity="1" stroke="#585858" stroke-linecap="butt" stroke-linejoin="round" stroke-width="22" vectornator:layerName="Rectángulo 6"/>
<path d="M351.79 873.677C351.79 853.812 367.893 837.708 387.758 837.708C407.623 837.708 423.726 853.812 423.726 873.677C423.726 893.541 407.623 909.645 387.758 909.645C367.893 909.645 351.79 893.541 351.79 873.677Z" fill="none" opacity="1" stroke="#585858" stroke-linecap="butt" stroke-linejoin="round" stroke-width="19" vectornator:layerName="Óvalo 1"/>
<path d="M399.032 1057.49C399.032 1057.49 420.028 963.926 508.226 973.165C508.226 973.165 516.053 909.035 583.171 922.875" fill="none" opacity="1" stroke="#585858" stroke-linecap="butt" stroke-linejoin="round" stroke-width="19" vectornator:layerName="Curva 1"/>
<path d="M909.224 250.873L908.764 375.151" fill="none" opacity="1" stroke="#585858" stroke-linecap="butt" stroke-linejoin="round" stroke-width="19" vectornator:layerName="Línea 1"/>
<path d="M886.587 229.549C886.587 217.554 896.312 207.83 908.307 207.83C920.302 207.83 930.026 217.554 930.026 229.549C930.026 241.544 920.302 251.268 908.307 251.268C896.312 251.268 886.587 241.544 886.587 229.549Z" fill="none" opacity="1" stroke="#585858" stroke-linecap="butt" stroke-linejoin="round" stroke-width="19" vectornator:layerName="Óvalo 2"/>
<path d="M984.903 310.688C982.402 350.563 949.269 382.131 908.764 382.131C868.79 382.131 835.996 351.387 832.739 312.254" fill="none" opacity="1" stroke="#585858" stroke-linecap="butt" stroke-linejoin="round" stroke-width="19" vectornator:layerName="Óvalo 3"/>
<path d="M968.532 307.242L985.038 291.007L1001.27 307.512L968.532 307.242Z" fill="#585858" fill-rule="nonzero" opacity="1" stroke="#585858" stroke-linecap="butt" stroke-linejoin="round" stroke-width="17" vectornator:layerName="Rectángulo 10"/>
<path d="M816.368 310.418L832.874 294.182L849.109 310.688L816.368 310.418Z" fill="#585858" fill-rule="nonzero" opacity="1" stroke="#585858" stroke-linecap="butt" stroke-linejoin="round" stroke-width="20" vectornator:layerName="Rectángulo 11"/>
<g opacity="1" vectornator:layerName="Curva 2">
<path d="M1046.78 722.844C1034.67 722.926 1022.59 724.964 1011.19 729.156C1001.55 732.7 992.465 737.737 984.281 743.938C980.622 746.71 977.149 749.721 973.844 752.906C969.676 756.924 965.746 761.183 961.531 765.156C952.061 774.084 941.799 782.285 930.438 788.688C917.917 795.743 904.144 800.226 889.781 801.25C877.794 802.105 865.892 800.668 854.062 798.844C848.849 798.041 843.959 801.599 843.156 806.812C842.353 812.026 845.943 816.916 851.156 817.719C865.282 819.893 879.488 821.422 893.781 820.062C904.122 819.079 914.298 816.666 923.969 812.875C934.898 808.591 945.146 802.647 954.625 795.75C962.244 790.206 969.391 784.053 976.188 777.531C980.842 773.064 985.155 768.236 989.969 763.938C995.722 758.801 1002.11 754.33 1009 750.844C1025.23 742.624 1043.71 740.299 1061.62 742.906C1062.39 743.018 1063.14 743.216 1063.91 743.344C1061.72 744.655 1059.53 745.951 1057.44 747.406C1043.37 757.206 1030.82 771.458 1031.25 789.531C1031.32 792.331 1031.67 795.124 1032.34 797.844C1033.08 800.829 1034.21 803.726 1035.72 806.406C1044.52 822.038 1063.66 826.582 1080.22 827.906C1089.33 828.634 1098.48 828.468 1107.59 827.969C1119.89 827.296 1132.14 825.941 1144.38 824.562C1151.41 823.769 1158.47 822.956 1165.53 822.406C1170.2 822.043 1174.92 821.695 1179.59 822.156C1184.8 822.666 1189.43 818.864 1189.94 813.656C1190.45 808.449 1186.64 803.823 1181.44 803.312C1175.66 802.75 1169.84 803.052 1164.06 803.5C1157.98 803.972 1151.91 804.635 1145.84 805.312C1126.82 807.439 1107.62 809.918 1088.44 809.344C1079.77 809.084 1070.69 808.328 1062.56 805.094C1058.96 803.659 1055.36 801.561 1053.06 798.344C1051.98 796.825 1051.23 795.122 1050.78 793.312C1048.18 782.708 1055.13 773.707 1062.81 767.188C1064.57 765.698 1066.39 764.315 1068.28 763C1070.62 761.375 1073.03 759.85 1075.5 758.438C1078.16 756.917 1080.89 755.528 1083.66 754.219C1086.11 753.057 1088.62 751.987 1091.16 751C1092.82 750.351 1094.61 749.876 1096.06 748.719C1096.49 748.382 1096.89 748.032 1097.25 747.625C1097.73 747.081 1098.19 746.513 1098.53 745.875C1098.96 745.08 1099.33 744.255 1099.53 743.375C1099.75 742.427 1099.84 741.439 1099.78 740.469C1099.73 739.592 1099.5 738.74 1099.22 737.906C1098.83 736.746 1098.16 735.696 1097.38 734.781C1095.85 733.004 1093.64 732.171 1091.53 731.312C1090.15 730.748 1088.75 730.218 1087.34 729.719C1083.78 728.454 1080.14 727.385 1076.47 726.469C1070.68 725.026 1064.81 723.993 1058.88 723.406C1054.85 723.008 1050.82 722.816 1046.78 722.844Z" fill="#585858" stroke="none"/>
</g>
<path d="M258.47 453.502L408.165 453.502L408.165 497.71C408.165 530.85 381.3 557.715 348.159 557.715L318.476 557.715C285.336 557.715 258.47 530.85 258.47 497.71L258.47 453.502Z" fill="none" opacity="1" stroke="#585858" stroke-linecap="butt" stroke-linejoin="round" stroke-width="19" vectornator:layerName="Rectángulo 12"/>
<path d="M404.246 526.097C404.246 526.097 441.982 526.274 447.837 496.873C454.65 462.665 415.11 462.665 415.11 462.665" fill="none" opacity="1" stroke="#585858" stroke-linecap="butt" stroke-linejoin="round" stroke-width="19" vectornator:layerName="Curva 3"/>
<g opacity="1" vectornator:layerName="Curva 4">
<path d="M299.438 364.312C298.224 364.107 296.96 364.136 295.688 364.438C290.596 365.642 287.452 370.721 288.656 375.812C289.331 378.668 289.501 380.971 287.656 383.438C287.171 384.086 286.43 384.846 285.875 385.406C284.903 386.388 284.264 386.969 283.25 387.938C280.446 390.615 277.723 393.404 275.812 396.812C275.006 398.251 274.342 399.772 273.844 401.344C270.878 410.69 274.323 420.347 278.656 428.656C281.102 433.33 286.858 435.134 291.531 432.688C296.205 430.241 298.009 424.486 295.562 419.812C294.754 418.274 293.995 416.707 293.344 415.094C292.489 412.974 291.1 409.27 292.062 406.938C292.52 405.829 293.226 404.913 294.031 404.031C294.775 403.217 295.58 402.45 296.375 401.688C297.507 400.601 298.329 399.855 299.438 398.719C301.292 396.818 302.95 394.839 304.375 392.594C308.431 386.203 308.79 378.636 307.094 371.469C306.191 367.65 303.078 364.93 299.438 364.312Z" fill="#585858" stroke="none"/>
</g>
<g opacity="1" vectornator:layerName="Curva 5">
<path d="M341.781 364.312C340.568 364.107 339.273 364.136 338 364.438C332.908 365.642 329.765 370.721 330.969 375.812C331.643 378.668 331.845 380.971 330 383.438C329.515 384.086 328.774 384.846 328.219 385.406C327.246 386.388 326.577 386.969 325.562 387.938C322.758 390.615 320.067 393.404 318.156 396.812C317.35 398.251 316.686 399.772 316.188 401.344C313.222 410.69 316.636 420.347 320.969 428.656C323.415 433.33 329.201 435.134 333.875 432.688C338.549 430.241 340.352 424.486 337.906 419.812C337.097 418.274 336.307 416.707 335.656 415.094C334.801 412.974 333.443 409.27 334.406 406.938C334.864 405.829 335.569 404.913 336.375 404.031C337.119 403.217 337.924 402.45 338.719 401.688C339.851 400.601 340.673 399.855 341.781 398.719C343.636 396.818 345.293 394.839 346.719 392.594C350.775 386.203 351.103 378.636 349.406 371.469C348.503 367.65 345.421 364.93 341.781 364.312Z" fill="#585858" stroke="none"/>
</g>
<g opacity="1" vectornator:layerName="Curva 6">
<path d="M385 364.312C383.787 364.107 382.523 364.136 381.25 364.438C376.158 365.642 373.015 370.721 374.219 375.812C374.893 378.668 375.095 380.971 373.25 383.438C372.765 384.086 372.024 384.846 371.469 385.406C370.496 386.388 369.827 386.969 368.812 387.938C366.008 390.615 363.317 393.404 361.406 396.812C360.6 398.251 359.936 399.772 359.438 401.344C356.472 410.69 359.886 420.347 364.219 428.656C366.665 433.33 372.451 435.134 377.125 432.688C381.799 430.241 383.602 424.486 381.156 419.812C380.347 418.274 379.557 416.707 378.906 415.094C378.051 412.974 376.662 409.27 377.625 406.938C378.083 405.829 378.819 404.913 379.625 404.031C380.369 403.217 381.174 402.45 381.969 401.688C383.101 400.601 383.923 399.855 385.031 398.719C386.886 396.818 388.543 394.839 389.969 392.594C394.025 386.203 394.353 378.636 392.656 371.469C391.753 367.65 388.64 364.93 385 364.312Z" fill="#585858" stroke="none"/>
</g>
</g>
</svg>
