<?xml version="1.0" encoding="UTF-8" standalone="no"?>
<!DOCTYPE svg PUBLIC "-//W3C//DTD SVG 1.1//EN" "http://www.w3.org/Graphics/SVG/1.1/DTD/svg11.dtd">
<!-- Created with Vectornator (http://vectornator.io/) -->
<svg height="100%" stroke-miterlimit="10" style="fill-rule:nonzero;clip-rule:evenodd;stroke-linecap:round;stroke-linejoin:round;" version="1.1" viewBox="0 0 1366.17 1210.52" width="100%" xml:space="preserve" xmlns="http://www.w3.org/2000/svg" xmlns:vectornator="http://vectornator.io" xmlns:xlink="http://www.w3.org/1999/xlink">
<defs/>
<g id="Capa-1" vectornator:layerName="Capa 1">
<path d="M150.583 908.241C150.583 776.691 224.585 430.02 314.348 343.811C404.111 257.602 548.313 210.903 685.287 210.903C822.261 210.903 997.231 306.336 1086.99 392.545C1176.76 478.753 1215.58 623.789 1215.58 755.34C1215.58 886.89 1217.94 923.481 1146.34 965.935C1087.88 1000.6 150.583 1039.79 150.583 908.241Z" fill="#ffe9d7" fill-rule="nonzero" opacity="1" stroke="none" vectornator:layerName="Óvalo 3"/>
<g opacity="1" vectornator:layerName="Línea 10">
<path d="M708.531 865C702.423 865 697.469 869.954 697.469 876.062C697.499 889.547 697.533 903.015 697.562 916.5C697.562 922.558 702.473 927.469 708.531 927.469C714.59 927.469 719.5 922.559 719.5 916.5C719.53 903.015 719.564 889.547 719.594 876.062C719.594 869.954 714.639 865 708.531 865Z" fill="#585858" stroke="none"/>
</g>
<path d="M517.097 518.942C521.848 476.25 557.937 443.955 600.893 443.955L818.422 443.955C861.481 443.955 897.622 476.401 902.247 519.211L950.776 968.342C956.163 1018.2 917.1 1061.71 866.951 1061.71L550.91 1061.71C500.653 1061.71 461.556 1018.02 467.115 968.074L517.097 518.942Z" fill="none" opacity="1" stroke="#585858" stroke-linecap="butt" stroke-linejoin="round" stroke-width="22.0174" vectornator:layerName="Rectángulo 1"/>
<g opacity="1" vectornator:layerName="Línea 5">
<path d="M77.75 1050.66C71.6372 1050.66 66.6875 1055.61 66.6875 1061.72C66.6875 1067.83 71.6371 1072.78 77.75 1072.78C480.764 1072.75 883.767 1072.72 1286.78 1072.69C1292.84 1072.69 1297.78 1067.78 1297.78 1061.72C1297.78 1055.66 1292.84 1050.72 1286.78 1050.72C883.767 1050.69 480.764 1050.69 77.75 1050.66Z" fill="#585858" stroke="none"/>
</g>
<path d="M633.144 408.678L787.363 408.678L787.363 443.955L633.144 443.955L633.144 408.678Z" fill="none" opacity="1" stroke="#585858" stroke-linecap="butt" stroke-linejoin="round" stroke-width="22.0174" vectornator:layerName="Rectángulo 2"/>
<path d="M533.487 487.885L887.02 487.885" fill="none" opacity="1" stroke="#585858" stroke-linecap="butt" stroke-linejoin="round" stroke-width="22.0174" vectornator:layerName="Línea 6"/>
<path d="M489.712 808.284C489.712 808.284 548.443 822.364 618.792 804.554C689.142 786.743 727.362 750.52 798.525 733.145C869.687 715.77 920.766 733.168 920.766 733.168" fill="none" opacity="1" stroke="#585858" stroke-linecap="butt" stroke-linejoin="round" stroke-width="22.0174" vectornator:layerName="Línea 7"/>
<g opacity="1" vectornator:layerName="Línea 8">
<path d="M476.344 921.969C470.231 921.969 465.281 926.919 465.281 933.031C465.281 939.144 470.231 944.125 476.344 944.125C512.935 944.095 549.534 944.061 586.125 944.031C592.188 944.031 597.094 939.094 597.094 933.031C597.094 926.968 592.188 922.063 586.125 922.062C549.534 922.033 512.934 921.999 476.344 921.969Z" fill="#585858" stroke="none"/>
</g>
<g opacity="1" vectornator:layerName="Línea 9">
<path d="M828.531 921.094C822.418 921.094 817.469 926.044 817.469 932.156C817.469 938.269 822.419 943.25 828.531 943.25C865.951 943.22 903.393 943.186 940.812 943.156C946.876 943.156 951.781 938.219 951.781 932.156C951.781 926.093 946.876 921.187 940.812 921.188C903.393 921.158 865.951 921.124 828.531 921.094Z" fill="#585858" stroke="none"/>
</g>
<g opacity="1" vectornator:layerName="Curva 1">
<path d="M754.062 895.219C752.636 895.392 751.231 895.865 749.906 896.625C744.608 899.665 742.773 906.421 745.812 911.719C749.015 917.285 750.999 923.391 751.438 929.812C751.846 935.801 750.971 941.895 748.812 947.5C746.901 952.463 744.015 957.028 740.375 960.906C737.042 964.457 733.1 967.435 728.75 969.625C725.128 971.449 721.246 972.722 717.25 973.406C697.903 976.719 678.725 965.799 671.656 947.5C669.716 942.478 668.786 937.099 668.906 931.719C669.065 924.616 671.091 917.768 674.625 911.625C677.645 906.373 675.846 899.677 670.594 896.656C665.342 893.636 658.645 895.436 655.625 900.688C652.655 905.854 650.339 911.341 648.875 917.125C644.662 933.772 647.499 951.836 656.656 966.375C659.897 971.52 663.873 976.202 668.438 980.219C673.536 984.707 679.338 988.383 685.594 991.031C692.707 994.042 700.374 995.709 708.094 995.969C715.88 996.231 723.7 995.084 731.062 992.531C738.787 989.853 745.954 985.647 752.094 980.25C758.715 974.43 764.116 967.222 767.812 959.219C771.852 950.473 773.832 940.846 773.625 931.219C773.394 920.459 770.337 910.039 765 900.719C762.72 896.745 758.341 894.7 754.062 895.219Z" fill="#585858" stroke="none"/>
</g>
<g opacity="1" vectornator:layerName="Línea 11">
<path d="M661.156 266.812C655.098 266.812 650.187 271.723 650.188 277.781C650.158 307.703 650.124 337.61 650.094 367.531C650.094 373.639 655.048 378.594 661.156 378.594C667.264 378.594 672.219 373.639 672.219 367.531C672.189 337.61 672.155 307.703 672.125 277.781C672.125 271.723 667.215 266.812 661.156 266.812Z" fill="#585858" stroke="none"/>
</g>
<g opacity="1" vectornator:layerName="Línea 12">
<path d="M710.281 205.812C704.223 205.812 699.313 210.723 699.312 216.781C699.283 267.036 699.249 317.276 699.219 367.531C699.219 373.639 704.173 378.594 710.281 378.594C716.389 378.594 721.344 373.639 721.344 367.531C721.314 317.276 721.28 267.036 721.25 216.781C721.25 210.723 716.34 205.812 710.281 205.812Z" fill="#585858" stroke="none"/>
</g>
<g opacity="1" vectornator:layerName="Línea 13">
<path d="M758.406 245.812C752.348 245.812 747.438 250.723 747.438 256.781C747.408 293.703 747.374 330.61 747.344 367.531C747.344 373.639 752.298 378.594 758.406 378.594C764.514 378.594 769.469 373.639 769.469 367.531C769.439 330.61 769.405 293.703 769.375 256.781C769.375 250.723 764.465 245.812 758.406 245.812Z" fill="#585858" stroke="none"/>
</g>
<g opacity="1" vectornator:layerName="Óvalo 1">
<path d="M875.156 96.6562C862.583 97.151 850.076 99.47 838.156 103.5C801.572 115.869 772.03 144.198 758.062 180.156C752.997 193.196 750.233 206.902 749.375 220.844C749.001 226.94 753.622 232.189 759.719 232.562C765.815 232.936 771.064 228.284 771.438 222.188C772.15 210.52 774.421 199.074 778.656 188.156C790.477 157.684 815.754 133.848 846.906 123.844C857.428 120.465 868.48 118.678 879.531 118.594C891.854 118.5 904.162 120.509 915.812 124.531C928.174 128.799 939.735 135.327 949.812 143.656C960.231 152.268 968.985 162.787 975.562 174.594C982.611 187.246 987.065 201.326 988.656 215.719C989.887 226.853 989.387 238.172 987.188 249.156C986.249 253.842 984.924 258.431 983.438 262.969C981.55 268.726 984.681 274.925 990.438 276.812C996.194 278.7 1002.39 275.538 1004.28 269.781C1006.04 264.418 1007.58 259.007 1008.69 253.469C1011.45 239.723 1012 225.539 1010.28 211.625C1008.08 193.768 1002.19 176.473 993.062 160.969C984.789 146.923 973.868 134.482 961.031 124.438C948.481 114.617 934.169 107.081 918.938 102.375C904.803 98.0079 889.938 96.0746 875.156 96.6562Z" fill="#585858" stroke="none"/>
</g>
<g opacity="1" vectornator:layerName="Óvalo 2">
<path d="M591.75 167.156C573.951 167.869 556.527 174.617 542.719 186.656C536.559 192.027 531.221 198.344 527 205.344C521.875 213.844 518.406 223.326 516.812 233.125C515.109 243.603 515.666 254.183 518.219 264.469C519.695 270.396 525.698 274.008 531.625 272.531C537.552 271.055 541.164 265.052 539.688 259.125C537.727 251.292 537.34 243.234 538.844 235.281C540.259 227.798 543.241 220.626 547.5 214.312C550.532 209.819 554.196 205.766 558.375 202.312C574.703 188.82 597.431 185.18 616.938 193.688C621.786 195.802 626.331 198.647 630.344 202.094C640.901 211.163 647.769 224.659 649.688 238.375C650.237 242.303 650.151 246.232 650.156 250.188C650.162 254.772 650.176 259.353 650.188 263.938C650.219 276.68 650.346 289.446 650.188 302.188C650.11 308.245 654.942 313.204 661 313.281C667.058 313.358 672.048 308.495 672.125 302.438C672.31 288.208 672.18 273.98 672.156 259.75C672.14 250.334 672.612 240.828 670.844 231.531C667.333 213.078 657.446 195.626 642.75 183.812C636.931 179.135 630.432 175.332 623.5 172.562C613.265 168.474 602.429 166.729 591.75 167.156Z" fill="#585858" stroke="none"/>
</g>
<g opacity="1" vectornator:layerName="Línea 14">
<path d="M609.25 96.9062C603.669 96.9108 598.073 97.1987 592.5 97.6562C587.011 98.104 582.927 102.917 583.375 108.406C583.823 113.896 588.636 117.979 594.125 117.531C600.679 117 607.237 116.717 613.812 116.938C632.243 117.556 650.783 121.933 666.312 132.188C670.215 134.764 673.887 137.689 677.281 140.906C684.859 148.089 691.01 156.771 695.438 166.219C696.829 169.188 698.044 172.226 699.062 175.344C699.422 176.444 699.768 177.568 700.062 178.688C700.154 179.036 700.231 179.368 700.312 179.719C700.323 179.764 700.41 180.08 700.406 180.062C701.497 185.507 706.774 189.028 712.219 187.938C717.663 186.847 721.216 181.538 720.125 176.094C719.475 172.878 718.451 169.708 717.344 166.625C715.364 161.112 712.876 155.789 710 150.688C705.825 143.281 700.79 136.356 694.938 130.188C690.597 125.613 685.809 121.462 680.688 117.781C664.627 106.238 645.521 99.9159 625.969 97.7812C620.403 97.1736 614.831 96.9017 609.25 96.9062Z" fill="#585858" stroke="none"/>
</g>
<g opacity="1" vectornator:layerName="Curva 2">
<path d="M879.812 153.844C878.434 153.911 877.04 154.238 875.719 154.875C863.234 160.898 852.638 169.485 844.312 180.594C836.506 191.009 831.085 203.103 828.094 215.75C823.185 236.505 824.421 258.971 833.875 278.281C836.831 284.319 840.571 289.988 844.906 295.125C861.219 314.458 885.321 325.24 910.312 327.062C918.142 327.633 926.005 327.344 933.75 326.031C945.227 324.086 956.303 319.916 966.25 313.875C978.982 306.143 989.793 295.385 997.531 282.656C1006.35 268.145 1010.86 251.514 1011 234.562C1011.05 228.647 1006.29 223.828 1000.38 223.781C994.459 223.734 989.609 228.49 989.562 234.406C989.466 247.507 986.033 260.309 979.219 271.531C973.07 281.657 964.415 290.231 954.188 296.219C944.355 301.976 933.16 305.295 921.781 305.875C897.921 307.091 872.937 297.668 858.562 278.031C852.482 269.724 848.635 259.966 847.219 249.781C846.237 242.723 846.419 235.489 847.375 228.438C849.23 214.761 854.511 201.463 863.344 190.781C869.26 183.627 876.623 178.052 884.969 174.031C890.255 171.483 892.455 165.13 889.906 159.844C887.995 155.879 883.948 153.641 879.812 153.844Z" fill="#585858" stroke="none"/>
</g>
</g>
</svg>
