<?xml version="1.0" encoding="UTF-8" standalone="no"?>
<!DOCTYPE svg PUBLIC "-//W3C//DTD SVG 1.1//EN" "http://www.w3.org/Graphics/SVG/1.1/DTD/svg11.dtd">
<!-- Created with Vectornator (http://vectornator.io/) -->
<svg height="100%" stroke-miterlimit="10" style="fill-rule:nonzero;clip-rule:evenodd;stroke-linecap:round;stroke-linejoin:round;" version="1.1" viewBox="0 0 1366.17 1210.52" width="100%" xml:space="preserve" xmlns="http://www.w3.org/2000/svg" xmlns:vectornator="http://vectornator.io" xmlns:xlink="http://www.w3.org/1999/xlink">
<defs/>
<g id="Capa-1" vectornator:layerName="Capa 1">
<path d="M150.583 908.241C150.583 776.691 224.585 430.02 314.348 343.811C404.111 257.602 548.313 210.903 685.287 210.903C822.261 210.903 997.231 306.336 1086.99 392.545C1176.76 478.753 1215.58 623.789 1215.58 755.34C1215.58 886.89 1217.94 923.481 1146.34 965.935C1087.88 1000.6 150.583 1039.79 150.583 908.241Z" fill="#ffe9d7" fill-rule="nonzero" opacity="1" stroke="none" vectornator:layerName="Óvalo 4"/>
<path d="M281.441 448.266L431.727 448.256L509.754 646.203L210.677 646.203L281.441 448.266Z" fill="none" opacity="1" stroke="#585858" stroke-linecap="butt" stroke-linejoin="round" stroke-width="25.1627" vectornator:layerName="Rectángulo 1"/>
<path d="M352.493 994.696L352.493 657.262" fill="none" opacity="1" stroke="#585858" stroke-linecap="butt" stroke-linejoin="round" stroke-width="25.1627" vectornator:layerName="Línea 1"/>
<g opacity="1" vectornator:layerName="Línea 3">
<path d="M286.406 646.188C280.294 646.257 275.4 651.262 275.469 657.375C275.988 700.709 276.512 744.041 277.031 787.375C277.1 793.438 282.062 798.319 288.125 798.25C294.188 798.182 299.037 793.188 298.969 787.125C298.509 743.791 298.053 700.459 297.594 657.125C297.525 651.013 292.519 646.119 286.406 646.188Z" fill="#585858" stroke="none"/>
</g>
<path d="M272.556 787.263C272.556 779.544 278.814 773.286 286.534 773.286C294.254 773.286 300.512 779.544 300.512 787.263C300.512 794.983 294.254 801.241 286.534 801.241C278.814 801.241 272.556 794.983 272.556 787.263Z" fill="none" opacity="1" stroke="#585858" stroke-linecap="butt" stroke-linejoin="round" stroke-width="22.0174" vectornator:layerName="Óvalo 1"/>
<path d="M891.884 148.806L1060.8 148.806L1060.8 148.806C1060.8 174.943 1039.61 196.132 1013.47 196.132L939.211 196.132C913.073 196.132 891.884 174.943 891.884 148.806L891.884 148.806Z" fill="none" opacity="1" stroke="#585858" stroke-linecap="butt" stroke-linejoin="round" stroke-width="23" vectornator:layerName="Rectángulo 2"/>
<path d="M463.609 1061.45L248.434 1061.71L248.434 1061.71C248.394 1028.42 275.353 1001.39 308.649 1001.35L403.248 1001.24C436.544 1001.2 463.569 1028.16 463.609 1061.45L463.609 1061.45Z" fill="none" opacity="1" stroke="#585858" stroke-linecap="butt" stroke-linejoin="round" stroke-width="25.1627" vectornator:layerName="Rectángulo 6"/>
<g opacity="1" vectornator:layerName="Línea 4">
<path d="M977.125 189.188C970.74 189.114 965.479 194.24 965.406 200.625C965.224 219.286 965.057 237.932 964.875 256.594C964.803 262.927 969.885 268.115 976.219 268.188C982.552 268.26 987.74 263.208 987.812 256.875C988.057 238.214 988.286 219.536 988.531 200.875C988.604 194.49 983.51 189.261 977.125 189.188Z" fill="#585858" stroke="none"/>
</g>
<path d="M944.745 270.585L1007.94 270.585L1028.17 374.906L924.515 374.906L944.745 270.585Z" fill="none" opacity="1" stroke="#585858" stroke-linecap="butt" stroke-linejoin="round" stroke-width="23" vectornator:layerName="Rectángulo 3"/>
<path d="M1129.88 270.585L1193.07 270.585L1213.3 374.906L1109.65 374.906L1129.88 270.585Z" fill="none" opacity="1" stroke="#585858" stroke-linecap="butt" stroke-linejoin="round" stroke-width="23" vectornator:layerName="Rectángulo 4"/>
<path d="M1161.47 381.191C1161.47 432.314 1120.03 473.758 1068.91 473.758C1017.78 473.758 976.341 432.314 976.341 381.191" fill="none" opacity="1" stroke="#585858" stroke-linecap="butt" stroke-linejoin="round" stroke-width="23" vectornator:layerName="Óvalo 2"/>
<path d="M760.253 273.32L823.445 273.32L843.675 377.641L740.023 377.641L760.253 273.32Z" fill="none" opacity="1" stroke="#585858" stroke-linecap="butt" stroke-linejoin="round" stroke-width="23" vectornator:layerName="Rectángulo 5"/>
<path d="M976.982 383.926C976.982 435.049 935.538 476.493 884.415 476.493C833.292 476.493 791.849 435.049 791.849 383.926" fill="none" opacity="1" stroke="#585858" stroke-linecap="butt" stroke-linejoin="round" stroke-width="23" vectornator:layerName="Óvalo 3"/>
<g opacity="1" vectornator:layerName="Línea 5">
<path d="M77.75 1050.66C71.6372 1050.66 66.6875 1055.61 66.6875 1061.72C66.6875 1067.83 71.6371 1072.78 77.75 1072.78C480.764 1072.75 883.767 1072.72 1286.78 1072.69C1292.84 1072.69 1297.78 1067.78 1297.78 1061.72C1297.78 1055.66 1292.84 1050.72 1286.78 1050.72C883.767 1050.69 480.764 1050.69 77.75 1050.66Z" fill="#585858" stroke="none"/>
</g>
</g>
</svg>
