<?xml version="1.0" encoding="UTF-8" standalone="no"?>
<!DOCTYPE svg PUBLIC "-//W3C//DTD SVG 1.1//EN" "http://www.w3.org/Graphics/SVG/1.1/DTD/svg11.dtd">
<!-- Created with Vectornator (http://vectornator.io/) -->
<svg height="100%" stroke-miterlimit="10" style="fill-rule:nonzero;clip-rule:evenodd;stroke-linecap:round;stroke-linejoin:round;" version="1.1" viewBox="0 0 1366.17 1210.52" width="100%" xml:space="preserve" xmlns="http://www.w3.org/2000/svg" xmlns:vectornator="http://vectornator.io" xmlns:xlink="http://www.w3.org/1999/xlink">
<defs/>
<g id="Capa-1" vectornator:layerName="Capa 1">
<path d="M150.583 908.241C150.583 776.691 224.585 430.02 314.348 343.811C404.111 257.602 548.313 210.903 685.287 210.903C822.261 210.903 997.231 306.336 1086.99 392.545C1176.76 478.753 1215.58 623.789 1215.58 755.34C1215.58 886.89 1217.94 923.481 1146.34 965.935C1087.88 1000.6 150.583 1039.79 150.583 908.241Z" fill="#ffe9d7" fill-rule="nonzero" opacity="1" stroke="none" vectornator:layerName="Óvalo 3"/>
<g opacity="1" vectornator:layerName="Línea 13">
<path d="M523.656 929.25C519.646 930.004 516.298 933.106 515.375 937.344C513.515 945.752 511.641 954.155 509.781 962.562C508.541 968.259 512.147 973.885 517.844 975.125C523.541 976.365 529.166 972.728 530.406 967.031C532.21 958.611 534.009 950.201 535.812 941.781C537.043 936.131 533.463 930.542 527.812 929.312C526.4 929.005 524.993 928.999 523.656 929.25Z" fill="#585858" stroke="none"/>
</g>
<path d="M149.715 712.666L610.273 712.666L610.273 783.722L149.715 783.722L149.715 712.666Z" fill="none" opacity="1" stroke="#585858" stroke-linecap="butt" stroke-linejoin="round" stroke-width="22" vectornator:layerName="Rectángulo 5"/>
<g opacity="1" vectornator:layerName="Rectángulo 6">
<path d="M208.344 774.031C204.484 774.031 201.017 773.789 197.656 776.406C196.769 777.097 196.033 777.866 195.375 778.781C194.149 780.487 193.421 782.506 193.25 784.594C193.103 786.387 193.522 788.294 193.812 790.062C194.168 792.224 194.52 794.37 194.875 796.531C197.362 811.663 199.857 826.806 202.344 841.938C211.758 899.221 221.179 956.498 230.594 1013.78C232.785 1027.11 234.965 1040.45 237.156 1053.78C237.512 1055.94 237.863 1058.09 238.219 1060.25C238.554 1062.29 238.78 1064.37 239.719 1066.25C240.746 1068.31 242.387 1070.01 244.375 1071.16C248.102 1073.31 253.308 1072.75 257.438 1072.75C258.735 1072.75 260.046 1072.75 261.344 1072.75C263.29 1072.75 265.21 1072.75 267.156 1072.75C283.378 1072.75 299.622 1072.75 315.844 1072.75C376.836 1072.76 437.82 1072.78 498.812 1072.78C504.921 1072.78 509.875 1067.83 509.875 1061.72C509.875 1055.61 504.921 1050.66 498.812 1050.66C438.469 1050.66 378.125 1050.65 317.781 1050.66C302.858 1050.66 287.924 1050.69 273 1050.69C268.33 1050.69 263.67 1050.69 259 1050.69C258.914 1050.17 258.836 1049.65 258.75 1049.12C257.683 1042.64 256.63 1036.14 255.562 1029.66C252.302 1009.84 249.042 990.033 245.781 970.219C238.964 928.789 232.161 887.368 225.344 845.938C223.032 831.887 220.718 817.831 218.406 803.781C217.981 801.2 217.55 798.613 217.125 796.031C218.851 796.031 220.586 796.031 222.312 796.031C233.015 796.03 243.703 796.032 254.406 796.031C287.446 796.028 320.492 796.034 353.531 796.031C399.6 796.027 445.681 796.004 491.75 796C507.106 795.999 522.456 796.001 537.812 796C541.222 796 544.622 796 548.031 796C547.068 800.609 546.119 805.203 545.156 809.812C541.56 827.022 537.94 844.228 534.344 861.438C533.104 867.368 536.914 873.198 542.844 874.438C548.774 875.677 554.573 871.868 555.812 865.938C560.183 845.041 564.567 824.146 568.938 803.25C569.366 801.201 569.79 799.142 570.219 797.094C570.733 794.635 571.267 792.177 571.781 789.719C572.076 788.309 572.418 786.886 572.406 785.438C572.385 782.878 571.532 780.389 569.938 778.375C569.225 777.476 568.438 776.749 567.5 776.094C564.017 773.661 559.926 774.063 555.938 774.062C554.076 774.062 552.236 774.063 550.375 774.062C548.514 774.062 546.643 774.063 544.781 774.062C525.237 774.061 505.701 774.033 486.156 774.031C415.424 774.025 344.701 774.038 273.969 774.031C256.286 774.03 238.589 774.033 220.906 774.031C218.58 774.031 216.264 774.031 213.938 774.031C212.076 774.031 210.205 774.031 208.344 774.031Z" fill="#585858" stroke="none"/>
</g>
<g opacity="1" vectornator:layerName="Curva 10">
<path d="M466.219 1050.66C460.106 1050.66 455.156 1055.61 455.156 1061.72C455.156 1067.83 460.106 1072.78 466.219 1072.78C739.742 1072.75 1013.26 1072.72 1286.78 1072.69C1292.84 1072.69 1297.78 1067.78 1297.78 1061.72C1297.78 1055.66 1292.84 1050.72 1286.78 1050.72C1013.26 1050.69 739.742 1050.69 466.219 1050.66Z" fill="#585858" stroke="none"/>
</g>
<g opacity="1" vectornator:layerName="Línea 5">
<path d="M77.75 1050.66C71.6372 1050.66 66.6875 1055.61 66.6875 1061.72C66.6875 1067.83 71.6371 1072.78 77.75 1072.78C207.241 1072.75 336.728 1072.72 466.219 1072.69C472.282 1072.69 477.219 1067.78 477.219 1061.72C477.219 1055.66 472.282 1050.72 466.219 1050.72C336.728 1050.69 207.241 1050.69 77.75 1050.66Z" fill="#585858" stroke="none"/>
</g>
<path d="M480.937 969.929L680.604 969.929C705.95 969.929 726.496 990.475 726.496 1015.82L726.496 1015.82C726.496 1041.17 705.95 1061.71 680.604 1061.71L526.829 1061.71C501.484 1061.71 480.937 1041.17 480.937 1015.82L480.937 969.929Z" fill="none" opacity="1" stroke="#585858" stroke-linecap="butt" stroke-linejoin="round" stroke-width="21" vectornator:layerName="Rectángulo 7"/>
<path d="M603.624 964.593C603.624 964.593 600.107 861.92 698.158 870.457C698.158 870.457 714.24 969.929 603.624 964.593Z" fill="none" opacity="1" stroke="#585858" stroke-linecap="butt" stroke-linejoin="round" stroke-width="21" vectornator:layerName="Curva 7"/>
<path d="M603.593 964.593C603.593 964.593 607.004 861.92 511.888 870.457C511.888 870.457 496.287 969.929 603.593 964.593Z" fill="none" opacity="1" stroke="#585858" stroke-linecap="butt" stroke-linejoin="round" stroke-width="21" vectornator:layerName="Curva 8"/>
<path d="M637.959 879.531C637.959 879.531 621.784 844.801 604.122 831.112C604.122 831.112 578.619 856.434 569.16 880.425" fill="none" opacity="1" stroke="#585858" stroke-linecap="butt" stroke-linejoin="round" stroke-width="21" vectornator:layerName="Curva 9"/>
<path d="M283.987 712.666L486.845 712.666L486.845 342.132C486.845 286.115 441.434 240.703 385.416 240.703L385.416 240.703C329.398 240.703 283.987 286.115 283.987 342.132L283.987 712.666Z" fill="none" opacity="1" stroke="#585858" stroke-linecap="butt" stroke-linejoin="round" stroke-width="22" vectornator:layerName="Rectángulo 8"/>
<path d="M119.47 460.775C119.47 432.15 142.577 408.894 171.201 408.709L171.201 408.709C200.088 408.523 223.604 431.888 223.604 460.775L223.604 514.113C223.604 523.068 230.867 530.326 239.823 530.319L283.987 530.285L284.083 624.039L203.271 624.039C156.989 624.039 119.47 586.52 119.47 540.238L119.47 460.775Z" fill="none" opacity="1" stroke="#585858" stroke-linecap="butt" stroke-linejoin="round" stroke-width="22" vectornator:layerName="Rectángulo 9"/>
<path d="M564.194 342.569C564.194 321.473 581.296 304.372 602.391 304.372L602.391 304.372C623.487 304.372 640.588 321.473 640.588 342.569L640.588 433.055C640.588 472.214 608.847 503.961 569.688 503.968L486.845 503.989L486.845 434.164L550.053 434.141C557.864 434.139 564.194 427.806 564.194 419.996L564.194 342.569Z" fill="none" opacity="1" stroke="#585858" stroke-linecap="butt" stroke-linejoin="round" stroke-width="22" vectornator:layerName="Rectángulo 10"/>
<g opacity="1" vectornator:layerName="Línea 6">
<path d="M386.188 231.25C383.771 231.056 381.273 231.804 379.281 233.5C375.223 236.971 371.845 241.344 368.75 245.656C363.384 253.133 358.876 261.208 354.969 269.531C348.876 282.511 344.221 296.17 340.594 310.031C335.971 327.695 332.986 345.752 331.125 363.906C329.777 377.057 329.016 390.285 328.719 403.5C328.493 413.504 328.602 423.494 328.594 433.5C328.576 454.046 328.549 474.61 328.531 495.156C328.471 564.784 328.435 634.403 328.375 704.031C328.371 709.306 332.631 713.59 337.906 713.594C343.181 713.597 347.465 709.306 347.469 704.031C347.505 636.686 347.526 569.345 347.562 502C347.574 480.313 347.582 458.625 347.594 436.938C347.602 420.832 347.46 404.747 348.281 388.656C349.239 369.878 351.274 351.113 354.906 332.656C357.706 318.431 361.423 304.349 366.562 290.781C370.499 280.391 375.272 270.22 381.312 260.875C383.345 257.73 385.528 254.682 387.938 251.812C388.69 250.917 389.441 250.033 390.25 249.188C390.573 248.85 390.912 248.51 391.25 248.188C391.284 248.156 391.655 247.826 391.562 247.906C395.546 244.514 396.017 238.546 392.625 234.562C390.929 232.571 388.604 231.444 386.188 231.25Z" fill="#585858" stroke="none"/>
</g>
<g opacity="1" vectornator:layerName="Línea 7">
<path d="M385.062 231.25C382.64 231.339 380.25 232.334 378.469 234.25C374.907 238.083 375.136 244.094 378.969 247.656C378.938 247.628 379.429 248.108 379.531 248.219C379.821 248.532 380.097 248.864 380.375 249.188C381.161 250.101 381.899 251.038 382.625 252C384.913 255.033 386.97 258.246 388.875 261.531C394.36 270.991 398.618 281.137 402.156 291.469C406.734 304.836 410.057 318.603 412.562 332.5C416.014 351.64 417.875 371.047 418.719 390.469C419.408 406.332 419.242 422.22 419.25 438.094C419.26 459.781 419.271 481.469 419.281 503.156C419.313 570.121 419.343 637.066 419.375 704.031C419.378 709.306 423.662 713.597 428.938 713.594C434.213 713.59 438.503 709.306 438.5 704.031C438.444 634.403 438.369 564.784 438.312 495.156C438.296 474.61 438.298 454.046 438.281 433.5C438.273 423.5 438.363 413.499 438.156 403.5C437.884 390.31 437.203 377.136 435.969 364C434.27 345.913 431.519 327.892 427.281 310.219C423.842 295.877 419.422 281.726 413.469 268.219C409.801 259.896 405.55 251.762 400.406 244.25C397.88 240.561 395.159 236.816 391.875 233.75C389.959 231.969 387.485 231.161 385.062 231.25Z" fill="#585858" stroke="none"/>
</g>
<g opacity="1" vectornator:layerName="Línea 8">
<path d="M172.688 467.719C167.731 467.764 163.767 471.825 163.812 476.781C163.933 490.562 164.036 504.313 164.156 518.094C164.186 521.539 164.22 524.992 164.25 528.438C164.294 533.418 164.49 538.328 165.531 543.219C166.807 549.21 169.058 554.954 172.188 560.219C180.613 574.394 195.167 584.384 211.438 587.094C216.556 587.946 221.706 587.859 226.875 587.844C231.481 587.83 236.081 587.826 240.688 587.812C255.165 587.769 269.648 587.731 284.125 587.688C289.122 587.671 293.142 583.591 293.125 578.594C293.108 573.596 289.06 569.577 284.062 569.594C270.243 569.645 256.413 569.698 242.594 569.75C237.329 569.77 232.077 569.793 226.812 569.812C222.231 569.83 217.674 569.965 213.156 569.062C198.777 566.19 186.938 554.926 183.406 540.688C182.248 536.02 182.264 531.34 182.219 526.562C182.186 523.117 182.158 519.664 182.125 516.219C181.999 503.012 181.876 489.8 181.75 476.594C181.705 471.637 177.644 467.674 172.688 467.719Z" fill="#585858" stroke="none"/>
</g>
<g opacity="1" vectornator:layerName="Línea 9">
<path d="M605.688 360.75C601.006 360.704 597.171 364.444 597.125 369.125C596.986 382.889 596.827 396.674 596.688 410.438C596.653 413.878 596.629 417.309 596.594 420.75C596.573 422.785 596.596 424.844 596.438 426.875C596.168 430.319 595.442 433.715 594.281 436.969C589.73 449.732 578.473 459.469 565.188 462.125C561.12 462.938 557.062 462.858 552.938 462.844C548.517 462.828 544.077 462.828 539.656 462.812C521.973 462.751 504.308 462.687 486.625 462.625C481.905 462.61 478.046 466.436 478.031 471.156C478.016 475.876 481.843 479.704 486.562 479.719C504.246 479.768 521.942 479.826 539.625 479.875C543.677 479.886 547.729 479.895 551.781 479.906C554.893 479.915 558.018 480.014 561.125 479.812C564.851 479.571 568.552 478.946 572.156 477.969C590.327 473.043 605.138 458.869 610.875 440.938C612.199 436.799 613.041 432.52 613.375 428.188C613.561 425.772 613.571 423.327 613.594 420.906C613.626 417.465 613.655 414.035 613.688 410.594C613.817 396.83 613.933 383.076 614.062 369.312C614.108 364.631 610.369 360.796 605.688 360.75Z" fill="#585858" stroke="none"/>
</g>
<path d="M783.711 471.396L1210.6 471.396L1196.36 925.696C1193.99 1001.5 1131.85 1061.71 1056.02 1061.71L938.294 1061.71C862.458 1061.71 800.324 1001.5 797.949 925.696L783.711 471.396Z" fill="none" opacity="1" stroke="#585858" stroke-linecap="butt" stroke-linejoin="round" stroke-width="22" vectornator:layerName="Rectángulo 11"/>
<g opacity="1" vectornator:layerName="Línea 10">
<path d="M787.719 502.938C781.611 502.938 776.656 507.892 776.656 514C776.656 520.108 781.611 525.062 787.719 525.062C924.309 525.033 1060.88 524.999 1197.47 524.969C1203.53 524.969 1208.44 520.058 1208.44 514C1208.44 507.942 1203.53 503.031 1197.47 503.031C1060.88 503.001 924.309 502.967 787.719 502.938Z" fill="#585858" stroke="none"/>
</g>
<g opacity="1" vectornator:layerName="Línea 11">
<path d="M893.812 613.25C892.727 613.363 891.646 613.638 890.625 614.031C888.537 614.835 886.388 616.399 884.531 617.562C884.02 617.883 883.511 618.211 883 618.531C881.467 619.492 879.939 620.446 878.406 621.406C876.874 622.367 875.345 623.321 873.812 624.281C871.258 625.882 868.679 627.493 866.125 629.094C841.092 644.78 816.064 660.47 791.031 676.156C785.856 679.4 784.287 686.231 787.531 691.406C790.775 696.581 797.606 698.15 802.781 694.906C824.744 681.133 846.725 667.336 868.688 653.562C875.838 649.078 882.974 644.609 890.125 640.125C891.513 639.254 892.893 638.371 894.281 637.5C896.238 639.032 898.199 640.562 900.156 642.094C907.873 648.134 915.596 654.179 923.312 660.219C940.343 673.549 957.376 686.889 974.406 700.219C978.398 703.343 982.384 706.47 986.375 709.594C989.564 712.09 992.249 714.672 996.625 714.875C1001.55 715.104 1005.08 711.961 1008.84 709.344C1013.04 706.426 1017.24 703.511 1021.44 700.594C1040.63 687.257 1059.84 673.899 1079.03 660.562C1087.73 654.519 1096.43 648.481 1105.12 642.438C1107.44 640.832 1109.75 639.231 1112.06 637.625C1113.49 638.705 1114.92 639.795 1116.34 640.875C1122.55 645.579 1128.76 650.265 1134.97 654.969C1153.6 669.08 1172.22 683.202 1190.84 697.312C1195.67 700.972 1202.56 700.016 1206.22 695.188C1209.88 690.359 1208.92 683.472 1204.09 679.812C1182.37 663.342 1160.66 646.877 1138.94 630.406C1136.28 628.389 1133.6 626.361 1130.94 624.344C1129.16 622.999 1127.4 621.657 1125.62 620.312C1124.29 619.304 1122.96 618.321 1121.62 617.312C1120.21 616.239 1118.82 615.047 1117.19 614.312C1115.43 613.519 1113.49 613.129 1111.56 613.25C1107.33 613.514 1104.01 616.443 1100.69 618.75C1095.59 622.291 1090.48 625.834 1085.38 629.375C1064.37 643.954 1043.38 658.546 1022.38 673.125C1015.47 677.915 1008.59 682.71 1001.69 687.5C1000.31 688.454 998.937 689.421 997.562 690.375C995.7 688.916 993.832 687.459 991.969 686C984.254 679.957 976.558 673.887 968.844 667.844C952.35 654.924 935.837 642.013 919.344 629.094C915.087 625.76 910.85 622.428 906.594 619.094C903.706 616.832 900.806 614.052 897.062 613.375C895.983 613.18 894.898 613.137 893.812 613.25Z" fill="#585858" stroke="none"/>
</g>
<g opacity="1" vectornator:layerName="Línea 12">
<path d="M893.812 683.781C892.727 683.894 891.646 684.138 890.625 684.531C888.537 685.335 886.388 686.93 884.531 688.094C884.02 688.414 883.511 688.711 883 689.031C881.467 689.992 879.939 690.977 878.406 691.938C876.874 692.898 875.345 693.852 873.812 694.812C871.258 696.413 868.679 697.993 866.125 699.594C841.092 715.28 816.064 730.97 791.031 746.656C785.856 749.9 784.287 756.731 787.531 761.906C790.775 767.081 797.606 768.651 802.781 765.406C824.744 751.633 846.725 737.867 868.688 724.094C875.838 719.609 882.974 715.109 890.125 710.625C891.511 709.756 892.895 708.9 894.281 708.031C896.238 709.563 898.199 711.093 900.156 712.625C907.873 718.665 915.596 724.71 923.312 730.75C940.343 744.08 957.376 757.389 974.406 770.719C978.398 773.843 982.384 776.969 986.375 780.094C989.564 782.59 992.249 785.203 996.625 785.406C1001.55 785.635 1005.08 782.461 1008.84 779.844C1013.04 776.926 1017.24 774.011 1021.44 771.094C1040.63 757.757 1059.84 744.43 1079.03 731.094C1087.73 725.051 1096.43 719.012 1105.12 712.969C1107.44 711.363 1109.75 709.762 1112.06 708.156C1113.49 709.235 1114.92 710.297 1116.34 711.375C1122.55 716.079 1128.76 720.796 1134.97 725.5C1153.6 739.611 1172.22 753.702 1190.84 767.812C1195.67 771.472 1202.56 770.547 1206.22 765.719C1209.88 760.89 1208.92 754.003 1204.09 750.344C1182.37 733.873 1160.66 717.408 1138.94 700.938C1136.28 698.921 1133.6 696.892 1130.94 694.875C1129.16 693.53 1127.4 692.188 1125.62 690.844C1124.29 689.835 1122.96 688.821 1121.62 687.812C1120.21 686.739 1118.82 685.578 1117.19 684.844C1115.43 684.051 1113.49 683.661 1111.56 683.781C1107.33 684.046 1104.01 686.975 1100.69 689.281C1095.59 692.822 1090.48 696.365 1085.38 699.906C1064.37 714.485 1043.38 729.046 1022.38 743.625C1015.47 748.415 1008.59 753.21 1001.69 758C1000.31 758.954 998.937 759.921 997.562 760.875C995.7 759.416 993.832 757.959 991.969 756.5C984.254 750.457 976.558 744.418 968.844 738.375C952.35 725.456 935.837 712.544 919.344 699.625C915.087 696.291 910.85 692.959 906.594 689.625C903.706 687.363 900.806 684.552 897.062 683.875C895.983 683.68 894.898 683.668 893.812 683.781Z" fill="#585858" stroke="none"/>
</g>
</g>
</svg>
