<?xml version="1.0" encoding="UTF-8" standalone="no"?>
<!DOCTYPE svg PUBLIC "-//W3C//DTD SVG 1.1//EN" "http://www.w3.org/Graphics/SVG/1.1/DTD/svg11.dtd">
<!-- Created with Vectornator (http://vectornator.io/) -->
<svg height="100%" stroke-miterlimit="10" style="fill-rule:nonzero;clip-rule:evenodd;stroke-linecap:round;stroke-linejoin:round;" version="1.1" viewBox="0 0 1366.17 1210.52" width="100%" xml:space="preserve" xmlns="http://www.w3.org/2000/svg" xmlns:vectornator="http://vectornator.io" xmlns:xlink="http://www.w3.org/1999/xlink">
<defs/>
<g id="Capa-1" vectornator:layerName="Capa 1">
<path d="M150.583 908.241C150.583 776.691 224.585 430.02 314.348 343.811C404.111 257.602 548.313 210.903 685.287 210.903C822.261 210.903 997.231 306.336 1086.99 392.545C1176.76 478.753 1215.58 623.789 1215.58 755.34C1215.58 886.89 1217.94 923.481 1146.34 965.935C1087.88 1000.6 150.583 1039.79 150.583 908.241Z" fill="#ffe9d7" fill-rule="nonzero" opacity="1" stroke="none" vectornator:layerName="Óvalo 3"/>
<g opacity="1" vectornator:layerName="Óvalo 1">
<path d="M675.281 154.25C656.165 154.577 637.07 156.083 618.156 158.812C566.289 166.297 515.802 182.942 469.656 207.781C419.234 234.922 374.108 271.654 337.312 315.531C299.065 361.14 269.964 414.28 252.281 471.125C234.024 529.816 228.052 592.14 234.5 653.25C240.597 711.041 258.018 767.516 285.562 818.688C312.137 868.057 347.932 912.342 390.594 948.719C428.376 980.935 471.463 1006.88 517.656 1025.09C555.855 1040.16 596.118 1049.91 636.969 1054.06C693.561 1059.81 751.25 1054.91 806 1039.44C866.617 1022.3 923.36 992.284 971.75 951.969C996.258 931.55 1018.59 908.534 1038.28 883.438C1045.79 873.865 1052.87 863.958 1059.62 853.844C1063.36 848.251 1061.84 840.705 1056.25 836.969C1050.66 833.232 1043.11 834.72 1039.38 840.312C1032.96 849.913 1026.25 859.32 1019.12 868.406C1000.49 892.157 979.347 913.957 956.156 933.281C910.384 971.422 856.716 999.819 799.375 1016.03C746.408 1031.01 690.545 1035.48 635.844 1029.47C597.284 1025.23 559.348 1015.71 523.375 1001.19C478.768 983.183 437.296 957.524 401.188 925.75C362.214 891.454 329.573 850.072 305.344 804.156C279.942 756.018 263.97 703.056 258.469 648.906C252.652 591.653 258.345 533.276 275.438 478.312C292.333 423.983 320.271 373.255 357 329.812C391.994 288.423 434.823 253.778 482.656 228.281C526.425 204.952 574.258 189.407 623.375 182.531C670.562 175.926 718.895 177.208 765.656 186.375C805.612 194.207 844.378 207.808 880.469 226.656C930.032 252.54 974.386 288.253 1010.31 331.094C1041.26 367.997 1065.92 410.123 1082.84 455.219C1095.26 488.287 1103.51 522.89 1107.38 558C1109.1 573.713 1109.91 589.508 1109.97 605.312C1110 611.984 1115.42 617.37 1122.09 617.344C1128.76 617.317 1134.15 611.89 1134.12 605.219C1134.06 588.565 1133.23 571.933 1131.41 555.375C1127.33 518.266 1118.62 481.671 1105.5 446.719C1086.35 395.68 1057.79 348.264 1021.78 307.344C985.146 265.712 940.845 230.896 891.688 205.219C853.541 185.293 812.546 170.907 770.312 162.625C739.057 156.495 707.141 153.705 675.281 154.25Z" fill="#585858" stroke="none"/>
</g>
<g opacity="1" vectornator:layerName="Óvalo 2">
<path d="M690.219 89.2188C639.791 88.5296 589.215 95.067 540.75 109.031C480.529 126.383 423.51 154.578 373.438 192.312C319.745 232.775 274.03 283.439 239.562 341.188C213.738 384.455 194.313 431.506 182.156 480.406C161.185 564.76 161.939 654.345 184.281 738.344C198.283 790.986 220.774 841.317 250.531 886.938C279.879 931.931 316.274 972.29 357.969 1006.16C409.789 1048.25 469.745 1080.13 533.656 1099.44C606.773 1121.53 684.79 1127.03 760.312 1115.69C801.024 1109.57 840.977 1098.54 879.062 1082.91C930.023 1061.99 977.577 1032.79 1019.34 996.875C1044.39 975.342 1067.35 951.442 1087.88 925.562C1094.1 917.712 1100.1 909.681 1105.84 901.469C1108.38 897.837 1107.25 899.435 1113.31 890.531C1112.92 891.221 1113.11 890.882 1113.56 890.125C1113.86 889.696 1113.58 890.136 1113.91 889.656C1113.94 889.599 1113.93 889.526 1113.97 889.469C1115.51 886.886 1117.23 884.412 1118.84 881.875C1121.58 877.575 1124.24 873.254 1126.84 868.875C1135.22 854.812 1142.94 840.329 1149.94 825.531C1176.08 770.232 1192.39 710.055 1197.31 649.062C1198.97 628.591 1199.57 608.061 1198.88 587.531C1197.38 542.947 1190.12 498.551 1177.22 455.844C1161.51 403.837 1137.48 354.395 1106.34 309.875C1046.75 224.659 961.852 158.493 864.469 121.938C815.59 103.59 763.972 92.7882 711.844 89.9375C704.653 89.5442 697.423 89.3172 690.219 89.2188ZM680.781 113.375C712.102 113.23 743.441 116.054 774.219 121.812C819.063 130.203 862.698 144.903 903.469 165.375C962.26 194.896 1014.91 236.289 1057.59 286.344C1099.67 335.695 1131.89 393.346 1151.66 455.125C1167.8 505.569 1175.62 558.55 1174.97 611.5C1174.41 657.091 1167.54 702.627 1154.47 746.312C1144.89 778.318 1132.07 809.325 1116.19 838.719C1111.56 847.283 1106.65 855.693 1101.53 863.969C1100 866.444 1098.45 868.927 1096.88 871.375C1095.94 872.819 1096.13 872.532 1094 875.781C1093.96 875.831 1093.91 875.856 1093.88 875.906C1093.82 875.983 1093.95 875.817 1093.66 876.219C1091.71 878.905 1089.92 881.707 1088.03 884.438C1085.2 888.534 1082.3 892.616 1079.34 896.625C1069.51 909.97 1059.03 922.802 1047.91 935.094C1005.55 981.911 954.192 1020.52 897.375 1048.06C857.69 1067.3 815.444 1081.13 772.062 1089.06C751.882 1092.75 731.475 1095.1 711 1096.31C655.026 1099.62 598.361 1093.06 544.562 1077.31C487.269 1060.54 433.177 1033.15 385.656 997.031C312.137 941.148 254.931 864.603 222.469 778.125C204.738 730.891 194.43 680.977 191.875 630.594C189.213 578.101 194.834 525.186 208.781 474.5C224.989 415.598 252.355 359.889 288.938 310.969C337.819 245.602 402.917 192.73 477.031 158.5C523.623 136.982 573.57 122.895 624.531 116.844C643.187 114.628 661.989 113.462 680.781 113.375ZM1093.88 875.906C1094.04 875.677 1093.66 876.184 1093.66 876.125C1093.72 876.035 1093.81 875.994 1093.88 875.906Z" fill="#585858" stroke="none"/>
</g>
<g opacity="1" vectornator:layerName="Línea 1">
<path d="M678.406 889.938C672.488 889.938 667.688 894.737 667.688 900.656C667.717 924.065 667.752 947.466 667.781 970.875C667.781 976.746 672.536 981.5 678.406 981.5C684.277 981.5 689.031 976.746 689.031 970.875C689.06 947.466 689.096 924.065 689.125 900.656C689.125 894.738 684.325 889.938 678.406 889.938Z" fill="#585858" stroke="none"/>
</g>
<g opacity="1" vectornator:layerName="Línea 2">
<path d="M685.531 233.375C679.613 233.375 674.812 238.175 674.812 244.094C674.842 267.503 674.877 290.904 674.906 314.312C674.906 320.183 679.661 324.937 685.531 324.938C691.402 324.938 696.156 320.183 696.156 314.312C696.185 290.904 696.221 267.503 696.25 244.094C696.25 238.175 691.45 233.375 685.531 233.375Z" fill="#585858" stroke="none"/>
</g>
<g opacity="1" vectornator:layerName="Línea 3">
<path d="M388.656 594.062C365.248 594.145 341.846 594.23 318.438 594.312C312.567 594.326 307.83 599.098 307.844 604.969C307.857 610.839 312.629 615.576 318.5 615.562C341.909 615.538 365.31 615.524 388.719 615.5C394.637 615.487 399.42 610.669 399.406 604.75C399.393 598.831 394.575 594.049 388.656 594.062Z" fill="#585858" stroke="none"/>
</g>
<g opacity="1" vectornator:layerName="Línea 4">
<path d="M974.438 601.656C968.519 601.611 963.67 606.363 963.625 612.281C963.58 618.2 968.363 623.049 974.281 623.094C997.69 623.242 1021.09 623.383 1044.5 623.531C1050.37 623.576 1055.14 618.87 1055.19 613C1055.23 607.13 1050.53 602.326 1044.66 602.281C1021.25 602.075 997.845 601.863 974.438 601.656Z" fill="#585858" stroke="none"/>
</g>
<g opacity="1" vectornator:layerName="Línea 6">
<path d="M422 329.125C419.258 329.047 416.495 330.03 414.344 332.062C410.042 336.128 409.841 342.886 413.906 347.188C422.835 356.594 431.79 366 440.719 375.406C444.751 379.673 451.452 379.876 455.719 375.844C459.986 371.812 460.188 365.079 456.156 360.812C447.269 351.366 438.387 341.915 429.5 332.469C427.467 330.318 424.742 329.203 422 329.125Z" fill="#585858" stroke="none"/>
</g>
<g opacity="1" vectornator:layerName="Línea 8">
<path d="M472.875 826.844C470.157 826.959 467.486 828.12 465.5 830.281C457.408 839.045 449.342 847.798 441.25 856.562C437.246 860.921 437.517 867.714 441.875 871.719C446.233 875.723 453.027 875.421 457.031 871.062C465.08 862.259 473.107 853.46 481.156 844.656C485.128 840.333 484.854 833.597 480.531 829.625C478.37 827.639 475.593 826.729 472.875 826.844Z" fill="#585858" stroke="none"/>
</g>
<g opacity="1" vectornator:layerName="Línea 9">
<path d="M923.406 336.312C920.688 336.428 918.017 337.557 916.031 339.719C907.089 349.408 898.161 359.092 889.219 368.781C885.214 373.14 885.485 379.933 889.844 383.938C894.202 387.942 900.995 387.64 905 383.281C913.9 373.552 922.788 363.823 931.688 354.094C935.659 349.771 935.385 343.066 931.062 339.094C928.901 337.108 926.124 336.197 923.406 336.312Z" fill="#585858" stroke="none"/>
</g>
<g opacity="1" vectornator:layerName="Línea 7">
<path d="M908.188 837.969C905.446 837.891 902.682 838.874 900.531 840.906C896.229 844.971 896.029 851.76 900.094 856.062C908.9 865.339 917.725 874.599 926.531 883.875C930.563 888.142 937.264 888.345 941.531 884.312C945.798 880.28 946.001 873.548 941.969 869.281C933.205 859.965 924.452 850.66 915.688 841.344C913.655 839.193 910.929 838.046 908.188 837.969Z" fill="#585858" stroke="none"/>
</g>
<g opacity="1" vectornator:layerName="Curva 1">
<path d="M684.312 398.625C677.587 398.588 672.131 404.024 672.094 410.75C671.802 466.104 671.51 521.458 671.219 576.812C671.155 588.99 671.064 601.166 671 613.344C670.988 615.558 670.98 617.786 670.969 620C670.959 621.864 670.885 623.766 671.312 625.594C671.949 628.313 673.441 630.771 675.594 632.562C679.568 635.87 683.818 635.523 688.5 635.594C690.364 635.622 692.23 635.628 694.094 635.656C704.812 635.817 715.531 635.995 726.25 636.156C771.455 636.836 816.639 637.508 861.844 638.188C868.514 638.29 874.023 632.952 874.125 626.281C874.227 619.611 868.889 614.133 862.219 614.031C822.607 613.415 782.987 612.803 743.375 612.188C729.86 611.977 716.358 611.773 702.844 611.562C700.325 611.523 697.8 611.477 695.281 611.438C695.306 607.133 695.319 602.836 695.344 598.531C695.433 583.032 695.536 567.53 695.625 552.031C695.897 504.98 696.166 457.926 696.438 410.875C696.475 404.149 691.038 398.662 684.312 398.625Z" fill="#585858" stroke="none"/>
</g>
</g>
</svg>
