<?xml version="1.0" encoding="UTF-8" standalone="no"?>
<!DOCTYPE svg PUBLIC "-//W3C//DTD SVG 1.1//EN" "http://www.w3.org/Graphics/SVG/1.1/DTD/svg11.dtd">
<!-- Created with Vectornator (http://vectornator.io/) -->
<svg height="100%" stroke-miterlimit="10" style="fill-rule:nonzero;clip-rule:evenodd;stroke-linecap:round;stroke-linejoin:round;" version="1.1" viewBox="0 0 1366.17 1210.52" width="100%" xml:space="preserve" xmlns="http://www.w3.org/2000/svg" xmlns:vectornator="http://vectornator.io" xmlns:xlink="http://www.w3.org/1999/xlink">
<defs/>
<g id="Capa-1" vectornator:layerName="Capa 1">
<path d="M150.583 908.241C150.583 776.691 224.585 430.02 314.348 343.811C404.111 257.602 548.313 210.903 685.287 210.903C822.261 210.903 997.231 306.336 1086.99 392.545C1176.76 478.753 1215.58 623.789 1215.58 755.34C1215.58 886.89 1217.94 923.481 1146.34 965.935C1087.88 1000.6 150.583 1039.79 150.583 908.241Z" fill="#ffe9d7" fill-rule="nonzero" opacity="1" stroke="none" vectornator:layerName="Óvalo 2"/>
<path d="M53.828 208.883L1312.35 208.883L1312.35 1001.63L53.828 1001.63L53.828 208.883Z" fill="none" opacity="1" stroke="#585858" stroke-linecap="butt" stroke-linejoin="round" stroke-width="21.9991" vectornator:layerName="Rectángulo 1"/>
<path d="M121.328 270.5L905.793 270.5L905.793 490.913L121.328 490.913L121.328 270.5Z" fill="none" opacity="1" stroke="#585858" stroke-linecap="butt" stroke-linejoin="round" stroke-width="21.9991" vectornator:layerName="Rectángulo 2"/>
<path d="M121.328 551.899L905.793 551.899L905.793 937.9L121.328 937.9L121.328 551.899Z" fill="none" opacity="1" stroke="#585858" stroke-linecap="butt" stroke-linejoin="round" stroke-width="21.9991" vectornator:layerName="Rectángulo 3"/>
<path d="M974.208 270.5L1248.34 270.5L1248.34 937.9L974.208 937.9L974.208 270.5Z" fill="none" opacity="1" stroke="#585858" stroke-linecap="butt" stroke-linejoin="round" stroke-width="21.9991" vectornator:layerName="Rectángulo 4"/>
<path d="M1157.26 642.581L1234.09 658.402L1177.14 935.011L1090.34 933.26L1157.26 642.581Z" fill="none" opacity="1" stroke="#585858" stroke-linecap="butt" stroke-linejoin="round" stroke-width="20.9991" vectornator:layerName="Rectángulo 8"/>
<path d="M334.448 698.475C334.448 698.475 316.047 666.959 331.692 655.141C347.338 643.323 376.78 659.652 376.78 659.652" fill="none" opacity="1" stroke="#585858" stroke-linecap="butt" stroke-linejoin="round" stroke-width="20.9991" vectornator:layerName="Curva 6"/>
<path d="M351.979 700.177C351.979 700.177 383.264 636.271 414.082 638.863C446.188 641.564 427.766 698.023 427.766 698.023" fill="none" opacity="1" stroke="#585858" stroke-linecap="butt" stroke-linejoin="round" stroke-width="20.9991" vectornator:layerName="Curva 5"/>
<path d="M270.226 821.271L493.537 821.271L493.537 855.724L270.226 855.724L270.226 821.271Z" fill="none" opacity="1" stroke="#585858" stroke-linecap="butt" stroke-linejoin="round" stroke-width="20.9991" vectornator:layerName="Rectángulo 5"/>
<path d="M298.8 855.724L467.727 855.724L436.605 933.26L328.937 933.26L298.8 855.724Z" fill="none" opacity="1" stroke="#585858" stroke-linecap="butt" stroke-linejoin="round" stroke-width="20.9991" vectornator:layerName="Rectángulo 6"/>
<g opacity="1" vectornator:layerName="Curva 1">
<path d="M458.281 735.844C456.66 735.767 455.03 735.78 453.406 735.875C438.487 736.748 424.53 744.05 412.406 752.312C399.564 761.065 387.963 771.616 377.125 782.719C368.887 791.158 360.906 799.975 353.688 809.312C350.124 813.927 350.979 820.562 355.594 824.125C360.208 827.688 366.843 826.833 370.406 822.219C373.762 817.861 377.362 813.684 381 809.562C386.523 803.306 392.256 797.245 398.25 791.438C408.355 781.647 419.243 772.294 431.438 765.188C433.275 764.117 435.123 763.094 437.031 762.156C445.064 758.207 455.485 754.639 464.25 758.344C466.766 759.407 468.97 761.065 470.969 762.906C472.75 764.547 474.371 766.427 475.531 768.562C479.853 776.517 475.627 785.669 471.125 792.531C470.332 793.74 469.496 794.907 468.625 796.062C465.423 800.31 461.78 804.235 457.906 807.875C456.597 809.106 455.249 810.31 453.875 811.469C453.463 811.816 453.044 812.162 452.625 812.5C452.482 812.615 452.332 812.73 452.188 812.844C452.134 812.886 451.977 813.01 452.031 812.969C447.441 816.486 446.576 823.035 450.094 827.625C453.611 832.215 460.191 833.111 464.781 829.594C468.262 826.923 471.508 823.921 474.625 820.844C476.924 818.574 479.143 816.199 481.25 813.75C492.543 800.626 502.19 783.069 496.812 765.312C495.959 762.493 494.722 759.783 493.219 757.25C491.058 753.611 488.324 750.336 485.219 747.469C481.446 743.986 477.176 741.014 472.438 739C467.936 737.087 463.144 736.075 458.281 735.844Z" fill="#585858" stroke="none"/>
</g>
<path d="M381.274 790.232C381.274 790.232 318.85 720.292 278.992 754.251C253.084 776.324 298.8 821.271 298.8 821.271" fill="none" opacity="1" stroke="#585858" stroke-linecap="butt" stroke-linejoin="round" stroke-width="20.9991" vectornator:layerName="Curva 2"/>
<path d="M407.765 758.327C407.765 758.327 358.141 690.391 320.12 701.43C289.082 710.441 307.924 744.949 307.924 744.949" fill="none" opacity="1" stroke="#585858" stroke-linecap="butt" stroke-linejoin="round" stroke-width="20.9991" vectornator:layerName="Curva 3"/>
<path d="M373.969 719.63C373.969 719.63 424.939 690.523 446.114 708.748C462.306 722.684 444.192 746.3 444.192 746.3" fill="none" opacity="1" stroke="#585858" stroke-linecap="butt" stroke-linejoin="round" stroke-width="20.9991" vectornator:layerName="Curva 4"/>
<path d="M413.407 451.447C413.407 432.872 428.465 417.814 447.04 417.814L559.738 417.814C578.313 417.814 593.371 432.872 593.371 451.447L593.371 451.447C593.371 470.022 578.313 485.08 559.738 485.08L447.04 485.08C428.465 485.08 413.407 470.022 413.407 451.447L413.407 451.447Z" fill="none" opacity="1" stroke="#585858" stroke-linecap="butt" stroke-linejoin="round" stroke-width="20.9991" vectornator:layerName="Rectángulo 7"/>
<path d="M503.321 413.904C503.321 413.904 500.743 338.657 572.602 344.913C572.602 344.913 584.389 417.814 503.321 413.904Z" fill="none" opacity="1" stroke="#585858" stroke-linecap="butt" stroke-linejoin="round" stroke-width="20.9991" vectornator:layerName="Curva 7"/>
<path d="M503.298 413.904C503.298 413.904 505.798 338.657 436.09 344.913C436.09 344.913 424.656 417.814 503.298 413.904Z" fill="none" opacity="1" stroke="#585858" stroke-linecap="butt" stroke-linejoin="round" stroke-width="20.9991" vectornator:layerName="Curva 8"/>
<path d="M528.484 351.563C528.484 351.563 516.63 326.111 503.686 316.078C503.686 316.078 484.995 334.636 478.063 352.219" fill="none" opacity="1" stroke="#585858" stroke-linecap="butt" stroke-linejoin="round" stroke-width="20.9991" vectornator:layerName="Curva 9"/>
<path d="M1147.37 689.171L1224.49 705.05L1216.22 745.218L1139.1 729.339L1147.37 689.171Z" fill="none" opacity="1" stroke="#585858" stroke-linecap="butt" stroke-linejoin="round" stroke-width="20.9991" vectornator:layerName="Rectángulo 9"/>
<path d="M1011.9 650.848L1090.34 650.848L1090.34 933.26L1011.9 933.26L1011.9 650.848Z" fill="none" opacity="1" stroke="#585858" stroke-linecap="butt" stroke-linejoin="round" stroke-width="20.9991" vectornator:layerName="Rectángulo 10"/>
<path d="M1011.61 698.475L1090.34 698.475L1090.34 739.486L1011.61 739.486L1011.61 698.475Z" fill="none" opacity="1" stroke="#585858" stroke-linecap="butt" stroke-linejoin="round" stroke-width="20.9991" vectornator:layerName="Rectángulo 11"/>
<path d="M642.432 845.793C642.432 804.234 671.416 769.445 710.273 760.537L701.524 711.303L762.847 711.948L752.58 761.296C789.891 771.286 817.365 805.331 817.365 845.793C817.365 894.1 778.205 933.26 729.899 933.26C681.592 933.26 642.432 894.1 642.432 845.793Z" fill="none" opacity="1" stroke="#585858" stroke-linecap="butt" stroke-linejoin="round" stroke-width="20.9991" vectornator:layerName="Óvalo 1"/>
<g opacity="1" vectornator:layerName="Curva 10">
<path d="M781.562 853.344C777.484 853.456 773.673 855.961 772.094 860C771.064 862.621 769.924 865.171 768.531 867.625C764.591 874.571 759.018 880.467 752.344 884.844C749.489 886.716 746.445 888.342 743.281 889.625C742.209 890.06 741.104 890.435 740 890.781C739.681 890.881 739.384 890.974 739.062 891.062C739.027 891.072 738.583 891.205 738.656 891.188C732.97 892.475 729.4 898.126 730.688 903.812C731.975 909.499 737.626 913.068 743.312 911.781C748.76 910.532 754.037 908.161 758.906 905.469C769.24 899.756 778.156 891.591 784.562 881.656C787.415 877.233 789.688 872.521 791.594 867.625C793.699 862.239 791.042 856.168 785.656 854.062C784.31 853.536 782.922 853.306 781.562 853.344Z" fill="#585858" stroke="none"/>
</g>
</g>
</svg>
