<?xml version="1.0" encoding="UTF-8" standalone="no"?>
<!DOCTYPE svg PUBLIC "-//W3C//DTD SVG 1.1//EN" "http://www.w3.org/Graphics/SVG/1.1/DTD/svg11.dtd">
<!-- Created with Vectornator (http://vectornator.io/) -->
<svg height="100%" stroke-miterlimit="10" style="fill-rule:nonzero;clip-rule:evenodd;stroke-linecap:round;stroke-linejoin:round;" version="1.1" viewBox="0 0 1366.17 1210.52" width="100%" xml:space="preserve" xmlns="http://www.w3.org/2000/svg" xmlns:vectornator="http://vectornator.io" xmlns:xlink="http://www.w3.org/1999/xlink">
<defs/>
<g id="Capa-1" vectornator:layerName="Capa 1">
<path d="M150.583 908.241C150.583 776.691 224.585 430.02 314.348 343.811C404.111 257.602 548.313 210.903 685.287 210.903C822.261 210.903 997.231 306.336 1086.99 392.545C1176.76 478.753 1215.58 623.789 1215.58 755.34C1215.58 886.89 1217.94 923.481 1146.34 965.935C1087.88 1000.6 150.583 1039.79 150.583 908.241Z" fill="#ffe9d7" fill-rule="nonzero" opacity="1" stroke="none" vectornator:layerName="Óvalo 3"/>
<path d="M565.096 478.79L788.7 478.79L788.7 544.825C788.7 594.328 748.57 634.458 699.068 634.458L654.728 634.458C605.226 634.458 565.096 594.328 565.096 544.825L565.096 478.79Z" fill="none" opacity="1" stroke="#585858" stroke-linecap="butt" stroke-linejoin="round" stroke-width="21" vectornator:layerName="Rectángulo 12"/>
<path d="M782.846 587.229C782.846 587.229 839.214 587.492 847.96 543.575C858.137 492.478 799.074 492.478 799.074 492.478" fill="none" opacity="1" stroke="#585858" stroke-linecap="butt" stroke-linejoin="round" stroke-width="19" vectornator:layerName="Curva 3"/>
<g opacity="1" vectornator:layerName="Curva 4">
<path d="M625.438 350.656C624.288 350.461 623.081 350.496 621.875 350.781C617.051 351.922 614.078 356.739 615.219 361.562C616.072 365.172 616.561 368.96 615.406 372.562C613.964 377.061 610.1 380.42 606.781 383.562C602.585 387.535 598.418 391.601 595.562 396.688C594.533 398.522 593.667 400.463 593.031 402.469C589.044 415.045 594.066 428.124 599.875 439.25C602.192 443.678 607.635 445.411 612.062 443.094C616.49 440.776 618.224 435.303 615.906 430.875C613.528 426.343 611.277 421.625 610.188 416.594C609.635 414.041 609.392 411.318 610 408.75C610.979 404.619 614.145 401.478 617.094 398.625C620.169 395.649 623.37 392.784 626.094 389.469C627.735 387.471 629.206 385.356 630.406 383.062C634.667 374.922 634.732 366.208 632.656 357.438C631.801 353.82 628.886 351.241 625.438 350.656Z" fill="#585858" stroke="none"/>
</g>
<g opacity="1" vectornator:layerName="Curva 5">
<path d="M688.656 350.656C687.507 350.461 686.3 350.496 685.094 350.781C680.27 351.922 677.297 356.739 678.438 361.562C679.29 365.172 679.78 368.96 678.625 372.562C677.183 377.061 673.319 380.42 670 383.562C665.804 387.535 661.637 391.601 658.781 396.688C657.751 398.522 656.886 400.463 656.25 402.469C652.263 415.045 657.285 428.124 663.094 439.25C665.411 443.678 670.885 445.411 675.312 443.094C679.74 440.776 681.442 435.303 679.125 430.875C676.747 426.343 674.526 421.625 673.438 416.594C672.885 414.041 672.61 411.318 673.219 408.75C674.197 404.619 677.395 401.478 680.344 398.625C683.419 395.649 686.588 392.784 689.312 389.469C690.954 387.471 692.456 385.356 693.656 383.062C697.917 374.922 697.982 366.208 695.906 357.438C695.051 353.82 692.105 351.241 688.656 350.656Z" fill="#585858" stroke="none"/>
</g>
<g opacity="1" vectornator:layerName="Curva 6">
<path d="M753.25 350.656C752.101 350.461 750.893 350.496 749.688 350.781C744.864 351.922 741.891 356.739 743.031 361.562C743.884 365.172 744.373 368.96 743.219 372.562C741.777 377.061 737.944 380.42 734.625 383.562C730.429 387.535 726.231 391.601 723.375 396.688C722.345 398.522 721.511 400.463 720.875 402.469C716.888 415.045 721.879 428.124 727.688 439.25C730.005 443.678 735.479 445.411 739.906 443.094C744.334 440.776 746.036 435.303 743.719 430.875C741.34 426.343 739.121 421.625 738.031 416.594C737.479 414.041 737.204 411.318 737.812 408.75C738.791 404.619 741.989 401.478 744.938 398.625C748.013 395.649 751.182 392.784 753.906 389.469C755.547 387.471 757.05 385.356 758.25 383.062C762.51 374.922 762.575 366.208 760.5 357.438C759.644 353.82 756.698 351.241 753.25 350.656Z" fill="#585858" stroke="none"/>
</g>
<g fill="#585858" opacity="1" stroke="none" vectornator:layerName="Texto 1">
<path d="M420.081 795.848L403.27 729.033L403.27 801.428C403.27 805.434 402.376 808.438 400.588 810.441C398.799 812.444 396.426 813.446 393.47 813.446C390.608 813.446 388.271 812.456 386.459 810.477C384.647 808.498 383.741 805.481 383.741 801.428L383.741 718.445C383.741 713.867 384.933 710.779 387.317 709.181C389.702 707.584 392.921 706.785 396.975 706.785L403.556 706.785C407.515 706.785 410.388 707.143 412.176 707.858C413.965 708.573 415.288 709.861 416.147 711.721C417.005 713.581 417.983 716.609 419.08 720.806L434.317 778.25L449.554 720.806C450.651 716.609 451.629 713.581 452.487 711.721C453.346 709.861 454.669 708.573 456.458 707.858C458.246 707.143 461.119 706.785 465.078 706.785L471.659 706.785C475.713 706.785 478.932 707.584 481.316 709.181C483.701 710.779 484.893 713.867 484.893 718.445L484.893 801.428C484.893 805.434 483.999 808.438 482.211 810.441C480.422 812.444 478.026 813.446 475.021 813.446C472.207 813.446 469.894 812.444 468.082 810.441C466.27 808.438 465.364 805.434 465.364 801.428L465.364 729.033L448.553 795.848C447.456 800.188 446.562 803.371 445.87 805.398C445.179 807.425 443.903 809.273 442.043 810.942C440.183 812.611 437.608 813.446 434.317 813.446C431.837 813.446 429.739 812.909 428.022 811.836C426.305 810.763 424.97 809.392 424.016 807.723C423.062 806.054 422.311 804.206 421.762 802.179C421.214 800.152 420.654 798.042 420.081 795.848Z"/>
<path d="M586.963 773.743C586.963 779.561 586.057 784.927 584.245 789.839C582.432 794.751 579.809 798.972 576.376 802.501C572.942 806.03 568.84 808.736 564.071 810.62C559.302 812.504 553.937 813.446 547.976 813.446C542.062 813.446 536.744 812.492 532.023 810.584C527.302 808.677 523.212 805.946 519.755 802.394C516.297 798.841 513.674 794.644 511.885 789.803C510.097 784.962 509.203 779.609 509.203 773.743C509.203 767.829 510.109 762.417 511.921 757.504C513.734 752.592 516.333 748.395 519.719 744.914C523.105 741.432 527.206 738.75 532.023 736.866C536.84 734.982 542.157 734.04 547.976 734.04C553.889 734.04 559.255 734.994 564.071 736.902C568.888 738.809 573.013 741.528 576.447 745.057C579.881 748.586 582.492 752.783 584.28 757.647C586.069 762.512 586.963 767.877 586.963 773.743ZM567.362 773.743C567.362 765.779 565.609 759.579 562.104 755.144C558.599 750.708 553.889 748.491 547.976 748.491C544.16 748.491 540.798 749.48 537.889 751.459C534.98 753.439 532.738 756.36 531.165 760.223C529.591 764.086 528.804 768.592 528.804 773.743C528.804 778.846 529.579 783.305 531.129 787.12C532.679 790.936 534.896 793.857 537.782 795.884C540.667 797.911 544.065 798.924 547.976 798.924C553.889 798.924 558.599 796.694 562.104 792.235C565.609 787.776 567.362 781.612 567.362 773.743Z"/>
<path d="M630.23 785.261L630.23 801.571C630.23 805.529 629.3 808.498 627.44 810.477C625.58 812.456 623.219 813.446 620.358 813.446C617.544 813.446 615.231 812.444 613.419 810.441C611.606 808.438 610.7 805.481 610.7 801.571L610.7 747.203C610.7 738.428 613.872 734.04 620.215 734.04C623.458 734.04 625.795 735.066 627.225 737.116C628.656 739.167 629.443 742.196 629.586 746.202C631.923 742.196 634.319 739.167 636.775 737.116C639.231 735.066 642.51 734.04 646.612 734.04C650.713 734.04 654.695 735.066 658.558 737.116C662.421 739.167 664.353 741.886 664.353 745.272C664.353 747.656 663.53 749.623 661.885 751.173C660.239 752.723 658.463 753.498 656.555 753.498C655.84 753.498 654.111 753.057 651.369 752.175C648.627 751.293 646.206 750.851 644.108 750.851C641.246 750.851 638.91 751.603 637.097 753.105C635.285 754.607 633.878 756.837 632.877 759.794C631.875 762.75 631.184 766.268 630.802 770.345C630.421 774.423 630.23 779.395 630.23 785.261Z"/>
<path d="M701.253 744.842L701.253 747.203C704.686 742.672 708.442 739.346 712.52 737.224C716.597 735.101 721.283 734.04 726.577 734.04C731.727 734.04 736.329 735.161 740.383 737.403C744.437 739.644 747.465 742.816 749.468 746.917C750.756 749.301 751.591 751.877 751.972 754.643C752.354 757.409 752.544 760.938 752.544 765.23L752.544 801.571C752.544 805.481 751.65 808.438 749.862 810.441C748.073 812.444 745.748 813.446 742.887 813.446C739.978 813.446 737.617 812.421 735.805 810.37C733.993 808.319 733.086 805.386 733.086 801.571L733.086 769.022C733.086 762.583 732.192 757.659 730.404 754.249C728.615 750.84 725.051 749.135 719.709 749.135C716.228 749.135 713.056 750.172 710.195 752.246C707.333 754.321 705.235 757.17 703.9 760.795C702.946 763.704 702.469 769.141 702.469 777.105L702.469 801.571C702.469 805.529 701.551 808.498 699.715 810.477C697.879 812.456 695.506 813.446 692.597 813.446C689.783 813.446 687.47 812.421 685.658 810.37C683.846 808.319 682.939 805.386 682.939 801.571L682.939 745.129C682.939 741.409 683.75 738.631 685.372 736.795C686.993 734.958 689.211 734.04 692.025 734.04C693.741 734.04 695.291 734.446 696.674 735.256C698.057 736.067 699.166 737.283 700.001 738.905C700.835 740.526 701.253 742.506 701.253 744.842Z"/>
<path d="M800.032 745.129L800.032 801.571C800.032 805.481 799.102 808.438 797.242 810.441C795.382 812.444 793.021 813.446 790.16 813.446C787.298 813.446 784.973 812.421 783.185 810.37C781.397 808.319 780.502 805.386 780.502 801.571L780.502 745.701C780.502 741.838 781.397 738.929 783.185 736.973C784.973 735.018 787.298 734.04 790.16 734.04C793.021 734.04 795.382 735.018 797.242 736.973C799.102 738.929 800.032 741.647 800.032 745.129ZM790.374 724.955C787.656 724.955 785.331 724.121 783.4 722.451C781.468 720.782 780.502 718.422 780.502 715.369C780.502 712.603 781.492 710.326 783.471 708.538C785.45 706.749 787.751 705.855 790.374 705.855C792.902 705.855 795.143 706.666 797.099 708.287C799.054 709.909 800.032 712.269 800.032 715.369C800.032 718.374 799.078 720.723 797.17 722.416C795.263 724.109 792.997 724.955 790.374 724.955Z"/>
<path d="M846.446 744.842L846.446 747.203C849.88 742.672 853.636 739.346 857.713 737.224C861.791 735.101 866.476 734.04 871.77 734.04C876.921 734.04 881.523 735.161 885.577 737.403C889.63 739.644 892.659 742.816 894.662 746.917C895.949 749.301 896.784 751.877 897.166 754.643C897.547 757.409 897.738 760.938 897.738 765.23L897.738 801.571C897.738 805.481 896.844 808.438 895.055 810.441C893.267 812.444 890.942 813.446 888.08 813.446C885.171 813.446 882.811 812.421 880.998 810.37C879.186 808.319 878.28 805.386 878.28 801.571L878.28 769.022C878.28 762.583 877.386 757.659 875.597 754.249C873.809 750.84 870.244 749.135 864.903 749.135C861.421 749.135 858.25 750.172 855.388 752.246C852.527 754.321 850.428 757.17 849.093 760.795C848.139 763.704 847.662 769.141 847.662 777.105L847.662 801.571C847.662 805.529 846.744 808.498 844.908 810.477C843.072 812.456 840.699 813.446 837.79 813.446C834.976 813.446 832.663 812.421 830.851 810.37C829.039 808.319 828.133 805.386 828.133 801.571L828.133 745.129C828.133 741.409 828.944 738.631 830.565 736.795C832.187 734.958 834.404 734.04 837.218 734.04C838.935 734.04 840.485 734.446 841.868 735.256C843.251 736.067 844.36 737.283 845.194 738.905C846.029 740.526 846.446 742.506 846.446 744.842Z"/>
<path d="M997.518 748.348L997.518 805.076C997.518 811.562 996.827 817.142 995.444 821.816C994.061 826.489 991.843 830.352 988.791 833.405C985.739 836.457 981.745 838.722 976.809 840.201C971.873 841.679 965.732 842.418 958.388 842.418C951.664 842.418 945.654 841.476 940.361 839.592C935.067 837.709 930.989 835.276 928.128 832.296C925.267 829.315 923.836 826.251 923.836 823.103C923.836 820.719 924.647 818.775 926.268 817.273C927.89 815.771 929.845 815.02 932.134 815.02C934.996 815.02 937.499 816.284 939.645 818.811C940.695 820.099 941.78 821.398 942.9 822.71C944.021 824.021 945.261 825.142 946.62 826.072C947.979 827.002 949.613 827.694 951.52 828.147C953.428 828.6 955.622 828.826 958.102 828.826C963.157 828.826 967.08 828.123 969.87 826.716C972.66 825.309 974.615 823.342 975.736 820.814C976.856 818.287 977.512 815.58 977.703 812.695C977.894 809.809 978.037 805.172 978.132 798.781C975.128 802.978 971.658 806.173 967.723 808.367C963.789 810.561 959.103 811.657 953.667 811.657C947.133 811.657 941.422 809.988 936.534 806.65C931.645 803.312 927.89 798.638 925.267 792.629C922.644 786.62 921.332 779.681 921.332 771.812C921.332 765.946 922.131 760.652 923.729 755.931C925.326 751.209 927.603 747.227 930.56 743.984C933.517 740.741 936.927 738.297 940.79 736.651C944.653 735.006 948.897 734.183 953.523 734.183C959.056 734.183 963.849 735.245 967.902 737.367C971.956 739.489 975.724 742.816 979.205 747.346L979.205 744.699C979.205 741.313 980.04 738.69 981.709 736.83C983.378 734.97 985.524 734.04 988.147 734.04C991.915 734.04 994.419 735.268 995.659 737.724C996.898 740.181 997.518 743.722 997.518 748.348ZM940.933 773.099C940.933 781.016 942.662 787.001 946.119 791.055C949.577 795.109 954.048 797.136 959.533 797.136C962.776 797.136 965.84 796.265 968.725 794.524C971.61 792.784 973.959 790.161 975.771 786.655C977.584 783.15 978.49 778.894 978.49 773.886C978.49 765.922 976.737 759.722 973.232 755.287C969.727 750.851 965.112 748.634 959.389 748.634C953.81 748.634 949.339 750.756 945.976 755.001C942.614 759.245 940.933 765.278 940.933 773.099Z"/>
</g>
<path d="M462.93 226.78L951.135 226.78C1042.76 226.78 1117.04 305.855 1117.04 403.399L1117.04 795.402C1117.04 892.946 1042.76 972.021 951.135 972.021L415.039 972.021C323.412 972.021 249.134 892.946 249.134 795.402L249.134 453.515" fill="none" opacity="1" stroke="#585858" stroke-dasharray="4.624166763972227,0.0,92.48333527944453,55.490001167666726" stroke-linecap="round" stroke-linejoin="round" stroke-width="22" vectornator:layerName="Curva 7"/>
<path d="M190.642 452.817L462.144 176.555L987.265 176.555C1091.24 176.555 1175.53 266.289 1175.53 376.98L1175.53 821.82C1175.53 932.512 1091.24 1022.25 987.265 1022.25L378.909 1022.25C274.932 1022.25 190.642 932.512 190.642 821.82L190.642 452.817Z" fill="none" opacity="1" stroke="#585858" stroke-linecap="butt" stroke-linejoin="round" stroke-width="22" vectornator:layerName="Rectángulo 14"/>
<path d="M190.839 453.152L316.227 453.152C397.206 453.152 462.851 387.504 462.847 306.525L462.841 176.555" fill="none" opacity="1" stroke="#585858" stroke-linecap="butt" stroke-linejoin="round" stroke-width="19.6537" vectornator:layerName="Línea 1"/>
</g>
</svg>
