<?xml version="1.0" encoding="UTF-8" standalone="no"?>
<!DOCTYPE svg PUBLIC "-//W3C//DTD SVG 1.1//EN" "http://www.w3.org/Graphics/SVG/1.1/DTD/svg11.dtd">
<!-- Created with Vectornator (http://vectornator.io/) -->
<svg height="100%" stroke-miterlimit="10" style="fill-rule:nonzero;clip-rule:evenodd;stroke-linecap:round;stroke-linejoin:round;" version="1.1" viewBox="0 0 1920 350" width="100%" xml:space="preserve" xmlns="http://www.w3.org/2000/svg" xmlns:vectornator="http://vectornator.io" xmlns:xlink="http://www.w3.org/1999/xlink">
<defs>
<linearGradient gradientTransform="matrix(1.20557 0 0 1 0 0)" gradientUnits="userSpaceOnUse" id="LinearGradient" x1="-5.68434e-14" x2="1628.79" y1="175.15" y2="174.979">
<stop offset="0.339583" stop-color="#ff9e57"/>
<stop offset="1" stop-color="#dbdbdb"/>
</linearGradient>
</defs>
<clipPath id="ArtboardFrame">
<rect height="350" width="1920" x="0" y="0"/>
</clipPath>
<g clip-path="url(#ArtboardFrame)" id="Capa-2" vectornator:layerName="Capa 2">
<path d="M-6.8529e-14 0.299001L2314.7 0.299001L2314.7 350L-6.8529e-14 350L-6.8529e-14 0.299001Z" fill="url(#LinearGradient)" fill-rule="nonzero" opacity="1" stroke="none" vectornator:layerName="Rectángulo 3"/>
<path d="M-32.5207 1.51965C-32.5207-16.4354-13.2825-30.9908 10.4491-30.9908C34.1806-30.9908 53.4188-16.4354 53.4188 1.51965C53.4188 19.4747 34.1806 34.0301 10.4491 34.0301C-13.2825 34.0301-32.5207 19.4747-32.5207 1.51965Z" fill="#ffffff" fill-rule="nonzero" opacity="0.280836" stroke="none" vectornator:layerName="Óvalo 4"/>
<path d="M565.137 306.122C565.137 297.781 572.393 291.019 581.345 291.019C590.296 291.019 597.553 297.781 597.553 306.122C597.553 314.464 590.296 321.226 581.345 321.226C572.393 321.226 565.137 314.464 565.137 306.122Z" fill="#ffffff" fill-rule="nonzero" opacity="0.23276" stroke="#ff9e57" stroke-linecap="butt" stroke-linejoin="round" stroke-width="1.92582" vectornator:layerName="Óvalo 6"/>
<path d="M514.271 2.02001C514.271-3.33022 518.925-7.66745 524.667-7.66745C530.408-7.66745 535.062-3.33022 535.062 2.02001C535.062 7.37024 530.408 11.7075 524.667 11.7075C518.925 11.7075 514.271 7.37024 514.271 2.02001Z" fill="#ffffff" fill-rule="nonzero" opacity="0.23276" stroke="#ff9e57" stroke-linecap="butt" stroke-linejoin="round" stroke-width="1.23522" vectornator:layerName="Óvalo 7"/>
<path d="M238.175 33.1616C238.175 27.8113 242.829 23.4741 248.571 23.4741C254.312 23.4741 258.967 27.8113 258.967 33.1616C258.967 38.5118 254.312 42.849 248.571 42.849C242.829 42.849 238.175 38.5118 238.175 33.1616Z" fill="#ffffff" fill-rule="nonzero" opacity="0.23276" stroke="#ff9e57" stroke-linecap="butt" stroke-linejoin="round" stroke-width="1.23522" vectornator:layerName="Óvalo 9"/>
<path d="M32.6272 62.1977C32.6272 56.8474 37.2815 52.5102 43.023 52.5102C48.7645 52.5102 53.4188 56.8474 53.4188 62.1977C53.4188 67.5479 48.7645 71.8851 43.023 71.8851C37.2815 71.8851 32.6272 67.5479 32.6272 62.1977Z" fill="#ffffff" fill-rule="nonzero" opacity="0.23276" stroke="#ff9e57" stroke-linecap="butt" stroke-linejoin="round" stroke-width="1.23522" vectornator:layerName="Óvalo 28"/>
<path d="M848.826 41.1743C848.826 38.1457 851.466 35.6906 854.722 35.6906C857.978 35.6906 860.618 38.1457 860.618 41.1743C860.618 44.2029 857.978 46.6581 854.722 46.6581C851.466 46.6581 848.826 44.2029 848.826 41.1743Z" fill="#ffffff" fill-rule="nonzero" opacity="0.184683" stroke="none" vectornator:layerName="Óvalo 27"/>
<path d="M-472.896 442.777C-473.212 366.959-432.161 296.453-361.818 238.183C-248.028 143.922-55.335 86.796 158.377 80.7802C645.69 67.0627 792.819 243.141 792.654 437.487C792.485 635.967 510.853 798.023 161.381 799.484C-188.09 800.944-472.066 641.242-472.896 442.777Z" fill="#ffffff" fill-rule="nonzero" opacity="1" stroke="#ff9e57" stroke-linecap="butt" stroke-linejoin="round" stroke-width="0" vectornator:layerName="Óvalo 1"/>
<g fill="#a3a3a3" opacity="1" stroke="none" vectornator:layerName="Text 1">
<path d="M147.153 145.113L137.711 145.113L137.711 176.148C137.711 177.935 137.313 179.261 136.517 180.125C135.72 180.99 134.691 181.422 133.428 181.422C132.146 181.422 131.101 180.985 130.295 180.111C129.489 179.237 129.086 177.916 129.086 176.148L129.086 145.113L119.644 145.113C118.168 145.113 117.07 144.788 116.351 144.137C115.633 143.486 115.273 142.627 115.273 141.558C115.273 140.451 115.647 139.577 116.395 138.935C117.143 138.294 118.226 137.974 119.644 137.974L147.153 137.974C148.649 137.974 149.761 138.304 150.49 138.965C151.218 139.625 151.582 140.49 151.582 141.558C151.582 142.627 151.213 143.486 150.475 144.137C149.737 144.788 148.629 145.113 147.153 145.113Z"/>
<path d="M173.846 176.935L173.846 175.915C172.894 177.119 171.893 178.129 170.844 178.945C169.795 179.761 168.649 180.368 167.406 180.767C166.162 181.165 164.744 181.364 163.151 181.364C161.228 181.364 159.504 180.966 157.979 180.169C156.454 179.373 155.273 178.275 154.438 176.876C153.447 175.186 152.952 172.758 152.952 169.591L152.952 153.826C152.952 152.233 153.311 151.043 154.03 150.256C154.749 149.47 155.701 149.076 156.886 149.076C158.09 149.076 159.062 149.475 159.8 150.271C160.538 151.068 160.907 152.253 160.907 153.826L160.907 166.561C160.907 168.406 161.063 169.955 161.373 171.208C161.684 172.462 162.243 173.443 163.049 174.152C163.855 174.861 164.948 175.215 166.327 175.215C167.668 175.215 168.931 174.817 170.116 174.021C171.301 173.224 172.165 172.185 172.709 170.903C173.156 169.776 173.379 167.309 173.379 163.501L173.379 153.826C173.379 152.253 173.748 151.068 174.487 150.271C175.225 149.475 176.187 149.076 177.372 149.076C178.557 149.076 179.509 149.47 180.227 150.256C180.946 151.043 181.306 152.233 181.306 153.826L181.306 176.876C181.306 178.392 180.961 179.528 180.271 180.286C179.581 181.043 178.693 181.422 177.605 181.422C176.517 181.422 175.618 181.029 174.909 180.242C174.2 179.455 173.846 178.353 173.846 176.935Z"/>
<path d="M226.357 167.202L210.796 167.202C210.815 169.008 211.179 170.601 211.889 171.981C212.598 173.36 213.54 174.399 214.715 175.099C215.89 175.798 217.187 176.148 218.605 176.148C219.557 176.148 220.427 176.036 221.213 175.813C222 175.589 222.763 175.24 223.501 174.764C224.239 174.288 224.919 173.778 225.541 173.234C226.162 172.69 226.969 171.952 227.959 171.019C228.367 170.669 228.95 170.495 229.708 170.495C230.524 170.495 231.184 170.718 231.689 171.165C232.195 171.612 232.447 172.243 232.447 173.059C232.447 173.778 232.165 174.618 231.602 175.58C231.039 176.541 230.189 177.464 229.052 178.348C227.916 179.232 226.488 179.965 224.769 180.548C223.049 181.131 221.073 181.422 218.839 181.422C213.729 181.422 209.756 179.965 206.92 177.051C204.084 174.137 202.666 170.184 202.666 165.191C202.666 162.84 203.015 160.66 203.715 158.649C204.414 156.638 205.434 154.914 206.774 153.477C208.115 152.039 209.766 150.936 211.728 150.169C213.69 149.402 215.866 149.018 218.256 149.018C221.364 149.018 224.03 149.674 226.255 150.985C228.479 152.296 230.145 153.991 231.252 156.07C232.36 158.149 232.913 160.266 232.913 162.423C232.913 164.424 232.34 165.72 231.194 166.313C230.048 166.905 228.435 167.202 226.357 167.202ZM210.796 162.685L225.22 162.685C225.026 159.965 224.293 157.93 223.02 156.58C221.748 155.23 220.072 154.555 217.993 154.555C216.012 154.555 214.385 155.24 213.112 156.609C211.84 157.979 211.068 160.004 210.796 162.685Z"/>
<path d="M265.23 171.019C265.23 173.214 264.696 175.094 263.627 176.658C262.559 178.222 260.981 179.407 258.892 180.213C256.804 181.019 254.264 181.422 251.272 181.422C248.416 181.422 245.968 180.985 243.928 180.111C241.889 179.237 240.383 178.144 239.412 176.833C238.44 175.521 237.955 174.205 237.955 172.884C237.955 172.01 238.266 171.262 238.887 170.64C239.509 170.019 240.296 169.708 241.248 169.708C242.083 169.708 242.724 169.912 243.171 170.32C243.618 170.728 244.045 171.301 244.453 172.039C245.269 173.457 246.245 174.516 247.382 175.215C248.518 175.915 250.067 176.264 252.03 176.264C253.623 176.264 254.929 175.91 255.949 175.201C256.969 174.492 257.479 173.681 257.479 172.768C257.479 171.369 256.949 170.349 255.891 169.708C254.832 169.067 253.088 168.455 250.66 167.872C247.921 167.192 245.691 166.478 243.972 165.73C242.253 164.982 240.878 163.996 239.849 162.772C238.819 161.548 238.304 160.043 238.304 158.256C238.304 156.663 238.78 155.157 239.732 153.739C240.684 152.321 242.088 151.189 243.943 150.344C245.798 149.499 248.037 149.076 250.66 149.076C252.719 149.076 254.57 149.29 256.211 149.717C257.853 150.145 259.222 150.718 260.32 151.437C261.418 152.155 262.253 152.952 262.826 153.826C263.399 154.7 263.686 155.555 263.686 156.391C263.686 157.304 263.38 158.052 262.768 158.634C262.156 159.217 261.286 159.509 260.16 159.509C259.344 159.509 258.649 159.275 258.076 158.809C257.503 158.343 256.847 157.644 256.109 156.711C255.507 155.934 254.798 155.312 253.982 154.846C253.166 154.38 252.059 154.147 250.66 154.147C249.222 154.147 248.028 154.453 247.076 155.065C246.124 155.677 245.648 156.439 245.648 157.352C245.648 158.188 245.997 158.872 246.697 159.407C247.396 159.941 248.338 160.383 249.523 160.732C250.708 161.082 252.34 161.51 254.419 162.015C256.886 162.617 258.902 163.336 260.466 164.171C262.03 165.006 263.215 165.992 264.021 167.129C264.827 168.265 265.23 169.562 265.23 171.019Z"/>
<path d="M272.399 149.776L273.273 149.776L273.273 144.997C273.273 143.714 273.307 142.709 273.375 141.981C273.443 141.252 273.632 140.626 273.943 140.101C274.254 139.557 274.701 139.115 275.284 138.775C275.866 138.435 276.517 138.265 277.236 138.265C278.246 138.265 279.159 138.644 279.975 139.402C280.519 139.907 280.864 140.524 281.01 141.252C281.155 141.981 281.228 143.015 281.228 144.356L281.228 149.776L284.142 149.776C285.269 149.776 286.129 150.043 286.721 150.577C287.314 151.111 287.61 151.796 287.61 152.631C287.61 153.7 287.188 154.448 286.342 154.875C285.497 155.303 284.288 155.516 282.714 155.516L281.228 155.516L281.228 170.145C281.228 171.388 281.272 172.345 281.359 173.015C281.447 173.685 281.68 174.229 282.059 174.647C282.438 175.065 283.054 175.274 283.909 175.274C284.375 175.274 285.007 175.191 285.803 175.026C286.6 174.861 287.222 174.778 287.668 174.778C288.309 174.778 288.887 175.036 289.402 175.55C289.917 176.065 290.174 176.701 290.174 177.459C290.174 178.741 289.475 179.722 288.076 180.402C286.678 181.082 284.667 181.422 282.044 181.422C279.558 181.422 277.673 181.005 276.391 180.169C275.109 179.334 274.269 178.178 273.87 176.701C273.472 175.225 273.273 173.253 273.273 170.786L273.273 155.516L272.224 155.516C271.078 155.516 270.203 155.244 269.601 154.7C268.999 154.156 268.698 153.467 268.698 152.631C268.698 151.796 269.014 151.111 269.645 150.577C270.276 150.043 271.194 149.776 272.399 149.776Z"/>
<path d="M301.044 153.593L301.044 176.585C301.044 178.178 300.665 179.382 299.907 180.198C299.15 181.014 298.188 181.422 297.022 181.422C295.857 181.422 294.91 181.005 294.181 180.169C293.453 179.334 293.088 178.139 293.088 176.585L293.088 153.826C293.088 152.253 293.453 151.068 294.181 150.271C294.91 149.475 295.857 149.076 297.022 149.076C298.188 149.076 299.15 149.475 299.907 150.271C300.665 151.068 301.044 152.175 301.044 153.593ZM297.11 145.375C296.003 145.375 295.055 145.035 294.269 144.356C293.482 143.676 293.088 142.714 293.088 141.471C293.088 140.344 293.492 139.416 294.298 138.688C295.104 137.959 296.041 137.595 297.11 137.595C298.139 137.595 299.053 137.925 299.849 138.586C300.646 139.246 301.044 140.208 301.044 141.471C301.044 142.695 300.655 143.651 299.878 144.341C299.101 145.031 298.178 145.375 297.11 145.375Z"/>
<path d="M309.261 176.585L309.261 142.083C309.261 140.49 309.616 139.285 310.325 138.469C311.034 137.653 311.991 137.245 313.195 137.245C314.4 137.245 315.371 137.648 316.109 138.455C316.848 139.261 317.217 140.47 317.217 142.083L317.217 176.585C317.217 178.197 316.843 179.407 316.095 180.213C315.347 181.019 314.38 181.422 313.195 181.422C312.03 181.422 311.083 181.005 310.354 180.169C309.626 179.334 309.261 178.139 309.261 176.585Z"/>
<path d="M355.216 165.249C355.216 167.619 354.847 169.805 354.109 171.806C353.37 173.807 352.302 175.526 350.903 176.964C349.504 178.401 347.834 179.504 345.891 180.271C343.948 181.039 341.763 181.422 339.334 181.422C336.925 181.422 334.759 181.034 332.836 180.257C330.913 179.48 329.247 178.367 327.838 176.92C326.43 175.473 325.362 173.763 324.633 171.791C323.905 169.819 323.54 167.639 323.54 165.249C323.54 162.84 323.909 160.635 324.648 158.634C325.386 156.633 326.445 154.924 327.824 153.506C329.203 152.087 330.874 150.995 332.836 150.227C334.798 149.46 336.964 149.076 339.334 149.076C341.743 149.076 343.929 149.465 345.891 150.242C347.853 151.019 349.534 152.126 350.932 153.564C352.331 155.002 353.395 156.711 354.123 158.693C354.852 160.674 355.216 162.86 355.216 165.249ZM347.231 165.249C347.231 162.005 346.518 159.479 345.09 157.673C343.662 155.866 341.743 154.963 339.334 154.963C337.78 154.963 336.411 155.366 335.226 156.172C334.041 156.978 333.127 158.168 332.486 159.742C331.845 161.315 331.525 163.151 331.525 165.249C331.525 167.328 331.84 169.144 332.472 170.699C333.103 172.253 334.007 173.443 335.182 174.268C336.357 175.094 337.741 175.507 339.334 175.507C341.743 175.507 343.662 174.599 345.09 172.782C346.518 170.966 347.231 168.455 347.231 165.249Z"/>
</g>
<g fill="#ff9e57" opacity="1" stroke="none" vectornator:layerName="Text 2">
<path d="M271.552 238.329L240.676 238.329L240.676 254.944L269.106 254.944C271.198 254.944 272.76 255.414 273.791 256.352C274.821 257.291 275.337 258.529 275.337 260.067C275.337 261.606 274.829 262.86 273.814 263.829C272.798 264.798 271.229 265.283 269.106 265.283L240.676 265.283L240.676 284.529L272.614 284.529C274.767 284.529 276.391 285.029 277.483 286.029C278.575 287.029 279.121 288.359 279.121 290.021C279.121 291.621 278.575 292.921 277.483 293.921C276.391 294.921 274.767 295.421 272.614 295.421L235.368 295.421C232.384 295.421 230.237 294.759 228.93 293.436C227.622 292.113 226.968 289.975 226.968 287.021L226.968 236.16C226.968 234.191 227.261 232.583 227.845 231.337C228.43 230.091 229.345 229.183 230.591 228.614C231.837 228.045 233.43 227.76 235.368 227.76L271.552 227.76C273.737 227.76 275.36 228.245 276.421 229.214C277.483 230.183 278.014 231.453 278.014 233.022C278.014 234.622 277.483 235.906 276.421 236.876C275.36 237.845 273.737 238.329 271.552 238.329Z"/>
<path d="M300.582 252.314L300.582 253.837C302.798 250.914 305.221 248.768 307.852 247.398C310.482 246.029 313.505 245.345 316.921 245.345C320.244 245.345 323.213 246.068 325.828 247.514C328.444 248.96 330.397 251.006 331.69 253.652C332.52 255.191 333.059 256.852 333.305 258.637C333.551 260.421 333.674 262.698 333.674 265.467L333.674 288.913C333.674 291.436 333.097 293.344 331.943 294.636C330.79 295.928 329.29 296.575 327.444 296.575C325.567 296.575 324.044 295.913 322.874 294.59C321.705 293.267 321.121 291.375 321.121 288.913L321.121 267.914C321.121 263.76 320.544 260.583 319.39 258.383C318.236 256.183 315.936 255.083 312.49 255.083C310.244 255.083 308.198 255.752 306.352 257.091C304.505 258.429 303.152 260.267 302.29 262.606C301.675 264.483 301.367 267.99 301.367 273.129L301.367 288.913C301.367 291.467 300.775 293.382 299.59 294.659C298.406 295.936 296.875 296.575 294.998 296.575C293.183 296.575 291.69 295.913 290.521 294.59C289.352 293.267 288.767 291.375 288.767 288.913L288.767 252.498C288.767 250.098 289.29 248.306 290.336 247.122C291.383 245.937 292.813 245.345 294.629 245.345C295.736 245.345 296.736 245.606 297.629 246.129C298.521 246.652 299.236 247.437 299.775 248.483C300.313 249.529 300.582 250.806 300.582 252.314Z"/>
<path d="M415.042 280.975C415.042 282.544 414.573 284.221 413.634 286.006C412.696 287.79 411.265 289.49 409.342 291.105C407.419 292.721 404.996 294.021 402.073 295.005C399.15 295.99 395.858 296.482 392.196 296.482C384.412 296.482 378.335 294.213 373.966 289.675C369.597 285.136 367.412 279.052 367.412 271.421C367.412 266.252 368.412 261.683 370.412 257.714C372.412 253.745 375.304 250.675 379.089 248.506C382.873 246.337 387.396 245.252 392.658 245.252C395.919 245.252 398.912 245.729 401.635 246.683C404.358 247.637 406.665 248.868 408.558 250.375C410.45 251.883 411.896 253.491 412.896 255.198C413.896 256.906 414.396 258.498 414.396 259.975C414.396 261.483 413.834 262.76 412.711 263.806C411.588 264.852 410.227 265.375 408.627 265.375C407.581 265.375 406.711 265.106 406.019 264.567C405.327 264.029 404.55 263.16 403.688 261.96C402.15 259.621 400.542 257.868 398.865 256.698C397.189 255.529 395.058 254.944 392.473 254.944C388.75 254.944 385.75 256.398 383.473 259.306C381.197 262.214 380.058 266.19 380.058 271.237C380.058 273.606 380.35 275.783 380.935 277.767C381.52 279.752 382.366 281.444 383.473 282.844C384.581 284.244 385.92 285.306 387.489 286.029C389.058 286.752 390.781 287.113 392.658 287.113C395.181 287.113 397.342 286.529 399.142 285.359C400.942 284.19 402.535 282.406 403.919 280.006C404.688 278.59 405.519 277.483 406.412 276.683C407.304 275.883 408.396 275.483 409.688 275.483C411.227 275.483 412.504 276.067 413.519 277.236C414.534 278.406 415.042 279.652 415.042 280.975Z"/>
<path d="M457.872 289.467C454.826 291.836 451.88 293.613 449.034 294.798C446.188 295.982 442.996 296.575 439.457 296.575C436.226 296.575 433.388 295.936 430.942 294.659C428.496 293.382 426.611 291.652 425.288 289.467C423.965 287.282 423.304 284.913 423.304 282.359C423.304 278.913 424.396 275.975 426.58 273.544C428.765 271.113 431.765 269.483 435.58 268.652C436.38 268.467 438.365 268.052 441.534 267.406C444.703 266.76 447.419 266.167 449.68 265.629C451.942 265.09 454.395 264.437 457.041 263.667C456.888 260.344 456.218 257.906 455.034 256.352C453.849 254.798 451.395 254.021 447.672 254.021C444.472 254.021 442.065 254.468 440.449 255.36C438.834 256.252 437.449 257.591 436.296 259.375C435.142 261.16 434.326 262.337 433.85 262.906C433.373 263.475 432.35 263.76 430.78 263.76C429.365 263.76 428.142 263.306 427.111 262.398C426.08 261.491 425.565 260.329 425.565 258.914C425.565 256.698 426.35 254.544 427.919 252.452C429.488 250.36 431.934 248.637 435.257 247.283C438.58 245.929 442.719 245.252 447.672 245.252C453.211 245.252 457.565 245.906 460.734 247.214C463.903 248.522 466.141 250.591 467.449 253.421C468.757 256.252 469.41 260.006 469.41 264.683C469.41 267.637 469.403 270.144 469.387 272.206C469.372 274.267 469.349 276.56 469.318 279.083C469.318 281.452 469.71 283.921 470.495 286.49C471.28 289.059 471.672 290.713 471.672 291.452C471.672 292.744 471.064 293.921 469.849 294.982C468.634 296.044 467.257 296.575 465.718 296.575C464.426 296.575 463.149 295.967 461.888 294.752C460.626 293.536 459.288 291.775 457.872 289.467ZM457.041 271.237C455.195 271.913 452.511 272.629 448.988 273.383C445.465 274.136 443.026 274.69 441.672 275.044C440.319 275.398 439.026 276.09 437.796 277.121C436.565 278.152 435.949 279.59 435.949 281.436C435.949 283.344 436.673 284.967 438.119 286.306C439.565 287.644 441.457 288.313 443.796 288.313C446.288 288.313 448.588 287.767 450.695 286.675C452.803 285.582 454.349 284.175 455.334 282.452C456.472 280.544 457.041 277.406 457.041 273.036L457.041 271.237Z"/>
<path d="M522.763 280.098C522.763 283.575 521.917 286.552 520.225 289.029C518.533 291.505 516.033 293.382 512.725 294.659C509.418 295.936 505.395 296.575 500.656 296.575C496.133 296.575 492.256 295.882 489.026 294.498C485.795 293.113 483.41 291.382 481.872 289.305C480.333 287.229 479.564 285.144 479.564 283.052C479.564 281.667 480.056 280.483 481.041 279.498C482.026 278.513 483.272 278.021 484.779 278.021C486.103 278.021 487.118 278.344 487.826 278.99C488.533 279.636 489.21 280.544 489.856 281.713C491.149 283.959 492.695 285.636 494.495 286.744C496.295 287.852 498.748 288.405 501.856 288.405C504.379 288.405 506.448 287.844 508.064 286.721C509.679 285.598 510.487 284.313 510.487 282.867C510.487 280.652 509.648 279.036 507.971 278.021C506.294 277.006 503.533 276.036 499.687 275.113C495.349 274.036 491.818 272.906 489.095 271.721C486.372 270.537 484.195 268.975 482.564 267.037C480.933 265.098 480.118 262.714 480.118 259.883C480.118 257.36 480.872 254.975 482.38 252.729C483.887 250.483 486.11 248.691 489.049 247.352C491.987 246.014 495.533 245.345 499.687 245.345C502.948 245.345 505.879 245.683 508.479 246.36C511.079 247.037 513.248 247.945 514.987 249.083C516.725 250.221 518.048 251.483 518.956 252.868C519.864 254.252 520.317 255.606 520.317 256.929C520.317 258.375 519.833 259.56 518.864 260.483C517.894 261.406 516.517 261.867 514.733 261.867C513.441 261.867 512.341 261.498 511.433 260.76C510.525 260.021 509.487 258.914 508.318 257.437C507.364 256.206 506.241 255.221 504.948 254.483C503.656 253.745 501.902 253.375 499.687 253.375C497.41 253.375 495.518 253.86 494.01 254.829C492.502 255.798 491.749 257.006 491.749 258.452C491.749 259.775 492.302 260.86 493.41 261.706C494.518 262.552 496.01 263.252 497.887 263.806C499.764 264.36 502.348 265.037 505.641 265.837C509.548 266.79 512.741 267.929 515.217 269.252C517.694 270.575 519.571 272.137 520.848 273.936C522.125 275.736 522.763 277.79 522.763 280.098Z"/>
<path d="M565.27 289.467C562.224 291.836 559.278 293.613 556.432 294.798C553.586 295.982 550.394 296.575 546.855 296.575C543.625 296.575 540.786 295.936 538.34 294.659C535.894 293.382 534.009 291.652 532.686 289.467C531.363 287.282 530.702 284.913 530.702 282.359C530.702 278.913 531.794 275.975 533.979 273.544C536.163 271.113 539.163 269.483 542.979 268.652C543.779 268.467 545.763 268.052 548.932 267.406C552.101 266.76 554.817 266.167 557.078 265.629C559.34 265.09 561.794 264.437 564.44 263.667C564.286 260.344 563.617 257.906 562.432 256.352C561.247 254.798 558.794 254.021 555.071 254.021C551.871 254.021 549.463 254.468 547.848 255.36C546.232 256.252 544.848 257.591 543.694 259.375C542.54 261.16 541.725 262.337 541.248 262.906C540.771 263.475 539.748 263.76 538.179 263.76C536.763 263.76 535.54 263.306 534.509 262.398C533.479 261.491 532.963 260.329 532.963 258.914C532.963 256.698 533.748 254.544 535.317 252.452C536.886 250.36 539.332 248.637 542.655 247.283C545.978 245.929 550.117 245.252 555.071 245.252C560.609 245.252 564.963 245.906 568.132 247.214C571.301 248.522 573.54 250.591 574.847 253.421C576.155 256.252 576.809 260.006 576.809 264.683C576.809 267.637 576.801 270.144 576.786 272.206C576.77 274.267 576.747 276.56 576.716 279.083C576.716 281.452 577.109 283.921 577.893 286.49C578.678 289.059 579.07 290.713 579.07 291.452C579.07 292.744 578.463 293.921 577.247 294.982C576.032 296.044 574.655 296.575 573.116 296.575C571.824 296.575 570.547 295.967 569.286 294.752C568.024 293.536 566.686 291.775 565.27 289.467ZM564.44 271.237C562.594 271.913 559.909 272.629 556.386 273.383C552.863 274.136 550.425 274.69 549.071 275.044C547.717 275.398 546.425 276.09 545.194 277.121C543.963 278.152 543.348 279.59 543.348 281.436C543.348 283.344 544.071 284.967 545.517 286.306C546.963 287.644 548.855 288.313 551.194 288.313C553.686 288.313 555.986 287.767 558.094 286.675C560.201 285.582 561.747 284.175 562.732 282.452C563.87 280.544 564.44 277.406 564.44 273.036L564.44 271.237Z"/>
</g>
<path d="M454.695 124.618C454.695 101.314 475.007 82.4225 500.063 82.4225C525.119 82.4225 545.431 101.314 545.431 124.618C545.431 147.922 525.119 166.814 500.063 166.814C475.007 166.814 454.695 147.922 454.695 124.618Z" fill="#ffffff" fill-rule="nonzero" opacity="0.303913" stroke="none" vectornator:layerName="Óvalo 2"/>
<path d="M792.819 131.155C792.819 124.049 799.012 118.288 806.653 118.288C814.293 118.288 820.487 124.049 820.487 131.155C820.487 138.261 814.293 144.022 806.653 144.022C799.012 144.022 792.819 138.261 792.819 131.155Z" fill="#ffffff" fill-rule="nonzero" opacity="0.23276" stroke="none" vectornator:layerName="Óvalo 12"/>
<path d="M136.443-2.37817C136.443-28.5063 159.217-49.6874 187.309-49.6874C215.402-49.6874 238.175-28.5063 238.175-2.37817C238.175 23.75 215.402 44.931 187.309 44.931C159.217 44.931 136.443 23.75 136.443-2.37817Z" fill="#ffffff" fill-rule="nonzero" opacity="0.288529" stroke="#ff9e57" stroke-linecap="butt" stroke-linejoin="round" stroke-width="1.92582" vectornator:layerName="Óvalo 8"/>
<path d="M310.938 127.686C310.938 122.496 315.454 118.288 321.024 118.288C326.594 118.288 331.11 122.496 331.11 127.686C331.11 132.877 326.594 137.085 321.024 137.085C315.454 137.085 310.938 132.877 310.938 127.686Z" fill="#ffffff" fill-rule="nonzero" opacity="0.23276" stroke="none" vectornator:layerName="Óvalo 10"/>
<path d="M514.271 358.475C514.271 342.438 528.222 329.438 545.431 329.438C562.64 329.438 576.591 342.438 576.591 358.475C576.591 374.511 562.64 387.512 545.431 387.512C528.222 387.512 514.271 374.511 514.271 358.475Z" fill="#ffffff" fill-rule="nonzero" opacity="0.23276" stroke="none" vectornator:layerName="Óvalo 11"/>
<path d="M880.081 168.252C880.081 151.536 894.652 137.984 912.625 137.984C930.599 137.984 945.169 151.536 945.169 168.252C945.169 184.969 930.599 198.521 912.625 198.521C894.652 198.521 880.081 184.969 880.081 168.252Z" fill="#ffffff" fill-rule="nonzero" opacity="0.15776" stroke="none" vectornator:layerName="Óvalo 13"/>
<path d="M960 96.9813C960 88.0241 967.807 80.7628 977.438 80.7628C987.069 80.7628 994.876 88.0241 994.876 96.9813C994.876 105.939 987.069 113.2 977.438 113.2C967.807 113.2 960 105.939 960 96.9813Z" fill="#ffffff" fill-rule="nonzero" opacity="0.115452" stroke="none" vectornator:layerName="Óvalo 22"/>
<path d="M820.487 267.308C820.487 258.073 828.536 250.587 838.465 250.587C848.394 250.587 856.443 258.073 856.443 267.308C856.443 276.542 848.394 284.029 838.465 284.029C828.536 284.029 820.487 276.542 820.487 267.308Z" fill="#ffffff" fill-rule="nonzero" opacity="0.298144" stroke="none" vectornator:layerName="Óvalo 14"/>
<path d="M902.063 358.475C902.063 349.24 910.112 341.754 920.041 341.754C929.969 341.754 938.018 349.24 938.018 358.475C938.018 367.709 929.969 375.195 920.041 375.195C910.112 375.195 902.063 367.709 902.063 358.475Z" fill="#ffffff" fill-rule="nonzero" opacity="0.234683" stroke="none" vectornator:layerName="Óvalo 19"/>
<path d="M842.93 297.589C842.93 293.067 846.871 289.402 851.732 289.402C856.594 289.402 860.535 293.067 860.535 297.589C860.535 302.11 856.594 305.776 851.732 305.776C846.871 305.776 842.93 302.11 842.93 297.589Z" fill="#ffffff" fill-rule="nonzero" opacity="0.121221" stroke="none" vectornator:layerName="Óvalo 15"/>
<path d="M848.826 41.1743C848.826 38.1457 851.466 35.6906 854.722 35.6906C857.978 35.6906 860.618 38.1457 860.618 41.1743C860.618 44.2029 857.978 46.6581 854.722 46.6581C851.466 46.6581 848.826 44.2029 848.826 41.1743Z" fill="#ffffff" fill-rule="nonzero" opacity="0.184683" stroke="none" vectornator:layerName="Óvalo 16"/>
<path d="M960 181.969C960 178.94 962.64 176.485 965.896 176.485C969.152 176.485 971.792 178.94 971.792 181.969C971.792 184.997 969.152 187.452 965.896 187.452C962.64 187.452 960 184.997 960 181.969Z" fill="#ffffff" fill-rule="nonzero" opacity="0.184683" stroke="none" vectornator:layerName="Óvalo 23"/>
<path d="M912.625 277.605C912.625 273.593 916.115 270.341 920.42 270.341C924.725 270.341 928.216 273.593 928.216 277.605C928.216 281.617 924.725 284.869 920.42 284.869C916.115 284.869 912.625 281.617 912.625 277.605Z" fill="#ffffff" fill-rule="nonzero" opacity="0.23276" stroke="#ff9e57" stroke-linecap="butt" stroke-linejoin="round" stroke-width="0.926223" vectornator:layerName="Óvalo 29"/>
<path d="M954.104 333.613C954.104 331.931 955.57 330.567 957.379 330.567C959.187 330.567 960.653 331.931 960.653 333.613C960.653 335.295 959.187 336.658 957.379 336.658C955.57 336.658 954.104 335.295 954.104 333.613Z" fill="#ffffff" fill-rule="nonzero" opacity="0.184683" stroke="none" vectornator:layerName="Óvalo 24"/>
<path d="M838.465 238.778C838.465 236.691 840.283 235 842.526 235C844.77 235 846.588 236.691 846.588 238.778C846.588 240.864 844.77 242.555 842.526 242.555C840.283 242.555 838.465 240.864 838.465 238.778Z" fill="#ffffff" fill-rule="nonzero" opacity="0.184683" stroke="none" vectornator:layerName="Óvalo 25"/>
<path d="M994.876 67.0627C994.876 64.3993 997.197 62.2403 1000.06 62.2403C1002.92 62.2403 1005.25 64.3993 1005.25 67.0627C1005.25 69.7261 1002.92 71.8851 1000.06 71.8851C997.197 71.8851 994.876 69.7261 994.876 67.0627Z" fill="#ffffff" fill-rule="nonzero" opacity="0.184683" stroke="none" vectornator:layerName="Óvalo 26"/>
<path d="M305.042 7.50377C305.042 4.47517 307.682 2.02001 310.938 2.02001C314.195 2.02001 316.835 4.47517 316.835 7.50377C316.835 10.5324 314.195 12.9875 310.938 12.9875C307.682 12.9875 305.042 10.5324 305.042 7.50377Z" fill="#ffffff" fill-rule="nonzero" opacity="0.255836" stroke="none" vectornator:layerName="Óvalo 18"/>
<path d="M723.019 211.46C723.019 208.431 725.659 205.976 728.915 205.976C732.172 205.976 734.811 208.431 734.811 211.46C734.811 214.488 732.172 216.944 728.915 216.944C725.659 216.944 723.019 214.488 723.019 211.46Z" fill="#ffffff" fill-rule="nonzero" opacity="0.184683" stroke="none" vectornator:layerName="Óvalo 17"/>
<path d="M590.746 73.2078C590.746 63.9733 598.795 56.4872 608.723 56.4872C618.652 56.4872 626.701 63.9733 626.701 73.2078C626.701 82.4423 618.652 89.9283 608.723 89.9283C598.795 89.9283 590.746 82.4423 590.746 73.2078Z" fill="#ffffff" fill-rule="nonzero" opacity="0.298144" stroke="none" vectornator:layerName="Óvalo 20"/>
<path d="M331.11 56.4872C331.11 47.2527 339.158 39.7667 349.087 39.7667C359.016 39.7667 367.065 47.2527 367.065 56.4872C367.065 65.7217 359.016 73.2078 349.087 73.2078C339.158 73.2078 331.11 65.7217 331.11 56.4872Z" fill="#ffffff" fill-rule="nonzero" opacity="0.373144" stroke="none" vectornator:layerName="Óvalo 21"/>
</g>
<g clip-path="url(#ArtboardFrame)" id="Capa-1" vectornator:layerName="Capa 1">
<path d="M1107.7-2.10038L1683.27-3.75011C1688.86-3.83822 1692.12-7.54598 1693.55-2.37817L1802.63 350.357C1804.06 355.525 1798.42 352.568 1792.82 352.641L1294.31 355.016L1220.19 355.94L1195.49 351.294L1179.09 294.671L1092.62-3.78386C1092.62-3.78386 1102.11-2.01227 1107.7-2.10038Z" fill="#ffffff" fill-rule="nonzero" opacity="1" stroke="none" vectornator:layerName="Rectángulo 1"/>
<g fill="#ffa663" opacity="0.999523" stroke="none" vectornator:layerName="Text 3">
<path d="M1287.16 246.216C1286.16 245.979 1285.31 245.529 1284.6 244.866C1283.89 244.202 1283.43 243.468 1283.21 242.663C1283 241.857 1283.06 241.052 1283.39 240.246C1283.72 239.441 1284.41 238.754 1285.45 238.185C1286.3 237.711 1287.31 237.486 1288.47 237.51C1289.63 237.534 1290.69 237.546 1291.64 237.546C1296.7 237.451 1301.82 237.451 1306.99 237.546C1307.27 237.546 1307.58 237.628 1307.91 237.794C1308.24 237.96 1308.53 238.138 1308.76 238.327C1309.43 238.754 1309.92 239.287 1310.26 239.926C1310.59 240.566 1310.76 241.206 1310.79 241.845C1310.81 242.485 1310.67 243.113 1310.36 243.729C1310.05 244.345 1309.57 244.866 1308.91 245.292C1308.15 245.766 1307.19 246.074 1306.03 246.216C1304.87 246.358 1303.69 246.429 1302.51 246.429C1301.32 246.429 1300.23 246.394 1299.24 246.323C1298.24 246.252 1297.56 246.216 1297.18 246.216L1287.16 246.216Z"/>
<path d="M1347.28 246.216C1346.29 245.979 1345.44 245.529 1344.72 244.866C1344.01 244.202 1343.55 243.468 1343.34 242.663C1343.13 241.857 1343.18 241.052 1343.52 240.246C1343.85 239.441 1344.53 238.754 1345.58 238.185C1346.43 237.711 1347.44 237.486 1348.6 237.51C1349.76 237.534 1350.81 237.546 1351.76 237.546C1356.83 237.451 1361.95 237.451 1367.11 237.546C1367.4 237.546 1367.7 237.628 1368.04 237.794C1368.37 237.96 1368.65 238.138 1368.89 238.327C1369.55 238.754 1370.05 239.287 1370.38 239.926C1370.71 240.566 1370.89 241.206 1370.91 241.845C1370.94 242.485 1370.8 243.113 1370.49 243.729C1370.18 244.345 1369.69 244.866 1369.03 245.292C1368.27 245.766 1367.31 246.074 1366.15 246.216C1364.99 246.358 1363.82 246.429 1362.63 246.429C1361.45 246.429 1360.36 246.394 1359.36 246.323C1358.37 246.252 1357.68 246.216 1357.3 246.216L1347.28 246.216Z"/>
<path d="M1407.41 246.216C1406.41 245.979 1405.56 245.529 1404.85 244.866C1404.14 244.202 1403.68 243.468 1403.46 242.663C1403.25 241.857 1403.31 241.052 1403.64 240.246C1403.97 239.441 1404.66 238.754 1405.7 238.185C1406.56 237.711 1407.56 237.486 1408.72 237.51C1409.88 237.534 1410.94 237.546 1411.89 237.546C1416.96 237.451 1422.07 237.451 1427.24 237.546C1427.52 237.546 1427.83 237.628 1428.16 237.794C1428.49 237.96 1428.78 238.138 1429.01 238.327C1429.68 238.754 1430.17 239.287 1430.51 239.926C1430.84 240.566 1431.02 241.206 1431.04 241.845C1431.06 242.485 1430.92 243.113 1430.61 243.729C1430.3 244.345 1429.82 244.866 1429.16 245.292C1428.4 245.766 1427.44 246.074 1426.28 246.216C1425.12 246.358 1423.94 246.429 1422.76 246.429C1421.57 246.429 1420.48 246.394 1419.49 246.323C1418.49 246.252 1417.81 246.216 1417.43 246.216L1407.41 246.216Z"/>
<path d="M1467.53 246.216C1466.54 245.979 1465.69 245.529 1464.97 244.866C1464.26 244.202 1463.8 243.468 1463.59 242.663C1463.38 241.857 1463.43 241.052 1463.77 240.246C1464.1 239.441 1464.79 238.754 1465.83 238.185C1466.68 237.711 1467.69 237.486 1468.85 237.51C1470.01 237.534 1471.06 237.546 1472.01 237.546C1477.08 237.451 1482.2 237.451 1487.36 237.546C1487.65 237.546 1487.95 237.628 1488.29 237.794C1488.62 237.96 1488.9 238.138 1489.14 238.327C1489.8 238.754 1490.3 239.287 1490.63 239.926C1490.96 240.566 1491.14 241.206 1491.16 241.845C1491.19 242.485 1491.05 243.113 1490.74 243.729C1490.43 244.345 1489.94 244.866 1489.28 245.292C1488.52 245.766 1487.56 246.074 1486.4 246.216C1485.24 246.358 1484.07 246.429 1482.88 246.429C1481.7 246.429 1480.61 246.394 1479.62 246.323C1478.62 246.252 1477.93 246.216 1477.55 246.216L1467.53 246.216Z"/>
<path d="M1527.66 246.216C1526.66 245.979 1525.81 245.529 1525.1 244.866C1524.39 244.202 1523.93 243.468 1523.71 242.663C1523.5 241.857 1523.56 241.052 1523.89 240.246C1524.22 239.441 1524.91 238.754 1525.95 238.185C1526.81 237.711 1527.81 237.486 1528.97 237.51C1530.13 237.534 1531.19 237.546 1532.14 237.546C1537.21 237.451 1542.32 237.451 1547.49 237.546C1547.77 237.546 1548.08 237.628 1548.41 237.794C1548.74 237.96 1549.03 238.138 1549.26 238.327C1549.93 238.754 1550.42 239.287 1550.76 239.926C1551.09 240.566 1551.27 241.206 1551.29 241.845C1551.31 242.485 1551.17 243.113 1550.86 243.729C1550.55 244.345 1550.07 244.866 1549.41 245.292C1548.65 245.766 1547.69 246.074 1546.53 246.216C1545.37 246.358 1544.19 246.429 1543.01 246.429C1541.82 246.429 1540.74 246.394 1539.74 246.323C1538.75 246.252 1538.06 246.216 1537.68 246.216L1527.66 246.216Z"/>
<path d="M1587.78 246.216C1586.79 245.979 1585.94 245.529 1585.22 244.866C1584.51 244.202 1584.05 243.468 1583.84 242.663C1583.63 241.857 1583.69 241.052 1584.02 240.246C1584.35 239.441 1585.04 238.754 1586.08 238.185C1586.93 237.711 1587.94 237.486 1589.1 237.51C1590.26 237.534 1591.31 237.546 1592.26 237.546C1597.33 237.451 1602.45 237.451 1607.61 237.546C1607.9 237.546 1608.2 237.628 1608.54 237.794C1608.87 237.96 1609.15 238.138 1609.39 238.327C1610.05 238.754 1610.55 239.287 1610.88 239.926C1611.21 240.566 1611.39 241.206 1611.41 241.845C1611.44 242.485 1611.3 243.113 1610.99 243.729C1610.68 244.345 1610.19 244.866 1609.53 245.292C1608.77 245.766 1607.81 246.074 1606.65 246.216C1605.49 246.358 1604.32 246.429 1603.13 246.429C1601.95 246.429 1600.86 246.394 1599.87 246.323C1598.87 246.252 1598.18 246.216 1597.8 246.216L1587.78 246.216Z"/>
</g>
</g>
<g clip-path="url(#ArtboardFrame)" id="Capa-4" vectornator:layerName="Capa 4">
<path d="M1318.72 115.471C1318.72 115.471 1318.74 118.948 1318.73 124.117C1318.71 136.467 1318.54 158.818 1318.33 166.186C1318.06 175.55 1311.86 182.876 1306.04 186.364C1302.75 188.333 1291.95 193.051 1277.49 189.347C1266.01 186.405 1269.48 170.153 1282.66 173.476C1285.08 174.088 1287.17 174.697 1290.62 174.273C1294.86 173.752 1298.68 170.829 1299.4 167.109C1301.45 156.549 1300 125.799 1300 125.799L1285.21 125.907C1285.21 125.907 1275.71 124.612 1275.82 117.042C1275.94 109.472 1283.17 107.186 1290.32 107.461C1297.59 107.741 1310.32 107.416 1311.52 107.428C1314.63 107.458 1318.35 109.995 1318.72 115.471Z" fill="#ff9e57" fill-rule="nonzero" opacity="1" stroke="#ffffff" stroke-linecap="butt" stroke-linejoin="round" stroke-width="0.103173" vectornator:layerName="Curva 10"/>
<path d="M1567.11 136.049C1568.97 136.073 1571.13 133.46 1571.13 133.46C1587.19 114.357 1586.99 114.527 1590.11 111.673C1591.13 110.734 1592.85 109.122 1594.37 108.538C1595.9 107.946 1597.28 107.977 1598.57 107.994C1607.06 108.106 1610.1 113.678 1610.22 120.801C1610.29 125.08 1611.04 178.277 1610.9 180.042C1610.73 182.073 1610.34 189.768 1601.41 189.826C1592.47 189.884 1591.63 182.574 1591.48 180.918C1591.36 179.494 1590.6 155.717 1590.64 148.389C1590.65 145.964 1587.72 144.018 1584.89 147.442C1576 158.2 1571.14 161.496 1567.35 161.584C1563.03 161.684 1555.37 154.539 1549.58 147.452C1546.67 143.891 1543.34 146.106 1543.32 148.306C1543.23 155.975 1543.68 177.381 1543.19 180.439C1543.19 180.439 1542.62 189.925 1533.44 189.692C1524.25 189.459 1524.17 180.904 1524.17 180.904C1523.78 177.719 1524.17 119.936 1524.17 119.936C1524.17 119.936 1523.18 107.992 1534.4 107.982C1535.36 107.981 1536.88 107.761 1539.42 108.783C1540.81 109.341 1542.39 110.363 1544.09 111.785C1547.16 114.356 1547.53 114.869 1563.03 133.444C1563.03 133.444 1564.97 136.02 1567.11 136.049Z" fill="#ff9e57" fill-rule="nonzero" opacity="1" stroke="#ffffff" stroke-linecap="butt" stroke-linejoin="round" stroke-width="0.478624" vectornator:layerName="Curva 11"/>
<path d="M1435.12 156.207L1434.82 118.971C1434.82 115.745 1435.62 113.325 1437.2 111.712C1438.79 110.1 1440.61 109.293 1443.2 109.293C1445.9 109.293 1448.05 110.1 1449.64 111.712C1451.22 113.325 1451.88 115.745 1451.88 118.971L1452.46 156.134C1452.98 162.818 1453.48 163.566 1454.36 165.583C1455.59 168.41 1457.82 170.886 1459.95 172.332C1462.72 174.204 1467.18 175.711 1472.11 175.711C1478.94 175.711 1484.55 172.855 1487.37 169.538C1489.23 167.343 1491.41 164.003 1491.87 156.056L1491.77 118.437C1491.77 115.175 1492.68 112.48 1494.25 110.884C1495.82 109.289 1497.92 108.492 1500.54 108.492C1503.17 108.492 1505.29 109.289 1506.92 110.884C1508.55 112.48 1509.36 114.908 1509.36 118.17L1509.07 156.074C1509.07 162.239 1508.42 166.582 1507.1 170.704C1505.79 174.826 1503.31 178.446 1499.67 181.565C1496.53 184.217 1492.78 186.146 1488.73 187.638C1484.51 189.192 1478.91 189.999 1473.35 189.999C1466.73 189.999 1460.52 189.204 1455.71 187.637C1451.01 186.105 1447.56 184.037 1444.55 181.295C1441.53 178.553 1439.21 174.93 1437.5 170.757C1435.62 166.151 1435.12 162.157 1435.12 156.207Z" fill="#ff9e57" fill-rule="nonzero" opacity="1" stroke="#ff9e57" stroke-linecap="butt" stroke-linejoin="round" stroke-width="2.30881" vectornator:layerName="path 1"/>
<path d="M1372.81 103.515C1349.25 103.515 1330.16 122.069 1330.16 144.958L1330.16 152.969C1330.16 170.485 1341.34 185.352 1357.15 191.4C1358.6 191.958 1360.36 192.732 1361.9 193.11C1363.8 193.577 1365.56 193.928 1367.15 194.192C1372.57 195.092 1375.97 194.971 1375.97 194.971C1381.67 194.938 1385.35 193.974 1389.5 192.67C1406.61 187.282 1418.72 171.397 1418.72 152.969L1418.72 144.958C1418.72 122.069 1399.63 103.515 1376.07 103.515L1372.81 103.515ZM1373.51 118.48C1373.51 118.48 1378.32 118.318 1380.36 118.987L1380.46 119.013C1385.07 120.024 1389.77 122.199 1393 125.067C1396.57 128.227 1399.44 132.571 1400.67 136.864C1401.98 141.462 1402.4 145.983 1400.89 150.706C1400.56 151.733 1399.94 153.726 1397.19 157.884C1397.19 157.884 1393.77 163.105 1393.67 163.279C1393.27 164.016 1389.99 169.583 1389.02 171.933C1388.47 173.25 1386.48 173.344 1371.73 178.04C1367.4 179.416 1366.45 179.197 1365.13 176.542C1364.99 176.263 1364.36 175.056 1364.23 174.834C1362.77 172.422 1363.79 172.223 1363.79 172.223C1364.56 171.374 1378.07 167.205 1379.91 166.567C1381.88 165.923 1382.17 165.065 1381.35 163.197C1380.13 160.416 1378.57 161.286 1377.92 161.435C1376.13 161.849 1367.74 164.522 1361.9 166.404C1360.34 166.907 1360.22 167.102 1358.7 165.867C1356.56 164.116 1355.16 162.517 1355.08 162.429C1354.23 161.533 1352.24 159.071 1352.22 159.053C1352.17 158.985 1351.91 158.712 1351.68 158.408C1351.03 157.545 1350.61 156.952 1350 155.936C1348.67 153.701 1347.7 151.603 1347.28 149.41C1347.24 149.201 1347.2 148.993 1347.17 148.786C1346.36 143.583 1347.19 139.051 1348.88 135.045C1350.47 131.26 1352.99 127.99 1356.49 124.972C1358.22 123.478 1360.14 122.26 1362.23 121.257C1363.82 120.494 1365.37 119.912 1367.12 119.366C1368.74 118.862 1371.08 118.552 1373.51 118.48ZM1387.5 182.4C1387.24 183.38 1386.85 184.402 1386.32 185.133C1385.94 185.656 1384.67 187.27 1380.91 188.564C1376.63 190.038 1374.92 189.406 1374.51 189.307C1373.85 189.148 1372.87 188.986 1371.7 188.131L1371.66 188.105C1369.72 186.42 1369.36 184.551 1370.64 184.068C1375.58 182.214 1385.88 179.344 1385.88 179.344C1387.62 178.991 1388.41 178.92 1387.5 182.4Z" fill="#ff9e57" fill-rule="nonzero" opacity="1" stroke="none" vectornator:layerName="Curva 12"/>
<path d="M-19.4266 80.869C-19.4266 70.9433-10.729 62.8969 1.33227e-14 62.8969C10.729 62.8969 19.4266 70.9433 19.4266 80.869C19.4266 90.7946 10.729 98.841 1.33227e-14 98.841C-10.729 98.841-19.4266 90.7946-19.4266 80.869Z" fill="#ffffff" fill-rule="nonzero" opacity="0.23276" stroke="none" vectornator:layerName="Óvalo 6"/>
<path d="M1115.03 11.7075C1115.03-1.53804 1126.55-12.2756 1140.76-12.2756C1154.98-12.2756 1166.5-1.53804 1166.5 11.7075C1166.5 24.953 1154.98 35.6906 1140.76 35.6906C1126.55 35.6906 1115.03 24.953 1115.03 11.7075Z" fill="#ffffff" fill-rule="nonzero" opacity="0.119298" stroke="#ff9e57" stroke-linecap="butt" stroke-linejoin="round" stroke-width="0" vectornator:layerName="Óvalo 7"/>
<path d="M1067.96 11.7869C1067.96 5.44233 1073.48 0.299001 1080.29 0.299001C1087.1 0.299001 1092.62 5.44233 1092.62 11.7869C1092.62 18.1316 1087.1 23.2749 1080.29 23.2749C1073.48 23.2749 1067.96 18.1316 1067.96 11.7869Z" fill="#ffffff" fill-rule="nonzero" opacity="0.119298" stroke="#ff9e57" stroke-linecap="butt" stroke-linejoin="round" stroke-width="0" vectornator:layerName="Óvalo 12"/>
<path d="M676.247 171.828C676.247 158.275 688.037 147.288 702.581 147.288C717.125 147.288 728.915 158.275 728.915 171.828C728.915 185.381 717.125 196.367 702.581 196.367C688.037 196.367 676.247 185.381 676.247 171.828Z" fill="#ffffff" fill-rule="nonzero" opacity="0.453913" stroke="none" vectornator:layerName="Óvalo 8"/>
<path d="M687.884 399.455C687.884 356.25 725.47 321.226 771.834 321.226C818.198 321.226 855.783 356.25 855.783 399.455C855.783 442.66 818.198 477.684 771.834 477.684C725.47 477.684 687.884 442.66 687.884 399.455Z" fill="#ffffff" fill-rule="nonzero" opacity="0.450067" stroke="none" vectornator:layerName="Óvalo 9"/>
<path d="M737.946 50.3048C737.946 32.6247 753.326 18.2921 772.299 18.2921C791.272 18.2921 806.653 32.6247 806.653 50.3048C806.653 67.9849 791.272 82.3175 772.299 82.3175C753.326 82.3175 737.946 67.9849 737.946 50.3048Z" fill="#ffffff" fill-rule="nonzero" opacity="0.311606" stroke="none" vectornator:layerName="Óvalo 10"/>
<path d="M456.953 62.8969C456.953 59.8683 459.593 57.4132 462.849 57.4132C466.105 57.4132 468.745 59.8683 468.745 62.8969C468.745 65.9255 466.105 68.3807 462.849 68.3807C459.593 68.3807 456.953 65.9255 456.953 62.8969Z" fill="#ffffff" fill-rule="nonzero" opacity="0.184683" stroke="none" vectornator:layerName="Óvalo 11"/>
<path d="M1160.14 292.351C1160.14 272.645 1177.29 256.67 1198.43 256.67C1219.58 256.67 1236.72 272.645 1236.72 292.351C1236.72 312.058 1219.58 328.033 1198.43 328.033C1177.29 328.033 1160.14 312.058 1160.14 292.351Z" fill="#ffffff" fill-rule="nonzero" opacity="0.0673749" stroke="#ff9e57" stroke-linecap="butt" stroke-linejoin="round" stroke-width="0" vectornator:layerName="Óvalo 13"/>
</g>
</svg>
