<?xml version="1.0" encoding="UTF-8" standalone="no"?>
<!DOCTYPE svg PUBLIC "-//W3C//DTD SVG 1.1//EN" "http://www.w3.org/Graphics/SVG/1.1/DTD/svg11.dtd">
<!-- Created with Vectornator (http://vectornator.io/) -->
<svg height="100%" stroke-miterlimit="10" style="fill-rule:nonzero;clip-rule:evenodd;stroke-linecap:round;stroke-linejoin:round;" version="1.1" viewBox="0 0 1052.73 1113" width="100%" xml:space="preserve" xmlns="http://www.w3.org/2000/svg" xmlns:vectornator="http://vectornator.io" xmlns:xlink="http://www.w3.org/1999/xlink">
<defs>
<path d="M406.128 812.404C404.915 813.065 403.627 813.579 402.194 813.86C403.583 813.587 404.856 812.988 406.128 812.404Z" id="Fill"/>
</defs>
<clipPath id="ArtboardFrame">
<rect height="1113" width="1052.73" x="0" y="0"/>
</clipPath>
<g clip-path="url(#ArtboardFrame)" id="Capa-2" vectornator:layerName="Capa 2" visibility="hidden">
<path d="M-9.09495e-13 0L2746 0L2746 1113L735.623 1113L-9.09495e-13 1113L-9.09495e-13 0Z" fill="#454545" fill-rule="nonzero" opacity="1" stroke="#084444" stroke-linecap="butt" stroke-linejoin="round" stroke-width="0.745627" vectornator:layerName="Rectángulo 1"/>
</g>
<g id="Capa-3" opacity="0.1" vectornator:layerName="Capa 3"/>
<g id="Capa-4" vectornator:layerName="Capa 4">
<g opacity="1" vectornator:layerName="Curva 7">
<use fill="#9a9a9a" fill-rule="nonzero" stroke="none" xlink:href="#Fill"/>
<mask height="1.45566" id="StrokeMask" maskUnits="userSpaceOnUse" width="3.93422" x="402.194" y="812.404">
<rect fill="#000000" height="1.45566" stroke="none" width="3.93422" x="402.194" y="812.404"/>
<use fill="#ffffff" fill-rule="evenodd" stroke="none" xlink:href="#Fill"/>
</mask>
<use fill="none" mask="url(#StrokeMask)" stroke="#9a9a9a" stroke-linecap="butt" stroke-linejoin="round" stroke-width="86.3269" xlink:href="#Fill"/>
</g>
<path d="M543.833 27.7743C535.182 27.6266 526.726 27.672 518.655 27.8284C516.258 27.8748 514.526 27.8983 513.36 27.9364C513.3 27.9384 513.146 27.9346 513.09 27.9364C475.229 29.0775 439.315 34.0173 411.997 42.5248C385.054 50.9186 362.098 59.7109 339.163 70.7291C306.045 86.6408 276.207 105.867 249.526 128.867C195.674 175.287 156.908 226.358 132.224 285.07C103.606 353.144 93.6563 424.616 105.479 500.709C106.082 504.588 106.696 507.957 107.37 511.407C114.292 546.891 128.612 580.44 151.189 618.28C159.598 632.377 165.687 641.24 176.908 656.264C177.754 657.397 178.627 658.516 179.502 659.614C181.511 662.139 183.453 664.435 185.553 666.8C185.911 667.203 186.271 667.585 186.634 667.989C187.762 669.379 190.568 672.851 191.983 674.581C196.723 680.377 201.51 686.201 206.085 691.655C206.522 692.175 206.952 692.657 207.382 693.167C215.086 702.323 221.348 709.468 226.238 714.618C225.652 714 224.808 713.084 226.346 714.78C227.378 715.917 228.397 717.065 229.588 718.346C232.971 721.984 236.721 725.847 240.881 730.017C252.565 741.729 262.18 748.924 280.102 768.998C297.44 788.418 302.516 791.888 315.761 814.857C331.672 842.449 332.96 838.775 359.419 894.254C385.992 949.972 408.066 1008.56 428.33 1030.98C428.33 1030.98 469.511 1084.84 548.465 1085.31C641.815 1085.86 696.809 1044.92 717.274 1024.13C730.988 1010.2 740.424 994.567 748.144 978.748C761.891 950.579 767.967 896.171 767.967 896.171C767.967 896.171 772.164 850.548 781.598 816.358C783.891 808.045 787.887 794.787 801.733 769.19C815.578 743.593 835.954 715.702 836.98 713.969C837.072 713.82 879.566 647.041 880.069 646.268L880.123 646.268C880.196 646.159 880.212 646.054 880.285 645.944C898.042 619.081 911.207 596.1 920.754 575.812C927.919 560.587 931.477 550.883 936.207 536.099C958.913 465.27 956.556 394.972 934.1 316.463C914.601 248.318 870.429 180.637 814.043 130.704C764.412 86.7478 694.492 53.2005 622.989 37.0677L621.746 36.7435C621.296 36.6432 620.846 36.5182 620.395 36.4193C605.911 32.3238 589.565 30.0428 570.038 28.8009C561.336 28.2475 552.485 27.9221 543.833 27.7743ZM515.413 97.5825C515.413 97.5825 577.779 95.4459 604.186 104.12L605.429 104.499C665.06 117.592 725.918 145.71 767.846 182.844C814.062 223.771 851.195 280.053 867.101 335.644C884.132 395.187 889.518 453.703 869.911 514.865C865.658 528.159 857.657 553.968 822.039 607.798C822.039 607.798 777.79 675.411 776.545 677.661C771.272 687.206 728.83 759.291 716.247 789.721C709.196 806.781 683.38 808.01 492.288 868.823C442.313 884.727 427.091 883.974 412.268 859.205C410.489 856.234 408.745 853.106 406.918 849.425C405.12 845.801 396.982 830.193 395.248 827.327C376.369 796.092 389.52 793.503 389.52 793.503C399.44 782.514 574.444 728.498 598.351 720.237C623.802 711.895 627.566 700.779 616.937 676.58C601.122 640.572 580.96 651.853 572.578 653.779C549.283 659.132 440.726 693.76 365.098 718.13C344.866 724.65 343.297 727.151 323.711 711.16C295.929 688.479 277.784 667.776 276.703 666.638C265.685 655.037 239.942 623.167 239.746 622.927C239.037 622.054 235.667 618.548 232.722 614.606C224.371 603.425 218.85 595.722 211.002 582.566C193.736 553.628 181.261 526.467 175.719 498.061C175.192 495.362 174.73 492.682 174.315 490.011C163.845 422.63 174.605 363.959 196.413 312.086C217.021 263.069 249.686 220.734 295.02 181.655C317.464 162.307 342.351 146.493 369.367 133.513C389.938 123.63 410.004 116.105 432.691 109.037C453.643 102.512 483.921 98.5162 515.413 97.5825ZM694.317 925.78C691.077 938.208 685.041 951.173 678.333 960.459C673.545 967.086 660.22 988.771 613.763 1004.97C562.006 1023.03 534.71 1016.6 529.545 1015.35C521.201 1013.33 508.651 1009.33 493.812 998.483L493.417 998.151C468.783 976.778 464.199 953.065 480.486 946.945C543.086 923.424 673.738 887.01 673.738 887.01C695.872 882.536 705.826 881.633 694.317 925.78Z" fill="#585858" fill-rule="nonzero" opacity="1" stroke="#585858" stroke-linecap="butt" stroke-linejoin="round" stroke-width="2" vectornator:layerName="Curva 8"/>
</g>
</svg>
