<?xml version="1.0" encoding="UTF-8" standalone="no"?>
<!DOCTYPE svg PUBLIC "-//W3C//DTD SVG 1.1//EN" "http://www.w3.org/Graphics/SVG/1.1/DTD/svg11.dtd">
<!-- Created with Vectornator (http://vectornator.io/) -->
<svg height="100%" stroke-miterlimit="10" style="fill-rule:nonzero;clip-rule:evenodd;stroke-linecap:round;stroke-linejoin:round;" version="1.1" viewBox="0 0 1024 1024" width="100%" xml:space="preserve" xmlns="http://www.w3.org/2000/svg" xmlns:vectornator="http://vectornator.io" xmlns:xlink="http://www.w3.org/1999/xlink">
<defs/>
<g id="Capa-1" vectornator:layerName="Capa 1"/>
<g id="Capa-4" vectornator:layerName="Capa 4">
<path d="M347.625 0C155.635-2.03451e-05 0 155.635 0 347.625L0 676.375C-2.03451e-05 868.365 155.635 1024 347.625 1024L676.375 1024C693.798 1024 710.922 1022.72 727.657 1020.24C895.331 995.453 1024 850.942 1024 676.375L1024 347.625C1024 155.635 868.365 0 676.375 0L347.625 0Z" fill="#f17700" fill-rule="nonzero" opacity="1" stroke="none" vectornator:layerName="Curva 1"/>
<path d="M491.371 104.749C508.105 104.587 543.794 104.979 561.451 110.661L562.584 110.937C615.75 122.372 669.988 146.963 707.369 179.393C748.568 215.136 781.674 264.265 795.857 312.815C811.04 364.815 813.961 435.511 795.275 479.928C790.534 491.201 784.653 502.584 776.714 516.102C776.714 516.102 758.069 546.611 755.671 550.529C755.671 550.529 714.699 611.078 713.587 613.044C708.872 621.38 672.725 676.701 659.832 713.937C658.063 719.046 634.165 728.455 634.165 728.455C634.165 728.455 617.78 733.791 614.041 735.132L607.609 737.062L464.111 785.303C443.382 792.467 415.507 807.053 388.701 770.724C368.558 743.424 363.634 732.638 369.466 726.342C379.312 715.71 540.113 663.804 561.298 656.231C580.557 648.296 580.794 625.684 576.874 612.223C571.136 592.522 551.184 586.351 544.084 589.183C525.905 596.434 363.571 649.896 351.425 652.831C335.899 656.584 321.185 652.468 313.322 645.082C301.272 633.762 284.686 618.31 277.241 609.736C277.241 609.736 275.457 607.682 274.546 606.642C266.832 597.85 240.819 569.542 240.639 569.336C239.988 568.59 237.514 565.629 237.515 565.629C237.515 565.629 232.911 559.883 230.286 556.441C222.841 546.676 220.989 541.497 213.991 530.007C198.599 504.735 187.476 479.497 182.535 454.69C182.066 452.332 181.63 449.982 181.279 447.645C173.54 396.153 179.999 337.564 199.442 292.262C217.815 249.454 245.398 212.451 285.817 178.321C305.827 161.425 327.982 147.664 352.068 136.328C370.41 127.697 388.351 121.121 408.58 114.949C427.259 109.25 454.259 105.748 482.335 104.933C482.335 104.933 485.793 104.803 491.371 104.749Z" fill="#ffffff" fill-rule="nonzero" opacity="1" stroke="none" vectornator:layerName="Curva 2"/>
<path d="M634.33 798.994C643.379 799.369 648.259 806.053 645.97 828.429C643.976 847.908 643.162 859.684 639.568 865.858C635.59 872.691 630.825 895.539 588.111 909.781C545.283 924.061 519.645 918.542 516.928 918.234C499.57 916.268 477.508 902.307 477.508 902.307C468.74 893.528 442.935 871.333 453.74 859.059C463.885 847.533 624.008 800.373 624.008 800.373C627.844 799.444 631.314 798.87 634.33 798.994Z" fill="#ffffff" fill-rule="nonzero" opacity="1" stroke="none" vectornator:layerName="Curva 3"/>
</g>
</svg>
