<?xml version="1.0" encoding="UTF-8" standalone="no"?>
<!DOCTYPE svg PUBLIC "-//W3C//DTD SVG 1.1//EN" "http://www.w3.org/Graphics/SVG/1.1/DTD/svg11.dtd">
<!-- Created with Vectornator (http://vectornator.io/) -->
<svg height="100%" stroke-miterlimit="10" style="fill-rule:nonzero;clip-rule:evenodd;stroke-linecap:round;stroke-linejoin:round;" version="1.1" viewBox="0 0 2746 1113" width="100%" xml:space="preserve" xmlns="http://www.w3.org/2000/svg" xmlns:vectornator="http://vectornator.io" xmlns:xlink="http://www.w3.org/1999/xlink">
<defs/>
<clipPath id="ArtboardFrame">
<rect height="1113" width="2746" x="0" y="0"/>
</clipPath>
<g clip-path="url(#ArtboardFrame)" id="Capa-2" vectornator:layerName="Capa 2" visibility="hidden">
<path d="M-9.09495e-13 0L2746 0L2746 1113L735.623 1113L-9.09495e-13 1113L-9.09495e-13 0Z" fill="#454545" fill-rule="nonzero" opacity="1" stroke="#084444" stroke-linecap="butt" stroke-linejoin="round" stroke-width="0.745627" vectornator:layerName="Rectángulo 1"/>
</g>
<g id="Capa-3" vectornator:layerName="Capa 3">
<path d="M438.352 314.246C438.352 314.246 438.477 340.285 438.414 378.996C438.262 471.494 437.015 638.886 435.428 694.069C433.41 764.195 386.945 819.059 343.359 845.185C318.763 859.927 237.829 895.261 129.591 867.525C43.6094 845.493 69.5918 723.772 168.242 748.658C186.419 753.244 202.018 757.805 227.874 754.631C259.65 750.729 288.224 728.836 293.634 700.974C308.989 621.894 298.133 391.597 298.133 391.597L187.356 392.407C187.356 392.407 116.191 382.705 117.077 326.01C117.963 269.316 172.085 252.198 225.632 254.258C280.112 256.352 375.44 253.921 384.427 254.009C407.72 254.236 435.549 273.236 438.352 314.246Z" fill="#ffffff" fill-rule="nonzero" opacity="1" stroke="#ffffff" stroke-linecap="butt" stroke-linejoin="round" stroke-width="0.772691" vectornator:layerName="Curva 3"/>
<path d="M2328.57 468.358C2342.49 468.542 2358.68 448.974 2358.68 448.974C2479 305.903 2477.45 307.175 2500.81 285.803C2508.5 278.771 2521.4 266.699 2532.73 262.322C2544.22 257.887 2554.53 258.124 2564.24 258.252C2627.83 259.09 2650.52 300.819 2651.43 354.162C2651.98 386.213 2657.62 784.622 2656.55 797.836C2655.31 813.049 2652.37 870.676 2585.46 871.112C2518.53 871.548 2512.21 816.801 2511.14 804.401C2510.23 793.736 2504.49 615.659 2504.8 560.777C2504.9 542.614 2482.97 528.045 2461.77 553.69C2395.18 634.254 2358.77 658.94 2330.39 659.598C2298.06 660.349 2240.68 606.836 2197.29 553.76C2175.5 527.091 2150.61 543.68 2150.43 560.157C2149.78 617.59 2153.14 777.908 2149.45 800.809C2149.45 800.809 2145.16 871.854 2076.4 870.111C2007.64 868.366 2007 804.295 2007 804.295C2004.06 780.439 2007 347.689 2007 347.689C2007 347.689 1999.61 258.233 2083.62 258.16C2090.78 258.154 2102.2 256.505 2121.23 264.155C2131.65 268.341 2143.44 275.991 2156.17 286.644C2179.18 305.895 2181.93 309.739 2298.06 448.851C2298.06 448.851 2312.61 468.147 2328.57 468.358Z" fill="#ffffff" fill-rule="nonzero" opacity="1" stroke="#ffffff" stroke-linecap="butt" stroke-linejoin="round" stroke-width="3.58455" vectornator:layerName="Curva 7"/>
<path d="M1330.06 619.331L1327.87 340.457C1327.87 316.298 1333.81 298.178 1345.7 286.098C1357.59 274.019 1371.22 267.979 1390.59 267.979C1410.85 267.979 1426.92 274.019 1438.81 286.098C1450.69 298.178 1455.61 316.298 1455.61 340.457L1459.92 618.784C1463.83 668.841 1467.56 674.441 1474.15 689.548C1483.38 710.725 1500.1 729.262 1516.08 740.091C1536.77 754.117 1570.17 765.4 1607.15 765.4C1658.23 765.4 1700.26 744.013 1721.37 719.166C1735.34 702.731 1751.64 677.719 1755.08 618.2L1754.33 336.457C1754.33 312.029 1761.2 291.843 1772.94 279.897C1784.68 267.951 1800.38 261.979 1820.05 261.979C1839.72 261.979 1855.64 267.951 1867.82 279.897C1880 291.843 1886.09 310.029 1886.09 334.457L1883.94 618.331C1883.94 664.503 1879.02 697.033 1869.19 727.903C1859.35 758.774 1840.79 785.886 1813.49 809.24C1790.01 829.105 1761.9 843.554 1731.59 854.724C1700.02 866.361 1658.08 872.408 1616.4 872.408C1566.79 872.408 1520.35 866.457 1484.31 854.717C1449.1 843.247 1423.29 827.756 1400.69 807.22C1378.09 786.685 1360.74 759.553 1347.94 728.299C1333.81 693.805 1330.06 663.892 1330.06 619.331Z" fill="#ffffff" fill-rule="nonzero" opacity="1" stroke="#ffffff" stroke-linecap="butt" stroke-linejoin="round" stroke-width="17.2913" vectornator:layerName="path"/>
</g>
<g id="Capa-4" vectornator:layerName="Capa 4">
<path d="M868.464 224.852C692.033 224.852 549.026 363.808 549.026 535.227L549.026 595.227C549.026 726.409 632.77 837.753 751.157 883.046C762.074 887.223 775.238 893.022 786.753 895.855C800.972 899.353 814.156 901.981 826.044 903.954C866.666 910.696 892.159 909.788 892.159 909.788C934.843 909.545 962.401 902.324 993.44 892.557C1121.64 852.206 1212.34 733.238 1212.34 595.227L1212.34 535.227C1212.34 363.809 1069.33 224.852 892.901 224.852L868.464 224.852ZM873.719 336.929C873.719 336.929 909.771 335.712 925.044 340.729L925.785 340.922C960.274 348.495 995.46 364.781 1019.71 386.258C1046.44 409.929 1067.92 442.46 1077.12 474.612C1086.97 509.05 1090.07 542.906 1078.73 578.28C1076.27 585.969 1071.64 600.899 1051.04 632.033C1051.04 632.033 1025.45 671.139 1024.73 672.44C1021.68 677.961 997.14 719.653 989.862 737.253C985.784 747.12 970.87 747.818 860.348 782.99C827.977 793.292 820.829 791.652 810.966 771.774C809.926 769.678 805.207 760.641 804.204 758.983C793.285 740.918 800.912 739.423 800.912 739.423C806.649 733.067 907.849 701.846 921.676 697.068C936.396 692.243 938.589 685.82 932.442 671.824C923.295 650.998 911.622 657.517 906.774 658.631C893.301 661.727 830.523 681.748 786.782 695.843C775.08 699.614 774.148 701.073 762.82 691.824C746.752 678.706 736.281 666.731 735.656 666.073C729.283 659.363 714.399 640.927 714.286 640.788C713.876 640.283 711.916 638.241 710.213 635.961C705.383 629.494 702.191 625.054 697.652 617.445C687.666 600.708 680.443 584.997 677.238 568.568C676.933 567.007 676.673 565.445 676.433 563.9C670.378 524.929 676.604 490.994 689.217 460.992C701.136 432.642 720.023 408.152 746.243 385.55C759.224 374.36 773.604 365.237 789.229 357.73C801.127 352.014 812.749 347.65 825.871 343.562C837.989 339.788 855.505 337.469 873.719 336.929ZM978.491 815.642C976.578 822.979 973.587 830.633 969.627 836.115C966.8 840.027 957.288 852.115 929.165 861.804C897.106 872.848 884.267 868.112 881.218 867.375C876.292 866.184 868.883 864.965 860.123 858.562L859.89 858.366C845.347 845.749 842.641 831.75 852.256 828.137C889.212 814.251 966.342 792.754 966.342 792.754C979.409 790.113 985.285 789.58 978.491 815.642Z" fill="#ff9c5e" fill-rule="nonzero" opacity="1" stroke="none" vectornator:layerName="Curva 1"/>
</g>
</svg>
