<?xml version="1.0" encoding="UTF-8" standalone="no"?>
<!DOCTYPE svg PUBLIC "-//W3C//DTD SVG 1.1//EN" "http://www.w3.org/Graphics/SVG/1.1/DTD/svg11.dtd">
<!-- Created with Vectornator (http://vectornator.io/) -->
<svg height="100%" stroke-miterlimit="10" style="fill-rule:nonzero;clip-rule:evenodd;stroke-linecap:round;stroke-linejoin:round;" version="1.1" viewBox="0 0 1024 1024" width="100%" xml:space="preserve" xmlns="http://www.w3.org/2000/svg" xmlns:vectornator="http://vectornator.io" xmlns:xlink="http://www.w3.org/1999/xlink">
<defs>
<linearGradient gradientTransform="matrix(1024 0 0 1024 -1.13687e-13 512)" gradientUnits="userSpaceOnUse" id="LinearGradient" x1="0" x2="1" y1="0" y2="0">
<stop offset="0" stop-color="#ff852b"/>
<stop offset="0.384787" stop-color="#dc6a17"/>
<stop offset="0.630872" stop-color="#dc6a17"/>
<stop offset="1" stop-color="#ff852b"/>
</linearGradient>
</defs>
<clipPath id="ArtboardFrame">
<rect height="1024" width="1024" x="0" y="0"/>
</clipPath>
<g clip-path="url(#ArtboardFrame)" id="Capa-4" vectornator:layerName="Capa 4">
<path d="M-9.95949e-14 288.113C-1.7053e-13 128.993 128.993-2.84217e-13 288.113-2.46773e-13L735.887-1.4858e-13C895.007-1.7053e-13 1024 128.993 1024 288.113L1024 735.887C1024 895.007 895.007 1024 735.887 1024L288.113 1024C128.993 1024 1.13687e-13 895.007 9.93597e-14 735.887L-9.95949e-14 288.113Z" fill="url(#LinearGradient)" fill-rule="nonzero" opacity="1" stroke="none" vectornator:layerName="Rectángulo 1"/>
<path d="M491.349 99.8377C508.285 99.6738 544.404 100.07 562.274 105.821L563.421 106.1C617.228 117.673 672.119 142.561 709.951 175.382C751.647 211.556 785.152 261.277 799.506 310.412C814.872 363.039 817.828 434.587 798.917 479.54C794.119 490.949 788.167 502.469 780.132 516.15C780.132 516.15 761.262 547.027 758.835 550.992C758.835 550.992 717.37 612.271 716.244 614.261C711.472 622.697 674.889 678.685 661.841 716.37C660.051 721.541 635.865 731.063 635.865 731.063C635.865 731.063 619.282 736.463 615.498 737.82L608.988 739.774L463.76 788.596C442.782 795.847 414.571 810.609 387.441 773.842C367.056 746.212 362.072 735.296 367.974 728.924C377.939 718.164 540.679 665.633 562.119 657.968C581.61 649.938 581.85 627.053 577.883 613.43C572.076 593.491 551.883 587.246 544.698 590.112C526.299 597.45 362.008 651.557 349.716 654.527C334.003 658.326 319.111 654.16 311.154 646.685C298.958 635.228 282.172 619.59 274.638 610.913C274.638 610.913 272.832 608.834 271.91 607.781C264.103 598.883 237.777 570.234 237.594 570.026C236.936 569.271 234.432 566.274 234.433 566.274C234.433 566.274 229.773 560.459 227.117 556.975C219.582 547.092 217.707 541.851 210.625 530.223C195.048 504.646 183.79 479.104 178.79 453.998C178.315 451.611 177.874 449.233 177.519 446.868C169.686 394.755 176.223 335.459 195.901 289.611C214.495 246.287 242.411 208.838 283.317 174.297C303.568 157.197 325.99 143.27 350.367 131.797C368.93 123.062 387.087 116.407 407.56 110.161C426.464 104.393 453.79 100.849 482.204 100.024C482.204 100.024 485.704 99.8924 491.349 99.8377Z" fill="#ffffff" fill-rule="nonzero" opacity="1" stroke="none" vectornator:layerName="Curva 2"/>
<path d="M633.032 804.452C642.19 804.832 647.129 811.596 644.812 834.242C642.794 853.956 641.97 865.874 638.333 872.122C634.307 879.038 629.484 902.161 586.255 916.575C542.911 931.027 516.964 925.442 514.214 925.13C496.647 923.14 474.319 909.011 474.319 909.011C465.445 900.126 439.329 877.663 450.264 865.241C460.532 853.577 622.585 805.848 622.585 805.848C626.467 804.908 629.979 804.327 633.032 804.452Z" fill="#ffffff" fill-rule="nonzero" opacity="1" stroke="none" vectornator:layerName="Curva 3"/>
</g>
</svg>
