<?xml version="1.0" encoding="UTF-8" standalone="no"?>
<!DOCTYPE svg PUBLIC "-//W3C//DTD SVG 1.1//EN" "http://www.w3.org/Graphics/SVG/1.1/DTD/svg11.dtd">
<!-- Created with Vectornator (http://vectornator.io/) -->
<svg height="100%" stroke-miterlimit="10" style="fill-rule:nonzero;clip-rule:evenodd;stroke-linecap:round;stroke-linejoin:round;" version="1.1" viewBox="0 0 1052.73 1024" width="100%" xml:space="preserve" xmlns="http://www.w3.org/2000/svg" xmlns:vectornator="http://vectornator.io" xmlns:xlink="http://www.w3.org/1999/xlink">
<defs/>
<clipPath id="ArtboardFrame">
<rect height="1024" width="1052.73" x="0" y="0"/>
</clipPath>
<g clip-path="url(#ArtboardFrame)" id="Capa-2" vectornator:layerName="Capa 2" visibility="hidden">
<path d="M-9.09495e-13 0L2746 0L2746 1113L735.623 1113L-9.09495e-13 1113L-9.09495e-13 0Z" fill="#454545" fill-rule="nonzero" opacity="1" stroke="#084444" stroke-linecap="butt" stroke-linejoin="round" stroke-width="0.745627" vectornator:layerName="Rectángulo 1"/>
</g>
<g id="Capa-4" vectornator:layerName="Capa 4">
<path d="M59.1563 381.606C59.1563 349.224 85.4066 322.974 117.788 322.974L914.943 322.974C947.324 322.974 973.574 349.224 973.574 381.606L973.574 902.494C973.574 934.875 947.324 961.125 914.943 961.125L117.788 961.125C85.4066 961.125 59.1563 934.875 59.1563 902.494L59.1563 381.606Z" fill="#fff9f5" fill-rule="nonzero" opacity="0.999523" stroke="#777777" stroke-linecap="butt" stroke-linejoin="round" stroke-width="18" vectornator:layerName="Rectángulo 1"/>
<g opacity="1" vectornator:layerName="Curva 1">
<path d="M482.985 818.868C483.14 834.322 483.256 844.871 483.256 844.871L175.088 844.623C165.683 844.615 158.048 837.016 157.996 827.611L157.294 701.034C157.757 666.442 200.836 611.418 253.035 637.455C301.108 661.433 341.246 659.835 385.404 637.661C432.874 613.824 482.423 662.542 482.195 704.189C482.113 719.163 482.399 726.293 482.695 758.648" fill="#ffbb8b" fill-rule="nonzero" stroke="none"/>
<path d="M226.438 621.25C209.125 621.08 192.683 628.227 179.656 639.375C170.587 647.136 163.082 656.709 157.5 667.25C153.467 674.865 150.359 683.053 148.875 691.562C148.413 694.213 148.098 696.905 148 699.594C147.91 702.066 147.984 704.558 148 707.031C148.021 710.328 148.041 713.61 148.062 716.906C148.144 729.432 148.231 741.974 148.312 754.5C148.419 770.981 148.549 787.456 148.656 803.938C148.695 809.871 148.712 815.785 148.75 821.719C148.767 824.278 148.684 826.884 148.875 829.438C149.694 840.411 157.497 849.971 168.125 852.875C171.606 853.826 175.115 853.813 178.688 853.812C182.7 853.812 186.706 853.782 190.719 853.781C203.96 853.779 217.227 853.777 230.469 853.781C293.467 853.8 356.44 853.831 419.438 853.875C435.488 853.886 451.543 853.895 467.594 853.906C469.6 853.908 471.619 853.905 473.625 853.906C474.829 853.907 476.015 853.905 477.219 853.906C480.912 853.909 485.055 854.432 488.25 852.156C488.933 851.67 489.525 851.112 490.062 850.469C492.938 847.028 492.293 842.424 492.25 838.281C492.233 836.656 492.205 835.031 492.188 833.406C492.165 831.239 492.148 829.073 492.125 826.906C492.097 824.198 492.06 821.49 492.031 818.781C491.979 813.784 487.903 809.761 482.906 809.812C477.909 809.864 473.886 813.972 473.938 818.969C473.971 822.219 473.998 825.468 474.031 828.719C474.054 830.886 474.071 833.052 474.094 835.219C474.096 835.417 474.092 835.615 474.094 835.812C473.938 835.812 473.781 835.813 473.625 835.812C468.007 835.807 462.399 835.786 456.781 835.781C440.33 835.766 423.889 835.765 407.438 835.75C357.28 835.704 307.095 835.624 256.938 835.562C234.066 835.534 211.215 835.509 188.344 835.469C186.739 835.466 185.136 835.472 183.531 835.469C181.525 835.465 179.506 835.441 177.5 835.438C176.171 835.435 174.811 835.552 173.5 835.281C170.985 834.761 168.817 832.987 167.812 830.625C167.477 829.835 167.272 828.983 167.219 828.125C167.125 826.629 167.194 825.092 167.188 823.594C167.178 821.616 167.165 819.634 167.156 817.656C167.129 811.723 167.09 805.808 167.062 799.875C166.981 782.075 166.894 764.269 166.812 746.469C166.764 735.921 166.736 725.361 166.688 714.812C166.672 711.516 166.64 708.234 166.625 704.938C166.609 701.503 166.652 698.171 167.25 694.781C168.41 688.203 170.876 681.911 174 676.031C178.297 667.945 184.039 660.537 190.906 654.469C200.984 645.565 213.85 639.585 227.5 640.125C231.444 640.281 235.338 640.954 239.125 642.062C244.168 643.538 248.768 645.927 253.5 648.156C258.042 650.296 262.654 652.3 267.344 654.094C281.654 659.566 296.712 663.213 312.031 664.125C331.672 665.294 351.23 661.773 369.625 654.938C374.472 653.136 379.25 651.121 383.938 648.938C387.119 647.455 390.185 645.763 393.438 644.438C397.769 642.673 402.371 641.523 407.031 641.094C431.625 638.826 454.362 656.542 465.438 677.344C468.086 682.319 470.163 687.653 471.406 693.156C472.064 696.066 472.494 699.019 472.625 702C472.734 704.499 472.625 707 472.625 709.5C472.625 712.284 472.663 715.06 472.688 717.844C472.808 731.471 473.002 745.123 473.125 758.75C473.174 764.028 477.503 768.268 482.781 768.219C488.059 768.17 492.299 763.841 492.25 758.562C492.121 744.937 491.908 731.313 491.781 717.688C491.751 714.395 491.714 711.105 491.719 707.812C491.723 705.083 491.778 702.35 491.594 699.625C491.351 696.024 490.797 692.456 490 688.938C488.261 681.261 485.318 673.875 481.5 667C466.825 640.579 438.142 619.925 406.969 622C400.475 622.432 394.056 623.857 387.969 626.156C383.805 627.729 379.902 629.841 375.875 631.719C371.65 633.69 367.37 635.499 363 637.125C346.274 643.349 328.472 646.46 310.625 645.031C297.112 643.95 283.901 640.375 271.344 635.344C267.551 633.824 263.809 632.172 260.125 630.406C257.344 629.073 254.609 627.666 251.75 626.5C248.191 625.049 244.525 623.873 240.781 623C236.088 621.906 231.258 621.297 226.438 621.25Z" fill="#777777" stroke="none"/>
</g>
<path d="M216.989 510.517C216.989 454.131 263.231 408.421 320.275 408.421C377.319 408.421 423.562 454.131 423.562 510.517C423.562 566.901 377.319 612.612 320.275 612.612C263.231 612.612 216.989 566.901 216.989 510.517Z" fill="#ffbb8b" fill-rule="nonzero" opacity="1" stroke="#777777" stroke-linecap="butt" stroke-linejoin="round" stroke-width="18" vectornator:layerName="Óvalo 1"/>
<path d="M574.558 446.293C574.558 437.638 581.574 430.622 590.228 430.622L858.993 430.622C867.648 430.622 874.664 437.638 874.664 446.293L874.664 468.724C874.664 477.379 867.648 484.395 858.993 484.395L590.228 484.395C581.574 484.395 574.558 477.379 574.558 468.724L574.558 446.293Z" fill="#e1dcd8" fill-rule="nonzero" opacity="0.999523" stroke="#777777" stroke-linecap="butt" stroke-linejoin="round" stroke-width="16.5" vectornator:layerName="Rectángulo 2"/>
<path d="M574.558 552.548C574.558 543.893 581.574 536.877 590.228 536.877L708.94 536.877C717.595 536.877 724.611 543.893 724.611 552.548L724.611 574.98C724.611 583.634 717.595 590.65 708.94 590.65L590.228 590.65C581.574 590.65 574.558 583.634 574.558 574.98L574.558 552.548Z" fill="#e1dcd8" fill-rule="nonzero" opacity="0.999523" stroke="#777777" stroke-linecap="butt" stroke-linejoin="round" stroke-width="16.5" vectornator:layerName="Rectángulo 3"/>
<path d="M574.558 657.72C574.558 649.066 581.574 642.05 590.228 642.05L821.793 642.05C830.447 642.05 837.463 649.066 837.463 657.72L837.463 680.152C837.463 688.807 830.447 695.823 821.793 695.823L590.228 695.823C581.574 695.823 574.558 688.807 574.558 680.152L574.558 657.72Z" fill="#e1dcd8" fill-rule="nonzero" opacity="0.999523" stroke="#777777" stroke-linecap="butt" stroke-linejoin="round" stroke-width="16.5" vectornator:layerName="Rectángulo 4"/>
<g opacity="1" vectornator:layerName="Óvalo 2">
<path d="M677.898 61.4874C720.603 26.3248 776.456 7.02059 835.96 11.6897C957.886 21.2569 1048.97 127.853 1039.4 249.778C1029.84 371.703 923.24 462.788 801.314 453.221C679.389 443.654 588.305 337.058 597.872 215.132C601.323 171.149 617.401 131.18 642.27 98.5006" fill="#ffa766" fill-rule="nonzero" stroke="none"/>
<path d="M821.281 2.75C798.935 2.46814 776.538 5.47459 755.062 11.6562C733.053 17.9916 711.995 27.6605 692.844 40.2188C685.853 44.8028 679.177 49.7971 672.688 55.0625C669.142 57.9388 668.593 63.1421 671.469 66.6875C674.345 70.2329 679.548 70.7825 683.094 67.9062C689.151 62.9933 695.413 58.3396 701.938 54.0625C719.707 42.4145 739.236 33.4058 759.656 27.5312C779.58 21.7995 800.333 19.0168 821.062 19.2812C844.941 19.5859 868.756 23.8518 891.219 31.9688C948.194 52.5568 994.385 97.4852 1016.72 153.781C1026.23 177.744 1031.29 203.349 1031.66 229.125C1032.04 256.062 1027.35 283.071 1017.75 308.25C1007.53 335.067 991.798 359.72 971.844 380.344C951.261 401.617 926.27 418.571 898.844 429.719C873.349 440.081 845.892 445.359 818.375 445.281C791.483 445.205 764.633 440.11 739.656 430.125C717.289 421.183 696.502 408.365 678.406 392.469C661.346 377.483 646.665 359.764 635.156 340.188C625.281 323.389 617.722 305.256 612.781 286.406C601.098 241.829 604.398 193.631 622.031 151.062C629.028 134.172 638.263 118.347 649.25 103.75C652.149 99.8969 651.384 94.4306 647.531 91.5312C643.678 88.6319 638.181 89.3969 635.281 93.25C622.869 109.75 612.573 127.72 604.906 146.906C585.801 194.723 583.291 248.661 597.969 298.031C603.612 317.014 611.741 335.286 622.062 352.188C634.861 373.146 651.006 392.035 669.719 407.938C689.594 424.828 712.368 438.298 736.75 447.562C763.343 457.667 791.839 462.723 820.281 462.531C849.995 462.331 879.581 456.296 907 444.844C935.936 432.758 962.317 414.719 984.094 392.156C1006.05 369.405 1023.24 342.158 1034.22 312.5C1044.55 284.595 1049.31 254.732 1048.38 225C1047.5 197.276 1041.53 169.75 1030.84 144.156C1020.66 119.78 1006.27 97.2071 988.469 77.6875C963.443 50.2464 931.791 28.9812 896.844 16.375C872.643 7.64531 847.002 3.07442 821.281 2.75Z" fill="#777777" stroke="none"/>
</g>
<path d="M818.344 275.134C825.952 275.134 829.43 269.917 829.43 262.961L829.43 259.266C829.647 244.919 834.755 238.941 852.148 226.986C870.841 214.378 882.687 199.814 882.687 178.837C882.687 146.232 856.164 127.537 823.126 127.537C798.563 127.537 777.043 139.167 767.805 160.143C765.522 165.252 764.544 170.252 764.544 174.381C764.544 180.576 768.131 184.924 774.761 184.924C780.304 184.924 783.999 181.663 785.63 176.338C791.172 155.687 804.867 147.862 822.366 147.862C843.562 147.862 860.188 159.817 860.188 178.729C860.188 194.271 850.518 202.966 836.604 212.748C819.54 224.595 807.041 237.311 807.041 256.44L807.041 263.287C807.041 270.243 810.845 275.134 818.344 275.134ZM819.273 337.373C827.968 337.373 834.816 330.417 834.816 321.94C834.816 313.353 827.968 306.506 819.273 306.506C810.796 306.506 803.84 313.353 803.84 321.94C803.84 330.417 810.796 337.373 819.273 337.373Z" fill="#ffffff" fill-rule="nonzero" opacity="1" stroke="#ffffff" stroke-linecap="round" stroke-linejoin="round" stroke-width="10.2683" vectornator:layerName="Curva 2"/>
</g>
</svg>
