<?xml version="1.0" encoding="UTF-8" standalone="no"?>
<!DOCTYPE svg PUBLIC "-//W3C//DTD SVG 1.1//EN" "http://www.w3.org/Graphics/SVG/1.1/DTD/svg11.dtd">
<!-- Created with Vectornator (http://vectornator.io/) -->
<svg height="100%" stroke-miterlimit="10" style="fill-rule:nonzero;clip-rule:evenodd;stroke-linecap:round;stroke-linejoin:round;" version="1.1" viewBox="0 0 1052.73 1024" width="100%" xml:space="preserve" xmlns="http://www.w3.org/2000/svg" xmlns:vectornator="http://vectornator.io" xmlns:xlink="http://www.w3.org/1999/xlink">
<defs/>
<clipPath id="ArtboardFrame">
<rect height="1024" width="1052.73" x="0" y="0"/>
</clipPath>
<g clip-path="url(#ArtboardFrame)" id="Capa-2" vectornator:layerName="Capa 2" visibility="hidden">
<path d="M-9.09495e-13 0L2746 0L2746 1113L735.623 1113L-9.09495e-13 1113L-9.09495e-13 0Z" fill="#454545" fill-rule="nonzero" opacity="1" stroke="#084444" stroke-linecap="butt" stroke-linejoin="round" stroke-width="0.745627" vectornator:layerName="Rectángulo 1"/>
</g>
<g id="Capa-3" opacity="0.1" vectornator:layerName="Capa 3"/>
<g id="Capa-4" vectornator:layerName="Capa 4">
<path d="M120.769 479.011L120.769 916.933L883.307 916.933L883.307 479.011" fill="#f0f0f0" fill-rule="nonzero" opacity="1" stroke="none" vectornator:layerName="Curva 1"/>
<path d="M211.015 915.027L211.015 603.912C211.015 593.125 219.76 584.382 230.546 584.382L407.522 584.382C416.212 584.382 423.31 591.426 423.377 600.115L425.798 915.027L211.015 915.027Z" fill="#f8f7f5" fill-rule="nonzero" opacity="1" stroke="#848484" stroke-linecap="butt" stroke-linejoin="round" stroke-width="19" vectornator:layerName="Curva 3"/>
<path d="M544.637 607.118C544.637 594.435 554.919 584.153 567.603 584.153L775.851 584.153C788.535 584.153 798.815 594.435 798.815 607.118L798.815 767.533C798.815 780.216 788.535 790.498 775.851 790.498L567.603 790.498C554.919 790.498 544.637 780.216 544.637 767.533L544.637 607.118Z" fill="#f8f7f5" fill-rule="nonzero" opacity="1" stroke="#848484" stroke-linecap="butt" stroke-linejoin="round" stroke-width="19" vectornator:layerName="Rectángulo 1"/>
<path d="M76.5304 918.309L936.2 918.309L936.2 967.102L76.5304 967.102L76.5304 918.309Z" fill="#d5d5d5" fill-rule="nonzero" opacity="1" stroke="#848484" stroke-linecap="butt" stroke-linejoin="round" stroke-width="19" vectornator:layerName="Rectángulo 2"/>
<path d="M883.81 329.574L927.115 451.396L751.278 450.295L750.319 330.196L883.81 329.574Z" fill="#d5d5d5" fill-rule="nonzero" opacity="1" stroke="#848484" stroke-linecap="butt" stroke-linejoin="round" stroke-width="19" vectornator:layerName="Curva 4"/>
<path d="M586.081 328.39L751.135 328.39L751.135 448.531L586.081 448.531L586.081 328.39Z" fill="#efeeed" fill-rule="nonzero" opacity="1" stroke="#848484" stroke-linecap="butt" stroke-linejoin="round" stroke-width="19" vectornator:layerName="Rectángulo 3"/>
<path d="M751.152 450.111L926.627 450.111C926.627 489.166 887.342 520.827 838.889 520.827C790.437 520.827 751.152 489.166 751.152 450.111Z" fill="#d5d5d5" fill-rule="nonzero" opacity="1" stroke="#848484" stroke-linecap="butt" stroke-linejoin="round" stroke-width="19" vectornator:layerName="Óvalo 6"/>
<path d="M122.949 327.313L79.7911 449.134L255.021 448.034L255.977 327.934L122.949 327.313Z" fill="#d9d9d9" fill-rule="nonzero" opacity="1" stroke="#848484" stroke-linecap="butt" stroke-linejoin="round" stroke-width="19" vectornator:layerName="Curva 5"/>
<path d="M255.147 447.85L80.2822 447.85C80.2822 486.905 119.427 518.566 167.714 518.566C216.002 518.566 255.147 486.905 255.147 447.85Z" fill="#d9d9d9" fill-rule="nonzero" opacity="1" stroke="#848484" stroke-linecap="butt" stroke-linejoin="round" stroke-width="19" vectornator:layerName="Óvalo 7"/>
<path d="M585.781 448.509L752.448 448.509C752.448 487.564 715.138 519.225 669.114 519.225C623.09 519.225 585.781 487.564 585.781 448.509Z" fill="#efeeed" fill-rule="nonzero" opacity="1" stroke="#848484" stroke-linecap="butt" stroke-linejoin="round" stroke-width="19" vectornator:layerName="Óvalo 8"/>
<path d="M420.586 327.963L585.639 327.963L585.639 448.103L420.586 448.103L420.586 327.963Z" fill="#d9d9d9" fill-rule="nonzero" opacity="1" stroke="#848484" stroke-linecap="butt" stroke-linejoin="round" stroke-width="19" vectornator:layerName="Rectángulo 4"/>
<path d="M420.285 448.082L586.953 448.082C586.953 487.137 549.643 518.798 503.619 518.798C457.595 518.798 420.285 487.137 420.285 448.082Z" fill="#d9d9d9" fill-rule="nonzero" opacity="1" stroke="#848484" stroke-linecap="butt" stroke-linejoin="round" stroke-width="19" vectornator:layerName="Óvalo 9"/>
<path d="M254.699 329.018L419.752 329.018L419.752 449.158L254.699 449.158L254.699 329.018Z" fill="#efeeed" fill-rule="nonzero" opacity="1" stroke="#848484" stroke-linecap="butt" stroke-linejoin="round" stroke-width="19" vectornator:layerName="Rectángulo 5"/>
<path d="M254.398 449.137L421.066 449.137C421.066 488.192 383.756 519.853 337.732 519.853C291.708 519.853 254.398 488.192 254.398 449.137Z" fill="#efeeed" fill-rule="nonzero" opacity="1" stroke="#848484" stroke-linecap="butt" stroke-linejoin="round" stroke-width="19" vectornator:layerName="Óvalo 10"/>
<path d="M121.213 293.426L884.216 293.426L884.216 327.134L121.213 327.134L121.213 293.426Z" fill="#d5d5d5" fill-rule="nonzero" opacity="1" stroke="#848484" stroke-linecap="butt" stroke-linejoin="round" stroke-width="19" vectornator:layerName="Rectángulo 6"/>
<g opacity="1" vectornator:layerName="Línea 1">
<path d="M885.188 635.188C879.913 635.152 875.598 639.412 875.562 644.688C874.919 733.782 873.9 822.874 873.219 911.969C873.181 917.54 877.678 922.087 883.25 922.125C888.822 922.163 893.368 917.666 893.406 912.094C893.937 822.998 894.118 733.908 894.688 644.812C894.723 639.538 890.462 635.223 885.188 635.188Z" fill="#848484" stroke="none"/>
</g>
<g opacity="1" vectornator:layerName="Línea 3">
<path d="M885.281 502.438C880.007 502.357 875.643 506.569 875.562 511.844C875.223 531.709 874.503 551.572 874.125 571.438C874.04 577.009 878.492 581.603 884.062 581.688C889.634 581.772 894.227 577.321 894.312 571.75C894.541 551.883 894.421 532.023 894.688 512.156C894.768 506.882 890.556 502.518 885.281 502.438Z" fill="#848484" stroke="none"/>
</g>
<g opacity="1" vectornator:layerName="Línea 2">
<path d="M121.219 502.438C115.944 502.438 111.656 506.725 111.656 512C111.619 620.669 111.2 729.331 111.125 838C111.125 843.572 115.647 848.094 121.219 848.094C126.79 848.094 131.312 843.572 131.312 838C131.237 729.331 130.787 620.669 130.75 512C130.75 506.725 126.494 502.438 121.219 502.438Z" fill="#848484" stroke="none"/>
</g>
<path d="M597.872 215.132C607.439 93.207 714.035 2.12258 835.96 11.6897C957.886 21.2569 1048.97 127.853 1039.4 249.778C1029.84 371.703 923.24 462.788 801.314 453.221C679.389 443.654 588.305 337.058 597.872 215.132Z" fill="#ffffff" fill-rule="nonzero" opacity="1" stroke="#8e8e8e" stroke-linecap="butt" stroke-linejoin="round" stroke-width="19.4438" vectornator:layerName="Óvalo 11"/>
<g opacity="1" vectornator:layerName="Óvalo 12">
<path d="M822.969 48.6875C811.448 48.4193 799.903 49.2084 788.531 51.0938C767.844 54.5235 747.789 61.5467 729.469 71.75C712.668 81.1066 697.341 93.1325 684.219 107.188C671.996 120.279 661.706 135.173 653.812 151.25C634.752 190.069 630.013 235.244 640.531 277.188C645.803 298.211 654.892 317.991 667 335.938C669.568 339.745 674.724 340.724 678.531 338.156C682.339 335.588 683.35 330.433 680.781 326.625C669.243 309.516 660.817 290.803 656.094 270.688C647.299 233.229 651.826 193.153 668.812 158.625C675.994 144.027 685.358 130.476 696.469 118.594C708.412 105.821 722.338 94.8993 737.625 86.4062C754.665 76.9397 773.371 70.5725 792.625 67.5625C813.308 64.3292 834.572 65.024 855 69.5938C876.1 74.3139 896.25 83.1679 913.969 95.5625C929.363 106.331 942.9 119.755 953.875 135C963.545 148.432 971.221 163.28 976.5 178.969C989.067 216.315 987.869 257.695 973.25 294.281C967.531 308.595 959.79 322.102 950.344 334.281C938.113 350.05 923.031 363.597 906.062 374.094C888.51 384.952 868.934 392.465 848.625 396.156C832.494 399.088 815.914 399.654 799.625 397.781C791.985 396.903 784.462 395.436 777 393.594C772.29 392.432 767.537 395.29 766.375 400C765.213 404.71 768.103 409.494 772.812 410.656C781 412.674 789.242 414.259 797.625 415.219C815.625 417.281 833.958 416.653 851.781 413.406C874.852 409.204 897.1 400.526 916.906 387.969C935.844 375.962 952.588 360.511 966.031 342.562C978.604 325.777 988.231 306.821 994.406 286.781C1005.14 251.937 1005.29 214.028 994.719 179.125C989.146 160.718 980.628 143.211 969.625 127.438C957.183 109.601 941.594 93.9684 923.75 81.5312C903.778 67.6108 881.05 57.8136 857.25 52.7188C845.978 50.3058 834.489 48.9557 822.969 48.6875Z" fill="#9a9a9a" stroke="none"/>
</g>
<path d="M818.793 271.5C825.753 271.5 828.935 266.728 828.935 260.364L828.935 256.983C829.134 243.858 833.807 238.389 849.719 227.452C866.82 215.917 877.658 202.593 877.658 183.402C877.658 153.573 853.393 136.47 823.168 136.47C800.696 136.47 781.009 147.11 772.557 166.3C770.469 170.974 769.574 175.548 769.574 179.326C769.574 184.993 772.855 188.971 778.92 188.971C783.992 188.971 787.372 185.988 788.864 181.116C793.934 162.223 806.464 155.064 822.472 155.064C841.863 155.064 857.075 166.002 857.075 183.303C857.075 197.522 848.228 205.477 835.498 214.426C819.887 225.264 808.452 236.898 808.452 254.398L808.452 260.662C808.452 267.026 811.932 271.5 818.793 271.5ZM819.643 328.44C827.597 328.44 833.862 322.076 833.862 314.321C833.862 306.466 827.597 300.201 819.643 300.201C811.888 300.201 805.523 306.466 805.523 314.321C805.523 322.076 811.888 328.44 819.643 328.44Z" fill="#848484" fill-rule="nonzero" opacity="1" stroke="#848484" stroke-linecap="round" stroke-linejoin="round" stroke-width="9.39409" vectornator:layerName="Curva 6"/>
</g>
</svg>
