<?xml version="1.0" encoding="UTF-8" standalone="no"?>
<!DOCTYPE svg PUBLIC "-//W3C//DTD SVG 1.1//EN" "http://www.w3.org/Graphics/SVG/1.1/DTD/svg11.dtd">
<!-- Created with Vectornator (http://vectornator.io/) -->
<svg height="100%" stroke-miterlimit="10" style="fill-rule:nonzero;clip-rule:evenodd;stroke-linecap:round;stroke-linejoin:round;" version="1.1" viewBox="0 0 1052.73 1024" width="100%" xml:space="preserve" xmlns="http://www.w3.org/2000/svg" xmlns:vectornator="http://vectornator.io" xmlns:xlink="http://www.w3.org/1999/xlink">
<defs/>
<clipPath id="ArtboardFrame">
<rect height="1024" width="1052.73" x="0" y="0"/>
</clipPath>
<g clip-path="url(#ArtboardFrame)" id="Capa-2" vectornator:layerName="Capa 2" visibility="hidden">
<path d="M-9.09495e-13 0L2746 0L2746 1113L735.623 1113L-9.09495e-13 1113L-9.09495e-13 0Z" fill="#454545" fill-rule="nonzero" opacity="1" stroke="#084444" stroke-linecap="butt" stroke-linejoin="round" stroke-width="0.745627" vectornator:layerName="Rectángulo 1"/>
</g>
<g id="Capa-3" opacity="0.1" vectornator:layerName="Capa 3"/>
<g id="Capa-4" vectornator:layerName="Capa 4">
<g opacity="1" vectornator:layerName="Línea 1">
<path d="M59.0312 954.906C53.895 954.906 49.7187 959.051 49.7188 964.188C49.7188 969.324 53.895 973.5 59.0312 973.5C375.875 973.475 692.718 973.431 1009.56 973.406C1014.66 973.406 1018.78 969.282 1018.78 964.188C1018.78 959.093 1014.66 954.969 1009.56 954.969C692.718 954.944 375.875 954.931 59.0312 954.906Z" fill="#8e8e8e" stroke="none"/>
</g>
<path d="M95.4264 809.405L204.569 809.405L204.569 928.675L95.4264 928.675L95.4264 809.405Z" fill="#d5d5d5" fill-rule="nonzero" opacity="1" stroke="#8e8e8e" stroke-linecap="butt" stroke-linejoin="round" stroke-width="18.5" vectornator:layerName="Rectángulo 1"/>
<path d="M277.024 690.134L386.167 690.134L386.167 928.675L277.024 928.675L277.024 690.134Z" fill="#d5d5d5" fill-rule="nonzero" opacity="1" stroke="#8e8e8e" stroke-linecap="butt" stroke-linejoin="round" stroke-width="18.5" vectornator:layerName="Rectángulo 2"/>
<path d="M457.098 690.134L566.241 690.134L566.241 928.675L457.098 928.675L457.098 690.134Z" fill="#d5d5d5" fill-rule="nonzero" opacity="1" stroke="#8e8e8e" stroke-linecap="butt" stroke-linejoin="round" stroke-width="18.5" vectornator:layerName="Rectángulo 3"/>
<path d="M638.696 526.454L747.839 526.454L747.839 928.675L638.696 928.675L638.696 526.454Z" fill="#d5d5d5" fill-rule="nonzero" opacity="1" stroke="#8e8e8e" stroke-linecap="butt" stroke-linejoin="round" stroke-width="18.5" vectornator:layerName="Rectángulo 4"/>
<path d="M824.355 407.638L933.497 407.638L933.497 928.675L824.355 928.675L824.355 407.638Z" fill="#d5d5d5" fill-rule="nonzero" opacity="1" stroke="#8e8e8e" stroke-linecap="butt" stroke-linejoin="round" stroke-width="18.5" vectornator:layerName="Rectángulo 5"/>
<path d="M597.872 215.132C607.439 93.207 714.035 2.12258 835.96 11.6897C957.886 21.2569 1048.97 127.853 1039.4 249.778C1029.84 371.703 923.24 462.788 801.314 453.221C679.389 443.654 588.305 337.058 597.872 215.132Z" fill="#ffffff" fill-rule="nonzero" opacity="1" stroke="#8e8e8e" stroke-linecap="butt" stroke-linejoin="round" stroke-width="19.4438" vectornator:layerName="Óvalo 12"/>
<path d="M95.8384 643.932C101.553 571.104 165.225 516.697 238.053 522.412C310.881 528.127 365.288 591.798 359.573 664.627C353.858 737.455 290.187 791.861 217.358 786.147C144.53 780.432 90.1238 716.76 95.8384 643.932Z" fill="#f0f0f0" fill-rule="nonzero" opacity="1" stroke="#8e8e8e" stroke-linecap="butt" stroke-linejoin="round" stroke-width="18" vectornator:layerName="Óvalo 14"/>
<g opacity="1" vectornator:layerName="Óvalo 13">
<path d="M822.969 48.6875C811.448 48.4193 799.903 49.2084 788.531 51.0938C767.844 54.5235 747.789 61.5467 729.469 71.75C712.668 81.1066 697.341 93.1325 684.219 107.188C671.996 120.279 661.706 135.173 653.812 151.25C634.752 190.069 630.013 235.244 640.531 277.188C645.803 298.211 654.892 317.991 667 335.938C669.568 339.745 674.724 340.724 678.531 338.156C682.339 335.588 683.35 330.433 680.781 326.625C669.243 309.516 660.817 290.803 656.094 270.688C647.299 233.229 651.826 193.153 668.812 158.625C675.994 144.027 685.358 130.476 696.469 118.594C708.412 105.821 722.338 94.8993 737.625 86.4062C754.665 76.9397 773.371 70.5725 792.625 67.5625C813.308 64.3292 834.572 65.024 855 69.5938C876.1 74.3139 896.25 83.1679 913.969 95.5625C929.363 106.331 942.9 119.755 953.875 135C963.545 148.432 971.221 163.28 976.5 178.969C989.067 216.315 987.869 257.695 973.25 294.281C967.531 308.595 959.79 322.102 950.344 334.281C938.113 350.05 923.031 363.597 906.062 374.094C888.51 384.952 868.934 392.465 848.625 396.156C832.494 399.088 815.914 399.654 799.625 397.781C791.985 396.903 784.462 395.436 777 393.594C772.29 392.432 767.537 395.29 766.375 400C765.213 404.71 768.103 409.494 772.812 410.656C781 412.674 789.242 414.259 797.625 415.219C815.625 417.281 833.958 416.653 851.781 413.406C874.852 409.204 897.1 400.526 916.906 387.969C935.844 375.962 952.588 360.511 966.031 342.562C978.604 325.777 988.231 306.821 994.406 286.781C1005.14 251.937 1005.29 214.028 994.719 179.125C989.146 160.718 980.628 143.211 969.625 127.438C957.183 109.601 941.594 93.9684 923.75 81.5312C903.778 67.6108 881.05 57.8136 857.25 52.7188C845.978 50.3058 834.489 48.9557 822.969 48.6875Z" fill="#9a9a9a" stroke="none"/>
</g>
<path d="M818.793 271.5C825.753 271.5 828.935 266.728 828.935 260.364L828.935 256.983C829.134 243.858 833.807 238.389 849.719 227.452C866.82 215.917 877.658 202.593 877.658 183.402C877.658 153.573 853.393 136.47 823.168 136.47C800.696 136.47 781.009 147.11 772.557 166.3C770.469 170.974 769.574 175.548 769.574 179.326C769.574 184.993 772.855 188.971 778.92 188.971C783.992 188.971 787.372 185.988 788.864 181.116C793.934 162.223 806.464 155.064 822.472 155.064C841.863 155.064 857.075 166.002 857.075 183.303C857.075 197.522 848.228 205.477 835.498 214.426C819.887 225.264 808.452 236.898 808.452 254.398L808.452 260.662C808.452 267.026 811.932 271.5 818.793 271.5ZM819.643 328.44C827.597 328.44 833.862 322.076 833.862 314.321C833.862 306.466 827.597 300.201 819.643 300.201C811.888 300.201 805.523 306.466 805.523 314.321C805.523 322.076 811.888 328.44 819.643 328.44Z" fill="#848484" fill-rule="nonzero" opacity="1" stroke="#848484" stroke-linecap="round" stroke-linejoin="round" stroke-width="9.39409" vectornator:layerName="Curva 11"/>
<path d="M224.784 732.772L224.784 717.966C217.38 717.033 211.362 715.374 206.728 712.989C202.094 710.603 198.09 706.751 194.718 701.432C191.345 696.112 189.385 689.614 188.836 681.936L203.725 679.139C204.877 687.091 206.906 692.931 209.812 696.66C213.98 701.925 218.971 704.859 224.784 705.462L224.784 658.328C218.696 657.176 212.472 654.818 206.111 651.254C201.395 648.621 197.761 644.974 195.211 640.313C192.661 635.652 191.386 630.36 191.386 624.437C191.386 613.908 195.115 605.38 202.574 598.855C207.564 594.467 214.967 591.78 224.784 590.793L224.784 583.719L233.503 583.719L233.503 590.793C242.113 591.616 248.94 594.138 253.985 598.361C260.457 603.735 264.35 611.111 265.666 620.489L250.366 622.792C249.489 616.979 247.665 612.523 244.896 609.425C242.126 606.326 238.329 604.284 233.503 603.297L233.503 645.989C240.961 647.853 245.897 649.307 248.31 650.349C252.916 652.378 256.673 654.845 259.579 657.752C262.486 660.658 264.72 664.113 266.283 668.117C267.846 672.12 268.628 676.452 268.628 681.114C268.628 691.368 265.365 699.923 258.839 706.778C252.313 713.633 243.868 717.307 233.503 717.801L233.503 732.772L224.784 732.772ZM224.784 603.132C219.025 604.009 214.487 606.313 211.17 610.042C207.852 613.771 206.193 618.185 206.193 623.285C206.193 628.331 207.605 632.553 210.429 635.953C213.254 639.353 218.038 642.068 224.784 644.097L224.784 603.132ZM233.503 705.462C239.261 704.749 244.018 702.254 247.775 697.977C251.531 693.699 253.41 688.407 253.41 682.101C253.41 676.726 252.08 672.408 249.42 669.145C246.76 665.882 241.455 662.962 233.503 660.384L233.503 705.462Z" fill="#8e8e8e" opacity="1" stroke="#8e8e8e" stroke-linecap="butt" stroke-linejoin="round" stroke-width="3" vectornator:layerName="Texto 1"/>
</g>
</svg>
