<?xml version="1.0" encoding="UTF-8" standalone="no"?>
<!DOCTYPE svg PUBLIC "-//W3C//DTD SVG 1.1//EN" "http://www.w3.org/Graphics/SVG/1.1/DTD/svg11.dtd">
<!-- Created with Vectornator (http://vectornator.io/) -->
<svg height="100%" stroke-miterlimit="10" style="fill-rule:nonzero;clip-rule:evenodd;stroke-linecap:round;stroke-linejoin:round;" version="1.1" viewBox="0 0 1052.73 1024" width="100%" xml:space="preserve" xmlns="http://www.w3.org/2000/svg" xmlns:vectornator="http://vectornator.io" xmlns:xlink="http://www.w3.org/1999/xlink">
<defs/>
<clipPath id="ArtboardFrame">
<rect height="1024" width="1052.73" x="0" y="0"/>
</clipPath>
<g clip-path="url(#ArtboardFrame)" id="Capa-2" vectornator:layerName="Capa 2" visibility="hidden">
<path d="M-9.09495e-13 0L2746 0L2746 1113L735.623 1113L-9.09495e-13 1113L-9.09495e-13 0Z" fill="#454545" fill-rule="nonzero" opacity="1" stroke="#084444" stroke-linecap="butt" stroke-linejoin="round" stroke-width="0.745627" vectornator:layerName="Rectángulo 1"/>
</g>
<g id="Capa-3" opacity="0.1" vectornator:layerName="Capa 3"/>
<g id="Capa-4" vectornator:layerName="Capa 4">
<path d="M120.769 479.011L120.769 916.933L883.307 916.933L883.307 479.011" fill="#faefe8" fill-rule="nonzero" opacity="1" stroke="none" vectornator:layerName="Curva 1"/>
<path d="M211.015 915.027L211.015 603.912C211.015 593.125 219.76 584.382 230.546 584.382L407.522 584.382C416.212 584.382 423.31 591.426 423.377 600.115L425.798 915.027L211.015 915.027Z" fill="#f8f7f5" fill-rule="nonzero" opacity="1" stroke="#777777" stroke-linecap="butt" stroke-linejoin="round" stroke-width="17.5" vectornator:layerName="Curva 3"/>
<path d="M544.637 607.118C544.637 594.435 554.919 584.153 567.603 584.153L775.851 584.153C788.535 584.153 798.815 594.435 798.815 607.118L798.815 767.533C798.815 780.216 788.535 790.498 775.851 790.498L567.603 790.498C554.919 790.498 544.637 780.216 544.637 767.533L544.637 607.118Z" fill="#f8f7f5" fill-rule="nonzero" opacity="1" stroke="#777777" stroke-linecap="butt" stroke-linejoin="round" stroke-width="17.5" vectornator:layerName="Rectángulo 1"/>
<path d="M76.5304 918.309L936.2 918.309L936.2 967.102L76.5304 967.102L76.5304 918.309Z" fill="#b3b0ae" fill-rule="nonzero" opacity="1" stroke="#777777" stroke-linecap="butt" stroke-linejoin="round" stroke-width="17.5" vectornator:layerName="Rectángulo 2"/>
<path d="M883.81 329.574L927.115 451.396L751.278 450.295L750.319 330.196L883.81 329.574Z" fill="#d5d5d5" fill-rule="nonzero" opacity="1" stroke="#777777" stroke-linecap="butt" stroke-linejoin="round" stroke-width="17.5" vectornator:layerName="Curva 4"/>
<path d="M586.081 328.39L751.135 328.39L751.135 448.531L586.081 448.531L586.081 328.39Z" fill="#fff7f2" fill-rule="nonzero" opacity="1" stroke="#777777" stroke-linecap="butt" stroke-linejoin="round" stroke-width="17.5" vectornator:layerName="Rectángulo 3"/>
<path d="M751.152 450.111L926.627 450.111C926.627 489.166 887.342 520.827 838.889 520.827C790.437 520.827 751.152 489.166 751.152 450.111Z" fill="#ffa361" fill-rule="nonzero" opacity="1" stroke="#777777" stroke-linecap="butt" stroke-linejoin="round" stroke-width="17.5" vectornator:layerName="Óvalo 6"/>
<path d="M122.949 327.313L79.7911 449.134L255.021 448.034L255.977 327.934L122.949 327.313Z" fill="#ffb580" fill-rule="nonzero" opacity="1" stroke="#777777" stroke-linecap="butt" stroke-linejoin="round" stroke-width="17.5" vectornator:layerName="Curva 5"/>
<path d="M255.147 447.85L80.2822 447.85C80.2822 486.905 119.427 518.566 167.714 518.566C216.002 518.566 255.147 486.905 255.147 447.85Z" fill="#ffa361" fill-rule="nonzero" opacity="1" stroke="#777777" stroke-linecap="butt" stroke-linejoin="round" stroke-width="17.5" vectornator:layerName="Óvalo 7"/>
<path d="M585.781 448.509L752.448 448.509C752.448 487.564 715.138 519.225 669.114 519.225C623.09 519.225 585.781 487.564 585.781 448.509Z" fill="#faefe8" fill-rule="nonzero" opacity="1" stroke="#777777" stroke-linecap="butt" stroke-linejoin="round" stroke-width="17.5" vectornator:layerName="Óvalo 8"/>
<path d="M420.586 327.963L585.639 327.963L585.639 448.103L420.586 448.103L420.586 327.963Z" fill="#ffb580" fill-rule="nonzero" opacity="1" stroke="#777777" stroke-linecap="butt" stroke-linejoin="round" stroke-width="17.5" vectornator:layerName="Rectángulo 4"/>
<path d="M420.285 448.082L586.953 448.082C586.953 487.137 549.643 518.798 503.619 518.798C457.595 518.798 420.285 487.137 420.285 448.082Z" fill="#ffa361" fill-rule="nonzero" opacity="1" stroke="#777777" stroke-linecap="butt" stroke-linejoin="round" stroke-width="17.5" vectornator:layerName="Óvalo 9"/>
<path d="M254.699 329.018L419.752 329.018L419.752 449.158L254.699 449.158L254.699 329.018Z" fill="#fff7f2" fill-rule="nonzero" opacity="1" stroke="#777777" stroke-linecap="butt" stroke-linejoin="round" stroke-width="17.5" vectornator:layerName="Rectángulo 5"/>
<path d="M254.398 449.137L421.066 449.137C421.066 488.192 383.756 519.853 337.732 519.853C291.708 519.853 254.398 488.192 254.398 449.137Z" fill="#faefe8" fill-rule="nonzero" opacity="1" stroke="#777777" stroke-linecap="butt" stroke-linejoin="round" stroke-width="17.5" vectornator:layerName="Óvalo 10"/>
<path d="M121.213 293.426L884.216 293.426L884.216 327.134L121.213 327.134L121.213 293.426Z" fill="#d5d5d5" fill-rule="nonzero" opacity="1" stroke="#777777" stroke-linecap="butt" stroke-linejoin="round" stroke-width="17.5" vectornator:layerName="Rectángulo 6"/>
<g opacity="1" vectornator:layerName="Línea 1">
<path d="M885.188 635.938C880.329 635.904 876.346 639.829 876.312 644.688C875.672 733.782 874.675 822.874 874 911.969C873.965 917.1 878.118 921.278 883.25 921.312C888.382 921.347 892.559 917.226 892.594 912.094C893.131 822.998 893.365 733.908 893.938 644.812C893.971 639.954 890.046 635.97 885.188 635.938Z" fill="#777777" stroke="none"/>
</g>
<g opacity="1" vectornator:layerName="Línea 3">
<path d="M885.25 503.219C880.392 503.145 876.418 507.017 876.344 511.875C876.007 531.741 875.31 551.573 874.938 571.438C874.859 576.569 878.931 580.797 884.062 580.875C889.194 580.953 893.422 576.881 893.5 571.75C893.734 551.883 893.637 531.992 893.906 512.125C893.98 507.267 890.108 503.293 885.25 503.219Z" fill="#777777" stroke="none"/>
</g>
<g opacity="1" vectornator:layerName="Línea 2">
<path d="M121.219 503.188C116.36 503.188 112.406 507.141 112.406 512C112.372 620.669 111.975 729.331 111.906 838C111.906 843.132 116.087 847.313 121.219 847.312C126.351 847.312 130.5 843.132 130.5 838C130.431 729.331 130.034 620.669 130 512C130 507.141 126.077 503.188 121.219 503.188Z" fill="#777777" stroke="none"/>
</g>
<g opacity="1" vectornator:layerName="Óvalo 11">
<path d="M677.898 61.4874C720.603 26.3248 776.456 7.02059 835.96 11.6897C957.886 21.2569 1048.97 127.853 1039.4 249.778C1029.84 371.703 923.24 462.788 801.314 453.221C679.389 443.654 588.305 337.058 597.872 215.132C601.323 171.149 617.401 131.18 642.27 98.5006" fill="#ffa766" fill-rule="nonzero" stroke="none"/>
<path d="M821.281 2.75C798.935 2.46814 776.538 5.47459 755.062 11.6562C733.053 17.9916 711.995 27.6605 692.844 40.2188C685.853 44.8028 679.177 49.7971 672.688 55.0625C669.142 57.9388 668.593 63.1421 671.469 66.6875C674.345 70.2329 679.548 70.7825 683.094 67.9062C689.151 62.9933 695.413 58.3396 701.938 54.0625C719.707 42.4145 739.236 33.4058 759.656 27.5312C779.58 21.7995 800.333 19.0168 821.062 19.2812C844.941 19.5859 868.756 23.8518 891.219 31.9688C948.194 52.5568 994.385 97.4852 1016.72 153.781C1026.23 177.744 1031.29 203.349 1031.66 229.125C1032.04 256.062 1027.35 283.071 1017.75 308.25C1007.53 335.067 991.798 359.72 971.844 380.344C951.261 401.617 926.27 418.571 898.844 429.719C873.349 440.081 845.892 445.359 818.375 445.281C791.483 445.205 764.633 440.11 739.656 430.125C717.289 421.183 696.502 408.365 678.406 392.469C661.346 377.483 646.665 359.764 635.156 340.188C625.281 323.389 617.722 305.256 612.781 286.406C601.098 241.829 604.398 193.631 622.031 151.062C629.028 134.172 638.263 118.347 649.25 103.75C652.149 99.8969 651.384 94.4306 647.531 91.5312C643.678 88.6319 638.181 89.3969 635.281 93.25C622.869 109.75 612.573 127.72 604.906 146.906C585.801 194.723 583.291 248.661 597.969 298.031C603.612 317.014 611.741 335.286 622.062 352.188C634.861 373.146 651.006 392.035 669.719 407.938C689.594 424.828 712.368 438.298 736.75 447.562C763.343 457.667 791.839 462.723 820.281 462.531C849.995 462.331 879.581 456.296 907 444.844C935.936 432.758 962.317 414.719 984.094 392.156C1006.05 369.405 1023.24 342.158 1034.22 312.5C1044.55 284.595 1049.31 254.732 1048.38 225C1047.5 197.276 1041.53 169.75 1030.84 144.156C1020.66 119.78 1006.27 97.2071 988.469 77.6875C963.443 50.2464 931.791 28.9812 896.844 16.375C872.643 7.64531 847.002 3.07442 821.281 2.75Z" fill="#777777" stroke="none"/>
</g>
<path d="M818.344 275.134C825.952 275.134 829.43 269.917 829.43 262.961L829.43 259.266C829.647 244.919 834.755 238.941 852.148 226.986C870.841 214.378 882.687 199.814 882.687 178.837C882.687 146.232 856.164 127.537 823.126 127.537C798.563 127.537 777.043 139.167 767.805 160.143C765.522 165.252 764.544 170.252 764.544 174.381C764.544 180.576 768.131 184.924 774.761 184.924C780.304 184.924 783.999 181.663 785.63 176.338C791.172 155.687 804.867 147.862 822.366 147.862C843.562 147.862 860.188 159.817 860.188 178.729C860.188 194.271 850.518 202.966 836.604 212.748C819.54 224.595 807.041 237.311 807.041 256.44L807.041 263.287C807.041 270.243 810.845 275.134 818.344 275.134ZM819.273 337.373C827.968 337.373 834.816 330.417 834.816 321.94C834.816 313.353 827.968 306.506 819.273 306.506C810.796 306.506 803.84 313.353 803.84 321.94C803.84 330.417 810.796 337.373 819.273 337.373Z" fill="#ffffff" fill-rule="nonzero" opacity="1" stroke="#ffffff" stroke-linecap="round" stroke-linejoin="round" stroke-width="10.2683" vectornator:layerName="Curva 6"/>
</g>
</svg>
