<?xml version="1.0" encoding="UTF-8" standalone="no"?>
<!DOCTYPE svg PUBLIC "-//W3C//DTD SVG 1.1//EN" "http://www.w3.org/Graphics/SVG/1.1/DTD/svg11.dtd">
<!-- Created with Vectornator (http://vectornator.io/) -->
<svg height="100%" stroke-miterlimit="10" style="fill-rule:nonzero;clip-rule:evenodd;stroke-linecap:round;stroke-linejoin:round;" version="1.1" viewBox="0 0 1052.73 1024" width="100%" xml:space="preserve" xmlns="http://www.w3.org/2000/svg" xmlns:vectornator="http://vectornator.io" xmlns:xlink="http://www.w3.org/1999/xlink">
<defs/>
<clipPath id="ArtboardFrame">
<rect height="1024" width="1052.73" x="0" y="0"/>
</clipPath>
<g clip-path="url(#ArtboardFrame)" id="Capa-2" vectornator:layerName="Capa 2" visibility="hidden">
<path d="M-9.09495e-13 0L2746 0L2746 1113L735.623 1113L-9.09495e-13 1113L-9.09495e-13 0Z" fill="#454545" fill-rule="nonzero" opacity="1" stroke="#084444" stroke-linecap="butt" stroke-linejoin="round" stroke-width="0.745627" vectornator:layerName="Rectángulo 1"/>
</g>
<g id="Capa-4" vectornator:layerName="Capa 4">
<path d="M59.1563 381.606C59.1563 349.224 85.4066 322.974 117.788 322.974L914.943 322.974C947.324 322.974 973.574 349.224 973.574 381.606L973.574 902.494C973.574 934.875 947.324 961.125 914.943 961.125L117.788 961.125C85.4066 961.125 59.1563 934.875 59.1563 902.494L59.1563 381.606Z" fill="#f9f9f9" fill-rule="nonzero" opacity="0.999523" stroke="#8e8e8e" stroke-linecap="butt" stroke-linejoin="round" stroke-width="18" vectornator:layerName="Rectángulo 1"/>
<g opacity="1" vectornator:layerName="Curva 1">
<path d="M482.985 818.868C483.14 834.322 483.256 844.871 483.256 844.871L175.088 844.623C165.683 844.615 158.048 837.016 157.996 827.611L157.294 701.034C157.757 666.442 200.836 611.418 253.035 637.455C301.108 661.433 341.246 659.835 385.404 637.661C432.874 613.824 482.423 662.542 482.195 704.189C482.113 719.163 482.399 726.293 482.695 758.648" fill="#d5d5d5" fill-rule="nonzero" stroke="none"/>
<path d="M226.438 621.25C209.125 621.08 192.683 628.227 179.656 639.375C170.587 647.136 163.082 656.709 157.5 667.25C153.467 674.865 150.359 683.053 148.875 691.562C148.413 694.213 148.098 696.905 148 699.594C147.91 702.066 147.984 704.558 148 707.031C148.021 710.328 148.041 713.61 148.062 716.906C148.144 729.432 148.231 741.974 148.312 754.5C148.419 770.981 148.549 787.456 148.656 803.938C148.695 809.871 148.712 815.785 148.75 821.719C148.767 824.278 148.684 826.884 148.875 829.438C149.694 840.411 157.497 849.971 168.125 852.875C171.606 853.826 175.115 853.813 178.688 853.812C182.7 853.812 186.706 853.782 190.719 853.781C203.96 853.779 217.227 853.777 230.469 853.781C293.467 853.8 356.44 853.831 419.438 853.875C435.488 853.886 451.543 853.895 467.594 853.906C469.6 853.908 471.619 853.905 473.625 853.906C474.829 853.907 476.015 853.905 477.219 853.906C480.912 853.909 485.055 854.432 488.25 852.156C488.933 851.67 489.525 851.112 490.062 850.469C492.938 847.028 492.293 842.424 492.25 838.281C492.233 836.656 492.205 835.031 492.188 833.406C492.165 831.239 492.148 829.073 492.125 826.906C492.097 824.198 492.06 821.49 492.031 818.781C491.979 813.784 487.903 809.761 482.906 809.812C477.909 809.864 473.886 813.972 473.938 818.969C473.971 822.219 473.998 825.468 474.031 828.719C474.054 830.886 474.071 833.052 474.094 835.219C474.096 835.417 474.092 835.615 474.094 835.812C473.938 835.812 473.781 835.813 473.625 835.812C468.007 835.807 462.399 835.786 456.781 835.781C440.33 835.766 423.889 835.765 407.438 835.75C357.28 835.704 307.095 835.624 256.938 835.562C234.066 835.534 211.215 835.509 188.344 835.469C186.739 835.466 185.136 835.472 183.531 835.469C181.525 835.465 179.506 835.441 177.5 835.438C176.171 835.435 174.811 835.552 173.5 835.281C170.985 834.761 168.817 832.987 167.812 830.625C167.477 829.835 167.272 828.983 167.219 828.125C167.125 826.629 167.194 825.092 167.188 823.594C167.178 821.616 167.165 819.634 167.156 817.656C167.129 811.723 167.09 805.808 167.062 799.875C166.981 782.075 166.894 764.269 166.812 746.469C166.764 735.921 166.736 725.361 166.688 714.812C166.672 711.516 166.64 708.234 166.625 704.938C166.609 701.503 166.652 698.171 167.25 694.781C168.41 688.203 170.876 681.911 174 676.031C178.297 667.945 184.039 660.537 190.906 654.469C200.984 645.565 213.85 639.585 227.5 640.125C231.444 640.281 235.338 640.954 239.125 642.062C244.168 643.538 248.768 645.927 253.5 648.156C258.042 650.296 262.654 652.3 267.344 654.094C281.654 659.566 296.712 663.213 312.031 664.125C331.672 665.294 351.23 661.773 369.625 654.938C374.472 653.136 379.25 651.121 383.938 648.938C387.119 647.455 390.185 645.763 393.438 644.438C397.769 642.673 402.371 641.523 407.031 641.094C431.625 638.826 454.362 656.542 465.438 677.344C468.086 682.319 470.163 687.653 471.406 693.156C472.064 696.066 472.494 699.019 472.625 702C472.734 704.499 472.625 707 472.625 709.5C472.625 712.284 472.663 715.06 472.688 717.844C472.808 731.471 473.002 745.123 473.125 758.75C473.174 764.028 477.503 768.268 482.781 768.219C488.059 768.17 492.299 763.841 492.25 758.562C492.121 744.937 491.908 731.313 491.781 717.688C491.751 714.395 491.714 711.105 491.719 707.812C491.723 705.083 491.778 702.35 491.594 699.625C491.351 696.024 490.797 692.456 490 688.938C488.261 681.261 485.318 673.875 481.5 667C466.825 640.579 438.142 619.925 406.969 622C400.475 622.432 394.056 623.857 387.969 626.156C383.805 627.729 379.902 629.841 375.875 631.719C371.65 633.69 367.37 635.499 363 637.125C346.274 643.349 328.472 646.46 310.625 645.031C297.112 643.95 283.901 640.375 271.344 635.344C267.551 633.824 263.809 632.172 260.125 630.406C257.344 629.073 254.609 627.666 251.75 626.5C248.191 625.049 244.525 623.873 240.781 623C236.088 621.906 231.258 621.297 226.438 621.25Z" fill="#8e8e8e" stroke="none"/>
</g>
<path d="M216.989 510.517C216.989 454.131 263.231 408.421 320.275 408.421C377.319 408.421 423.562 454.131 423.562 510.517C423.562 566.901 377.319 612.612 320.275 612.612C263.231 612.612 216.989 566.901 216.989 510.517Z" fill="#d5d5d5" fill-rule="nonzero" opacity="1" stroke="#8e8e8e" stroke-linecap="butt" stroke-linejoin="round" stroke-width="18" vectornator:layerName="Óvalo 1"/>
<path d="M557.558 445.844C557.558 437.437 564.373 430.622 572.78 430.622L842.442 430.622C850.849 430.622 857.664 437.437 857.664 445.844L857.664 469.173C857.664 477.58 850.849 484.395 842.442 484.395L572.78 484.395C564.373 484.395 557.558 477.58 557.558 469.173L557.558 445.844Z" fill="#d5d5d5" fill-rule="nonzero" opacity="0.999523" stroke="#8e8e8e" stroke-linecap="butt" stroke-linejoin="round" stroke-width="17.5" vectornator:layerName="Rectángulo 2"/>
<path d="M557.558 552.099C557.558 543.692 564.373 536.877 572.78 536.877L692.389 536.877C700.796 536.877 707.611 543.692 707.611 552.099L707.611 575.428C707.611 583.835 700.796 590.65 692.389 590.65L572.78 590.65C564.373 590.65 557.558 583.835 557.558 575.428L557.558 552.099Z" fill="#d5d5d5" fill-rule="nonzero" opacity="0.999523" stroke="#8e8e8e" stroke-linecap="butt" stroke-linejoin="round" stroke-width="17.5" vectornator:layerName="Rectángulo 3"/>
<path d="M557.558 657.272C557.558 648.865 564.373 642.05 572.78 642.05L805.241 642.05C813.648 642.05 820.463 648.865 820.463 657.272L820.463 680.6C820.463 689.007 813.648 695.823 805.241 695.823L572.78 695.823C564.373 695.823 557.558 689.007 557.558 680.6L557.558 657.272Z" fill="#d5d5d5" fill-rule="nonzero" opacity="0.999523" stroke="#8e8e8e" stroke-linecap="butt" stroke-linejoin="round" stroke-width="17.5" vectornator:layerName="Rectángulo 4"/>
<path d="M597.872 215.132C607.439 93.207 714.035 2.12258 835.96 11.6897C957.886 21.2569 1048.97 127.853 1039.4 249.778C1029.84 371.703 923.24 462.788 801.314 453.221C679.389 443.654 588.305 337.058 597.872 215.132Z" fill="#ffffff" fill-rule="nonzero" opacity="1" stroke="#8e8e8e" stroke-linecap="butt" stroke-linejoin="round" stroke-width="19.4438" vectornator:layerName="Óvalo 2"/>
<g opacity="1" vectornator:layerName="Óvalo 3">
<path d="M822.969 48.6875C811.448 48.4193 799.903 49.2084 788.531 51.0938C767.844 54.5235 747.789 61.5467 729.469 71.75C712.668 81.1066 697.341 93.1325 684.219 107.188C671.996 120.279 661.706 135.173 653.812 151.25C634.752 190.069 630.013 235.244 640.531 277.188C645.803 298.211 654.892 317.991 667 335.938C669.568 339.745 674.724 340.724 678.531 338.156C682.339 335.588 683.35 330.433 680.781 326.625C669.243 309.516 660.817 290.803 656.094 270.688C647.299 233.229 651.826 193.153 668.812 158.625C675.994 144.027 685.358 130.476 696.469 118.594C708.412 105.821 722.338 94.8993 737.625 86.4062C754.665 76.9397 773.371 70.5725 792.625 67.5625C813.308 64.3292 834.572 65.024 855 69.5938C876.1 74.3139 896.25 83.1679 913.969 95.5625C929.363 106.331 942.9 119.755 953.875 135C963.545 148.432 971.221 163.28 976.5 178.969C989.067 216.315 987.869 257.695 973.25 294.281C967.531 308.595 959.79 322.102 950.344 334.281C938.113 350.05 923.031 363.597 906.062 374.094C888.51 384.952 868.934 392.465 848.625 396.156C832.494 399.088 815.914 399.654 799.625 397.781C791.985 396.903 784.462 395.436 777 393.594C772.29 392.432 767.537 395.29 766.375 400C765.213 404.71 768.103 409.494 772.812 410.656C781 412.674 789.242 414.259 797.625 415.219C815.625 417.281 833.958 416.653 851.781 413.406C874.852 409.204 897.1 400.526 916.906 387.969C935.844 375.962 952.588 360.511 966.031 342.562C978.604 325.777 988.231 306.821 994.406 286.781C1005.14 251.937 1005.29 214.028 994.719 179.125C989.146 160.718 980.628 143.211 969.625 127.438C957.183 109.601 941.594 93.9684 923.75 81.5312C903.778 67.6108 881.05 57.8136 857.25 52.7188C845.978 50.3058 834.489 48.9557 822.969 48.6875Z" fill="#9a9a9a" stroke="none"/>
</g>
<path d="M818.793 271.5C825.753 271.5 828.935 266.728 828.935 260.364L828.935 256.983C829.134 243.858 833.807 238.389 849.719 227.452C866.82 215.917 877.658 202.593 877.658 183.402C877.658 153.573 853.393 136.47 823.168 136.47C800.696 136.47 781.009 147.11 772.557 166.3C770.469 170.974 769.574 175.548 769.574 179.326C769.574 184.993 772.855 188.971 778.92 188.971C783.992 188.971 787.372 185.988 788.864 181.116C793.934 162.223 806.464 155.064 822.472 155.064C841.863 155.064 857.075 166.002 857.075 183.303C857.075 197.522 848.228 205.477 835.498 214.426C819.887 225.264 808.452 236.898 808.452 254.398L808.452 260.662C808.452 267.026 811.932 271.5 818.793 271.5ZM819.643 328.44C827.597 328.44 833.862 322.076 833.862 314.321C833.862 306.466 827.597 300.201 819.643 300.201C811.888 300.201 805.523 306.466 805.523 314.321C805.523 322.076 811.888 328.44 819.643 328.44Z" fill="#848484" fill-rule="nonzero" opacity="1" stroke="#848484" stroke-linecap="round" stroke-linejoin="round" stroke-width="9.39409" vectornator:layerName="Curva 2"/>
</g>
</svg>
