<?xml version="1.0" encoding="UTF-8" standalone="no"?>
<!DOCTYPE svg PUBLIC "-//W3C//DTD SVG 1.1//EN" "http://www.w3.org/Graphics/SVG/1.1/DTD/svg11.dtd">
<!-- Created with Vectornator (http://vectornator.io/) -->
<svg height="100%" stroke-miterlimit="10" style="fill-rule:nonzero;clip-rule:evenodd;stroke-linecap:round;stroke-linejoin:round;" version="1.1" viewBox="0 0 689.552 665.697" width="100%" xml:space="preserve" xmlns="http://www.w3.org/2000/svg" xmlns:vectornator="http://vectornator.io" xmlns:xlink="http://www.w3.org/1999/xlink">
<defs/>
<clipPath id="ArtboardFrame">
<rect height="665.697" width="689.552" x="0" y="0"/>
</clipPath>
<g clip-path="url(#ArtboardFrame)" id="Capa-2" vectornator:layerName="Capa 2" visibility="hidden">
<path d="M-9.09495e-13 0L2746 0L2746 1113L735.623 1113L-9.09495e-13 1113L-9.09495e-13 0Z" fill="#454545" fill-rule="nonzero" opacity="1" stroke="#084444" stroke-linecap="butt" stroke-linejoin="round" stroke-width="0.745627" vectornator:layerName="Rectángulo 1"/>
</g>
<g clip-path="url(#ArtboardFrame)" id="Capa-4" vectornator:layerName="Capa 4">
<path d="M98.9885 305.563L98.9885 584.005L583.83 584.005L583.83 305.563" fill="#f0f0f0" fill-rule="nonzero" opacity="1" stroke="none" vectornator:layerName="Curva 1"/>
<path d="M156.369 582.793L156.369 384.978C156.369 378.119 161.93 372.56 168.788 372.56L281.314 372.56C286.839 372.56 291.352 377.039 291.395 382.564L292.934 582.793L156.369 582.793Z" fill="#f8f7f5" fill-rule="nonzero" opacity="1" stroke="#777777" stroke-linecap="butt" stroke-linejoin="round" stroke-width="11.127" vectornator:layerName="Curva 3"/>
<path d="M368.495 387.016C368.495 378.952 375.032 372.415 383.097 372.415L515.507 372.415C523.572 372.415 530.108 378.952 530.108 387.016L530.108 489.013C530.108 497.077 523.572 503.614 515.507 503.614L383.097 503.614C375.032 503.614 368.495 497.077 368.495 489.013L368.495 387.016Z" fill="#f8f7f5" fill-rule="nonzero" opacity="1" stroke="#777777" stroke-linecap="butt" stroke-linejoin="round" stroke-width="11.127" vectornator:layerName="Rectángulo 1"/>
<path d="M70.8604 584.88L617.461 584.88L617.461 615.904L70.8604 615.904L70.8604 584.88Z" fill="#d5d5d5" fill-rule="nonzero" opacity="1" stroke="#777777" stroke-linecap="butt" stroke-linejoin="round" stroke-width="11.127" vectornator:layerName="Rectángulo 2"/>
<path d="M584.15 210.547L611.685 288.004L499.883 287.304L499.273 210.942L584.15 210.547Z" fill="#d5d5d5" fill-rule="nonzero" opacity="1" stroke="#777777" stroke-linecap="butt" stroke-linejoin="round" stroke-width="11.127" vectornator:layerName="Curva 4"/>
<path d="M394.846 209.794L499.792 209.794L499.792 286.183L394.846 286.183L394.846 209.794Z" fill="#fff7f2" fill-rule="nonzero" opacity="1" stroke="#777777" stroke-linecap="butt" stroke-linejoin="round" stroke-width="11.127" vectornator:layerName="Rectángulo 3"/>
<path d="M499.803 287.187L611.374 287.187C611.374 312.02 586.396 332.15 555.588 332.15C524.781 332.15 499.803 312.02 499.803 287.187Z" fill="#d9d9d9" fill-rule="nonzero" opacity="1" stroke="#777777" stroke-linecap="butt" stroke-linejoin="round" stroke-width="11.127" vectornator:layerName="Óvalo 6"/>
<path d="M100.375 209.109L72.9336 286.566L184.349 285.867L184.957 209.504L100.375 209.109Z" fill="#d9d9d9" fill-rule="nonzero" opacity="1" stroke="#777777" stroke-linecap="butt" stroke-linejoin="round" stroke-width="11.127" vectornator:layerName="Curva 5"/>
<path d="M184.43 285.75L73.2459 285.75C73.2459 310.582 98.1352 330.713 128.837 330.713C159.54 330.713 184.43 310.582 184.43 285.75Z" fill="#d9d9d9" fill-rule="nonzero" opacity="1" stroke="#777777" stroke-linecap="butt" stroke-linejoin="round" stroke-width="11.127" vectornator:layerName="Óvalo 7"/>
<path d="M394.655 286.169L500.627 286.169C500.627 311.001 476.904 331.132 447.641 331.132C418.377 331.132 394.655 311.001 394.655 286.169Z" fill="#efeeed" fill-rule="nonzero" opacity="1" stroke="#777777" stroke-linecap="butt" stroke-linejoin="round" stroke-width="11.127" vectornator:layerName="Óvalo 8"/>
<path d="M289.62 209.522L394.565 209.522L394.565 285.911L289.62 285.911L289.62 209.522Z" fill="#d9d9d9" fill-rule="nonzero" opacity="1" stroke="#777777" stroke-linecap="butt" stroke-linejoin="round" stroke-width="11.127" vectornator:layerName="Rectángulo 4"/>
<path d="M289.429 285.897L395.401 285.897C395.401 310.729 371.678 330.86 342.415 330.86C313.151 330.86 289.429 310.729 289.429 285.897Z" fill="#d9d9d9" fill-rule="nonzero" opacity="1" stroke="#777777" stroke-linecap="butt" stroke-linejoin="round" stroke-width="11.127" vectornator:layerName="Óvalo 9"/>
<path d="M184.145 210.193L289.09 210.193L289.09 286.581L184.145 286.581L184.145 210.193Z" fill="#fff7f2" fill-rule="nonzero" opacity="1" stroke="#777777" stroke-linecap="butt" stroke-linejoin="round" stroke-width="11.127" vectornator:layerName="Rectángulo 5"/>
<path d="M183.953 286.568L289.925 286.568C289.925 311.4 266.203 331.531 236.939 331.531C207.676 331.531 183.953 311.4 183.953 286.568Z" fill="#efeeed" fill-rule="nonzero" opacity="1" stroke="#777777" stroke-linecap="butt" stroke-linejoin="round" stroke-width="11.127" vectornator:layerName="Óvalo 10"/>
<path d="M99.2708 187.563L584.408 187.563L584.408 208.995L99.2708 208.995L99.2708 187.563Z" fill="#d5d5d5" fill-rule="nonzero" opacity="1" stroke="#777777" stroke-linecap="butt" stroke-linejoin="round" stroke-width="11.127" vectornator:layerName="Rectángulo 6"/>
<path d="M585.026 405.341C581.937 405.319 579.404 407.815 579.383 410.904C578.976 467.553 578.342 524.2 577.913 580.849C577.89 584.111 580.531 586.768 583.794 586.789C587.057 586.812 589.713 584.191 589.735 580.928C590.077 524.279 590.225 467.633 590.59 410.983C590.611 407.894 588.115 405.361 585.026 405.341Z" fill="#777777" fill-rule="nonzero" opacity="1" stroke="none" vectornator:layerName="path"/>
<path d="M585.066 320.955C581.977 320.908 579.45 323.37 579.403 326.458C579.189 339.09 578.746 351.7 578.509 364.33C578.459 367.593 581.048 370.281 584.31 370.331C587.573 370.38 590.262 367.791 590.311 364.529C590.46 351.897 590.398 339.249 590.569 326.617C590.616 323.529 588.154 321.002 585.066 320.955Z" fill="#777777" fill-rule="nonzero" opacity="1" stroke="none" vectornator:layerName="path"/>
<path d="M99.2746 320.935C96.1851 320.935 93.6711 323.448 93.6711 326.538C93.6494 395.633 93.397 464.723 93.3531 533.817C93.3531 537.08 96.0115 539.739 99.2746 539.738C102.538 539.738 105.176 537.08 105.176 533.817C105.132 464.723 104.879 395.633 104.858 326.538C104.858 323.448 102.363 320.935 99.2746 320.935Z" fill="#777777" fill-rule="nonzero" opacity="1" stroke="none" vectornator:layerName="path"/>
<path d="M396.117 138.523C402.336 59.2622 471.632 0.0498308 550.894 6.26924C630.156 12.4887 689.368 81.7849 683.146 161.046C676.932 240.307 607.633 299.52 528.371 293.301C449.11 287.082 389.898 217.785 396.117 138.523Z" fill="#ffffff" fill-rule="nonzero" opacity="1" stroke="#8e8e8e" stroke-linecap="butt" stroke-linejoin="round" stroke-width="12.6401" vectornator:layerName="Óvalo 11"/>
<path d="M542.448 30.3209C534.959 30.1465 527.454 30.6595 520.061 31.8851C506.613 34.1147 493.575 38.6804 481.666 45.3134C470.744 51.3959 460.78 59.2138 452.25 68.351C444.304 76.8612 437.614 86.5435 432.483 96.9949C420.092 122.23 417.011 151.598 423.849 178.865C427.276 192.532 433.185 205.39 441.056 217.057C442.725 219.532 446.077 220.169 448.552 218.499C451.027 216.83 451.685 213.479 450.015 211.003C442.514 199.881 437.036 187.716 433.966 174.639C428.249 150.288 431.191 124.235 442.234 101.789C446.903 92.2994 452.99 83.4901 460.213 75.7658C467.977 67.4623 477.03 60.3623 486.968 54.8411C498.045 48.6871 510.206 44.5479 522.722 42.5912C536.168 40.4892 549.991 40.9409 563.271 43.9117C576.988 46.9801 590.087 52.7359 601.606 60.7935C611.613 67.7939 620.413 76.5206 627.548 86.4311C633.834 95.163 638.824 104.815 642.256 115.015C650.426 139.292 649.647 166.193 640.143 189.977C636.426 199.282 631.393 208.063 625.253 215.98C617.302 226.231 607.497 235.038 596.466 241.862C585.056 248.92 572.329 253.804 559.127 256.204C548.641 258.11 537.862 258.478 527.273 257.26C522.306 256.69 517.416 255.736 512.565 254.538C509.503 253.783 506.413 255.641 505.658 258.703C504.902 261.765 506.781 264.875 509.842 265.63C515.165 266.942 520.523 267.972 525.973 268.596C537.674 269.937 549.592 269.529 561.179 267.418C576.177 264.686 590.64 259.045 603.515 250.882C615.826 243.076 626.711 233.032 635.451 221.363C643.624 210.452 649.882 198.129 653.897 185.101C660.875 162.45 660.972 137.806 654.1 115.116C650.477 103.15 644.94 91.7689 637.787 81.5151C629.699 69.9196 619.564 59.7572 607.964 51.672C594.981 42.6226 580.206 36.2536 564.734 32.9415C557.406 31.3729 549.937 30.4952 542.448 30.3209Z" fill="#9a9a9a" fill-rule="nonzero" opacity="1" stroke="none" vectornator:layerName="path 1"/>
<path d="M539.734 175.167C544.258 175.167 546.327 172.065 546.327 167.928L546.327 165.73C546.456 157.198 549.494 153.642 559.838 146.532C570.955 139.034 578.001 130.372 578.001 117.896C578.001 98.505 562.227 87.3867 542.578 87.3867C527.969 87.3867 515.171 94.3036 509.677 106.779C508.319 109.817 507.737 112.791 507.737 115.247C507.737 118.931 509.87 121.517 513.813 121.517C517.11 121.517 519.308 119.577 520.277 116.41C523.573 104.128 531.719 99.4743 542.125 99.4743C554.731 99.4743 564.62 106.585 564.62 117.832C564.62 127.076 558.869 132.247 550.593 138.064C540.445 145.11 533.011 152.673 533.011 164.05L533.011 168.122C533.011 172.259 535.274 175.167 539.734 175.167ZM540.286 212.183C545.457 212.183 549.53 208.046 549.53 203.004C549.53 197.898 545.457 193.825 540.286 193.825C535.245 193.825 531.107 197.898 531.107 203.004C531.107 208.046 535.245 212.183 540.286 212.183Z" fill="#848484" fill-rule="nonzero" opacity="1" stroke="#848484" stroke-linecap="round" stroke-linejoin="round" stroke-width="6.10693" vectornator:layerName="Curva 6"/>
</g>
</svg>
