<?xml version="1.0" encoding="UTF-8" standalone="no"?>
<!DOCTYPE svg PUBLIC "-//W3C//DTD SVG 1.1//EN" "http://www.w3.org/Graphics/SVG/1.1/DTD/svg11.dtd">
<!-- Created with Vectornator (http://vectornator.io/) -->
<svg height="100%" stroke-miterlimit="10" style="fill-rule:nonzero;clip-rule:evenodd;stroke-linecap:round;stroke-linejoin:round;" version="1.1" viewBox="0 0 689.552 668.337" width="100%" xml:space="preserve" xmlns="http://www.w3.org/2000/svg" xmlns:vectornator="http://vectornator.io" xmlns:xlink="http://www.w3.org/1999/xlink">
<defs/>
<clipPath id="ArtboardFrame">
<rect height="668.337" width="689.552" x="0" y="0"/>
</clipPath>
<g clip-path="url(#ArtboardFrame)" id="Capa-2" vectornator:layerName="Capa 2" visibility="hidden">
<path d="M-9.09495e-13 0L2746 0L2746 1113L735.623 1113L-9.09495e-13 1113L-9.09495e-13 0Z" fill="#454545" fill-rule="nonzero" opacity="1" stroke="#084444" stroke-linecap="butt" stroke-linejoin="round" stroke-width="0.745627" vectornator:layerName="Rectángulo 1"/>
</g>
<g id="Capa-4" vectornator:layerName="Capa 4">
<path d="M44.9813 249.575C44.9813 228.477 62.0838 211.375 83.1808 211.375L602.541 211.375C623.638 211.375 640.74 228.477 640.74 249.575L640.74 588.942C640.74 610.039 623.638 627.141 602.541 627.141L83.1808 627.141C62.0838 627.141 44.9813 610.039 44.9813 588.942L44.9813 249.575Z" fill="#ecfff4" fill-rule="nonzero" opacity="0.999523" stroke="#777777" stroke-linecap="butt" stroke-linejoin="round" stroke-width="11.7273" vectornator:layerName="Rectángulo 1"/>
<g opacity="1" vectornator:layerName="Curva 1">
<path d="M321.113 534.458C321.214 544.527 321.289 551.4 321.289 551.4L120.513 551.238C114.385 551.233 109.411 546.282 109.377 540.155L108.92 457.687C109.221 435.15 137.288 399.301 171.297 416.265C202.617 431.887 228.767 430.846 257.537 416.399C288.465 400.869 320.747 432.609 320.598 459.743C320.545 469.499 320.731 474.144 320.924 495.224" fill="#71e6a5" fill-rule="nonzero" opacity="1" stroke="none" vectornator:layerName="path"/>
<path d="M153.968 405.707C142.688 405.596 131.976 410.252 123.489 417.516C117.58 422.572 112.691 428.809 109.054 435.677C106.426 440.638 104.401 445.973 103.435 451.516C103.134 453.243 102.928 454.997 102.864 456.749C102.806 458.36 102.854 459.983 102.864 461.595C102.878 463.743 102.891 465.881 102.905 468.028C102.958 476.189 103.015 484.361 103.068 492.521C103.137 503.259 103.222 513.993 103.292 524.731C103.317 528.597 103.328 532.45 103.353 536.316C103.364 537.983 103.31 539.681 103.435 541.345C103.968 548.494 109.052 554.722 115.976 556.614C118.244 557.234 120.53 557.226 122.858 557.225C125.472 557.225 128.082 557.205 130.697 557.205C139.323 557.203 147.967 557.202 156.594 557.205C197.639 557.217 238.667 557.237 279.711 557.266C290.168 557.273 300.628 557.279 311.085 557.286C312.392 557.287 313.708 557.286 315.015 557.286C315.799 557.287 316.572 557.286 317.356 557.286C319.762 557.288 322.461 557.629 324.543 556.146C324.988 555.829 325.374 555.466 325.724 555.047C327.597 552.805 327.177 549.805 327.149 547.106C327.138 546.048 327.12 544.989 327.109 543.93C327.094 542.518 327.083 541.107 327.068 539.695C327.049 537.931 327.025 536.167 327.006 534.402C326.973 531.146 324.317 528.525 321.061 528.558C317.806 528.592 315.185 531.269 315.219 534.524C315.24 536.642 315.258 538.758 315.279 540.876C315.294 542.288 315.305 543.699 315.32 545.111C315.322 545.24 315.319 545.369 315.32 545.498C315.219 545.498 315.116 545.498 315.015 545.498C311.354 545.494 307.701 545.481 304.04 545.477C293.322 545.468 282.611 545.467 271.893 545.457C239.214 545.427 206.518 545.375 173.839 545.335C158.938 545.317 144.05 545.3 129.149 545.274C128.104 545.272 127.059 545.276 126.014 545.274C124.707 545.272 123.391 545.256 122.084 545.254C121.218 545.252 120.332 545.328 119.478 545.152C117.84 544.813 116.427 543.657 115.772 542.118C115.554 541.604 115.421 541.048 115.386 540.489C115.325 539.515 115.37 538.513 115.366 537.537C115.359 536.249 115.351 534.957 115.345 533.669C115.327 529.803 115.302 525.95 115.284 522.084C115.231 510.487 115.174 498.886 115.121 487.289C115.09 480.417 115.071 473.537 115.04 466.664C115.03 464.517 115.009 462.378 114.999 460.231C114.989 457.993 115.017 455.822 115.406 453.614C116.162 449.328 117.769 445.229 119.804 441.398C122.603 436.129 126.344 431.303 130.818 427.35C137.384 421.548 145.767 417.652 154.66 418.004C157.23 418.106 159.767 418.544 162.234 419.266C165.52 420.228 168.517 421.784 171.599 423.237C174.559 424.631 177.563 425.936 180.619 427.105C189.942 430.67 199.753 433.046 209.733 433.641C222.53 434.402 235.272 432.108 247.257 427.655C250.415 426.481 253.528 425.168 256.582 423.746C258.655 422.78 260.652 421.677 262.771 420.814C265.593 419.664 268.591 418.915 271.628 418.636C287.651 417.158 302.464 428.7 309.681 442.253C311.406 445.494 312.759 448.97 313.569 452.555C313.998 454.451 314.278 456.375 314.363 458.317C314.434 459.945 314.363 461.574 314.363 463.203C314.363 465.017 314.388 466.826 314.404 468.639C314.482 477.518 314.609 486.412 314.689 495.29C314.721 498.729 317.541 501.492 320.98 501.46C324.419 501.428 327.181 498.607 327.149 495.168C327.065 486.291 326.926 477.415 326.844 468.538C326.824 466.392 326.8 464.249 326.803 462.103C326.806 460.325 326.842 458.545 326.722 456.77C326.563 454.423 326.202 452.099 325.683 449.807C324.55 444.805 322.633 439.993 320.145 435.514C310.584 418.3 291.897 404.844 271.587 406.196C267.356 406.477 263.174 407.405 259.208 408.903C256.495 409.928 253.953 411.304 251.329 412.528C248.576 413.812 245.788 414.99 242.941 416.05C232.043 420.105 220.445 422.132 208.817 421.201C200.013 420.496 191.406 418.167 183.225 414.889C180.754 413.899 178.316 412.823 175.916 411.672C174.104 410.804 172.322 409.887 170.459 409.127C168.141 408.182 165.752 407.416 163.313 406.847C160.255 406.134 157.108 405.737 153.968 405.707Z" fill="#777777" fill-rule="nonzero" opacity="1" stroke="none" vectornator:layerName="path"/>
</g>
<path d="M147.812 333.562C147.812 296.826 177.939 267.045 215.105 267.045C252.27 267.045 282.398 296.826 282.398 333.562C282.398 370.298 252.27 400.079 215.105 400.079C177.939 400.079 147.812 370.298 147.812 333.562Z" fill="#71e6a5" fill-rule="nonzero" opacity="1" stroke="#777777" stroke-linecap="butt" stroke-linejoin="round" stroke-width="11.7273" vectornator:layerName="Óvalo 1"/>
<path d="M380.774 291.719C380.774 286.081 385.345 281.51 390.983 281.51L566.088 281.51C571.727 281.51 576.298 286.081 576.298 291.719L576.298 306.334C576.298 311.972 571.727 316.544 566.088 316.544L390.983 316.544C385.345 316.544 380.774 311.972 380.774 306.334L380.774 291.719Z" fill="#d8e1dc" fill-rule="nonzero" opacity="0.999523" stroke="#777777" stroke-linecap="butt" stroke-linejoin="round" stroke-width="10.75" vectornator:layerName="Rectángulo 2"/>
<path d="M380.774 360.946C380.774 355.307 385.345 350.736 390.983 350.736L468.326 350.736C473.965 350.736 478.536 355.307 478.536 360.946L478.536 375.561C478.536 381.199 473.965 385.77 468.326 385.77L390.983 385.77C385.345 385.77 380.774 381.199 380.774 375.561L380.774 360.946Z" fill="#d8e1dc" fill-rule="nonzero" opacity="0.999523" stroke="#777777" stroke-linecap="butt" stroke-linejoin="round" stroke-width="10.75" vectornator:layerName="Rectángulo 3"/>
<path d="M380.774 429.468C380.774 423.829 385.345 419.258 390.983 419.258L541.852 419.258C547.49 419.258 552.061 423.829 552.061 429.468L552.061 444.083C552.061 449.721 547.49 454.292 541.852 454.292L390.983 454.292C385.345 454.292 380.774 449.721 380.774 444.083L380.774 429.468Z" fill="#d8e1dc" fill-rule="nonzero" opacity="0.999523" stroke="#777777" stroke-linecap="butt" stroke-linejoin="round" stroke-width="10.75" vectornator:layerName="Rectángulo 4"/>
<g opacity="1" vectornator:layerName="Óvalo 2">
<path d="M448.102 41.0121C475.925 18.1031 512.314 5.52604 551.082 8.56805C630.519 14.8012 689.862 84.2504 683.627 163.687C677.398 243.123 607.946 302.466 528.51 296.233C449.073 290 389.731 220.551 395.964 141.114C398.212 112.458 408.687 86.418 424.89 65.1268" fill="#55da90" fill-rule="nonzero" opacity="1" stroke="none" vectornator:layerName="path"/>
<path d="M541.518 2.74368C526.96 2.56005 512.368 4.5188 498.376 8.54622C484.036 12.6738 470.317 18.9733 457.84 27.1552C453.285 30.1418 448.935 33.3957 444.708 36.8262C442.397 38.7001 442.04 42.0902 443.913 44.4C445.787 46.7099 449.177 47.068 451.487 45.194C455.433 41.9932 459.513 38.9612 463.764 36.1746C475.341 28.5858 488.065 22.7165 501.369 18.8891C514.349 15.1548 527.87 13.3418 541.376 13.514C556.933 13.7126 572.449 16.4919 587.084 21.7802C624.204 35.1937 654.299 64.4653 668.85 101.143C675.046 116.755 678.343 133.437 678.584 150.231C678.831 167.781 675.776 185.378 669.521 201.782C662.863 219.254 652.613 235.316 639.613 248.753C626.203 262.612 609.921 273.658 592.052 280.921C575.442 287.672 557.553 291.111 539.625 291.06C522.104 291.011 504.611 287.691 488.338 281.186C473.766 275.36 460.223 267.009 448.433 256.652C437.318 246.889 427.753 235.344 420.255 222.59C413.821 211.645 408.896 199.831 405.677 187.55C398.065 158.508 400.215 127.106 411.704 99.3715C416.262 88.3673 422.279 78.0571 429.437 68.5469C431.326 66.0365 430.828 62.4751 428.317 60.5861C425.807 58.6972 422.226 59.1956 420.336 61.706C412.25 72.456 405.542 84.1637 400.546 96.6637C388.099 127.817 386.464 162.959 396.027 195.124C399.703 207.492 405 219.396 411.724 230.408C420.063 244.063 430.581 256.369 442.773 266.73C455.722 277.735 470.56 286.511 486.445 292.546C503.771 299.13 522.336 302.424 540.867 302.299C560.226 302.168 579.502 298.237 597.366 290.775C616.218 282.901 633.406 271.148 647.594 256.448C661.899 241.626 673.098 223.874 680.252 204.551C686.982 186.37 690.083 166.914 689.477 147.543C688.904 129.481 685.014 111.547 678.05 94.8721C671.417 78.9907 662.042 64.2841 650.444 51.5667C634.139 33.6884 613.518 19.8338 590.749 11.6206C574.982 5.93306 558.276 2.95505 541.518 2.74368Z" fill="#777777" fill-rule="nonzero" opacity="1" stroke="none" vectornator:layerName="path"/>
</g>
<path d="M539.605 180.206C544.562 180.206 546.828 176.807 546.828 172.276L546.828 169.868C546.969 160.521 550.297 156.626 561.629 148.837C573.808 140.623 581.525 131.134 581.525 117.467C581.525 96.2246 564.245 84.0445 542.72 84.0445C526.717 84.0445 512.697 91.6217 506.678 105.288C505.19 108.616 504.553 111.874 504.553 114.564C504.553 118.6 506.89 121.433 511.21 121.433C514.821 121.433 517.229 119.309 518.291 115.839C521.902 102.385 530.824 97.2866 542.225 97.2866C556.035 97.2866 566.867 105.075 566.867 117.397C566.867 127.523 560.567 133.188 551.502 139.561C540.384 147.279 532.241 155.564 532.241 168.027L532.241 172.488C532.241 177.02 534.719 180.206 539.605 180.206ZM540.21 220.756C545.875 220.756 550.337 216.224 550.337 210.701C550.337 205.107 545.875 200.646 540.21 200.646C534.687 200.646 530.155 205.107 530.155 210.701C530.155 216.224 534.687 220.756 540.21 220.756Z" fill="#ffffff" fill-rule="nonzero" opacity="1" stroke="#ffffff" stroke-linecap="round" stroke-linejoin="round" stroke-width="6.68997" vectornator:layerName="Curva 2"/>
</g>
</svg>
