<?xml version="1.0" encoding="UTF-8" standalone="no"?>
<!DOCTYPE svg PUBLIC "-//W3C//DTD SVG 1.1//EN" "http://www.w3.org/Graphics/SVG/1.1/DTD/svg11.dtd">
<!-- Created with Vectornator (http://vectornator.io/) -->
<svg height="100%" stroke-miterlimit="10" style="fill-rule:nonzero;clip-rule:evenodd;stroke-linecap:round;stroke-linejoin:round;" version="1.1" viewBox="0 0 1052.73 1024" width="100%" xml:space="preserve" xmlns="http://www.w3.org/2000/svg" xmlns:vectornator="http://vectornator.io" xmlns:xlink="http://www.w3.org/1999/xlink">
<defs/>
<clipPath id="ArtboardFrame">
<rect height="1024" width="1052.73" x="0" y="0"/>
</clipPath>
<g clip-path="url(#ArtboardFrame)" id="Capa-2" vectornator:layerName="Capa 2" visibility="hidden">
<path d="M-9.09495e-13 0L2746 0L2746 1113L735.623 1113L-9.09495e-13 1113L-9.09495e-13 0Z" fill="#454545" fill-rule="nonzero" opacity="1" stroke="#084444" stroke-linecap="butt" stroke-linejoin="round" stroke-width="0.745627" vectornator:layerName="Rectángulo 1"/>
</g>
<g id="Capa-3" opacity="0.1" vectornator:layerName="Capa 3"/>
<g id="Capa-4" vectornator:layerName="Capa 4">
<g opacity="1" vectornator:layerName="Línea 1">
<path d="M59.0312 954.906C53.895 954.906 49.7187 959.051 49.7188 964.188C49.7188 969.324 53.895 973.5 59.0312 973.5C375.875 973.475 692.718 973.431 1009.56 973.406C1014.66 973.406 1018.78 969.282 1018.78 964.188C1018.78 959.093 1014.66 954.969 1009.56 954.969C692.718 954.944 375.875 954.931 59.0312 954.906Z" fill="#777777" stroke="none"/>
</g>
<path d="M95.4264 809.405L204.569 809.405L204.569 928.675L95.4264 928.675L95.4264 809.405Z" fill="#fff7f2" fill-rule="nonzero" opacity="1" stroke="#777777" stroke-linecap="butt" stroke-linejoin="round" stroke-width="18.5" vectornator:layerName="Rectángulo 1"/>
<path d="M277.024 690.134L386.167 690.134L386.167 928.675L277.024 928.675L277.024 690.134Z" fill="#fff7f2" fill-rule="nonzero" opacity="1" stroke="#777777" stroke-linecap="butt" stroke-linejoin="round" stroke-width="18.5" vectornator:layerName="Rectángulo 2"/>
<path d="M457.098 690.134L566.241 690.134L566.241 928.675L457.098 928.675L457.098 690.134Z" fill="#fff7f2" fill-rule="nonzero" opacity="1" stroke="#777777" stroke-linecap="butt" stroke-linejoin="round" stroke-width="18.5" vectornator:layerName="Rectángulo 3"/>
<path d="M638.696 526.454L747.839 526.454L747.839 928.675L638.696 928.675L638.696 526.454Z" fill="#fff7f2" fill-rule="nonzero" opacity="1" stroke="#777777" stroke-linecap="butt" stroke-linejoin="round" stroke-width="18.5" vectornator:layerName="Rectángulo 4"/>
<path d="M824.355 407.638L933.497 407.638L933.497 928.675L824.355 928.675L824.355 407.638Z" fill="#fff7f2" fill-rule="nonzero" opacity="1" stroke="#777777" stroke-linecap="butt" stroke-linejoin="round" stroke-width="18.5" vectornator:layerName="Rectángulo 5"/>
<path d="M95.8384 643.932C101.553 571.104 165.225 516.697 238.053 522.412C310.881 528.127 365.288 591.798 359.573 664.627C353.858 737.455 290.187 791.861 217.358 786.147C144.53 780.432 90.1238 716.76 95.8384 643.932Z" fill="#ffc69e" fill-rule="nonzero" opacity="1" stroke="#777777" stroke-linecap="butt" stroke-linejoin="round" stroke-width="18" vectornator:layerName="Óvalo 14"/>
<path d="M224.784 732.772L224.784 717.966C217.38 717.033 211.362 715.374 206.728 712.989C202.094 710.603 198.09 706.751 194.718 701.432C191.345 696.112 189.385 689.614 188.836 681.936L203.725 679.139C204.877 687.091 206.906 692.931 209.812 696.66C213.98 701.925 218.971 704.859 224.784 705.462L224.784 658.328C218.696 657.176 212.472 654.818 206.111 651.254C201.395 648.621 197.761 644.974 195.211 640.313C192.661 635.652 191.386 630.36 191.386 624.437C191.386 613.908 195.115 605.38 202.574 598.855C207.564 594.467 214.967 591.78 224.784 590.793L224.784 583.719L233.503 583.719L233.503 590.793C242.113 591.616 248.94 594.138 253.985 598.361C260.457 603.735 264.35 611.111 265.666 620.489L250.366 622.792C249.489 616.979 247.665 612.523 244.896 609.425C242.126 606.326 238.329 604.284 233.503 603.297L233.503 645.989C240.961 647.853 245.897 649.307 248.31 650.349C252.916 652.378 256.673 654.845 259.579 657.752C262.486 660.658 264.72 664.113 266.283 668.117C267.846 672.12 268.628 676.452 268.628 681.114C268.628 691.368 265.365 699.923 258.839 706.778C252.313 713.633 243.868 717.307 233.503 717.801L233.503 732.772L224.784 732.772ZM224.784 603.132C219.025 604.009 214.487 606.313 211.17 610.042C207.852 613.771 206.193 618.185 206.193 623.285C206.193 628.331 207.605 632.553 210.429 635.953C213.254 639.353 218.038 642.068 224.784 644.097L224.784 603.132ZM233.503 705.462C239.261 704.749 244.018 702.254 247.775 697.977C251.531 693.699 253.41 688.407 253.41 682.101C253.41 676.726 252.08 672.408 249.42 669.145C246.76 665.882 241.455 662.962 233.503 660.384L233.503 705.462Z" fill="#727272" opacity="1" stroke="#777777" stroke-linecap="butt" stroke-linejoin="round" stroke-width="3" vectornator:layerName="Texto 1"/>
<g opacity="1" vectornator:layerName="Óvalo 15">
<path d="M677.898 61.4874C720.603 26.3248 776.456 7.02059 835.96 11.6897C957.886 21.2569 1048.97 127.853 1039.4 249.778C1029.84 371.703 923.24 462.788 801.314 453.221C679.389 443.654 588.305 337.058 597.872 215.132C601.323 171.149 617.401 131.18 642.27 98.5006" fill="#ffa766" fill-rule="nonzero" stroke="none"/>
<path d="M821.281 2.75C798.935 2.46814 776.538 5.47459 755.062 11.6562C733.053 17.9916 711.995 27.6605 692.844 40.2188C685.853 44.8028 679.177 49.7971 672.688 55.0625C669.142 57.9388 668.593 63.1421 671.469 66.6875C674.345 70.2329 679.548 70.7825 683.094 67.9062C689.151 62.9933 695.413 58.3396 701.938 54.0625C719.707 42.4145 739.236 33.4058 759.656 27.5312C779.58 21.7995 800.333 19.0168 821.062 19.2812C844.941 19.5859 868.756 23.8518 891.219 31.9688C948.194 52.5568 994.385 97.4852 1016.72 153.781C1026.23 177.744 1031.29 203.349 1031.66 229.125C1032.04 256.062 1027.35 283.071 1017.75 308.25C1007.53 335.067 991.798 359.72 971.844 380.344C951.261 401.617 926.27 418.571 898.844 429.719C873.349 440.081 845.892 445.359 818.375 445.281C791.483 445.205 764.633 440.11 739.656 430.125C717.289 421.183 696.502 408.365 678.406 392.469C661.346 377.483 646.665 359.764 635.156 340.188C625.281 323.389 617.722 305.256 612.781 286.406C601.098 241.829 604.398 193.631 622.031 151.062C629.028 134.172 638.263 118.347 649.25 103.75C652.149 99.8969 651.384 94.4306 647.531 91.5312C643.678 88.6319 638.181 89.3969 635.281 93.25C622.869 109.75 612.573 127.72 604.906 146.906C585.801 194.723 583.291 248.661 597.969 298.031C603.612 317.014 611.741 335.286 622.062 352.188C634.861 373.146 651.006 392.035 669.719 407.938C689.594 424.828 712.368 438.298 736.75 447.562C763.343 457.667 791.839 462.723 820.281 462.531C849.995 462.331 879.581 456.296 907 444.844C935.936 432.758 962.317 414.719 984.094 392.156C1006.05 369.405 1023.24 342.158 1034.22 312.5C1044.55 284.595 1049.31 254.732 1048.38 225C1047.5 197.276 1041.53 169.75 1030.84 144.156C1020.66 119.78 1006.27 97.2071 988.469 77.6875C963.443 50.2464 931.791 28.9812 896.844 16.375C872.643 7.64531 847.002 3.07442 821.281 2.75Z" fill="#777777" stroke="none"/>
</g>
<path d="M818.344 275.134C825.952 275.134 829.43 269.917 829.43 262.961L829.43 259.266C829.647 244.919 834.755 238.941 852.148 226.986C870.841 214.378 882.687 199.814 882.687 178.837C882.687 146.232 856.164 127.537 823.126 127.537C798.563 127.537 777.043 139.167 767.805 160.143C765.522 165.252 764.544 170.252 764.544 174.381C764.544 180.576 768.131 184.924 774.761 184.924C780.304 184.924 783.999 181.663 785.63 176.338C791.172 155.687 804.867 147.862 822.366 147.862C843.562 147.862 860.188 159.817 860.188 178.729C860.188 194.271 850.518 202.966 836.604 212.748C819.54 224.595 807.041 237.311 807.041 256.44L807.041 263.287C807.041 270.243 810.845 275.134 818.344 275.134ZM819.273 337.373C827.968 337.373 834.816 330.417 834.816 321.94C834.816 313.353 827.968 306.506 819.273 306.506C810.796 306.506 803.84 313.353 803.84 321.94C803.84 330.417 810.796 337.373 819.273 337.373Z" fill="#ffffff" fill-rule="nonzero" opacity="1" stroke="#ffffff" stroke-linecap="round" stroke-linejoin="round" stroke-width="10.2683" vectornator:layerName="Curva 11"/>
</g>
</svg>
