<?xml version="1.0" encoding="UTF-8" standalone="no"?>
<!DOCTYPE svg PUBLIC "-//W3C//DTD SVG 1.1//EN" "http://www.w3.org/Graphics/SVG/1.1/DTD/svg11.dtd">
<!-- Created with Vectornator (http://vectornator.io/) -->
<svg height="100%" stroke-miterlimit="10" style="fill-rule:nonzero;clip-rule:evenodd;stroke-linecap:round;stroke-linejoin:round;" version="1.1" viewBox="0 0 1052.73 1024" width="100%" xml:space="preserve" xmlns="http://www.w3.org/2000/svg" xmlns:vectornator="http://vectornator.io" xmlns:xlink="http://www.w3.org/1999/xlink">
<defs/>
<clipPath id="ArtboardFrame">
<rect height="1024" width="1052.73" x="0" y="0"/>
</clipPath>
<g clip-path="url(#ArtboardFrame)" id="Capa-2" vectornator:layerName="Capa 2" visibility="hidden">
<path d="M-9.09495e-13 0L2746 0L2746 1113L735.623 1113L-9.09495e-13 1113L-9.09495e-13 0Z" fill="#454545" fill-rule="nonzero" opacity="1" stroke="#084444" stroke-linecap="butt" stroke-linejoin="round" stroke-width="0.745627" vectornator:layerName="Rectángulo 1"/>
</g>
<g id="Capa-3" opacity="0.1" vectornator:layerName="Capa 3"/>
<g id="Capa-4" vectornator:layerName="Capa 4">
<path d="M218.131 338.98L902.115 338.98C941.09 338.98 959.849 368.401 944.023 404.695L821.769 684.987L331.314 684.987" fill="#fff7f1" fill-opacity="0.770326" fill-rule="nonzero" opacity="1" stroke="none" vectornator:layerName="Curva 4"/>
<path d="M892.791 330.211C859.069 330.254 825.332 330.307 791.602 330.35C629.95 330.554 468.297 330.746 306.642 330.95C301.598 330.958 297.516 334.966 297.523 339.881C297.531 344.797 301.645 348.775 306.69 348.767C465.631 348.498 624.563 348.228 783.507 347.959C819.556 347.898 855.605 347.835 891.654 347.775C898.143 347.763 904.722 347.424 911.15 348.398C922.049 350.048 932.259 355.274 937.322 365.199C941.939 374.237 941.256 384.92 938.346 394.347C936.845 399.198 934.639 403.815 932.608 408.471C928.78 417.27 924.96 426.074 921.125 434.873C896.271 491.932 871.409 548.989 846.555 606.047C844.63 610.471 846.752 615.57 851.292 617.448C855.833 619.327 861.07 617.279 862.995 612.856C888.691 553.941 914.379 495.01 940.074 436.097C942.977 429.432 945.88 422.775 948.791 416.11C951.193 410.601 953.763 405.143 955.544 399.401C958.811 388.833 959.789 377.422 956.939 366.653C956.098 363.464 954.938 360.349 953.429 357.398C948.889 348.482 941.362 341.313 932.305 336.766C927.302 334.255 921.928 332.547 916.41 331.504C913.029 330.864 909.596 330.47 906.155 330.304C901.713 330.089 897.241 330.206 892.791 330.211Z" fill="#777777" fill-rule="nonzero" opacity="1" stroke="none" vectornator:layerName="path"/>
<path d="M223.802 338.98L243.097 338.98" fill="#f8f7f5" fill-rule="nonzero" opacity="1" stroke="none" vectornator:layerName="path"/>
<path d="M223.81 330.073C218.765 330.073 214.667 334.066 214.667 338.982C214.667 343.897 218.765 347.89 223.81 347.89C230.242 347.824 236.659 347.748 243.092 347.682C248.024 347.682 252.021 343.787 252.021 338.982C252.021 334.176 248.024 330.281 243.092 330.281C236.659 330.215 230.242 330.139 223.81 330.073Z" fill="#777777" fill-rule="nonzero" opacity="1" stroke="none" vectornator:layerName="path"/>
<path d="M652.533 761.877L281.088 761.877C267.154 761.877 263.846 753.738 273.699 743.698L332.216 684.987L218.131 338.98L180.404 262.09L91.8618 262.09C78.2532 262.09 67.221 273.332 67.221 287.2L67.221 313.871C67.221 327.739 78.2532 338.98 91.8618 338.98L118.035 338.98C131.644 338.98 146.165 349.645 150.468 362.801L255.859 684.987L197.828 744.123C188.204 753.929 180.404 773.12 180.404 786.988L180.404 813.658C180.404 827.526 191.436 838.768 205.044 838.768L834.859 838.768C848.465 838.768 859.501 827.526 859.501 813.658L859.501 786.988C859.501 773.12 848.465 761.877 834.859 761.877L780.118 761.877" fill="#ffc296" fill-rule="nonzero" opacity="1" stroke="none" vectornator:layerName="path"/>
<path d="M155.498 253.844C138.896 253.845 122.31 253.866 105.709 253.867C102.019 253.868 98.3122 253.867 94.6224 253.867C92.1802 253.867 89.7517 253.833 87.3272 254.167C78.2741 255.416 70.1249 260.523 64.9432 267.83C62.0206 271.951 60.0604 276.688 59.2348 281.631C58.696 284.857 58.7845 288.115 58.7847 291.37C58.7851 295.537 58.7844 299.711 58.7847 303.879C58.7849 306.379 58.7845 308.879 58.7847 311.379C58.7848 312.964 58.7503 314.551 58.8558 316.134C59.0025 318.333 59.3692 320.51 59.9454 322.641C61.2426 327.442 63.6056 331.951 66.8856 335.75C72.0466 341.728 79.3723 345.801 87.3272 346.897C90.7134 347.364 94.1729 347.198 97.5838 347.197C102.491 347.197 107.409 347.198 112.317 347.197C115.822 347.197 119.379 346.956 122.81 347.797C127.318 348.903 131.466 351.294 134.891 354.329C137.472 356.618 139.696 359.347 141.238 362.406C142.113 364.141 142.651 365.97 143.252 367.807C143.938 369.904 144.626 372.01 145.313 374.107C147.92 382.078 150.521 390.046 153.129 398.017C164.11 431.577 175.097 465.149 186.077 498.709C199.803 540.659 213.543 582.607 227.268 624.557C231.798 638.4 236.311 652.232 240.841 666.075C242.351 670.69 243.856 675.308 245.365 679.923C245.685 680.9 246.017 681.875 246.336 682.853C245.676 683.526 245.006 684.189 244.347 684.861C241.325 687.941 238.297 691.036 235.275 694.115C225.906 703.664 216.528 713.208 207.158 722.757C203.23 726.761 199.315 730.753 195.386 734.757C193.683 736.493 191.914 738.209 190.293 740.019C188.848 741.634 187.513 743.332 186.267 745.097C182.994 749.73 180.33 754.759 178.142 759.959C175.369 766.55 173.337 773.468 172.434 780.545C171.949 784.347 172.007 788.17 172.007 791.992C172.008 796.16 172.007 800.333 172.007 804.501C172.007 806.724 172.007 808.925 172.007 811.147C172.008 814.222 172.062 817.257 172.67 820.287C174.771 830.746 181.999 839.937 192.046 844.265C195.084 845.574 198.336 846.44 201.639 846.781C203.591 846.982 205.554 846.943 207.514 846.943C209.564 846.943 211.598 846.943 213.649 846.943C222.259 846.942 230.88 846.943 239.491 846.943C272.703 846.94 305.904 846.945 339.117 846.943C455.977 846.934 572.844 846.928 689.704 846.92C726.608 846.917 763.513 846.899 800.417 846.897C809.437 846.896 818.449 846.897 827.469 846.897C831.047 846.896 834.708 847.104 838.27 846.735C842.288 846.319 846.199 845.151 849.776 843.319C859.168 838.515 865.679 829.361 867.377 819.202C867.915 815.982 867.854 812.736 867.854 809.486C867.854 805.874 867.854 802.274 867.854 798.662C867.854 795.606 867.854 792.533 867.854 789.477C867.854 786.777 867.824 784.118 867.377 781.445C865.861 772.348 860.494 764.028 852.573 758.944C848.609 756.399 844.061 754.699 839.354 754.051C837.004 753.727 834.67 753.751 832.297 753.751C829.447 753.751 826.597 753.751 823.747 753.751C809.21 753.752 794.656 753.75 780.118 753.751C775.51 753.751 771.779 757.389 771.779 761.874C771.779 766.36 775.51 769.998 780.118 769.998C795.225 769.999 810.339 769.997 825.453 769.998C827.734 769.999 830.016 769.998 832.297 769.998C834.056 769.999 835.822 769.926 837.558 770.229C842.181 771.035 846.161 773.931 848.571 777.822C849.958 780.062 850.8 782.606 851.057 785.207C851.254 787.175 851.156 789.187 851.156 791.162C851.156 795.051 851.156 798.926 851.156 802.816C851.156 805.594 851.156 808.369 851.156 811.147C851.156 812.963 851.216 814.796 850.913 816.594C850.163 821.068 847.624 825.207 843.811 827.833C841.651 829.321 839.127 830.285 836.489 830.556C834.731 830.739 832.927 830.627 831.16 830.626C829.523 830.626 827.901 830.626 826.256 830.626C817.646 830.625 809.028 830.627 800.417 830.626C763.923 830.624 727.429 830.629 690.936 830.626C574.486 830.618 458.031 830.612 341.581 830.603C308.368 830.601 275.167 830.582 241.955 830.58C232.523 830.579 223.079 830.581 213.649 830.58C211.598 830.58 209.564 830.58 207.514 830.58C206.333 830.58 205.14 830.639 203.96 830.556C202.2 830.434 200.458 830.006 198.844 829.31C193.582 827.042 189.957 822.052 189.038 816.571C188.783 815.048 188.801 813.54 188.801 812.002C188.802 810.334 188.801 808.66 188.801 806.993C188.802 802.548 188.801 798.099 188.801 793.654C188.802 789.972 188.612 786.238 189.086 782.576C190.162 774.245 193.155 766.052 197.352 758.736C198.723 756.347 200.258 754.017 202.018 751.881C203.44 750.158 205.047 748.608 206.613 747.012C209.032 744.548 211.467 742.091 213.885 739.627C222.651 730.696 231.412 721.764 240.178 712.832C245.619 707.289 251.057 701.736 256.498 696.193C257.404 695.269 258.315 694.347 259.222 693.423C261.107 691.502 263.098 689.744 263.817 687.054C264.697 683.761 263.239 680.562 262.23 677.476C261.818 676.217 261.409 674.949 260.998 673.691C260.449 672.013 259.889 670.338 259.34 668.66C255.362 656.494 251.381 644.316 247.402 632.149C232.036 585.163 216.674 538.195 201.307 491.208C191.018 459.744 180.734 428.257 170.444 396.794C167.426 387.564 164.414 378.351 161.395 369.122C160.709 367.025 160.021 364.919 159.335 362.822C158.714 360.922 158.116 359.007 157.321 357.167C156.153 354.461 154.655 351.902 152.916 349.506C146.525 340.695 136.681 333.931 125.818 331.597C122.42 330.865 119.05 330.766 115.586 330.765C109.86 330.765 104.138 330.766 98.4122 330.765C96.7765 330.765 95.1454 330.766 93.5097 330.765C92.0619 330.765 90.6056 330.784 89.1748 330.535C84.4036 329.703 80.2958 326.621 77.9473 322.526C76.7332 320.41 75.9845 318.062 75.7444 315.649C75.5489 313.684 75.6732 311.666 75.6734 309.695C75.6737 305.527 75.6731 301.376 75.6734 297.209C75.6735 294.986 75.6732 292.762 75.6734 290.539C75.6735 288.647 75.5666 286.72 75.8155 284.839C76.1783 282.096 77.2108 279.453 78.8237 277.177C79.6412 276.023 80.6241 274.977 81.7134 274.061C83.9675 272.166 86.7411 270.866 89.6959 270.461C91.7769 270.176 93.9273 270.322 96.0201 270.322C98.3258 270.323 100.631 270.322 102.937 270.322C118.155 270.323 133.363 270.321 148.581 270.322C155.498 270.323 162.413 270.322 169.331 270.322C171.242 270.323 173.152 270.322 175.063 270.322C175.869 271.965 176.673 273.618 177.479 275.261C180.23 280.868 182.995 286.479 185.745 292.086C191.247 303.299 196.754 314.498 202.255 325.711C204.023 329.315 205.793 332.93 207.561 336.535C208.15 337.737 208.724 338.934 209.314 340.135C209.622 340.764 210 341.357 210.261 342.005C210.549 342.719 210.731 343.467 210.972 344.197C211.417 345.549 211.853 346.908 212.298 348.259C213.487 351.863 214.687 355.479 215.875 359.083C219.737 370.797 223.596 382.494 227.458 394.209C239.042 429.351 250.622 464.49 262.206 499.632C276.018 541.532 289.823 583.441 303.634 625.342C308.238 639.308 312.84 653.286 317.444 667.253C318.929 671.758 320.412 676.248 321.897 680.753C322.12 681.43 322.361 682.107 322.583 682.784C322.545 682.823 322.504 682.86 322.465 682.9C320.942 684.428 319.418 685.94 317.894 687.469C313.017 692.361 308.133 697.255 303.255 702.147C295.026 710.403 286.803 718.678 278.574 726.934C275.831 729.685 273.097 732.421 270.354 735.172C268.44 737.093 266.472 738.982 264.788 741.104C260.643 746.328 257.932 753.096 260.572 759.59C260.971 760.573 261.477 761.509 262.088 762.382C262.881 763.516 263.854 764.546 264.93 765.429C268.55 768.396 273.274 769.678 277.911 770.045C280.889 770.28 283.902 770.16 286.888 770.16C288.339 770.16 289.796 770.16 291.246 770.16C313.978 770.161 336.709 770.158 359.441 770.16C457.138 770.167 554.842 770.176 652.54 770.183C657.248 770.183 661.067 766.462 661.067 761.874C661.067 757.287 657.248 753.567 652.54 753.566C556.293 753.573 460.045 753.582 363.799 753.59C341.551 753.591 319.298 753.587 297.049 753.59C292.213 753.59 287.366 753.589 282.53 753.59C280.959 753.59 279.392 753.625 277.839 753.358C277.544 753.307 277.253 753.227 276.963 753.151C277.169 752.76 277.396 752.384 277.65 752.02C278.536 750.751 279.612 749.656 280.705 748.558C284.363 744.889 288.016 741.219 291.672 737.55C302.034 727.152 312.411 716.745 322.773 706.347C326.43 702.678 330.084 699.009 333.74 695.339C334.654 694.421 335.574 693.51 336.488 692.593C337.982 691.093 339.403 689.656 340.088 687.585C340.506 686.322 340.644 684.978 340.491 683.661C340.293 681.954 339.478 679.996 338.951 678.399C338.803 677.948 338.674 677.511 338.525 677.061C337.039 672.555 335.534 668.042 334.049 663.536C327.956 645.065 321.878 626.596 315.786 608.125C294.538 543.7 273.292 479.265 252.045 414.841C246.25 397.271 240.453 379.7 234.658 362.129C232.727 356.273 230.787 350.423 228.855 344.566C228.261 342.764 227.674 340.968 227.079 339.166C226.725 338.094 226.415 337.005 225.989 335.958C225.252 334.144 224.272 332.388 223.408 330.627C221.639 327.023 219.87 323.407 218.102 319.803C213.189 309.792 208.281 299.789 203.368 289.778C199.831 282.57 196.294 275.361 192.757 268.153C191.774 266.151 190.778 264.132 189.796 262.129C189.202 260.919 188.621 259.544 187.901 258.368C187.442 257.618 186.897 256.933 186.243 256.337C184.853 255.068 183.078 254.243 181.198 253.96C180.055 253.787 178.802 253.844 177.645 253.844C176.722 253.844 175.795 253.844 174.874 253.844C173.029 253.844 171.176 253.844 169.331 253.844C167.486 253.844 165.656 253.844 163.812 253.844C161.044 253.844 158.264 253.844 155.498 253.844Z" fill="#777777" fill-rule="nonzero" opacity="1" stroke="none" vectornator:layerName="path"/>
<path d="M745.638 747.782L733.365 747.782" fill="#d5d5d5" fill-rule="nonzero" opacity="1" stroke="none" vectornator:layerName="path"/>
<path d="M726.1 751.628C721.797 751.69 717.494 751.751 713.191 751.813C708.587 751.813 704.853 755.451 704.853 759.936C704.853 764.422 708.587 768.06 713.191 768.06C717.494 768.122 721.797 768.183 726.1 768.245C730.809 768.245 734.627 764.524 734.627 759.936C734.627 755.349 730.809 751.629 726.1 751.628Z" fill="#777777" fill-rule="nonzero" opacity="1" stroke="none" vectornator:layerName="path"/>
<path d="M251.435 914.405L251.435 914.532C251.435 949.367 279.148 977.608 313.334 977.608L313.458 977.608C347.644 977.608 375.357 949.367 375.357 914.532L375.357 914.405C375.357 879.57 347.644 851.329 313.458 851.329L313.334 851.329C279.148 851.329 251.435 879.57 251.435 914.405Z" fill="#fff7f2" fill-rule="nonzero" opacity="1" stroke="#777777" stroke-linecap="butt" stroke-linejoin="round" stroke-width="17.1526" vectornator:layerName="Curva 9"/>
<path d="M672.666 914.405L672.666 914.532C672.666 949.367 700.379 977.608 734.564 977.608L734.688 977.608C768.874 977.608 796.589 949.367 796.589 914.532L796.589 914.405C796.589 879.57 768.874 851.329 734.688 851.329L734.564 851.329C700.379 851.329 672.666 879.57 672.666 914.405Z" fill="#fff7f2" fill-rule="nonzero" opacity="1" stroke="#777777" stroke-linecap="butt" stroke-linejoin="round" stroke-width="17.1526" vectornator:layerName="Curva 10"/>
<path d="M831.539 654.144C828.06 654.123 824.733 656.094 823.278 659.405C821.14 664.235 819.01 669.069 816.88 673.899C816.539 674.669 816.198 675.437 815.857 676.206C813.037 676.202 810.225 676.189 807.406 676.183C798.158 676.167 788.911 676.154 779.664 676.138C752.255 676.089 724.861 676.048 697.45 675.999C575.694 675.784 453.933 675.568 332.177 675.353C327.132 675.346 323.041 679.323 323.034 684.238C323.027 689.153 327.109 693.14 332.154 693.146C458.372 693.273 584.591 693.412 710.809 693.539C738.858 693.567 766.896 693.58 794.944 693.608C801.637 693.615 808.338 693.624 815.031 693.631C816.623 693.632 818.222 693.629 819.814 693.631C820.92 693.632 822.019 693.673 823.111 693.47C824.513 693.207 825.862 692.639 827.014 691.808C827.878 691.19 828.621 690.451 829.22 689.593C829.917 688.6 830.365 687.393 830.857 686.292C831.358 685.142 831.888 684.004 832.396 682.853C834.829 677.332 837.255 671.805 839.688 666.283C841.636 661.868 839.551 656.757 835.026 654.859C833.889 654.384 832.699 654.151 831.539 654.144Z" fill="#777777" fill-rule="nonzero" opacity="1" stroke="none" vectornator:layerName="path"/>
<g opacity="1" vectornator:layerName="Óvalo 12">
<path d="M677.898 61.4874C720.603 26.3248 776.456 7.02059 835.96 11.6897C957.886 21.2569 1048.97 127.853 1039.4 249.778C1029.84 371.703 923.24 462.788 801.314 453.221C679.389 443.654 588.305 337.058 597.872 215.132C601.323 171.149 617.401 131.18 642.27 98.5006" fill="#ffa766" fill-rule="nonzero" stroke="none"/>
<path d="M821.281 1.71875C798.837 1.43584 776.351 4.47848 754.781 10.6875C732.675 17.0508 711.548 26.7615 692.312 39.375C685.293 43.9777 678.578 48.9944 672.062 54.2812C668.086 57.5073 667.461 63.3671 670.688 67.3438C673.914 71.3204 679.773 71.9136 683.75 68.6875C689.781 63.796 695.972 59.1647 702.469 54.9062C720.154 43.3136 739.614 34.3465 759.938 28.5C779.767 22.7956 800.431 20.0491 821.062 20.3125C844.829 20.6159 868.518 24.8578 890.875 32.9375C947.577 53.4291 993.559 98.1273 1015.78 154.156C1025.24 178.005 1030.29 203.472 1030.66 229.125C1031.04 255.933 1026.34 282.849 1016.78 307.906C1006.61 334.592 990.984 359.103 971.125 379.625C950.641 400.793 925.731 417.659 898.438 428.75C873.068 439.059 845.757 444.329 818.375 444.25C791.615 444.173 764.885 439.063 740.031 429.125C717.776 420.226 697.099 407.505 679.094 391.688C662.119 376.775 647.514 359.137 636.062 339.656C626.237 322.941 618.728 304.881 613.812 286.125C602.188 241.77 605.486 193.824 623.031 151.469C629.994 134.661 639.16 118.9 650.094 104.375C653.346 100.053 652.478 93.9395 648.156 90.6875C643.834 87.4355 637.689 88.3032 634.438 92.625C621.969 109.2 611.607 127.226 603.906 146.5C584.713 194.537 582.223 248.747 596.969 298.344C602.639 317.414 610.787 335.74 621.156 352.719C634.014 373.773 650.232 392.775 669.031 408.75C688.998 425.717 711.881 439.226 736.375 448.531C763.089 458.68 791.71 463.757 820.281 463.562C850.13 463.36 879.863 457.319 907.406 445.812C936.471 433.671 962.971 415.54 984.844 392.875C1006.9 370.02 1024.13 342.635 1035.16 312.844C1045.53 284.814 1050.35 254.833 1049.41 224.969C1048.53 197.122 1042.52 169.488 1031.78 143.781C1022.03 120.431 1008.4 98.724 991.656 79.75C966.16 50.8581 933.443 28.5145 897.188 15.4375C872.881 6.67054 847.113 2.04438 821.281 1.71875Z" fill="#777777" stroke="none"/>
</g>
<path d="M818.344 275.134C825.952 275.134 829.43 269.917 829.43 262.961L829.43 259.266C829.647 244.919 834.755 238.941 852.148 226.986C870.841 214.378 882.687 199.814 882.687 178.837C882.687 146.232 856.164 127.537 823.126 127.537C798.563 127.537 777.043 139.167 767.805 160.143C765.522 165.252 764.544 170.252 764.544 174.381C764.544 180.576 768.131 184.924 774.761 184.924C780.304 184.924 783.999 181.663 785.63 176.338C791.172 155.687 804.867 147.862 822.366 147.862C843.562 147.862 860.188 159.817 860.188 178.729C860.188 194.271 850.518 202.966 836.604 212.748C819.54 224.595 807.041 237.311 807.041 256.44L807.041 263.287C807.041 270.243 810.845 275.134 818.344 275.134ZM819.273 337.373C827.968 337.373 834.816 330.417 834.816 321.94C834.816 313.353 827.968 306.506 819.273 306.506C810.796 306.506 803.84 313.353 803.84 321.94C803.84 330.417 810.796 337.373 819.273 337.373Z" fill="#ffffff" fill-rule="nonzero" opacity="1" stroke="#ffffff" stroke-linecap="round" stroke-linejoin="round" stroke-width="10.2683" vectornator:layerName="Curva 11"/>
</g>
</svg>
