<?xml version="1.0" encoding="UTF-8" standalone="no"?>
<!DOCTYPE svg PUBLIC "-//W3C//DTD SVG 1.1//EN" "http://www.w3.org/Graphics/SVG/1.1/DTD/svg11.dtd">
<!-- Created with Vectornator (http://vectornator.io/) -->
<svg height="100%" stroke-miterlimit="10" style="fill-rule:nonzero;clip-rule:evenodd;stroke-linecap:round;stroke-linejoin:round;" version="1.1" viewBox="0 0 689.552 668.337" width="100%" xml:space="preserve" xmlns="http://www.w3.org/2000/svg" xmlns:vectornator="http://vectornator.io" xmlns:xlink="http://www.w3.org/1999/xlink">
<defs/>
<clipPath id="ArtboardFrame">
<rect height="668.337" width="689.552" x="0" y="0"/>
</clipPath>
<g clip-path="url(#ArtboardFrame)" id="Capa-2" vectornator:layerName="Capa 2" visibility="hidden">
<path d="M-9.09495e-13 0L2746 0L2746 1113L735.623 1113L-9.09495e-13 1113L-9.09495e-13 0Z" fill="#454545" fill-rule="nonzero" opacity="1" stroke="#084444" stroke-linecap="butt" stroke-linejoin="round" stroke-width="0.745627" vectornator:layerName="Rectángulo 1"/>
</g>
<g clip-path="url(#ArtboardFrame)" id="Capa-4" vectornator:layerName="Capa 4">
<path d="M44.9813 249.575C44.9813 228.477 62.0838 211.375 83.1808 211.375L602.541 211.375C623.638 211.375 640.74 228.477 640.74 249.575L640.74 588.942C640.74 610.039 623.638 627.141 602.541 627.141L83.1808 627.141C62.0838 627.141 44.9813 610.039 44.9813 588.942L44.9813 249.575Z" fill="#f9f9f9" fill-rule="nonzero" opacity="0.999523" stroke="#777777" stroke-linecap="butt" stroke-linejoin="round" stroke-width="11.7273" vectornator:layerName="Rectángulo 1"/>
<g opacity="1" vectornator:layerName="Curva 1">
<path d="M321.113 534.458C321.214 544.527 321.289 551.4 321.289 551.4L120.513 551.238C114.385 551.233 109.411 546.282 109.377 540.155L108.92 457.687C109.221 435.15 137.288 399.301 171.297 416.265C202.617 431.887 228.767 430.846 257.537 416.399C288.465 400.869 320.747 432.609 320.598 459.743C320.545 469.499 320.731 474.144 320.924 495.224" fill="#d5d5d5" fill-rule="nonzero" opacity="1" stroke="none" vectornator:layerName="path"/>
<path d="M153.968 405.707C142.688 405.596 131.976 410.252 123.489 417.516C117.58 422.572 112.691 428.809 109.054 435.677C106.426 440.638 104.401 445.973 103.435 451.516C103.134 453.243 102.928 454.997 102.864 456.749C102.806 458.36 102.854 459.983 102.864 461.595C102.878 463.743 102.891 465.881 102.905 468.028C102.958 476.189 103.015 484.361 103.068 492.521C103.137 503.259 103.222 513.993 103.292 524.731C103.317 528.597 103.328 532.45 103.353 536.316C103.364 537.983 103.31 539.681 103.435 541.345C103.968 548.494 109.052 554.722 115.976 556.614C118.244 557.234 120.53 557.226 122.858 557.225C125.472 557.225 128.082 557.205 130.697 557.205C139.323 557.203 147.967 557.202 156.594 557.205C197.639 557.217 238.667 557.237 279.711 557.266C290.168 557.273 300.628 557.279 311.085 557.286C312.392 557.287 313.708 557.286 315.015 557.286C315.799 557.287 316.572 557.286 317.356 557.286C319.762 557.288 322.461 557.629 324.543 556.146C324.988 555.829 325.374 555.466 325.724 555.047C327.597 552.805 327.177 549.805 327.149 547.106C327.138 546.048 327.12 544.989 327.109 543.93C327.094 542.518 327.083 541.107 327.068 539.695C327.049 537.931 327.025 536.167 327.006 534.402C326.973 531.146 324.317 528.525 321.061 528.558C317.806 528.592 315.185 531.269 315.219 534.524C315.24 536.642 315.258 538.758 315.279 540.876C315.294 542.288 315.305 543.699 315.32 545.111C315.322 545.24 315.319 545.369 315.32 545.498C315.219 545.498 315.116 545.498 315.015 545.498C311.354 545.494 307.701 545.481 304.04 545.477C293.322 545.468 282.611 545.467 271.893 545.457C239.214 545.427 206.518 545.375 173.839 545.335C158.938 545.317 144.05 545.3 129.149 545.274C128.104 545.272 127.059 545.276 126.014 545.274C124.707 545.272 123.391 545.256 122.084 545.254C121.218 545.252 120.332 545.328 119.478 545.152C117.84 544.813 116.427 543.657 115.772 542.118C115.554 541.604 115.421 541.048 115.386 540.489C115.325 539.515 115.37 538.513 115.366 537.537C115.359 536.249 115.351 534.957 115.345 533.669C115.327 529.803 115.302 525.95 115.284 522.084C115.231 510.487 115.174 498.886 115.121 487.289C115.09 480.417 115.071 473.537 115.04 466.664C115.03 464.517 115.009 462.378 114.999 460.231C114.989 457.993 115.017 455.822 115.406 453.614C116.162 449.328 117.769 445.229 119.804 441.398C122.603 436.129 126.344 431.303 130.818 427.35C137.384 421.548 145.767 417.652 154.66 418.004C157.23 418.106 159.767 418.544 162.234 419.266C165.52 420.228 168.517 421.784 171.599 423.237C174.559 424.631 177.563 425.936 180.619 427.105C189.942 430.67 199.753 433.046 209.733 433.641C222.53 434.402 235.272 432.108 247.257 427.655C250.415 426.481 253.528 425.168 256.582 423.746C258.655 422.78 260.652 421.677 262.771 420.814C265.593 419.664 268.591 418.915 271.628 418.636C287.651 417.158 302.464 428.7 309.681 442.253C311.406 445.494 312.759 448.97 313.569 452.555C313.998 454.451 314.278 456.375 314.363 458.317C314.434 459.945 314.363 461.574 314.363 463.203C314.363 465.017 314.388 466.826 314.404 468.639C314.482 477.518 314.609 486.412 314.689 495.29C314.721 498.729 317.541 501.492 320.98 501.46C324.419 501.428 327.181 498.607 327.149 495.168C327.065 486.291 326.926 477.415 326.844 468.538C326.824 466.392 326.8 464.249 326.803 462.103C326.806 460.325 326.842 458.545 326.722 456.77C326.563 454.423 326.202 452.099 325.683 449.807C324.55 444.805 322.633 439.993 320.145 435.514C310.584 418.3 291.897 404.844 271.587 406.196C267.356 406.477 263.174 407.405 259.208 408.903C256.495 409.928 253.953 411.304 251.329 412.528C248.576 413.812 245.788 414.99 242.941 416.05C232.043 420.105 220.445 422.132 208.817 421.201C200.013 420.496 191.406 418.167 183.225 414.889C180.754 413.899 178.316 412.823 175.916 411.672C174.104 410.804 172.322 409.887 170.459 409.127C168.141 408.182 165.752 407.416 163.313 406.847C160.255 406.134 157.108 405.737 153.968 405.707Z" fill="#777777" fill-rule="nonzero" opacity="1" stroke="none" vectornator:layerName="path"/>
</g>
<path d="M147.812 333.562C147.812 296.826 177.939 267.045 215.105 267.045C252.27 267.045 282.398 296.826 282.398 333.562C282.398 370.298 252.27 400.079 215.105 400.079C177.939 400.079 147.812 370.298 147.812 333.562Z" fill="#d5d5d5" fill-rule="nonzero" opacity="1" stroke="#777777" stroke-linecap="butt" stroke-linejoin="round" stroke-width="11.7273" vectornator:layerName="Óvalo 1"/>
<path d="M380.774 291.719C380.774 286.081 385.345 281.51 390.983 281.51L566.088 281.51C571.727 281.51 576.298 286.081 576.298 291.719L576.298 306.334C576.298 311.972 571.727 316.544 566.088 316.544L390.983 316.544C385.345 316.544 380.774 311.972 380.774 306.334L380.774 291.719Z" fill="#d5d5d5" fill-rule="nonzero" opacity="0.999523" stroke="#777777" stroke-linecap="butt" stroke-linejoin="round" stroke-width="10.75" vectornator:layerName="Rectángulo 2"/>
<path d="M380.774 360.946C380.774 355.307 385.345 350.736 390.983 350.736L468.326 350.736C473.965 350.736 478.536 355.307 478.536 360.946L478.536 375.561C478.536 381.199 473.965 385.77 468.326 385.77L390.983 385.77C385.345 385.77 380.774 381.199 380.774 375.561L380.774 360.946Z" fill="#d5d5d5" fill-rule="nonzero" opacity="0.999523" stroke="#777777" stroke-linecap="butt" stroke-linejoin="round" stroke-width="10.75" vectornator:layerName="Rectángulo 3"/>
<path d="M380.774 429.468C380.774 423.829 385.345 419.258 390.983 419.258L541.852 419.258C547.49 419.258 552.061 423.829 552.061 429.468L552.061 444.083C552.061 449.721 547.49 454.292 541.852 454.292L390.983 454.292C385.345 454.292 380.774 449.721 380.774 444.083L380.774 429.468Z" fill="#d5d5d5" fill-rule="nonzero" opacity="0.999523" stroke="#777777" stroke-linecap="butt" stroke-linejoin="round" stroke-width="10.75" vectornator:layerName="Rectángulo 4"/>
<path d="M396.117 138.523C402.336 59.2622 471.632 0.0498308 550.894 6.26924C630.156 12.4887 689.368 81.7849 683.146 161.046C676.932 240.307 607.633 299.52 528.371 293.301C449.11 287.082 389.898 217.785 396.117 138.523Z" fill="#ffffff" fill-rule="nonzero" opacity="1" stroke="#8e8e8e" stroke-linecap="butt" stroke-linejoin="round" stroke-width="12.6401" vectornator:layerName="Óvalo 2"/>
<path d="M542.448 30.3209C534.959 30.1465 527.454 30.6595 520.061 31.8851C506.613 34.1147 493.575 38.6804 481.666 45.3134C470.744 51.3959 460.78 59.2138 452.25 68.351C444.304 76.8612 437.614 86.5435 432.483 96.9949C420.092 122.23 417.011 151.598 423.849 178.865C427.276 192.532 433.185 205.39 441.056 217.057C442.725 219.532 446.077 220.169 448.552 218.499C451.027 216.83 451.685 213.479 450.015 211.003C442.514 199.881 437.036 187.716 433.966 174.639C428.249 150.288 431.191 124.235 442.234 101.789C446.903 92.2994 452.99 83.4901 460.213 75.7658C467.977 67.4623 477.03 60.3623 486.968 54.8411C498.045 48.6871 510.206 44.5479 522.722 42.5912C536.168 40.4892 549.991 40.9409 563.271 43.9117C576.988 46.9801 590.087 52.7359 601.606 60.7935C611.613 67.7939 620.413 76.5206 627.548 86.4311C633.834 95.163 638.824 104.815 642.256 115.015C650.426 139.292 649.647 166.193 640.143 189.977C636.426 199.282 631.393 208.063 625.253 215.98C617.302 226.231 607.497 235.038 596.466 241.862C585.056 248.92 572.329 253.804 559.127 256.204C548.641 258.11 537.862 258.478 527.273 257.26C522.306 256.69 517.416 255.736 512.565 254.538C509.503 253.783 506.413 255.641 505.658 258.703C504.902 261.765 506.781 264.875 509.842 265.63C515.165 266.942 520.523 267.972 525.973 268.596C537.674 269.937 549.592 269.529 561.179 267.418C576.177 264.686 590.64 259.045 603.515 250.882C615.826 243.076 626.711 233.032 635.451 221.363C643.624 210.452 649.882 198.129 653.897 185.101C660.875 162.45 660.972 137.806 654.1 115.116C650.477 103.15 644.94 91.7689 637.787 81.5151C629.699 69.9196 619.564 59.7572 607.964 51.672C594.981 42.6226 580.206 36.2536 564.734 32.9415C557.406 31.3729 549.937 30.4952 542.448 30.3209Z" fill="#9a9a9a" fill-rule="nonzero" opacity="1" stroke="none" vectornator:layerName="path 1"/>
<path d="M539.734 175.167C544.258 175.167 546.327 172.065 546.327 167.928L546.327 165.73C546.456 157.198 549.494 153.642 559.838 146.532C570.955 139.034 578.001 130.372 578.001 117.896C578.001 98.505 562.227 87.3867 542.578 87.3867C527.969 87.3867 515.171 94.3036 509.677 106.779C508.319 109.817 507.737 112.791 507.737 115.247C507.737 118.931 509.87 121.517 513.813 121.517C517.11 121.517 519.308 119.577 520.277 116.41C523.573 104.128 531.719 99.4743 542.125 99.4743C554.731 99.4743 564.62 106.585 564.62 117.832C564.62 127.076 558.869 132.247 550.593 138.064C540.445 145.11 533.011 152.673 533.011 164.05L533.011 168.122C533.011 172.259 535.274 175.167 539.734 175.167ZM540.286 212.183C545.457 212.183 549.53 208.046 549.53 203.004C549.53 197.898 545.457 193.825 540.286 193.825C535.245 193.825 531.107 197.898 531.107 203.004C531.107 208.046 535.245 212.183 540.286 212.183Z" fill="#848484" fill-rule="nonzero" opacity="1" stroke="#848484" stroke-linecap="round" stroke-linejoin="round" stroke-width="6.10693" vectornator:layerName="Curva 2"/>
</g>
</svg>
