<?xml version="1.0" encoding="UTF-8" standalone="no"?>
<!DOCTYPE svg PUBLIC "-//W3C//DTD SVG 1.1//EN" "http://www.w3.org/Graphics/SVG/1.1/DTD/svg11.dtd">
<!-- Created with Vectornator (http://vectornator.io/) -->
<svg height="100%" stroke-miterlimit="10" style="fill-rule:nonzero;clip-rule:evenodd;stroke-linecap:round;stroke-linejoin:round;" version="1.1" viewBox="0 0 689.552 661.969" width="100%" xml:space="preserve" xmlns="http://www.w3.org/2000/svg" xmlns:vectornator="http://vectornator.io" xmlns:xlink="http://www.w3.org/1999/xlink">
<defs/>
<clipPath id="ArtboardFrame">
<rect height="661.969" width="689.552" x="0" y="0"/>
</clipPath>
<g clip-path="url(#ArtboardFrame)" id="Capa-2" vectornator:layerName="Capa 2" visibility="hidden">
<path d="M-9.09495e-13 0L2746 0L2746 1113L735.623 1113L-9.09495e-13 1113L-9.09495e-13 0Z" fill="#454545" fill-rule="nonzero" opacity="1" stroke="#084444" stroke-linecap="butt" stroke-linejoin="round" stroke-width="0.745627" vectornator:layerName="Rectángulo 1"/>
</g>
<g clip-path="url(#ArtboardFrame)" id="Capa-4" vectornator:layerName="Capa 4">
<path d="M148.068 219.669L593.544 219.669C618.928 219.669 631.146 238.83 620.838 262.469L541.215 445.022L221.784 445.022" fill="#f0fff7" fill-rule="nonzero" opacity="1" stroke="none" vectornator:layerName="Curva 4"/>
<path d="M587.471 213.957C565.508 213.985 543.535 214.02 521.567 214.048C416.284 214.181 311 214.306 205.715 214.439C202.43 214.444 199.771 217.054 199.776 220.255C199.781 223.457 202.46 226.048 205.746 226.043C309.264 225.868 412.775 225.692 516.295 225.517C539.774 225.477 563.252 225.436 586.731 225.397C590.957 225.389 595.242 225.168 599.428 225.803C606.527 226.877 613.177 230.281 616.474 236.745C619.481 242.631 619.036 249.589 617.141 255.729C616.163 258.888 614.727 261.895 613.404 264.928C610.911 270.659 608.423 276.393 605.925 282.123C589.738 319.286 573.545 356.447 557.358 393.608C556.104 396.49 557.486 399.811 560.443 401.034C563.401 402.257 566.811 400.924 568.065 398.043C584.801 359.672 601.531 321.29 618.266 282.92C620.157 278.58 622.048 274.244 623.944 269.903C625.508 266.315 627.182 262.76 628.342 259.021C630.47 252.138 631.107 244.706 629.251 237.692C628.703 235.615 627.947 233.586 626.965 231.664C624.008 225.857 619.105 221.188 613.207 218.227C609.948 216.591 606.448 215.479 602.854 214.8C600.652 214.383 598.416 214.126 596.175 214.018C593.282 213.878 590.37 213.954 587.471 213.957Z" fill="#777777" fill-rule="nonzero" opacity="1" stroke="none" vectornator:layerName="path"/>
<path d="M151.762 219.669L164.328 219.669" fill="#f8f7f5" fill-rule="nonzero" opacity="1" stroke="none" vectornator:layerName="path"/>
<path d="M151.767 213.868C148.481 213.868 145.812 216.468 145.812 219.67C145.812 222.871 148.481 225.472 151.767 225.472C155.956 225.429 160.135 225.379 164.325 225.336C167.537 225.336 170.14 222.799 170.14 219.67C170.14 216.54 167.537 214.003 164.325 214.003C160.135 213.96 155.956 213.91 151.767 213.868Z" fill="#777777" fill-rule="nonzero" opacity="1" stroke="none" vectornator:layerName="path"/>
<path d="M430.992 495.1L189.072 495.1C179.996 495.1 177.842 489.799 184.259 483.26L222.371 445.022L148.068 219.669L123.497 169.59L65.8294 169.59C56.9662 169.59 49.781 176.912 49.781 185.945L49.781 203.315C49.781 212.347 56.9662 219.669 65.8294 219.669L82.8759 219.669C91.7394 219.669 101.197 226.615 103.999 235.183L172.64 445.022L134.845 483.537C128.577 489.923 123.497 502.422 123.497 511.454L123.497 528.824C123.497 537.857 130.682 545.178 139.545 545.178L549.74 545.178C558.602 545.178 565.79 537.857 565.79 528.824L565.79 511.454C565.79 502.422 558.602 495.1 549.74 495.1L514.088 495.1" fill="#55da90" fill-rule="nonzero" opacity="1" stroke="none" vectornator:layerName="path"/>
<path d="M107.275 164.22C96.4626 164.221 85.6602 164.234 74.848 164.235C72.4448 164.236 70.0305 164.235 67.6274 164.235C66.0368 164.235 64.4551 164.213 62.876 164.43C56.9798 165.244 51.6723 168.57 48.2974 173.329C46.394 176.013 45.1173 179.098 44.5796 182.317C44.2287 184.419 44.2863 186.54 44.2864 188.66C44.2867 191.374 44.2862 194.093 44.2864 196.807C44.2866 198.436 44.2863 200.064 44.2864 201.692C44.2865 202.724 44.264 203.758 44.3327 204.789C44.4283 206.221 44.6671 207.639 45.0424 209.027C45.8873 212.154 47.4263 215.091 49.5625 217.565C52.9239 221.458 57.6951 224.111 62.876 224.825C65.0815 225.129 67.3346 225.021 69.5561 225.02C72.7522 225.02 75.9552 225.021 79.1518 225.02C81.4346 225.02 83.7513 224.863 85.9858 225.411C88.9219 226.131 91.6235 227.689 93.8542 229.665C95.5351 231.156 96.9836 232.934 97.9879 234.926C98.5578 236.056 98.9082 237.247 99.2996 238.444C99.7464 239.809 100.195 241.181 100.642 242.547C102.34 247.738 104.034 252.928 105.732 258.119C112.884 279.977 120.04 301.842 127.191 323.699C136.131 351.021 145.08 378.342 154.019 405.664C156.969 414.68 159.909 423.688 162.859 432.704C163.842 435.71 164.823 438.718 165.805 441.723C166.014 442.36 166.23 442.995 166.438 443.632C166.008 444.07 165.572 444.502 165.142 444.939C163.174 446.945 161.202 448.961 159.234 450.967C153.132 457.186 147.024 463.402 140.921 469.621C138.363 472.229 135.813 474.829 133.254 477.437C132.145 478.567 130.993 479.685 129.937 480.864C128.996 481.915 128.127 483.021 127.315 484.171C125.183 487.188 123.448 490.464 122.023 493.85C120.217 498.143 118.894 502.649 118.306 507.258C117.99 509.734 118.028 512.224 118.028 514.713C118.028 517.428 118.028 520.146 118.028 522.86C118.028 524.308 118.028 525.742 118.028 527.189C118.028 529.192 118.063 531.168 118.459 533.142C119.828 539.954 124.535 545.94 131.079 548.759C133.058 549.611 135.176 550.175 137.327 550.397C138.598 550.528 139.877 550.503 141.153 550.503C142.488 550.503 143.813 550.503 145.149 550.503C150.757 550.502 156.371 550.503 161.98 550.503C183.611 550.501 205.234 550.504 226.866 550.503C302.976 550.497 379.091 550.493 455.202 550.488C479.237 550.486 503.273 550.474 527.308 550.473C533.183 550.472 539.053 550.473 544.927 550.473C547.258 550.472 549.642 550.608 551.962 550.367C554.579 550.096 557.126 549.336 559.456 548.142C565.573 545.014 569.813 539.052 570.919 532.435C571.27 530.338 571.23 528.224 571.23 526.107C571.23 523.755 571.23 521.41 571.23 519.058C571.23 517.067 571.23 515.066 571.23 513.075C571.23 511.317 571.21 509.585 570.919 507.844C569.932 501.919 566.436 496.501 561.277 493.189C558.696 491.532 555.734 490.425 552.668 490.003C551.137 489.792 549.617 489.807 548.072 489.807C546.216 489.807 544.359 489.807 542.503 489.807C533.035 489.808 523.556 489.807 514.088 489.807C511.087 489.807 508.657 492.177 508.657 495.098C508.657 498.019 511.087 500.389 514.088 500.389C523.927 500.389 533.771 500.388 543.614 500.389C545.1 500.389 546.586 500.389 548.072 500.389C549.217 500.389 550.368 500.342 551.498 500.539C554.509 501.064 557.101 502.95 558.671 505.485C559.574 506.943 560.123 508.6 560.29 510.294C560.418 511.576 560.355 512.887 560.355 514.173C560.355 516.706 560.355 519.23 560.355 521.763C560.355 523.572 560.355 525.38 560.355 527.189C560.355 528.372 560.394 529.566 560.196 530.737C559.708 533.65 558.054 536.346 555.571 538.057C554.164 539.026 552.52 539.653 550.802 539.83C549.657 539.949 548.482 539.876 547.331 539.876C546.265 539.876 545.209 539.876 544.137 539.876C538.53 539.875 532.917 539.876 527.308 539.876C503.54 539.874 479.772 539.878 456.004 539.876C380.161 539.87 304.314 539.866 228.47 539.861C206.839 539.859 185.215 539.847 163.584 539.846C157.441 539.845 151.291 539.846 145.149 539.846C143.813 539.846 142.488 539.846 141.153 539.846C140.384 539.846 139.607 539.884 138.839 539.83C137.692 539.751 136.558 539.472 135.506 539.018C132.079 537.541 129.718 534.291 129.12 530.722C128.954 529.73 128.966 528.748 128.966 527.746C128.966 526.659 128.966 525.569 128.966 524.484C128.966 521.588 128.966 518.691 128.966 515.796C128.966 513.398 128.842 510.966 129.151 508.581C129.852 503.155 131.801 497.819 134.535 493.054C135.428 491.498 136.427 489.98 137.574 488.589C138.5 487.467 139.546 486.458 140.566 485.418C142.142 483.813 143.728 482.213 145.303 480.608C151.012 474.792 156.718 468.974 162.427 463.157C165.971 459.547 169.513 455.93 173.056 452.32C173.646 451.718 174.24 451.118 174.83 450.516C176.058 449.265 177.355 448.12 177.823 446.368C178.396 444.223 177.447 442.14 176.79 440.13C176.521 439.31 176.255 438.484 175.987 437.664C175.63 436.572 175.265 435.481 174.907 434.388C172.316 426.464 169.724 418.533 167.132 410.608C157.124 380.007 147.119 349.416 137.111 318.814C130.409 298.322 123.712 277.814 117.01 257.323C115.044 251.311 113.082 245.311 111.116 239.3C110.669 237.934 110.221 236.563 109.774 235.197C109.37 233.959 108.98 232.712 108.463 231.514C107.702 229.751 106.726 228.085 105.594 226.524C101.431 220.786 95.02 216.38 87.9449 214.86C85.7318 214.383 83.537 214.319 81.2809 214.318C77.5516 214.318 73.8249 214.319 70.0957 214.318C69.0303 214.318 67.968 214.319 66.9027 214.318C65.9597 214.318 65.0113 214.331 64.0794 214.168C60.9719 213.627 58.2965 211.619 56.767 208.952C55.9762 207.574 55.4886 206.045 55.3322 204.473C55.2049 203.193 55.2858 201.879 55.286 200.595C55.2862 197.881 55.2858 195.177 55.286 192.463C55.286 191.015 55.2858 189.567 55.286 188.119C55.286 186.887 55.2164 185.632 55.3785 184.407C55.6148 182.62 56.2873 180.899 57.3378 179.417C57.8702 178.665 58.5103 177.984 59.2198 177.387C60.6879 176.153 62.4943 175.306 64.4188 175.042C65.7741 174.857 67.1747 174.952 68.5377 174.952C70.0394 174.953 71.5408 174.952 73.0426 174.952C82.9541 174.953 92.859 174.951 102.77 174.952C107.275 174.953 111.779 174.952 116.285 174.952C117.529 174.953 118.773 174.952 120.018 174.952C120.543 176.022 121.067 177.099 121.592 178.169C123.383 181.82 125.184 185.475 126.975 189.127C130.559 196.43 134.145 203.724 137.728 211.027C138.88 213.374 140.032 215.728 141.184 218.076C141.567 218.859 141.941 219.639 142.326 220.421C142.526 220.831 142.772 221.217 142.942 221.639C143.13 222.104 143.248 222.591 143.405 223.066C143.695 223.947 143.979 224.832 144.269 225.712C145.043 228.059 145.825 230.414 146.599 232.762C149.114 240.391 151.627 248.009 154.143 255.639C161.687 278.527 169.229 301.413 176.774 324.301C185.77 351.59 194.761 378.885 203.756 406.175C206.754 415.271 209.752 424.375 212.75 433.471C213.717 436.406 214.683 439.33 215.65 442.264C215.796 442.705 215.953 443.146 216.097 443.587C216.072 443.612 216.046 443.636 216.02 443.662C215.028 444.657 214.036 445.642 213.043 446.638C209.867 449.824 206.686 453.012 203.509 456.198C198.149 461.575 192.794 466.964 187.434 472.341C185.648 474.133 183.867 475.915 182.081 477.707C180.834 478.958 179.552 480.188 178.456 481.57C175.756 484.973 173.99 489.381 175.71 493.61C175.97 494.25 176.299 494.86 176.697 495.429C177.214 496.167 177.847 496.838 178.548 497.413C180.906 499.345 183.982 500.18 187.002 500.419C188.942 500.572 190.904 500.494 192.849 500.494C193.794 500.494 194.743 500.494 195.688 500.494C210.493 500.495 225.297 500.493 240.103 500.494C303.732 500.499 367.366 500.505 430.997 500.509C434.063 500.509 436.55 498.086 436.55 495.098C436.55 492.11 434.063 489.687 430.997 489.687C368.312 489.691 305.626 489.697 242.941 489.702C228.451 489.703 213.958 489.7 199.467 489.702C196.317 489.702 193.16 489.702 190.011 489.702C188.988 489.702 187.967 489.725 186.956 489.551C186.763 489.518 186.574 489.466 186.385 489.416C186.519 489.162 186.667 488.917 186.832 488.68C187.41 487.853 188.11 487.14 188.822 486.425C191.205 484.035 193.584 481.645 195.965 479.256C202.714 472.483 209.472 465.705 216.221 458.933C218.603 456.544 220.983 454.154 223.364 451.764C223.959 451.166 224.558 450.573 225.153 449.975C226.126 448.998 227.052 448.062 227.498 446.714C227.77 445.891 227.86 445.016 227.761 444.158C227.632 443.046 227.101 441.771 226.758 440.731C226.661 440.437 226.577 440.152 226.48 439.859C225.512 436.925 224.532 433.985 223.565 431.051C219.597 419.02 215.638 406.992 211.67 394.962C197.832 353.002 183.994 311.036 170.156 269.077C166.382 257.633 162.606 246.189 158.832 234.745C157.574 230.931 156.311 227.121 155.053 223.307C154.666 222.133 154.283 220.963 153.896 219.79C153.665 219.092 153.463 218.382 153.186 217.7C152.706 216.519 152.068 215.375 151.505 214.228C150.353 211.881 149.201 209.526 148.049 207.179C144.849 200.659 141.653 194.144 138.453 187.624C136.149 182.929 133.846 178.234 131.542 173.539C130.902 172.235 130.253 170.92 129.614 169.616C129.227 168.828 128.848 167.932 128.379 167.166C128.08 166.678 127.725 166.232 127.299 165.844C126.394 165.017 125.238 164.48 124.014 164.295C123.269 164.183 122.453 164.22 121.7 164.22C121.099 164.22 120.495 164.22 119.895 164.22C118.693 164.22 117.486 164.22 116.285 164.22C115.083 164.22 113.891 164.22 112.69 164.22C110.887 164.22 109.077 164.22 107.275 164.22Z" fill="#777777" fill-rule="nonzero" opacity="1" stroke="none" vectornator:layerName="path"/>
<path d="M491.631 485.92L483.638 485.92" fill="#d5d5d5" fill-rule="nonzero" opacity="1" stroke="none" vectornator:layerName="path"/>
<path d="M478.906 488.425C476.104 488.465 473.301 488.505 470.499 488.545C467.5 488.545 465.068 490.914 465.068 493.835C465.068 496.757 467.5 499.127 470.499 499.127C473.301 499.167 476.104 499.207 478.906 499.247C481.973 499.247 484.46 496.824 484.46 493.835C484.46 490.848 481.973 488.425 478.906 488.425Z" fill="#777777" fill-rule="nonzero" opacity="1" stroke="none" vectornator:layerName="path"/>
<path d="M169.759 594.44L169.759 594.523C169.759 617.211 187.808 635.604 210.073 635.604L210.154 635.604C232.419 635.604 250.469 617.211 250.469 594.523L250.469 594.44C250.469 571.753 232.419 553.359 210.154 553.359L210.073 553.359C187.808 553.359 169.759 571.753 169.759 594.44Z" fill="#f0fff7" fill-rule="nonzero" opacity="1" stroke="#777777" stroke-linecap="butt" stroke-linejoin="round" stroke-width="11.1714" vectornator:layerName="Curva 9"/>
<path d="M444.105 594.44L444.105 594.523C444.105 617.211 462.154 635.604 484.419 635.604L484.499 635.604C506.765 635.604 524.815 617.211 524.815 594.523L524.815 594.44C524.815 571.753 506.765 553.359 484.499 553.359L484.419 553.359C462.154 553.359 444.105 571.753 444.105 594.44Z" fill="#f0fff7" fill-rule="nonzero" opacity="1" stroke="#777777" stroke-linecap="butt" stroke-linejoin="round" stroke-width="11.1714" vectornator:layerName="Curva 10"/>
<path d="M547.578 424.934C545.312 424.92 543.145 426.204 542.198 428.36C540.805 431.506 539.418 434.654 538.031 437.8C537.809 438.301 537.587 438.802 537.364 439.302C535.528 439.3 533.696 439.291 531.86 439.288C525.837 439.277 519.815 439.269 513.792 439.258C495.941 439.226 478.099 439.2 460.246 439.168C380.947 439.028 301.645 438.887 222.346 438.747C219.06 438.742 216.395 441.333 216.391 444.534C216.386 447.735 219.045 450.332 222.331 450.335C304.536 450.418 386.742 450.509 468.947 450.591C487.215 450.61 505.476 450.618 523.744 450.636C528.103 450.641 532.467 450.647 536.826 450.651C537.863 450.652 538.905 450.65 539.942 450.651C540.662 450.652 541.378 450.679 542.089 450.546C543.002 450.375 543.881 450.005 544.631 449.464C545.194 449.061 545.678 448.58 546.068 448.021C546.522 447.375 546.813 446.589 547.134 445.871C547.46 445.122 547.805 444.381 548.136 443.632C549.721 440.036 551.301 436.436 552.885 432.84C554.154 429.964 552.796 426.635 549.849 425.399C549.109 425.09 548.334 424.938 547.578 424.934Z" fill="#777777" fill-rule="nonzero" opacity="1" stroke="none" vectornator:layerName="path"/>
<g opacity="1" vectornator:layerName="Óvalo 12">
<path d="M447.512 38.9388C475.326 16.0376 511.703 3.46483 550.457 6.5058C629.867 12.7369 689.19 82.1625 682.957 161.572C676.731 240.981 607.303 300.304 527.893 294.073C448.483 287.842 389.161 218.417 395.392 139.007C397.639 110.361 408.111 84.3293 424.308 63.0454" fill="#55da90" fill-rule="nonzero" opacity="1" stroke="none" vectornator:layerName="path"/>
<path d="M540.897 0.0117643C526.279-0.172494 511.634 1.80916 497.586 5.85307C483.188 9.99746 469.428 16.322 456.9 24.5371C452.329 27.5348 447.955 30.8022 443.711 34.2455C441.122 36.3466 440.715 40.1631 442.816 42.7531C444.918 45.343 448.734 45.7294 451.324 43.6282C455.252 40.4424 459.284 37.4261 463.515 34.6525C475.033 27.1023 487.708 21.2621 500.945 17.4543C513.859 13.739 527.318 11.9502 540.754 12.1218C556.234 12.3194 571.662 15.0821 586.223 20.3444C623.153 33.6905 653.101 62.8022 667.573 99.2935C673.735 114.826 677.024 131.413 677.265 148.121C677.512 165.58 674.451 183.111 668.225 199.43C661.601 216.811 651.424 232.775 638.49 246.141C625.149 259.927 608.925 270.912 591.149 278.135C574.626 284.85 556.838 288.282 539.004 288.231C521.576 288.18 504.167 284.852 487.979 278.38C473.485 272.584 460.018 264.299 448.291 253.997C437.236 244.284 427.723 232.797 420.265 220.109C413.866 209.222 408.975 197.46 405.773 185.244C398.203 156.356 400.351 125.129 411.778 97.5435C416.313 86.5965 422.282 76.3314 429.404 66.8713C431.522 64.0564 430.956 60.0748 428.141 57.9567C425.327 55.8387 421.324 56.4039 419.207 59.2186C411.086 70.0139 404.337 81.7541 399.322 94.3072C386.821 125.593 385.2 160.9 394.804 193.203C398.496 205.623 403.803 217.558 410.557 228.617C418.931 242.329 429.494 254.705 441.737 265.11C454.742 276.16 469.645 284.958 485.598 291.019C502.997 297.629 521.638 300.935 540.246 300.808C559.686 300.677 579.051 296.742 596.99 289.248C615.92 281.34 633.179 269.532 647.425 254.77C661.79 239.885 673.012 222.049 680.196 202.646C686.95 184.391 690.089 164.864 689.477 145.414C688.903 127.277 684.989 109.279 677.994 92.5363C671.644 77.3286 662.767 63.1909 651.862 50.8332C635.256 32.016 613.948 17.4637 590.335 8.94673C574.504 3.23684 557.721 0.223846 540.897 0.0117643Z" fill="#777777" fill-rule="nonzero" opacity="1" stroke="none" vectornator:layerName="path"/>
</g>
<path d="M538.984 178.086C543.939 178.086 546.204 174.688 546.204 170.158L546.204 167.751C546.346 158.407 549.673 154.514 561.001 146.727C573.175 138.516 580.891 129.03 580.891 115.368C580.891 94.1326 563.616 81.9567 542.099 81.9567C526.101 81.9567 512.085 89.5312 506.068 103.193C504.581 106.52 503.945 109.777 503.945 112.466C503.945 116.501 506.281 119.333 510.599 119.333C514.209 119.333 516.615 117.209 517.678 113.741C521.287 100.291 530.207 95.1942 541.604 95.1942C555.409 95.1942 566.237 102.98 566.237 115.298C566.237 125.42 559.939 131.083 550.877 137.454C539.763 145.17 531.623 153.452 531.623 165.911L531.623 170.37C531.623 174.9 534.1 178.086 538.984 178.086ZM539.589 218.622C545.252 218.622 549.712 214.092 549.712 208.571C549.712 202.978 545.252 198.518 539.589 198.518C534.068 198.518 529.538 202.978 529.538 208.571C529.538 214.092 534.068 218.622 539.589 218.622Z" fill="#ffffff" fill-rule="nonzero" opacity="1" stroke="#ffffff" stroke-linecap="round" stroke-linejoin="round" stroke-width="6.6877" vectornator:layerName="Curva 11"/>
</g>
</svg>
