<?xml version="1.0" encoding="UTF-8" standalone="no"?>
<!DOCTYPE svg PUBLIC "-//W3C//DTD SVG 1.1//EN" "http://www.w3.org/Graphics/SVG/1.1/DTD/svg11.dtd">
<!-- Created with Vectornator (http://vectornator.io/) -->
<svg height="100%" stroke-miterlimit="10" style="fill-rule:nonzero;clip-rule:evenodd;stroke-linecap:round;stroke-linejoin:round;" version="1.1" viewBox="0 0 689.552 665.697" width="100%" xml:space="preserve" xmlns="http://www.w3.org/2000/svg" xmlns:vectornator="http://vectornator.io" xmlns:xlink="http://www.w3.org/1999/xlink">
<defs/>
<clipPath id="ArtboardFrame">
<rect height="665.697" width="689.552" x="0" y="0"/>
</clipPath>
<g clip-path="url(#ArtboardFrame)" id="Capa-2" vectornator:layerName="Capa 2" visibility="hidden">
<path d="M-9.09495e-13 0L2746 0L2746 1113L735.623 1113L-9.09495e-13 1113L-9.09495e-13 0Z" fill="#454545" fill-rule="nonzero" opacity="1" stroke="#084444" stroke-linecap="butt" stroke-linejoin="round" stroke-width="0.745627" vectornator:layerName="Rectángulo 1"/>
</g>
<g id="Capa-4" vectornator:layerName="Capa 4">
<path d="M98.9885 305.563L98.9885 584.005L583.83 584.005L583.83 305.563" fill="#e8f4ed" fill-rule="nonzero" opacity="1" stroke="none" vectornator:layerName="Curva 1"/>
<path d="M156.369 582.793L156.369 384.978C156.369 378.119 161.93 372.56 168.788 372.56L281.314 372.56C286.839 372.56 291.352 377.039 291.395 382.564L292.934 582.793L156.369 582.793Z" fill="#f5f8f7" fill-rule="nonzero" opacity="1" stroke="#777777" stroke-linecap="butt" stroke-linejoin="round" stroke-width="11.127" vectornator:layerName="Curva 3"/>
<path d="M368.495 387.016C368.495 378.952 375.032 372.415 383.097 372.415L515.507 372.415C523.572 372.415 530.108 378.952 530.108 387.016L530.108 489.013C530.108 497.077 523.572 503.614 515.507 503.614L383.097 503.614C375.032 503.614 368.495 497.077 368.495 489.013L368.495 387.016Z" fill="#f5f8f7" fill-rule="nonzero" opacity="1" stroke="#777777" stroke-linecap="butt" stroke-linejoin="round" stroke-width="11.127" vectornator:layerName="Rectángulo 1"/>
<path d="M70.8604 584.88L617.461 584.88L617.461 615.904L70.8604 615.904L70.8604 584.88Z" fill="#b3b0ae" fill-rule="nonzero" opacity="1" stroke="#777777" stroke-linecap="butt" stroke-linejoin="round" stroke-width="11.127" vectornator:layerName="Rectángulo 2"/>
<path d="M584.15 210.547L611.685 288.004L499.883 287.304L499.273 210.942L584.15 210.547Z" fill="#d5d5d5" fill-rule="nonzero" opacity="1" stroke="#777777" stroke-linecap="butt" stroke-linejoin="round" stroke-width="11.127" vectornator:layerName="Curva 4"/>
<path d="M394.846 209.794L499.792 209.794L499.792 286.183L394.846 286.183L394.846 209.794Z" fill="#f0fff7" fill-rule="nonzero" opacity="1" stroke="#777777" stroke-linecap="butt" stroke-linejoin="round" stroke-width="11.127" vectornator:layerName="Rectángulo 3"/>
<path d="M499.803 287.187L611.374 287.187C611.374 312.02 586.396 332.15 555.588 332.15C524.781 332.15 499.803 312.02 499.803 287.187Z" fill="#55da90" fill-rule="nonzero" opacity="1" stroke="#777777" stroke-linecap="butt" stroke-linejoin="round" stroke-width="11.127" vectornator:layerName="Óvalo 6"/>
<path d="M100.375 209.109L72.9336 286.566L184.349 285.867L184.957 209.504L100.375 209.109Z" fill="#7bf0af" fill-rule="nonzero" opacity="1" stroke="#777777" stroke-linecap="butt" stroke-linejoin="round" stroke-width="11.127" vectornator:layerName="Curva 5"/>
<path d="M184.43 285.75L73.2459 285.75C73.2459 310.582 98.1352 330.713 128.837 330.713C159.54 330.713 184.43 310.582 184.43 285.75Z" fill="#55da90" fill-rule="nonzero" opacity="1" stroke="#777777" stroke-linecap="butt" stroke-linejoin="round" stroke-width="11.127" vectornator:layerName="Óvalo 7"/>
<path d="M394.655 286.169L500.627 286.169C500.627 311.001 476.904 331.132 447.641 331.132C418.377 331.132 394.655 311.001 394.655 286.169Z" fill="#e6f8ee" fill-rule="nonzero" opacity="1" stroke="#777777" stroke-linecap="butt" stroke-linejoin="round" stroke-width="11.127" vectornator:layerName="Óvalo 8"/>
<path d="M289.62 209.522L394.565 209.522L394.565 285.911L289.62 285.911L289.62 209.522Z" fill="#7bf0af" fill-rule="nonzero" opacity="1" stroke="#777777" stroke-linecap="butt" stroke-linejoin="round" stroke-width="11.127" vectornator:layerName="Rectángulo 4"/>
<path d="M289.429 285.897L395.401 285.897C395.401 310.729 371.678 330.86 342.415 330.86C313.151 330.86 289.429 310.729 289.429 285.897Z" fill="#55da90" fill-rule="nonzero" opacity="1" stroke="#777777" stroke-linecap="butt" stroke-linejoin="round" stroke-width="11.127" vectornator:layerName="Óvalo 9"/>
<path d="M184.145 210.193L289.09 210.193L289.09 286.581L184.145 286.581L184.145 210.193Z" fill="#f0fff7" fill-rule="nonzero" opacity="1" stroke="#777777" stroke-linecap="butt" stroke-linejoin="round" stroke-width="11.127" vectornator:layerName="Rectángulo 5"/>
<path d="M183.953 286.568L289.925 286.568C289.925 311.4 266.203 331.531 236.939 331.531C207.676 331.531 183.953 311.4 183.953 286.568Z" fill="#e6f8ee" fill-rule="nonzero" opacity="1" stroke="#777777" stroke-linecap="butt" stroke-linejoin="round" stroke-width="11.127" vectornator:layerName="Óvalo 10"/>
<path d="M99.2708 187.563L584.408 187.563L584.408 208.995L99.2708 208.995L99.2708 187.563Z" fill="#d5d5d5" fill-rule="nonzero" opacity="1" stroke="#777777" stroke-linecap="butt" stroke-linejoin="round" stroke-width="11.127" vectornator:layerName="Rectángulo 6"/>
<path d="M585.026 405.341C581.937 405.319 579.404 407.815 579.383 410.904C578.976 467.553 578.342 524.2 577.913 580.849C577.89 584.111 580.531 586.768 583.794 586.789C587.057 586.812 589.713 584.191 589.735 580.928C590.077 524.279 590.225 467.633 590.59 410.983C590.611 407.894 588.115 405.361 585.026 405.341Z" fill="#777777" fill-rule="nonzero" opacity="1" stroke="none" vectornator:layerName="path"/>
<path d="M585.066 320.955C581.977 320.908 579.45 323.37 579.403 326.458C579.189 339.09 578.746 351.7 578.509 364.33C578.459 367.593 581.048 370.281 584.31 370.331C587.573 370.38 590.262 367.791 590.311 364.529C590.46 351.897 590.398 339.249 590.569 326.617C590.616 323.529 588.154 321.002 585.066 320.955Z" fill="#777777" fill-rule="nonzero" opacity="1" stroke="none" vectornator:layerName="path"/>
<path d="M99.2746 320.935C96.1851 320.935 93.6711 323.448 93.6711 326.538C93.6494 395.633 93.397 464.723 93.3531 533.817C93.3531 537.08 96.0115 539.739 99.2746 539.738C102.538 539.738 105.176 537.08 105.176 533.817C105.132 464.723 104.879 395.633 104.858 326.538C104.858 323.448 102.363 320.935 99.2746 320.935Z" fill="#777777" fill-rule="nonzero" opacity="1" stroke="none" vectornator:layerName="path"/>
<g opacity="1" vectornator:layerName="Óvalo 11">
<path d="M453.226 40.0902C480.379 17.7329 515.892 5.45875 553.726 8.42749C631.25 14.5106 689.163 82.2872 683.078 159.81C677 237.333 609.221 295.248 531.697 289.165C454.174 283.082 396.26 215.305 402.343 137.781C404.537 109.816 414.76 84.4026 430.573 63.6242" fill="#55da90" fill-rule="nonzero" opacity="1" stroke="none" vectornator:layerName="path"/>
<path d="M544.392 2.7434C530.184 2.56418 515.944 4.47576 502.289 8.40619C488.295 12.4344 474.906 18.5822 462.729 26.567C458.284 29.4817 454.039 32.6572 449.913 36.0051C447.658 37.8339 447.309 41.1423 449.138 43.3965C450.967 45.6508 454.275 46.0003 456.53 44.1714C460.381 41.0477 464.362 38.0887 468.511 35.3692C479.809 27.9631 492.226 22.2352 505.21 18.4999C517.878 14.8556 531.073 13.0863 544.253 13.2544C559.436 13.4481 574.578 16.1605 588.861 21.3215C625.087 34.4119 654.457 62.9785 668.658 98.7729C674.704 114.009 677.922 130.29 678.157 146.679C678.399 163.806 675.417 180.979 669.313 196.988C662.814 214.039 652.812 229.714 640.124 242.828C627.037 256.354 611.147 267.133 593.709 274.222C577.499 280.81 560.041 284.166 542.545 284.116C525.446 284.068 508.374 280.828 492.493 274.48C478.272 268.794 465.055 260.644 453.549 250.537C442.702 241.009 433.367 229.742 426.049 217.295C419.77 206.614 414.964 195.085 411.823 183.099C404.394 154.756 406.493 124.111 417.704 97.0441C422.153 86.305 428.025 76.243 435.011 66.9619C436.854 64.512 436.367 61.0363 433.918 59.1928C431.468 57.3494 427.973 57.8358 426.129 60.2857C418.237 70.7768 411.69 82.2026 406.816 94.4016C394.668 124.805 393.072 159.1 402.405 190.491C405.993 202.561 411.161 214.179 417.724 224.925C425.862 238.251 436.127 250.261 448.025 260.373C460.662 271.112 475.143 279.676 490.645 285.567C507.554 291.992 525.672 295.206 543.757 295.084C562.65 294.957 581.461 291.12 598.895 283.838C617.293 276.154 634.067 264.684 647.913 250.338C661.873 235.872 672.803 218.548 679.785 199.691C686.353 181.948 689.379 162.96 688.788 144.056C688.228 126.428 684.433 108.926 677.636 92.6531C671.163 77.1542 662.013 62.8017 650.695 50.3906C634.783 32.9429 614.658 19.4219 592.437 11.4065C577.05 5.85597 560.747 2.94967 544.392 2.7434Z" fill="#777777" fill-rule="nonzero" opacity="1" stroke="none" vectornator:layerName="path"/>
</g>
<path d="M542.525 175.932C547.362 175.932 549.574 172.615 549.574 168.192L549.574 165.843C549.712 156.721 552.96 152.92 564.019 145.319C575.904 137.302 583.436 128.042 583.436 114.704C583.436 93.973 566.572 82.0863 545.566 82.0863C529.948 82.0863 516.265 89.4809 510.391 102.818C508.939 106.066 508.318 109.246 508.318 111.871C508.318 115.81 510.598 118.574 514.814 118.574C518.338 118.574 520.688 116.501 521.725 113.115C525.248 99.9848 533.956 95.0094 545.082 95.0094C558.559 95.0094 569.131 102.611 569.131 114.635C569.131 124.517 562.982 130.046 554.135 136.266C543.285 143.798 535.338 151.883 535.338 164.046L535.338 168.4C535.338 172.822 537.757 175.932 542.525 175.932ZM543.116 215.506C548.644 215.506 552.998 211.083 552.998 205.693C552.998 200.233 548.644 195.879 543.116 195.879C537.726 195.879 533.303 200.233 533.303 205.693C533.303 211.083 537.726 215.506 543.116 215.506Z" fill="#ffffff" fill-rule="nonzero" opacity="1" stroke="#ffffff" stroke-linecap="round" stroke-linejoin="round" stroke-width="6.52886" vectornator:layerName="Curva 6"/>
</g>
</svg>
