<?xml version="1.0" encoding="UTF-8" standalone="no"?>
<!DOCTYPE svg PUBLIC "-//W3C//DTD SVG 1.1//EN" "http://www.w3.org/Graphics/SVG/1.1/DTD/svg11.dtd">
<!-- Created with Vectornator (http://vectornator.io/) -->
<svg height="100%" stroke-miterlimit="10" style="fill-rule:nonzero;clip-rule:evenodd;stroke-linecap:round;stroke-linejoin:round;" version="1.1" viewBox="0 0 1285.63 1113" width="100%" xml:space="preserve" xmlns="http://www.w3.org/2000/svg" xmlns:vectornator="http://vectornator.io" xmlns:xlink="http://www.w3.org/1999/xlink">
<defs>
<path d="M319.127 857.365C317.418 858.495 315.605 859.372 313.585 859.853C315.543 859.387 317.336 858.363 319.127 857.365Z" id="Fill"/>
</defs>
<clipPath id="ArtboardFrame">
<rect height="1113" width="1285.63" x="0" y="0"/>
</clipPath>
<g clip-path="url(#ArtboardFrame)" id="Capa-2" vectornator:layerName="Capa 2" visibility="hidden">
<path d="M-9.09495e-13 0L2746 0L2746 1113L735.623 1113L-9.09495e-13 1113L-9.09495e-13 0Z" fill="#454545" fill-rule="nonzero" opacity="1" stroke="#084444" stroke-linecap="butt" stroke-linejoin="round" stroke-width="0.745627" vectornator:layerName="Rectángulo 1"/>
</g>
<g id="Capa-3" opacity="0.1" vectornator:layerName="Capa 3"/>
<g id="Capa-4" vectornator:layerName="Capa 4">
<g opacity="1" vectornator:layerName="Curva 7">
<use fill="#9a9a9a" fill-rule="nonzero" stroke="none" xlink:href="#Fill"/>
<mask height="2.48761" id="StrokeMask" maskUnits="userSpaceOnUse" width="5.54193" x="313.585" y="857.365">
<rect fill="#000000" height="2.48761" stroke="none" width="5.54193" x="313.585" y="857.365"/>
<use fill="#ffffff" fill-rule="evenodd" stroke="none" xlink:href="#Fill"/>
</mask>
<use fill="none" mask="url(#StrokeMask)" stroke="#9a9a9a" stroke-linecap="butt" stroke-linejoin="round" stroke-width="144" xlink:href="#Fill"/>
</g>
<g opacity="1" vectornator:layerName="Rectángulo 1">
<path d="M280.094 25.7812C276.73 25.7808 273.362 25.7256 270 25.8438C266.168 25.9784 262.343 26.3572 258.562 27C239.5 30.2411 221.833 40.1137 209.062 54.625C198.072 67.114 190.921 82.7929 188.688 99.2812C187.865 105.354 187.907 111.421 187.906 117.531C187.905 124.34 187.907 131.16 187.906 137.969C187.901 179.957 187.911 221.949 187.906 263.938C187.884 448.914 187.866 633.868 187.844 818.844C187.838 864.804 187.818 910.79 187.812 956.75C187.812 963.559 187.813 970.347 187.812 977.156C187.812 982.707 187.816 988.235 188.562 993.75C190.921 1011.18 198.809 1027.65 210.844 1040.47C223.454 1053.91 240.361 1063.03 258.531 1066.12C266.436 1067.47 274.391 1067.34 282.375 1067.34C291.878 1067.34 301.372 1067.34 310.875 1067.34C379.293 1067.35 447.707 1067.37 516.125 1067.38C536.678 1067.38 553.344 1050.71 553.344 1030.16C553.344 1009.6 536.677 992.938 516.125 992.938C453.408 992.945 390.685 992.961 327.969 992.969C313.398 992.971 298.821 992.967 284.25 992.969C281.082 992.969 277.918 992.967 274.75 992.969C273.61 992.969 272.478 993.025 271.344 992.875C268.931 992.557 266.695 991.323 265.031 989.562C263.446 987.885 262.453 985.701 262.219 983.406C262.065 981.904 262.156 980.381 262.156 978.875C262.156 976.605 262.157 974.332 262.156 972.062C262.155 960.714 262.158 949.348 262.156 938C262.15 889.77 262.131 841.542 262.125 793.312C262.104 622.521 262.083 451.728 262.062 280.938C262.057 237.247 262.068 193.566 262.062 149.875C262.061 139.662 262.064 129.463 262.062 119.25C262.062 116.98 262.064 114.707 262.062 112.438C262.062 111.356 262.015 110.262 262.156 109.188C262.431 107.105 263.373 105.17 264.75 103.594C266.425 101.677 268.784 100.336 271.312 100C272.774 99.8057 274.281 99.9064 275.75 99.9062C277.195 99.9061 278.649 99.9064 280.094 99.9062C287.801 99.9053 295.511 99.9072 303.219 99.9062C339.829 99.9018 376.421 99.8795 413.031 99.875C560.916 99.8568 708.803 99.8619 856.688 99.8438C897.633 99.8387 938.586 99.8175 979.531 99.8125C988.202 99.8114 996.86 99.8135 1005.53 99.8125C1007.46 99.8123 1009.39 99.8138 1011.31 99.8125C1012.31 99.8119 1013.32 99.7751 1014.31 99.9062C1017 100.261 1019.47 101.731 1021.19 103.812C1022.54 105.452 1023.41 107.446 1023.62 109.562C1023.77 110.936 1023.69 112.342 1023.69 113.719C1023.69 114.716 1023.69 115.722 1023.69 116.719C1023.69 122.203 1023.69 127.672 1023.69 133.156C1023.69 157.587 1023.68 182.038 1023.69 206.469C1023.7 302.196 1023.71 397.897 1023.72 493.625C1023.72 514.01 1040.27 530.562 1060.66 530.562C1081.04 530.562 1097.56 514.011 1097.56 493.625C1097.58 389.92 1097.58 286.236 1097.59 182.531C1097.6 166.078 1097.59 149.609 1097.59 133.156C1097.59 127.173 1097.59 121.202 1097.59 115.219C1097.59 109.885 1097.56 104.58 1096.84 99.2812C1094.62 82.8129 1087.44 67.1627 1076.47 54.6875C1063.71 40.191 1046.1 30.3338 1027.06 27.0938C1019.88 25.8719 1012.77 25.8759 1005.53 25.875C998.787 25.8742 992.056 25.8758 985.312 25.875C951.593 25.8709 917.876 25.8791 884.156 25.875C719.894 25.8548 555.637 25.8327 391.375 25.8125C361.509 25.8088 331.616 25.7849 301.75 25.7812C294.524 25.7804 287.319 25.7821 280.094 25.7812Z" fill="#585858" stroke="none"/>
</g>
<path d="M363.019 249.426L907.477 249.426" fill="none" opacity="1" stroke="#585858" stroke-linecap="butt" stroke-linejoin="round" stroke-width="74" vectornator:layerName="Línea 5"/>
<path d="M1057.5 597.561C1046.11 597.009 1034.88 600.81 1026.48 609.089C897.918 735.547 670.256 958.976 670.256 958.976L642.865 1052.01L735.779 1025.56C735.779 1025.56 963.119 801.808 1091.5 675.17C1108.31 658.612 1107.38 630.371 1089.42 612.13C1080.45 603.009 1068.89 598.112 1057.5 597.561Z" fill="#585858" fill-rule="nonzero" opacity="1" stroke="none" vectornator:layerName="Curva 8"/>
<path d="M363.019 430.571L669.233 430.571" fill="none" opacity="1" stroke="#585858" stroke-linecap="butt" stroke-linejoin="round" stroke-width="74" vectornator:layerName="Línea 6"/>
</g>
</svg>
