<?xml version="1.0" encoding="UTF-8" standalone="no"?>
<!DOCTYPE svg PUBLIC "-//W3C//DTD SVG 1.1//EN" "http://www.w3.org/Graphics/SVG/1.1/DTD/svg11.dtd">
<!-- Created with Vectornator (http://vectornator.io/) -->
<svg height="100%" stroke-miterlimit="10" style="fill-rule:nonzero;clip-rule:evenodd;stroke-linecap:round;stroke-linejoin:round;" version="1.1" viewBox="0 0 1475.6 1024" width="100%" xml:space="preserve" xmlns="http://www.w3.org/2000/svg" xmlns:vectornator="http://vectornator.io" xmlns:xlink="http://www.w3.org/1999/xlink">
<defs/>
<g id="Capa-1" vectornator:layerName="Capa 1">
<path d="M1250.63 669.422C1247.96 697.119 1244.99 711.56 1216.09 725.758C1216.09 725.758 868.971 871.012 765.168 904.165C754.604 907.54 745.872 910.763 733.491 910.763C721.111 910.763 716.368 908.998 706.697 906.223C621.833 881.874 256.553 745.52 226.942 730.648C226.942 730.648 212.616 719.96 214.001 702.985C215.831 680.547 239.83 670.552 239.83 670.552C334.575 622.83 576.859 523.246 576.859 523.246L1250.63 669.422Z" fill="#dddbd9" fill-rule="nonzero" opacity="1" stroke="none" vectornator:layerName="Curva 4"/>
</g>
<g id="Capa-3" vectornator:layerName="Capa 3">
<path d="M382.658 692.442L382.658 181.204L850.863 10.7917L1241.03 152.802L1241.03 664.04L772.829 834.453" fill="#ffc193" fill-rule="nonzero" opacity="1" stroke="none" vectornator:layerName="Curva 1"/>
<path d="M772.829 834.453L1241.03 664.04L1241.03 152.802L772.829 323.215L382.658 181.204L382.658 692.442L772.829 834.453Z" fill="none" opacity="1" stroke="#7c7a7a" stroke-linecap="butt" stroke-linejoin="round" stroke-width="16.9463" vectornator:layerName="Curva 3"/>
<path d="M1241.03 152.802L850.863 10.7917L382.658 181.204L616.761 95.998L1006.93 238.009" fill="none" opacity="1" stroke="#7c7a7a" stroke-linecap="butt" stroke-linejoin="round" stroke-width="16.9463" vectornator:layerName="Curva 4"/>
<path d="M773.056 468.681C773.056 557.293 772.829 834.453 772.829 834.453C772.829 834.453 773.056 380.069 773.056 468.681Z" fill="none" opacity="1" stroke="#7c7a7a" stroke-linecap="butt" stroke-linejoin="round" stroke-width="16.9463" vectornator:layerName="Curva 5"/>
<g opacity="1" vectornator:layerName="Curva 2">
<path d="M772.812 321.906C768.055 321.915 764.21 325.774 764.219 330.531C764.194 352.937 764.181 375.345 764.156 397.75C764.165 402.616 768.103 406.571 772.969 406.562C777.835 406.554 781.759 402.585 781.75 397.719C781.644 375.314 781.543 352.905 781.438 330.5C781.429 325.742 777.57 321.898 772.812 321.906Z" fill="#7c7a7a" stroke="none"/>
</g>
<g opacity="1" vectornator:layerName="Curva 6">
<path d="M422.25 652.344C418.73 652.537 415.487 654.787 414.219 658.312C412.528 663.013 414.987 668.184 419.688 669.875C447.231 679.713 474.769 689.537 502.312 699.375C506.909 701.029 511.971 698.659 513.625 694.062C515.279 689.466 512.877 684.404 508.281 682.75C480.784 672.786 453.31 662.807 425.812 652.844C424.637 652.421 423.423 652.279 422.25 652.344Z" fill="#7c7a7a" stroke="none"/>
</g>
<path d="M1023.95 363.864C1023.95 363.864 1039.28 362.79 1045.85 364.959L1046.17 365.04C1060.96 368.157 1076.19 375.395 1086.84 385.246C1098.57 396.104 1108.21 411.234 1112.62 426.355C1117.34 442.551 1119.18 458.563 1114.9 475.494C1113.97 479.175 1112.23 486.319 1103.94 501.367C1103.94 501.367 1093.65 520.264 1093.37 520.891C1092.15 523.552 1082.35 543.661 1079.52 552.107C1077.94 556.842 1071.6 557.379 1025.11 575.581C1011.49 580.912 1008.42 580.232 1003.92 570.941C1003.45 569.962 1001.3 565.741 1000.85 564.969C995.922 556.552 999.145 555.738 999.145 555.738C1001.49 552.645 1044.08 536.446 1049.89 533.989C1056.08 531.499 1056.91 528.423 1054.08 521.87C1049.87 512.12 1045 515.372 1042.96 515.967C1037.27 517.621 1010.86 527.98 992.462 535.266C987.541 537.216 987.166 537.921 982.204 533.691C975.165 527.691 970.525 522.156 970.249 521.853C967.433 518.758 960.816 510.221 960.766 510.156C960.584 509.923 959.719 508.981 958.959 507.923C956.804 504.923 955.378 502.861 953.329 499.316C948.823 491.516 945.508 484.165 943.892 476.419C943.738 475.682 943.603 474.945 943.477 474.216C940.303 455.818 942.432 439.639 947.339 425.238C951.976 411.63 959.637 399.756 970.449 388.677C975.801 383.192 981.781 378.667 988.315 374.892C993.291 372.017 998.169 369.788 1003.69 367.669C1008.79 365.712 1016.21 364.371 1023.95 363.864Z" fill="#7c7a7a" fill-rule="nonzero" opacity="1" stroke="none" vectornator:layerName="Curva 2"/>
<path d="M1075.88 589.438C1075.18 592.943 1074.03 596.614 1072.43 599.268C1071.28 601.162 1067.42 607.026 1055.6 612.008C1042.13 617.687 1036.59 615.618 1035.28 615.31C1033.17 614.813 1030 614.337 1026.17 611.422L1026.07 611.332C1019.69 605.549 1018.32 598.947 1022.36 597.102C1037.87 590.008 1070.36 578.751 1070.36 578.751C1075.88 577.318 1078.38 576.985 1075.88 589.438Z" fill="#7c7a7a" fill-rule="nonzero" opacity="1" stroke="none" vectornator:layerName="Curva 3"/>
</g>
</svg>
