<?xml version="1.0" encoding="UTF-8" standalone="no"?>
<!DOCTYPE svg PUBLIC "-//W3C//DTD SVG 1.1//EN" "http://www.w3.org/Graphics/SVG/1.1/DTD/svg11.dtd">
<!-- Created with Vectornator (http://vectornator.io/) -->
<svg height="100%" stroke-miterlimit="10" style="fill-rule:nonzero;clip-rule:evenodd;stroke-linecap:round;stroke-linejoin:round;" version="1.1" viewBox="0 0 2050 1024" width="100%" xml:space="preserve" xmlns="http://www.w3.org/2000/svg" xmlns:vectornator="http://vectornator.io" xmlns:xlink="http://www.w3.org/1999/xlink">
<defs>
<path d="M405.58 439.684C26.227 532.794-144.938 756.595 149.453 942.539C465.717 1142.3 765.042 912.297 973.825 876.304C1163.62 843.585 1247.51 902.646 1339.66 935.861C1525.18 1002.73 1713.12 1007.76 1887.21 937.157C2087.66 855.868 2075.67 728.732 1975.72 642.254C1758.7 454.465 959.195 415.464 600.633 419.254C493.452 420.387 405.58 439.684 405.58 439.684Z" id="Fill"/>
</defs>
<g id="Capa-1" vectornator:layerName="Capa 1">
<use fill="#e5e4e4" fill-rule="nonzero" opacity="1" stroke="none" vectornator:layerName="Curva 1" xlink:href="#Fill"/>
<clipPath clip-rule="nonzero" id="ClipPath">
<use xlink:href="#Fill"/>
</clipPath>
<g clip-path="url(#ClipPath)">
<path d="M1809.28 746.617C1807.85 761.509 1805.21 768.218 1789.67 775.852C1789.67 775.852 1604.08 855.004 1548.27 872.829C1542.59 874.644 1537.9 876.377 1531.24 876.377C1524.58 876.377 1522.03 875.428 1516.83 873.936C1471.2 860.844 1274.81 787.532 1258.89 779.536C1258.89 779.536 1251.18 773.79 1251.93 764.663C1252.91 752.599 1265.82 747.225 1265.82 747.225C1316.76 721.567 1447.02 668.024 1447.02 668.024L1809.28 746.617Z" fill="#c9c5c1" fill-rule="nonzero" opacity="1" stroke="none" vectornator:layerName="Curva 3"/>
<path d="M1181.75 651.56C1179.15 678.506 1176.26 692.555 1148.14 706.368C1148.14 706.368 810.44 847.683 709.453 879.937C699.175 883.22 690.68 886.356 678.635 886.356C666.59 886.356 661.976 884.639 652.568 881.94C570.005 858.251 214.631 725.595 185.823 711.126C185.823 711.126 171.885 700.728 173.233 684.213C175.013 662.384 198.361 652.659 198.361 652.659C290.537 606.232 526.25 509.349 526.25 509.349L1181.75 651.56Z" fill="#c9c5c1" fill-rule="nonzero" opacity="1" stroke="none" vectornator:layerName="Curva 4"/>
</g>
</g>
<g id="Capa-3" vectornator:layerName="Capa 3">
<path d="M1344.62 758.743L1344.62 487.411L1593.12 396.967L1800.19 472.337L1800.19 743.669L1551.7 834.113" fill="#ffb27a" fill-rule="nonzero" opacity="1" stroke="none" vectornator:layerName="Curva 12"/>
<path d="M1551.7 834.113L1800.19 743.669L1800.19 472.337L1551.7 562.781L1344.62 487.411L1344.62 758.743L1551.7 834.113Z" fill="none" opacity="1" stroke="#826b5a" stroke-linecap="butt" stroke-linejoin="round" stroke-width="16.4867" vectornator:layerName="Curva 13"/>
<path d="M1800.19 472.337L1593.12 396.967L1344.62 487.411L1468.87 442.189L1675.95 517.559" fill="none" opacity="1" stroke="#806857" stroke-linecap="butt" stroke-linejoin="round" stroke-width="16.4867" vectornator:layerName="Curva 14"/>
<path d="M1551.82 639.986C1551.82 687.015 1551.7 834.113 1551.7 834.113C1551.7 834.113 1551.82 592.956 1551.82 639.986Z" fill="none" opacity="1" stroke="#866750" stroke-linecap="butt" stroke-linejoin="round" stroke-width="16.4867" vectornator:layerName="Curva 15"/>
<g opacity="1" vectornator:layerName="Curva 16">
<path d="M1551.69 558.281C1547.06 558.29 1543.3 562.059 1543.31 566.688C1543.27 578.579 1543.23 590.452 1543.19 602.344C1543.2 607.078 1547.05 610.915 1551.78 610.906C1556.52 610.898 1560.35 607.046 1560.34 602.312C1560.26 590.421 1560.18 578.547 1560.09 566.656C1560.09 562.028 1556.32 558.273 1551.69 558.281Z" fill="#836956" stroke="none"/>
</g>
<g opacity="1" vectornator:layerName="Curva 17">
<path d="M1386 724.719C1382.66 724.902 1379.61 727.034 1378.41 730.375C1376.8 734.829 1379.11 739.741 1383.56 741.344C1397.81 746.402 1412.06 751.473 1426.31 756.531C1430.67 758.098 1435.46 755.824 1437.03 751.469C1438.6 747.113 1436.36 742.317 1432 740.75C1417.79 735.572 1403.58 730.397 1389.38 725.219C1388.26 724.818 1387.11 724.658 1386 724.719Z" fill="#836956" stroke="none"/>
</g>
<path d="M1682.95 594.112C1682.95 594.112 1690.6 593.576 1693.89 594.659L1694.05 594.7C1701.43 596.256 1709.03 599.869 1714.35 604.787C1720.21 610.207 1725.02 617.761 1727.22 625.31C1729.58 633.395 1730.5 641.389 1728.36 649.842C1727.89 651.679 1727.03 655.246 1722.89 662.758C1722.89 662.758 1717.75 672.193 1717.61 672.506C1717 673.834 1712.11 683.873 1710.7 688.09C1709.9 690.454 1706.74 690.721 1683.53 699.808C1676.73 702.47 1675.2 702.131 1672.95 697.492C1672.72 697.003 1671.64 694.896 1671.42 694.511C1668.96 690.309 1670.57 689.903 1670.57 689.903C1671.74 688.358 1693 680.271 1695.9 679.045C1698.99 677.801 1699.41 676.266 1698 672.994C1695.89 668.127 1693.46 669.75 1692.44 670.047C1689.6 670.873 1676.42 676.044 1667.23 679.682C1664.78 680.655 1664.59 681.007 1662.11 678.895C1658.6 675.9 1656.28 673.137 1656.14 672.986C1654.74 671.441 1651.43 667.179 1651.41 667.146C1651.32 667.03 1650.89 666.56 1650.51 666.032C1649.43 664.534 1648.72 663.505 1647.7 661.734C1645.45 657.841 1643.79 654.171 1642.98 650.303C1642.91 649.936 1642.84 649.568 1642.78 649.204C1641.19 640.019 1642.26 631.942 1644.71 624.753C1647.02 617.959 1650.85 612.031 1656.24 606.5C1658.92 603.761 1661.9 601.503 1665.16 599.618C1667.65 598.183 1670.08 597.07 1672.84 596.012C1675.38 595.035 1679.09 594.366 1682.95 594.112Z" fill="#826b5a" fill-rule="nonzero" opacity="1" stroke="none" vectornator:layerName="Curva 18"/>
<path d="M1708.88 706.726C1708.53 708.477 1707.95 710.309 1707.15 711.634C1706.58 712.58 1704.66 715.507 1698.75 717.994C1692.03 720.829 1689.26 719.796 1688.61 719.643C1687.56 719.395 1685.97 719.157 1684.06 717.701L1684.01 717.656C1680.82 714.769 1680.14 711.474 1682.16 710.552C1689.9 707.011 1706.12 701.391 1706.12 701.391C1708.88 700.676 1710.12 700.509 1708.88 706.726Z" fill="#826b5a" fill-rule="nonzero" opacity="1" stroke="none" vectornator:layerName="Curva 19"/>
<path d="M337.316 673.956L337.316 176.583L792.824 10.7917L1172.41 148.951L1172.41 646.324L716.906 812.115" fill="#ffb27a" fill-rule="nonzero" opacity="1" stroke="none" vectornator:layerName="Curva 1"/>
<path d="M716.906 812.115L1172.41 646.324L1172.41 148.951L716.906 314.742L337.316 176.583L337.316 673.956L716.906 812.115Z" fill="none" opacity="1" stroke="#826b5a" stroke-linecap="butt" stroke-linejoin="round" stroke-width="16.4867" vectornator:layerName="Curva 3"/>
<path d="M1172.41 148.951L792.824 10.7917L337.316 176.583L565.07 93.6873L944.659 231.847" fill="none" opacity="1" stroke="#806857" stroke-linecap="butt" stroke-linejoin="round" stroke-width="16.4867" vectornator:layerName="Curva 4"/>
<path d="M717.126 456.264C717.126 542.472 716.906 812.115 716.906 812.115C716.906 812.115 717.126 370.055 717.126 456.264Z" fill="none" opacity="1" stroke="#836956" stroke-linecap="butt" stroke-linejoin="round" stroke-width="16.4867" vectornator:layerName="Curva 5"/>
<g opacity="1" vectornator:layerName="Curva 2">
<path d="M716.875 313.469C712.246 313.477 708.523 317.246 708.531 321.875C708.507 343.673 708.493 365.452 708.469 387.25C708.477 391.984 712.297 395.821 717.031 395.812C721.765 395.804 725.602 391.953 725.594 387.219C725.491 365.421 725.384 343.641 725.281 321.844C725.273 317.215 721.504 313.46 716.875 313.469Z" fill="#836956" stroke="none"/>
</g>
<g opacity="1" vectornator:layerName="Curva 6">
<path d="M413.562 618.719C410.227 618.902 407.171 621.034 405.969 624.375C404.366 628.829 406.671 633.741 411.125 635.344C437.225 644.666 463.337 653.99 489.438 663.312C493.793 664.879 498.589 662.605 500.156 658.25C501.723 653.895 499.449 649.098 495.094 647.531C469.037 638.09 442.995 628.66 416.938 619.219C415.824 618.818 414.674 618.658 413.562 618.719Z" fill="#836956" stroke="none"/>
</g>
<path d="M961.218 354.289C961.218 354.289 976.126 353.244 982.524 355.354L982.834 355.433C997.226 358.465 1012.04 365.507 1022.4 375.091C1033.82 385.654 1043.2 400.375 1047.49 415.085C1052.08 430.842 1053.87 446.42 1049.7 462.892C1048.8 466.473 1047.1 473.423 1039.04 488.063C1039.04 488.063 1029.03 506.447 1028.75 507.058C1027.57 509.646 1018.03 529.21 1015.28 537.427C1013.74 542.034 1007.57 542.556 962.342 560.264C949.093 565.45 946.11 564.789 941.729 555.75C941.268 554.797 939.179 550.691 938.739 549.94C933.948 541.752 937.084 540.96 937.084 540.96C939.364 537.951 980.797 522.19 986.45 519.801C992.472 517.377 993.284 514.385 990.531 508.01C986.433 498.524 981.697 501.688 979.707 502.267C974.175 503.876 948.482 513.954 930.583 521.043C925.795 522.939 925.43 523.625 920.602 519.51C913.754 513.673 909.24 508.288 908.971 507.993C906.233 504.983 899.795 496.677 899.746 496.614C899.569 496.387 898.727 495.471 897.988 494.441C895.891 491.523 894.504 489.517 892.511 486.067C888.127 478.479 884.902 471.328 883.329 463.791C883.18 463.075 883.049 462.358 882.926 461.648C879.838 443.749 881.909 428.009 886.683 413.999C891.194 400.759 898.648 389.208 909.166 378.429C914.374 373.092 920.191 368.691 926.548 365.018C931.389 362.221 936.135 360.052 941.507 357.99C946.468 356.087 953.685 354.782 961.218 354.289Z" fill="#826b5a" fill-rule="nonzero" opacity="1" stroke="none" vectornator:layerName="Curva 2"/>
<path d="M1011.74 573.745C1011.06 577.156 1009.94 580.727 1008.38 583.309C1007.27 585.152 1003.51 590.856 992.01 595.703C978.902 601.228 973.516 599.215 972.242 598.916C970.185 598.433 967.1 597.97 963.377 595.133L963.278 595.045C957.068 589.419 955.739 582.997 959.666 581.201C974.759 574.3 1006.37 563.348 1006.37 563.348C1011.74 561.955 1014.17 561.63 1011.74 573.745Z" fill="#826b5a" fill-rule="nonzero" opacity="1" stroke="none" vectornator:layerName="Curva 3"/>
</g>
</svg>
