<?xml version="1.0" encoding="UTF-8" standalone="no"?>
<!DOCTYPE svg PUBLIC "-//W3C//DTD SVG 1.1//EN" "http://www.w3.org/Graphics/SVG/1.1/DTD/svg11.dtd">
<!-- Created with Vectornator (http://vectornator.io/) -->
<svg height="100%" stroke-miterlimit="10" style="fill-rule:nonzero;clip-rule:evenodd;stroke-linecap:round;stroke-linejoin:round;" version="1.1" viewBox="0 0 1917.45 1050.52" width="100%" xml:space="preserve" xmlns="http://www.w3.org/2000/svg" xmlns:vectornator="http://vectornator.io" xmlns:xlink="http://www.w3.org/1999/xlink">
<defs>
<path d="M379.828 452.82C24.2116 545.93-136.244 764.285 139.727 950.228C436.203 1149.99 998.704 996.836 1212.83 986.401C1339.22 980.242 1384.74 1006.45 1476.02 1021.73C1547.58 1033.71 1638.2 1045.34 1801.43 974.802C1945.55 912.525 1945.42 736.421 1851.73 649.943C1648.28 462.154 1082.62 406.814 746.495 410.604C646.021 411.737 379.828 452.82 379.828 452.82Z" id="Fill"/>
</defs>
<g id="Capa-1" vectornator:layerName="Capa 1"/>
<clipPath id="ArtboardFrame">
<rect height="1050.52" width="1917.45" x="0" y="0"/>
</clipPath>
<g clip-path="url(#ArtboardFrame)" id="Capa-3" vectornator:layerName="Capa 3">
<use fill="#e5e4e4" fill-rule="nonzero" opacity="1" stroke="none" vectornator:layerName="Curva 1" xlink:href="#Fill"/>
<clipPath clip-rule="nonzero" id="ClipPath">
<use xlink:href="#Fill"/>
</clipPath>
<g clip-path="url(#ClipPath)">
<path d="M1455.43 691.641C1451.89 723.993 1444.93 732.912 1406.64 749.496C1406.64 749.496 875.242 957.115 737.716 995.84C723.719 999.782 712.15 1003.55 695.748 1003.55C679.345 1003.55 673.061 1001.49 660.249 998.244C547.814 969.803 195.294 836.763 156.063 819.392C156.063 819.392 137.082 806.907 138.917 787.079C141.343 760.87 173.138 749.194 173.138 749.194C298.665 693.452 761.862 529.522 761.862 529.522L1455.43 691.641Z" fill="#000000" fill-rule="nonzero" opacity="0.105769" stroke="none" vectornator:layerName="Curva 7"/>
<path d="M784.764 882.372L785.392 910.98L1453.07 672.126L1408.44 655.374L784.764 882.372Z" fill="#ffcba7" fill-rule="nonzero" opacity="1" stroke="#6f6f6f" stroke-linecap="butt" stroke-linejoin="round" stroke-width="9.48139" vectornator:layerName="Curva 3"/>
<path d="M1452.89 695.864L785.57 935.996L784.699 910.578L1453.25 673.38L1452.89 695.864Z" fill="#ffb480" fill-rule="nonzero" opacity="1" stroke="#6f6f6f" stroke-linecap="butt" stroke-linejoin="round" stroke-width="9.48139" vectornator:layerName="Curva 4"/>
<path d="M304.806 739.416L784.807 910.76L784.764 882.372L349.354 723.202L304.806 739.416Z" fill="#ffcba7" fill-rule="nonzero" opacity="1" stroke="#6f6f6f" stroke-linecap="butt" stroke-linejoin="round" stroke-width="9.48139" vectornator:layerName="Curva 5"/>
<path d="M785.589 936.342L305.56 762.286L304.806 739.416L785.394 911.151L785.589 936.342Z" fill="#ffb480" fill-rule="nonzero" opacity="1" stroke="#6f6f6f" stroke-linecap="butt" stroke-linejoin="round" stroke-width="9.48139" vectornator:layerName="Curva 6"/>
</g>
</g>
<g clip-path="url(#ArtboardFrame)" id="Capa-2" vectornator:layerName="Capa 2">
<path d="M1411.81 241.646C1411.81 107.713 1520.21-0.860794 1653.94-0.860794C1787.66-0.860794 1896.06 107.713 1896.06 241.646C1896.06 375.579 1787.66 484.153 1653.94 484.153C1520.21 484.153 1411.81 375.579 1411.81 241.646Z" fill="#ffbd8e" fill-rule="nonzero" opacity="1" stroke="none" vectornator:layerName="Óvalo 3"/>
<g fill="#ffffff" opacity="1" stroke="none" vectornator:layerName="Text 1">
<path d="M1519.11 184.51L1567.88 254.057L1565.91 182.564C1565.78 177.918 1566.68 174.406 1568.61 172.028C1570.54 169.65 1573.2 168.414 1576.59 168.321C1580.09 168.225 1582.88 169.31 1584.97 171.577C1587.06 173.845 1588.16 177.301 1588.29 181.947L1590.9 276.479C1591.19 287.029 1586.96 292.424 1578.21 292.664C1576.03 292.725 1574.05 292.465 1572.29 291.884C1570.52 291.304 1568.85 290.352 1567.28 289.027C1565.72 287.703 1564.25 286.143 1562.89 284.348C1561.53 282.553 1560.16 280.718 1558.8 278.841L1511.2 210.081L1513.14 280.509C1513.27 285.1 1512.3 288.6 1510.23 291.009C1508.16 293.418 1505.46 294.669 1502.13 294.761C1498.69 294.856 1495.89 293.743 1493.75 291.422C1491.61 289.102 1490.47 285.673 1490.35 281.137L1487.79 188.408C1487.69 184.473 1488.04 181.373 1488.85 179.107C1489.82 176.619 1491.49 174.563 1493.85 172.939C1496.21 171.315 1498.79 170.465 1501.57 170.388C1503.76 170.328 1505.64 170.631 1507.22 171.299C1508.8 171.967 1510.19 172.885 1511.4 174.056C1512.61 175.226 1513.85 176.75 1515.13 178.629C1516.42 180.509 1517.74 182.469 1519.11 184.51Z"/>
<path d="M1677.79 249.881L1634.01 251.087C1634.21 256.168 1635.35 260.622 1637.46 264.448C1639.56 268.274 1642.29 271.125 1645.65 273.002C1649.01 274.878 1652.69 275.762 1656.68 275.652C1659.36 275.578 1661.79 275.196 1663.99 274.507C1666.19 273.817 1668.3 272.774 1670.34 271.378C1672.38 269.981 1674.26 268.494 1675.97 266.915C1677.67 265.337 1679.88 263.197 1682.6 260.497C1683.72 259.481 1685.35 258.944 1687.48 258.885C1689.77 258.822 1691.65 259.4 1693.1 260.618C1694.56 261.836 1695.32 263.592 1695.38 265.888C1695.44 267.91 1694.71 270.296 1693.2 273.046C1691.69 275.795 1689.37 278.457 1686.24 281.032C1683.11 283.607 1679.15 285.781 1674.36 287.554C1669.57 289.327 1664.03 290.3 1657.74 290.473C1643.37 290.87 1632.08 287.078 1623.87 279.099C1615.66 271.12 1611.37 260.107 1610.98 246.06C1610.8 239.446 1611.61 233.284 1613.43 227.572C1615.24 221.861 1617.97 216.931 1621.63 212.782C1625.29 208.633 1629.85 205.404 1635.32 203.092C1640.78 200.781 1646.87 199.533 1653.59 199.348C1662.34 199.107 1669.89 200.745 1676.25 204.262C1682.61 207.779 1687.43 212.419 1690.7 218.182C1693.98 223.944 1695.7 229.859 1695.87 235.926C1696.03 241.556 1694.51 245.249 1691.33 247.005C1688.16 248.761 1683.64 249.719 1677.79 249.881ZM1633.66 238.379L1674.25 237.261C1673.49 229.623 1671.27 223.955 1667.58 220.255C1663.9 216.554 1659.13 214.785 1653.28 214.946C1647.71 215.1 1643.18 217.152 1639.71 221.105C1636.23 225.057 1634.22 230.815 1633.66 238.379Z"/>
<path d="M1725.8 211.471L1741.77 261.082L1753.77 214.229C1755.06 209.325 1756.02 205.975 1756.66 204.18C1757.29 202.385 1758.53 200.655 1760.37 198.991C1762.21 197.326 1764.77 196.449 1768.05 196.359C1771.39 196.267 1774.02 197.001 1775.95 198.562C1777.88 200.122 1779.25 201.835 1780.07 203.699C1780.89 205.564 1782.04 208.8 1783.54 213.409L1798.1 259.53L1811.48 209.111C1812.36 205.476 1813.08 202.844 1813.64 201.215C1814.2 199.586 1815.17 198.137 1816.56 196.868C1817.94 195.6 1819.98 194.928 1822.65 194.854C1825.33 194.781 1827.68 195.646 1829.7 197.45C1831.72 199.254 1832.76 201.413 1832.83 203.928C1832.9 206.223 1832.14 209.717 1830.58 214.41L1813.77 268.534C1812.31 273.114 1811.17 276.428 1810.35 278.474C1809.53 280.521 1808.2 282.362 1806.36 284C1804.52 285.637 1801.96 286.5 1798.68 286.591C1795.29 286.684 1792.6 285.91 1790.62 284.269C1788.63 282.628 1787.14 280.591 1786.14 278.157C1785.14 275.723 1784.04 272.553 1782.84 268.648L1768.85 225.382L1757.67 269.341C1756.2 275.453 1754.55 280.08 1752.72 283.221C1750.89 286.362 1747.57 287.999 1742.76 288.131C1740.3 288.199 1738.2 287.778 1736.45 286.869C1734.7 285.96 1733.23 284.633 1732.04 282.888C1730.84 281.144 1729.77 279.067 1728.83 276.659C1727.89 274.251 1727.15 272.343 1726.62 270.935L1707.02 217.814C1705.08 212.835 1704.08 209.389 1704.03 207.476C1703.96 205.071 1704.86 202.886 1706.72 200.92C1708.58 198.954 1710.91 197.933 1713.69 197.856C1717.41 197.754 1719.95 198.737 1721.32 200.805C1722.69 202.873 1724.19 206.429 1725.8 211.471Z"/>
</g>
<path d="M784.764 882.372L784.764 428.376L1408.44 217.593L1408.44 655.374L784.764 882.372Z" fill="#c8c8c8" fill-rule="nonzero" opacity="1" stroke="#6f6f6f" stroke-linecap="butt" stroke-linejoin="round" stroke-width="9.48139" vectornator:layerName="Curva 5"/>
<path d="M349.354 269.206L349.354 723.202L784.764 882.372L784.764 428.376L349.354 269.206Z" fill="#b1b1b1" fill-rule="nonzero" opacity="1" stroke="#6f6f6f" stroke-linecap="butt" stroke-linejoin="round" stroke-width="9.48139" vectornator:layerName="Curva 6"/>
<path d="M740.216 379.734L740.216 412.162L1363.89 185.164L1363.89 152.736L740.216 379.734Z" fill="#797979" fill-rule="nonzero" opacity="1" stroke="#6f6f6f" stroke-linecap="butt" stroke-linejoin="round" stroke-width="9.48139" vectornator:layerName="Curva 7"/>
<path d="M349.354 236.778L349.354 269.206L740.216 412.162L740.216 379.734L349.354 236.778Z" fill="#797979" fill-rule="nonzero" opacity="1" stroke="#6f6f6f" stroke-linecap="butt" stroke-linejoin="round" stroke-width="9.48139" vectornator:layerName="Curva 8"/>
<path d="M851.586 858.051L851.586 549.982L1029.78 485.126L1029.78 793.194L851.586 858.051Z" fill="#fff8f3" fill-rule="nonzero" opacity="1" stroke="#6f6f6f" stroke-linecap="butt" stroke-linejoin="round" stroke-width="9.48139" vectornator:layerName="Curva 29"/>
<path d="M1074.33 679.695L1074.33 468.912L1341.61 371.627L1341.61 582.411L1074.33 679.695Z" fill="#fff8f3" fill-rule="nonzero" opacity="1" stroke="#6f6f6f" stroke-linecap="butt" stroke-linejoin="round" stroke-width="9.48139" vectornator:layerName="Curva 30"/>
<path d="M1319.34 379.734L1319.34 574.304L1341.61 582.411L1319.34 574.304L1074.33 663.481L1074.33 679.695L1341.61 582.411L1341.61 371.627L1319.34 379.734Z" fill="#8a8a8a" fill-rule="nonzero" opacity="1" stroke="#6f6f6f" stroke-linecap="butt" stroke-linejoin="round" stroke-width="9.48139" vectornator:layerName="Curva 31"/>
<path d="M1007.5 493.233L1007.6 801.373L1029.78 793.194L1029.78 793.194L1029.78 485.126L1007.5 493.233Z" fill="#8a8a8a" fill-rule="nonzero" opacity="1" stroke="#6f6f6f" stroke-linecap="butt" stroke-linejoin="round" stroke-width="9.48139" vectornator:layerName="Curva 33"/>
<path d="M740.216 379.734L1363.89 152.736L975.18 8.26771L349.354 236.778L740.216 379.734Z" fill="#c8c8c8" fill-rule="nonzero" opacity="1" stroke="#6f6f6f" stroke-linecap="butt" stroke-linejoin="round" stroke-width="9.48139" vectornator:layerName="Curva 11"/>
<path d="M740.216 412.162L784.764 428.376L1397.3 205.432L1363.89 185.164L740.216 412.162Z" fill="#acacac" fill-rule="nonzero" opacity="1" stroke="#6f6f6f" stroke-linecap="butt" stroke-linejoin="round" stroke-width="9.48139" vectornator:layerName="Curva 12"/>
<path d="M784.764 525.51L784.764 566.406C784.764 597.549 808.488 614.16 837.752 603.509L865.712 593.332C882.514 587.217 896.134 567.764 896.134 549.884L896.134 484.975L784.764 525.51Z" fill="#ffa361" fill-rule="nonzero" opacity="1" stroke="#6f6f6f" stroke-linecap="butt" stroke-linejoin="round" stroke-width="9.48139" vectornator:layerName="Curva 13"/>
<path d="M739.832 412.107L784.764 525.51L896.134 484.975L840.449 375.529L739.832 412.107Z" fill="#ffb580" fill-rule="nonzero" opacity="1" stroke="#6f6f6f" stroke-linecap="butt" stroke-linejoin="round" stroke-width="9.48139" vectornator:layerName="Curva 14"/>
<path d="M726.849 408.381L740.196 412.65L784.913 524.719L774.699 528.104C774.699 528.104 726.685 407.871 726.849 408.381Z" fill="#ffb580" fill-rule="nonzero" opacity="1" stroke="#6f6f6f" stroke-linecap="butt" stroke-linejoin="round" stroke-width="8.13202" vectornator:layerName="Curva 27"/>
<path d="M784.9 525.568L784.929 568.534C784.929 568.534 785.77 602.974 821.168 607.206C781.221 609.071 775.825 568.95 775.825 568.95C775.163 565.856 774.906 529.494 774.906 529.494L784.9 525.568Z" fill="#ffb580" fill-rule="nonzero" opacity="1" stroke="#6f6f6f" stroke-linecap="butt" stroke-linejoin="round" stroke-width="8.13202" vectornator:layerName="Curva 28"/>
<path d="M896.134 484.975L896.134 525.871C896.134 557.013 919.858 573.625 949.122 562.973L977.081 552.797C993.883 546.682 1007.5 527.229 1007.5 509.349L1007.5 444.439L896.134 484.975Z" fill="#d4d4d4" fill-rule="nonzero" opacity="1" stroke="#6f6f6f" stroke-linecap="butt" stroke-linejoin="round" stroke-width="9.48139" vectornator:layerName="Curva 15"/>
<path d="M834.881 377.707L896.134 484.975L1007.5 444.439L929.545 343.101L834.881 377.707Z" fill="#ffffff" fill-rule="nonzero" opacity="1" stroke="#6f6f6f" stroke-linecap="butt" stroke-linejoin="round" stroke-width="9.48139" vectornator:layerName="Curva 16"/>
<path d="M1007.5 444.439L1007.5 485.336C1007.5 516.478 1031.23 533.089 1060.49 522.438L1077.31 516.315C1094.12 510.2 1107.74 490.747 1107.74 472.867L1107.74 407.957L1007.5 444.439Z" fill="#ffa361" fill-rule="nonzero" opacity="1" stroke="#6f6f6f" stroke-linecap="butt" stroke-linejoin="round" stroke-width="9.48139" vectornator:layerName="Curva 17"/>
<path d="M929.545 343.101L1007.5 444.439L1107.74 407.957L1018.64 310.673L929.545 343.101Z" fill="#ffb580" fill-rule="nonzero" opacity="1" stroke="#6f6f6f" stroke-linecap="butt" stroke-linejoin="round" stroke-width="9.48139" vectornator:layerName="Curva 18"/>
<path d="M1107.74 407.957L1107.74 448.854C1107.74 479.996 1131.46 496.608 1160.72 485.956L1166.41 483.887C1183.21 477.771 1196.83 458.319 1196.83 440.439L1196.83 375.529L1107.74 407.957Z" fill="#d4d4d4" fill-rule="nonzero" opacity="1" stroke="#6f6f6f" stroke-linecap="butt" stroke-linejoin="round" stroke-width="9.48139" vectornator:layerName="Curva 19"/>
<path d="M1018.64 310.673L1107.74 407.957L1196.83 375.529L1107.74 278.244L1018.64 310.673Z" fill="#ffffff" fill-rule="nonzero" opacity="1" stroke="#6f6f6f" stroke-linecap="butt" stroke-linejoin="round" stroke-width="9.48139" vectornator:layerName="Curva 20"/>
<path d="M1196.83 375.529L1196.83 416.425C1196.83 447.568 1220.56 464.179 1249.82 453.528L1266.64 447.405C1283.45 441.29 1297.07 421.837 1297.07 403.957L1297.07 339.047L1196.83 375.529Z" fill="#ffa361" fill-rule="nonzero" opacity="1" stroke="#6f6f6f" stroke-linecap="butt" stroke-linejoin="round" stroke-width="9.48139" vectornator:layerName="Curva 21"/>
<path d="M1107.74 278.244L1196.83 375.529L1297.07 339.047L1196.83 245.816L1107.74 278.244Z" fill="#ffb580" fill-rule="nonzero" opacity="1" stroke="#6f6f6f" stroke-linecap="butt" stroke-linejoin="round" stroke-width="9.48139" vectornator:layerName="Curva 22"/>
<path d="M1297.07 339.047L1297.07 379.944C1297.07 411.086 1320.79 427.697 1350.05 417.046L1366.88 410.923C1383.68 404.808 1397.3 385.355 1397.3 367.475L1397.3 302.565L1297.07 339.047Z" fill="#d4d4d4" fill-rule="nonzero" opacity="1" stroke="#6f6f6f" stroke-linecap="butt" stroke-linejoin="round" stroke-width="9.48139" vectornator:layerName="Curva 23"/>
<path d="M1196.83 245.816L1297.07 339.047L1397.3 302.565L1285.93 213.388L1196.83 245.816Z" fill="#ffffff" fill-rule="nonzero" opacity="1" stroke="#6f6f6f" stroke-linecap="butt" stroke-linejoin="round" stroke-width="9.48139" vectornator:layerName="Curva 24"/>
<path d="M1397.3 302.565L1397.3 343.101C1397.3 374.243 1423.72 390.234 1452.98 379.583L1461.54 376.619C1478.34 370.504 1491.96 351.052 1491.96 333.171L1491.96 268.262L1397.3 302.565Z" fill="#ffa361" fill-rule="nonzero" opacity="1" stroke="#6f6f6f" stroke-linecap="butt" stroke-linejoin="round" stroke-width="9.48139" vectornator:layerName="Curva 25"/>
<path d="M1285.93 213.388L1397.3 302.565L1491.96 268.262L1363.89 185.164L1285.93 213.388Z" fill="#ffb580" fill-rule="nonzero" opacity="1" stroke="#6f6f6f" stroke-linecap="butt" stroke-linejoin="round" stroke-width="9.48139" vectornator:layerName="Curva 26"/>
<path d="M561.226 438.124C561.226 438.124 578.672 436.901 586.159 439.37L586.521 439.463C603.364 443.011 620.696 451.252 632.82 462.467C646.182 474.828 657.159 492.055 662.179 509.269C667.553 527.708 669.646 545.938 664.772 565.214C663.713 569.404 661.733 577.537 652.293 594.67C652.293 594.67 640.581 616.184 640.254 616.898C638.869 619.927 627.709 642.821 624.492 652.437C622.688 657.828 615.474 658.439 562.541 679.162C547.037 685.231 543.546 684.458 538.42 673.88C537.879 672.765 535.435 667.96 534.92 667.08C529.314 657.498 532.983 656.572 532.983 656.572C535.652 653.05 584.138 634.607 590.753 631.81C597.801 628.975 598.751 625.473 595.529 618.013C590.733 606.912 585.191 610.614 582.862 611.292C576.388 613.175 546.322 624.969 525.376 633.264C519.772 635.484 519.346 636.286 513.696 631.47C505.682 624.64 500.4 618.339 500.085 617.993C496.88 614.47 489.347 604.75 489.29 604.677C489.082 604.411 488.097 603.339 487.232 602.134C484.779 598.719 483.155 596.371 480.823 592.334C475.692 583.455 471.918 575.086 470.078 566.266C469.903 565.428 469.75 564.589 469.607 563.758C465.992 542.813 468.416 524.393 474.003 507.998C479.282 492.505 488.005 478.987 500.314 466.373C506.407 460.128 513.215 454.977 520.654 450.679C526.319 447.406 531.873 444.867 538.16 442.455C543.965 440.227 552.411 438.701 561.226 438.124Z" fill="#888888" fill-rule="nonzero" opacity="1" stroke="none" vectornator:layerName="Curva 34"/>
<path d="M620.352 694.938C619.553 698.929 618.238 703.109 616.415 706.13C615.114 708.287 610.716 714.962 597.26 720.634C581.921 727.1 575.617 724.744 574.127 724.394C571.72 723.828 568.109 723.286 563.752 719.967L563.636 719.864C556.37 713.28 554.814 705.765 559.409 703.663C577.072 695.587 614.066 682.771 614.066 682.771C620.351 681.14 623.188 680.76 620.352 694.938Z" fill="#888888" fill-rule="nonzero" opacity="1" stroke="none" vectornator:layerName="Curva 35"/>
</g>
<g clip-path="url(#ArtboardFrame)" id="Capa-4" vectornator:layerName="Capa 4" visibility="hidden">
<path d="M751.754 889.252L751.754 923.454L1456.52 666.939L1409.54 649.838L751.754 889.252Z" fill="#ffd8bc" fill-rule="nonzero" opacity="1" stroke="#6f6f6f" stroke-linecap="butt" stroke-linejoin="round" stroke-width="10" vectornator:layerName="Curva 3"/>
<path d="M1456.52 701.141L751.754 957.656L751.754 923.454L1456.52 666.939L1456.52 701.141Z" fill="#ffb480" fill-rule="nonzero" opacity="1" stroke="#6f6f6f" stroke-linecap="butt" stroke-linejoin="round" stroke-width="10" vectornator:layerName="Curva 4"/>
<path d="M234.923 735.343L751.754 923.454L751.754 889.252L281.908 718.242L234.923 735.343Z" fill="#ffd8bc" fill-rule="nonzero" opacity="1" stroke="#6f6f6f" stroke-linecap="butt" stroke-linejoin="round" stroke-width="10" vectornator:layerName="Curva 5"/>
<path d="M751.754 957.656L234.923 769.545L234.923 735.343L751.754 923.454L751.754 957.656Z" fill="#ffb480" fill-rule="nonzero" opacity="1" stroke="#6f6f6f" stroke-linecap="butt" stroke-linejoin="round" stroke-width="10" vectornator:layerName="Curva 6"/>
<path d="M281.908 239.414L939.693 7.54952e-15C939.693 7.54952e-15 1397.79 175.285 1397.79 175.285C1397.79 175.285 751.754 410.424 751.754 410.424L281.908 239.414Z" fill="none" opacity="1" stroke="#6f6f6f" stroke-linecap="butt" stroke-linejoin="round" stroke-width="10" vectornator:layerName="Curva 7"/>
<path d="M751.754 889.252L751.754 410.424L1409.54 188.111L1409.54 649.838L751.754 889.252Z" fill="#b7b7b7" fill-rule="nonzero" opacity="1" stroke="#6f6f6f" stroke-linecap="butt" stroke-linejoin="round" stroke-width="10" vectornator:layerName="Curva 8"/>
<path d="M281.908 239.414L281.908 718.242L751.754 889.252L751.754 410.424L281.908 239.414Z" fill="#a5a5a5" fill-rule="nonzero" opacity="1" stroke="#6f6f6f" stroke-linecap="butt" stroke-linejoin="round" stroke-width="10" vectornator:layerName="Curva 9"/>
<path d="M704.769 359.121L704.769 393.323L1362.55 153.909L1362.55 119.707L704.769 359.121Z" fill="#797979" fill-rule="nonzero" opacity="1" stroke="#6f6f6f" stroke-linecap="butt" stroke-linejoin="round" stroke-width="10" vectornator:layerName="Curva 10"/>
<path d="M281.908 205.212L281.908 239.414L704.769 393.323L704.769 359.121L281.908 205.212Z" fill="#797979" fill-rule="nonzero" opacity="1" stroke="#6f6f6f" stroke-linecap="butt" stroke-linejoin="round" stroke-width="10" vectornator:layerName="Curva 11"/>
<path d="M822.231 863.601L822.231 538.682L1010.17 470.278L1010.17 795.197L822.231 863.601Z" fill="#fff2e9" fill-rule="nonzero" opacity="1" stroke="#6f6f6f" stroke-linecap="butt" stroke-linejoin="round" stroke-width="10" vectornator:layerName="Curva 13"/>
<path d="M1057.15 675.49L1057.15 453.177L1339.06 350.571L1339.06 572.884L1057.15 675.49Z" fill="#fff2e9" fill-rule="nonzero" opacity="1" stroke="#6f6f6f" stroke-linecap="butt" stroke-linejoin="round" stroke-width="10" vectornator:layerName="Curva 14"/>
<path d="M1315.57 359.121L1315.57 564.333L1339.06 572.884L1315.57 564.333L1057.15 658.389L1057.15 675.49L1339.06 572.884L1339.06 350.571L1315.57 359.121Z" fill="#8a8a8a" fill-rule="nonzero" opacity="1" stroke="#6f6f6f" stroke-linecap="butt" stroke-linejoin="round" stroke-width="10" vectornator:layerName="Curva 15"/>
<path d="M986.677 478.828L986.774 803.823L1010.17 795.197L1010.17 795.197L1010.17 470.278L986.677 478.828Z" fill="#8a8a8a" fill-rule="nonzero" opacity="1" stroke="#6f6f6f" stroke-linecap="butt" stroke-linejoin="round" stroke-width="10" vectornator:layerName="Curva 16"/>
<path d="M704.769 359.121L1362.55 119.707L939.693-34.202L281.908 205.212L704.769 359.121Z" fill="#b7b7b7" fill-rule="nonzero" opacity="1" stroke="#6f6f6f" stroke-linecap="butt" stroke-linejoin="round" stroke-width="10" vectornator:layerName="Curva 17"/>
<path d="M704.769 393.323L751.754 410.424L1397.79 175.285L1362.55 153.909L704.769 393.323Z" fill="#acacac" fill-rule="nonzero" opacity="1" stroke="#6f6f6f" stroke-linecap="butt" stroke-linejoin="round" stroke-width="10" vectornator:layerName="Curva 18"/>
<path d="M751.754 512.871L751.754 556.004C751.754 588.85 776.775 606.37 807.64 595.136L837.129 584.403C854.85 577.953 869.216 557.437 869.216 538.578L869.216 470.118L751.754 512.871Z" fill="#ffa361" fill-rule="nonzero" opacity="1" stroke="#6f6f6f" stroke-linecap="butt" stroke-linejoin="round" stroke-width="10" vectornator:layerName="Curva 19"/>
<path d="M704.364 393.265L751.754 512.871L869.216 470.118L810.485 354.686L704.364 393.265Z" fill="#ffb580" fill-rule="nonzero" opacity="1" stroke="#6f6f6f" stroke-linecap="butt" stroke-linejoin="round" stroke-width="10" vectornator:layerName="Curva 20"/>
<path d="M699.528 395.327L704.748 393.838L751.911 512.036L740.932 517.487C740.932 517.487 699.355 394.789 699.528 395.327Z" fill="#ffb580" fill-rule="nonzero" opacity="1" stroke="#6f6f6f" stroke-linecap="butt" stroke-linejoin="round" stroke-width="8.57682" vectornator:layerName="Curva 21"/>
<path d="M751.897 512.932L751.927 558.249C751.927 558.249 752.815 594.572 790.149 599.035C748.017 601.002 742.326 558.686 742.326 558.686C741.627 555.423 741.357 517.073 741.357 517.073L751.897 512.932Z" fill="#ffb580" fill-rule="nonzero" opacity="1" stroke="#6f6f6f" stroke-linecap="butt" stroke-linejoin="round" stroke-width="8.57682" vectornator:layerName="Curva 22"/>
<path d="M869.216 470.118L869.216 513.251C869.216 546.097 894.237 563.617 925.102 552.383L954.591 541.65C972.312 535.2 986.677 514.684 986.677 495.826L986.677 427.366L869.216 470.118Z" fill="#d4d4d4" fill-rule="nonzero" opacity="1" stroke="#6f6f6f" stroke-linecap="butt" stroke-linejoin="round" stroke-width="10" vectornator:layerName="Curva 23"/>
<path d="M804.612 356.984L869.216 470.118L986.677 427.366L904.454 320.484L804.612 356.984Z" fill="#ffffff" fill-rule="nonzero" opacity="1" stroke="#6f6f6f" stroke-linecap="butt" stroke-linejoin="round" stroke-width="10" vectornator:layerName="Curva 24"/>
<path d="M986.677 427.366L986.677 470.499C986.677 503.345 1011.7 520.865 1042.56 509.631L1060.31 503.173C1078.03 496.723 1092.39 476.207 1092.39 457.348L1092.39 388.888L986.677 427.366Z" fill="#ffa361" fill-rule="nonzero" opacity="1" stroke="#6f6f6f" stroke-linecap="butt" stroke-linejoin="round" stroke-width="10" vectornator:layerName="Curva 25"/>
<path d="M904.454 320.484L986.677 427.366L1092.39 388.888L998.423 286.282L904.454 320.484Z" fill="#ffb580" fill-rule="nonzero" opacity="1" stroke="#6f6f6f" stroke-linecap="butt" stroke-linejoin="round" stroke-width="10" vectornator:layerName="Curva 26"/>
<path d="M1092.39 388.888L1092.39 432.022C1092.39 464.868 1117.41 482.387 1148.28 471.154L1154.28 468.971C1172 462.521 1186.36 442.005 1186.36 423.146L1186.36 354.686L1092.39 388.888Z" fill="#d4d4d4" fill-rule="nonzero" opacity="1" stroke="#6f6f6f" stroke-linecap="butt" stroke-linejoin="round" stroke-width="10" vectornator:layerName="Curva 27"/>
<path d="M998.423 286.282L1092.39 388.888L1186.36 354.686L1092.39 252.08L998.423 286.282Z" fill="#ffffff" fill-rule="nonzero" opacity="1" stroke="#6f6f6f" stroke-linecap="butt" stroke-linejoin="round" stroke-width="10" vectornator:layerName="Curva 28"/>
<path d="M1186.36 354.686L1186.36 397.82C1186.36 430.666 1211.38 448.185 1242.25 436.952L1259.99 430.494C1277.71 424.044 1292.08 403.527 1292.08 384.669L1292.08 316.209L1186.36 354.686Z" fill="#ffa361" fill-rule="nonzero" opacity="1" stroke="#6f6f6f" stroke-linecap="butt" stroke-linejoin="round" stroke-width="10" vectornator:layerName="Curva 29"/>
<path d="M1092.39 252.08L1186.36 354.686L1292.08 316.209L1186.36 217.878L1092.39 252.08Z" fill="#ffb580" fill-rule="nonzero" opacity="1" stroke="#6f6f6f" stroke-linecap="butt" stroke-linejoin="round" stroke-width="10" vectornator:layerName="Curva 30"/>
<path d="M1292.08 316.209L1292.08 359.342C1292.08 392.188 1317.1 409.708 1347.96 398.474L1365.71 392.016C1383.43 385.567 1397.79 365.05 1397.79 346.192L1397.79 277.732L1292.08 316.209Z" fill="#d4d4d4" fill-rule="nonzero" opacity="1" stroke="#6f6f6f" stroke-linecap="butt" stroke-linejoin="round" stroke-width="10" vectornator:layerName="Curva 31"/>
<path d="M1186.36 217.878L1292.08 316.209L1397.79 277.732L1280.33 183.676L1186.36 217.878Z" fill="#ffffff" fill-rule="nonzero" opacity="1" stroke="#6f6f6f" stroke-linecap="butt" stroke-linejoin="round" stroke-width="10" vectornator:layerName="Curva 32"/>
<path d="M1397.79 277.732L1397.79 320.484C1397.79 353.33 1425.66 370.196 1456.52 358.962L1465.55 355.836C1483.27 349.386 1497.64 328.87 1497.64 310.012L1497.64 241.552L1397.79 277.732Z" fill="#ffa361" fill-rule="nonzero" opacity="1" stroke="#6f6f6f" stroke-linecap="butt" stroke-linejoin="round" stroke-width="10" vectornator:layerName="Curva 33"/>
<path d="M1280.33 183.676L1397.79 277.732L1497.64 241.552L1362.55 153.909L1280.33 183.676Z" fill="#ffb580" fill-rule="nonzero" opacity="1" stroke="#6f6f6f" stroke-linecap="butt" stroke-linejoin="round" stroke-width="10" vectornator:layerName="Curva 34"/>
</g>
</svg>
