<?xml version="1.0" encoding="UTF-8" standalone="no"?>
<!DOCTYPE svg PUBLIC "-//W3C//DTD SVG 1.1//EN" "http://www.w3.org/Graphics/SVG/1.1/DTD/svg11.dtd">
<!-- Created with Vectornator (http://vectornator.io/) -->
<svg height="100%" stroke-miterlimit="10" style="fill-rule:nonzero;clip-rule:evenodd;stroke-linecap:round;stroke-linejoin:round;" version="1.1" viewBox="0 0 2050 1024" width="100%" xml:space="preserve" xmlns="http://www.w3.org/2000/svg" xmlns:vectornator="http://vectornator.io" xmlns:xlink="http://www.w3.org/1999/xlink">
<defs>
<path d="M1643.85 441.9C2024.4 535.01 2154.54 757.82 1970.31 884.327C1659.93 1097.46 1160.83 1011.89 889.787 951.187C800.431 931.176 758.917 919.854 584 949.496C389.034 982.537 153.424 933.124 76.0019 881.927C-10.455 824.756-31.5013 730.948 68.7562 644.47C286.467 456.681 1088.49 417.68 1448.18 421.47C1555.7 422.603 1643.85 441.9 1643.85 441.9Z" id="Fill"/>
</defs>
<clipPath id="ArtboardFrame">
<rect height="1024" width="2050" x="0" y="0"/>
</clipPath>
<g clip-path="url(#ArtboardFrame)" id="Capa-1" vectornator:layerName="Capa 1">
<use fill="#eeeeee" fill-rule="nonzero" opacity="1" stroke="none" vectornator:layerName="Curva 1" xlink:href="#Fill"/>
<clipPath clip-rule="nonzero" id="ClipPath">
<use xlink:href="#Fill"/>
</clipPath>
<g clip-path="url(#ClipPath)">
<path d="M1718.08 767.281C1715.82 790.663 1713.32 802.853 1688.92 814.839C1688.92 814.839 1395.9 937.457 1308.27 965.444C1299.35 968.293 1291.98 971.014 1281.53 971.014C1271.08 971.014 1267.08 969.524 1258.91 967.181C1187.27 946.627 878.915 831.521 853.919 818.967C853.919 818.967 841.825 809.945 842.994 795.615C844.539 776.674 864.798 768.236 864.798 768.236C944.779 727.951 1149.31 643.885 1149.31 643.885L1718.08 767.281Z" fill="#c9c5c1" fill-rule="nonzero" opacity="1" stroke="none" vectornator:layerName="Curva 4"/>
</g>
</g>
<g id="Capa-3" vectornator:layerName="Capa 3">
<path d="M985.369 786.715L985.369 355.145L1380.61 211.289L1709.98 331.169L1709.98 762.739L1314.74 906.595" fill="#ffbb89" fill-rule="nonzero" opacity="1" stroke="none" vectornator:layerName="Curva 1"/>
<path d="M1314.74 906.595L1709.98 762.739L1709.98 331.169L1314.74 475.026L985.369 355.145L985.369 786.715L1314.74 906.595Z" fill="none" opacity="1" stroke="#83786c" stroke-linecap="butt" stroke-linejoin="round" stroke-width="12" vectornator:layerName="Curva 3"/>
<path d="M1709.98 331.169L1380.61 211.289L985.369 355.145L1182.99 283.217L1512.36 403.097" fill="none" opacity="1" stroke="#83786c" stroke-linecap="butt" stroke-linejoin="round" stroke-width="12" vectornator:layerName="Curva 4"/>
<path d="M1314.93 597.823C1314.93 672.627 1314.74 906.595 1314.74 906.595C1314.74 906.595 1314.93 523.02 1314.93 597.823Z" fill="none" opacity="1" stroke="#83786c" stroke-linecap="butt" stroke-linejoin="round" stroke-width="12" vectornator:layerName="Curva 5"/>
<g opacity="1" vectornator:layerName="Curva 2">
<path d="M1314.72 475.375C1311.5 475.381 1308.9 478.003 1308.91 481.219C1308.9 500.133 1308.88 519.024 1308.88 537.938C1308.88 541.226 1311.55 543.912 1314.84 543.906C1318.13 543.9 1320.79 541.226 1320.78 537.938C1320.7 519.024 1320.64 500.101 1320.56 481.188C1320.56 477.972 1317.93 475.369 1314.72 475.375Z" fill="#83786c" stroke="none"/>
</g>
<g opacity="1" vectornator:layerName="Curva 6">
<path d="M1032.94 748.5C1030.62 748.627 1028.49 750.116 1027.66 752.438C1026.54 755.532 1028.12 758.918 1031.22 760.031C1053.86 768.13 1076.51 776.245 1099.16 784.344C1102.18 785.432 1105.54 783.87 1106.62 780.844C1107.71 777.818 1106.12 774.464 1103.09 773.375C1080.48 765.193 1057.86 757.026 1035.25 748.844C1034.48 748.565 1033.71 748.458 1032.94 748.5Z" fill="#83786c" stroke="none"/>
</g>
<path d="M1561.79 333.928C1560.51 347.195 1559.09 354.113 1545.24 360.914C1545.24 360.914 1378.97 430.493 1329.25 446.374C1324.19 447.99 1320 449.534 1314.07 449.534C1308.14 449.534 1305.87 448.689 1301.24 447.36C1260.59 435.696 1085.61 370.38 1071.43 363.257C1071.43 363.257 1064.57 358.137 1065.23 350.005C1066.11 339.257 1077.6 334.469 1077.6 334.469C1122.99 311.61 1239.04 263.907 1239.04 263.907L1561.79 333.928Z" fill="#44403c" fill-rule="nonzero" opacity="0.263462" stroke="none" vectornator:layerName="Curva 24"/>
<path d="M1526.73 509.34C1526.73 509.34 1539.66 508.434 1545.21 510.265L1545.48 510.333C1557.97 512.964 1570.82 519.075 1579.81 527.391C1589.72 536.556 1597.86 549.329 1601.58 562.093C1605.57 575.765 1607.12 589.282 1603.5 603.575C1602.72 606.682 1601.25 612.712 1594.25 625.415C1594.25 625.415 1585.57 641.368 1585.32 641.897C1584.3 644.143 1576.02 661.119 1573.64 668.249C1572.3 672.246 1566.95 672.699 1527.7 688.064C1516.21 692.565 1513.62 691.991 1509.82 684.148C1509.42 683.321 1507.6 679.758 1507.22 679.106C1503.07 672.001 1505.79 671.314 1505.79 671.314C1507.76 668.703 1543.72 655.028 1548.62 652.954C1553.85 650.852 1554.55 648.255 1552.16 642.724C1548.61 634.493 1544.5 637.238 1542.77 637.74C1537.97 639.137 1515.68 647.881 1500.15 654.032C1495.99 655.678 1495.67 656.273 1491.48 652.702C1485.54 647.637 1481.63 642.965 1481.39 642.709C1479.02 640.097 1473.43 632.89 1473.39 632.835C1473.23 632.638 1472.5 631.843 1471.86 630.95C1470.04 628.418 1468.84 626.677 1467.11 623.684C1463.31 617.1 1460.51 610.894 1459.14 604.355C1459.01 603.733 1458.9 603.111 1458.79 602.495C1456.11 586.965 1457.91 573.307 1462.05 561.15C1465.97 549.663 1472.44 539.639 1481.56 530.286C1486.08 525.656 1491.13 521.837 1496.64 518.65C1500.84 516.223 1504.96 514.341 1509.62 512.552C1513.93 510.9 1520.19 509.768 1526.73 509.34Z" fill="#807165" fill-rule="nonzero" opacity="1" stroke="none" vectornator:layerName="Curva 2"/>
<path d="M1570.57 699.762C1569.98 702.721 1569 705.82 1567.65 708.061C1566.68 709.659 1563.42 714.609 1553.45 718.815C1542.07 723.609 1537.4 721.862 1536.29 721.603C1534.51 721.183 1531.83 720.781 1528.6 718.32L1528.51 718.244C1523.13 713.362 1521.97 707.789 1525.38 706.231C1538.48 700.243 1565.91 690.741 1565.91 690.741C1570.57 689.531 1572.67 689.25 1570.57 699.762Z" fill="#807165" fill-rule="nonzero" opacity="1" stroke="none" vectornator:layerName="Curva 3"/>
<path d="M1144.59 344.436L1144.59 100.486L1368 19.1694L1554.18 86.9333L1554.18 330.883L1330.77 412.2" fill="#ffb27a" fill-rule="nonzero" opacity="1" stroke="none" vectornator:layerName="Curva 7"/>
<path d="M1330.77 412.2L1554.18 330.883L1554.18 86.9333L1330.77 168.25L1144.59 100.486L1144.59 344.436L1330.77 412.2Z" fill="none" opacity="1" stroke="#83786c" stroke-linecap="butt" stroke-linejoin="round" stroke-width="12" vectornator:layerName="Curva 8"/>
<path d="M1554.18 86.9333L1368 19.1694L1144.59 100.486L1256.29 59.8278L1442.47 127.592" fill="#ffbb89" fill-rule="nonzero" opacity="1" stroke="#83786c" stroke-linecap="butt" stroke-linejoin="round" stroke-width="12" vectornator:layerName="Curva 9"/>
<path d="M1330.87 237.663C1330.87 279.946 1330.77 412.2 1330.77 412.2C1330.77 412.2 1330.87 195.38 1330.87 237.663Z" fill="none" opacity="1" stroke="#83786c" stroke-linecap="butt" stroke-linejoin="round" stroke-width="12" vectornator:layerName="Curva 10"/>
<g opacity="1" vectornator:layerName="Curva 11">
<path d="M1330.75 165.906C1327.53 165.912 1324.93 168.534 1324.94 171.75C1324.91 182.441 1324.9 193.121 1324.88 203.812C1324.88 207.101 1327.55 209.787 1330.84 209.781C1334.13 209.775 1336.79 207.101 1336.78 203.812C1336.72 193.121 1336.66 182.41 1336.59 171.719C1336.59 168.503 1333.97 165.9 1330.75 165.906Z" fill="#83786c" stroke="none"/>
</g>
<g opacity="1" vectornator:layerName="Curva 12">
<path d="M1181.81 314.094C1178.92 314.253 1176.26 316.13 1175.22 319.031C1173.83 322.899 1175.82 327.14 1179.69 328.531C1192.5 333.081 1205.32 337.638 1218.12 342.188C1221.91 343.548 1226.08 341.595 1227.44 337.812C1228.8 334.03 1226.84 329.861 1223.06 328.5C1210.29 323.847 1197.52 319.185 1184.75 314.531C1183.78 314.183 1182.78 314.041 1181.81 314.094Z" fill="#836956" stroke="none"/>
</g>
<path d="M1450.6 187.647C1450.6 187.647 1457.91 187.134 1461.05 188.169L1461.2 188.208C1468.26 189.695 1475.52 193.149 1480.6 197.85C1486.2 203.031 1490.8 210.251 1492.91 217.466C1495.16 225.194 1496.04 232.835 1494 240.914C1493.55 242.67 1492.72 246.079 1488.76 253.26C1488.76 253.26 1483.86 262.277 1483.72 262.576C1483.14 263.846 1478.46 273.441 1477.11 277.472C1476.36 279.731 1473.33 279.987 1451.15 288.673C1444.65 291.217 1443.19 290.892 1441.04 286.459C1440.81 285.992 1439.79 283.978 1439.57 283.609C1437.22 279.593 1438.76 279.205 1438.76 279.205C1439.88 277.729 1460.2 269.999 1462.97 268.826C1465.93 267.638 1466.32 266.17 1464.97 263.043C1462.96 258.391 1460.64 259.943 1459.66 260.227C1456.95 261.016 1444.35 265.959 1435.57 269.436C1433.22 270.366 1433.04 270.702 1430.68 268.684C1427.32 265.821 1425.1 263.18 1424.97 263.035C1423.63 261.559 1420.47 257.485 1420.45 257.454C1420.36 257.342 1419.95 256.893 1419.58 256.388C1418.56 254.957 1417.87 253.973 1416.9 252.281C1414.75 248.559 1413.16 245.052 1412.39 241.355C1412.32 241.004 1412.26 240.652 1412.2 240.304C1410.68 231.525 1411.7 223.805 1414.04 216.933C1416.25 210.44 1419.91 204.774 1425.07 199.487C1427.62 196.869 1430.47 194.71 1433.59 192.909C1435.97 191.537 1438.29 190.473 1440.93 189.462C1443.36 188.529 1446.9 187.889 1450.6 187.647Z" fill="#807165" fill-rule="nonzero" opacity="1" stroke="none" vectornator:layerName="Curva 13"/>
<path d="M1475.38 295.285C1475.04 296.958 1474.49 298.709 1473.73 299.976C1473.18 300.88 1471.34 303.678 1465.7 306.055C1459.27 308.765 1456.63 307.778 1456 307.631C1454.99 307.394 1453.48 307.167 1451.66 305.775L1451.61 305.732C1448.56 302.973 1447.91 299.823 1449.83 298.942C1457.24 295.557 1472.74 290.186 1472.74 290.186C1475.38 289.502 1476.57 289.343 1475.38 295.285Z" fill="#807165" fill-rule="nonzero" opacity="1" stroke="none" vectornator:layerName="Curva 14"/>
<path d="M817.388 690.213C815.789 706.782 812.857 714.247 795.565 722.741C795.565 722.741 589.075 810.807 526.979 830.64C520.659 832.659 515.436 834.587 508.03 834.587C500.624 834.587 497.786 833.531 492.001 831.871C441.234 817.305 222.719 735.737 205.006 726.84C205.006 726.84 196.436 720.446 197.264 710.292C198.359 696.869 212.715 690.89 212.715 690.89C269.393 662.342 414.33 602.77 414.33 602.77L817.388 690.213Z" fill="#c9c5c1" fill-rule="nonzero" opacity="1" stroke="none" vectornator:layerName="Curva 15"/>
<path d="M300.397 703.706L300.397 401.816L576.875 301.186L807.274 385.044L807.274 686.934L530.796 787.564" fill="#ffbb89" fill-rule="nonzero" opacity="1" stroke="none" vectornator:layerName="Curva 16"/>
<path d="M403.341 488.224C407.802 466.109 417.711 443.466 423.103 444.553C428.494 445.641 430.818 467.739 422.866 492.162C415.9 513.559 410.419 531.322 405.028 530.234C399.636 529.147 398.881 510.338 403.341 488.224Z" fill="none" opacity="1" stroke="#83786c" stroke-linecap="butt" stroke-linejoin="round" stroke-width="8.43056" vectornator:layerName="Óvalo 3"/>
<path d="M428.728 613.539L410.905 721.75C410.277 725.98 407.052 727.77 403.701 725.749L344.021 689.756C340.67 687.736 338.462 682.668 339.09 678.439L356.913 570.228C357.542 565.998 360.671 560.584 363.904 558.134L397.276 532.847C400.508 530.397 404.233 531.612 405.596 535.559L427.399 598.733C428.761 602.68 429.356 609.309 428.728 613.539Z" fill="#ff6e6a" fill-rule="nonzero" opacity="1" stroke="#83786c" stroke-linecap="butt" stroke-linejoin="round" stroke-width="8.23795" vectornator:layerName="Curva 25"/>
<path d="M1150.23 480.561C1155.56 454.153 1167.39 427.113 1173.83 428.411C1180.27 429.71 1183.04 456.099 1173.55 485.263C1165.23 510.815 1158.68 532.027 1152.24 530.728C1145.8 529.43 1144.9 506.969 1150.23 480.561Z" fill="none" opacity="1" stroke="#83786c" stroke-linecap="butt" stroke-linejoin="round" stroke-width="8.43056" vectornator:layerName="Óvalo 4"/>
<path d="M1180.35 630.789L1159.07 760.01C1158.32 765.06 1154.47 767.198 1150.46 764.785L1079.2 721.805C1075.2 719.391 1072.56 713.34 1073.31 708.29L1094.59 579.069C1095.34 574.018 1099.08 567.552 1102.94 564.627L1142.79 534.43C1146.65 531.505 1151.1 532.955 1152.73 537.669L1178.76 613.109C1180.39 617.822 1181.1 625.738 1180.35 630.789Z" fill="#ff6e6a" fill-rule="nonzero" opacity="1" stroke="#83786c" stroke-linecap="butt" stroke-linejoin="round" stroke-width="8.23795" vectornator:layerName="Curva 26"/>
<path d="M1139.62 614.643L1138.01 623.786C1141.58 625.02 1144.37 626.76 1146.38 629.004C1148.39 631.248 1150.12 634.452 1151.57 638.617L1141.58 642.107C1139.72 636.651 1136.58 633.535 1132.16 632.761C1129.42 632.281 1127.01 632.691 1124.92 633.992C1122.84 635.293 1121.58 637.156 1121.15 639.582C1120.77 641.79 1121.18 643.753 1122.38 645.471C1123.56 647.152 1126.16 649.355 1130.17 652.078C1133.63 654.448 1136.46 656.603 1138.65 658.542C1140.84 660.482 1142.44 662.26 1143.44 663.878C1146.28 668.289 1147.24 673.184 1146.29 678.564C1145.37 683.851 1142.96 688.238 1139.08 691.724C1135.23 695.185 1130.56 697.155 1125.06 697.632L1123.37 707.289L1115.2 705.857L1116.85 696.48C1110.93 694.416 1106.65 691.501 1104 687.736C1101.36 683.971 1099.87 678.611 1099.52 671.657L1110.15 671.312C1110.73 676.284 1111.84 679.959 1113.51 682.335C1115.29 684.634 1117.93 686.092 1121.45 686.708C1124.87 687.308 1127.92 686.706 1130.61 684.902C1133.26 683.123 1134.89 680.507 1135.5 677.055C1136.04 673.977 1135.52 671.338 1133.95 669.139C1133.15 668.068 1131.9 666.8 1130.22 665.335C1128.54 663.87 1126.35 662.212 1123.66 660.362C1118.11 656.598 1114.58 653.414 1113.08 650.811C1110.66 646.892 1109.86 642.569 1110.69 637.842C1111.08 635.603 1111.8 633.582 1112.86 631.779C1113.91 629.976 1115.25 628.408 1116.88 627.075C1118.51 625.742 1120.42 624.675 1122.61 623.873C1124.8 623.071 1127.22 622.565 1129.85 622.354L1131.45 613.211L1139.62 614.643Z" fill="#ffffff" opacity="1" stroke="none" vectornator:layerName="Text 4"/>
<path d="M394.927 597.971L393.657 605.21C396.481 606.187 398.688 607.564 400.28 609.341C401.872 611.117 403.241 613.654 404.388 616.952L396.481 619.714C395.005 615.395 392.519 612.928 389.023 612.315C386.856 611.935 384.947 612.26 383.294 613.29C381.642 614.319 380.647 615.795 380.31 617.715C380.003 619.463 380.327 621.017 381.281 622.377C382.215 623.709 384.27 625.452 387.444 627.608C390.186 629.484 392.425 631.19 394.16 632.726C395.896 634.261 397.159 635.669 397.949 636.95C400.205 640.441 400.959 644.317 400.212 648.576C399.477 652.762 397.574 656.235 394.501 658.995C391.457 661.735 387.758 663.294 383.403 663.672L382.062 671.317L375.599 670.183L376.901 662.76C372.213 661.126 368.824 658.818 366.733 655.837C364.642 652.857 363.457 648.614 363.179 643.108L371.602 642.835C372.054 646.772 372.939 649.68 374.259 651.561C375.665 653.382 377.76 654.536 380.542 655.024C383.25 655.499 385.669 655.022 387.797 653.594C389.897 652.185 391.186 650.115 391.666 647.382C392.093 644.944 391.686 642.855 390.443 641.115C389.805 640.267 388.82 639.263 387.488 638.103C386.156 636.943 384.426 635.631 382.297 634.166C377.896 631.186 375.103 628.666 373.916 626.605C371.999 623.503 371.368 620.08 372.024 616.338C372.335 614.565 372.908 612.965 373.742 611.538C374.576 610.111 375.638 608.869 376.927 607.814C378.216 606.759 379.728 605.913 381.464 605.279C383.199 604.644 385.109 604.243 387.194 604.076L388.464 596.838L394.927 597.971Z" fill="#ffffff" opacity="1" stroke="none" vectornator:layerName="Text 3"/>
<path d="M530.796 787.564L807.274 686.934L807.274 385.044L530.796 485.674L300.397 401.816L300.397 703.706L530.796 787.564Z" fill="none" opacity="1" stroke="#83786c" stroke-linecap="butt" stroke-linejoin="round" stroke-width="12" vectornator:layerName="Curva 17"/>
<path d="M807.274 385.044L576.875 301.186L300.397 401.816L438.636 351.501L669.035 435.359" fill="none" opacity="1" stroke="#83786c" stroke-linecap="butt" stroke-linejoin="round" stroke-width="12" vectornator:layerName="Curva 18"/>
<path d="M530.929 571.573C530.929 623.899 530.796 787.564 530.796 787.564C530.796 787.564 530.929 519.247 530.929 571.573Z" fill="none" opacity="1" stroke="#83786c" stroke-linecap="butt" stroke-linejoin="round" stroke-width="12" vectornator:layerName="Curva 19"/>
<g opacity="1" vectornator:layerName="Curva 20">
<path d="M530.781 484.156C527.565 484.162 524.963 486.784 524.969 490C524.949 503.231 524.926 516.457 524.906 529.688C524.912 532.976 527.586 535.631 530.875 535.625C534.164 535.619 536.818 532.945 536.812 529.656C536.744 516.426 536.693 503.199 536.625 489.969C536.619 486.753 533.997 484.15 530.781 484.156Z" fill="#83786c" stroke="none"/>
</g>
<g opacity="1" vectornator:layerName="Curva 21">
<path d="M450.375 709.219C448.273 709.334 446.351 710.676 445.594 712.781C444.584 715.588 446.037 718.678 448.844 719.688C463.212 724.814 477.6 729.967 491.969 735.094C494.713 736.081 497.731 734.65 498.719 731.906C499.706 729.162 498.276 726.112 495.531 725.125C481.19 719.923 466.842 714.733 452.5 709.531C451.798 709.279 451.076 709.18 450.375 709.219Z" fill="#83786c" stroke="none"/>
</g>
<path d="M676.831 520.534C676.831 520.534 685.342 519.937 688.995 521.142L689.172 521.187C697.389 522.918 705.845 526.939 711.76 532.411C718.28 538.441 723.635 546.846 726.084 555.245C728.706 564.241 729.727 573.135 727.349 582.54C726.833 584.584 725.867 588.552 721.261 596.911C721.261 596.911 715.547 607.407 715.388 607.756C714.712 609.233 709.267 620.403 707.697 625.095C706.817 627.725 703.298 628.023 677.472 638.133C669.908 641.095 668.205 640.717 665.704 635.556C665.44 635.012 664.247 632.668 663.996 632.239C661.261 627.564 663.051 627.112 663.051 627.112C664.353 625.394 688.009 616.396 691.237 615.031C694.675 613.648 695.139 611.939 693.566 608.299C691.227 602.883 688.523 604.69 687.387 605.02C684.228 605.939 669.559 611.693 659.34 615.74C656.606 616.823 656.398 617.215 653.641 614.865C649.732 611.533 647.154 608.458 647.001 608.29C645.437 606.571 641.762 601.829 641.734 601.793C641.633 601.663 641.152 601.14 640.73 600.553C639.533 598.886 638.741 597.741 637.603 595.771C635.1 591.439 633.258 587.356 632.361 583.053C632.275 582.644 632.201 582.235 632.131 581.829C630.367 571.61 631.55 562.624 634.275 554.624C636.851 547.066 641.107 540.47 647.112 534.316C650.085 531.269 653.407 528.756 657.036 526.659C659.8 525.062 662.51 523.824 665.577 522.647C668.409 521.56 672.53 520.815 676.831 520.534Z" fill="#807165" fill-rule="nonzero" opacity="1" stroke="none" vectornator:layerName="Curva 22"/>
<path d="M705.677 645.83C705.288 647.778 704.646 649.817 703.757 651.291C703.122 652.343 700.976 655.6 694.411 658.367C686.927 661.522 683.852 660.372 683.125 660.201C681.95 659.925 680.189 659.661 678.063 658.041L678.007 657.991C674.461 654.779 673.703 651.112 675.944 650.087C684.562 646.147 702.611 639.894 702.611 639.894C705.677 639.099 707.061 638.913 705.677 645.83Z" fill="#807165" fill-rule="nonzero" opacity="1" stroke="none" vectornator:layerName="Curva 23"/>
<path d="M1217.66 176.682C1221.91 155.606 1231.35 134.026 1236.49 135.062C1241.63 136.098 1243.84 157.16 1236.26 180.435C1229.62 200.828 1224.4 217.757 1219.26 216.721C1214.12 215.684 1213.4 197.758 1217.66 176.682Z" fill="none" opacity="1" stroke="#83786c" stroke-linecap="butt" stroke-linejoin="round" stroke-width="8.43056" vectornator:layerName="Óvalo 5"/>
<path d="M1241.9 295.973L1224.91 399.104C1224.31 403.135 1221.24 404.841 1218.04 402.915L1161.17 368.612C1157.97 366.686 1155.87 361.857 1156.47 357.826L1173.45 254.695C1174.05 250.664 1177.04 245.504 1180.12 243.17L1211.92 219.07C1215 216.735 1218.55 217.892 1219.85 221.654L1240.63 281.862C1241.93 285.625 1242.5 291.942 1241.9 295.973Z" fill="#ff6e6a" fill-rule="nonzero" opacity="1" stroke="#83786c" stroke-linecap="butt" stroke-linejoin="round" stroke-width="8.23795" vectornator:layerName="Curva 27"/>
<path d="M1209.45 289.712L1208.24 296.569C1210.92 297.495 1213.01 298.8 1214.52 300.482C1216.03 302.165 1217.32 304.569 1218.41 307.692L1210.92 310.309C1209.52 306.217 1207.17 303.881 1203.85 303.3C1201.8 302.94 1199.99 303.248 1198.43 304.223C1196.86 305.199 1195.92 306.596 1195.6 308.415C1195.31 310.071 1195.62 311.543 1196.52 312.832C1197.41 314.093 1199.35 315.744 1202.36 317.786C1204.96 319.564 1207.08 321.18 1208.72 322.635C1210.36 324.089 1211.56 325.423 1212.31 326.636C1214.45 329.943 1215.16 333.615 1214.45 337.65C1213.76 341.614 1211.95 344.904 1209.04 347.519C1206.16 350.114 1202.66 351.591 1198.53 351.949L1197.26 359.191L1191.14 358.117L1192.37 351.085C1187.93 349.537 1184.72 347.351 1182.74 344.528C1180.76 341.704 1179.64 337.685 1179.37 332.47L1187.35 332.211C1187.78 335.94 1188.62 338.695 1189.87 340.477C1191.2 342.201 1193.18 343.295 1195.82 343.757C1198.39 344.207 1200.68 343.755 1202.69 342.402C1204.68 341.068 1205.9 339.107 1206.36 336.518C1206.76 334.209 1206.38 332.23 1205.2 330.581C1204.6 329.778 1203.66 328.827 1202.4 327.728C1201.14 326.629 1199.5 325.386 1197.48 323.999C1193.31 321.176 1190.67 318.789 1189.54 316.837C1187.73 313.898 1187.13 310.656 1187.75 307.111C1188.05 305.431 1188.59 303.916 1189.38 302.564C1190.17 301.212 1191.17 300.036 1192.4 299.036C1193.62 298.036 1195.05 297.236 1196.69 296.635C1198.34 296.034 1200.15 295.654 1202.12 295.495L1203.32 288.639L1209.45 289.712Z" fill="#ffffff" opacity="1" stroke="none" vectornator:layerName="Text 5"/>
</g>
<g id="Capa-2" vectornator:layerName="Capa 2"/>
</svg>
