<?xml version="1.0" encoding="UTF-8" standalone="no"?>
<!DOCTYPE svg PUBLIC "-//W3C//DTD SVG 1.1//EN" "http://www.w3.org/Graphics/SVG/1.1/DTD/svg11.dtd">
<!-- Created with Vectornator (http://vectornator.io/) -->
<svg height="100%" stroke-miterlimit="10" style="fill-rule:nonzero;clip-rule:evenodd;stroke-linecap:round;stroke-linejoin:round;" version="1.1" viewBox="0 0 1917.45 1050.52" width="100%" xml:space="preserve" xmlns="http://www.w3.org/2000/svg" xmlns:vectornator="http://vectornator.io" xmlns:xlink="http://www.w3.org/1999/xlink">
<defs>
<path d="M108.658 579.248C-56.6053 707.412-12.0013 917.15 179.24 991.162C588.838 1149.68 1257.06 926.847 1401.8 871.65C1578.54 804.251 1665.1 789.011 1797.65 741.189C1922.39 696.185 1939.32 594.104 1891.34 553.141C1702.88 392.217 1249.48 474.871 821.494 470.333C646.187 468.475 273.921 451.085 108.658 579.248Z" id="Fill"/>
</defs>
<g id="Capa-1" vectornator:layerName="Capa 1">
<use fill="#e5e4e3" fill-rule="nonzero" opacity="1" stroke="none" vectornator:layerName="Curva 1" xlink:href="#Fill"/>
<clipPath clip-rule="nonzero" id="ClipPath">
<use xlink:href="#Fill"/>
</clipPath>
<g clip-path="url(#ClipPath)">
<path d="M1124.92 758.988C1122.45 781.63 1117.58 787.871 1090.77 799.478C1090.77 799.478 688.486 960.809 592.239 987.911C582.443 990.67 574.346 993.304 562.867 993.304C551.388 993.304 546.99 991.862 538.024 989.593C459.336 969.689 356.557 950.593 329.102 938.435C329.102 938.435 315.818 929.698 317.102 915.821C318.799 897.479 341.051 889.308 341.051 889.308C428.901 850.297 784.013 720.276 784.013 720.276L1124.92 758.988Z" fill="#000000" fill-rule="nonzero" opacity="0.128846" stroke="none" vectornator:layerName="Curva 2"/>
</g>
</g>
<g id="Capa-3" vectornator:layerName="Capa 3">
<path d="M1095.03 312.459C1095.03 194.06 1190.86 98.078 1309.07 98.078C1427.29 98.078 1523.12 194.06 1523.12 312.459C1523.12 430.859 1427.29 526.841 1309.07 526.841C1190.86 526.841 1095.03 430.859 1095.03 312.459Z" fill="#ffbd8e" fill-rule="nonzero" opacity="1" stroke="none" vectornator:layerName="Óvalo 3"/>
<path d="M624.485 942.148L1119.95 761.002L1120.43 44.393L1062.13 22.8435C1062.13 22.8435 579.025 201.534 579.025 201.534C579.025 201.534 578.434 924.831 578.434 924.831L624.485 942.148ZM578.723 203.628L624.664 227.955C624.664 227.955 625.18 941.229 625.172 941.218C625.164 941.208 624.631 227.914 624.631 227.914L1119.93 46.8952" fill="#bebebe" fill-rule="nonzero" opacity="1" stroke="#676767" stroke-linecap="butt" stroke-linejoin="round" stroke-width="9.31176" vectornator:layerName="Curva 1"/>
<path d="M660.185 272.695L656.9 877.942C656.845 888.049 664.501 893.445 674.001 889.995L1067.5 747.08C1077 743.63 1084.69 732.64 1084.68 722.533L1084.02 122.165C1084.01 112.058 1076.28 106.608 1066.76 109.991L677.529 248.269C668.005 251.653 660.24 262.589 660.185 272.695Z" fill="#ffffff" fill-rule="nonzero" opacity="1" stroke="#676767" stroke-linecap="butt" stroke-linejoin="round" stroke-width="9.31176" vectornator:layerName="Curva 2"/>
<path d="M714.207 404.516L713.611 362.026C713.693 354.884 720.287 345.898 730.536 348.9C741.118 351.999 750.804 346.256 754.713 341.329C757.604 337.686 768.594 339.805 768.08 356.59C767.897 362.563 768.131 385.336 768.131 385.336L714.207 404.516Z" fill="#ffa96b" fill-rule="nonzero" opacity="1" stroke="none" vectornator:layerName="Curva 3"/>
<path d="M719.42 323.951C718.671 312.334 726.222 302.391 736.285 301.742C746.349 301.093 755.593 311.112 755.321 322.75C755.049 334.387 749.061 343.161 738.998 343.81C728.934 344.459 720.169 335.568 719.42 323.951Z" fill="#ffa96b" fill-rule="nonzero" opacity="1" stroke="none" vectornator:layerName="Óvalo 1"/>
<path d="M800.981 288.009L801.587 301.508C801.719 304.443 804.064 306.009 806.826 305.005L1048.69 217.095C1051.45 216.091 1053.67 212.896 1053.63 209.958L1053.49 198.097C1053.46 195.159 1051.19 193.576 1048.42 194.561L805.755 280.911C802.987 281.896 800.85 285.074 800.981 288.009Z" fill="#d9d9d9" fill-rule="nonzero" opacity="1" stroke="none" vectornator:layerName="Curva 4"/>
<path d="M801.767 326.117L802.373 339.615C802.504 342.55 804.85 344.116 807.611 343.112L1049.48 255.202C1052.24 254.198 1054.45 251.003 1054.42 248.065L1054.28 236.204C1054.25 233.266 1051.97 231.683 1049.21 232.668L806.541 319.018C803.773 320.003 801.635 323.181 801.767 326.117Z" fill="#d9d9d9" fill-rule="nonzero" opacity="1" stroke="none" vectornator:layerName="Curva 5"/>
<path d="M800.588 364.224L801.194 377.722C801.326 380.657 803.671 382.223 806.433 381.22L1048.3 293.309C1051.06 292.306 1053.27 289.11 1053.24 286.172L1053.1 274.311C1053.07 271.373 1050.8 269.79 1048.03 270.775L805.362 357.125C802.594 358.11 800.457 361.289 800.588 364.224Z" fill="#d9d9d9" fill-rule="nonzero" opacity="1" stroke="none" vectornator:layerName="Curva 6"/>
<path d="M689.941 461.572L690.547 475.07C690.678 478.006 693.024 479.572 695.785 478.568L1047.27 348.353C1050.04 347.349 1052.25 344.154 1052.21 341.216L1052.08 329.355C1052.04 326.417 1049.77 324.834 1047 325.819L694.715 454.474C691.947 455.459 689.809 458.637 689.941 461.572Z" fill="#d9d9d9" fill-rule="nonzero" opacity="1" stroke="none" vectornator:layerName="Curva 7"/>
<path d="M690.981 507.848L691.587 521.346C691.718 524.281 694.064 525.847 696.825 524.844L1048.31 394.629C1051.08 393.625 1053.29 390.43 1053.25 387.492L1053.12 375.631C1053.08 372.693 1050.81 371.109 1048.04 372.095L695.755 500.749C692.987 501.735 690.849 504.913 690.981 507.848Z" fill="#d9d9d9" fill-rule="nonzero" opacity="1" stroke="none" vectornator:layerName="Curva 8"/>
<path d="M689.941 556.204L690.547 569.702C690.678 572.637 693.024 574.203 695.785 573.199L1047.27 442.984C1050.04 441.981 1052.25 438.785 1052.21 435.847L1052.08 423.986C1052.04 421.048 1049.77 419.465 1047 420.45L694.715 549.105C691.947 550.09 689.809 553.268 689.941 556.204Z" fill="#d9d9d9" fill-rule="nonzero" opacity="1" stroke="none" vectornator:layerName="Curva 9"/>
<path d="M690.981 600.919L691.587 614.418C691.718 617.353 694.064 618.919 696.825 617.915L1048.31 487.7C1051.08 486.697 1053.29 483.501 1053.25 480.563L1053.12 468.702C1053.08 465.764 1050.81 464.181 1048.04 465.166L695.755 593.821C692.987 594.806 690.849 597.984 690.981 600.919Z" fill="#d9d9d9" fill-rule="nonzero" opacity="1" stroke="none" vectornator:layerName="Curva 10"/>
<path d="M790.236 122.974L790.423 119.883C783.635 10.9457 841.05 13.2149 841.05 13.2149L840.816 13.0672C879.243 15.9653 889.539 48.1511 890.392 85.2314L891.884 85.305L931.065 70.5292L989.032 94.516L988.785 128.68C988.63 150.165 972.101 173.44 951.866 180.666L814.034 229.885C787.236 239.442 765.56 224.125 765.621 195.674L765.668 173.758L712.889 151.057L790.236 122.974Z" fill="#ffa96b" fill-rule="nonzero" opacity="1" stroke="#676767" stroke-linecap="butt" stroke-linejoin="round" stroke-width="9.31176" vectornator:layerName="Curva 12"/>
<path d="M767.315 173.801L988.336 94.7583" fill="none" opacity="1" stroke="#676767" stroke-linecap="butt" stroke-linejoin="round" stroke-width="9.31176" vectornator:layerName="Curva 13"/>
<path d="M789.955 108.166L792.25 140.268L890.526 105.33L890.352 83.3048" fill="none" opacity="1" stroke="#676767" stroke-linecap="butt" stroke-linejoin="round" stroke-width="9.31176" vectornator:layerName="Curva 14"/>
<path d="M818.84 66.976C818.84 53.9807 829.091 43.4458 841.736 43.4458C854.38 43.4458 864.631 53.9807 864.631 66.976C864.631 79.9714 854.38 90.5062 841.736 90.5062C829.091 90.5062 818.84 79.9714 818.84 66.976Z" fill="#ffffff" fill-rule="nonzero" opacity="1" stroke="#676767" stroke-linecap="butt" stroke-linejoin="round" stroke-width="9.31176" vectornator:layerName="Óvalo 2"/>
<g fill="#ffffff" opacity="1" stroke="none" vectornator:layerName="Text 1">
<path d="M1190.02 261.896L1233.08 323.311L1231.34 260.178C1231.23 256.076 1232.02 252.974 1233.73 250.874C1235.43 248.775 1237.78 247.683 1240.78 247.601C1243.86 247.516 1246.33 248.474 1248.17 250.477C1250.02 252.479 1250.99 255.531 1251.11 259.634L1253.41 343.111C1253.66 352.427 1249.93 357.191 1242.21 357.404C1240.28 357.457 1238.53 357.227 1236.97 356.715C1235.41 356.202 1233.94 355.361 1232.55 354.192C1231.17 353.022 1229.88 351.645 1228.67 350.06C1227.47 348.475 1226.27 346.854 1225.06 345.196L1183.03 284.478L1184.74 346.669C1184.86 350.724 1184 353.815 1182.17 355.942C1180.35 358.069 1177.96 359.174 1175.02 359.255C1171.98 359.338 1169.51 358.356 1167.62 356.307C1165.73 354.258 1164.73 351.23 1164.62 347.224L1162.36 265.339C1162.26 261.864 1162.58 259.126 1163.29 257.126C1164.15 254.929 1165.62 253.113 1167.71 251.679C1169.79 250.245 1172.07 249.494 1174.53 249.426C1176.46 249.373 1178.12 249.641 1179.51 250.231C1180.91 250.82 1182.14 251.632 1183.2 252.665C1184.27 253.698 1185.37 255.045 1186.5 256.704C1187.64 258.363 1188.81 260.094 1190.02 261.896Z"/>
<path d="M1330.14 319.623L1291.48 320.688C1291.65 325.176 1292.67 329.108 1294.52 332.487C1296.38 335.865 1298.79 338.383 1301.76 340.04C1304.73 341.697 1307.97 342.477 1311.49 342.38C1313.86 342.315 1316.01 341.978 1317.95 341.369C1319.89 340.76 1321.76 339.839 1323.56 338.606C1325.36 337.373 1327.02 336.06 1328.53 334.666C1330.03 333.272 1331.99 331.382 1334.38 328.998C1335.37 328.101 1336.81 327.627 1338.69 327.575C1340.72 327.519 1342.38 328.029 1343.66 329.104C1344.95 330.18 1345.62 331.731 1345.67 333.758C1345.72 335.544 1345.08 337.651 1343.75 340.079C1342.41 342.507 1340.36 344.858 1337.6 347.132C1334.84 349.405 1331.34 351.325 1327.11 352.891C1322.88 354.457 1317.99 355.316 1312.43 355.469C1299.74 355.819 1289.77 352.471 1282.52 345.425C1275.28 338.379 1271.48 328.654 1271.14 316.249C1270.98 310.409 1271.7 304.967 1273.3 299.923C1274.9 294.88 1277.32 290.526 1280.55 286.863C1283.78 283.199 1287.81 280.347 1292.63 278.306C1297.45 276.265 1302.83 275.163 1308.77 275C1316.49 274.787 1323.16 276.233 1328.78 279.339C1334.39 282.445 1338.65 286.542 1341.54 291.631C1344.44 296.72 1345.96 301.943 1346.1 307.3C1346.24 312.272 1344.91 315.533 1342.1 317.084C1339.29 318.634 1335.31 319.481 1330.14 319.623ZM1291.17 309.466L1327.01 308.479C1326.34 301.735 1324.38 296.729 1321.12 293.461C1317.87 290.194 1313.66 288.631 1308.5 288.774C1303.57 288.909 1299.58 290.722 1296.51 294.212C1293.44 297.702 1291.66 302.787 1291.17 309.466Z"/>
<path d="M1372.53 285.705L1386.64 329.514L1397.24 288.14C1398.37 283.81 1399.22 280.852 1399.78 279.267C1400.34 277.682 1401.43 276.154 1403.06 274.684C1404.69 273.214 1406.95 272.44 1409.84 272.36C1412.79 272.279 1415.11 272.927 1416.82 274.305C1418.52 275.683 1419.73 277.196 1420.46 278.842C1421.18 280.489 1422.2 283.347 1423.52 287.416L1436.38 328.144L1448.19 283.621C1448.97 280.411 1449.61 278.087 1450.1 276.649C1450.59 275.21 1451.45 273.931 1452.68 272.81C1453.9 271.69 1455.7 271.097 1458.06 271.031C1460.43 270.966 1462.5 271.73 1464.28 273.324C1466.07 274.917 1466.99 276.824 1467.05 279.044C1467.11 281.071 1466.44 284.157 1465.06 288.3L1450.22 336.095C1448.93 340.14 1447.92 343.066 1447.2 344.873C1446.48 346.68 1445.3 348.306 1443.68 349.752C1442.05 351.198 1439.79 351.96 1436.89 352.04C1433.9 352.123 1431.52 351.439 1429.77 349.99C1428.02 348.541 1426.7 346.742 1425.82 344.592C1424.94 342.443 1423.97 339.644 1422.91 336.195L1410.55 297.99L1400.68 336.808C1399.38 342.205 1397.92 346.291 1396.31 349.064C1394.69 351.838 1391.76 353.283 1387.51 353.4C1385.34 353.46 1383.48 353.089 1381.94 352.286C1380.4 351.483 1379.1 350.311 1378.04 348.771C1376.98 347.23 1376.04 345.396 1375.21 343.27C1374.38 341.143 1373.73 339.458 1373.26 338.215L1355.95 291.306C1354.24 286.91 1353.36 283.867 1353.31 282.177C1353.25 280.054 1354.04 278.124 1355.69 276.388C1357.33 274.652 1359.38 273.75 1361.84 273.682C1365.12 273.592 1367.37 274.46 1368.58 276.286C1369.79 278.113 1371.11 281.252 1372.53 285.705Z"/>
</g>
<path d="M579.079 203.653L624.602 228.079L624.625 942.224L578.458 924.892C578.458 924.892 577.114 203.024 579.079 203.653Z" fill="#a5a5a5" fill-rule="nonzero" opacity="1" stroke="#676767" stroke-linecap="butt" stroke-linejoin="round" stroke-width="9.31176" vectornator:layerName="Curva 15"/>
</g>
</svg>
