<?xml version="1.0" encoding="UTF-8" standalone="no"?>
<!DOCTYPE svg PUBLIC "-//W3C//DTD SVG 1.1//EN" "http://www.w3.org/Graphics/SVG/1.1/DTD/svg11.dtd">
<!-- Created with Vectornator (http://vectornator.io/) -->
<svg height="100%" stroke-miterlimit="10" style="fill-rule:nonzero;clip-rule:evenodd;stroke-linecap:round;stroke-linejoin:round;" version="1.1" viewBox="0 0 1917.45 1050.52" width="100%" xml:space="preserve" xmlns="http://www.w3.org/2000/svg" xmlns:vectornator="http://vectornator.io" xmlns:xlink="http://www.w3.org/1999/xlink">
<defs>
<path d="M379.828 452.82C24.2116 545.93-136.244 764.285 139.727 950.228C436.203 1149.99 998.704 996.836 1212.83 986.401C1339.22 980.242 1384.74 1006.45 1476.02 1021.73C1547.58 1033.71 1638.2 1045.34 1801.43 974.802C1945.55 912.525 1945.42 736.421 1851.73 649.943C1648.28 462.154 1082.62 406.814 746.495 410.604C646.021 411.737 379.828 452.82 379.828 452.82Z" id="Fill"/>
</defs>
<g id="Capa-1" vectornator:layerName="Capa 1"/>
<clipPath id="ArtboardFrame">
<rect height="1050.52" width="1917.45" x="0" y="0"/>
</clipPath>
<g clip-path="url(#ArtboardFrame)" id="Capa-3" vectornator:layerName="Capa 3">
<use fill="#e5e4e4" fill-rule="nonzero" opacity="1" stroke="none" vectornator:layerName="Curva 1" xlink:href="#Fill"/>
<clipPath clip-rule="nonzero" id="ClipPath">
<use xlink:href="#Fill"/>
</clipPath>
<g clip-path="url(#ClipPath)">
<path d="M1409.54 684.04L1409.54 718.242L1527 760.995L1527 726.793L1409.54 684.04Z" fill="#4fca9e" fill-rule="nonzero" opacity="1" stroke="#7b7b7b" stroke-linecap="butt" stroke-linejoin="round" stroke-width="9.76623" vectornator:layerName="Curva 2"/>
<path d="M1785.42 701.141" fill="none" opacity="1" stroke="#7b7b7b" stroke-linecap="butt" stroke-linejoin="round" stroke-width="9.76623" vectornator:layerName="Curva 3"/>
<path d="M1761.92 641.288L1761.92 675.49L1527 760.995L1527 726.793L1761.92 641.288Z" fill="#4fca9e" fill-rule="nonzero" opacity="1" stroke="#7b7b7b" stroke-linecap="butt" stroke-linejoin="round" stroke-width="9.76623" vectornator:layerName="Curva 4"/>
<path d="M1409.54 701.141L1527 743.894L1632.72 705.417L1757.44 659.992" fill="none" opacity="1" stroke="#428f74" stroke-linecap="butt" stroke-linejoin="round" stroke-width="3.1882" vectornator:layerName="Curva 7"/>
<path d="M1409.54 684.04L1644.46 598.535L1761.92 641.288L1527 726.793L1409.54 684.04Z" fill="#5fdeb1" fill-rule="nonzero" opacity="1" stroke="#7b7b7b" stroke-linecap="butt" stroke-linejoin="round" stroke-width="9.76623" vectornator:layerName="Curva 5"/>
<path d="M1567.53 674.419L1561.26 677.115C1561.94 679.804 1562 682.218 1561.43 684.357C1560.86 686.496 1559.59 688.849 1557.61 691.417L1551.44 686.684C1554.05 683.342 1554.69 680.158 1553.39 677.133C1552.59 675.258 1551.36 673.941 1549.72 673.182C1548.08 672.423 1546.43 672.401 1544.77 673.117C1543.26 673.768 1542.22 674.81 1541.64 676.242C1541.09 677.644 1540.78 680.125 1540.72 683.686C1540.66 686.769 1540.47 689.374 1540.16 691.502C1539.85 693.63 1539.4 695.326 1538.81 696.591C1537.25 700.118 1534.63 702.675 1530.94 704.261C1527.32 705.82 1523.65 706.11 1519.95 705.129C1516.27 704.16 1513.18 702.081 1510.67 698.893L1504.06 701.741L1501.65 696.148L1508.07 693.383C1506.96 688.914 1507.02 685.109 1508.27 681.97C1509.52 678.831 1512.22 675.753 1516.35 672.737L1520.84 679.136C1518.02 681.488 1516.21 683.655 1515.42 685.636C1514.72 687.654 1514.89 689.866 1515.93 692.274C1516.94 694.618 1518.54 696.252 1520.73 697.178C1522.89 698.091 1525.15 698.039 1527.52 697.021C1529.63 696.113 1531.04 694.734 1531.76 692.884C1532.1 691.957 1532.37 690.682 1532.6 689.058C1532.82 687.435 1532.96 685.424 1533.01 683.027C1533.09 678.096 1533.62 674.645 1534.62 672.676C1536.05 669.61 1538.39 667.379 1541.62 665.985C1543.16 665.325 1544.69 664.956 1546.22 664.877C1547.75 664.798 1549.26 664.991 1550.73 665.455C1552.21 665.918 1553.63 666.662 1555.01 667.686C1556.38 668.711 1557.67 669.989 1558.86 671.523L1565.12 668.826L1567.53 674.419Z" fill="#ffffff" opacity="1" stroke="none" vectornator:layerName="Text 3"/>
<path d="M1679.8 631.151L1673.54 633.848C1674.21 636.536 1674.27 638.95 1673.7 641.089C1673.13 643.228 1671.86 645.581 1669.88 648.149L1663.71 643.417C1666.32 640.074 1666.97 636.89 1665.66 633.865C1664.86 631.99 1663.63 630.673 1661.99 629.914C1660.35 629.155 1658.7 629.134 1657.04 629.849C1655.53 630.5 1654.49 631.542 1653.92 632.974C1653.36 634.376 1653.05 636.858 1652.99 640.418C1652.93 643.501 1652.74 646.106 1652.43 648.234C1652.13 650.362 1651.68 652.059 1651.08 653.324C1649.52 656.85 1646.9 659.407 1643.21 660.993C1639.59 662.553 1635.92 662.842 1632.22 661.861C1628.54 660.892 1625.45 658.814 1622.94 655.626L1616.33 658.473L1613.92 652.88L1620.34 650.115C1619.23 645.646 1619.3 641.841 1620.55 638.702C1621.8 635.563 1624.49 632.485 1628.62 629.47L1633.11 635.868C1630.29 638.221 1628.48 640.388 1627.69 642.369C1626.99 644.386 1627.16 646.599 1628.2 649.006C1629.21 651.35 1630.81 652.984 1633 653.91C1635.16 654.823 1637.43 654.771 1639.79 653.753C1641.9 652.845 1643.31 651.466 1644.03 649.616C1644.37 648.689 1644.64 647.414 1644.87 645.791C1645.09 644.167 1645.23 642.156 1645.28 639.759C1645.36 634.828 1645.89 631.378 1646.89 629.408C1648.32 626.342 1650.66 624.112 1653.89 622.718C1655.43 622.057 1656.96 621.688 1658.49 621.609C1660.03 621.531 1661.53 621.723 1663 622.187C1664.48 622.65 1665.9 623.394 1667.28 624.419C1668.65 625.443 1669.94 626.722 1671.13 628.255L1677.39 625.558L1679.8 631.151Z" fill="#ffffff" opacity="1" stroke="none" vectornator:layerName="Text 4"/>
<path d="M1515.25 645.563L1632.72 688.316L1632.72 722.518L1667.95 709.692L1667.95 675.49L1550.49 632.737L1515.25 645.563Z" fill="#a6a6a6" fill-rule="nonzero" opacity="1" stroke="#7b7b7b" stroke-linecap="butt" stroke-linejoin="round" stroke-width="9.76623" vectornator:layerName="Curva 6"/>
<path d="M1419.54 638.737L1419.54 672.939L1537 715.692L1537 681.49L1419.54 638.737Z" fill="#4fca9e" fill-rule="nonzero" opacity="1" stroke="#7b7b7b" stroke-linecap="butt" stroke-linejoin="round" stroke-width="9.76623" vectornator:layerName="Curva 8"/>
<path d="M1795.42 655.838" fill="none" opacity="1" stroke="#7b7b7b" stroke-linecap="butt" stroke-linejoin="round" stroke-width="9.76623" vectornator:layerName="Curva 9"/>
<path d="M1771.92 595.985L1771.92 630.187L1537 715.692L1537 681.49L1771.92 595.985Z" fill="#4fca9e" fill-rule="nonzero" opacity="1" stroke="#7b7b7b" stroke-linecap="butt" stroke-linejoin="round" stroke-width="9.76623" vectornator:layerName="Curva 10"/>
<path d="M1419.54 655.838L1537 698.591L1642.72 660.114L1767.53 614.988" fill="none" opacity="1" stroke="#428f74" stroke-linecap="butt" stroke-linejoin="round" stroke-width="3.1882" vectornator:layerName="Curva 11"/>
<path d="M1419.54 638.737L1654.46 553.232L1771.92 595.985L1537 681.49L1419.54 638.737Z" fill="#5fdeb1" fill-rule="nonzero" opacity="1" stroke="#7b7b7b" stroke-linecap="butt" stroke-linejoin="round" stroke-width="9.76623" vectornator:layerName="Curva 12"/>
<path d="M1577.53 629.116L1571.26 631.812C1571.94 634.501 1572 636.915 1571.43 639.054C1570.86 641.193 1569.59 643.546 1567.61 646.114L1561.44 641.381C1564.05 638.039 1564.69 634.855 1563.39 631.83C1562.59 629.955 1561.36 628.638 1559.72 627.879C1558.08 627.12 1556.43 627.098 1554.77 627.814C1553.26 628.465 1552.22 629.507 1551.64 630.939C1551.09 632.341 1550.78 634.822 1550.72 638.383C1550.66 641.466 1550.47 644.071 1550.16 646.199C1549.85 648.327 1549.4 650.023 1548.81 651.288C1547.25 654.815 1544.63 657.372 1540.94 658.958C1537.32 660.517 1533.65 660.806 1529.95 659.826C1526.27 658.857 1523.18 656.778 1520.67 653.59L1514.06 656.438L1511.65 650.845L1518.07 648.08C1516.96 643.611 1517.02 639.806 1518.27 636.667C1519.52 633.528 1522.22 630.45 1526.35 627.434L1530.84 633.833C1528.02 636.185 1526.21 638.352 1525.42 640.333C1524.72 642.351 1524.89 644.563 1525.93 646.971C1526.94 649.315 1528.54 650.949 1530.73 651.875C1532.89 652.788 1535.15 652.736 1537.52 651.718C1539.63 650.81 1541.04 649.431 1541.76 647.581C1542.1 646.654 1542.37 645.379 1542.6 643.755C1542.82 642.132 1542.96 640.121 1543.01 637.724C1543.09 632.793 1543.62 629.342 1544.62 627.373C1546.05 624.307 1548.39 622.076 1551.62 620.682C1553.16 620.022 1554.69 619.653 1556.22 619.574C1557.75 619.495 1559.26 619.688 1560.73 620.152C1562.21 620.615 1563.63 621.359 1565.01 622.383C1566.38 623.408 1567.67 624.686 1568.86 626.22L1575.12 623.523L1577.53 629.116Z" fill="#ffffff" opacity="1" stroke="none" vectornator:layerName="Text 5"/>
<path d="M1689.8 585.848L1683.54 588.545C1684.21 591.233 1684.27 593.647 1683.7 595.786C1683.13 597.925 1681.86 600.278 1679.88 602.846L1673.71 598.114C1676.32 594.771 1676.97 591.587 1675.66 588.562C1674.86 586.687 1673.63 585.37 1671.99 584.611C1670.35 583.852 1668.7 583.831 1667.04 584.546C1665.53 585.197 1664.49 586.239 1663.92 587.671C1663.36 589.073 1663.05 591.555 1662.99 595.115C1662.93 598.198 1662.74 600.803 1662.43 602.931C1662.13 605.059 1661.68 606.756 1661.08 608.021C1659.52 611.547 1656.9 614.104 1653.21 615.69C1649.59 617.25 1645.92 617.539 1642.22 616.558C1638.54 615.589 1635.45 613.511 1632.94 610.323L1626.33 613.17L1623.92 607.577L1630.34 604.812C1629.23 600.343 1629.3 596.538 1630.55 593.399C1631.8 590.26 1634.49 587.182 1638.62 584.167L1643.11 590.565C1640.29 592.918 1638.48 595.085 1637.69 597.066C1636.99 599.083 1637.16 601.296 1638.2 603.703C1639.21 606.047 1640.81 607.681 1643 608.607C1645.16 609.52 1647.43 609.468 1649.79 608.45C1651.9 607.542 1653.31 606.163 1654.03 604.313C1654.37 603.386 1654.64 602.111 1654.87 600.487C1655.09 598.864 1655.23 596.853 1655.28 594.456C1655.36 589.525 1655.89 586.074 1656.89 584.105C1658.32 581.039 1660.66 578.809 1663.89 577.415C1665.43 576.754 1666.96 576.385 1668.49 576.306C1670.03 576.228 1671.53 576.42 1673 576.884C1674.48 577.347 1675.9 578.091 1677.28 579.116C1678.65 580.14 1679.94 581.419 1681.13 582.952L1687.39 580.255L1689.8 585.848Z" fill="#ffffff" opacity="1" stroke="none" vectornator:layerName="Text 6"/>
<path d="M1525.25 600.26L1642.72 643.013L1642.72 677.215L1677.95 664.389L1677.95 630.187L1560.49 587.434L1525.25 600.26Z" fill="#a6a6a6" fill-rule="nonzero" opacity="1" stroke="#7b7b7b" stroke-linecap="butt" stroke-linejoin="round" stroke-width="9.76623" vectornator:layerName="Curva 13"/>
<path d="M1409.54 846.5L1409.54 880.702L1527 923.454L1527 889.252L1409.54 846.5Z" fill="#4fca9e" fill-rule="nonzero" opacity="1" stroke="#7b7b7b" stroke-linecap="butt" stroke-linejoin="round" stroke-width="9.76623" vectornator:layerName="Curva 14"/>
<path d="M1785.42 863.601" fill="none" opacity="1" stroke="#7b7b7b" stroke-linecap="butt" stroke-linejoin="round" stroke-width="9.76623" vectornator:layerName="Curva 15"/>
<path d="M1761.92 803.747L1761.92 837.949L1527 923.454L1527 889.252L1761.92 803.747Z" fill="#4fca9e" fill-rule="nonzero" opacity="1" stroke="#7b7b7b" stroke-linecap="butt" stroke-linejoin="round" stroke-width="9.76623" vectornator:layerName="Curva 16"/>
<path d="M1409.54 863.601L1527 906.353L1632.72 867.876L1757.86 823.389" fill="none" opacity="1" stroke="#428f74" stroke-linecap="butt" stroke-linejoin="round" stroke-width="3.1882" vectornator:layerName="Curva 17"/>
<path d="M1409.54 846.5L1644.46 760.995L1761.92 803.747L1527 889.252L1409.54 846.5Z" fill="#5fdeb1" fill-rule="nonzero" opacity="1" stroke="#7b7b7b" stroke-linecap="butt" stroke-linejoin="round" stroke-width="9.76623" vectornator:layerName="Curva 18"/>
<path d="M1567.53 836.879L1561.26 839.575C1561.94 842.263 1562 844.677 1561.43 846.816C1560.86 848.955 1559.59 851.309 1557.61 853.876L1551.44 849.144C1554.05 845.802 1554.69 842.618 1553.39 839.592C1552.59 837.717 1551.36 836.4 1549.72 835.641C1548.08 834.883 1546.43 834.861 1544.77 835.576C1543.26 836.227 1542.22 837.269 1541.64 838.702C1541.09 840.104 1540.78 842.585 1540.72 846.146C1540.66 849.228 1540.47 851.833 1540.16 853.961C1539.85 856.089 1539.4 857.786 1538.81 859.051C1537.25 862.577 1534.63 865.134 1530.94 866.721C1527.32 868.28 1523.65 868.569 1519.95 867.588C1516.27 866.619 1513.18 864.541 1510.67 861.353L1504.06 864.201L1501.65 858.608L1508.07 855.843C1506.96 851.373 1507.02 847.569 1508.27 844.43C1509.52 841.29 1512.22 838.213 1516.35 835.197L1520.84 841.595C1518.02 843.948 1516.21 846.115 1515.42 848.096C1514.72 850.113 1514.89 852.326 1515.93 854.734C1516.94 857.077 1518.54 858.712 1520.73 859.637C1522.89 860.551 1525.15 860.498 1527.52 859.48C1529.63 858.572 1531.04 857.193 1531.76 855.343C1532.1 854.417 1532.37 853.142 1532.6 851.518C1532.82 849.894 1532.96 847.884 1533.01 845.486C1533.09 840.555 1533.62 837.105 1534.62 835.136C1536.05 832.069 1538.39 829.839 1541.62 828.445C1543.16 827.785 1544.69 827.415 1546.22 827.337C1547.75 827.258 1549.26 827.45 1550.73 827.914C1552.21 828.378 1553.63 829.122 1555.01 830.146C1556.38 831.17 1557.67 832.449 1558.86 833.982L1565.12 831.286L1567.53 836.879Z" fill="#ffffff" opacity="1" stroke="none" vectornator:layerName="Text 7"/>
<path d="M1679.8 793.611L1673.54 796.307C1674.21 798.996 1674.27 801.409 1673.7 803.548C1673.13 805.687 1671.86 808.041 1669.88 810.609L1663.71 805.876C1666.32 802.534 1666.97 799.35 1665.66 796.324C1664.86 794.449 1663.63 793.133 1661.99 792.374C1660.35 791.615 1658.7 791.593 1657.04 792.308C1655.53 792.96 1654.49 794.002 1653.92 795.434C1653.36 796.836 1653.05 799.317 1652.99 802.878C1652.93 805.96 1652.74 808.566 1652.43 810.694C1652.13 812.822 1651.68 814.518 1651.08 815.783C1649.52 819.31 1646.9 821.866 1643.21 823.453C1639.59 825.012 1635.92 825.301 1632.22 824.32C1628.54 823.352 1625.45 821.273 1622.94 818.085L1616.33 820.933L1613.92 815.34L1620.34 812.575C1619.23 808.105 1619.3 804.301 1620.55 801.162C1621.8 798.023 1624.49 794.945 1628.62 791.929L1633.11 798.327C1630.29 800.68 1628.48 802.847 1627.69 804.828C1626.99 806.846 1627.16 809.058 1628.2 811.466C1629.21 813.809 1630.81 815.444 1633 816.369C1635.16 817.283 1637.43 817.23 1639.79 816.212C1641.9 815.304 1643.31 813.925 1644.03 812.075C1644.37 811.149 1644.64 809.874 1644.87 808.25C1645.09 806.626 1645.23 804.616 1645.28 802.219C1645.36 797.287 1645.89 793.837 1646.89 791.868C1648.32 788.801 1650.66 786.571 1653.89 785.177C1655.43 784.517 1656.96 784.147 1658.49 784.069C1660.03 783.99 1661.53 784.183 1663 784.646C1664.48 785.11 1665.9 785.854 1667.28 786.878C1668.65 787.902 1669.94 789.181 1671.13 790.714L1677.39 788.018L1679.8 793.611Z" fill="#ffffff" opacity="1" stroke="none" vectornator:layerName="Text 8"/>
<path d="M1515.25 808.023L1632.72 850.775L1632.72 884.977L1667.95 872.151L1667.95 837.949L1550.49 795.197L1515.25 808.023Z" fill="#a6a6a6" fill-rule="nonzero" opacity="1" stroke="#7b7b7b" stroke-linecap="butt" stroke-linejoin="round" stroke-width="9.76623" vectornator:layerName="Curva 19"/>
</g>
</g>
<g clip-path="url(#ArtboardFrame)" id="Capa-2" vectornator:layerName="Capa 2">
<path d="M1337.26 690.456C1334.3 721.088 1337.25 723.815 1305.28 739.518C1305.28 739.518 824.036 918.567 709.236 955.233C697.552 958.965 687.894 962.53 674.202 962.53C660.51 962.53 655.265 960.578 644.57 957.509C550.714 930.581 192.59 816.197 159.842 799.75C159.842 799.75 143.998 787.93 145.53 769.156C147.554 744.341 174.095 733.286 174.095 733.286C298.549 685.206 663.542 535.491 663.542 535.491L1337.26 690.456Z" fill="#cacaca" fill-rule="nonzero" opacity="1" stroke="none" vectornator:layerName="Curva 58"/>
<path d="M304.522 687.808L304.522 211.661L857.992 10.2145L857.992 486.361L304.522 687.808Z" fill="#b3b3b3" fill-rule="nonzero" opacity="1" stroke="#7b7b7b" stroke-linecap="butt" stroke-linejoin="round" stroke-width="9.76623" vectornator:layerName="Curva 3"/>
<path d="M304.522 687.808L857.992 486.361L1335.99 660.338L782.519 861.784L304.522 687.808Z" fill="#ffffff" fill-rule="nonzero" opacity="1" stroke="#7b7b7b" stroke-linecap="butt" stroke-linejoin="round" stroke-width="8.86163" vectornator:layerName="Curva 2"/>
<path d="M927.141 571.463L951.416 580.298L999.964 562.628L975.69 553.793L927.141 571.463Z" fill="#ffffff" fill-rule="nonzero" opacity="1" stroke="#7b7b7b" stroke-linecap="butt" stroke-linejoin="round" stroke-width="8.5504" vectornator:layerName="Curva 29"/>
<path d="M902.867 544.958L927.141 553.793L951.416 544.958L927.141 536.123L902.867 544.958Z" fill="#ffffff" fill-rule="nonzero" opacity="1" stroke="#7b7b7b" stroke-linecap="butt" stroke-linejoin="round" stroke-width="8.5504" vectornator:layerName="Curva 30"/>
<path d="M830.045 536.123L854.319 544.958L902.867 527.288L878.593 518.453L830.045 536.123Z" fill="#ffffff" fill-rule="nonzero" opacity="1" stroke="#7b7b7b" stroke-linecap="butt" stroke-linejoin="round" stroke-width="8.5504" vectornator:layerName="Curva 31"/>
<path d="M490.207 730.494L514.481 739.329L563.029 721.659L538.755 712.824L490.207 730.494Z" fill="#ffffff" fill-rule="nonzero" opacity="1" stroke="#7b7b7b" stroke-linecap="butt" stroke-linejoin="round" stroke-width="8.5504" vectornator:layerName="Curva 32"/>
<path d="M441.659 712.824L465.933 721.659L514.481 703.989L490.207 695.154L441.659 712.824Z" fill="#ffffff" fill-rule="nonzero" opacity="1" stroke="#7b7b7b" stroke-linecap="butt" stroke-linejoin="round" stroke-width="8.5504" vectornator:layerName="Curva 33"/>
<path d="M393.11 695.154L417.384 703.989L441.659 695.154L417.384 686.319L393.11 695.154Z" fill="#ffffff" fill-rule="nonzero" opacity="1" stroke="#7b7b7b" stroke-linecap="butt" stroke-linejoin="round" stroke-width="8.5504" vectornator:layerName="Curva 34"/>
<path d="M563.029 703.989L587.303 712.824L611.578 703.989L587.303 695.154L563.029 703.989Z" fill="#ffffff" fill-rule="nonzero" opacity="1" stroke="#7b7b7b" stroke-linecap="butt" stroke-linejoin="round" stroke-width="8.5504" vectornator:layerName="Curva 35"/>
<path d="M611.578 686.319L635.852 695.154L660.126 686.319L635.852 677.484L611.578 686.319Z" fill="#ffffff" fill-rule="nonzero" opacity="1" stroke="#7b7b7b" stroke-linecap="butt" stroke-linejoin="round" stroke-width="8.5504" vectornator:layerName="Curva 36"/>
<path d="M660.126 668.649L684.4 677.484L708.674 668.649L684.4 659.814L660.126 668.649Z" fill="#ffffff" fill-rule="nonzero" opacity="1" stroke="#7b7b7b" stroke-linecap="butt" stroke-linejoin="round" stroke-width="8.5504" vectornator:layerName="Curva 37"/>
<path d="M708.674 650.979L732.948 659.814L757.222 650.979L732.948 642.144L708.674 650.979Z" fill="#ffffff" fill-rule="nonzero" opacity="1" stroke="#7b7b7b" stroke-linecap="butt" stroke-linejoin="round" stroke-width="8.5504" vectornator:layerName="Curva 38"/>
<path d="M757.222 633.309L781.497 642.144L805.771 633.309L781.497 624.473L757.222 633.309Z" fill="#ffffff" fill-rule="nonzero" opacity="1" stroke="#7b7b7b" stroke-linecap="butt" stroke-linejoin="round" stroke-width="8.5504" vectornator:layerName="Curva 39"/>
<path d="M805.771 615.638L830.045 624.473L854.319 615.638L830.045 606.803L805.771 615.638Z" fill="#ffffff" fill-rule="nonzero" opacity="1" stroke="#7b7b7b" stroke-linecap="butt" stroke-linejoin="round" stroke-width="8.5504" vectornator:layerName="Curva 40"/>
<path d="M854.319 597.968L878.593 606.803L933.697 587.165C933.697 587.165 908.288 578.262 908.288 578.262C908.288 578.262 854.319 597.968 854.319 597.968Z" fill="#ffffff" fill-rule="nonzero" opacity="1" stroke="#7b7b7b" stroke-linecap="butt" stroke-linejoin="round" stroke-width="8.5504" vectornator:layerName="Curva 41"/>
<path d="M854.319 562.628L878.593 571.463L902.867 562.628L878.593 553.793L854.319 562.628Z" fill="#ffffff" fill-rule="nonzero" opacity="1" stroke="#7b7b7b" stroke-linecap="butt" stroke-linejoin="round" stroke-width="8.5504" vectornator:layerName="Curva 42"/>
<path d="M830.087 571.492L854.361 580.327L830.087 589.162L805.813 580.327L830.087 571.492Z" fill="#ffffff" fill-rule="nonzero" opacity="1" stroke="#7b7b7b" stroke-linecap="butt" stroke-linejoin="round" stroke-width="8.5504" vectornator:layerName="Curva 43"/>
<path d="M781.539 589.162L805.813 597.997L781.539 606.833L757.264 597.997L781.539 589.162Z" fill="#ffffff" fill-rule="nonzero" opacity="1" stroke="#7b7b7b" stroke-linecap="butt" stroke-linejoin="round" stroke-width="8.5504" vectornator:layerName="Curva 44"/>
<path d="M732.99 606.833L757.264 615.668L732.99 624.503L708.716 615.668L732.99 606.833Z" fill="#ffffff" fill-rule="nonzero" opacity="1" stroke="#7b7b7b" stroke-linecap="butt" stroke-linejoin="round" stroke-width="8.5504" vectornator:layerName="Curva 45"/>
<path d="M684.442 624.503L708.716 633.338L684.442 642.173L660.168 633.338L684.442 624.503Z" fill="#ffffff" fill-rule="nonzero" opacity="1" stroke="#7b7b7b" stroke-linecap="butt" stroke-linejoin="round" stroke-width="8.5504" vectornator:layerName="Curva 46"/>
<path d="M635.894 642.173L660.168 651.008L635.894 659.843L611.62 651.008L635.894 642.173Z" fill="#ffffff" fill-rule="nonzero" opacity="1" stroke="#7b7b7b" stroke-linecap="butt" stroke-linejoin="round" stroke-width="8.5504" vectornator:layerName="Curva 47"/>
<path d="M587.345 659.843L611.62 668.678L587.345 677.513L563.071 668.678L587.345 659.843Z" fill="#ffffff" fill-rule="nonzero" opacity="1" stroke="#7b7b7b" stroke-linecap="butt" stroke-linejoin="round" stroke-width="8.5504" vectornator:layerName="Curva 48"/>
<path d="M538.755 677.484L563.029 686.319L538.755 695.154L514.481 686.319L538.755 677.484Z" fill="#ffffff" fill-rule="nonzero" opacity="1" stroke="#7b7b7b" stroke-linecap="butt" stroke-linejoin="round" stroke-width="8.5504" vectornator:layerName="Curva 49"/>
<path d="M441.659 677.484L465.933 686.319L490.207 677.484L465.933 668.649L441.659 677.484Z" fill="#ffffff" fill-rule="nonzero" opacity="1" stroke="#7b7b7b" stroke-linecap="butt" stroke-linejoin="round" stroke-width="8.5504" vectornator:layerName="Curva 50"/>
<path d="M490.207 659.814L514.481 668.649L538.755 659.814L514.481 650.979L490.207 659.814Z" fill="#ffffff" fill-rule="nonzero" opacity="1" stroke="#7b7b7b" stroke-linecap="butt" stroke-linejoin="round" stroke-width="8.5504" vectornator:layerName="Curva 51"/>
<path d="M538.755 642.144L563.029 650.979L587.303 642.144L563.029 633.309L538.755 642.144Z" fill="#ffffff" fill-rule="nonzero" opacity="1" stroke="#7b7b7b" stroke-linecap="butt" stroke-linejoin="round" stroke-width="8.5504" vectornator:layerName="Curva 52"/>
<path d="M587.303 624.473L611.578 633.309L635.852 624.473L611.578 615.638L587.303 624.473Z" fill="#ffffff" fill-rule="nonzero" opacity="1" stroke="#7b7b7b" stroke-linecap="butt" stroke-linejoin="round" stroke-width="8.5504" vectornator:layerName="Curva 53"/>
<path d="M635.852 606.803L660.126 615.638L684.4 606.803L660.126 597.968L635.852 606.803Z" fill="#ffffff" fill-rule="nonzero" opacity="1" stroke="#7b7b7b" stroke-linecap="butt" stroke-linejoin="round" stroke-width="8.5504" vectornator:layerName="Curva 54"/>
<path d="M684.4 589.133L708.674 597.968L732.948 589.133L708.674 580.298L684.4 589.133Z" fill="#ffffff" fill-rule="nonzero" opacity="1" stroke="#7b7b7b" stroke-linecap="butt" stroke-linejoin="round" stroke-width="8.5504" vectornator:layerName="Curva 55"/>
<path d="M732.948 571.463L757.222 580.298L781.497 571.463L757.222 562.628L732.948 571.463Z" fill="#ffffff" fill-rule="nonzero" opacity="1" stroke="#7b7b7b" stroke-linecap="butt" stroke-linejoin="round" stroke-width="8.5504" vectornator:layerName="Curva 56"/>
<path d="M781.497 553.793L805.771 562.628L830.045 553.793L805.771 544.958L781.497 553.793Z" fill="#ffffff" fill-rule="nonzero" opacity="1" stroke="#7b7b7b" stroke-linecap="butt" stroke-linejoin="round" stroke-width="8.5504" vectornator:layerName="Curva 57"/>
<path d="M857.236 9.93949L833.59 1.33294C833.172 1.18103 832.496 1.18103 832.078 1.33294L280.12 202.229C279.702 202.381 279.702 202.628 280.12 202.78L303.766 211.386C304.183 211.538 304.86 211.538 305.277 211.386L857.236 10.4896C857.653 10.3377 857.653 10.0914 857.236 9.93949Z" fill="#d7d7d7" fill-rule="nonzero" opacity="1" stroke="#7b7b7b" stroke-linecap="butt" stroke-linejoin="round" stroke-width="9.76623" vectornator:layerName="Curva 4"/>
<path d="M304.522 687.808L279.364 678.651L279.364 202.505L304.522 211.661L304.522 687.808Z" fill="#e4e4e4" fill-rule="nonzero" opacity="1" stroke="#7b7b7b" stroke-linecap="butt" stroke-linejoin="round" stroke-width="9.76623" vectornator:layerName="Curva 5"/>
<path d="M782.519 861.784L782.519 898.411L304.522 724.434L304.522 687.808L782.519 861.784Z" fill="#fffaf6" fill-rule="nonzero" opacity="1" stroke="#7b7b7b" stroke-linecap="butt" stroke-linejoin="round" stroke-width="9.76623" vectornator:layerName="Curva 7"/>
<path d="M1336.29 660.524L1336.29 697.151L782.821 898.597L782.821 861.971L1336.29 660.524Z" fill="#fffaf6" fill-rule="nonzero" opacity="1" stroke="#7b7b7b" stroke-linecap="butt" stroke-linejoin="round" stroke-width="8.86163" vectornator:layerName="Curva 8"/>
<path d="M329.679 251.784L329.679 647.685C329.679 654.673 335.003 658.4 341.569 656.01L820.945 481.532C827.511 479.142 832.834 471.54 832.834 464.552L832.834 68.6504C832.834 61.6626 827.511 57.9353 820.945 60.3253L341.569 234.804C335.003 237.194 329.679 244.796 329.679 251.784Z" fill="#ffffff" fill-rule="nonzero" opacity="1" stroke="#7b7b7b" stroke-linecap="butt" stroke-linejoin="round" stroke-width="9.76623" vectornator:layerName="Curva 9"/>
<path d="M933.402 770.533L1084.35 715.593L983.718 678.966L832.772 733.906L933.402 770.533Z" fill="#fffaf6" fill-rule="nonzero" opacity="1" stroke="#7b7b7b" stroke-linecap="butt" stroke-linejoin="round" stroke-width="8.86163" vectornator:layerName="Curva 10"/>
<path d="M732.948 712.824L757.222 721.659L951.416 650.979L927.141 642.144L732.948 712.824Z" fill="#fffaf6" fill-rule="nonzero" opacity="1" stroke="#7b7b7b" stroke-linecap="butt" stroke-linejoin="round" stroke-width="8.5504" vectornator:layerName="Curva 11"/>
<path d="M951.416 633.309L975.69 642.144L1024.24 624.473L999.964 615.638L951.416 633.309Z" fill="#fffaf6" fill-rule="nonzero" opacity="1" stroke="#7b7b7b" stroke-linecap="butt" stroke-linejoin="round" stroke-width="8.5504" vectornator:layerName="Curva 12"/>
<path d="M1024.24 606.803L1048.51 615.638L1097.06 597.968L1072.79 589.133L1024.24 606.803Z" fill="#fffaf6" fill-rule="nonzero" opacity="1" stroke="#7b7b7b" stroke-linecap="butt" stroke-linejoin="round" stroke-width="8.5504" vectornator:layerName="Curva 13"/>
<path d="M951.416 597.968L975.69 606.803L1048.51 580.298L1024.24 571.463L951.416 597.968Z" fill="#fffaf6" fill-rule="nonzero" opacity="1" stroke="#7b7b7b" stroke-linecap="butt" stroke-linejoin="round" stroke-width="8.5504" vectornator:layerName="Curva 15"/>
<path d="M927.141 606.803L951.416 615.638L902.867 633.309L878.593 624.473L927.141 606.803Z" fill="#fffaf6" fill-rule="nonzero" opacity="1" stroke="#7b7b7b" stroke-linecap="butt" stroke-linejoin="round" stroke-width="8.5504" vectornator:layerName="Curva 18"/>
<path d="M660.126 739.329L684.4 748.164L732.948 730.494L708.674 721.659L660.126 739.329Z" fill="#fffaf6" fill-rule="nonzero" opacity="1" stroke="#7b7b7b" stroke-linecap="butt" stroke-linejoin="round" stroke-width="8.5504" vectornator:layerName="Curva 21"/>
<path d="M635.852 748.164L660.126 756.999L611.578 774.67L587.303 765.835L635.852 748.164Z" fill="#fffaf6" fill-rule="nonzero" opacity="1" stroke="#7b7b7b" stroke-linecap="butt" stroke-linejoin="round" stroke-width="8.5504" vectornator:layerName="Curva 22"/>
<path d="M538.755 748.164L563.029 756.999L635.852 730.494L611.578 721.659L538.755 748.164Z" fill="#fffaf6" fill-rule="nonzero" opacity="1" stroke="#7b7b7b" stroke-linecap="butt" stroke-linejoin="round" stroke-width="8.5504" vectornator:layerName="Curva 23"/>
<path d="M635.852 712.824L660.126 721.659L684.4 712.824L660.126 703.989L635.852 712.824Z" fill="#fffaf6" fill-rule="nonzero" opacity="1" stroke="#7b7b7b" stroke-linecap="butt" stroke-linejoin="round" stroke-width="8.5504" vectornator:layerName="Curva 24"/>
<path d="M684.4 695.154L708.674 703.989L732.948 695.154L708.674 686.319L684.4 695.154Z" fill="#fffaf6" fill-rule="nonzero" opacity="1" stroke="#7b7b7b" stroke-linecap="butt" stroke-linejoin="round" stroke-width="8.5504" vectornator:layerName="Curva 25"/>
<path d="M732.948 677.484L757.222 686.319L781.497 677.484L757.222 668.649L732.948 677.484Z" fill="#fffaf6" fill-rule="nonzero" opacity="1" stroke="#7b7b7b" stroke-linecap="butt" stroke-linejoin="round" stroke-width="8.5504" vectornator:layerName="Curva 26"/>
<path d="M1138.81 523.735L1144.79 542.542L1177.45 555.67L1217.82 563.711L1246.54 564.203L1278.54 557.967L1293.42 553.304C1293.42 553.304 1262.1 582.246 1224.66 583.688C1163.05 586.062 1133.16 561.113 1130.8 552.148C1130.8 552.148 1126.19 542.167 1138.81 523.735Z" fill="#cacaca" fill-rule="nonzero" opacity="1" stroke="none" vectornator:layerName="Curva 62"/>
<path d="M781.497 659.814L805.771 668.649L830.045 659.814L805.771 650.979L781.497 659.814Z" fill="#fffaf6" fill-rule="nonzero" opacity="1" stroke="#7b7b7b" stroke-linecap="butt" stroke-linejoin="round" stroke-width="8.5504" vectornator:layerName="Curva 27"/>
<path d="M830.045 642.144L854.319 650.979L878.593 642.144L854.319 633.309L830.045 642.144Z" fill="#fffaf6" fill-rule="nonzero" opacity="1" stroke="#7b7b7b" stroke-linecap="butt" stroke-linejoin="round" stroke-width="8.5504" vectornator:layerName="Curva 28"/>
<path d="M1158.84 548.256L1187.93 558.845C1211.84 567.549 1250.62 567.549 1274.53 558.845L1274.7 558.784C1298.62 550.079 1298.62 535.967 1274.7 527.262L1245.61 516.673C1221.69 507.969 1182.92 507.969 1159 516.673L1158.84 516.735C1134.92 525.439 1134.92 539.552 1158.84 548.256Z" fill="#fffaf6" fill-rule="nonzero" opacity="1" stroke="#7b7b7b" stroke-linecap="butt" stroke-linejoin="round" stroke-width="10.5274" vectornator:layerName="Curva 59"/>
<path d="M1153.19 520.516C1153.19 520.516 1174.59 516.785 1201.6 527.917" fill="#fffaf6" fill-rule="nonzero" opacity="1" stroke="#7b7b7b" stroke-linecap="butt" stroke-linejoin="round" stroke-width="5.44455" vectornator:layerName="Curva 61"/>
<path d="M1170.66 551.506C1170.66 551.506 1175.32 541.556 1184.52 535.79C1195.82 528.703 1238.82 515.996 1238.82 515.996" fill="#fffaf6" fill-rule="nonzero" opacity="1" stroke="#7b7b7b" stroke-linecap="butt" stroke-linejoin="round" stroke-width="6.83377" vectornator:layerName="Curva 60"/>
</g>
</svg>
