<?xml version="1.0" encoding="UTF-8" standalone="no"?>
<!DOCTYPE svg PUBLIC "-//W3C//DTD SVG 1.1//EN" "http://www.w3.org/Graphics/SVG/1.1/DTD/svg11.dtd">
<!-- Created with Vectornator (http://vectornator.io/) -->
<svg height="100%" stroke-miterlimit="10" style="fill-rule:nonzero;clip-rule:evenodd;stroke-linecap:round;stroke-linejoin:round;" version="1.1" viewBox="0 0 1917.45 1050.52" width="100%" xml:space="preserve" xmlns="http://www.w3.org/2000/svg" xmlns:vectornator="http://vectornator.io" xmlns:xlink="http://www.w3.org/1999/xlink">
<defs>
<path d="M379.828 1009.22C24.2116 916.162-96.176 671.918 87.6856 501.26C275 327.397 556.016 520.834 770.141 531.263C896.531 537.419 1361.74 494.219 1453.02 478.944C1524.58 466.97 1705.77 351.276 1845.1 461.745C1962.79 555.059 1911.49 717.759 1847.83 768.009C1734.09 857.791 1626.33 843.77 1356.29 927.452C1175.4 983.507 906.656 1053.22 746.495 1051.42C646.021 1050.28 379.828 1009.22 379.828 1009.22Z" id="Fill"/>
<path d="M789.625 577.634L789.625 660.646C789.625 664.234 792.358 666.148 795.73 664.921L1091.25 557.359C1094.63 556.132 1097.42 558.045 1097.5 561.632L1098.6 611.878C1098.68 615.465 1100.59 616.123 1102.86 613.348L1225.13 464.157C1227.4 461.382 1226.63 457.862 1223.4 456.295L1103.2 397.965C1099.98 396.398 1097.36 398.037 1097.36 401.625L1097.36 452.635C1097.36 456.223 1094.63 460.127 1091.25 461.354L795.73 568.916C792.358 570.143 789.625 574.046 789.625 577.634Z" id="Fill_2"/>
</defs>
<g id="Capa-1" vectornator:layerName="Capa 1"/>
<clipPath id="ArtboardFrame">
<rect height="1050.52" width="1917.45" x="0" y="0"/>
</clipPath>
<g clip-path="url(#ArtboardFrame)" id="Capa-3" vectornator:layerName="Capa 3">
<use fill="#eeeeee" fill-rule="nonzero" opacity="1" stroke="none" vectornator:layerName="Curva 1" xlink:href="#Fill"/>
<clipPath clip-rule="nonzero" id="ClipPath">
<use xlink:href="#Fill"/>
</clipPath>
<g clip-path="url(#ClipPath)">
<path d="M1660.48 543.364C1732.77 579.73 1801.16 609.343 1691.95 658.079C1691.95 658.079 1120.51 869.79 1034.09 911.552C990.476 932.628 1025.57 935.992 985.703 952.925C925.039 978.692 628.441 1078.51 600.286 1086.44C583.575 1091.15 569.763 1095.64 550.18 1095.64C530.597 1095.64 523.095 1093.18 507.798 1089.31C373.562 1055.36 181.01 981.049 134.173 960.31C134.173 960.31 111.511 945.405 113.702 921.731C116.598 890.441 154.558 876.501 154.558 876.501C304.424 809.95 1059.44 547.964 1059.44 547.964L1660.48 543.364Z" fill="#cacaca" fill-rule="nonzero" opacity="1" stroke="none" vectornator:layerName="Curva 2"/>
</g>
</g>
<g id="Capa-2" vectornator:layerName="Capa 2">
<path d="M391.205 772.466C382.172 712.888 404.006 673.214 456.731 650.062C507.783 627.645 560.42 659.237 569.419 724.581C574.742 763.232 480.825 860.917 480.825 860.917C412.428 839.58 400.099 831.127 391.205 772.466Z" fill="#999999" fill-rule="nonzero" opacity="1" stroke="#7d7d7d" stroke-linecap="butt" stroke-linejoin="round" stroke-width="10.8411" vectornator:layerName="Óvalo 7"/>
<path d="M423.453 765.067C421.412 697.787 440.309 648.819 491.01 629.803C540.102 611.391 582.754 659.341 587.171 732.841C589.535 772.184 578.57 839.347 518.434 859.882C506.449 863.974 494.735 864.325 483.854 861.541C450.498 853.007 424.969 815.016 423.453 765.067Z" fill="#969696" fill-rule="nonzero" opacity="1" stroke="#7d7d7d" stroke-linecap="butt" stroke-linejoin="round" stroke-width="11.5229" vectornator:layerName="Óvalo 8"/>
<path d="M688.53 399.784L688.53 898.284C688.53 908.972 680.389 914.672 670.346 911.017L331.384 787.645C321.341 783.99 313.199 772.362 313.199 761.675L313.199 263.175C313.199 252.487 321.341 246.786 331.384 250.442L670.346 373.814C680.389 377.469 688.53 389.096 688.53 399.784Z" fill="#c1c1c1" fill-rule="nonzero" opacity="1" stroke="#7d7d7d" stroke-linecap="butt" stroke-linejoin="round" stroke-width="13.6944" vectornator:layerName="Curva 4"/>
<path d="M1385.67 243.878L1385.67 634.191L1010.34 497.581L1010.34 107.269L1385.67 243.878Z" fill="#eaa06a" fill-rule="nonzero" opacity="1" stroke="#7d7d7d" stroke-linecap="butt" stroke-linejoin="round" stroke-width="13.6944" vectornator:layerName="Curva 7"/>
<path d="M1633.28 193.1L1740.52 349.225C1743.25 352.542 1745.48 358.718 1745.5 363.018L1745.67 498.256C1745.68 502.556 1742.42 507.242 1738.38 508.723L1398.86 633.536C1391.75 636.145 1385.98 632.118 1385.98 624.542L1385.67 251.664C1385.67 247.364 1388.94 242.684 1392.98 241.211L1580.95 173.422C1600.06 166.466 1623.49 175.276 1633.28 193.1Z" fill="#ffb27a" fill-rule="nonzero" opacity="1" stroke="#7d7d7d" stroke-linecap="butt" stroke-linejoin="round" stroke-width="13.6944" vectornator:layerName="Curva 8"/>
<path d="M1498.75 594.952C1498.75 594.952 1482.99 498.939 1573.09 469.325C1627.43 451.464 1675.71 504.425 1676.68 531.475L1659.56 537.628C1659.56 537.628 1638.55 475.477 1575.87 495.605C1523.26 512.498 1518.84 570.645 1519.01 587.595L1498.75 594.952Z" fill="#8c8c8c" fill-rule="nonzero" opacity="1" stroke="#7d7d7d" stroke-linecap="butt" stroke-linejoin="round" stroke-width="12.8879" vectornator:layerName="Curva 11"/>
<path d="M1385.41 243.823L1457.3 217.655L1592.45 169.732L1256.02 57.7477L1063.96 126.784L1385.41 243.823Z" fill="#ffb27a" fill-rule="nonzero" opacity="1" stroke="#7d7d7d" stroke-linecap="butt" stroke-linejoin="round" stroke-width="13.6944" vectornator:layerName="Curva 9"/>
<path d="M688.624 380.488L1314.03 154.679L967.549 31.2428C956.702 27.295 939.108 27.2723 928.251 31.1922L322.499 249.903L688.624 380.488Z" fill="#e5e5e5" fill-rule="nonzero" opacity="1" stroke="#7d7d7d" stroke-linecap="butt" stroke-linejoin="round" stroke-width="13.6944" vectornator:layerName="Curva 6"/>
<path d="M1332.05 175.952L1332.05 663.086C1332.05 679.462 1319.57 697.278 1304.19 702.879L716.488 916.784C701.099 922.385 688.624 913.65 688.624 897.274L688.624 410.139C688.624 393.763 701.099 375.947 716.488 370.346L1304.19 156.441C1319.57 150.84 1332.05 159.575 1332.05 175.952Z" fill="#d1d1d1" fill-rule="nonzero" opacity="1" stroke="#7d7d7d" stroke-linecap="butt" stroke-linejoin="round" stroke-width="13.6944" vectornator:layerName="Curva 5"/>
<path d="M1519.76 591.42C1517.97 542.709 1534.55 507.255 1579.05 493.487C1622.14 480.157 1661.54 510.378 1662.78 563.72C1663.51 595.271 1655.9 645.2 1603.12 660.067C1560.36 672.113 1521.52 639.381 1519.76 591.42Z" fill="#999999" fill-rule="nonzero" opacity="1" stroke="#7d7d7d" stroke-linecap="butt" stroke-linejoin="round" stroke-width="10.6496" vectornator:layerName="Óvalo 2"/>
<path d="M1565.53 659.325C1565.53 659.325 1502.85 647.361 1492.08 636.292C1482.57 626.512 1477.46 617.131 1474.65 604.315L1518.85 588.579C1518.85 588.579 1518.27 641.514 1565.53 659.325Z" fill="#9a9a9a" fill-rule="nonzero" opacity="1" stroke="#7d7d7d" stroke-linecap="butt" stroke-linejoin="round" stroke-width="10.6496" vectornator:layerName="Curva 10"/>
<path d="M1504.38 585.179L1505.37 599.009L1513.98 596C1513.18 589.912 1512.63 581.726 1512.63 581.726L1504.38 585.179Z" fill="#8c8c8c" fill-rule="nonzero" opacity="1" stroke="none" vectornator:layerName="Curva 12"/>
<path d="M1661.93 526.96C1664.15 533.138 1665.59 542.258 1665.59 542.258L1672.42 539.846C1671.86 533.758 1668.96 525.146 1668.96 525.146L1661.93 526.96Z" fill="#8c8c8c" fill-rule="nonzero" opacity="1" stroke="none" vectornator:layerName="Curva 16"/>
<path d="M848.495 868.715C848.495 868.715 830.459 758.855 933.552 724.97C995.729 704.534 1050.98 765.133 1052.09 796.084L1047.47 797.743L1044.06 798.968L1032.5 803.123C1032.5 803.123 1008.46 732.009 936.737 755.041C876.545 774.37 871.482 840.903 871.684 860.297L857.596 865.411L848.495 868.715Z" fill="#8c8c8c" fill-rule="nonzero" opacity="1" stroke="#7d7d7d" stroke-linecap="butt" stroke-linejoin="round" stroke-width="9.02917" vectornator:layerName="Curva 13"/>
<path d="M872.536 864.673C870.486 808.937 889.463 768.37 940.379 752.617C989.68 737.364 1034.77 771.944 1036.18 832.979C1037.02 869.08 1028.31 926.209 967.919 943.221C918.987 957.004 874.554 919.551 872.536 864.673Z" fill="#999999" fill-rule="nonzero" opacity="1" stroke="#7d7d7d" stroke-linecap="butt" stroke-linejoin="round" stroke-width="9.02917" vectornator:layerName="Óvalo 4"/>
<path d="M922.698 857.303C921.76 831.807 930.441 813.25 953.732 806.044C976.285 799.066 996.909 814.884 997.556 842.804C997.938 859.319 993.956 885.452 966.331 893.234C943.947 899.539 923.621 882.406 922.698 857.303Z" fill="#dbdbdb" fill-rule="nonzero" opacity="1" stroke="#7d7d7d" stroke-linecap="butt" stroke-linejoin="round" stroke-width="9.02917" vectornator:layerName="Óvalo 5"/>
<path d="M1563.19 581.773C1562.4 560.243 1569.73 544.572 1589.4 538.487C1608.45 532.595 1625.86 545.953 1626.41 569.53C1626.73 583.476 1623.37 605.545 1600.04 612.116C1581.14 617.441 1563.97 602.973 1563.19 581.773Z" fill="#dbdbdb" fill-rule="nonzero" opacity="1" stroke="#7d7d7d" stroke-linecap="butt" stroke-linejoin="round" stroke-width="9.46889" vectornator:layerName="Óvalo 6"/>
<path d="M924.912 942.372C924.912 942.372 853.185 928.682 840.866 916.017C829.98 904.826 824.132 894.093 820.917 879.428L871.493 861.423C871.493 861.423 871.42 868.104 873.303 877.774C877.09 897.222 888.79 928.76 924.912 942.372Z" fill="#9a9a9a" fill-rule="nonzero" opacity="1" stroke="#7d7d7d" stroke-linecap="butt" stroke-linejoin="round" stroke-width="9.02917" vectornator:layerName="Curva 14"/>
<path d="M852.233 857.532L853.766 873.357L867.034 869.914C865.806 862.948 866.548 852.17 866.548 852.17L852.233 857.532Z" fill="#8c8c8c" fill-rule="nonzero" opacity="1" stroke="none" vectornator:layerName="Curva 15"/>
<path d="M1034.68 795.111C1037.02 801.238 1038.02 807.853 1038.02 807.853L1049.6 803.595C1047.83 797.953 1045.95 789.365 1045.95 789.365L1034.68 795.111Z" fill="#8c8c8c" fill-rule="nonzero" opacity="1" stroke="none" vectornator:layerName="Curva 17"/>
<path d="M1482.22 447.296L1482.12 464.83L1525.99 450.047L1526 431.717L1482.22 447.296Z" fill="#dda075" fill-rule="nonzero" opacity="1" stroke="#7d7d7d" stroke-linecap="butt" stroke-linejoin="round" stroke-width="12.1434" vectornator:layerName="Curva 19"/>
<g opacity="1" vectornator:layerName="Curva 20">
<use fill="#f8f8f8" fill-rule="nonzero" stroke="none" xlink:href="#Fill_2"/>
<mask height="287.619" id="StrokeMask" maskUnits="userSpaceOnUse" width="456.505" x="779.776" y="387.522">
<rect fill="#ffffff" height="287.619" stroke="none" width="456.505" x="779.776" y="387.522"/>
<use fill="#000000" fill-rule="evenodd" stroke="none" xlink:href="#Fill_2"/>
</mask>
<use fill="none" mask="url(#StrokeMask)" stroke="#7f7f7f" stroke-linecap="butt" stroke-linejoin="round" stroke-width="19.6973" xlink:href="#Fill_2"/>
</g>
<path d="M1480.08 270.108L1585.23 230.285C1598.54 225.432 1616.48 230.483 1625.3 241.566L1696.93 344.571L1482.41 416.656C1482.41 416.656 1479.52 271.227 1480.08 270.108Z" fill="#f8f3ef" fill-rule="nonzero" opacity="1" stroke="#7d7d7d" stroke-linecap="butt" stroke-linejoin="round" stroke-width="13.6944" vectornator:layerName="Curva 18"/>
<path d="M505.362 320.291L505.021 536.034L504.522 851.337" fill="#fffaf6" fill-rule="nonzero" opacity="1" stroke="#7b7b7b" stroke-linecap="butt" stroke-linejoin="round" stroke-width="9.11972" vectornator:layerName="Curva 21"/>
</g>
</svg>
