<?xml version="1.0" encoding="UTF-8" standalone="no"?>
<!DOCTYPE svg PUBLIC "-//W3C//DTD SVG 1.1//EN" "http://www.w3.org/Graphics/SVG/1.1/DTD/svg11.dtd">
<!-- Created with Vectornator (http://vectornator.io/) -->
<svg height="100%" stroke-miterlimit="10" style="fill-rule:nonzero;clip-rule:evenodd;stroke-linecap:round;stroke-linejoin:round;" version="1.1" viewBox="0 0 2050 1024" width="100%" xml:space="preserve" xmlns="http://www.w3.org/2000/svg" xmlns:vectornator="http://vectornator.io" xmlns:xlink="http://www.w3.org/1999/xlink">
<defs>
<path d="M1643.85 441.9C2024.4 535.01 2154.54 757.82 1970.31 884.327C1659.93 1097.46 1142.58 1024.4 882.239 927.599C806.365 899.389 722.375 870.424 550.978 922.135C361.66 979.252 153.424 933.124 76.0019 881.927C-10.455 824.756-31.5013 730.948 68.7562 644.47C286.467 456.681 1088.49 417.68 1448.18 421.47C1555.7 422.603 1643.85 441.9 1643.85 441.9Z" id="Fill"/>
</defs>
<clipPath id="ArtboardFrame">
<rect height="1024" width="2050" x="0" y="0"/>
</clipPath>
<g clip-path="url(#ArtboardFrame)" id="Capa-1" vectornator:layerName="Capa 1">
<use fill="#e5e4e4" fill-rule="nonzero" opacity="1" stroke="none" vectornator:layerName="Curva 1" xlink:href="#Fill"/>
<clipPath clip-rule="nonzero" id="ClipPath">
<use xlink:href="#Fill"/>
</clipPath>
<g clip-path="url(#ClipPath)">
<path d="M1767.87 756.038C1765.62 779.419 1763.11 791.609 1738.71 803.595C1738.71 803.595 1445.69 926.213 1358.06 954.2C1349.15 957.049 1341.78 959.77 1331.32 959.77C1320.87 959.77 1316.87 958.28 1308.71 955.938C1237.07 935.383 928.709 820.278 903.713 807.723C903.713 807.723 891.619 798.701 892.788 784.371C894.333 765.43 914.592 756.992 914.592 756.992C994.573 716.707 1199.1 632.642 1199.1 632.642L1767.87 756.038Z" fill="#c9c5c1" fill-rule="nonzero" opacity="1" stroke="none" vectornator:layerName="Curva 4"/>
</g>
</g>
<g id="Capa-3" vectornator:layerName="Capa 3">
<path d="M1035.16 775.471L1035.16 343.901L1430.41 200.045L1759.77 319.925L1759.77 751.495L1364.53 895.351" fill="#ffb27a" fill-rule="nonzero" opacity="1" stroke="none" vectornator:layerName="Curva 1"/>
<path d="M1364.53 895.351L1759.77 751.495L1759.77 319.925L1364.53 463.782L1035.16 343.901L1035.16 775.471L1364.53 895.351Z" fill="none" opacity="1" stroke="#826b5a" stroke-linecap="butt" stroke-linejoin="round" stroke-width="12" vectornator:layerName="Curva 3"/>
<path d="M1759.77 319.925L1430.41 200.045L1035.16 343.901L1232.78 271.973L1562.15 391.854" fill="none" opacity="1" stroke="#806857" stroke-linecap="butt" stroke-linejoin="round" stroke-width="12" vectornator:layerName="Curva 4"/>
<path d="M1364.72 586.58C1364.72 661.383 1364.53 895.351 1364.53 895.351C1364.53 895.351 1364.72 511.777 1364.72 586.58Z" fill="none" opacity="1" stroke="#836956" stroke-linecap="butt" stroke-linejoin="round" stroke-width="12" vectornator:layerName="Curva 5"/>
<g opacity="1" vectornator:layerName="Curva 2">
<path d="M1364.53 464.125C1361.32 464.131 1358.71 466.753 1358.72 469.969C1358.71 488.883 1358.7 507.774 1358.69 526.688C1358.69 529.976 1361.37 532.662 1364.66 532.656C1367.95 532.65 1370.6 529.976 1370.59 526.688C1370.52 507.774 1370.42 488.851 1370.34 469.938C1370.34 466.722 1367.75 464.119 1364.53 464.125Z" fill="#836956" stroke="none"/>
</g>
<g opacity="1" vectornator:layerName="Curva 6">
<path d="M1082.72 737.25C1080.4 737.377 1078.27 738.866 1077.44 741.188C1076.32 744.282 1077.94 747.699 1081.03 748.812C1103.67 756.912 1126.33 764.995 1148.97 773.094C1151.99 774.182 1155.32 772.62 1156.41 769.594C1157.49 766.568 1155.93 763.214 1152.91 762.125C1130.29 753.943 1107.68 745.776 1085.06 737.594C1084.29 737.315 1083.49 737.208 1082.72 737.25Z" fill="#836956" stroke="none"/>
</g>
<path d="M1611.58 322.684C1610.3 335.952 1608.88 342.869 1595.04 349.67C1595.04 349.67 1428.76 419.249 1379.04 435.13C1373.98 436.747 1369.8 438.291 1363.87 438.291C1357.94 438.291 1355.66 437.445 1351.03 436.116C1310.38 424.453 1135.41 359.137 1121.22 352.013C1121.22 352.013 1114.36 346.893 1115.02 338.762C1115.9 328.014 1127.39 323.226 1127.39 323.226C1172.78 300.366 1288.84 252.664 1288.84 252.664L1611.58 322.684Z" fill="#44403c" fill-rule="nonzero" opacity="0.263462" stroke="none" vectornator:layerName="Curva 24"/>
<path d="M1576.52 498.097C1576.52 498.097 1589.46 497.19 1595.01 499.021L1595.28 499.09C1607.76 501.72 1620.62 507.831 1629.61 516.147C1639.51 525.312 1647.65 538.085 1651.37 550.849C1655.36 564.521 1656.91 578.038 1653.3 592.331C1652.51 595.438 1651.04 601.468 1644.04 614.172C1644.04 614.172 1635.36 630.124 1635.12 630.654C1634.09 632.899 1625.82 649.875 1623.43 657.005C1622.09 661.002 1616.74 661.455 1577.5 676.82C1566 681.321 1563.41 680.747 1559.61 672.904C1559.21 672.077 1557.4 668.514 1557.02 667.862C1552.86 660.757 1555.58 660.07 1555.58 660.07C1557.56 657.459 1593.51 643.784 1598.41 641.711C1603.64 639.608 1604.34 637.011 1601.95 631.48C1598.4 623.249 1594.29 625.994 1592.56 626.497C1587.76 627.893 1565.47 636.637 1549.94 642.789C1545.78 644.434 1545.47 645.029 1541.28 641.458C1535.34 636.394 1531.42 631.722 1531.19 631.465C1528.81 628.853 1523.22 621.646 1523.18 621.591C1523.03 621.394 1522.3 620.6 1521.66 619.707C1519.84 617.174 1518.63 615.433 1516.9 612.44C1513.1 605.856 1510.3 599.651 1508.94 593.111C1508.81 592.49 1508.69 591.868 1508.59 591.252C1505.91 575.721 1507.7 562.064 1511.85 549.907C1515.76 538.419 1522.23 528.396 1531.36 519.042C1535.87 514.412 1540.92 510.593 1546.44 507.406C1550.64 504.979 1554.76 503.097 1559.42 501.308C1563.72 499.656 1569.98 498.525 1576.52 498.097Z" fill="#826b5a" fill-rule="nonzero" opacity="1" stroke="none" vectornator:layerName="Curva 2"/>
<path d="M1620.36 688.518C1619.77 691.478 1618.79 694.576 1617.44 696.817C1616.48 698.416 1613.22 703.365 1603.24 707.571C1591.87 712.365 1587.19 710.619 1586.09 710.359C1584.3 709.94 1581.62 709.538 1578.39 707.076L1578.31 707C1572.92 702.118 1571.77 696.546 1575.17 694.988C1588.27 688.999 1615.7 679.497 1615.7 679.497C1620.36 678.288 1622.46 678.006 1620.36 688.518Z" fill="#826b5a" fill-rule="nonzero" opacity="1" stroke="none" vectornator:layerName="Curva 3"/>
<path d="M1194.38 333.192L1194.38 89.2424L1417.8 7.92575L1603.98 75.6897L1603.98 319.64L1380.56 400.956" fill="#ffb27a" fill-rule="nonzero" opacity="1" stroke="none" vectornator:layerName="Curva 7"/>
<path d="M1380.56 400.956L1603.98 319.64L1603.98 75.6897L1380.56 157.006L1194.38 89.2424L1194.38 333.192L1380.56 400.956Z" fill="none" opacity="1" stroke="#826b5a" stroke-linecap="butt" stroke-linejoin="round" stroke-width="12" vectornator:layerName="Curva 8"/>
<path d="M1603.98 75.6897L1417.8 7.92575L1194.38 89.2424L1306.09 48.5841L1492.27 116.348" fill="none" opacity="1" stroke="#806857" stroke-linecap="butt" stroke-linejoin="round" stroke-width="12" vectornator:layerName="Curva 9"/>
<path d="M1380.67 226.419C1380.67 268.703 1380.56 400.956 1380.56 400.956C1380.56 400.956 1380.67 184.136 1380.67 226.419Z" fill="none" opacity="1" stroke="#836956" stroke-linecap="butt" stroke-linejoin="round" stroke-width="12" vectornator:layerName="Curva 10"/>
<g opacity="1" vectornator:layerName="Curva 11">
<path d="M1380.56 154.656C1377.35 154.662 1374.74 157.284 1374.75 160.5C1374.73 171.191 1374.68 181.871 1374.66 192.562C1374.66 195.851 1377.34 198.537 1380.62 198.531C1383.91 198.525 1386.57 195.851 1386.56 192.562C1386.5 181.871 1386.44 171.16 1386.38 160.469C1386.37 157.253 1383.78 154.65 1380.56 154.656Z" fill="#836956" stroke="none"/>
</g>
<g opacity="1" vectornator:layerName="Curva 12">
<path d="M1231.59 302.875C1228.7 303.034 1226.04 304.88 1225 307.781C1223.61 311.649 1225.63 315.921 1229.5 317.312C1242.31 321.862 1255.1 326.388 1267.91 330.938C1271.69 332.298 1275.86 330.345 1277.22 326.562C1278.58 322.78 1276.63 318.611 1272.84 317.25C1260.07 312.597 1247.3 307.935 1234.53 303.281C1233.56 302.933 1232.56 302.822 1231.59 302.875Z" fill="#836956" stroke="none"/>
</g>
<path d="M1500.39 176.403C1500.39 176.403 1507.7 175.891 1510.84 176.926L1510.99 176.965C1518.05 178.452 1525.32 181.906 1530.4 186.606C1536 191.787 1540.6 199.007 1542.7 206.222C1544.95 213.95 1545.83 221.591 1543.79 229.67C1543.34 231.427 1542.51 234.835 1538.56 242.016C1538.56 242.016 1533.65 251.033 1533.51 251.333C1532.93 252.602 1528.25 262.198 1526.91 266.228C1526.15 268.488 1523.13 268.744 1500.94 277.429C1494.44 279.973 1492.98 279.649 1490.83 275.215C1490.6 274.748 1489.58 272.734 1489.36 272.365C1487.01 268.349 1488.55 267.961 1488.55 267.961C1489.67 266.485 1509.99 258.755 1512.77 257.583C1515.72 256.394 1516.12 254.926 1514.77 251.8C1512.76 247.147 1510.43 248.699 1509.46 248.983C1506.74 249.772 1494.14 254.715 1485.36 258.192C1483.02 259.122 1482.84 259.459 1480.47 257.44C1477.11 254.577 1474.9 251.936 1474.76 251.791C1473.42 250.315 1470.26 246.241 1470.24 246.21C1470.15 246.099 1469.74 245.649 1469.38 245.145C1468.35 243.713 1467.67 242.729 1466.69 241.037C1464.54 237.316 1462.96 233.808 1462.19 230.111C1462.11 229.76 1462.05 229.408 1461.99 229.06C1460.47 220.281 1461.49 212.561 1463.83 205.689C1466.04 199.196 1469.7 193.53 1474.86 188.243C1477.41 185.626 1480.27 183.467 1483.38 181.665C1485.76 180.294 1488.09 179.23 1490.72 178.219C1493.16 177.285 1496.69 176.645 1500.39 176.403Z" fill="#826b5a" fill-rule="nonzero" opacity="1" stroke="none" vectornator:layerName="Curva 13"/>
<path d="M1525.17 284.041C1524.84 285.714 1524.29 287.466 1523.52 288.732C1522.98 289.636 1521.13 292.434 1515.49 294.811C1509.06 297.521 1506.42 296.534 1505.8 296.387C1504.79 296.15 1503.27 295.923 1501.45 294.531L1501.4 294.489C1498.35 291.729 1497.7 288.579 1499.63 287.698C1507.03 284.313 1522.54 278.942 1522.54 278.942C1525.17 278.258 1526.36 278.099 1525.17 284.041Z" fill="#826b5a" fill-rule="nonzero" opacity="1" stroke="none" vectornator:layerName="Curva 14"/>
<path d="M867.182 678.97C865.582 695.539 862.65 703.003 845.358 711.497C845.358 711.497 638.869 799.564 576.773 819.396C570.453 821.415 565.229 823.343 557.823 823.343C550.417 823.343 547.58 822.287 541.795 820.627C491.028 806.062 272.513 724.493 254.799 715.596C254.799 715.596 246.229 709.203 247.057 699.048C248.153 685.625 262.509 679.646 262.509 679.646C319.187 651.098 464.124 591.526 464.124 591.526L867.182 678.97Z" fill="#c9c5c1" fill-rule="nonzero" opacity="1" stroke="none" vectornator:layerName="Curva 15"/>
<path d="M350.191 692.462L350.191 390.572L626.669 289.942L857.068 373.801L857.068 675.69L580.589 776.32" fill="#ffb27a" fill-rule="nonzero" opacity="1" stroke="none" vectornator:layerName="Curva 16"/>
<path d="M453.135 476.98C457.595 454.865 467.504 432.222 472.896 433.309C478.288 434.397 480.611 456.496 472.66 480.918C465.693 502.316 460.213 520.078 454.821 518.991C449.429 517.903 448.674 499.094 453.135 476.98Z" fill="none" opacity="1" stroke="#826b5a" stroke-linecap="butt" stroke-linejoin="round" stroke-width="8.43056" vectornator:layerName="Óvalo 3"/>
<path d="M478.522 602.295L460.699 710.506C460.071 714.736 456.845 716.526 453.494 714.505L393.814 678.513C390.463 676.492 388.256 671.425 388.884 667.195L406.707 558.984C407.335 554.754 410.465 549.34 413.697 546.89L447.069 521.603C450.302 519.154 454.027 520.368 455.389 524.315L477.192 587.489C478.555 591.437 479.15 598.066 478.522 602.295Z" fill="#ff6e6a" fill-rule="nonzero" opacity="1" stroke="#826b5a" stroke-linecap="butt" stroke-linejoin="round" stroke-width="8.23795" vectornator:layerName="Curva 25"/>
<path d="M1200.02 469.317C1205.35 442.909 1217.18 415.869 1223.62 417.168C1230.06 418.466 1232.83 444.856 1223.34 474.02C1215.02 499.572 1208.48 520.783 1202.04 519.484C1195.6 518.186 1194.7 495.725 1200.02 469.317Z" fill="none" opacity="1" stroke="#826b5a" stroke-linecap="butt" stroke-linejoin="round" stroke-width="8.43056" vectornator:layerName="Óvalo 4"/>
<path d="M1230.14 619.545L1208.86 748.766C1208.11 753.817 1204.26 755.955 1200.26 753.541L1128.99 710.561C1124.99 708.148 1122.35 702.097 1123.1 697.046L1144.39 567.825C1145.14 562.774 1148.87 556.309 1152.73 553.384L1192.59 523.187C1196.45 520.262 1200.89 521.712 1202.52 526.425L1228.56 601.865C1230.18 606.579 1230.89 614.494 1230.14 619.545Z" fill="#ff6e6a" fill-rule="nonzero" opacity="1" stroke="#826b5a" stroke-linecap="butt" stroke-linejoin="round" stroke-width="8.23795" vectornator:layerName="Curva 26"/>
<path d="M1189.46 603.141L1187.85 612.285C1191.42 613.519 1194.21 615.259 1196.22 617.503C1198.23 619.747 1199.96 622.951 1201.41 627.116L1191.42 630.606C1189.55 625.15 1186.41 622.034 1182 621.26C1179.26 620.779 1176.85 621.19 1174.76 622.491C1172.67 623.791 1171.42 625.655 1170.99 628.081C1170.61 630.289 1171.01 632.252 1172.22 633.97C1173.4 635.651 1175.99 637.854 1180 640.577C1183.47 642.947 1186.3 645.102 1188.49 647.041C1190.68 648.981 1192.28 650.759 1193.27 652.377C1196.12 656.787 1197.08 661.683 1196.13 667.063C1195.2 672.35 1192.8 676.737 1188.92 680.223C1185.07 683.684 1180.4 685.653 1174.9 686.131L1173.21 695.787L1165.04 694.356L1166.69 684.979C1160.77 682.915 1156.48 680 1153.84 676.235C1151.2 672.469 1149.71 667.11 1149.35 660.156L1159.99 659.811C1160.56 664.783 1161.68 668.458 1163.35 670.834C1165.13 673.133 1167.77 674.591 1171.29 675.207C1174.71 675.807 1177.76 675.205 1180.45 673.4C1183.1 671.622 1184.73 669.006 1185.34 665.554C1185.88 662.475 1185.36 659.837 1183.79 657.638C1182.99 656.567 1181.74 655.299 1180.06 653.834C1178.38 652.368 1176.19 650.711 1173.5 648.861C1167.94 645.097 1164.42 641.913 1162.92 639.31C1160.49 635.391 1159.7 631.068 1160.53 626.341C1160.92 624.102 1161.64 622.081 1162.7 620.278C1163.75 618.475 1165.09 616.907 1166.72 615.574C1168.35 614.241 1170.26 613.173 1172.45 612.372C1174.64 611.57 1177.06 611.064 1179.69 610.853L1181.29 601.709L1189.46 603.141Z" fill="#ffffff" opacity="1" stroke="none" vectornator:layerName="Text 4"/>
<path d="M444.763 586.483L443.494 593.722C446.317 594.699 448.524 596.076 450.116 597.853C451.708 599.629 453.077 602.166 454.225 605.464L446.317 608.226C444.841 603.907 442.356 601.44 438.859 600.827C436.693 600.447 434.783 600.772 433.131 601.802C431.478 602.832 430.483 604.307 430.146 606.227C429.84 607.975 430.164 609.529 431.118 610.889C432.052 612.221 434.106 613.964 437.281 616.12C440.022 617.997 442.261 619.703 443.997 621.238C445.732 622.773 446.995 624.181 447.786 625.462C450.041 628.954 450.795 632.829 450.048 637.088C449.314 641.274 447.41 644.747 444.338 647.507C441.294 650.247 437.594 651.806 433.239 652.184L431.898 659.829L425.435 658.695L426.737 651.272C422.05 649.638 418.66 647.33 416.569 644.349C414.478 641.369 413.294 637.126 413.016 631.621L421.439 631.347C421.89 635.284 422.776 638.192 424.095 640.074C425.502 641.894 427.596 643.048 430.378 643.536C433.086 644.011 435.505 643.534 437.633 642.106C439.733 640.697 441.023 638.627 441.502 635.894C441.929 633.457 441.522 631.367 440.279 629.627C439.641 628.779 438.656 627.775 437.324 626.615C435.992 625.455 434.262 624.143 432.133 622.678C427.733 619.698 424.939 617.178 423.752 615.117C421.835 612.015 421.204 608.592 421.861 604.85C422.172 603.077 422.744 601.477 423.578 600.05C424.412 598.623 425.474 597.382 426.763 596.326C428.052 595.271 429.564 594.426 431.3 593.791C433.035 593.156 434.946 592.755 437.031 592.588L438.3 585.35L444.763 586.483Z" fill="#ffffff" opacity="1" stroke="none" vectornator:layerName="Text 3"/>
<path d="M580.589 776.32L857.068 675.69L857.068 373.801L580.589 474.43L350.191 390.572L350.191 692.462L580.589 776.32Z" fill="none" opacity="1" stroke="#826b5a" stroke-linecap="butt" stroke-linejoin="round" stroke-width="12" vectornator:layerName="Curva 17"/>
<path d="M857.068 373.801L626.669 289.942L350.191 390.572L488.43 340.257L718.828 424.116" fill="none" opacity="1" stroke="#806857" stroke-linecap="butt" stroke-linejoin="round" stroke-width="12" vectornator:layerName="Curva 18"/>
<path d="M580.723 560.329C580.723 612.655 580.589 776.32 580.589 776.32C580.589 776.32 580.723 508.003 580.723 560.329Z" fill="none" opacity="1" stroke="#866750" stroke-linecap="butt" stroke-linejoin="round" stroke-width="12" vectornator:layerName="Curva 19"/>
<g opacity="1" vectornator:layerName="Curva 20">
<path d="M580.594 472.938C577.378 472.943 574.775 475.534 574.781 478.75C574.761 491.981 574.739 505.207 574.719 518.438C574.725 521.726 577.399 524.412 580.688 524.406C583.976 524.4 586.631 521.726 586.625 518.438C586.557 505.207 586.475 491.98 586.406 478.75C586.4 475.534 583.81 472.932 580.594 472.938Z" fill="#836956" stroke="none"/>
</g>
<g opacity="1" vectornator:layerName="Curva 21">
<path d="M500.188 697.969C498.086 698.084 496.164 699.426 495.406 701.531C494.397 704.338 495.85 707.459 498.656 708.469C513.025 713.595 527.381 718.717 541.75 723.844C544.494 724.831 547.513 723.401 548.5 720.656C549.487 717.912 548.057 714.893 545.312 713.906C530.971 708.704 516.654 703.483 502.312 698.281C501.611 698.029 500.888 697.93 500.188 697.969Z" fill="#836956" stroke="none"/>
</g>
<path d="M726.624 509.29C726.624 509.29 735.136 508.694 738.789 509.898L738.965 509.943C747.183 511.675 755.639 515.695 761.554 521.167C768.073 527.198 773.429 535.602 775.878 544.001C778.5 552.997 779.521 561.891 777.143 571.296C776.626 573.34 775.66 577.308 771.055 585.667C771.055 585.667 765.341 596.164 765.181 596.512C764.505 597.99 759.06 609.159 757.491 613.851C756.611 616.481 753.091 616.779 727.266 626.89C719.702 629.851 717.998 629.473 715.497 624.313C715.234 623.769 714.041 621.424 713.79 620.995C711.055 616.32 712.845 615.868 712.845 615.868C714.147 614.15 737.802 605.152 741.03 603.787C744.469 602.404 744.932 600.695 743.36 597.056C741.02 591.64 738.316 593.446 737.18 593.777C734.022 594.696 719.353 600.449 709.133 604.497C706.399 605.58 706.192 605.971 703.435 603.621C699.525 600.289 696.948 597.215 696.794 597.046C695.231 595.327 691.555 590.585 691.527 590.549C691.426 590.419 690.945 589.896 690.523 589.309C689.327 587.642 688.534 586.497 687.396 584.528C684.893 580.195 683.052 576.112 682.154 571.809C682.069 571.4 681.994 570.991 681.924 570.586C680.161 560.367 681.343 551.38 684.069 543.381C686.645 535.822 690.9 529.227 696.906 523.072C699.879 520.026 703.2 517.513 706.83 515.415C709.593 513.819 712.303 512.58 715.37 511.403C718.203 510.316 722.323 509.572 726.624 509.29Z" fill="#826b5a" fill-rule="nonzero" opacity="1" stroke="none" vectornator:layerName="Curva 22"/>
<path d="M755.471 634.587C755.081 636.534 754.44 638.573 753.55 640.047C752.915 641.099 750.77 644.356 744.205 647.123C736.721 650.278 733.645 649.129 732.918 648.958C731.744 648.682 729.982 648.417 727.857 646.798L727.8 646.748C724.255 643.535 723.496 639.869 725.738 638.844C734.355 634.903 752.404 628.651 752.404 628.651C755.47 627.855 756.855 627.67 755.471 634.587Z" fill="#826b5a" fill-rule="nonzero" opacity="1" stroke="none" vectornator:layerName="Curva 23"/>
<path d="M1267.45 165.438C1271.7 144.362 1281.14 122.782 1286.28 123.818C1291.42 124.855 1293.64 145.916 1286.06 169.192C1279.42 189.585 1274.19 206.513 1269.06 205.477C1263.92 204.44 1263.2 186.515 1267.45 165.438Z" fill="none" opacity="1" stroke="#826b5a" stroke-linecap="butt" stroke-linejoin="round" stroke-width="8.43056" vectornator:layerName="Óvalo 5"/>
<path d="M1291.69 284.729L1274.7 387.86C1274.11 391.891 1271.03 393.597 1267.84 391.671L1210.96 357.369C1207.77 355.443 1205.66 350.613 1206.26 346.582L1223.25 243.452C1223.85 239.421 1226.83 234.26 1229.91 231.926L1261.72 207.826C1264.8 205.491 1268.35 206.649 1269.64 210.411L1290.42 270.619C1291.72 274.381 1292.29 280.698 1291.69 284.729Z" fill="#ff6e6a" fill-rule="nonzero" opacity="1" stroke="#826b5a" stroke-linecap="butt" stroke-linejoin="round" stroke-width="8.23795" vectornator:layerName="Curva 27"/>
<path d="M1259.32 278.023L1258.12 284.88C1260.79 285.806 1262.88 287.11 1264.39 288.793C1265.9 290.476 1267.19 292.879 1268.28 296.003L1260.79 298.619C1259.39 294.528 1257.04 292.191 1253.73 291.61C1251.67 291.25 1249.86 291.558 1248.3 292.534C1246.73 293.509 1245.79 294.906 1245.47 296.726C1245.18 298.382 1245.49 299.854 1246.39 301.142C1247.28 302.403 1249.22 304.055 1252.23 306.097C1254.83 307.875 1256.95 309.491 1258.59 310.945C1260.24 312.399 1261.43 313.733 1262.18 314.946C1264.32 318.254 1265.03 321.925 1264.32 325.96C1263.63 329.925 1261.83 333.215 1258.92 335.829C1256.03 338.425 1252.53 339.902 1248.4 340.26L1247.13 347.501L1241.01 346.428L1242.24 339.396C1237.8 337.848 1234.59 335.662 1232.61 332.838C1230.63 330.014 1229.51 325.995 1229.25 320.78L1237.22 320.521C1237.65 324.25 1238.49 327.006 1239.74 328.788C1241.07 330.512 1243.06 331.605 1245.69 332.067C1248.26 332.517 1250.55 332.066 1252.56 330.713C1254.55 329.379 1255.78 327.417 1256.23 324.829C1256.63 322.52 1256.25 320.541 1255.07 318.892C1254.47 318.089 1253.53 317.138 1252.27 316.039C1251.01 314.94 1249.37 313.697 1247.35 312.309C1243.19 309.487 1240.54 307.099 1239.42 305.147C1237.6 302.208 1237 298.966 1237.62 295.421C1237.92 293.742 1238.46 292.226 1239.25 290.874C1240.04 289.522 1241.05 288.347 1242.27 287.347C1243.49 286.347 1244.92 285.546 1246.57 284.945C1248.21 284.344 1250.02 283.964 1251.99 283.806L1253.2 276.949L1259.32 278.023Z" fill="#ffffff" opacity="1" stroke="none" vectornator:layerName="Text 5"/>
</g>
<g id="Capa-2" vectornator:layerName="Capa 2"/>
</svg>
