<?xml version="1.0" encoding="UTF-8" standalone="no"?>
<!DOCTYPE svg PUBLIC "-//W3C//DTD SVG 1.1//EN" "http://www.w3.org/Graphics/SVG/1.1/DTD/svg11.dtd">
<!-- Created with Vectornator (http://vectornator.io/) -->
<svg height="100%" stroke-miterlimit="10" style="fill-rule:nonzero;clip-rule:evenodd;stroke-linecap:round;stroke-linejoin:round;" version="1.1" viewBox="0 0 1917.45 1050.52" width="100%" xml:space="preserve" xmlns="http://www.w3.org/2000/svg" xmlns:vectornator="http://vectornator.io" xmlns:xlink="http://www.w3.org/1999/xlink">
<defs>
<path d="M356.372 466.695C50.3773 513.467-152.98 765.709 159.166 943.131C468.616 1119.02 885.011 954.69 1129.43 895.948C1334.26 846.722 1690.65 961.298 1826.5 853.28C1959.17 747.791 1875.05 609.535 1778.02 546.098C1563.23 405.673 1249.5 419.21 821.494 422.676C693.557 423.712 356.372 466.695 356.372 466.695Z" id="Fill"/>
</defs>
<g id="Capa-1" vectornator:layerName="Capa 1">
<use fill="#eeeeee" fill-rule="nonzero" opacity="1" stroke="none" vectornator:layerName="Curva 1" xlink:href="#Fill"/>
<clipPath clip-rule="nonzero" id="ClipPath">
<use xlink:href="#Fill"/>
</clipPath>
<g clip-path="url(#ClipPath)">
<path d="M1200.22 651.119C1197.6 678.275 1194.69 692.434 1166.35 706.355C1166.35 706.355 826.02 848.77 724.246 881.276C713.888 884.584 705.327 887.745 693.188 887.745C681.05 887.745 676.4 886.014 666.918 883.294C583.712 859.421 225.569 725.731 196.537 711.15C196.537 711.15 182.491 700.67 183.849 684.027C185.643 662.028 209.173 652.227 209.173 652.227C302.067 605.438 539.617 507.8 539.617 507.8L1200.22 651.119Z" fill="#c9c5c1" fill-rule="nonzero" opacity="1" stroke="none" vectornator:layerName="Curva 4"/>
</g>
</g>
<clipPath id="ArtboardFrame">
<rect height="1050.52" width="1917.45" x="0" y="0"/>
</clipPath>
<g clip-path="url(#ArtboardFrame)" id="Capa-3" vectornator:layerName="Capa 3">
<path d="M349.211 673.69L349.211 172.442L808.267 5.35922L1190.81 144.595L1190.81 645.843L731.757 812.926" fill="#ffbb89" fill-rule="nonzero" opacity="1" stroke="none" vectornator:layerName="Curva 1"/>
<path d="M731.757 812.926L1190.81 645.843L1190.81 144.595L731.757 311.677L349.211 172.442L349.211 673.69L731.757 812.926Z" fill="none" opacity="1" stroke="#817263" stroke-linecap="butt" stroke-linejoin="round" stroke-width="16.6151" vectornator:layerName="Curva 3"/>
<path d="M1190.81 144.595L808.267 5.35922L349.211 172.442L578.739 88.9006L961.285 228.136" fill="none" opacity="1" stroke="#817263" stroke-linecap="butt" stroke-linejoin="round" stroke-width="16.6151" vectornator:layerName="Curva 4"/>
<path d="M731.979 454.301C731.979 541.182 731.757 812.926 731.757 812.926C731.757 812.926 731.979 367.421 731.979 454.301Z" fill="none" opacity="1" stroke="#817263" stroke-linecap="butt" stroke-linejoin="round" stroke-width="16.6151" vectornator:layerName="Curva 5"/>
<g opacity="1" vectornator:layerName="Curva 2">
<path d="M731.75 310.406C727.085 310.415 723.304 314.179 723.312 318.844C723.289 340.811 723.274 362.782 723.25 384.75C723.259 389.521 727.135 393.384 731.906 393.375C736.677 393.366 740.509 389.49 740.5 384.719C740.396 362.751 740.323 340.78 740.219 318.812C740.21 314.148 736.415 310.398 731.75 310.406Z" fill="#817263" stroke="none"/>
</g>
<g opacity="1" vectornator:layerName="Curva 6">
<path d="M426.062 618.031C422.701 618.216 419.617 620.352 418.406 623.719C416.791 628.208 419.105 633.166 423.594 634.781C449.897 644.176 476.197 653.574 502.5 662.969C506.889 664.548 511.733 662.264 513.312 657.875C514.892 653.486 512.608 648.642 508.219 647.062C481.959 637.547 455.698 628.046 429.438 618.531C428.315 618.128 427.183 617.97 426.062 618.031Z" fill="#817263" stroke="none"/>
</g>
<path d="M977.973 351.532C977.973 351.532 992.997 350.48 999.445 352.606L999.757 352.686C1014.26 355.741 1029.19 362.838 1039.63 372.497C1051.14 383.142 1060.59 397.977 1064.91 412.802C1069.54 428.681 1071.34 444.381 1067.15 460.982C1066.23 464.59 1064.53 471.594 1056.4 486.348C1056.4 486.348 1046.31 504.876 1046.03 505.491C1044.84 508.1 1035.23 527.816 1032.46 536.097C1030.9 540.74 1024.69 541.266 979.106 559.112C965.754 564.339 962.747 563.673 958.332 554.563C957.867 553.603 955.762 549.465 955.319 548.707C950.491 540.455 953.65 539.657 953.65 539.657C955.949 536.625 997.704 520.742 1003.4 518.333C1009.47 515.891 1010.29 512.875 1007.51 506.451C1003.38 496.891 998.611 500.08 996.605 500.663C991.03 502.285 965.138 512.441 947.099 519.585C942.273 521.497 941.906 522.188 937.041 518.04C930.139 512.158 925.59 506.732 925.319 506.434C922.559 503.4 916.071 495.029 916.022 494.966C915.843 494.737 914.995 493.814 914.25 492.777C912.137 489.835 910.739 487.814 908.73 484.337C904.312 476.69 901.062 469.483 899.477 461.887C899.327 461.165 899.194 460.443 899.071 459.728C895.958 441.69 898.046 425.827 902.857 411.707C907.403 398.365 914.915 386.723 925.516 375.86C930.764 370.482 936.626 366.046 943.033 362.345C947.911 359.526 952.694 357.34 958.108 355.263C963.108 353.344 970.381 352.029 977.973 351.532Z" fill="#83786c" fill-rule="nonzero" opacity="1" stroke="none" vectornator:layerName="Curva 2"/>
<path d="M1028.89 572.698C1028.2 576.135 1027.07 579.735 1025.5 582.337C1024.38 584.194 1020.59 589.943 1009 594.827C995.795 600.396 990.366 598.367 989.083 598.065C987.01 597.578 983.9 597.111 980.148 594.253L980.048 594.164C973.791 588.494 972.451 582.022 976.408 580.212C991.619 573.257 1023.48 562.22 1023.48 562.22C1028.89 560.816 1031.33 560.489 1028.89 572.698Z" fill="#83786c" fill-rule="nonzero" opacity="1" stroke="none" vectornator:layerName="Curva 3"/>
<path d="M1351.86 184.262C1351.86 156.455 1360.79 128.283 1378.64 99.7452C1396.5 71.2073 1422.55 47.572 1456.8 28.8393C1491.04 10.1067 1530.99 0.740423 1576.65 0.740423C1619.1 0.740423 1656.56 8.57007 1689.05 24.2294C1721.54 39.8887 1746.64 61.1824 1764.35 88.1105C1782.05 115.039 1790.91 144.308 1790.91 175.92C1790.91 200.799 1785.86 222.605 1775.76 241.337C1765.66 260.07 1753.66 276.242 1739.76 289.852C1725.86 303.462 1700.9 326.366 1664.9 358.563C1654.95 367.636 1646.98 375.612 1640.97 382.491C1634.97 389.369 1630.51 395.662 1627.58 401.37C1624.66 407.077 1622.39 412.785 1620.78 418.492C1619.17 424.2 1616.75 434.225 1613.53 448.567C1607.97 479.008 1590.56 494.228 1561.29 494.228C1546.07 494.228 1533.26 489.252 1522.87 479.3C1512.48 469.349 1507.29 454.567 1507.29 434.957C1507.29 410.37 1511.09 389.076 1518.7 371.075C1526.31 353.075 1536.41 337.269 1548.99 323.659C1561.58 310.048 1578.56 293.877 1599.92 275.144C1618.66 258.753 1632.19 246.387 1640.54 238.045C1648.88 229.703 1655.9 220.41 1661.61 210.165C1667.32 199.921 1670.17 188.798 1670.17 176.798C1670.17 153.382 1661.46 133.625 1644.05 117.527C1626.63 101.428 1604.17 93.3791 1576.65 93.3791C1544.46 93.3791 1520.75 101.501 1505.53 117.746C1490.31 133.991 1477.43 157.919 1466.89 189.53C1456.94 222.605 1438.06 239.142 1410.26 239.142C1393.87 239.142 1380.04 233.361 1368.77 221.8C1357.5 210.238 1351.86 197.726 1351.86 184.262ZM1566.12 665.456C1548.26 665.456 1532.68 659.675 1519.36 648.113C1506.04 636.552 1499.38 620.38 1499.38 599.599C1499.38 581.159 1505.82 565.646 1518.7 553.06C1531.58 540.474 1547.38 534.181 1566.12 534.181C1584.56 534.181 1600.07 540.474 1612.66 553.06C1625.24 565.646 1631.54 581.159 1631.54 599.599C1631.54 620.088 1624.95 636.186 1611.78 647.894C1598.61 659.602 1583.39 665.456 1566.12 665.456Z" fill="#b1b1b1" opacity="1" stroke="none" vectornator:layerName="Text 1"/>
<path d="M260.147 239.589C260.147 246.404 258.468 253.549 255.112 261.025C251.755 268.501 246.695 275.493 239.931 282.003C233.168 288.512 224.929 293.7 215.216 297.565C205.502 301.43 194.441 303.362 182.032 303.362C167.488 303.362 154.545 300.642 143.204 295.2C131.863 289.758 123.167 282.384 117.115 273.078C111.064 263.771 108.038 253.676 108.038 242.793C108.038 236.487 109.08 230.563 111.165 225.019C113.25 219.476 116.149 214.416 119.862 209.839C123.574 205.262 126.93 201.6 129.931 198.854C132.931 196.108 140.127 189.598 151.519 179.326C158.232 173.223 162.478 168.417 164.258 164.908C166.038 161.399 167.691 155.678 169.217 147.744C171.251 137.37 177.303 132.183 187.372 132.183C192.763 132.183 197.238 133.912 200.798 137.37C204.358 140.828 206.138 145.964 206.138 152.779C206.138 159.492 205.35 165.391 203.773 170.477C202.197 175.562 200.01 180.165 197.213 184.284C194.416 188.403 191.415 192.065 188.211 195.269C185.007 198.473 180.252 202.821 173.946 208.313C165.199 215.942 158.995 222.044 155.333 226.621C151.672 231.198 149.841 236.487 149.841 242.488C149.841 250.422 152.841 257.185 158.842 262.78C164.843 268.374 172.573 271.171 182.032 271.171C189.864 271.171 196.247 269.721 201.18 266.823C206.113 263.924 209.978 260.059 212.775 255.228C215.572 250.396 218.038 244.573 220.174 237.759C222.208 232.165 224.675 227.893 227.574 224.943C230.472 221.993 234.668 220.519 240.16 220.519C245.958 220.519 250.738 222.527 254.502 226.545C258.265 230.563 260.147 234.911 260.147 239.589ZM186.152 72.529C192.458 72.529 197.849 74.5378 202.324 78.5554C206.799 82.573 209.037 88.1417 209.037 95.2614C209.037 99.0247 207.943 102.686 205.757 106.246C203.57 109.806 200.696 112.679 197.137 114.866C193.577 117.053 189.915 118.146 186.152 118.146C181.88 118.146 177.989 117.129 174.48 115.095C170.971 113.061 168.174 110.34 166.089 106.933C164.004 103.525 162.962 99.635 162.962 95.2614C162.962 88.04 165.225 82.4458 169.751 78.4791C174.277 74.5124 179.744 72.529 186.152 72.529Z" fill="#d8d8d8" opacity="1" stroke="none" vectornator:layerName="Text 2"/>
</g>
</svg>
