<?xml version="1.0" encoding="UTF-8" standalone="no"?>
<!DOCTYPE svg PUBLIC "-//W3C//DTD SVG 1.1//EN" "http://www.w3.org/Graphics/SVG/1.1/DTD/svg11.dtd">
<!-- Created with Vectornator (http://vectornator.io/) -->
<svg height="100%" stroke-miterlimit="10" style="fill-rule:nonzero;clip-rule:evenodd;stroke-linecap:round;stroke-linejoin:round;" version="1.1" viewBox="0 0 1900 1024" width="100%" xml:space="preserve" xmlns="http://www.w3.org/2000/svg" xmlns:vectornator="http://vectornator.io" xmlns:xlink="http://www.w3.org/1999/xlink">
<defs>
<path d="M356.372 466.695C50.3773 513.467-152.98 765.709 159.166 943.131C468.616 1119.02 885.011 954.69 1129.43 895.948C1334.26 846.722 1690.65 961.298 1826.5 853.28C1959.17 747.791 1875.05 609.535 1778.02 546.098C1563.23 405.673 1249.5 419.21 821.494 422.676C693.557 423.712 356.372 466.695 356.372 466.695Z" id="Fill"/>
</defs>
<g id="Capa-1" vectornator:layerName="Capa 1">
<use fill="#e5e4e3" fill-rule="nonzero" opacity="1" stroke="none" vectornator:layerName="Curva 1" xlink:href="#Fill"/>
<clipPath clip-rule="nonzero" id="ClipPath">
<use xlink:href="#Fill"/>
</clipPath>
<g clip-path="url(#ClipPath)">
<path d="M1200.22 651.119C1197.6 678.275 1194.69 692.434 1166.35 706.355C1166.35 706.355 826.02 848.77 724.246 881.276C713.888 884.584 705.327 887.745 693.188 887.745C681.05 887.745 676.4 886.014 666.918 883.294C583.712 859.421 225.569 725.731 196.537 711.15C196.537 711.15 182.491 700.67 183.849 684.027C185.643 662.028 209.173 652.227 209.173 652.227C302.067 605.438 539.617 507.8 539.617 507.8L1200.22 651.119Z" fill="#c9c5c1" fill-rule="nonzero" opacity="1" stroke="none" vectornator:layerName="Curva 4"/>
</g>
</g>
<clipPath id="ArtboardFrame">
<rect height="1024" width="1900" x="0" y="0"/>
</clipPath>
<g clip-path="url(#ArtboardFrame)" id="Capa-3" vectornator:layerName="Capa 3">
<path d="M349.211 673.69L349.211 172.442L808.267 5.35922L1190.81 144.595L1190.81 645.843L731.757 812.926" fill="#ffb27a" fill-rule="nonzero" opacity="1" stroke="none" vectornator:layerName="Curva 1"/>
<path d="M731.757 812.926L1190.81 645.843L1190.81 144.595L731.757 311.677L349.211 172.442L349.211 673.69L731.757 812.926Z" fill="none" opacity="1" stroke="#826b5a" stroke-linecap="butt" stroke-linejoin="round" stroke-width="16.6151" vectornator:layerName="Curva 3"/>
<path d="M1190.81 144.595L808.267 5.35922L349.211 172.442L578.739 88.9006L961.285 228.136" fill="none" opacity="1" stroke="#806857" stroke-linecap="butt" stroke-linejoin="round" stroke-width="16.6151" vectornator:layerName="Curva 4"/>
<path d="M731.979 454.301C731.979 541.182 731.757 812.926 731.757 812.926C731.757 812.926 731.979 367.421 731.979 454.301Z" fill="none" opacity="1" stroke="#836956" stroke-linecap="butt" stroke-linejoin="round" stroke-width="16.6151" vectornator:layerName="Curva 5"/>
<g opacity="1" vectornator:layerName="Curva 2">
<path d="M731.75 310.406C727.085 310.415 723.304 314.179 723.312 318.844C723.289 340.811 723.274 362.782 723.25 384.75C723.259 389.521 727.135 393.384 731.906 393.375C736.677 393.366 740.509 389.49 740.5 384.719C740.396 362.751 740.323 340.78 740.219 318.812C740.21 314.148 736.415 310.398 731.75 310.406Z" fill="#836956" stroke="none"/>
</g>
<g opacity="1" vectornator:layerName="Curva 6">
<path d="M426.062 618.031C422.701 618.216 419.617 620.352 418.406 623.719C416.791 628.208 419.105 633.166 423.594 634.781C449.897 644.176 476.197 653.574 502.5 662.969C506.889 664.548 511.733 662.264 513.312 657.875C514.892 653.486 512.608 648.642 508.219 647.062C481.959 637.547 455.698 628.046 429.438 618.531C428.315 618.128 427.183 617.97 426.062 618.031Z" fill="#836956" stroke="none"/>
</g>
<path d="M977.973 351.532C977.973 351.532 992.997 350.48 999.445 352.606L999.757 352.686C1014.26 355.741 1029.19 362.838 1039.63 372.497C1051.14 383.142 1060.59 397.977 1064.91 412.802C1069.54 428.681 1071.34 444.381 1067.15 460.982C1066.23 464.59 1064.53 471.594 1056.4 486.348C1056.4 486.348 1046.31 504.876 1046.03 505.491C1044.84 508.1 1035.23 527.816 1032.46 536.097C1030.9 540.74 1024.69 541.266 979.106 559.112C965.754 564.339 962.747 563.673 958.332 554.563C957.867 553.603 955.762 549.465 955.319 548.707C950.491 540.455 953.65 539.657 953.65 539.657C955.949 536.625 997.704 520.742 1003.4 518.333C1009.47 515.891 1010.29 512.875 1007.51 506.451C1003.38 496.891 998.611 500.08 996.605 500.663C991.03 502.285 965.138 512.441 947.099 519.585C942.273 521.497 941.906 522.188 937.041 518.04C930.139 512.158 925.59 506.732 925.319 506.434C922.559 503.4 916.071 495.029 916.022 494.966C915.843 494.737 914.995 493.814 914.25 492.777C912.137 489.835 910.739 487.814 908.73 484.337C904.312 476.69 901.062 469.483 899.477 461.887C899.327 461.165 899.194 460.443 899.071 459.728C895.958 441.69 898.046 425.827 902.857 411.707C907.403 398.365 914.915 386.723 925.516 375.86C930.764 370.482 936.626 366.046 943.033 362.345C947.911 359.526 952.694 357.34 958.108 355.263C963.108 353.344 970.381 352.029 977.973 351.532Z" fill="#826b5a" fill-rule="nonzero" opacity="1" stroke="none" vectornator:layerName="Curva 2"/>
<path d="M1028.89 572.698C1028.2 576.135 1027.07 579.735 1025.5 582.337C1024.38 584.194 1020.59 589.943 1009 594.827C995.795 600.396 990.366 598.367 989.083 598.065C987.01 597.578 983.9 597.111 980.148 594.253L980.048 594.164C973.791 588.494 972.451 582.022 976.408 580.212C991.619 573.257 1023.48 562.22 1023.48 562.22C1028.89 560.816 1031.33 560.489 1028.89 572.698Z" fill="#826b5a" fill-rule="nonzero" opacity="1" stroke="none" vectornator:layerName="Curva 3"/>
<path d="M1351.86 184.132C1351.86 156.326 1360.79 128.154 1378.64 99.6159C1396.5 71.0779 1422.55 47.4426 1456.8 28.71C1491.04 9.97735 1530.99 0.611046 1576.65 0.611046C1619.1 0.611046 1656.56 8.44069 1689.05 24.1C1721.54 39.7593 1746.64 61.053 1764.35 87.9811C1782.05 114.909 1790.91 144.179 1790.91 175.79C1790.91 200.67 1785.86 222.475 1775.76 241.208C1765.66 259.941 1753.66 276.112 1739.76 289.723C1725.86 303.333 1700.9 326.237 1664.9 358.433C1654.95 367.507 1646.98 375.483 1640.97 382.361C1634.97 389.24 1630.51 395.533 1627.58 401.24C1624.66 406.948 1622.39 412.655 1620.78 418.363C1619.17 424.071 1616.75 434.096 1613.53 448.438C1607.97 478.878 1590.56 494.098 1561.29 494.098C1546.07 494.098 1533.26 489.123 1522.87 479.171C1512.48 469.219 1507.29 454.438 1507.29 434.827C1507.29 410.241 1511.09 388.947 1518.7 370.946C1526.31 352.945 1536.41 337.14 1548.99 323.529C1561.58 309.919 1578.56 293.747 1599.92 275.015C1618.66 258.624 1632.19 246.257 1640.54 237.915C1648.88 229.573 1655.9 220.28 1661.61 210.036C1667.32 199.791 1670.17 188.669 1670.17 176.668C1670.17 153.253 1661.46 133.496 1644.05 117.397C1626.63 101.299 1604.17 93.2497 1576.65 93.2497C1544.46 93.2497 1520.75 101.372 1505.53 117.617C1490.31 133.861 1477.43 157.789 1466.89 189.401C1456.94 222.475 1438.06 239.013 1410.26 239.013C1393.87 239.013 1380.04 233.232 1368.77 221.671C1357.5 210.109 1351.86 197.596 1351.86 184.132ZM1566.12 665.326C1548.26 665.326 1532.68 659.546 1519.36 647.984C1506.04 636.422 1499.38 620.251 1499.38 599.469C1499.38 581.029 1505.82 565.517 1518.7 552.931C1531.58 540.345 1547.38 534.052 1566.12 534.052C1584.56 534.052 1600.07 540.345 1612.66 552.931C1625.24 565.517 1631.54 581.029 1631.54 599.469C1631.54 619.958 1624.95 636.057 1611.78 647.764C1598.61 659.472 1583.39 665.326 1566.12 665.326Z" fill="#b1b1b1" opacity="1" stroke="none" vectornator:layerName="Text 1"/>
<path d="M260.147 239.264C260.147 246.078 258.468 253.223 255.112 260.699C251.755 268.175 246.695 275.168 239.931 281.677C233.168 288.187 224.929 293.374 215.216 297.239C205.502 301.104 194.441 303.036 182.032 303.036C167.488 303.036 154.545 300.316 143.204 294.874C131.863 289.433 123.167 282.058 117.115 272.752C111.064 263.445 108.038 253.351 108.038 242.467C108.038 236.161 109.08 230.237 111.165 224.693C113.25 219.15 116.149 214.09 119.862 209.513C123.574 204.936 126.93 201.274 129.931 198.528C132.931 195.782 140.127 189.273 151.519 179C158.232 172.897 162.478 168.091 164.258 164.582C166.038 161.073 167.691 155.352 169.217 147.418C171.251 137.044 177.303 131.857 187.372 131.857C192.763 131.857 197.238 133.586 200.798 137.044C204.358 140.502 206.138 145.639 206.138 152.453C206.138 159.166 205.35 165.065 203.773 170.151C202.197 175.236 200.01 179.839 197.213 183.958C194.416 188.077 191.415 191.739 188.211 194.943C185.007 198.147 180.252 202.495 173.946 207.987C165.199 215.616 158.995 221.718 155.333 226.295C151.672 230.872 149.841 236.161 149.841 242.162C149.841 250.096 152.841 256.86 158.842 262.454C164.843 268.048 172.573 270.845 182.032 270.845C189.864 270.845 196.247 269.395 201.18 266.497C206.113 263.598 209.978 259.733 212.775 254.902C215.572 250.07 218.038 244.247 220.174 237.433C222.208 231.839 224.675 227.567 227.574 224.617C230.472 221.668 234.668 220.193 240.16 220.193C245.958 220.193 250.738 222.202 254.502 226.219C258.265 230.237 260.147 234.585 260.147 239.264ZM186.152 72.2031C192.458 72.2031 197.849 74.2119 202.324 78.2295C206.799 82.2471 209.037 87.8158 209.037 94.9355C209.037 98.6989 207.943 102.36 205.757 105.92C203.57 109.48 200.696 112.354 197.137 114.54C193.577 116.727 189.915 117.821 186.152 117.821C181.88 117.821 177.989 116.803 174.48 114.769C170.971 112.735 168.174 110.014 166.089 106.607C164.004 103.2 162.962 99.3091 162.962 94.9355C162.962 87.7141 165.225 82.1199 169.751 78.1532C174.277 74.1865 179.744 72.2031 186.152 72.2031Z" fill="#d8d8d8" opacity="1" stroke="none" vectornator:layerName="Text 2"/>
</g>
</svg>
