<?xml version="1.0" encoding="UTF-8" standalone="no"?>
<!DOCTYPE svg PUBLIC "-//W3C//DTD SVG 1.1//EN" "http://www.w3.org/Graphics/SVG/1.1/DTD/svg11.dtd">
<!-- Created with Vectornator (http://vectornator.io/) -->
<svg height="100%" stroke-miterlimit="10" style="fill-rule:nonzero;clip-rule:evenodd;stroke-linecap:round;stroke-linejoin:round;" version="1.1" viewBox="0 0 1917.45 1050.52" width="100%" xml:space="preserve" xmlns="http://www.w3.org/2000/svg" xmlns:vectornator="http://vectornator.io" xmlns:xlink="http://www.w3.org/1999/xlink">
<defs>
<path d="M108.658 579.248C-56.6053 707.412-12.0013 917.15 179.24 991.162C588.838 1149.68 1257.06 926.847 1401.8 871.65C1578.54 804.251 1665.1 789.011 1797.65 741.189C1922.39 696.185 1939.32 594.104 1891.34 553.141C1702.88 392.217 1249.48 474.871 821.494 470.333C646.187 468.475 273.921 451.085 108.658 579.248Z" id="Fill"/>
</defs>
<g id="Capa-1" vectornator:layerName="Capa 1">
<use fill="#eeeeee" fill-rule="nonzero" opacity="1" stroke="none" vectornator:layerName="Curva 1" xlink:href="#Fill"/>
<clipPath clip-rule="nonzero" id="ClipPath">
<use xlink:href="#Fill"/>
</clipPath>
<g clip-path="url(#ClipPath)">
<path d="M1124.92 758.988C1122.45 781.63 1117.58 787.871 1090.77 799.478C1090.77 799.478 688.486 960.809 592.239 987.911C582.443 990.67 574.346 993.304 562.867 993.304C551.388 993.304 546.99 991.862 538.024 989.593C459.336 969.689 356.557 950.593 329.102 938.435C329.102 938.435 315.818 929.698 317.102 915.821C318.799 897.479 341.051 889.308 341.051 889.308C428.901 850.297 784.013 720.276 784.013 720.276L1124.92 758.988Z" fill="#000000" fill-rule="nonzero" opacity="0.128846" stroke="none" vectornator:layerName="Curva 2"/>
</g>
</g>
<g id="Capa-3" vectornator:layerName="Capa 3">
<path d="M1095.03 312.459C1095.03 194.06 1190.86 98.078 1309.07 98.078C1427.29 98.078 1523.12 194.06 1523.12 312.459C1523.12 430.859 1427.29 526.841 1309.07 526.841C1190.86 526.841 1095.03 430.859 1095.03 312.459Z" fill="#ffbd8e" fill-rule="nonzero" opacity="1" stroke="none" vectornator:layerName="Óvalo 3"/>
<path d="M624.485 942.148L1119.95 761.002L1120.43 44.393L1062.13 22.8435C1062.13 22.8435 579.025 201.534 579.025 201.534C579.025 201.534 578.434 924.831 578.434 924.831L624.485 942.148ZM578.723 203.628L624.664 227.955C624.664 227.955 625.18 941.229 625.172 941.218C625.164 941.208 624.631 227.914 624.631 227.914L1119.93 46.8952" fill="#bebebe" fill-rule="nonzero" opacity="1" stroke="#676767" stroke-linecap="butt" stroke-linejoin="round" stroke-width="9.31176" vectornator:layerName="Curva 1"/>
<path d="M660.185 272.695L656.9 877.942C656.845 888.049 664.501 893.445 674.001 889.995L1067.5 747.08C1077 743.63 1084.69 732.64 1084.68 722.533L1084.02 122.165C1084.01 112.058 1076.28 106.608 1066.76 109.991L677.529 248.269C668.005 251.653 660.24 262.589 660.185 272.695Z" fill="#ffffff" fill-rule="nonzero" opacity="1" stroke="#676767" stroke-linecap="butt" stroke-linejoin="round" stroke-width="9.31176" vectornator:layerName="Curva 2"/>
<path d="M714.207 404.516L713.611 362.026C713.693 354.884 720.287 345.898 730.536 348.9C741.118 351.999 750.804 346.256 754.713 341.329C757.604 337.686 768.594 339.805 768.08 356.59C767.897 362.563 768.131 385.336 768.131 385.336L714.207 404.516Z" fill="#ffa96b" fill-rule="nonzero" opacity="1" stroke="none" vectornator:layerName="Curva 3"/>
<path d="M719.42 323.951C718.671 312.334 726.222 302.391 736.285 301.742C746.349 301.093 755.593 311.112 755.321 322.75C755.049 334.387 749.061 343.161 738.998 343.81C728.934 344.459 720.169 335.568 719.42 323.951Z" fill="#ffa96b" fill-rule="nonzero" opacity="1" stroke="none" vectornator:layerName="Óvalo 1"/>
<path d="M800.981 288.009L801.587 301.508C801.719 304.443 804.064 306.009 806.826 305.005L1048.69 217.095C1051.45 216.091 1053.67 212.896 1053.63 209.958L1053.49 198.097C1053.46 195.159 1051.19 193.576 1048.42 194.561L805.755 280.911C802.987 281.896 800.85 285.074 800.981 288.009Z" fill="#d9d9d9" fill-rule="nonzero" opacity="1" stroke="none" vectornator:layerName="Curva 4"/>
<path d="M801.767 326.117L802.373 339.615C802.504 342.55 804.85 344.116 807.611 343.112L1049.48 255.202C1052.24 254.198 1054.45 251.003 1054.42 248.065L1054.28 236.204C1054.25 233.266 1051.97 231.683 1049.21 232.668L806.541 319.018C803.773 320.003 801.635 323.181 801.767 326.117Z" fill="#d9d9d9" fill-rule="nonzero" opacity="1" stroke="none" vectornator:layerName="Curva 5"/>
<path d="M800.588 364.224L801.194 377.722C801.326 380.657 803.671 382.223 806.433 381.22L1048.3 293.309C1051.06 292.306 1053.27 289.11 1053.24 286.172L1053.1 274.311C1053.07 271.373 1050.8 269.79 1048.03 270.775L805.362 357.125C802.594 358.11 800.457 361.289 800.588 364.224Z" fill="#d9d9d9" fill-rule="nonzero" opacity="1" stroke="none" vectornator:layerName="Curva 6"/>
<path d="M689.941 461.572L690.547 475.07C690.678 478.006 693.024 479.572 695.785 478.568L1047.27 348.353C1050.04 347.349 1052.25 344.154 1052.21 341.216L1052.08 329.355C1052.04 326.417 1049.77 324.834 1047 325.819L694.715 454.474C691.947 455.459 689.809 458.637 689.941 461.572Z" fill="#d9d9d9" fill-rule="nonzero" opacity="1" stroke="none" vectornator:layerName="Curva 7"/>
<path d="M690.981 507.848L691.587 521.346C691.718 524.281 694.064 525.847 696.825 524.844L1048.31 394.629C1051.08 393.625 1053.29 390.43 1053.25 387.492L1053.12 375.631C1053.08 372.693 1050.81 371.109 1048.04 372.095L695.755 500.749C692.987 501.735 690.849 504.913 690.981 507.848Z" fill="#d9d9d9" fill-rule="nonzero" opacity="1" stroke="none" vectornator:layerName="Curva 8"/>
<path d="M689.941 556.204L690.547 569.702C690.678 572.637 693.024 574.203 695.785 573.199L1047.27 442.984C1050.04 441.981 1052.25 438.785 1052.21 435.847L1052.08 423.986C1052.04 421.048 1049.77 419.465 1047 420.45L694.715 549.105C691.947 550.09 689.809 553.268 689.941 556.204Z" fill="#d9d9d9" fill-rule="nonzero" opacity="1" stroke="none" vectornator:layerName="Curva 9"/>
<path d="M690.981 600.919L691.587 614.418C691.718 617.353 694.064 618.919 696.825 617.915L1048.31 487.7C1051.08 486.697 1053.29 483.501 1053.25 480.563L1053.12 468.702C1053.08 465.764 1050.81 464.181 1048.04 465.166L695.755 593.821C692.987 594.806 690.849 597.984 690.981 600.919Z" fill="#d9d9d9" fill-rule="nonzero" opacity="1" stroke="none" vectornator:layerName="Curva 10"/>
<path d="M790.236 122.974L790.423 119.883C783.635 10.9457 841.05 13.2149 841.05 13.2149L840.816 13.0672C879.243 15.9653 889.539 48.1511 890.392 85.2314L891.884 85.305L931.065 70.5292L989.032 94.516L988.785 128.68C988.63 150.165 972.101 173.44 951.866 180.666L814.034 229.885C787.236 239.442 765.56 224.125 765.621 195.674L765.668 173.758L712.889 151.057L790.236 122.974Z" fill="#ffa96b" fill-rule="nonzero" opacity="1" stroke="#676767" stroke-linecap="butt" stroke-linejoin="round" stroke-width="9.31176" vectornator:layerName="Curva 12"/>
<path d="M767.315 173.801L988.336 94.7583" fill="none" opacity="1" stroke="#676767" stroke-linecap="butt" stroke-linejoin="round" stroke-width="9.31176" vectornator:layerName="Curva 13"/>
<path d="M789.955 108.166L792.25 140.268L890.526 105.33L890.352 83.3048" fill="none" opacity="1" stroke="#676767" stroke-linecap="butt" stroke-linejoin="round" stroke-width="9.31176" vectornator:layerName="Curva 14"/>
<path d="M818.84 66.976C818.84 53.9807 829.091 43.4458 841.736 43.4458C854.38 43.4458 864.631 53.9807 864.631 66.976C864.631 79.9714 854.38 90.5062 841.736 90.5062C829.091 90.5062 818.84 79.9714 818.84 66.976Z" fill="#ffffff" fill-rule="nonzero" opacity="1" stroke="#676767" stroke-linecap="butt" stroke-linejoin="round" stroke-width="9.31176" vectornator:layerName="Óvalo 2"/>
<g fill="#ffffff" opacity="1" stroke="none" vectornator:layerName="Text 1">
<path d="M1190.01 261.532L1233.07 322.946L1231.33 259.813C1231.22 255.711 1232.01 252.609 1233.72 250.51C1235.42 248.41 1237.77 247.319 1240.77 247.236C1243.85 247.151 1246.32 248.11 1248.16 250.112C1250.01 252.114 1250.98 255.166 1251.1 259.269L1253.4 342.746C1253.65 352.062 1249.92 356.826 1242.2 357.039C1240.27 357.092 1238.52 356.862 1236.96 356.35C1235.4 355.837 1233.93 354.996 1232.54 353.827C1231.16 352.657 1229.87 351.28 1228.66 349.695C1227.46 348.11 1226.26 346.489 1225.05 344.832L1183.02 284.113L1184.73 346.305C1184.85 350.359 1183.99 353.45 1182.16 355.577C1180.34 357.704 1177.95 358.809 1175.01 358.89C1171.97 358.974 1169.5 357.991 1167.61 355.942C1165.72 353.893 1164.72 350.865 1164.61 346.859L1162.35 264.974C1162.25 261.499 1162.57 258.761 1163.28 256.761C1164.14 254.564 1165.61 252.748 1167.7 251.314C1169.78 249.88 1172.06 249.129 1174.52 249.061C1176.45 249.008 1178.11 249.276 1179.5 249.866C1180.9 250.455 1182.13 251.267 1183.19 252.3C1184.26 253.333 1185.36 254.68 1186.49 256.339C1187.63 257.999 1188.8 259.729 1190.01 261.532Z"/>
<path d="M1330.13 319.258L1291.47 320.323C1291.64 324.811 1292.66 328.744 1294.51 332.122C1296.37 335.5 1298.78 338.018 1301.75 339.675C1304.72 341.333 1307.96 342.113 1311.48 342.016C1313.85 341.95 1316 341.613 1317.94 341.004C1319.88 340.395 1321.75 339.474 1323.55 338.241C1325.35 337.008 1327.01 335.695 1328.52 334.301C1330.02 332.907 1331.98 331.017 1334.37 328.633C1335.36 327.736 1336.8 327.262 1338.68 327.21C1340.71 327.154 1342.37 327.664 1343.65 328.739C1344.94 329.815 1345.61 331.366 1345.66 333.394C1345.71 335.18 1345.07 337.286 1343.74 339.714C1342.4 342.142 1340.35 344.493 1337.59 346.767C1334.83 349.041 1331.33 350.96 1327.1 352.526C1322.87 354.092 1317.98 354.951 1312.42 355.104C1299.73 355.454 1289.76 352.106 1282.51 345.06C1275.27 338.014 1271.47 328.289 1271.13 315.884C1270.97 310.044 1271.69 304.602 1273.29 299.558C1274.89 294.515 1277.31 290.161 1280.54 286.498C1283.77 282.834 1287.8 279.982 1292.62 277.941C1297.44 275.901 1302.82 274.798 1308.76 274.635C1316.48 274.422 1323.15 275.869 1328.77 278.974C1334.38 282.08 1338.64 286.177 1341.53 291.266C1344.43 296.355 1345.95 301.578 1346.09 306.936C1346.23 311.907 1344.9 315.168 1342.09 316.719C1339.28 318.269 1335.3 319.116 1330.13 319.258ZM1291.16 309.101L1327 308.114C1326.33 301.37 1324.37 296.364 1321.11 293.097C1317.86 289.829 1313.65 288.267 1308.49 288.409C1303.56 288.544 1299.57 290.357 1296.5 293.847C1293.43 297.337 1291.65 302.422 1291.16 309.101Z"/>
<path d="M1372.52 285.34L1386.63 329.149L1397.23 287.775C1398.36 283.445 1399.21 280.487 1399.77 278.902C1400.33 277.317 1401.42 275.789 1403.05 274.319C1404.68 272.85 1406.94 272.075 1409.83 271.995C1412.78 271.914 1415.1 272.562 1416.81 273.94C1418.51 275.318 1419.72 276.831 1420.45 278.477C1421.17 280.124 1422.19 282.982 1423.51 287.051L1436.37 327.779L1448.18 283.256C1448.96 280.046 1449.6 277.722 1450.09 276.284C1450.58 274.845 1451.44 273.566 1452.67 272.445C1453.89 271.325 1455.69 270.732 1458.05 270.667C1460.42 270.601 1462.49 271.366 1464.27 272.959C1466.06 274.552 1466.98 276.459 1467.04 278.679C1467.1 280.706 1466.43 283.792 1465.05 287.936L1450.21 335.73C1448.92 339.775 1447.91 342.701 1447.19 344.508C1446.47 346.315 1445.29 347.942 1443.67 349.387C1442.04 350.833 1439.78 351.595 1436.88 351.675C1433.89 351.758 1431.51 351.074 1429.76 349.625C1428.01 348.176 1426.69 346.377 1425.81 344.228C1424.93 342.078 1423.96 339.279 1422.9 335.831L1410.54 297.625L1400.67 336.443C1399.37 341.84 1397.91 345.926 1396.3 348.7C1394.68 351.473 1391.75 352.919 1387.5 353.036C1385.33 353.095 1383.47 352.724 1381.93 351.921C1380.39 351.118 1379.09 349.947 1378.03 348.406C1376.97 346.865 1376.03 345.031 1375.2 342.905C1374.37 340.778 1373.72 339.093 1373.25 337.85L1355.94 290.942C1354.23 286.545 1353.35 283.502 1353.3 281.813C1353.24 279.689 1354.03 277.759 1355.68 276.023C1357.32 274.287 1359.37 273.385 1361.83 273.318C1365.11 273.227 1367.36 274.095 1368.57 275.921C1369.78 277.748 1371.1 280.887 1372.52 285.34Z"/>
</g>
<path d="M579.079 203.653L624.602 228.079L624.625 942.224L578.458 924.892C578.458 924.892 577.114 203.024 579.079 203.653Z" fill="#a5a5a5" fill-rule="nonzero" opacity="1" stroke="#676767" stroke-linecap="butt" stroke-linejoin="round" stroke-width="9.31176" vectornator:layerName="Curva 15"/>
</g>
</svg>
